<svg xmlns="http://www.w3.org/2000/svg" width="200" height="150" fill="none" xmlns:v="https://vecta.io/nano"><path d="M23.755 79.253L2.5 89.878l39.058 12.482 20.087-11.27-37.9-11.838z" fill="#0072e7"/><path d="M73.72 69.696l-49.998 9.546L61.62 91.22l56.325.59L73.72 69.696z" fill="#002542"/><path d="M125.3 69.386l3.05 32.33-10.18-9.872-44.354-22.106 24.566-21.934L125.3 69.386z" fill="#0072e7"/><path d="M127.8 101.418l-85.863.782 19.655-11.037 56.125.458 10.084 9.798z" fill="#0089c3"/><path d="M143.772 48.142l-45.2-.392 14.39 11.873 30.812-11.48z" fill="#002542"/><path d="M127.415 101.61l-14.5-42.03 84.586 42.03h-70.085z" fill="#0089c3"/><path d="M197.42 101.325l-53.706-53.177-30.805 11.466 84.51 41.712z" fill="#0072e7"/></svg>