<svg width="200" height="150" viewBox="0 0 200 150" fill="none" xmlns="http://www.w3.org/2000/svg">
<path d="M23.7547 79.2533L2.5 89.8777L41.558 102.36L61.6445 91.0915L23.7547 79.2533Z" fill="#0072E7"/>
<path d="M73.7205 69.696L23.7227 79.2418L61.6193 91.2185L117.944 91.8075L73.7205 69.696Z" fill="#002542"/>
<path d="M125.3 69.3855L128.351 101.714L118.17 91.8418L73.8155 69.7363L98.3818 47.802L125.3 69.3855Z" fill="#0072E7"/>
<path d="M127.801 101.418L41.9375 102.2L61.5923 91.1628L117.717 91.6205L127.801 101.418Z" fill="#0089C3"/>
<path d="M143.772 48.1423L98.5707 47.75L112.96 59.6232L143.772 48.1423Z" fill="#002542"/>
<path d="M127.415 101.609L112.914 59.5782L197.5 101.609H127.415Z" fill="#0089C3"/>
<path d="M197.419 101.325L143.713 48.1478L112.908 59.6135L197.419 101.325Z" fill="#0072E7"/>
</svg>
