<svg xmlns="http://www.w3.org/2000/svg" xmlns:xlink="http://www.w3.org/1999/xlink" viewBox="0 0 448.54 146.46"><defs><style>.cls-1{fill:url(#linear-gradient);}.cls-2{fill:#2a2c84;}.cls-3{fill:#0068ac;}.cls-4{fill:url(#linear-gradient-2);}.cls-5{fill:url(#linear-gradient-3);}.cls-6{fill:url(#linear-gradient-4);}.cls-7{fill:url(#linear-gradient-5);}.cls-8{fill:url(#linear-gradient-6);}.cls-9{fill:url(#linear-gradient-7);}.cls-10{fill:url(#linear-gradient-8);}.cls-11{fill:url(#linear-gradient-9);}.cls-12{fill:url(#linear-gradient-10);}.cls-13{fill:aqua;}.cls-14{fill:#261d92;}.cls-15{fill:url(#linear-gradient-11);}.cls-16{fill:url(#linear-gradient-12);}.cls-17{fill:url(#linear-gradient-13);}.cls-18{fill:#3b3eba;}.cls-19{fill:url(#linear-gradient-14);}.cls-20{opacity:0.6;}.cls-21{fill:#f0f;}.cls-22{fill:url(#linear-gradient-15);}.cls-23{fill:#2839ca;}.cls-24{fill:url(#linear-gradient-16);}.cls-25{fill:url(#linear-gradient-17);}.cls-26{fill:url(#linear-gradient-18);}.cls-27{fill:url(#linear-gradient-19);}</style><linearGradient id="linear-gradient" x1="224.01" y1="96.1" x2="224.01" y2="142.27" gradientUnits="userSpaceOnUse"><stop offset="0" stop-color="#1c49b2"/><stop offset="0.16" stop-color="#193e97"/><stop offset="0.38" stop-color="#153279"/><stop offset="0.6" stop-color="#132963"/><stop offset="0.81" stop-color="#122456"/><stop offset="1" stop-color="#112252"/></linearGradient><linearGradient id="linear-gradient-2" x1="396.88" y1="108.72" x2="396.88" y2="67.28" gradientUnits="userSpaceOnUse"><stop offset="0" stop-color="#0090f0"/><stop offset="1" stop-color="#3b3eba"/></linearGradient><linearGradient id="linear-gradient-3" x1="385.85" y1="65.02" x2="385.85" y2="30.53" xlink:href="#linear-gradient-2"/><linearGradient id="linear-gradient-4" x1="397.63" y1="93.34" x2="397.63" y2="108.46" gradientUnits="userSpaceOnUse"><stop offset="0" stop-color="#011961"/><stop offset="1" stop-color="#233094"/></linearGradient><linearGradient id="linear-gradient-5" x1="367.44" y1="68.48" x2="367.44" y2="76.66" xlink:href="#linear-gradient-4"/><linearGradient id="linear-gradient-6" x1="377.1" y1="68.48" x2="377.1" y2="76.66" xlink:href="#linear-gradient-4"/><linearGradient id="linear-gradient-7" x1="386.75" y1="68.48" x2="386.75" y2="76.66" xlink:href="#linear-gradient-4"/><linearGradient id="linear-gradient-8" x1="396.4" y1="68.48" x2="396.4" y2="76.66" xlink:href="#linear-gradient-4"/><linearGradient id="linear-gradient-9" x1="406.05" y1="68.48" x2="406.05" y2="76.66" xlink:href="#linear-gradient-4"/><linearGradient id="linear-gradient-10" x1="367.78" y1="34.76" x2="367.78" y2="47.42" xlink:href="#linear-gradient-4"/><linearGradient id="linear-gradient-11" x1="377.78" y1="34.76" x2="377.78" y2="47.42" xlink:href="#linear-gradient-4"/><linearGradient id="linear-gradient-12" x1="385.85" y1="34.76" x2="385.85" y2="47.42" xlink:href="#linear-gradient-4"/><linearGradient id="linear-gradient-13" x1="393.92" y1="34.76" x2="393.92" y2="47.42" xlink:href="#linear-gradient-4"/><linearGradient id="linear-gradient-14" x1="371.64" y1="2.38" x2="380.55" y2="2.38" gradientUnits="userSpaceOnUse"><stop offset="0" stop-color="#571f95"/><stop offset="0.01" stop-color="#591f95"/><stop offset="0.17" stop-color="#831f8f"/><stop offset="0.33" stop-color="#a6208a"/><stop offset="0.49" stop-color="#c12087"/><stop offset="0.66" stop-color="#d52084"/><stop offset="0.82" stop-color="#e02083"/><stop offset="1" stop-color="#e42082"/></linearGradient><linearGradient id="linear-gradient-15" x1="243.39" y1="111.04" x2="243.39" y2="79.7" gradientUnits="userSpaceOnUse"><stop offset="0" stop-color="#2839ca"/><stop offset="1" stop-color="#11ccce"/></linearGradient><linearGradient id="linear-gradient-16" x1="186.09" y1="111.04" x2="186.09" y2="79.7" gradientUnits="userSpaceOnUse"><stop offset="0" stop-color="#2839ca"/><stop offset="1" stop-color="#971ce8"/></linearGradient><linearGradient id="linear-gradient-17" x1="300.48" y1="88.02" x2="300.48" y2="60.96" gradientUnits="userSpaceOnUse"><stop offset="0" stop-color="#2839ca"/><stop offset="1" stop-color="#b0706b"/></linearGradient><linearGradient id="linear-gradient-18" x1="128.86" y1="110.45" x2="128.86" y2="85.02" gradientUnits="userSpaceOnUse"><stop offset="0" stop-color="#2839ca"/><stop offset="1" stop-color="#a2a6d4"/></linearGradient><linearGradient id="linear-gradient-19" x1="300.48" y1="110.4" x2="300.48" y2="84.96" xlink:href="#linear-gradient-18"/></defs><g id="Layer_2" data-name="Layer 2"><g id="Layer_1-2" data-name="Layer 1"><path class="cls-1" d="M448,109.73a36.63,36.63,0,0,0-4.41,16.71c0,.55,0,1.1-.06,1.64a20,20,0,0,1-20,18.38H33.93c1.34-4.53,2.2-12.51-7.06-15.06l-1-.23a44.05,44.05,0,0,1-9.31-3.09c-7.42-3.49-13.26-9.34-15.29-18.63-.12-.55-.23-1.12-.32-1.7a96.12,96.12,0,0,1-1-12H64.67a10.46,10.46,0,0,1,8.44,4.29l4.31,5.9a9.21,9.21,0,0,0,5.17,3.48,8.89,8.89,0,0,0,2.25.28Z"/><path class="cls-2" d="M443.54,128.08a20,20,0,0,1-.56,3.32H26.87l-1-.23a44.05,44.05,0,0,1-9.31-3.09Z"/><path class="cls-3" d="M82.59,109.45H1.31c-.12-.55-.23-1.12-.32-1.7-.19-1.17-.35-2.41-.48-3.69H76L77.42,106A9.21,9.21,0,0,0,82.59,109.45Z"/><polygon class="cls-4" points="431.67 109.78 362.09 109.78 362.09 66.35 414.62 66.35 416.85 81.79 431.67 81.79 431.67 109.78"/><polygon class="cls-5" points="405.27 30.7 362.32 30.7 362.32 64.22 409.38 64.22 405.27 30.7"/><rect class="cls-6" x="393.03" y="93.48" width="9.2" height="16.3"/><rect class="cls-7" x="363.65" y="69.09" width="7.59" height="5.23" rx="0.58"/><rect class="cls-8" x="373.3" y="69.09" width="7.59" height="5.23" rx="0.58"/><rect class="cls-9" x="382.96" y="69.09" width="7.59" height="5.23" rx="0.58"/><rect class="cls-10" x="392.6" y="69.09" width="7.61" height="5.23" rx="0.58"/><rect class="cls-11" x="402.25" y="69.09" width="7.61" height="5.23" rx="0.58"/><path class="cls-12" d="M362.32,35.63h9a1.92,1.92,0,0,1,1.92,1.92v4.56A1.92,1.92,0,0,1,371.31,44h-9a0,0,0,0,1,0,0V35.63A0,0,0,0,1,362.32,35.63Z"/><rect class="cls-13" x="368.98" y="93.48" width="3.83" height="2.64" rx="0.29"/><rect class="cls-13" x="373.85" y="93.48" width="3.83" height="2.64" rx="0.29"/><rect class="cls-13" x="378.73" y="93.48" width="3.83" height="2.64" rx="0.29"/><rect class="cls-13" x="383.6" y="93.48" width="3.84" height="2.64" rx="0.29"/><rect class="cls-13" x="368.98" y="97.02" width="3.83" height="2.64" rx="0.29"/><rect class="cls-13" x="373.85" y="97.02" width="3.83" height="2.64" rx="0.29"/><rect class="cls-13" x="378.73" y="97.02" width="3.83" height="2.64" rx="0.29"/><rect class="cls-13" x="383.6" y="97.02" width="3.84" height="2.64" rx="0.29"/><rect class="cls-13" x="407.22" y="93.48" width="3.83" height="2.64" rx="0.29"/><rect class="cls-13" x="412.1" y="93.48" width="3.83" height="2.64" rx="0.29"/><rect class="cls-13" x="416.97" y="93.48" width="3.83" height="2.64" rx="0.29"/><rect class="cls-13" x="421.84" y="93.48" width="3.84" height="2.64" rx="0.29"/><rect class="cls-13" x="407.22" y="97.02" width="3.83" height="2.64" rx="0.29"/><rect class="cls-13" x="412.1" y="97.02" width="3.83" height="2.64" rx="0.29"/><rect class="cls-13" x="416.97" y="97.02" width="3.83" height="2.64" rx="0.29"/><rect class="cls-13" x="421.84" y="97.02" width="3.84" height="2.64" rx="0.29"/><path class="cls-14" d="M433.17,75.08v-.45H415.81l.07.45h2v4.59h-1.36l.31,2.12h16.32V79.67h-.57V75.08Zm-14.81,0H425v4.59h-6.66Zm13.78,4.59h-6.66V75.08h6.66Z"/><path class="cls-14" d="M416.45,59.64v-.46H357.88v.46h.64v4.58h-.64v2.13h58.57V64.22h-.57V59.64ZM359,64.22V59.64h6.64v4.58Zm7.1,0V59.64h6.65v4.58Zm7.11,0V59.64h6.64v4.58Zm7.1,0V59.64h6.65v4.58Zm7.1,0V59.64h6.67v4.58Zm7.13,0V59.64h6.66v4.58Zm7.12,0V59.64h6.66v4.58Zm13.78,0h-6.66V59.64h6.66Z"/><rect class="cls-15" x="374.59" y="35.63" width="6.4" height="8.41" rx="1.48"/><rect class="cls-16" x="382.65" y="35.63" width="6.4" height="8.41" rx="1.48"/><rect class="cls-17" x="390.72" y="35.63" width="6.4" height="8.41" rx="1.48"/><path class="cls-18" d="M378.82,30.7h.54l-2.9-21.39h.18v-.4H371v.4h.23V30.7h.54V28.92h6.8Zm-7-17.49h4.66l.38,2.74h-5Zm0,3.14h5.09l.37,2.74h-5.46Zm0,3.15h5.52l.37,2.74h-5.89Zm0,3.14h5.94l.38,2.74h-6.32Zm4.13-13.33.48,3.5h-4.61V9.31Zm-4.13,19.21V25.78h6.37l.37,2.74Z"/><polygon class="cls-18" points="380.64 20.87 369.11 20.87 369.11 30.7 382.26 30.7 380.64 20.87"/><rect class="cls-18" x="371.36" width="0.32" height="8.91"/><polygon class="cls-19" points="380.22 4.75 371.68 4.75 371.68 0 380.22 4.75"/><g class="cls-20"><path class="cls-21" d="M379.27,4.51h-.15l0,0a0,0,0,0,1,0,0h.08l-.07,0s0,0,0,0,0,0,0,0l.13.07a0,0,0,0,1,0,0Z"/><path class="cls-21" d="M378.8,4.51h-.31l0,0a0,0,0,0,1,0,0h.31a0,0,0,0,1,0,0Zm-.63,0h-.32s0,0,0,0,0,0,0,0h.32a0,0,0,0,1,0,0Zm-.63,0h-.32a0,0,0,0,1,0,0,0,0,0,0,1,0,0h.32a0,0,0,0,1,0,0Zm-.63,0h-.32l0,0a0,0,0,0,1,0,0h.32a0,0,0,0,1,0,0Zm-.63,0H376l0,0s0,0,0,0h.32a0,0,0,0,1,0,0A0,0,0,0,1,376.28,4.46Zm-.63,0h-.32a0,0,0,0,1,0,0l0,0h.32s0,0,0,0S375.66,4.49,375.65,4.49Zm-.64,0h-.31a0,0,0,0,1,0,0l0,0H375l0,0A0,0,0,0,1,375,4.49Zm-.63,0h-.31a0,0,0,0,1,0,0l0,0h.31l0,0A0,0,0,0,1,374.38,4.49Zm-.63,0h-.32s0,0,0,0,0,0,0,0h.31s0,0,0,0S373.76,4.48,373.75,4.48Zm-.63,0h-.32l0,0,0,0h.32l0,0Zm-.63,0h-.32l0,0,0,0h.32l0,0Z"/><path class="cls-21" d="M371.86,4.48h-.18V4.3l0,0,0,0v.14h.14l0,0Z"/><path class="cls-21" d="M371.7,4a0,0,0,0,1,0,0v-.3h0V4Zm0-.59a0,0,0,0,1,0,0V3.13a0,0,0,0,1,0,0l0,0v.29A0,0,0,0,1,371.7,3.44Zm0-.58a0,0,0,0,1,0,0v-.3s0,0,0,0,0,0,0,0v.3A0,0,0,0,1,371.7,2.86Zm0-.59a0,0,0,0,1,0,0V2a0,0,0,0,1,0,0,0,0,0,0,1,0,0v.29Zm0-.58a0,0,0,0,1,0,0V1.38s0,0,0,0,0,0,0,0v.29A0,0,0,0,1,371.7,1.69Zm0-.59a0,0,0,0,1,0,0V.79a0,0,0,0,1,0,0,0,0,0,0,1,0,0v.29A0,0,0,0,1,371.7,1.1Z"/><path class="cls-21" d="M371.7.52a0,0,0,0,1,0,0V.34s0,0,0,0h0l.14.08s0,0,0,0,0,0,0,0l-.11-.06V.5A0,0,0,0,1,371.7.52Z"/><path class="cls-21" d="M378.87,4.29h0l-.27-.15s0,0,0,0,0,0,0,0l.27.15a0,0,0,0,1,0,0Zm-.54-.3h0l-.27-.15a0,0,0,0,1,0,0s0,0,0,0l.28.14s0,0,0,0A0,0,0,0,1,378.33,4Zm-.54-.29h0l-.27-.15s0,0,0,0,0,0,0,0l.27.15a0,0,0,0,1,0,0Zm-.55-.3h0L377,3.25s0,0,0,0,0,0,0,0l.27.15s0,0,0,0Zm-.54-.3h0L376.42,3s0,0,0,0,0,0,0,0l.27.15s0,0,0,0S376.71,3.1,376.7,3.1Zm-.54-.29h0l-.27-.14a0,0,0,0,1,0,0h0l.27.15a0,0,0,0,1,0,0Zm-.54-.3h0l-.27-.15a0,0,0,0,1,0,0,0,0,0,0,1,0,0l.27.14a0,0,0,0,1,0,0Zm-.54-.3h0l-.27-.15s0,0,0,0,0,0,0,0l.27.15s0,0,0,0Zm-.54-.29h0l-.27-.15a0,0,0,0,1,0,0h0l.27.15a0,0,0,0,1,0,0Zm-.54-.3h0l-.27-.15s0,0,0,0a0,0,0,0,1,0,0l.27.14a0,0,0,0,1,0,0Zm-.54-.29h0l-.27-.15s0,0,0,0h0l.27.15s0,0,0,0S373.47,1.33,373.46,1.33Zm-.54-.3h0l-.27-.15a0,0,0,0,1,0,0h0l.27.15a0,0,0,0,1,0,0Zm-.54-.3h0L372.1.58s0,0,0,0,0,0,0,0l.27.15s0,0,0,0A0,0,0,0,1,372.38.73Z"/></g><rect class="cls-22" x="215.11" y="88.06" width="56.57" height="21.71"/><rect class="cls-23" x="217.1" y="89.47" width="1.33" height="18.89"/><rect class="cls-23" x="219.79" y="89.47" width="1.33" height="18.89"/><rect class="cls-23" x="222.48" y="89.47" width="1.33" height="18.89"/><rect class="cls-23" x="225.17" y="89.47" width="1.33" height="18.89"/><rect class="cls-23" x="227.86" y="89.47" width="1.33" height="18.89"/><rect class="cls-23" x="230.55" y="89.47" width="1.33" height="18.89"/><rect class="cls-23" x="233.23" y="89.47" width="1.33" height="18.89"/><rect class="cls-23" x="235.92" y="89.47" width="1.33" height="18.89"/><rect class="cls-23" x="238.61" y="89.47" width="1.33" height="18.89"/><rect class="cls-23" x="241.3" y="89.47" width="1.33" height="18.89"/><rect class="cls-23" x="243.99" y="89.47" width="1.33" height="18.89"/><rect class="cls-23" x="246.68" y="89.47" width="1.33" height="18.89"/><rect class="cls-23" x="249.37" y="89.47" width="1.33" height="18.89"/><rect class="cls-23" x="252.06" y="89.47" width="1.33" height="18.89"/><rect class="cls-23" x="254.75" y="89.47" width="1.33" height="18.89"/><rect class="cls-23" x="257.44" y="89.47" width="1.33" height="18.89"/><rect class="cls-23" x="260.12" y="89.47" width="1.33" height="18.89"/><rect class="cls-23" x="262.81" y="89.47" width="1.33" height="18.89"/><rect class="cls-23" x="265.5" y="89.47" width="1.33" height="18.89"/><rect class="cls-23" x="268.19" y="89.47" width="1.33" height="18.89"/><rect class="cls-24" x="157.8" y="88.06" width="56.57" height="21.71"/><rect class="cls-23" x="159.79" y="89.47" width="1.33" height="18.89"/><rect class="cls-23" x="162.48" y="89.47" width="1.33" height="18.89"/><rect class="cls-23" x="165.17" y="89.47" width="1.33" height="18.89"/><rect class="cls-23" x="167.86" y="89.47" width="1.33" height="18.89"/><rect class="cls-23" x="170.55" y="89.47" width="1.33" height="18.89"/><rect class="cls-23" x="173.24" y="89.47" width="1.33" height="18.89"/><rect class="cls-23" x="175.93" y="89.47" width="1.33" height="18.89"/><rect class="cls-23" x="178.62" y="89.47" width="1.33" height="18.89"/><rect class="cls-23" x="181.31" y="89.47" width="1.33" height="18.89"/><rect class="cls-23" x="183.99" y="89.47" width="1.33" height="18.89"/><rect class="cls-23" x="186.68" y="89.47" width="1.33" height="18.89"/><rect class="cls-23" x="189.37" y="89.47" width="1.33" height="18.89"/><rect class="cls-23" x="192.06" y="89.47" width="1.33" height="18.89"/><rect class="cls-23" x="194.75" y="89.47" width="1.33" height="18.89"/><rect class="cls-23" x="197.44" y="89.47" width="1.33" height="18.89"/><rect class="cls-23" x="200.13" y="89.47" width="1.33" height="18.89"/><rect class="cls-23" x="202.82" y="89.47" width="1.33" height="18.89"/><rect class="cls-23" x="205.51" y="89.47" width="1.33" height="18.89"/><rect class="cls-23" x="208.2" y="89.47" width="1.33" height="18.89"/><rect class="cls-23" x="210.89" y="89.47" width="1.33" height="18.89"/><rect class="cls-25" x="272.19" y="66.35" width="56.57" height="21.71"/><rect class="cls-23" x="274.18" y="67.76" width="1.33" height="18.89"/><rect class="cls-23" x="276.87" y="67.76" width="1.33" height="18.89"/><rect class="cls-23" x="279.56" y="67.76" width="1.33" height="18.89"/><rect class="cls-23" x="282.25" y="67.76" width="1.33" height="18.89"/><rect class="cls-23" x="284.94" y="67.76" width="1.33" height="18.89"/><rect class="cls-23" x="287.63" y="67.76" width="1.33" height="18.89"/><rect class="cls-23" x="290.32" y="67.76" width="1.33" height="18.89"/><rect class="cls-23" x="293" y="67.76" width="1.33" height="18.89"/><rect class="cls-23" x="295.69" y="67.76" width="1.33" height="18.89"/><rect class="cls-23" x="298.38" y="67.76" width="1.33" height="18.89"/><rect class="cls-23" x="301.07" y="67.76" width="1.33" height="18.89"/><rect class="cls-23" x="303.76" y="67.76" width="1.33" height="18.89"/><rect class="cls-23" x="306.45" y="67.76" width="1.33" height="18.89"/><rect class="cls-23" x="309.14" y="67.76" width="1.33" height="18.89"/><rect class="cls-23" x="311.83" y="67.76" width="1.33" height="18.89"/><rect class="cls-23" x="314.52" y="67.76" width="1.33" height="18.89"/><rect class="cls-23" x="317.21" y="67.76" width="1.33" height="18.89"/><rect class="cls-23" x="319.89" y="67.76" width="1.33" height="18.89"/><rect class="cls-23" x="322.58" y="67.76" width="1.33" height="18.89"/><rect class="cls-23" x="325.27" y="67.76" width="1.33" height="18.89"/><rect class="cls-26" x="100.58" y="88.06" width="56.57" height="21.71"/><rect class="cls-23" x="102.57" y="89.47" width="1.33" height="18.89"/><rect class="cls-23" x="105.26" y="89.47" width="1.33" height="18.89"/><rect class="cls-23" x="107.95" y="89.47" width="1.33" height="18.89"/><rect class="cls-23" x="110.63" y="89.47" width="1.33" height="18.89"/><rect class="cls-23" x="113.32" y="89.47" width="1.33" height="18.89"/><rect class="cls-23" x="116.01" y="89.47" width="1.33" height="18.89"/><rect class="cls-23" x="118.7" y="89.47" width="1.33" height="18.89"/><rect class="cls-23" x="121.39" y="89.47" width="1.33" height="18.89"/><rect class="cls-23" x="124.08" y="89.47" width="1.33" height="18.89"/><rect class="cls-23" x="126.77" y="89.47" width="1.33" height="18.89"/><rect class="cls-23" x="129.46" y="89.47" width="1.33" height="18.89"/><rect class="cls-23" x="132.15" y="89.47" width="1.33" height="18.89"/><rect class="cls-23" x="134.84" y="89.47" width="1.33" height="18.89"/><rect class="cls-23" x="137.53" y="89.47" width="1.33" height="18.89"/><rect class="cls-23" x="140.21" y="89.47" width="1.33" height="18.89"/><rect class="cls-23" x="142.9" y="89.47" width="1.33" height="18.89"/><rect class="cls-23" x="145.59" y="89.47" width="1.33" height="18.89"/><rect class="cls-23" x="148.28" y="89.47" width="1.33" height="18.89"/><rect class="cls-23" x="150.97" y="89.47" width="1.33" height="18.89"/><rect class="cls-23" x="153.66" y="89.47" width="1.33" height="18.89"/><rect class="cls-27" x="272.19" y="88.01" width="56.57" height="21.71"/><rect class="cls-23" x="274.18" y="89.42" width="1.33" height="18.89"/><rect class="cls-23" x="276.87" y="89.42" width="1.33" height="18.89"/><rect class="cls-23" x="279.56" y="89.42" width="1.33" height="18.89"/><rect class="cls-23" x="282.25" y="89.42" width="1.33" height="18.89"/><rect class="cls-23" x="284.94" y="89.42" width="1.33" height="18.89"/><rect class="cls-23" x="287.63" y="89.42" width="1.33" height="18.89"/><rect class="cls-23" x="290.32" y="89.42" width="1.33" height="18.89"/><rect class="cls-23" x="293" y="89.42" width="1.33" height="18.89"/><rect class="cls-23" x="295.69" y="89.42" width="1.33" height="18.89"/><rect class="cls-23" x="298.38" y="89.42" width="1.33" height="18.89"/><rect class="cls-23" x="301.07" y="89.42" width="1.33" height="18.89"/><rect class="cls-23" x="303.76" y="89.42" width="1.33" height="18.89"/><rect class="cls-23" x="306.45" y="89.42" width="1.33" height="18.89"/><rect class="cls-23" x="309.14" y="89.42" width="1.33" height="18.89"/><rect class="cls-23" x="311.83" y="89.42" width="1.33" height="18.89"/><rect class="cls-23" x="314.52" y="89.42" width="1.33" height="18.89"/><rect class="cls-23" x="317.21" y="89.42" width="1.33" height="18.89"/><rect class="cls-23" x="319.89" y="89.42" width="1.33" height="18.89"/><rect class="cls-23" x="322.58" y="89.42" width="1.33" height="18.89"/><rect class="cls-23" x="325.27" y="89.42" width="1.33" height="18.89"/><path class="cls-14" d="M448.54,103.63v-.46H332.81v.46h.64v4.58h-.64v2.13H448.54v-2.13H448v-4.58ZM333.9,108.21v-4.58h6.65v4.58Zm7.11,0v-4.58h6.64v4.58Zm7.1,0v-4.58h6.65v4.58Zm7.11,0v-4.58h6.64v4.58Zm7.1,0v-4.58H369v4.58Zm7.12,0v-4.58h6.66v4.58Zm7.12,0v-4.58h6.66v4.58Zm13.41,0h-6.29v-4.58h6.93v4.58Zm1.41,0h-.31v-4.58h6.64v4.58Zm6.79,0v-4.58h6.64v4.58Zm7.1,0v-4.58h6.65v4.58Zm7.11,0v-4.58H419v4.58Zm7.1,0v-4.58h6.66v4.58Zm7.12,0v-4.58h6.66v4.58Zm7.12,0v-4.58h6.66v4.58Zm13.79,0h-6.67v-4.58h6.67Z"/><path class="cls-14" d="M65.81,89.1v-.46H0v.46H.64v4.58H0v2.13H65.81V93.68h-.45V89.1ZM7.74,93.68H1.1V89.1H7.74Zm7.11,0H8.2V89.1h6.65Zm7.1,0H15.31V89.1H22Zm7.11,0H22.41V89.1h6.65Zm7.12,0H29.51V89.1h6.67Zm7.12,0H36.64V89.1H43.3Zm7.12,0H43.76V89.1h6.66Zm7.38,0H50.88V89.1H57.8Zm7.11,0H58.26V89.1h6.65Z"/></g></g></svg>