<svg xmlns="http://www.w3.org/2000/svg" viewBox="0 0 1330.82 466.24"><defs><style>.cls-1{fill:#4e5b60;}.cls-2{fill:#798d93;}.cls-3{fill:#fff;opacity:0.37;}</style></defs><g id="Layer_2" data-name="Layer 2"><g id="Layer_2-2" data-name="Layer 2"><rect class="cls-1" width="1330.82" height="466.24"/><rect class="cls-2" x="11.7" y="11.21" width="199.23" height="70.46" rx="15.63"/><path class="cls-3" d="M18.39,45.44c.54,3.17,4.85,3.56,7.3,3.07a4.42,4.42,0,0,0,3.07-3.45c1.36-5.14-1.9-11.22,1.3-15.59,3.06-4.17,9.61-3.68,15-3.2a92.9,92.9,0,0,0,23.44-.87C71,25,74,24,74.63,21.67c.49-2-1.13-4-3.11-4.78a15.56,15.56,0,0,0-6.39-.62c-6.54.25-13.1.26-19.64,0C37.94,16,27,15.5,21.36,21.39S17.19,38.35,18.39,45.44Z"/><path class="cls-3" d="M81.21,20a2.15,2.15,0,0,0,0,1.23,2.58,2.58,0,0,0,1.53,1.37c3.06,1.35,6.64.74,10,.26a104.32,104.32,0,0,1,28-.2c2.07.27,4.67.38,5.72-1.32s-.33-3.73-2.13-4.46-3.86-.48-5.81-.27a97.1,97.1,0,0,1-18.44.2C95.23,16.41,83,13.63,81.21,20Z"/><rect class="cls-2" x="233.38" y="11.21" width="199.23" height="70.46" rx="15.63"/><path class="cls-3" d="M240.07,45.44c.54,3.17,4.85,3.56,7.3,3.07a4.42,4.42,0,0,0,3.07-3.45c1.36-5.14-1.89-11.22,1.31-15.59,3.05-4.17,9.61-3.68,15-3.2a92.9,92.9,0,0,0,23.44-.87c2.55-.42,5.56-1.36,6.15-3.73.49-2-1.13-4-3.11-4.78a15.55,15.55,0,0,0-6.39-.62c-6.54.25-13.1.26-19.64,0-7.55-.28-18.45-.78-24.12,5.11S238.87,38.35,240.07,45.44Z"/><path class="cls-3" d="M302.89,20a2.15,2.15,0,0,0,0,1.23,2.58,2.58,0,0,0,1.53,1.37c3.06,1.35,6.64.74,10,.26a104.33,104.33,0,0,1,28-.2c2.07.27,4.67.38,5.72-1.32s-.33-3.73-2.13-4.46-3.86-.48-5.81-.27a97.1,97.1,0,0,1-18.44.2C316.91,16.41,304.68,13.63,302.89,20Z"/><rect class="cls-2" x="455.06" y="11.21" width="199.23" height="70.46" rx="15.63"/><path class="cls-3" d="M461.76,45.44c.54,3.17,4.85,3.56,7.3,3.07a4.45,4.45,0,0,0,3.07-3.45c1.35-5.14-1.9-11.22,1.3-15.59,3.06-4.17,9.61-3.68,15-3.2a92.84,92.84,0,0,0,23.43-.87C514.39,25,517.4,24,518,21.67c.49-2-1.13-4-3.11-4.78a15.51,15.51,0,0,0-6.38-.62q-9.83.38-19.65,0c-7.55-.28-18.45-.78-24.12,5.11S460.55,38.35,461.76,45.44Z"/><path class="cls-3" d="M524.58,20a2.15,2.15,0,0,0-.05,1.23,2.58,2.58,0,0,0,1.53,1.37c3.06,1.35,6.64.74,10,.26a104.33,104.33,0,0,1,28-.2c2.07.27,4.67.38,5.72-1.32s-.32-3.73-2.13-4.46-3.86-.48-5.81-.27a97.09,97.09,0,0,1-18.44.2C538.59,16.41,526.36,13.63,524.58,20Z"/><rect class="cls-2" x="676.74" y="11.21" width="199.23" height="70.46" rx="15.63"/><path class="cls-3" d="M683.44,45.44c.54,3.17,4.85,3.56,7.3,3.07a4.45,4.45,0,0,0,3.07-3.45c1.36-5.14-1.9-11.22,1.3-15.59,3.06-4.17,9.61-3.68,15-3.2a92.84,92.84,0,0,0,23.43-.87c2.56-.42,5.56-1.36,6.15-3.73.5-2-1.12-4-3.11-4.78a15.51,15.51,0,0,0-6.38-.62q-9.82.38-19.65,0c-7.55-.28-18.45-.78-24.12,5.11S682.23,38.35,683.44,45.44Z"/><path class="cls-3" d="M746.26,20a2.24,2.24,0,0,0,0,1.23,2.61,2.61,0,0,0,1.53,1.37c3.07,1.35,6.64.74,10,.26a104.25,104.25,0,0,1,28-.2c2.07.27,4.67.38,5.73-1.32s-.33-3.73-2.13-4.46-3.86-.48-5.81-.27a97.2,97.2,0,0,1-18.45.2C760.27,16.41,748,13.63,746.26,20Z"/><rect class="cls-2" x="898.42" y="13.45" width="199.23" height="70.46" rx="15.63"/><path class="cls-3" d="M905.12,47.68c.54,3.17,4.85,3.56,7.3,3.07a4.43,4.43,0,0,0,3.07-3.45c1.36-5.14-1.9-11.22,1.3-15.59,3.06-4.17,9.61-3.68,15-3.2a92.92,92.92,0,0,0,23.44-.87c2.55-.42,5.55-1.36,6.14-3.73.5-2-1.12-4-3.11-4.78a15.5,15.5,0,0,0-6.38-.62q-9.83.38-19.64,0c-7.56-.28-18.46-.78-24.13,5.11S903.91,40.59,905.12,47.68Z"/><path class="cls-3" d="M967.94,22.25a2.15,2.15,0,0,0,0,1.23,2.58,2.58,0,0,0,1.53,1.37c3.06,1.35,6.63.74,10,.26a104.25,104.25,0,0,1,28-.2c2.08.27,4.68.38,5.73-1.32s-.33-3.73-2.13-4.46-3.86-.48-5.81-.27a97.1,97.1,0,0,1-18.44.2C982,18.65,969.73,15.88,967.94,22.25Z"/><rect class="cls-2" x="1120.11" y="15.69" width="199.23" height="70.46" rx="15.63"/><path class="cls-3" d="M1126.8,49.92c.54,3.17,4.85,3.56,7.3,3.07a4.43,4.43,0,0,0,3.07-3.45c1.36-5.14-1.9-11.22,1.3-15.59,3.06-4.17,9.61-3.68,15-3.2a92.92,92.92,0,0,0,23.44-.87c2.55-.42,5.55-1.36,6.15-3.73.49-2-1.13-4-3.11-4.78a15.56,15.56,0,0,0-6.39-.62c-6.54.25-13.1.26-19.64,0-7.56-.28-18.46-.78-24.13,5.11S1125.59,42.83,1126.8,49.92Z"/><path class="cls-3" d="M1189.62,24.5a2.11,2.11,0,0,0,0,1.22,2.58,2.58,0,0,0,1.53,1.37c3.06,1.35,6.64.74,10,.26a104.25,104.25,0,0,1,28-.2c2.08.27,4.68.38,5.73-1.32s-.33-3.73-2.13-4.46-3.86-.48-5.81-.27a97.1,97.1,0,0,1-18.44.2C1203.64,20.89,1191.41,18.12,1189.62,24.5Z"/><path class="cls-2" d="M69,103.5H0V174H69c8.91,0,16.13-6.78,16.13-15.15V118.65C85.09,110.28,77.87,103.5,69,103.5Z"/><path class="cls-2" d="M79.9,285.84H0V356.3H79.9c10.33,0,18.69-6.79,18.69-15.15V301C98.59,292.62,90.23,285.84,79.9,285.84Z"/><path class="cls-2" d="M1250.92,292.56h79.9V363h-79.9c-10.32,0-18.69-6.79-18.69-15.15V307.71C1232.23,299.34,1240.6,292.56,1250.92,292.56Z"/><path class="cls-2" d="M1250.92,108h79.9v70.46h-79.9c-10.32,0-18.69-6.78-18.69-15.15V123.13C1232.23,114.76,1240.6,108,1250.92,108Z"/><rect class="cls-2" x="107.54" y="103.5" width="199.23" height="70.46" rx="15.63"/><path class="cls-3" d="M114.24,137.73c.54,3.16,4.85,3.56,7.3,3.06a4.45,4.45,0,0,0,3.07-3.44c1.36-5.15-1.9-11.22,1.3-15.59,3.06-4.17,9.61-3.68,15-3.2a92.84,92.84,0,0,0,23.43-.87c2.56-.42,5.56-1.36,6.15-3.73.49-2-1.12-4-3.11-4.78a15.51,15.51,0,0,0-6.38-.62q-9.82.38-19.65,0c-7.55-.28-18.45-.78-24.12,5.1S113,130.64,114.24,137.73Z"/><path class="cls-3" d="M177.06,112.3a2.24,2.24,0,0,0-.05,1.23,2.58,2.58,0,0,0,1.53,1.37c3.07,1.35,6.64.73,10,.26a104.25,104.25,0,0,1,28-.2c2.07.27,4.67.38,5.72-1.32s-.32-3.74-2.12-4.47-3.86-.47-5.81-.26a96.38,96.38,0,0,1-18.45.19C191.07,108.69,178.84,105.92,177.06,112.3Z"/><rect class="cls-2" x="329.22" y="103.5" width="199.23" height="70.46" rx="15.63"/><path class="cls-3" d="M335.92,137.73c.54,3.16,4.85,3.56,7.3,3.06a4.45,4.45,0,0,0,3.07-3.44c1.36-5.15-1.9-11.22,1.3-15.59,3.06-4.17,9.61-3.68,15-3.2a92.84,92.84,0,0,0,23.43-.87c2.56-.42,5.56-1.36,6.15-3.73.5-2-1.12-4-3.11-4.78a15.5,15.5,0,0,0-6.38-.62q-9.82.38-19.65,0c-7.55-.28-18.45-.78-24.12,5.1S334.71,130.64,335.92,137.73Z"/><path class="cls-3" d="M398.74,112.3a2.15,2.15,0,0,0,0,1.23,2.56,2.56,0,0,0,1.52,1.37c3.07,1.35,6.64.73,10,.26a104.25,104.25,0,0,1,28-.2c2.08.27,4.67.38,5.73-1.32s-.33-3.74-2.13-4.47-3.86-.47-5.81-.26a96.28,96.28,0,0,1-18.44.19C412.75,108.69,400.52,105.92,398.74,112.3Z"/><rect class="cls-2" x="550.9" y="103.5" width="199.23" height="70.46" rx="15.63"/><path class="cls-3" d="M557.6,137.73c.54,3.16,4.85,3.56,7.3,3.06a4.43,4.43,0,0,0,3.07-3.44c1.36-5.15-1.9-11.22,1.3-15.59,3.06-4.17,9.61-3.68,15-3.2a92.92,92.92,0,0,0,23.44-.87c2.55-.42,5.55-1.36,6.15-3.73.49-2-1.13-4-3.11-4.78a15.56,15.56,0,0,0-6.39-.62c-6.54.25-13.1.25-19.64,0-7.56-.28-18.46-.78-24.13,5.1S556.39,130.64,557.6,137.73Z"/><path class="cls-3" d="M620.42,112.3a2.15,2.15,0,0,0,0,1.23,2.58,2.58,0,0,0,1.53,1.37c3.06,1.35,6.64.73,10,.26a104.25,104.25,0,0,1,28-.2c2.08.27,4.68.38,5.73-1.32s-.33-3.74-2.13-4.47-3.86-.47-5.81-.26a96.28,96.28,0,0,1-18.44.19C634.44,108.69,622.21,105.92,620.42,112.3Z"/><rect class="cls-2" x="772.59" y="105.74" width="199.23" height="70.46" rx="15.63"/><path class="cls-3" d="M779.28,140c.54,3.16,4.85,3.56,7.3,3.07a4.44,4.44,0,0,0,3.07-3.45c1.36-5.14-1.9-11.22,1.31-15.59,3-4.17,9.6-3.68,15-3.2a92.9,92.9,0,0,0,23.44-.87c2.55-.42,5.56-1.36,6.15-3.73.49-2-1.13-4-3.11-4.78a15.56,15.56,0,0,0-6.39-.62c-6.54.25-13.1.25-19.64,0-7.55-.28-18.46-.78-24.13,5.11S778.08,132.88,779.28,140Z"/><path class="cls-3" d="M842.1,114.54a2.15,2.15,0,0,0,0,1.23,2.58,2.58,0,0,0,1.53,1.37c3.06,1.35,6.64.73,10,.26a104.32,104.32,0,0,1,28-.2c2.07.27,4.67.38,5.72-1.32s-.33-3.74-2.13-4.47-3.86-.47-5.81-.26a96.28,96.28,0,0,1-18.44.19C856.12,110.93,843.89,108.16,842.1,114.54Z"/><rect class="cls-2" x="994.27" y="107.98" width="199.23" height="70.46" rx="15.63"/><path class="cls-3" d="M1001,142.21c.54,3.17,4.85,3.56,7.3,3.06a4.4,4.4,0,0,0,3.07-3.44c1.36-5.14-1.89-11.22,1.31-15.59,3.05-4.17,9.61-3.68,15-3.2a92.9,92.9,0,0,0,23.44-.87c2.55-.42,5.56-1.36,6.15-3.73.49-2-1.13-4-3.11-4.78a15.55,15.55,0,0,0-6.39-.62c-6.54.25-13.1.25-19.64,0-7.55-.28-18.45-.78-24.12,5.11S999.76,135.12,1001,142.21Z"/><path class="cls-3" d="M1063.78,116.78a2.15,2.15,0,0,0,0,1.23,2.58,2.58,0,0,0,1.53,1.37c3.06,1.35,6.64.73,10,.26a104.33,104.33,0,0,1,28-.2c2.07.27,4.67.38,5.72-1.32s-.33-3.74-2.13-4.47-3.86-.47-5.81-.26a96.28,96.28,0,0,1-18.44.19C1077.8,113.17,1065.57,110.4,1063.78,116.78Z"/><rect class="cls-2" x="4.53" y="195.79" width="199.23" height="70.46" rx="15.63"/><path class="cls-3" d="M11.22,230c.54,3.17,4.85,3.57,7.3,3.07a4.42,4.42,0,0,0,3.07-3.44c1.36-5.15-1.9-11.22,1.31-15.59,3.05-4.17,9.61-3.69,15-3.2A92.9,92.9,0,0,0,61.31,210c2.55-.42,5.56-1.36,6.15-3.73.49-2-1.13-4-3.11-4.78a15.39,15.39,0,0,0-6.39-.62c-6.54.25-13.1.25-19.64,0-7.55-.29-18.46-.78-24.13,5.1S10,222.93,11.22,230Z"/><path class="cls-3" d="M74,204.59a2.12,2.12,0,0,0,0,1.22,2.56,2.56,0,0,0,1.53,1.38c3.06,1.35,6.64.73,10,.25a104.33,104.33,0,0,1,28-.19c2.07.27,4.67.37,5.72-1.33s-.33-3.73-2.13-4.46-3.86-.47-5.81-.27a96.28,96.28,0,0,1-18.44.2C88.06,201,75.83,198.21,74,204.59Z"/><rect class="cls-2" x="226.21" y="195.79" width="199.23" height="70.46" rx="15.63"/><path class="cls-3" d="M232.91,230c.54,3.17,4.84,3.57,7.29,3.07a4.44,4.44,0,0,0,3.08-3.44c1.35-5.15-1.9-11.22,1.3-15.59,3.06-4.17,9.61-3.69,15-3.2A92.84,92.84,0,0,0,283,210c2.55-.42,5.56-1.36,6.15-3.73.49-2-1.13-4-3.11-4.78a15.38,15.38,0,0,0-6.39-.62c-6.54.25-13.1.25-19.64,0-7.55-.29-18.45-.78-24.12,5.1S231.7,222.93,232.91,230Z"/><path class="cls-3" d="M295.73,204.59a2.12,2.12,0,0,0-.05,1.22,2.56,2.56,0,0,0,1.53,1.38c3.06,1.35,6.64.73,10,.25a104.33,104.33,0,0,1,28-.19c2.07.27,4.67.37,5.72-1.33s-.32-3.73-2.13-4.46-3.86-.47-5.81-.27a96.28,96.28,0,0,1-18.44.2C309.74,201,297.51,198.21,295.73,204.59Z"/><rect class="cls-2" x="447.89" y="195.79" width="199.23" height="70.46" rx="15.63"/><path class="cls-3" d="M454.59,230c.54,3.17,4.85,3.57,7.3,3.07a4.45,4.45,0,0,0,3.07-3.44c1.35-5.15-1.9-11.22,1.3-15.59,3.06-4.17,9.61-3.69,15-3.2a92.84,92.84,0,0,0,23.43-.87c2.56-.42,5.56-1.36,6.15-3.73.49-2-1.13-4-3.11-4.78a15.35,15.35,0,0,0-6.38-.62q-9.82.38-19.65,0c-7.55-.29-18.45-.78-24.12,5.1S453.38,222.93,454.59,230Z"/><path class="cls-3" d="M517.41,204.59a2.21,2.21,0,0,0,0,1.22,2.56,2.56,0,0,0,1.53,1.38c3.07,1.35,6.64.73,10,.25a104.33,104.33,0,0,1,28-.19c2.07.27,4.67.37,5.72-1.33s-.32-3.73-2.13-4.46-3.86-.47-5.81-.27a96.27,96.27,0,0,1-18.44.2C531.42,201,519.19,198.21,517.41,204.59Z"/><rect class="cls-2" x="669.57" y="195.79" width="199.23" height="70.46" rx="15.63"/><path class="cls-3" d="M676.27,230c.54,3.17,4.85,3.57,7.3,3.07a4.45,4.45,0,0,0,3.07-3.44c1.36-5.15-1.9-11.22,1.3-15.59,3.06-4.17,9.61-3.69,15-3.2a92.84,92.84,0,0,0,23.43-.87c2.56-.42,5.56-1.36,6.15-3.73.5-2-1.12-4-3.11-4.78a15.33,15.33,0,0,0-6.38-.62q-9.82.38-19.65,0c-7.55-.29-18.45-.78-24.12,5.1S675.06,222.93,676.27,230Z"/><path class="cls-3" d="M739.09,204.59a2.12,2.12,0,0,0,0,1.22,2.54,2.54,0,0,0,1.52,1.38c3.07,1.35,6.64.73,10,.25a104.25,104.25,0,0,1,28-.19c2.07.27,4.67.37,5.73-1.33s-.33-3.73-2.13-4.46-3.86-.47-5.81-.27a96.28,96.28,0,0,1-18.44.2C753.1,201,740.87,198.21,739.09,204.59Z"/><rect class="cls-2" x="891.25" y="198.03" width="199.23" height="70.46" rx="15.63"/><path class="cls-3" d="M898,232.25c.54,3.17,4.85,3.57,7.3,3.07a4.43,4.43,0,0,0,3.07-3.44c1.36-5.15-1.9-11.22,1.3-15.59,3.06-4.17,9.61-3.69,15-3.2a92.92,92.92,0,0,0,23.44-.87c2.55-.42,5.55-1.36,6.15-3.73.49-2-1.13-4-3.11-4.78a15.39,15.39,0,0,0-6.39-.62c-6.54.25-13.1.25-19.64,0-7.56-.29-18.46-.78-24.13,5.1S896.74,225.17,898,232.25Z"/><path class="cls-3" d="M960.77,206.83a2.12,2.12,0,0,0,0,1.22,2.56,2.56,0,0,0,1.53,1.38c3.06,1.35,6.64.73,10,.25a104.25,104.25,0,0,1,28-.19c2.08.27,4.68.38,5.73-1.32s-.33-3.74-2.13-4.47-3.86-.47-5.81-.27a96.28,96.28,0,0,1-18.44.2C974.79,203.22,962.56,200.45,960.77,206.83Z"/><rect class="cls-2" x="1112.94" y="200.27" width="199.23" height="70.46" rx="15.63"/><path class="cls-3" d="M1119.63,234.49c.54,3.17,4.85,3.57,7.3,3.07a4.42,4.42,0,0,0,3.07-3.44c1.36-5.15-1.9-11.22,1.3-15.59,3.06-4.17,9.61-3.69,15-3.2a92.9,92.9,0,0,0,23.44-.87c2.55-.42,5.56-1.36,6.15-3.73.49-2-1.13-4-3.11-4.78a15.56,15.56,0,0,0-6.39-.62c-6.54.25-13.1.25-19.64,0-7.56-.29-18.46-.78-24.13,5.1S1118.43,227.41,1119.63,234.49Z"/><path class="cls-3" d="M1243.25,142.21c.54,3.17,4.84,3.56,7.29,3.06a4.4,4.4,0,0,0,3.07-3.44c1.36-5.14-1.89-11.22,1.31-15.59,3.06-4.17,9.61-3.68,15-3.2a92.84,92.84,0,0,0,23.43-.87c2.55-.42,5.56-1.36,6.15-3.73.49-2-1.13-4-3.11-4.78A15.55,15.55,0,0,0,1290,113c-6.54.25-13.1.25-19.64,0-7.55-.28-18.45-.78-24.12,5.11S1242,135.12,1243.25,142.21Z"/><path class="cls-3" d="M1243.25,331.84c.54,3.17,4.84,3.56,7.29,3.07a4.42,4.42,0,0,0,3.07-3.44c1.36-5.15-1.89-11.22,1.31-15.59,3.06-4.17,9.61-3.69,15-3.21a92.84,92.84,0,0,0,23.43-.86c2.55-.43,5.56-1.36,6.15-3.73.49-2-1.13-4-3.11-4.78a15.55,15.55,0,0,0-6.39-.63c-6.54.26-13.1.26-19.64,0-7.55-.28-18.45-.77-24.12,5.11S1242,324.76,1243.25,331.84Z"/><path class="cls-3" d="M1182.45,209.07a2.12,2.12,0,0,0,0,1.22,2.56,2.56,0,0,0,1.53,1.38c3.06,1.35,6.64.73,10,.25a104.32,104.32,0,0,1,28-.19c2.07.27,4.67.38,5.72-1.32s-.33-3.74-2.13-4.47-3.86-.47-5.81-.27a96.28,96.28,0,0,1-18.44.2C1196.47,205.46,1184.24,202.69,1182.45,209.07Z"/><rect class="cls-2" x="120.13" y="285.84" width="199.23" height="70.46" rx="15.63"/><path class="cls-3" d="M126.82,320.06c.54,3.17,4.85,3.56,7.3,3.07a4.42,4.42,0,0,0,3.07-3.44c1.36-5.15-1.9-11.22,1.31-15.59,3.05-4.17,9.6-3.69,15-3.21a92.9,92.9,0,0,0,23.44-.86c2.55-.43,5.56-1.36,6.15-3.74.49-2-1.13-4-3.11-4.77a15.57,15.57,0,0,0-6.39-.63c-6.54.26-13.1.26-19.64,0-7.55-.28-18.46-.77-24.13,5.11S125.62,313,126.82,320.06Z"/><path class="cls-3" d="M189.64,294.64a2.12,2.12,0,0,0,0,1.22,2.56,2.56,0,0,0,1.53,1.38c3.06,1.34,6.64.73,10,.25a104.32,104.32,0,0,1,28-.19c2.07.26,4.67.37,5.72-1.33s-.33-3.73-2.13-4.46-3.86-.48-5.81-.27a96.28,96.28,0,0,1-18.44.2C203.66,291,191.43,288.26,189.64,294.64Z"/><rect class="cls-2" x="341.81" y="285.84" width="199.23" height="70.46" rx="15.63"/><path class="cls-3" d="M348.5,320.06c.54,3.17,4.85,3.56,7.3,3.07a4.42,4.42,0,0,0,3.07-3.44c1.36-5.15-1.89-11.22,1.31-15.59,3.05-4.17,9.61-3.69,15-3.21a92.9,92.9,0,0,0,23.44-.86c2.55-.43,5.56-1.36,6.15-3.74.49-2-1.13-4-3.11-4.77a15.55,15.55,0,0,0-6.39-.63c-6.54.26-13.1.26-19.64,0-7.55-.28-18.45-.77-24.12,5.11S347.3,313,348.5,320.06Z"/><path class="cls-3" d="M411.33,294.64a2,2,0,0,0-.05,1.22,2.56,2.56,0,0,0,1.53,1.38c3.06,1.34,6.64.73,10,.25a104.33,104.33,0,0,1,28-.19c2.07.26,4.67.37,5.72-1.33s-.32-3.73-2.13-4.46-3.86-.48-5.81-.27a96.28,96.28,0,0,1-18.44.2C425.34,291,413.11,288.26,411.33,294.64Z"/><rect class="cls-2" x="563.49" y="285.84" width="199.23" height="70.46" rx="15.63"/><path class="cls-3" d="M570.19,320.06c.54,3.17,4.85,3.56,7.29,3.07a4.44,4.44,0,0,0,3.08-3.44c1.35-5.15-1.9-11.22,1.3-15.59,3.06-4.17,9.61-3.69,15-3.21a92.84,92.84,0,0,0,23.43-.86c2.56-.43,5.56-1.36,6.15-3.74.49-2-1.13-4-3.11-4.77a15.52,15.52,0,0,0-6.38-.63q-9.82.39-19.65,0c-7.55-.28-18.45-.77-24.12,5.11S569,313,570.19,320.06Z"/><path class="cls-3" d="M633,294.64a2.12,2.12,0,0,0,0,1.22,2.56,2.56,0,0,0,1.53,1.38c3.06,1.34,6.64.73,10,.25a104.33,104.33,0,0,1,28-.19c2.07.26,4.67.37,5.72-1.33s-.32-3.73-2.13-4.46-3.86-.48-5.81-.27a96.27,96.27,0,0,1-18.44.2C647,291,634.79,288.26,633,294.64Z"/><rect class="cls-2" x="785.17" y="288.08" width="199.23" height="70.46" rx="15.63"/><path class="cls-3" d="M791.87,322.3c.54,3.17,4.85,3.56,7.3,3.07a4.45,4.45,0,0,0,3.07-3.44c1.36-5.15-1.9-11.22,1.3-15.59,3.06-4.17,9.61-3.69,15-3.21a92.84,92.84,0,0,0,23.43-.86c2.56-.43,5.56-1.36,6.15-3.73.5-2-1.12-4-3.11-4.78a15.35,15.35,0,0,0-6.38-.62q-9.83.38-19.65,0c-7.55-.28-18.45-.77-24.12,5.11S790.66,315.22,791.87,322.3Z"/><path class="cls-3" d="M854.69,296.88a2.12,2.12,0,0,0,0,1.22,2.54,2.54,0,0,0,1.52,1.38c3.07,1.34,6.64.73,10,.25a104.25,104.25,0,0,1,28-.19c2.07.26,4.67.37,5.73-1.33s-.33-3.73-2.13-4.46-3.86-.48-5.81-.27a96.28,96.28,0,0,1-18.44.2C868.7,293.27,856.47,290.5,854.69,296.88Z"/><rect class="cls-2" x="1006.85" y="290.32" width="199.23" height="70.46" rx="15.63"/><path class="cls-3" d="M1013.55,324.54c.54,3.17,4.85,3.56,7.3,3.07a4.43,4.43,0,0,0,3.07-3.44c1.36-5.15-1.9-11.22,1.3-15.59,3.06-4.17,9.61-3.69,15-3.2a93.39,93.39,0,0,0,23.44-.87c2.55-.43,5.55-1.36,6.14-3.73.5-2-1.12-4-3.11-4.78a15.33,15.33,0,0,0-6.38-.62q-9.82.38-19.64,0c-7.56-.28-18.46-.77-24.13,5.11S1012.34,317.46,1013.55,324.54Z"/><path class="cls-3" d="M1076.37,299.12a2.12,2.12,0,0,0,0,1.22,2.56,2.56,0,0,0,1.53,1.38c3.06,1.34,6.63.73,10,.25a104.25,104.25,0,0,1,28-.19c2.08.26,4.68.37,5.73-1.33s-.33-3.73-2.13-4.46-3.86-.48-5.81-.27a96.28,96.28,0,0,1-18.44.2C1090.38,295.51,1078.16,292.74,1076.37,299.12Z"/><rect class="cls-2" x="11.59" y="382.6" width="199.23" height="70.46" rx="15.63"/><path class="cls-3" d="M18.29,416.83c.54,3.17,4.85,3.56,7.3,3.07a4.45,4.45,0,0,0,3.07-3.44c1.36-5.15-1.9-11.22,1.3-15.59,3.06-4.17,9.61-3.69,15-3.21a92.38,92.38,0,0,0,23.43-.87c2.56-.42,5.56-1.36,6.15-3.73.5-2-1.12-4-3.11-4.77a15.33,15.33,0,0,0-6.38-.63q-9.83.39-19.65,0c-7.55-.28-18.45-.77-24.12,5.11S17.08,409.75,18.29,416.83Z"/><path class="cls-3" d="M81.11,391.41a2.12,2.12,0,0,0,0,1.22A2.53,2.53,0,0,0,82.59,394c3.07,1.35,6.64.74,10,.26a104.25,104.25,0,0,1,28-.19c2.07.26,4.67.37,5.73-1.33s-.33-3.73-2.13-4.46-3.86-.48-5.81-.27a97.1,97.1,0,0,1-18.44.2C95.12,387.8,82.89,385,81.11,391.41Z"/><rect class="cls-2" x="233.27" y="382.6" width="199.23" height="70.46" rx="15.63"/><path class="cls-3" d="M240,416.83c.54,3.17,4.85,3.56,7.3,3.07a4.43,4.43,0,0,0,3.07-3.44c1.36-5.15-1.9-11.22,1.3-15.59,3.06-4.17,9.61-3.69,15-3.21a92.46,92.46,0,0,0,23.44-.87c2.55-.42,5.55-1.36,6.15-3.73.49-2-1.13-4-3.11-4.77a15.4,15.4,0,0,0-6.39-.63c-6.54.26-13.1.26-19.64,0-7.56-.28-18.46-.77-24.13,5.11S238.76,409.75,240,416.83Z"/><path class="cls-3" d="M302.79,391.41a2.12,2.12,0,0,0,0,1.22,2.55,2.55,0,0,0,1.53,1.37c3.06,1.35,6.64.74,10,.26a104.25,104.25,0,0,1,28-.19c2.08.26,4.68.37,5.73-1.33s-.33-3.73-2.13-4.46-3.86-.48-5.81-.27a97.1,97.1,0,0,1-18.44.2C316.81,387.8,304.58,385,302.79,391.41Z"/><rect class="cls-2" x="454.96" y="382.6" width="199.23" height="70.46" rx="15.63"/><path class="cls-3" d="M461.65,416.83c.54,3.17,4.85,3.56,7.3,3.07a4.42,4.42,0,0,0,3.07-3.44c1.36-5.15-1.9-11.22,1.3-15.59,3.06-4.17,9.61-3.69,15-3.21a92.44,92.44,0,0,0,23.44-.87c2.55-.42,5.56-1.36,6.15-3.73.49-2-1.13-4-3.11-4.77a15.4,15.4,0,0,0-6.39-.63c-6.54.26-13.1.26-19.64,0-7.56-.28-18.46-.77-24.13,5.11S460.45,409.75,461.65,416.83Z"/><path class="cls-3" d="M524.47,391.41a2.12,2.12,0,0,0,0,1.22A2.55,2.55,0,0,0,526,394c3.06,1.35,6.64.74,10,.26a104.25,104.25,0,0,1,28-.19c2.08.26,4.68.37,5.73-1.33s-.33-3.73-2.13-4.46-3.86-.48-5.81-.27a97.1,97.1,0,0,1-18.44.2C538.49,387.8,526.26,385,524.47,391.41Z"/><rect class="cls-2" x="676.64" y="382.6" width="199.23" height="70.46" rx="15.63"/><path class="cls-3" d="M683.33,416.83c.54,3.17,4.85,3.56,7.3,3.07a4.42,4.42,0,0,0,3.07-3.44c1.36-5.15-1.89-11.22,1.31-15.59,3-4.17,9.61-3.69,15-3.21a92.44,92.44,0,0,0,23.44-.87c2.55-.42,5.56-1.36,6.15-3.73.49-2-1.13-4-3.11-4.77a15.38,15.38,0,0,0-6.39-.63c-6.54.26-13.1.26-19.64,0-7.55-.28-18.45-.77-24.13,5.11S682.13,409.75,683.33,416.83Z"/><path class="cls-3" d="M746.15,391.41a2.12,2.12,0,0,0,0,1.22,2.55,2.55,0,0,0,1.53,1.37c3.06,1.35,6.64.74,10,.26a104.33,104.33,0,0,1,28-.19c2.07.26,4.67.37,5.72-1.33s-.33-3.73-2.13-4.46-3.86-.48-5.81-.27a97.1,97.1,0,0,1-18.44.2C760.17,387.8,747.94,385,746.15,391.41Z"/><rect class="cls-2" x="898.32" y="384.84" width="199.23" height="70.46" rx="15.63"/><path class="cls-3" d="M905,419.07c.54,3.17,4.85,3.56,7.29,3.07a4.44,4.44,0,0,0,3.08-3.44c1.35-5.15-1.9-11.22,1.3-15.59,3.06-4.17,9.61-3.69,15-3.21A92.84,92.84,0,0,0,955.1,399c2.55-.43,5.56-1.37,6.15-3.74.49-2-1.13-4-3.11-4.77a15.38,15.38,0,0,0-6.39-.63q-9.81.39-19.64,0c-7.55-.28-18.45-.77-24.12,5.11S903.81,412,905,419.07Z"/><path class="cls-3" d="M967.84,393.65a2.12,2.12,0,0,0-.05,1.22,2.59,2.59,0,0,0,1.53,1.38c3.06,1.34,6.64.73,10,.25a104.33,104.33,0,0,1,28-.19c2.07.26,4.67.37,5.72-1.33s-.32-3.73-2.13-4.46-3.86-.48-5.81-.27a97.09,97.09,0,0,1-18.44.2C981.85,390,969.62,387.27,967.84,393.65Z"/><rect class="cls-2" x="1120" y="387.08" width="199.23" height="70.46" rx="15.63"/><path class="cls-3" d="M1126.7,421.31c.54,3.17,4.85,3.56,7.3,3.07a4.45,4.45,0,0,0,3.07-3.44c1.36-5.15-1.9-11.22,1.3-15.59,3.06-4.17,9.61-3.69,15-3.21a92.84,92.84,0,0,0,23.43-.86c2.56-.43,5.56-1.36,6.15-3.74.5-2-1.12-4-3.11-4.77a15.35,15.35,0,0,0-6.38-.63q-9.82.39-19.65,0c-7.55-.28-18.45-.77-24.12,5.11S1125.49,414.23,1126.7,421.31Z"/><path class="cls-3" d="M1189.52,395.89a2.21,2.21,0,0,0,0,1.22,2.56,2.56,0,0,0,1.53,1.38c3.07,1.34,6.64.73,10,.25a104.25,104.25,0,0,1,28-.19c2.07.26,4.67.37,5.73-1.33s-.33-3.73-2.13-4.46-3.86-.48-5.81-.27a97.2,97.2,0,0,1-18.45.2C1203.53,392.28,1191.3,389.51,1189.52,395.89Z"/><path class="cls-3" d="M7.14,113.73a2.12,2.12,0,0,0,0,1.22,2.56,2.56,0,0,0,1.53,1.38c3.06,1.34,6.64.73,10,.25a104.32,104.32,0,0,1,28-.19c2.07.26,4.67.37,5.72-1.33s-.33-3.73-2.13-4.46-3.86-.48-5.81-.27a97.1,97.1,0,0,1-18.44.2C21.16,110.12,8.93,107.35,7.14,113.73Z"/><path class="cls-3" d="M7.14,302.2a2.15,2.15,0,0,0,0,1.23,2.58,2.58,0,0,0,1.53,1.37c3.06,1.35,6.64.73,10,.26a104.32,104.32,0,0,1,28-.2c2.07.27,4.67.38,5.72-1.32s-.33-3.74-2.13-4.47-3.86-.47-5.81-.26A96.28,96.28,0,0,1,26,299C21.16,298.59,8.93,295.82,7.14,302.2Z"/></g></g></svg>