<svg xmlns="http://www.w3.org/2000/svg" xmlns:xlink="http://www.w3.org/1999/xlink" viewBox="0 0 339.59 322.92"><defs><style>.cls-1{fill:url(#linear-gradient);}.cls-2{fill:url(#linear-gradient-2);}.cls-3{fill:url(#linear-gradient-3);}.cls-4{fill:url(#linear-gradient-4);}.cls-5{fill:aqua;}.cls-6{fill:#010e33;}</style><linearGradient id="linear-gradient" x1="63.67" y1="88.06" x2="123.21" y2="326.23" gradientUnits="userSpaceOnUse"><stop offset="0" stop-color="#0089e4"/><stop offset="1" stop-color="#2e3192"/></linearGradient><linearGradient id="linear-gradient-2" x1="261.45" y1="44.54" x2="261.45" y2="322.4" gradientUnits="userSpaceOnUse"><stop offset="0" stop-color="#0062a3"/><stop offset="1" stop-color="#1a1b51"/></linearGradient><linearGradient id="linear-gradient-3" x1="83.75" y1="45.67" x2="104.48" y2="179.28" xlink:href="#linear-gradient"/><linearGradient id="linear-gradient-4" x1="255.29" y1="23.41" x2="222.23" y2="159.33" gradientTransform="translate(474.95 193.29) rotate(-180)" xlink:href="#linear-gradient"/></defs><g id="Layer_2" data-name="Layer 2"><g id="Layer_1-2" data-name="Layer 1"><rect class="cls-1" x="6.33" y="102.4" width="176.99" height="220.52"/><polygon class="cls-2" points="183.31 322.92 339.59 322.92 339.59 119.68 311.56 119.68 291.6 102.4 183.31 102.4 183.31 322.92"/><rect class="cls-3" y="90.89" width="183.31" height="11.51"/><rect class="cls-4" x="183.31" y="90.89" width="108.32" height="11.51" transform="translate(474.95 193.29) rotate(180)"/><rect class="cls-5" x="6.33" y="132.1" width="78.15" height="2.45"/><rect class="cls-5" x="86.88" y="132.1" width="5.34" height="2.45"/><rect class="cls-5" x="94.29" y="132.1" width="5.34" height="2.45"/><rect class="cls-5" x="101.7" y="132.1" width="5.34" height="2.45"/><rect class="cls-5" x="109.11" y="132.1" width="5.34" height="2.45"/><rect class="cls-5" x="220.43" y="148.26" width="78.15" height="2.45"/><rect class="cls-5" x="300.98" y="148.26" width="5.34" height="2.45"/><rect class="cls-5" x="308.39" y="148.26" width="5.34" height="2.45"/><rect class="cls-5" x="315.8" y="148.26" width="5.34" height="2.45"/><rect class="cls-5" x="323.21" y="148.26" width="5.34" height="2.45"/><rect class="cls-5" x="129.12" y="167.91" width="24.22" height="2.45"/><rect class="cls-5" x="155.74" y="167.91" width="5.34" height="2.45"/><rect class="cls-5" x="170.56" y="167.91" width="5.34" height="2.45"/><rect class="cls-5" x="177.97" y="167.91" width="5.34" height="2.45"/><rect class="cls-5" x="183.31" y="217.5" width="24.22" height="2.45"/><rect class="cls-5" x="209.93" y="217.5" width="5.34" height="2.45"/><rect class="cls-5" x="224.76" y="217.5" width="5.34" height="2.45"/><rect class="cls-5" x="232.17" y="217.5" width="5.34" height="2.45"/><rect class="cls-5" x="27.2" y="187.54" width="24.22" height="2.45"/><rect class="cls-5" x="53.82" y="187.54" width="5.34" height="2.45"/><rect class="cls-5" x="68.65" y="187.54" width="5.34" height="2.45"/><rect class="cls-5" x="76.06" y="187.54" width="5.34" height="2.45"/><rect class="cls-5" x="98.8" y="187.54" width="5.34" height="2.45"/><rect class="cls-5" x="262.38" y="266.4" width="24.22" height="2.45"/><rect class="cls-5" x="289" y="266.4" width="5.34" height="2.45"/><rect class="cls-5" x="303.82" y="266.4" width="5.34" height="2.45"/><rect class="cls-5" x="311.23" y="266.4" width="5.34" height="2.45"/><rect class="cls-5" x="333.98" y="266.4" width="5.34" height="2.45"/><rect class="cls-5" x="60.72" y="250.54" width="47.98" height="2.45"/><rect class="cls-5" x="111.1" y="250.54" width="5.34" height="2.45"/><rect class="cls-5" x="125.92" y="250.54" width="5.34" height="2.45"/><rect class="cls-5" x="133.34" y="250.54" width="5.34" height="2.45"/><rect class="cls-5" x="156.08" y="250.54" width="27.23" height="2.45"/><path class="cls-6" d="M89.55,10.68,67.48,0,45.4,10.68V52.82h3.09V90.89h3.37v-5l15.7-12.35L83,85.73v5.16H86.4V52.82h3.15ZM51.86,81.61V61.21l13,10.2Zm18.42-10.2L83,61.38V81.44ZM83,57.09,67.56,69.27,51.86,56.92v-4.1H83Z"/></g></g></svg>