<svg xmlns="http://www.w3.org/2000/svg" xmlns:xlink="http://www.w3.org/1999/xlink" viewBox="0 0 160.1 40.87"><defs><style>.cls-1{fill:url(#linear-gradient);}.cls-2{fill:#373aad;}.cls-3{fill:url(#linear-gradient-2);}.cls-4{fill:url(#linear-gradient-3);}.cls-5{fill:url(#linear-gradient-4);}</style><linearGradient id="linear-gradient" x1="80.06" y1="42.06" x2="80.06" y2="12.57" gradientUnits="userSpaceOnUse"><stop offset="0" stop-color="#373aad"/><stop offset="1" stop-color="#0f9cb3"/></linearGradient><linearGradient id="linear-gradient-2" x1="26.62" y1="42.06" x2="26.62" y2="12.57" gradientUnits="userSpaceOnUse"><stop offset="0" stop-color="#373aad"/><stop offset="1" stop-color="#a319d7"/></linearGradient><linearGradient id="linear-gradient-3" x1="80.06" y1="21.77" x2="80.06" y2="-2.63" gradientUnits="userSpaceOnUse"><stop offset="0" stop-color="#373aad"/><stop offset="1" stop-color="#afb157"/></linearGradient><linearGradient id="linear-gradient-4" x1="133.48" y1="40.83" x2="133.48" y2="15.37" gradientUnits="userSpaceOnUse"><stop offset="0" stop-color="#373aad"/><stop offset="1" stop-color="#ad7169"/></linearGradient></defs><g id="Layer_2" data-name="Layer 2"><g id="Layer_1-2" data-name="Layer 1"><rect class="cls-1" x="53.44" y="20.44" width="53.24" height="20.44"/><rect class="cls-2" x="55.31" y="21.77" width="1.25" height="17.78"/><rect class="cls-2" x="57.84" y="21.77" width="1.25" height="17.78"/><rect class="cls-2" x="60.37" y="21.77" width="1.25" height="17.78"/><rect class="cls-2" x="62.9" y="21.77" width="1.25" height="17.78"/><rect class="cls-2" x="65.43" y="21.77" width="1.25" height="17.78"/><rect class="cls-2" x="67.96" y="21.77" width="1.25" height="17.78"/><rect class="cls-2" x="70.49" y="21.77" width="1.25" height="17.78"/><rect class="cls-2" x="73.02" y="21.77" width="1.25" height="17.78"/><rect class="cls-2" x="75.56" y="21.77" width="1.25" height="17.78"/><rect class="cls-2" x="78.09" y="21.77" width="1.25" height="17.78"/><rect class="cls-2" x="80.62" y="21.77" width="1.25" height="17.78"/><rect class="cls-2" x="83.15" y="21.77" width="1.25" height="17.78"/><rect class="cls-2" x="85.68" y="21.77" width="1.25" height="17.78"/><rect class="cls-2" x="88.21" y="21.77" width="1.25" height="17.78"/><rect class="cls-2" x="90.74" y="21.77" width="1.25" height="17.78"/><rect class="cls-2" x="93.27" y="21.77" width="1.25" height="17.78"/><rect class="cls-2" x="95.8" y="21.77" width="1.25" height="17.78"/><rect class="cls-2" x="98.33" y="21.77" width="1.25" height="17.78"/><rect class="cls-2" x="100.86" y="21.77" width="1.25" height="17.78"/><rect class="cls-2" x="103.39" y="21.77" width="1.25" height="17.78"/><rect class="cls-3" y="20.44" width="53.24" height="20.44"/><rect class="cls-2" x="1.87" y="21.77" width="1.25" height="17.78"/><rect class="cls-2" x="4.4" y="21.77" width="1.25" height="17.78"/><rect class="cls-2" x="6.93" y="21.77" width="1.25" height="17.78"/><rect class="cls-2" x="9.46" y="21.77" width="1.25" height="17.78"/><rect class="cls-2" x="11.99" y="21.77" width="1.25" height="17.78"/><rect class="cls-2" x="14.53" y="21.77" width="1.25" height="17.78"/><rect class="cls-2" x="17.06" y="21.77" width="1.25" height="17.78"/><rect class="cls-2" x="19.59" y="21.77" width="1.25" height="17.78"/><rect class="cls-2" x="22.12" y="21.77" width="1.25" height="17.78"/><rect class="cls-2" x="24.65" y="21.77" width="1.25" height="17.78"/><rect class="cls-2" x="27.18" y="21.77" width="1.25" height="17.78"/><rect class="cls-2" x="29.71" y="21.77" width="1.25" height="17.78"/><rect class="cls-2" x="32.24" y="21.77" width="1.25" height="17.78"/><rect class="cls-2" x="34.77" y="21.77" width="1.25" height="17.78"/><rect class="cls-2" x="37.3" y="21.77" width="1.25" height="17.78"/><rect class="cls-2" x="39.83" y="21.77" width="1.25" height="17.78"/><rect class="cls-2" x="42.36" y="21.77" width="1.25" height="17.78"/><rect class="cls-2" x="44.9" y="21.77" width="1.25" height="17.78"/><rect class="cls-2" x="47.43" y="21.77" width="1.25" height="17.78"/><rect class="cls-2" x="49.96" y="21.77" width="1.25" height="17.78"/><rect class="cls-4" x="53.44" width="53.24" height="20.44"/><rect class="cls-2" x="55.31" y="1.33" width="1.25" height="17.78"/><rect class="cls-2" x="57.84" y="1.33" width="1.25" height="17.78"/><rect class="cls-2" x="60.37" y="1.33" width="1.25" height="17.78"/><rect class="cls-2" x="62.9" y="1.33" width="1.25" height="17.78"/><rect class="cls-2" x="65.43" y="1.33" width="1.25" height="17.78"/><rect class="cls-2" x="67.96" y="1.33" width="1.25" height="17.78"/><rect class="cls-2" x="70.49" y="1.33" width="1.25" height="17.78"/><rect class="cls-2" x="73.02" y="1.33" width="1.25" height="17.78"/><rect class="cls-2" x="75.56" y="1.33" width="1.25" height="17.78"/><rect class="cls-2" x="78.09" y="1.33" width="1.25" height="17.78"/><rect class="cls-2" x="80.62" y="1.33" width="1.25" height="17.78"/><rect class="cls-2" x="83.15" y="1.33" width="1.25" height="17.78"/><rect class="cls-2" x="85.68" y="1.33" width="1.25" height="17.78"/><rect class="cls-2" x="88.21" y="1.33" width="1.25" height="17.78"/><rect class="cls-2" x="90.74" y="1.33" width="1.25" height="17.78"/><rect class="cls-2" x="93.27" y="1.33" width="1.25" height="17.78"/><rect class="cls-2" x="95.8" y="1.33" width="1.25" height="17.78"/><rect class="cls-2" x="98.33" y="1.33" width="1.25" height="17.78"/><rect class="cls-2" x="100.86" y="1.33" width="1.25" height="17.78"/><rect class="cls-2" x="103.39" y="1.33" width="1.25" height="17.78"/><rect class="cls-5" x="106.86" y="20.44" width="53.24" height="20.44"/><rect class="cls-2" x="108.74" y="21.77" width="1.25" height="17.78"/><rect class="cls-2" x="111.27" y="21.77" width="1.25" height="17.78"/><rect class="cls-2" x="113.8" y="21.77" width="1.25" height="17.78"/><rect class="cls-2" x="116.33" y="21.77" width="1.25" height="17.78"/><rect class="cls-2" x="118.86" y="21.77" width="1.25" height="17.78"/><rect class="cls-2" x="121.39" y="21.77" width="1.25" height="17.78"/><rect class="cls-2" x="123.92" y="21.77" width="1.25" height="17.78"/><rect class="cls-2" x="126.45" y="21.77" width="1.25" height="17.78"/><rect class="cls-2" x="128.98" y="21.77" width="1.25" height="17.78"/><rect class="cls-2" x="131.51" y="21.77" width="1.25" height="17.78"/><rect class="cls-2" x="134.04" y="21.77" width="1.25" height="17.78"/><rect class="cls-2" x="136.57" y="21.77" width="1.25" height="17.78"/><rect class="cls-2" x="139.11" y="21.77" width="1.25" height="17.78"/><rect class="cls-2" x="141.64" y="21.77" width="1.25" height="17.78"/><rect class="cls-2" x="144.17" y="21.77" width="1.25" height="17.78"/><rect class="cls-2" x="146.7" y="21.77" width="1.25" height="17.78"/><rect class="cls-2" x="149.23" y="21.77" width="1.25" height="17.78"/><rect class="cls-2" x="151.76" y="21.77" width="1.25" height="17.78"/><rect class="cls-2" x="154.29" y="21.77" width="1.25" height="17.78"/><rect class="cls-2" x="156.82" y="21.77" width="1.25" height="17.78"/></g></g></svg>