<svg xmlns="http://www.w3.org/2000/svg" fill="none" viewBox="0 0 1494 1354"><path fill="#fff" d="M216.347 1065.12l-3.88 5.18c-1.371-1.47-2.375-2.1-2.709-3.01-1.137-3.11-2.509-6.29-6.289-6.19-3.78.11-8.128 0-10.503 2.18-6.69 5.92-13.748 11.97-17.059 20.8a75.637 75.637 0 00-3.345 44.12c.354 3.19 1.58 6.22 3.546 8.76 5.853 5.62 3.345 11.48.97 16.96-3.011 6.69-7.058 12.95-10.805 19.64l5.553 6.45-5.218 2.14-3.044-4.28c-4.582.74-13.748 23.41-13.045 31.24l-4.248-4.98-9.032 12.31c1.004 1.94 2.342 4.44 3.345 6.69 8.095 2.37 9.333-7.06 14.952-8.8 1.539 4.88 2.609 9 4.215 12.91.936 2.34 2.743 4.08 5.686 2.27 2.944-1.8 3.044-4.04 1.204-6.69-2.977-4.28-5.853-8.66-8.763-13.01l1.538-1.17 4.182 4.35 10.034-7.46c7.092.77 3.011 11.21 10.504 12.51 2.274-7.26-.703-13.95-1.84-20.07l13.379-10.43c5.118 2.1 4.115 10.7 11.808 11.04-1.639-7-3.345-13.82-4.816-20.64v.2c4.248 2.34 6.121-1.37 8.763-3.35a6.479 6.479 0 002.308-7.09c-.97-6.22-.836-6.25 6.356-6.32 1.967-3.64 3.731-7.4 5.285-11.24a59.864 59.864 0 0112.677-20.07c3.93-4 9.018-6.67 14.546-7.62a26.681 26.681 0 0116.261 2.31c12.811 6.32 19.635 15.92 19.401 30.4a45.75 45.75 0 001.405 8.7c1.438 7.76 5.084 10.3 12.944 8.63 5.988-1.27 11.875-3.05 17.862-4.45 7.56-1.81 10.604-.3 13.681 7.09 1.108 3 2.046 6.06 2.81 9.16.571 1.8.649 3.73.225 5.57a10.553 10.553 0 01-2.633 4.9c-4.784 5.32-10.035 10.3-14.852 15.46a39.225 39.225 0 00-3.144 3.57c-14.718 20.07-33.45 35.86-52.482 51.21a120.763 120.763 0 01-15.822 10.81c-8.228 4.61-17.327 4.81-26.525 4.34-4.236-.12-8.473.2-12.644.94-8.965 1.34-14.383 8.46-19.367 14.52a81.407 81.407 0 01-44.956 27.32c-10.035 2.55-20.371 4.62-30.105 8.07-12.343 4.41-24.218 2.87-36.092-.94-8.73-2.78-17.394-5.99-26.559-2.78-5.485 1.94-10.67 4.85-17.126 7.83-6.69-5.52-14.35-10.94-21.14-17.23-7.994-7.39-9.132-17.12-7.192-27.39.435-2.37 1.004-4.72 1.572-7.06.468-1.68.518-3.44.145-5.15a10.607 10.607 0 00-2.285-4.61 38.062 38.062 0 01-3.58-5.32 23.592 23.592 0 014.683-27.23 31.784 31.784 0 0011.44-20.97 125.909 125.909 0 014.817-20.07c2.442-8.5 4.984-9.57 13.58-5.99l6.189-9.86c2.007 6.35 3.345 11.2 5.184 16.55l5.854-5.25 5.82 7.13 10.035-10.04c1.304-4.18-2.509-11.27 3.345-16.56 7.392 4.69 5.753 12.98 8.73 20.07 3.345-5.58 5.787-10.47 8.931-14.85a59.644 59.644 0 017.393-6.85 16.392 16.392 0 004.448-5.22c3.345-9.57 6.255-19.23 9.199-28.93a58.602 58.602 0 012.074-8.53c4.181-8.67 2.274-16.56-2.208-24.39-4.081-7.19-7.827-14.58-11.975-21.74a110.275 110.275 0 00-7.459-10.03l-4.449 10.03-3.01-1.64c-4.349-8.53-3.345-18.33-5.854-27.96l-5.185 1.91c-1.003-1.51-2.14-3.35-3.679-5.45l-6.088 10.5c-6.69-9.7-4.582-20.67-8.563-30.11-6.188 3.62-2.81 12.01-9.198 15.09-4.148-4.92-3.713-11.14-5.72-17.63l-5.553 10.1c-7.091-7.32-3.813-17.36-9.466-24.95l-4.215 8.33c-8.329-5.08-8.73-13.58-11.908-20.54l1.94-.87a64.36 64.36 0 002.61 8.33 69.577 69.577 0 004.85 7.66c4.047-10.9 1.304-33.446-4.616-41.34-9.801 4.85-3.346 12.945-4.784 19.835a228.646 228.646 0 01-7.492-29.334c-.736-5.686 2.073-11.941 3.746-17.827 1.037-3.546 3.178-6.69 4.482-10.269A29.039 29.039 0 0125.953 923.2a28.772 28.772 0 0013.915-14.483c6.924-14.55 16.323-26.959 31.777-33.448 2.676-1.171 5.017-3.111 7.693-4.282 3.345-1.438 6.69-2.374 10.236-3.679a45.9 45.9 0 009.566-4.047 74.79 74.79 0 0125.89-10.034c13.38-3.144 26.961-4.549 40.14.301a72.376 72.376 0 0128.8 18.095 16.696 16.696 0 003.545 3.144c8.296 4.716 16.725 9.165 24.954 14.115a12.074 12.074 0 008.262 1.572c9.566-1.037 19.099-2.174 28.699-2.475a27.611 27.611 0 0112.243 2.943 8.568 8.568 0 008.262.168c3.646-1.673 7.158-3.613 10.871-5.118a124.155 124.155 0 0112.811-4.549 28.241 28.241 0 0124.418 4.081c11.406 7.626 11.808 7.358 14.015 20.871.97 5.82 3.111 10.035 8.831 12.142a53.622 53.622 0 015.653 2.943c6.69 3.345 6.69 3.646 4.884 11.674 10.67-1.338 14.617 6.388 18.497 13.947 1.137 2.141 1.372 4.951 4.65 4.215 3.278-.736 3.913-3.345 3.01-6.289a66.327 66.327 0 00-3.947-10.435 25.288 25.288 0 01-1.539-17.259c1.84-8.831 9.299-11.874 15.989-5.987a92.236 92.236 0 0112.912 16.121c.635.903-.602 3.011-.602 4.549 0 2.275.836 4.783 3.612 3.78a6.683 6.683 0 002.843-4.85c.201-1.271-1.237-2.81-1.973-4.214-2.409-4.482-5.218-8.764-7.225-13.38-5.118-11.807-.469-16.255 8.73-22.343 4.349-2.843 7.359 1.037 11.105 4.282.435-5.151.77-9.433 1.171-14.149l10.503-.836c-1.706-2.542-3.111-4.515-4.382-6.69a54.537 54.537 0 01-5.519-9.666c-2.141-5.853-.167-9.499 5.987-10.536a64.578 64.578 0 0112.711 0c1.305 0 2.576.201 5.653.435-2.441-3.579-4.248-6.021-5.82-8.63-2.341-3.846-4.649-7.726-6.69-11.773-3.345-6.255-.803-12.042 2.409-17.427a7.622 7.622 0 019.198-3.344 39.308 39.308 0 0112.142 5.719 65.223 65.223 0 0118.565 21.373c3.646-1.605 7.158-3.345 10.871-4.749 7.526-2.509 12.008.735 11.941 8.596a54.75 54.75 0 01-1.171 11.941 10.365 10.365 0 01-4.147 6.187 21.982 21.982 0 01-25.823-2.943c-4.449-4.415-9.366-8.931-17.728-6.69a159.338 159.338 0 0110.77 12.711c3.178 4.515 5.553 9.599 8.764 15.319l14.517-8.596c1.171 1.404 2.643 2.441 3.077 3.779a40.467 40.467 0 011.807 9.299c.669 11.238-1.071 13.379-12.142 14.984-6.189.803-12.477 2.241-18.431-1.739a54.117 54.117 0 00-10.737-3.88l6.221 14.149c3.345-.469 6.255-.803 9.299-1.405 7.761-1.539 10.37.903 9.333 8.863 0 1.037-.368 2.041-.469 3.078 0 .234.201.501.636 1.471h8.73c10.035 0 20.07-.2 30.305-.501a19.037 19.037 0 0113.681 5.786c9.165 8.563 17.896 17.56 26.76 26.39 1.137 1.138 1.873 2.777 3.345 3.579 11.573 7.091 8.697 18.296 7.961 28.665-.168 2.475-2.777 4.783-4.717 7.927-5.184-6.422-9.666-12.041-14.216-17.56-8.529-10.335-17.293-20.47-29.736-26.323a25.527 25.527 0 00-8.262-1.974 76.51 76.51 0 00-14.35-.635c-5.82.501-11.54 1.94-17.26 2.977a59.433 59.433 0 01-6.288 1.204c-9.333.869-14.049-2.041-17.16-10.837a97.429 97.429 0 01-2.475-10.035l-18.297-7.86c-.335 2.007-.669 3.947-.97 5.82.936.769 1.472 1.539 2.141 1.739 5.72 1.639 9.332 4.917 9.365 11.306a16.117 16.117 0 001.071 3.846c1.572 6.021 0 8.529-6.054 9.064-7.493.703-14.785.168-21.007-4.816-3.579 6.221-3.545 6.355 3.546 13.714a32.85 32.85 0 01-12.042 14.248c-5.753 4.315-11.239 2.308-13.915-4.381-1.371-3.345-2.107-8.697-4.449-9.533-3.345-1.271-8.128.602-12.242 1.238-.402 0-.736.669-1.639 1.505a29.753 29.753 0 002.475 4.315c1.873 2.241 4.047 4.281 6.088 6.388a5.716 5.716 0 012.252 4.549 5.717 5.717 0 01-2.252 4.549 87.67 87.67 0 01-9.634 8.362c-4.716 3.345-7.292 2.843-11.105-1.405-5.251-5.853-9.366-11.874-8.563-20.671a38.992 38.992 0 00-3.78-20.637 48.402 48.402 0 01-2.274-11.774 11.81 11.81 0 00-4.683 11.841 38.974 38.974 0 002.575 10.034c5.821 11.807 4.616 24.417 4.884 36.793.201 10.671-.702 21.741 1.907 31.871 3.345 12.82 0 23.42-4.917 34.62a39.776 39.776 0 00-3.011 8.26 15.017 15.017 0 000 7.8 171.377 171.377 0 007.326 15.95 28.172 28.172 0 01-.603 27.6c-3.345 5.82-7.358 11.14-10.703 16.89-3.345 5.75-6.69 12.14-9.534 17.83-9.566 2.6-19.032 5.08-28.432 7.79-1.642.58-3.415.7-5.12.34a9.438 9.438 0 01-4.546-2.38c-2.844-2.58-4.315-5.29-2.175-9.1 2.141-3.81 4.215-8.6 6.69-12.61a55.08 55.08 0 009.266-27.79 23.412 23.412 0 00-16.491-24.02c-4.14-.98-8.494-.44-12.276 1.51-10.035 4.98-17.962 1.63-25.421-5.29-5.954-5.55-12.109-10.9-18.331-16.52l-4.214 4.11c-5.151-3.08-9.868-6.25-14.919-8.76-1.605-.84-4.081 0-6.154.2 0-1.07 0-2.41.468-3.14 3.679-4.72 2.107-10.27 2.676-15.46.334-3.34-1.372-4.88-5.252-4.65-.401 6.53-.669 12.85-1.271 19.14-.301 2.91 1.037 3.84 3.579 3.91zm-8.63-165.167c4.951 9.7 9.533 18.129 13.38 26.759a37.7 37.7 0 013.345 12.108c1.238 12.208 1.806 24.483 2.877 36.792a71.497 71.497 0 002.375 9.8 13.56 13.56 0 002.308-1.572 7.97 7.97 0 001.304-2.006 42.44 42.44 0 0118.23-20.604 6.426 6.426 0 002.81-6.924 80.266 80.266 0 014.382-34.685c.304-1.656.461-3.335.468-5.018a43.67 43.67 0 00-10.47 1.372c-16.022 6.455-19.501 2.074-28.331-9.131a4.475 4.475 0 01-.469-.636c-2.241-4.616-6.321-5.887-12.209-6.255zm88.34 96.999a26.326 26.326 0 001.606-5.084c.468-5.82.702-11.673 1.037-17.527.334-5.853.736-11.974 8.897-12.743a7.86 7.86 0 003.847-2.576c1.305-1.304 2.174-1.873 3.914-.468.602.468 2.676 0 3.545-.803 4.817-3.947 8.998-8.295 8.195-15.319a23.843 23.843 0 00-7.593-15.72c-2.408-2.141-6.522-4.717-8.931-3.981a48.638 48.638 0 00-16.724 8.529 13.045 13.045 0 00-3.345 17.293c.736 1.405 1.003 3.077 1.773 4.448a28.069 28.069 0 012.274 21.006c-2.107 7.893.402 15.051 1.539 22.677l-.034.268zm44.421-31.408c-6.489 5.854-7.091 7.593-6.054 13.881 1.204 7.392 2.274 14.784 3.345 22.175.636 2.89.531 5.89-.306 8.73a17.535 17.535 0 01-4.477 7.49 33.93 33.93 0 00-3.847 5.09c-6.322 9.16-5.151 23.21 3.111 32.81.922-1.24 1.76-2.53 2.508-3.88 2.576-5.28 4.917-10.67 7.593-15.89a39.532 39.532 0 003.747-23.41c-1.204-10.6-1.974-21.241-3.144-31.81-.536-5.084-1.539-9.934-2.476-15.453v.267zm-270.94 59.136c1.07-1.04 1.605-1.34 1.773-1.77 4.916-12.28 3.846-25.055 2.542-37.732a21.91 21.91 0 00-4.616-9.131c-2.542-3.646-6.021-3.345-7.76 1.003a24.591 24.591 0 00-1.807 9.266c.245 4.483.736 8.949 1.472 13.379a50.492 50.492 0 008.462 24.715l-.066.27zM44.183 1020a16.737 16.737 0 001.806-12.55 52.088 52.088 0 01-.803-22.941 15.885 15.885 0 000-7.091c-.87-3.077-2.575-6.288-6.455-6.154a5.751 5.751 0 00-5.787 5.552 41.378 41.378 0 00-.97 9.399 99.651 99.651 0 003.345 18.065c2.007 5.08 2.843 11.24 8.931 15.45l-.067.27zm125.569-111.852a19.035 19.035 0 00.683-17.609 19.038 19.038 0 00-14.063-10.621c-5.385-1.104-6.355-.568-8.328 4.616-1.974 5.184-1.539 6.054 2.943 9.098 3.345 2.341 6.69 4.95 10.236 7.559 3.545 2.609 5.686 4.315 8.596 6.689l-.067.268zm-69.474 73.585c-5.252-.468-7.426 1.974-7.66 5.854-.502 9.231-.87 18.493-.837 27.723.341 3.51 1.025 6.97 2.041 10.34h1.84a81.817 81.817 0 004.683-44.051l-.067.134zM81.345 1221.75a70.667 70.667 0 001.84 33.99 31.342 31.342 0 003.88 7.86 8.351 8.351 0 003.95 3.79 8.39 8.39 0 005.45.56c3.344-.94 4.181-2.95 1.84-5.72-1.004-1.21-2.576-2.11-3.145-3.35-3.546-8.33-6.958-16.72-10.035-25.18-1.539-4.12-2.509-8.13-3.713-12.08l-.067.13zm61.547-169.61c1.706-2.24 2.777-3.04 3.078-4.11 2.642-8.6 5.552-17.16 7.459-25.93.469-3.96.069-7.98-1.171-11.77-.368-1.6-2.676-2.74-4.114-4.11-.903 1.4-2.442 2.77-2.609 4.28-1.037 10.03-1.873 20.07-2.609 30.1-.167 3.18.033 6.52.033 11.41l-.067.13zm-86.667 181.52c-2.676 15.25 1.639 28.03 5.218 40.81.368 1.3 3.345 1.9 4.883 2.81.435-1.61 1.573-3.35 1.238-4.75-2.843-11.84-5.954-23.58-9.031-35.36a21.912 21.912 0 00-2.241-3.64l-.067.13zm112.758-174.36a25.524 25.524 0 002.709-3.35 75.004 75.004 0 005.218-30.4 6.427 6.427 0 00-1.07-3.78 15.956 15.956 0 00-3.579-2.58 12.805 12.805 0 00-2.308 3.55 67.52 67.52 0 00-1.338 9.33c-.502 8.36-2.977 17.16.368 27.23zm-131.49 169.04a23.041 23.041 0 00-9.043 10.36 23.006 23.006 0 00-1.527 13.66c.615 2.53.985 5.12 1.104 7.73 0 2.91 1.271 4.78 4.047 4.85 2.777.06 3.345-2.48 3.345-5.05.502-8.7 1.271-17.4 1.907-26.13.368-1.7.267-3.41.267-5.42h-.1zm85.33-234.131a63.538 63.538 0 00-3.078 36.791 43.47 43.47 0 008.195-30.8 5.988 5.988 0 00-5.017-6.058l-.1.067zm138.982 242.631c12.544-13.38 11.942-27.59-1.572-34.18.636 11.3 1.137 22.1 1.673 34.11l-.101.07zm-120.15 7.63c4.582-2.95 4.683-3.08 3.144-6.26-.937-1.91-2.04-3.71-2.91-5.62-3.077-6.69-5.988-13.61-9.165-20.33-.669-1.41-2.275-2.35-3.713-3.75-1.606 14.72 4.281 25.92 12.644 35.96zm-35.289-22.15a31.831 31.831 0 00-.77 4.92c.502 9.5 6.891 16.72 10.436 24.85 1.572 3.65 4.817 3.35 7.794.94-1.672-2.95-3.345-5.59-4.75-8.4-1.405-2.81-2.408-6.45-4.114-9.43-2.275-3.78-5.017-7.46-8.596-12.74v-.14zm118.21-33.44c6.69-5.92.334-11.14.669-16.33.234-3.34-3.345-6.69-8.664-9.46.235 3.88-.535 7.15.77 8.53 2.776 3.01 2.776 6.69 3.78 10.03a53.7 53.7 0 003.445 7.36v-.13zm-30.305-135.07c6.69-10.77 6.957-18.06.936-23.41a24.313 24.313 0 00-.936 23.41zm41.778 15.42c6.355-4.14 5.72-10.63 6.69-16.32.401-2.81-1.171-5.08-5.385-5.22a33.672 33.672 0 00-1.305 21.64v-.1zM126.067 1225l-4.75 7.32c7.326.97 7.761.37 4.75-7.22v-.1zM728.392 576.982c2.241 4.415 4.348 8.93 6.689 13.379a322.901 322.901 0 0121.81 49.804c5.552 15.787 10.034 32.009 14.751 48.031a42.115 42.115 0 001.371 4.548 186.198 186.198 0 0113.38 45.791c1.572 8.596 4.817 16.723 6.69 25.453 1.037 4.415 2.877 9.332-1.673 13.881l-5.385-4.081a92.462 92.462 0 005.051 27.16 8.197 8.197 0 01-2.375 10.034c-7.827-7.224-10.035-17.76-16.725-25.487.335 1.639.569 3.345 1.004 4.85a147.882 147.882 0 016.69 36.96 10.039 10.039 0 01-6.122 10.67 30.847 30.847 0 01-7.225-13.647c-3.947-12.141-7.626-24.383-11.573-36.525a77.804 77.804 0 00-3.68-8.195l-1.84.536a23.462 23.462 0 000 5.753c3.345 12.375 6.858 24.584 10.035 36.993 2.409 10.034 4.349 20.303 6.122 30.538a32.844 32.844 0 01-5.72 24.45c-4.783-2.341-4.951-6.689-5.687-10.302-1.839-9.198-2.977-18.496-5.017-27.628a173.686 173.686 0 00-7.192-25.42 33.078 33.078 0 011.004-25.588c1.405-3.344 1.739-6.054-2.375-8.629-.736 5.92-1.405 11.539-2.141 17.125-1.94 15.219-8.161 29.2-12.476 43.75-7.025 23.681-18.699 45.388-28.366 67.932-5.586 13.011-10.035 26.524-16.724 38.967a84.544 84.544 0 00-9.132 36.124c-.301 5.05.435 10.034.368 15.185a11.023 11.023 0 01-1.539 5.956c-7.927 11.5-17.26 20.4-32.513 21.81a168.096 168.096 0 00-29.435 6.99c-9.232 2.61-14.149.5-17.695-8.33-3.345-8.13-5.753-16.73-11.573-23.42a10.02 10.02 0 01-1.573-6.685c1.472-16.222 3.011-32.445 4.984-48.6a20.272 20.272 0 014.349-9.031c11.741-15.185 28.164-23.614 45.625-29.835 12.176-4.382 19.133-12.911 24.083-23.982a291.75 291.75 0 0021.877-74.622c2.776-17.661 6.221-35.254 8.395-52.982 1.84-15.051.402-29.635-8.529-43.014a155.264 155.264 0 01-12.209-25.086 19.49 19.49 0 01-1.037-8.596c.635-9.332 2.341-18.63 2.241-27.929 0-12.509 7.024-20.838 14.617-29.199a4.553 4.553 0 012.609-1.74c11.875-.501 23.415-5.151 35.691 1.873a75.617 75.617 0 0119.534 14.349 17.92 17.92 0 006.69 4.181 28.192 28.192 0 00-10.035-16.523c-5.452-4.147-11.506-7.492-17.193-11.339a28.401 28.401 0 01-4.549-4.415c-7.392-8.094-14.718-16.255-22.143-24.283a12.114 12.114 0 00-4.416-3.345c-12.844-4.783-22.712-13.713-32.479-22.811a17.763 17.763 0 00-12.042-5.184 41.349 41.349 0 01-12.142-3.847 5.354 5.354 0 01-2.81-2.676c-2.776-6.689-4.147-13.747-.769-20.838a10.998 10.998 0 019.466-6.388c6.389-.669 12.711-1.773 19.1-2.275a32.646 32.646 0 0121.842 6.322 252.686 252.686 0 0126.76 20.403c6.188 5.72 10.637 13.379 15.821 20.069 1.74 2.308 3.345 4.716 5.72 8.094 2.91-7.726 2.108-14.65 2.442-21.373.167-2.91-.435-5.887-.234-8.797.334-4.08 3.111-5.686 6.69-3.813a23.405 23.405 0 016.355 4.783c6.255 6.857 12.276 13.914 18.866 21.407 1.371-1.472 2.709-2.843 4.85-5.084-6.69-6.322-13.012-12.51-19.735-18.096-6.724-5.585-14.751-11.506-22.411-16.891-4.349-3.077-9.166-5.485-13.782-8.161-8.763-5.051-18.129-3.345-27.361-2.308a49.12 49.12 0 01-22.713-3.813c-6.689-2.609-7.726-7.158-4.08-13.379a26.494 26.494 0 0117.393-12.811c5.72-1.471 10.972-3.344 14.25-9.265 2.274-4.047 11.774-5.017 17.093-2.642a143.894 143.894 0 0113.68 6.69 31.43 31.43 0 018.062 6.455c4.649 5.485 8.496 11.64 13.38 17.025a262.437 262.437 0 0020.069 20.069c-2.91-10.035-11.808-15.855-16.892-24.919a10.869 10.869 0 0111.908 3.044 24.248 24.248 0 0013.38 7.057c-9.868-10.837-18.999-22.945-37.129-21.507a48.263 48.263 0 00-6.69-10.636c-3.345-3.345-8.429-4.449-12.008-7.425-3.579-2.977-9.232 1.873-12.477-4.014 7.493-2.074 11.64-7.459 15.387-13.379a8.3 8.3 0 017.693-4.884c11.975 1.137 23.984 2.141 34.253 9.366a15.337 15.337 0 014.381 4.549c9.467 15.62 21.776 29.032 33.45 42.746a407.732 407.732 0 0135.088 49.503c10.604 16.724 15.487 36.257 20.973 55.255 1.572 5.385 3.011 10.804 4.215 16.256 1.037 4.75-.636 7.726-4.549 8.931a6.972 6.972 0 01-7.699-1.971 6.97 6.97 0 01-1.366-2.444 126.351 126.351 0 01-6.188-18.163c-7.092-29.066-22.746-53.215-42.247-75.324-4.783-5.385-9.198-11.105-13.848-16.724-2.375-2.776-4.85-5.485-8.429-9.466a34.666 34.666 0 00-1.974 7.927c0 4.65 0 8.831-8.295 7.927a202.188 202.188 0 0015.52 15.821c8.931 7.225 14.35 17.159 21.408 25.822 4.515 5.552 8.53 11.539 12.878 17.259 10.202 13.379 16.089 28.799 21.709 44.352a20.09 20.09 0 011.037 6.288c.234 6.69.435 13.379.301 20.069a50.151 50.151 0 01-1.439 10.235c-.869 3.746-2.341 7.425-6.69 7.86a8.559 8.559 0 01-8.496-6.188 117.323 117.323 0 01-7.794-20.972c-5.786-25.989-18.698-48.666-32.144-71.11a79.798 79.798 0 00-8.965-10.335 45.51 45.51 0 00-2.274 20.972c1.037 9.265 2.943 18.43 4.181 27.661.769 5.82 1.003 11.673 1.472 17.527.004 1.59.127 3.177.367 4.749 2.275 9.265 4.65 18.53 6.891 27.829.234.87-.334 1.906-.769 3.813-1.94-1.472-3.88-2.174-4.583-3.546-3.88-7.559-7.459-15.252-11.072-22.911-6.422-13.379-12.677-27.093-19.166-40.572-3.111-6.489-6.69-12.811-10.035-19.166a35.267 35.267 0 00-2.576-3.746l-1.772 1.104zm12.878 145.431l1.906.635c.569-.468 1.372-.836 1.639-1.438a196.737 196.737 0 0013.748-40.137 19.307 19.307 0 00-2.509-17.393c-3.177 20.737-14.383 38.197-14.784 58.333zm25.154-11.406c-3.345 4.95-2.877 6.69 4.081 13.379-.971-5.051 1.137-10.168-4.081-13.379zm-25.021 24.684l1.572-.334c0-2.442-.301-4.883-.434-7.325h-1.138v7.659zM1078.54 280.065c-6.15.736-12.54 0-17.13 6.221-1.6 2.074-5.92 1.907-8.79 3.345a16.74 16.74 0 00-6.96 4.75 8.335 8.335 0 01-4.76 4.106 8.338 8.338 0 01-6.28-.393 8.99 8.99 0 00-9.6 1.705c-4.28 3.345-8.63 4.315-13.14 0-3.35 2.843-6.69 5.218-11.68 3.345a6.69 6.69 0 00-5.919.97c-5.653 6.221-11.138 3.947-17.327-.267a44.115 44.115 0 00-1.104 5.686 34.752 34.752 0 01-18.765 29.768 42.827 42.827 0 01-6.355 3.345c-11.975 4.482-21.742 12.376-31.543 20.069a117.657 117.657 0 00-24.15 26.557 25.316 25.316 0 00-4.315 16.724 151.763 151.763 0 003.077 20.571 18.626 18.626 0 01-2.843 16.723c-2.91 3.813-5.352 7.961-8.061 11.941a15.417 15.417 0 01-15.22 6.957 134.055 134.055 0 01-19.033-2.542 26.352 26.352 0 01-11.874-6.087c-10.938-10.938-17.795-23.949-16.725-40.137a50.165 50.165 0 011.706-8.496c2.141-9.165-3.981-14.951-13.915-12.175.87 1.906 1.739 3.679 2.509 5.485 2.341 5.619 5.05 11.105 6.69 16.724a14.89 14.89 0 01-.201 9.198 66.08 66.08 0 01-8.697 16.724c-7.426 9.399-17.762 10.035-28.365 6.255a107.08 107.08 0 01-19.568-9.064 26.001 26.001 0 01-9.472-8.446 26 26 0 01-4.343-11.924c-.2-2.308-.568-4.583-.903-7.258-5.92 1.338-11.44 4.783-16.725.802a174.368 174.368 0 01-12.643-12.141c-7.895 3.345-15.956 6.689-23.917 10.436-1.037.468-1.472 2.307-2.174 3.512 1.338.568 2.776 1.739 3.981 1.538a13.806 13.806 0 005.652-2.475c10.035-7.358 17.361-6.689 26.225 2.208a6.69 6.69 0 01-.368 10.536 65.338 65.338 0 01-13.012 7.76c-1.07.535-3.579-.703-4.783-1.807-2.308-2.14-4.115-4.85-6.289-7.224-4.817-5.218-8.663-5.82-15.019-2.877-4.816 2.241-9.834 4.081-14.617 6.389a5.479 5.479 0 01-7.627-1.907 34.093 34.093 0 00-6.087-6.321c-10.035-7.76-9.533-18.664-7.627-29.2 1.439-8.095 10.905-11.138 17.896-6.69 2.207 1.371 4.281 2.977 7.726 5.385-1.17-6.054-1.906-10.703-3.01-15.252-1.605-6.69-.334-12.108 5.687-16.022 6.02-3.913 11.205-2.408 16.557.837 2.642 1.605 5.118 3.512 9.332 6.455-1.137-3.713-1.572-5.653-2.308-7.492-2.073-5.185-4.281-10.336-6.455-15.487a23.414 23.414 0 018.295-26.791 9.633 9.633 0 019.834-1.104 34.752 34.752 0 0117.026 14.015 65.61 65.61 0 0110.603 29.066 13.996 13.996 0 001.004 5.452c.87 1.639 2.475 3.746 4.014 4.013 2.81.435 3.913-1.873 4.382-4.582.803-4.448 2.174-8.763 2.876-13.212 1.94-12.676 10.035-21.507 18.699-29.835a174.254 174.254 0 0117.996-15.754 91.297 91.297 0 0117.594-9.131c19.099-8.162 38.333-16.055 57.533-23.949a51.458 51.458 0 0110.035-3.077c11.774-2.241 23.414-5.051 35.624-4.415 15.721.802 31.475 1.338 47.197 1.973h8.864c5.486 9.767 12.777 18.497 9.366 31.04 9.8-7.593 6.455-17.895 6.69-29 10.034 7.994 15.386 15.654 12.51 27.695 5.389-5.418 5.389-5.418 3.177-23.413 10.402.435 11.512 8.997 15.322 16.055l2.24-24.283c10.9 7.559 14.82 16.723 12.58 29.233a7.52 7.52 0 003.27-3.496c.69-1.491.86-3.165.51-4.766-.64-5.318-1.61-10.569-2.11-15.887a7.611 7.611 0 011.1-5.519c2.08-2.007 3.68.334 5.25 1.773 3.58 3.344 7.26 6.689 11.24 10.034 4.28-7.058-3.98-14.082.4-21.306-4.64-.77-9.09-1.606-13.38-2.141a11.01 11.01 0 01-9.09-5.485 27.082 27.082 0 00-11.44-11.908 12.37 12.37 0 01-4.39-5.418c-3.84-6.891-3.34-14.517-2.67-21.942a13.845 13.845 0 012.43-5.869 13.803 13.803 0 014.79-4.166c6.39-4.013 10.21-3.344 13.38 3.747a84.379 84.379 0 014.69 15.218c1.54 6.021 3.74 11.941 2.17 17.995 4.76.088 9.51.513 14.22 1.271 8.76 2.041 10.67 8.128 5.22 15.487-.64.836-1.44 1.538-2.78 2.943l13.78 16.925 1.64-.569-1.1-18.497c4.24.803 4.24.803 12.04 8.73l-3.35-17.928-10.03-1.304a26.112 26.112 0 00-13.92-10.035 9.62 9.62 0 01-4.98-3.176 9.646 9.646 0 01-2.21-5.487c-.77-5.284-1.87-10.536-2.88-15.787-.75-2.572-.47-5.336.78-7.707a10.351 10.351 0 015.91-5.003c2.41-1.004 4.95-1.806 8.43-3.077a66.297 66.297 0 016.69 10.034c2.86 6.593 5.31 13.35 7.36 20.236a7.052 7.052 0 002.33 4.071 7.019 7.019 0 004.36 1.715c2.11.321 4.15.976 6.06 1.94 6.15 3.011 6.69 6.69 1.74 11.741-.94.903-2.01 1.672-3.75 3.144l6.69 9.332c3.11-5.887-.77-13.781 7.53-15.821 5.75 2.843 6.69 9.064 10.33 14.249-7.79 7.525-15.55 14.75-22.95 22.343a36.374 36.374 0 00-4.61 8.261l.5-.234zm-330.882 103.22c-4.57.172-9.12.686-13.614 1.539-9.232 2.575-15.386-1.572-20.738-8.262-1.338-1.639-2.71-3.345-4.081-4.816a155.041 155.041 0 006.69 17.158c3.01 6.69 4.281 7.493 10.737 3.746 6.456-3.746 11.808-6.288 19.1-.334.702-3.479 1.17-5.786 1.906-9.031zm-3.712 24.584a17.125 17.125 0 001.772-13.947c-1.472.635-3.345.836-3.545 1.572a14.353 14.353 0 001.706 12.375h.067zm5.853-39.334c-5.619 2.542-6.69 5.686-6.155 9.198.168 1.137 2.208 1.973 4.282 3.612.602-4.616 1.104-7.927 1.806-12.81h.067z"/><path fill="#fff" d="M866.605 467.574c14.182 2.508 19.635-5.018 23.414-15.186 1.807-5.017 4.282-9.766 6.49-14.65a20.073 20.073 0 00.869-15.52c-2.676-7.659-.702-10.034 7.292-8.763a74.555 74.555 0 0133.249 12.911 18.155 18.155 0 015.954 8.128c4.315 13.145 8.229 26.457 12.042 39.769a20.098 20.098 0 01-.368 6.255c-1.037 14.617-2.843 29.233-2.776 43.817 0 8.629 2.91 17.259 4.682 25.855 2.877 14.081 5.787 28.163 8.831 42.211 2.977 13.379 6.188 27.059 9.199 40.605a252.89 252.89 0 005.586 25.722c5.619 16.958 11.339 34.05 24.221 47.362 3.07 3.345 7.49 5.218 8.56 10.034 2.24 10.035 6.69 20.337 6.29 30.371a44.413 44.413 0 01-5.74 21.384 44.43 44.43 0 01-15.369 15.944 32.583 32.583 0 01-27.83 3.144 37.457 37.457 0 00-18.129-2.074 31.234 31.234 0 01-8.731-.803 17.383 17.383 0 01-8.71-3.477 17.38 17.38 0 01-5.639-7.494c-6.088-12.71-7.192-24.952-.636-37.628a51.11 51.11 0 002.609-5.854 31.169 31.169 0 002.308-17.025c-3.78-24.818-6.69-49.77-10.035-74.622-1.338-9.499-3.546-18.898-4.783-28.397-1.104-8.462-1.338-17.025-2.074-25.521-.736-8.495-1.84-16.924-2.375-25.453a99.313 99.313 0 00-7.191-27.762c-.5-.947-.925-1.931-1.272-2.944a40.709 40.709 0 00-22.511-29.233c-11.507-5.786-14.417-17.694-17.427-31.106z"/><path fill="#fff" d="M1150.32 990.263c-1.84 1.705-4.68 3.077-5.38 5.184-4.72 14.153-16.73 19.233-28.94 24.383-2.82.81-5.57 1.85-8.23 3.11a9.985 9.985 0 01-6.36 1.75c-2.26-.15-4.4-1.06-6.08-2.59-5.59-4.1-11.47-7.79-17.59-11.03a21.514 21.514 0 01-7.1-5.71 21.53 21.53 0 01-4.07-8.14c-1.9-6.94-4.2-13.764-6.9-20.437a102.488 102.488 0 00-11.07-18.396c-13.04-17.493-26.12-35.02-40.14-51.911a128.163 128.163 0 00-31.606-26.758 113.464 113.464 0 01-25.221-20.537c-4.148-4.717-5.552-12.711-6.221-19.434-1.205-12.175-.904-24.483-1.339-36.792 0-4.348 3.346-6.121 6.022-7.76a23.41 23.41 0 0116.189-2.81c6.69 1.037 13.38 1.472 19.769 2.542 2.387.3 4.812.052 7.089-.725a15.839 15.839 0 006.056-3.757c5.792-4.682 11.672-9.231 17.492-13.847h1.57c13.12 8.195 26.4 16.189 36.8 27.762a20.116 20.116 0 014.92 12.308 154.466 154.466 0 009.53 41.877 20.662 20.662 0 001.94 3.512c16.09 25.186 32.21 50.406 53.18 71.98 4.08 4.214 8.93 7.626 13.02 11.84a24.927 24.927 0 014.85 7.961c2.04 4.917 3.11 10.268 5.41 15.051 3.35 6.957 5.16 13.814 1.91 21.24l.5.134zM606.468 723.349c4.583 4.683 8.931 9.666 13.815 14.048 10.837 9.7 18.966 21.607 27.897 32.946 9.533 12.142 14.55 26.759 22.177 39.87a5.756 5.756 0 011.003 3.78c-1.806 7.191-3.913 14.315-6.155 22.242-1.739-1.237-3.345-1.806-3.947-2.943-5.719-13.78-15.252-25.019-24.585-36.291-11.406-13.78-22.946-27.461-37.631-38.063-10.335-7.459-21.508-12.343-34.352-10.035a106.409 106.409 0 00-18.665 6.69c-1.171.435-2.274 1.07-4.081 1.906-2.575-9.064-5.051-17.627-7.593-26.49 1.572-4.415 5.854-5.553 10.035-6.69a11.979 11.979 0 008.429-7.459 14.886 14.886 0 0115.788-10.034 35.793 35.793 0 004.115-.201c-3.345-4.616-5.72-5.352-12.042-3.345a32.014 32.014 0 01-19.902 1.74 59.829 59.829 0 01-3.847 6.02 18.955 18.955 0 01-5.553 5.519c-8.83 4.449-17.795 8.596-26.759 12.576-5.72 2.476-5.921 2.108-9.701-2.843a17.327 17.327 0 00-4.716-4.08c-7.56-4.415-15.22-8.697-23.682-13.379-3.981 1.906-4.951 11.405-14.283 7.559a54.81 54.81 0 011.271-8.663 37.438 37.438 0 00.435-19.768c-3.345-14.349-7.593-28.43-17.093-40.137a60.197 60.197 0 00-8.028-7.66 10.032 10.032 0 01-3.345-12.61 103.615 103.615 0 006.422-18.864c1.807-8.63 8.162-11.439 15.12-11.673 7.99-.018 15.957.868 23.749 2.642 5.285 1.003 6.69 6.355 8.897 10.67a68.789 68.789 0 012.877 8.763 28.753 28.753 0 00-17.562 14.483 28.76 28.76 0 00-1.538 22.711 39.055 39.055 0 011.84 20.403 91.43 91.43 0 000 11.54 851.721 851.721 0 009.5-8.563c7.091 1.271 11.64 6.422 16.724 10.503a75.46 75.46 0 015.754 5.586c6.69 6.488 17.394 6.221 24.652-6.322-3.847.903-7.091 1.806-10.369 2.408-6.088 1.037-9.032-.803-8.931-6.689a12.442 12.442 0 00-8.731-13.379 86.302 86.302 0 01-9.165-4.884 21.64 21.64 0 01-10.035-28.531 23.42 23.42 0 013.345-6.255 9.069 9.069 0 0111.117-3.548 9.049 9.049 0 013.4 2.445 125.167 125.167 0 0113.38 12.71 16.726 16.726 0 0022.211 3.345 22.067 22.067 0 0119.133-2.81c7.024 1.605 10.202 7.526 6.69 13.78a28.268 28.268 0 01-11.908 12.644c-1.94.936-3.747 2.074-5.72 2.876a13.377 13.377 0 00-8.998 12.677l10.904 5.619c3.713-5.351 7.66-10.971 11.574-16.724a25.66 25.66 0 006.155-1.037c14.851-6.187 28.632-2.107 41.31 5.386 11.004 6.488 21.073 14.583 31.476 22.042a108.658 108.658 0 0011.004 7.559c-2.475-7.292-6.054-13.379-14.015-15.687a8.096 8.096 0 01-6.69-5.954c1.38-.059 2.762.054 4.115.335a55.396 55.396 0 0012.945 3.344 32.783 32.783 0 0113.613 7.693 37.357 37.357 0 015.954 8.931l-10.235 6.689a20.317 20.317 0 002.642 3.345 123 123 0 0010.604 8.529c11.005 7.627 16.323 19.567 23.415 30.103.608.883.913 1.94.869 3.011-.836 8.094-1.773 16.222-2.776 25.32-7.56-8.128-14.35-16.156-21.843-23.414a310.023 310.023 0 00-23.682-20.269c-8.396-6.69-17.26-12.476-25.923-18.697l-2.275 1.003zM1264.95 132.059c-6.92 6.087-6.92 6.087-8.49 12.141-1.14-.334-2.28-.702-3.35-1.003l-3.91-1.07c-6.06-7.125 2.94-11.808 3.55-18.698h-10.04c-1.64 4.315-3.68 9.198-10.74 7.794a10.16 10.16 0 01-1.22 3.866 10.246 10.246 0 01-2.62 3.089 10.229 10.229 0 01-7.66 2.109c-1.21 3.345-2.38 6.455-3.65 10.034-6.39-.669-10.03-9.298-17.79-5.753a40.723 40.723 0 012.64 4.081c2.44 4.95.7 9.064-4.55 10.335-4.35 1.071-8.7 2.576-12.68-1.538a5.762 5.762 0 00-5.52.301c-2.07 1.672-.87 3.779 1.11 5.251a7.41 7.41 0 012.34 2.141 5.425 5.425 0 01.97 3.806 5.391 5.391 0 01-1.88 3.452c-.9.851-2.1 1.325-3.34 1.325a4.91 4.91 0 01-3.35-1.325 57.87 57.87 0 00-9.8-5.185 8.086 8.086 0 00-9.63 1.706c1.74.535 3.14 1.539 4.21 1.238 3.05-.903 5.96-.535 6.39 2.575.23 2.853-.53 5.696-2.14 8.061-1.6 2.442-4.28 1.873-7.12.703a52.127 52.127 0 00-12.21-2.944c-2.88-.401-5.19.836-4.92 5.385 2.74-.97 5.05-1.906 7.39-2.609 3.75-1.137 6.69 1.071 5.79 4.75a82.158 82.158 0 01-4.55 10.971l-23.41-9.332c-.47-4.75-1.34-11.004-1.54-17.293 0-1.94 1.87-3.946 2.88-5.92 1.89.762 3.68 1.738 5.35 2.91a38.392 38.392 0 014.51 5.887v-12.476c0-3.78-.43-7.66 3.78-8.63 4.22-.97 5.25 3.011 6.69 5.72 1.44 2.709 2.61 5.686 4.59 10.034.9-2.162 1.6-4.401 2.1-6.689.4-3.713 0-7.493.64-11.172.1-.854.39-1.676.83-2.414a6.294 6.294 0 011.74-1.867c2.21-1.204 4.02.234 5.05 2.441a28.324 28.324 0 004.69 7.693c0-1.538-.2-3.043-.37-4.548a60.296 60.296 0 01-1.14-10.202c.5-7.626 2.98-8.73 10.54-5.285 1.6 3.914-.3 8.83 4.18 14.082v-12.409c0-2.542-.94-5.787 2.84-6.489.73-.17 1.48-.188 2.21-.052s1.42.422 2.03.84c.62.419 1.14.96 1.53 1.59.39.63.65 1.335.76 2.07.48 1.08 1.09 2.101 1.8 3.044 4.12-7.425.6-14.148 0-21.039 2.68-2.274 5.29-4.448 9.37-2.274 1.8 3.345-.87 8.663 5.08 11.974v-16.657a6.433 6.433 0 015.55.324 6.447 6.447 0 013.22 4.526 34.31 34.31 0 003.98 9.834c.7-4.984 1.4-10.034 2.37-16.724l9.3 6.388c.7-3.612 1.41-7.09 2.11-10.669 5.25-3.847 8.13.836 12.31 3.913a70.01 70.01 0 012.17-6.924c.8-1.806 2.08-4.615 3.35-4.716 2.27.167 4.43 1.071 6.15 2.576a20.094 20.094 0 013.35 5.218c3.34-4.717-.34-11.473 5.72-14.784l5.82 3.88 3.81-3.345 6.35 4.415c4.65-1.271 2.58-5.318 3.58-8.195 5.39-4.616 9.5-1.137 13.38 2.642 4.62-2.876 2.78-10.837 10.41-10.937l4.58 5.653 8.76-12.008 6.19 2.676c6.69-3.345 5.99-10.47 8.63-16.925l8.8 7.426c7.19-2.944-2.64-11.54 5.99-14.182l8.73 5.552 3.34-10.97c3.88 1.839 7.79 2.976 9.77-1.94l9.73 3.812 5.19-11.84 8.56 11.807 6.69-7.091 2.64 2.074c4.32-1.539 8.23-2.743 11.94-4.449a15.57 15.57 0 004.79-3.88c1.9-2.14 3.51-4.582 5.35-7.024a54.585 54.585 0 005.95 3.345c3.35 1.371 5.15-.2 4.65-3.713-.17-1.037-.93-2.007-1-3.043 0-3.01 1.27-4.717 4.41-3.78 3.15.936 5.32 2.107 8.53 3.345 1.24-3.646 2.38-6.957 3.82-11.105l8.99 4.449 5.59-9.466c6.36 3.512 11.27-.736 16.22-3.847 2.51-1.538 4.35-4.114 8.13-2.207.73 2.509.72 5.174-.03 7.677a13.65 13.65 0 01-4.18 6.438 10.123 10.123 0 00-2.71 3.133 10.202 10.202 0 00-1.21 3.958 27.25 27.25 0 01-3.34 8.562c-4.82 2.61-6.42-3.077-10.04-4.649-.93 4.984 4.05 9.466-.2 14.383l-8.23-2.409v7.392c-3.34 0-6.05 0-8.83-.468-6.69-.87-6.69-.87-6.69 6.69a13.55 13.55 0 01-.5 2.441l-10.47-1.304a25.97 25.97 0 01-1.07 5.452c-.9 2.308-1.84 5.318-3.68 6.355-2.81 1.572-5.62 0-7.22-3.077-.3-.602-1.11-.937-2.48-2.04-.11 1.87-.38 3.727-.8 5.552-.7 2.073-1.3 4.816-2.88 5.887-2.57 1.806-4.98.2-6.69-2.409-.23-.368-.9-.468-1.94-.936 1.91 8.195-4.71 9.465-9.4 12.71-5.68 3.947-10.03 2.107-15.08-3.345-.97 4.315-1.47 6.69-2.11 9.299a29.815 29.815 0 01-2.21 6.69c-2.17 3.946-5.05 4.347-8.39 1.37a37.335 37.335 0 01-3.62-4.682c-1.3 4.597-2.34 9.265-3.11 13.981-.36 3.512-1.84 5.653-5.15 5.887-3.31.234-3.74-2.141-4.45-4.683a69.975 69.975 0 00-3.71-8.897c-5.15 7.693-.7 16.724-7.09 22.51-7.12 0-4.65-7.726-8.93-10.469-2.44 2.576-1.81 5.82-2.31 8.764a50.384 50.384 0 01-2.78 11.539 6.56 6.56 0 01-2.3 2.366c-.95.585-2.03.921-3.15.979a6.695 6.695 0 01-2.64-1.897 6.7 6.7 0 01-1.44-2.92c-.87-4.515.47-9.532-3.34-13.78-3.15 2.575-2.21 5.987-2.51 8.964-.4 3.679-.7 7.392-1.01 11.071-.26 3.077-1.94 5.552-4.88 5.151-1.84-.267-3.78-2.609-4.85-4.482a36.593 36.593 0 00-4.82-8.73 43.814 43.814 0 00-1 5.452c-.3 4.783 0 9.566-.6 14.316-.2 1.906-1.57 5.151-2.51 5.218a14.566 14.566 0 01-7.13-2.174c-1.17-.669-1.7-2.509-2.67-4.048-2.34 7.459-4.62 14.717-7.43 23.615a51.737 51.737 0 01-5.92-8.53c-1-2.408-.87-5.284-1.97-7.927-2.38 7.024-1.74 14.751-6.36 20.838-6.69-.635-3.34-9.231-9.09-10.235-3.35 2.676-1.31 6.422-1.74 9.633-.34 2.609 0 5.352-.27 7.994-.3 3.345-2.38 5.753-6.49 7.593l-7.36-14.717a17.072 17.072 0 00-2.92 6.599c-.49 2.382-.46 4.843.08 7.215.54 2.651.28 5.404-.75 7.906a13.694 13.694 0 01-5.04 6.142l-6.69-15.453c-2.94 3.345-2.11 6.422-2.21 9.365.01 3.163-.27 6.32-.83 9.433-.3 1.505-2.21 4.047-2.85 3.88a10.052 10.052 0 01-4.71-3.345c-1.04-1.137-1.41-2.843-3.15-4.382-.2 3.178-.33 6.389-.67 9.566.09 2.129-.32 4.249-1.2 6.188a11.7 11.7 0 01-5.99 4.683c-3.01.803-3.61-2.275-4.31-4.649-.34-1.171-.94-2.308-1.88-4.549-2.3 7.224.37 14.349-4.18 20.068-6.69-2.441-5.82-8.997-8.69-13.646-.27 5.853-.47 11.706-.74 17.56.18 1.587.02 3.195-.47 4.716a8.208 8.208 0 01-4.25 3.947 7.021 7.021 0 01-5.45-1.773 11.997 11.997 0 01-2.71-5.619 93.907 93.907 0 01-2.01-11.038c-1.13-9.399 3.35-15.018 12.88-16.356 4.15-10.269 4.85-12.008 13.11-10.034 2.31-6.69 3.35-14.684 13.12-13.681 3.34-8.93 5.32-12.576 14.82-9.566 7.45-10.034 7.45-10.034 14.91-8.663 1.01-2.274 2.08-4.615 3.35-7.826l-8.6-5.586c-1.77-7.325-1.84-14.215 6.29-18.865 6.69 4.65 6.69 11.841 7.06 19.132l8.8 2.208c3.81-5.753 3.34-16.289 14.51-14.015 2.38-6.154 2.38-6.154 0-10.603l-3.74 1.205c-.61-4.549-1.21-9.132-1.91-14.517l-7.63 5.385a50.973 50.973 0 004.99 7.292c1.1 1.438 3.18 1.505 4.81 2.007zm105.17-74.756c-3.04 4.147-4.38 7.459-1.81 11.506 5.56-3.211 5.66-3.646 1.81-11.506zm15.89 3.345c-4.15-4.08-6.69-4.95-8.36-2.81-1.01 1.304-.47 3.813-.71 6.69l9.07-3.88zM1355.9 72.99c4.45 2.943 9 1.973 10.04-1.472a2.48 2.48 0 00-.02-1.117 2.355 2.355 0 00-.52-.99c-.77-.535-2.1-1.07-2.74-.736a75.647 75.647 0 00-6.89 4.181l.13.134zM1318 99.748a57.75 57.75 0 006.69-3.345c.31-.368.5-.81.58-1.28.08-.469.03-.95-.14-1.395a3.735 3.735 0 00-3.01-1.472c-3.28.401-4.92 2.575-4.25 7.225l.13.267zm-32.07 32.21c-.24-3.344-.34-5.318-.5-7.726-4.89 2.074-4.19 3.947.36 7.459l.14.267zm112.32-78.234v1.572l4.08.334v-1.605l-4.08-.301zm-45.46 23.915c-2.57 0-4.25-.736-5.05 0-.8.736-.37 2.342-.63 4.884l5.68-4.884zM626.738 1138.03l-4.649 13.38a75.59 75.59 0 00-27.362-.67l-.201 1.68c3.654.79 7.351 1.37 11.072 1.74 4.616.23 6.69 2.1 8.296 6.69 3.746 9.8-.77 18.12-3.345 26.75a65.607 65.607 0 01-4.415 11.95 42.651 42.651 0 01-6.69 10.5 11.988 11.988 0 00-3.303 4.34 12.056 12.056 0 00-1.046 5.36c.07 3.2-.452 6.38-1.538 9.4a9.573 9.573 0 01-3.747 4.68 39.745 39.745 0 00-17.427 20.3c-1.639 4.55-5.185 6.69-8.596 9-.7.62-1.518 1.1-2.405 1.4-.887.31-1.826.43-2.761.36a6.818 6.818 0 01-2.684-.74 7.033 7.033 0 01-2.185-1.72c-6.055-6.06-12.076-12.11-17.896-18.37a7.879 7.879 0 01-1.367-2.87 7.981 7.981 0 011-6.17 7.897 7.897 0 012.207-2.29 28.428 28.428 0 0110.035-4.92 12.673 12.673 0 005.285-2.57 12.745 12.745 0 003.579-4.66c2.709-5.38 4.315-11.64 10.704-14.98l7.66 2.78c-1.071-2.61-1.271-4.42-2.308-5.46a6.622 6.622 0 01-1.719-2.23 6.692 6.692 0 011.518-7.8c1.472-1.91 2.442-4.18 3.947-6.02 6.456-7.79 4.315-15.12-1.505-23.92-3.345 10.27-7.928 18.73-8.53 28.43a14.524 14.524 0 01-2.557 7.84 14.64 14.64 0 01-6.407 5.18 7.19 7.19 0 01-2.729 1.19c-.983.21-1.998.2-2.98-.01a7.335 7.335 0 01-2.715-1.23 7.246 7.246 0 01-1.979-2.23c.334-.87.435-1.91.97-2.27 9.633-6.43 8.697-15.92 6.69-25.12-1.104-4.95-.535-7.96 3.545-10.94a67.307 67.307 0 008.363-8.66l8.161 6.35 14.183-10.47-10.737-4.11c0-10.24-.569-20.34 0-30.37a403.02 403.02 0 00-.201-49.64c-.217-3.19-.217-6.4 0-9.6.903-10.57 6.991-14.98 16.357-16.72a55.513 55.513 0 0120.638 0c4.817.93 10.336-1.61 15.554-2.61l10.637-1.97c3.077 5.78 6.088 10.8 8.396 16.12.793 2.54 1.032 5.22.702 7.86-.368 9.33-.669 18.69-1.438 27.99-.769 9.3 1.505 19.1 2.944 28.57.317 1.78.317 3.6 0 5.38-2.81 12.75-6.69 25.32-5.954 38.6.107.74.062 1.48-.132 2.2a5.459 5.459 0 01-1 1.96 5.456 5.456 0 01-1.701 1.4c-.657.34-1.378.54-2.118.6-.702.24-1.447.34-2.188.28a5.418 5.418 0 01-2.113-.64 5.22 5.22 0 01-1.674-1.43 5.337 5.337 0 01-.949-1.99 121.036 121.036 0 01-3.345-12.28c-.836-4.15-1.238-8.39-1.84-12.58h-2.007z"/><path fill="#fff" d="M635.301 838.376c7.158 12.275 10.035 26.156 14.852 39.368a32.73 32.73 0 002.81 4.883c-1.071 7.894-7.158 10.637-13.547 13.078a4.607 4.607 0 01-4.199.036 4.619 4.619 0 01-2.491-3.38c-5.118-18.029-16.491-32.144-28.499-45.824-7.526-8.663-15.253-17.125-23.047-25.554a11.94 11.94 0 00-5.787-4.081c-10.235-1.639-17.995-8.027-26.157-13.379a13.383 13.383 0 00-14.183-1.438c-3.846 1.739-7.927 2.943-12.51 4.616l-3.344-6.355a6.677 6.677 0 00-1.907.903 60.737 60.737 0 01-6.389 6.087 20.066 20.066 0 00-8.028 11.54c-2.141 7.024-4.917 8.897-12.242 8.897a45.405 45.405 0 01-8.797-.669 7.562 7.562 0 01-6.891-6.69c-.77-9.733-7.66-15.988-12.778-23.413a98.25 98.25 0 01-10.235-16.088 16.522 16.522 0 011.271-16.724c4.248-6.054 10.035-8.195 16.557-4.817a67.185 67.185 0 0110.804 8.061c2.375 1.907 4.55 4.047 6.69 6.088l1.572-1.037a78.294 78.294 0 00-3.177-11.941c-.77-1.806-3.345-3.044-5.486-3.914-4.649-2.006-9.533-3.344-14.183-5.418-7.425-3.345-9.666-7.024-9.198-15.085.083-1.336.25-2.666.502-3.98 1.772-8.73 3.345-12.677 14.015-7.861 7.493 3.345 15.086 6.69 23.415 10.235.602.97 1.772 2.977 3.344 5.519 6.289-3.344 12.31-6.689 18.23-10.034 7.192-4.181 12.042-2.81 15.521 4.649a38.06 38.06 0 012.007 5.218c2.241 8.128-.268 13.881-8.296 16.523a16.96 16.96 0 00-11.473 9.734c-3.044 6.689-9.8 7.626-16.223 8.295a38.017 38.017 0 01-6.388-.368c-1.372 5.05 1.94 7.659 3.779 11.305 4.951-2.107 6.088-8.462 11.908-8.027 5.821.434 8.195 4.114 10.771 9.8.87-2.509 1.405-3.646 1.672-4.817a14.052 14.052 0 019.567-10.77 86.032 86.032 0 0011.941-6.455 46.785 46.785 0 019.099-5.017c8.998-2.676 15.721-2.108 21.34 5.485 7.125 9.6 15.052 18.664 22.813 27.795a27.217 27.217 0 005.853 3.947l-.301-.201a18.437 18.437 0 002.208 5.017 2261.952 2261.952 0 0029.436 34.218c.602.702 1.873.802 2.843 1.137l.936.903zM1150.16 990.53l3.67-6.121c2.38-3.813 4.25-4.348 7.8-1.839 5.22 3.712 10.37 7.492 15.42 11.439 5.05 3.947 5.05 5.318 2.54 10.971a18.808 18.808 0 00-1.6 11.58c.71 3.93 2.65 7.54 5.55 10.29 1.72 1.62 3.96 2.58 6.32 2.71 7.36-.16 11.31 4.05 13.98 10.04 3.86 8.54 7.62 17.1 11.27 25.69 2.21 5.08 4.29 10.23 6.39 15.38-4.65 4.55-8.69 2.74-12.74.37-7.03-4.11-14.05-8.3-22.45-13.38a49.632 49.632 0 009.34 20.6c5.05 6.23 1.64 12.25 1.23 18.37-.16.49-.44.94-.82 1.3-.37.37-.82.64-1.32.8-6.81 2.18-13.82 3.63-20.94 4.35-9.6.17-13.01-3.54-11.54-12.87 1.34-8.7-3.11-14.15-7.42-20.07-.37-.54-1.31-.67-2.88-1.41.37 3.35.7 5.79.97 8.33.6 3.97.94 7.97 1.04 11.97-.2 8.77-3.15 11.24-11.98 10.77h-.8c-4.77-.58-9.46-1.7-13.98-3.34-5.59-2.68-1.74-8.73-3.01-13.14-.65-3.45-1.01-6.94-1.07-10.44-6.12 7.16-5.55 16.15-10.84 22.11-7.46-4.95-9.33-10.04-6.69-17.09 2.34-6.53 4.82-12.98 6.99-19.57 1.48-3.46 1.91-7.29 1.24-10.99-.68-3.71-2.44-7.13-5.05-9.85a13.315 13.315 0 01-3.74-5.76 13.365 13.365 0 012.68-13c1.54-1.75 3.51-3.06 5.71-3.82 8.57-3.65 16.82-8 24.68-13.01 3.35-2.14 5.22-6.69 7.26-10.3 1.86-3.68 3.54-7.453 5.02-11.304l-.23.234zM434.438 1122.68c6.991 6.69 10.035 12.75 9.6 22.38a9.434 9.434 0 01-3.579 6.69c-7.192 4.51-12.611 11-18.866 16.52a17.838 17.838 0 00-4.315 10.7c-.041 4.26.363 8.51 1.204 12.68.803 7.53 0 8.36-7.392 10.47-.868.28-1.708.64-2.509 1.07l6.356 17.03a156.362 156.362 0 01-10.972 17.26 18.906 18.906 0 00-4.315 12.5c-.267 7.2 0 14.42 0 21.65.117 1.86.117 3.72 0 5.58-.602 4.45-3.913 6.02-7.358 3.18a16.022 16.022 0 01-5.219-6.86c-1.772-5.55-2.542-11.44-3.947-17.12-1.137-4.59-2.575-9.07-3.913-13.62-.341-.72-.61-1.47-.803-2.24-.569-7.69-1.338-15.38-1.539-23.11a11.55 11.55 0 015.854-10.74c2.509-1.47 5.051-2.87 7.526-4.28a111.299 111.299 0 01-6.69-29.37 8.194 8.194 0 011.907-5.05c3.947-5.31 8.095-10.53 12.309-15.68a34.67 34.67 0 006.69-17.73c1.438-9.8 5.753-13.15 15.654-12.11 2.61.27 5.185.4 7.694.6.234-1.1.334-1.57.468-2 3.847-12.55-1.305-23.99-4.348-35.73a20.009 20.009 0 01-.201-7.05c.836-7.39 1.94-14.79 2.91-22.18.97-7.39 2.041-15.02 3.68-22.71a46.322 46.322 0 0019.567 16.56c-1.237-3.52-1.371-5.72-2.542-6.93a184.017 184.017 0 00-18.832-18.39 154.84 154.84 0 00-41.41-24.12 16.679 16.679 0 01-3.713-2.608c2.341-6.957 4.415-8.529 11.072-7.258a58.63 58.63 0 0127.897 13.376c5.04 4.77 10.357 9.24 15.922 13.38a99.47 99.47 0 0124.551 26.02 17.451 17.451 0 012.074 3.35 8025.123 8025.123 0 0115.42 39.37 9.98 9.98 0 011.186 3.84 10.011 10.011 0 01-2.363 7.5 10.004 10.004 0 01-3.171 2.47c-3.111-.53-4.181-2.31-4.716-5.42-2.576-15.22-10.303-28.46-16.959-42.11-.201-.4-.837-.57-1.706-1.1-1.69 2.34-2.888 5-3.52 7.82a21.323 21.323 0 00-.16 8.57 171.3 171.3 0 005.653 28.9c2.007 7.19 3.078 13.88-.535 20.83-3.077 5.99-5.184 7.3-11.941 6.26-2.475-.37-5.085-.7-7.66-1.04zM1078.24 280.299l8.46.87c5.65-13.045 8.5-12.476 17.46-10.034.89-4.029 2.01-8.004 3.35-11.908 2.04-4.983 6.39-3.646 9.13-2.843 5.05-4.716 9.5-8.763 13.78-12.911.88-.996 1.59-2.125 2.11-3.344 3.61-7.225 4.48-7.627 13.11-5.185a78.48 78.48 0 003.34-7.459c3.05-9.031 8.84-10.502 15.96-3.579-5.08 6.088-1.51 12.51-.3 18.831 1.04 5.519 1.04 10.47-3.71 14.985-5.89-5.218-5.69-13.178-9.37-19.132-3.68 1.003-3.55 3.345-2.98 6.288.97 5.251 1.91 10.536 2.38 15.821.5 2.332.16 4.767-.97 6.87a9.98 9.98 0 01-5.19 4.603c-7.79-6.255-4.21-17.226-10.03-24.819-3.65 4.683-1.67 9.332-1.24 13.915.7 7.124 1.1 14.282 1.47 21.44-.16 1.29-.53 2.545-1.1 3.712-4.35.435-6.02-2.241-7.13-5.351-1.33-3.746-2.37-7.626-3.61-11.406-1-3.01-2.07-5.987-3.11-8.964h-1.7c-.16 1.49-.16 2.992 0 4.482 1.23 8.128 2.91 16.256 3.88 24.417.6 5.251 0 5.485-3.35 10.436-3.34-3.345-3.08-7.794-4.15-11.707-1.07-3.914-2.37-7.927-3.58-11.908l-1.84.301c0 1.874 0 3.747.34 5.62 1.74 11.907 3.34 23.815 1.07 35.856-1.07 5.285-2.31 10.402-7.96 13.58-8.36-7.76-8.13-18.631-11.68-28.431v7.292c-.33 8.796-.83 17.593-1.07 26.39 0 3.612-2 5.251-5.38 6.388-4.22-3.913-4.99-9.298-6.02-14.382-1.04-5.084-1.27-10.035-2.28-15.052-.9-3.41-2.02-6.762-3.34-10.034l-2.08.268c-.2 2.156-.26 4.323-.2 6.488 1.01 12.242 2.24 24.484 3.18 36.793a36.73 36.73 0 01-.63 9.533 4.845 4.845 0 01-1.1 1.908c-.51.541-1.15.953-1.85 1.202a4.359 4.359 0 01-2.17-.43 4.423 4.423 0 01-1.68-1.443 47.396 47.396 0 01-3.74-11.305c-1.04-6.69-1.21-13.379-2.08-19.902-.73-5.385-1.13-11.037-6.69-16.389-.3 2.025-.42 4.074-.36 6.121 1.94 13.714 4.61 27.36 3.88 41.375-.34 6.322-1.54 11.573-8.63 14.081a8.577 8.577 0 01-3.25-3.747 8.555 8.555 0 01-.63-4.916c.81-12.518-.32-25.087-3.35-37.26a13.983 13.983 0 00-1.98-5.702 14.017 14.017 0 00-4.21-4.333 22.688 22.688 0 00-1.64 6.054 46.78 46.78 0 001.34 10.336 95.027 95.027 0 011.27 31.106 45.05 45.05 0 01-3.71 12.108c-.37.937-2.14 2.174-2.94 1.974-.81-.201-3.01-1.673-3.18-2.777a87.872 87.872 0 01-1.87-16.723 100.373 100.373 0 00-4.39-31.508 16.743 16.743 0 00-1.73-2.843 45.907 45.907 0 000 20.068 70.07 70.07 0 01-.64 26.257 20.074 20.074 0 01-8.06 12.543c-4.82-1.204-4.99-4.917-5.19-8.764-.77-14.115-1.5-28.263-2.47-42.378a58.061 58.061 0 00-2.18-9.098 20.23 20.23 0 01-1.167-5.452c0-3.344-.401-7.057 3.947-8.73a8.272 8.272 0 015.4-1.016 8.291 8.291 0 014.84 2.588c.7.803 1.27 1.706 2.14 2.91 2.97-2.675 5.18-6.02 8.06-6.689 2.87-.669 6.32.97 10.3 1.773 4.32-6.021 10.7-5.82 18.26-1.506.37-3.344.54-5.485.94-7.726 1.24-6.69 4.95-8.262 10.84-4.816 1.8 1.036 3.34 2.274 5.32 3.344l9.53-17.292-.2.267zM785.925 244.376a7.66 7.66 0 01-4.182 8.396c-5.653 3.545-11.105 7.425-16.724 10.971-5.62 3.545-11.306 8.128-10.403 16.991-9.734-1.806-18.397-1.739-26.492 4.047-8.095 5.787-9.634 13.948-8.563 22.879-1.037.234-1.706.635-1.974.435-6.422-4.516-12.376-3.981-19.032.267a42.174 42.174 0 00-13.38 13.546 13.381 13.381 0 00-.402 12.41c1.539 3.913 2.777 7.96 4.282 12.409-4.951 1.338-9.333 2.207-13.38 3.646-9.566 3.344-11.44 6.689-10.035 16.723.268 2.074.435 4.181.77 6.991-10.035-1.271-17.796 2.341-22.913 13.379a92.054 92.054 0 01-4.081-10.034c-2.91-11.339-5.921-22.644-8.162-34.117a17.26 17.26 0 012.375-9.767c5.385-11.004 15.521-17.192 25.02-24.082a374.621 374.621 0 0159.975-33.682c16.926-8.028 33.45-16.724 49.74-25.788a46.815 46.815 0 0117.561-5.62zM797.832 619.159c1.539 9.299 2.576 18.765 4.851 27.963a123.75 123.75 0 007.091 16.958c2.04 4.816 3.813 9.766 5.854 14.583a32.452 32.452 0 003.846 6.924 7.058 7.058 0 0010.035 2.274 75.136 75.136 0 009.6-6.924c13.949-11.874 23.95-27.092 34.888-41.508 2.408-3.144 4.85-6.322 9.633-6.489 2.308 4.917 0 8.93-1.973 12.911-1.071 2.441-2.877 4.582-3.68 7.057-5.653 18.062-16.724 32.712-29.335 46.258a133.868 133.868 0 01-15.788 15.621 248.832 248.832 0 01-23.415 14.917 55.764 55.764 0 01-10.035 4.616c-4.816 1.672-6.689.669-8.529-4.114-4.349-11.439-8.697-22.912-12.912-34.418a10.302 10.302 0 01-.702-5.351c1.539-6.489 3.144-12.978 5.285-19.266a185.237 185.237 0 009.767-46.827c.268-5.051.368-5.051 5.519-5.185zM800.208 1099.6c1.537 2.95 2.867 6 3.98 9.13 4.282 15.96 4.014 15.79-7.325 27.63a45.38 45.38 0 00-8.697 13.38c-4.081 9.5-7.359 19.37-10.972 29.1a176.197 176.197 0 01-7.058 18.56 66.794 66.794 0 00-5.786 21.51c-.97 7.46-4.349 9.27-11.44 7.33-4.152-.93-8.35-1.63-12.577-2.11-3.345-.57-7.526.17-9.399-4.48a10.717 10.717 0 012.074-11.68 257.116 257.116 0 0016.356-24.41 40.335 40.335 0 004.483-24.82c-.77-8.53-1.874-16.99-3.078-25.45a98.527 98.527 0 00-2.776-13.38c-2.241-7.76-.368-11.01 7.593-13.38a27.241 27.241 0 007.593-4.18 10.208 10.208 0 019.834-1.71 35.846 35.846 0 0027.195-1.04zM797.833 1076.02c-2.543 7.26-4.784 13.75-7.192 20.74-11.774-1.94-23.415-.23-34.252-4.85-2.944-1.24-5.151-2.58-5.519-6.05-1.271-12.45-10.035-20.07-17.896-28.47-7.861-8.39-15.42-17.02-23.113-25.52a58.039 58.039 0 00-9.333-9.83 29.537 29.537 0 00-11.741-4.18 14.679 14.679 0 01-5.643-2.09 14.813 14.813 0 01-4.337-4.17 14.653 14.653 0 01-2.306-5.56 14.7 14.7 0 01.111-6.01 129.51 129.51 0 001.438-16.557c0-1.572.268-3.145.401-4.75a14.425 14.425 0 0112.477 0c10.369 4.047 19.066 10.603 23.08 21.005a59.58 59.58 0 0018.431 23.752c10.57 8.96 22.01 16.89 33.148 25.18 2.342 1.74 5.218 2.81 7.359 4.72 8.162 7.29 16.223 14.72 24.887 22.64z"/><path fill="#fff" d="M510.535 865a6.22 6.22 0 017.158-6.689 17.699 17.699 0 0014.517-7.091 43.952 43.952 0 00-8.228-2.709 8.732 8.732 0 01-8.43-8.061c-1.103-6.255-1.94-12.543-2.843-18.497 8.931-5.117 16.725-10.034 25.054-14.349 6.021-3.345 12.51-1.572 18.33 3.545 4.984 4.349 10.303 8.362 15.454 12.51.667.446 1.294.949 1.873 1.505a1925.666 1925.666 0 0020.371 23.414c4.014 4.582 8.329 8.93 12.175 13.613 7.66 9.365 10.035 21.038 13.38 32.21.836 2.776 1.338 5.653 2.141 9.232l-20.07 8.93c-1.538-4.616-2.709-9.466-4.716-13.948a78.273 78.273 0 00-9.266-17.426c-6.69-8.027-14.517-14.851-21.541-22.544a26.757 26.757 0 00-31.309-7.693 4823.757 4823.757 0 00-1.973 16.724c-7.526-2.575-15.253 2.174-22.077-2.676zM513.512 1248.21c7.6-1.25 15.4.09 22.143 3.81 4.215 2.38 6.389 8.83 8.664 13.85 1.838 4.71 3.369 9.54 4.582 14.45 2.476 7.9 0 11.37-7.86 9.43a17.226 17.226 0 00-12.711 1.91 56.218 56.218 0 01-14.116 5.35c-14.818 2.61-24.853 11.71-33.148 23.42a93.068 93.068 0 01-20.07 21.74 49.512 49.512 0 01-8.864 5.42c-5.051 2.27-7.191.8-6.69-4.59a53.048 53.048 0 018.63-23.85c4.984-8.16 10.035-16.38 14.651-24.75 4.616-8.36 9.299-17.42 14.015-26.09a14.171 14.171 0 0113.38-8.56c.535.03 1.071.03 1.606 0 7.794-.4 14.45-2.34 15.788-11.54zM1107.74 1353c-8.29 1.58-10.3.94-13.14-5.11a155.834 155.834 0 01-13.62-72.89c1.01-15.5 5.59-30.57 13.38-44.01 1.14-2.43 2.99-4.46 5.3-5.82 2.3-1.37 4.97-2.01 7.65-1.84 1.59.15 3.19.15 4.78 0 4.72-.57 9-.27 12.11 4.08.74 1 2.21 1.44 3.68 2.34.43 12.64-4.78 24.18-8.13 36.02a178.48 178.48 0 01-7.83 21.01c-4.67 11.91-7.7 24.4-8.99 37.12-.96 9.96.7 19.99 4.81 29.1zM957.353 403.488c-3.88 6.188-1.605 14.65-10.67 17.761-1.74-.87-3.814-1.974-5.954-2.977-7.526-3.345-15.019-6.891-23.649-6.69a26.207 26.207 0 01-8.63-1.371c-5.586-1.84-6.69-4.349-7.158-10.035-.736-8.596.702-15.285 8.496-20.971a94.784 94.784 0 0017.327-18.631c3.345-4.281 8.195-4.315 12.878-6.89a136.183 136.183 0 005.552 16.724c2.69 4.739 5.72 9.278 9.065 13.58l1.94-.736c-1.772-10.57-3.545-21.139-5.385-32.01 6.088-1.17 9.098-10.67 17.996-5.786 2.609 6.455 2.14 13.981 2.308 21.306.234 11.172 0 22.377-.535 33.448a16.33 16.33 0 01-2.175 8.295 8.803 8.803 0 01-6.388 3.345c-1.439 0-3.078-2.977-4.282-4.85a10.989 10.989 0 01-.736-3.512zM1163.23 1215.27l-9.29-4.99c-.11-3.47.19-6.94.9-10.33 2.13-6.6 4.62-13.08 7.46-19.4 3.84-8.77 17.96-10.81 24.11-3.55.86 1.32 1.41 2.82 1.61 4.38.13 1.11.13 2.24 0 3.35v27.63l-19.7 2.04c7.39 5.31 8.56 6.69 6.12 14.08-2.95 8.84-6.65 17.41-11.07 25.62a66.377 66.377 0 00-8.67 39.17c.27 4.75.27 9.52 0 14.28-6.69 4.21-8.76 3.54-10.57-3.51-3.34-12.68-6.69-25.32-9.29-38.1-2.61-12.78.76-24.28 5.68-35.82 3.15-7.4 7.43-12.71 16.12-13.08 2.25-.39 4.46-.98 6.59-1.77zM694.775 1265.87c2.288.8 4.766.86 7.092.18a11.684 11.684 0 005.886-3.96c.173-.2.391-.36.636-.47 13.848-5.65 18.698-17.92 22.678-30.83.234-.77.569-1.48 1.037-2.65a29.687 29.687 0 0119.033 1.91c0 10.97-6.523 20.6-6.021 31.34a13.341 13.341 0 01-6.233 1.41 13.474 13.474 0 01-6.177-1.64c-3.344-1.88-6.255-4.39-9.867-6.93 0 5.05 0 5.05 6.088 14.79a130.9 130.9 0 01-23.114 21.47c-3.947 2.61-5.72 1.94-8.63-2.17-2.91-4.12-5.686-8.27-8.496-12.38-4.349 4.38-4.482 5.62-1.171 10.5 3.312 4.89 2.71 7.36-3.746 8.03-5.028.6-10.09.87-15.153.8a9.429 9.429 0 01-5.352-2.87c-3.177-2.98-6.255-3.85-10.034-.97-5.252 4.08-10.637 2.57-15.822 0a41.099 41.099 0 01-8.73-5.66c-10.035-8.96-20.706-17.52-28.232-29.1 5.085-3.01 9.6-1.84 14.885 2.58a70.875 70.875 0 0014.317 10.03c12.309 5.86 24.518 2.85 36.259-2.2 10.035-4.28 9.767-4.55 17.962 3.01 1.137 1.07 2.409 2 3.144 2.61l7.928-6.96-.167.13zM539.87 601.9c6.021-2.275 11.406-4.449 16.725-6.355a49.451 49.451 0 0110.035-2.609 11.837 11.837 0 016.859 1.536 11.836 11.836 0 014.781 5.153 10.905 10.905 0 01-2.475 12.543 31.351 31.351 0 01-4.148 3.78c-12.978 7.626-25.522 16.122-40.139 20.938-6.456 2.141-12.143 1.873-16.725-3.712-6.155-7.66-12.343-15.32-18.063-23.414a14.152 14.152 0 01-1.907-8.161c.268-6.088 1.272-12.175 1.874-18.263a8.158 8.158 0 016.221-7.392c12.444-4.515 19.836-2.174 27.128 9.332 3.545 5.185 6.188 10.302 9.834 16.624zM660.69 701.106l-5.821-3.913c-12.142-8.228-24.184-16.724-36.426-24.618a28.533 28.533 0 00-25.054-4.749c-9.098 2.776-17.928-.469-26.759-2.777-11.072-2.91-11.072-2.943-10.035-14.549.234-2.643.736-5.285.769-7.928 0-7.291.301-8.061 7.092-10.536 4.248-1.572 8.73-2.508 13.078-3.712a15.12 15.12 0 0117.06 5.82 19.737 19.737 0 009.8 6.355 198.546 198.546 0 0144.388 23.647 15.522 15.522 0 016.422 9.7c1.539 6.456 4.382 12.577 6.389 18.965.539 2.474.841 4.994.903 7.526l-1.806.769zM638.646 470.818c5.52-3.98 10.437-7.191 14.919-10.937 4.482-3.746 9.098-1.104 10.537 3.712 1.639 5.486.97 15.052-6.69 18.898-7.66 3.847-14.752 7.359-22.278 10.67-4.047 1.773-5.419.77-6.991-3.612-2.876-7.894-4.883-8.997-12.911-6.221-4.483 1.538-8.764 3.645-13.982 5.853a95.091 95.091 0 01-6.054-15.185 100.323 100.323 0 01-2.977-31.742 18.696 18.696 0 0119.133-16.724c6.322.167 9.633 4.582 12.075 9.231 2.943 5.586 4.649 11.808 7.091 17.694 2.442 5.887 5.118 11.607 8.128 18.363zM1026.39 618.289c-5.52 0-7.89-4.08-9.6-8.228-7.22-17.426-19.097-31.407-32.343-44.385-7.025-6.924-14.417-13.379-21.91-20.069a7.792 7.792 0 01-3.01-6.02c-.836-12.811-1.973-25.588-2.743-38.365-.2-2.977-1.572-6.99 2.609-8.328 4.181-1.338 6.155 1.772 8.128 4.85 2.743 4.247 5.988 8.161 8.764 12.375 10.035 15.386 20.906 30.438 30.105 46.392a313.334 313.334 0 0116.16 35.723 168.33 168.33 0 015.75 17.393c.9 3.01 1.54 6.254-1.91 8.662zM948.121 248.691c-1.907 3.178-3.345 5.352-4.616 7.593-13.146-4.415-25.054-10.737-39.538-10.904a81.673 81.673 0 01-2.509-10.637 159.77 159.77 0 01-1.003-19.165 8.733 8.733 0 015.242-8.343 8.73 8.73 0 019.677 1.854 29.14 29.14 0 018.864 13.981c2.14 6.021 3.746 12.242 5.653 18.664l10.302 2.843a852.089 852.089 0 01-3.345-15.821 83.383 83.383 0 01-2.274-10.034 12.966 12.966 0 013.217-11.222 12.974 12.974 0 0110.932-4.097c2.107 0 4.248.234 6.355.401a8.97 8.97 0 018.647 5.439 8.954 8.954 0 01.719 3.525c.702 8.228 1.338 16.523 1.505 24.785 0 4.382.97 6.89 5.988 7.593a19.41 19.41 0 0113.379 7.927c2.509 3.512 2.275 6.288-1.572 7.593-5.017 1.705-10.269 3.043-15.42 0-5.151-3.044-9.734-5.586-14.55-8.429-1.84-1.171-3.58-2.241-5.653-3.546z"/><path fill="#fff" d="M559.974 571.462c4.248-2.374 7.425-4.214 10.703-5.92a55.52 55.52 0 018.664-4.114c7.727-2.442 12.978 1.572 12.978 9.666a19.637 19.637 0 01-18.698 18.765 4.121 4.121 0 01-2.71-1.104c-3.612-3.78-7.693-2.91-11.908-1.539-4.214 1.372-7.726 2.141-11.406 3.646a6.678 6.678 0 01-5.367.362 6.697 6.697 0 01-3.898-3.707c-1.706-3.01-3.646-5.92-5.285-8.964a14.46 14.46 0 00-12.276-9.031 6.883 6.883 0 01-4.322-1.575 6.885 6.885 0 01-2.368-3.943 119.43 119.43 0 01-3.345-12.343c-1.873-9.399 3.345-15.787 9.7-21.473 3.345-3.077 10.035-2.241 14.618 2.04a148.84 148.84 0 0110.603 11.807 71.456 71.456 0 015.954 7.493 44.165 44.165 0 013.747 7.559c1.639 3.779 2.876 7.693 4.616 12.375zM588.841 923.166c-7.46 4.415-10.035 11.072-11.775 19.768-5.786-6.89-10.402-12.576-15.219-18.129-4.382-5.017-8.764-10.034-13.38-14.75a15.52 15.52 0 00-7.459-4.248c-7.493-1.438-15.153-2.174-23.047-3.345-.535 5.017-.97 9.031-1.505 13.981l-22.043-7.96 19.434-4.65a24.417 24.417 0 00-5.051-3.712 7.09 7.09 0 01-4.951-7.961c0-10.703 0-11.071 10.035-14.115 7.56-2.274 14.852-5.352 23.147-5.251a25.224 25.224 0 0117.494 6.689 212.089 212.089 0 0120.672 22.143 244.168 244.168 0 0113.648 21.54z"/><path fill="#fff" d="M580.612 539.252c7.292.368 10.871-4.281 15.386-6.689a63.743 63.743 0 005.687-4.449c4.214-2.977 7.693-3.345 10.269-1.07a13.372 13.372 0 013.345 11.74c-3.011 6.924-9.032 11.105-14.885 15.252a8.924 8.924 0 01-6.188 0 23.425 23.425 0 00-19.869 3.345c-.692.419-1.407.798-2.141 1.137-8.864 4.181-9.333 3.88-14.651-4.08-4.884-7.292-10.035-14.383-15.353-21.407-3.011-4.047-5.954-8.328-12.41-7.827 2.107-10.469 4.549-19.5 13.681-25.119 6.422-3.947 14.115-3.612 18.665 2.442 6.355 8.529 11.941 17.66 17.694 26.758.603.903 0 2.509.201 3.746.368 1.639.368 3.679.569 6.221zM1021.01 1294.24c-.2-1.5-.2-3.02 0-4.52 4.51-16.42 9-32.91 13.85-49.23a58.472 58.472 0 0120.73-30.64c5.05-3.85 9.37-8.7 14.29-12.81 6.45-5.46 9.03-5.22 14.82.8.56.57.93 1.37 1.6 1.77 8.56 5.39 6.26 13.38 4.42 20.74-.67 2.61-3.88 4.92-6.46 6.69a175.705 175.705 0 00-28.4 21.97c-5.65 5.72-8.56 12.78-12.11 19.57-3.81 7.29-7.19 14.85-11.24 22.01-3.14 5.62-3.48 5.45-11.5 3.65z"/><path fill="#fff" d="M614.128 521.257c-11.607-5.385-19.568.335-27.763 8.429-1.94-3.077-3.646-5.619-5.184-8.261-3.546-6.255-6.858-12.677-10.604-18.832-3.746-6.154-7.727-10.904-15.019-12.275a42.053 42.053 0 012.409-21.44c3.345-10.235 12.911-12.509 20.939-5.552a25.688 25.688 0 018.898 12.944 90.597 90.597 0 006.69 13.379 15.872 15.872 0 011.271 5.854 30.082 30.082 0 001.07 10.034c2.442-2.275 4.884-4.482 7.292-6.69a55.712 55.712 0 017.426-7.191 10.873 10.873 0 0116.724 7.124c2.308 10.904-1.839 17.259-14.149 22.477zM686.647 612.804l-15.454 7.225a24.38 24.38 0 01-3.646-4.081c-6.69-11.573-17.26-18.63-27.964-25.721a10.759 10.759 0 00-4.909-1.68 10.76 10.76 0 00-5.125.81 33.152 33.152 0 01-24.92-1.07c-1.639-.77-3.111-1.84-4.784-2.843a14.39 14.39 0 015.921-9.466 12.272 12.272 0 005.017-10.302c.87-11.874 8.798-16.523 20.07-12.208 9.299 3.512 15.654 10.87 22.846 17.158 1.606 1.405 2.776 3.345 4.482 4.549 12.443 9.031 19.635 22.243 27.83 34.652.468.401.402 1.037.636 2.977zM512.542 1240.38c-2.642 1.78-4.683 3.35-6.957 4.69-4.85 2.77-9.701 5.52-14.718 7.99a48.291 48.291 0 00-24.418 27.46c-5.185 14.08-14.952 23.42-26.492 31.81-8.162 5.95-15.588 13.01-23.415 19.33a32.317 32.317 0 01-8.931 4.99 5.663 5.663 0 01-2.577-.36 5.666 5.666 0 01-2.139-1.48c-.669-.77.234-2.91.468-4.42 0-.23.301-.43.502-.63 11.339-10.04 16.223-24.95 27.161-35.36a50.114 50.114 0 008.329-12.71 77.53 77.53 0 0132.446-32.31c3.98-2.1 7.492-5.18 11.439-7.36a112.031 112.031 0 0115.722-7.69c6.957-2.61 7.86-1.97 13.58 6.05zM661.994 637.12c-.87 6.222-1.806 13.38-2.843 20.972a21.535 21.535 0 01-3.947-2.241c-3.546-3.345-6.958-6.689-10.47-10.034a32.548 32.548 0 00-22.746-10.035 152.628 152.628 0 01-19.032-2.174 9.8 9.8 0 01-8.296-6.689c-1.706-4.215-3.345-8.462-5.218-12.577a7.56 7.56 0 012.308-10.034 105.098 105.098 0 017.459-5.887 14.557 14.557 0 0116.491-1.037c8.262 4.282 16.925 7.76 25.188 12.042a21.717 21.717 0 016.689 6.689c4.917 6.757 9.4 13.68 14.417 21.005zM639.482 460.449c-4.08-9.164-8.094-17.493-11.506-26.056a72.361 72.361 0 01-3.345-13.111 13.376 13.376 0 013.345-11.841c5.084-5.652 11.808-6.154 16.725-.368 4.917 5.787 8.128 11.741 12.142 17.694 1.639 2.375 3.111 4.917 4.984 7.125 1.873 2.207 4.281 4.381 6.69 6.689 6.455-4.883 13.379-10.034 19.367-14.55a14.62 14.62 0 0110.837 9.165c2.844 7.091.736 13.981-6.522 16.49a155.996 155.996 0 01-21.709 4.415 3.344 3.344 0 01-2.241-.569c-8.53-6.689-16.357-3.98-23.95 1.807-.936 1.103-2.141 1.505-4.817 3.11zM771.608 458.008a30.4 30.4 0 016.69-1.706c6.919-.14 13.841.072 20.738.635a9.731 9.731 0 016.322 3.947c4.817 7.292 8.998 15.018 13.681 22.41 3.78 5.92 8.53 11.272 11.774 17.46 8.697 16.724 17.026 33.749 25.121 50.807a9.44 9.44 0 01.56 8.15 9.439 9.439 0 01-6.012 5.53c-2.877 1.004-5.085.569-6.122-2.943-5.519-18.932-16.524-35.053-27.094-51.343-4.649-7.124-9.8-13.914-14.617-20.938a120.41 120.41 0 00-27.262-27.862 31.398 31.398 0 01-3.779-4.147zM521.373 1095.36l-7.46 5.58c-4.85-9.77-9.198-18.76-13.781-27.63-5.787-11.17-11.373-22.41-17.694-33.24a82.576 82.576 0 00-29.001-29.34c-11.172-6.69-21.742-14.614-34.52-18.36a4.015 4.015 0 01-3.345-4.616 4.752 4.752 0 014.282-4.85 20.32 20.32 0 015.519 0 97.61 97.61 0 0136.025 14.583 104.65 104.65 0 0127.462 26.353 100.01 100.01 0 018.161 14.55c5.018 10.31 9.89 20.69 14.618 31.14 1.773 3.85 3.01 7.96 4.482 11.94 1.472 3.98 3.178 8.3 5.252 13.89zM440.659 968.354a138.314 138.314 0 0131.309 4.449 234.594 234.594 0 0028.198 5.217 33.718 33.718 0 0124.752 14.149c9.667 12.411 19.502 24.721 29.235 37.061.692.81 1.308 1.68 1.84 2.61 1.606 3.34 1.037 9.6-1.07 10.37-3.981 1.5-5.754-1.94-7.727-4.18-7.861-9.04-15.755-18-23.214-27.36-8.563-10.741-20.538-14.989-33.115-17.732-12.577-2.743-26.191-4.883-39.303-7.091-10.336-1.706-14.216-7.559-10.905-17.493zM1002.44 237.419c3.35.803 6.69 1.439 9.84 2.542 2.78.764 5.41 2.021 7.76 3.713a6.17 6.17 0 012.01 2.636c.42 1.046.54 2.187.35 3.298a6.067 6.067 0 01-1.41 3.002 6.119 6.119 0 01-2.76 1.834c-.23 0-.57 0-.77.201-11.67 7.292-21.038 3.98-29.3-6.021-4.048-4.85-10.035-7.893-12.711-14.115a49.129 49.129 0 01-2.877-28.832c.803-4.749 5.653-6.689 10.47-7.157a10.702 10.702 0 0111.941 5.987 79.227 79.227 0 014.75 15.185c1.237 5.519 1.737 11.305 2.707 17.727zM635.301 838.376l-.836-1.204a119.347 119.347 0 00-34.486-40.372l.301.201a4.175 4.175 0 01-.803-1.371c-1.104-8.998-2.141-17.995-3.345-27.026l1.706-1.004a97.608 97.608 0 0010.838 8.262c14.717 8.295 22.076 23.614 33.783 34.719 2.509 2.375 4.583 5.151 7.393 8.328-1.104 9.065-2.308 19.132-3.646 30.371l-10.905-10.904zM406.474 1035.02c2.074 17.09 9.533 32.64 14.45 48.9 2.517 8.94 4.186 18.1 4.984 27.36a6.663 6.663 0 01-.803 3.84c-.802 1.21-2.174 2.78-3.344 2.81a4.736 4.736 0 01-1.986-.92 4.768 4.768 0 01-1.359-1.72c-1.372-3.34-2.175-7.12-3.345-10.67-5.118-15.15-9.433-30.64-15.655-45.29-5.686-13.38-10.704-27.42-20.471-38.66a150.679 150.679 0 00-11.607-10.91c2.877-8.39 5.319-9.63 12.845-5.08a48.183 48.183 0 0120.605 23.41 31.254 31.254 0 005.753 7.03l-.067-.1z"/><path fill="#fff" d="M387.475 1322.5c2.475-11.21 8.897-19.84 15.253-28.23 6.69-8.96 14.316-17.29 21.842-25.62 3.654-3.84 7.578-7.42 11.741-10.7 7.392-6.13 14.718-12.41 22.545-17.93a155.265 155.265 0 0118.765-10.57c1.977-.5 4.029-.64 6.054-.4 1.071 5.62-2.508 7.76-5.652 9.16-15.354 6.86-26.258 18.93-37.196 30.94a138.6 138.6 0 00-23.147 33.45 7.938 7.938 0 01-2.275 3.34c-8.663 5.66-17.46 11.21-26.191 16.73-.2.1-.535-.04-1.739-.17zM1135.04 228.689l-7.06 8.396c-.17.201-.24.535-.44.669l-19.3 13.747c-.8-7.024-1.47-12.677-1.94-16.724-5.88-4.114-10.63-7.325-15.32-10.737a337.21 337.21 0 01-10.03-7.76c-1.17-.97-2.68-2.174-2.95-3.345-1.67-7.793-3.07-15.653-4.41-23.413a7.835 7.835 0 01.55-5.133 7.884 7.884 0 013.6-3.697 8.39 8.39 0 019.53 2.375 14.554 14.554 0 013.75 5.017c2.54 7.225 6.39 14.148 5.05 22.309.04 1.63.34 3.242.87 4.783 6.32-.635 12.84-2.976 16.99 3.613a8.506 8.506 0 011.35 5.967 8.53 8.53 0 01-2.99 5.338c3.14 2.843 3.51 8.162 10.5 9.533a70.707 70.707 0 00-3.34-9.7c-2.38-4.75-1.07-8.128 3.81-11.539a77.14 77.14 0 005.59 6.288 57.547 57.547 0 006.19 4.381v-.368zM1153.03 1115.39c2.5 3.9 3.5 8.57 2.81 13.15-.67 11.07-.57 22.2 0 33.44 0 3.98-1.47 5.86-4.58 6.02-7.19.41-14.38.37-21.58 0-3.64 0-5.05-2.74-4.28-6.18.41-2.11 1.21-4.12 2.38-5.92 1.77-2.67 2.98-5.67 3.55-8.83.58-3.15.51-6.38-.21-9.5-.59-4.5-.81-9.05-.67-13.58-.03-1.53.28-3.04.91-4.43.64-1.39 1.58-2.61 2.76-3.58 1.19-.97 2.57-1.65 4.06-2 1.48-.36 3.03-.36 4.52-.03l10.33 1.44zM1166.81 1120.71c7.3-1.34 13.99-2.68 20.74-3.65.79.03 1.56.23 2.26.58.71.35 1.33.85 1.82 1.46a21.672 21.672 0 015.69 16.93c-1.44 9.36-3.35 18.7-5.25 27.99-1.34 6.46-2.51 7.26-9.3 6.96-3.17-.09-6.34-.41-9.47-.94-5.22-.9-9.73-6.92-7.46-11.1 6.63-12.31 3.85-24.45.97-38.23zM747.658 341.743a115.048 115.048 0 01-8.462-11.774 137.248 137.248 0 01-7.526-16.724 25.65 25.65 0 01-.268-18.061 12.183 12.183 0 017.333-7.946 12.178 12.178 0 0110.763 1.022c8.229 4.248 13.38 11.472 17.929 18.965.937 1.538 0 4.582-.669 6.689a13.365 13.365 0 01-3.345 4.349c-6.69 6.689-13.145 13.145-13.848 23.413l-1.907.067zM1107.27 1215.8c4.18-8.6 7.66-15.35 10.81-22.31 2.41-5.32 4.55-10.77 6.49-16.25a5.838 5.838 0 012.47-3.53 5.855 5.855 0 014.22-.86c3.34.3 6.92.37 10.3.91 4.85.8 7.29 3.11 6.19 7.42-2.68 10.51-2.61 21.64-7.96 31.48-4.65 8.53-7.8 10.2-17.46 7.92-4.59-1.07-8.97-2.87-15.06-4.78zM998.763 367.197c-1.706 9.332-3.345 18.73-5.218 28.062-.602 3.111-2.375 5.519-6.054 5.017-3.68-.501-4.349-3.512-4.483-6.689-.2-3.98.001-7.994-.334-11.974-1.539-15.922-3.044-31.843-4.95-47.697-.469-4.047-.803-7.191 3.579-9.298 4.381-2.108 9.566-2.308 12.576 1.137 3.011 3.445 6.691 5.786 6.691 11.238 0 4.248.47 7.86-2.208 12.008-1.974 3.111-1.004 8.161-1.104 12.342.074 1.866.298 3.723.669 5.553l.836.301zM835.196 276.453c-6.69 2.408-12.477 4.85-18.565 6.689a7.334 7.334 0 01-6.155-2.14 65.317 65.317 0 01-12.543-27.26c-1.572-6.69 5.185-13.379 13.38-15.219 8.195-1.839 10.804-.234 13.948 7.66 2.643 6.689 5.787 13.044 8.229 19.7.909 3.46 1.481 7 1.706 10.57zM872.391 491.355c2.877 4.649 5.52 8.897 8.095 13.212 2.174 3.646 3.947 7.358 8.831 8.629a25.054 25.054 0 017.024 4.75c-.869 7.358-1.438 7.894-7.559 8.295a7.692 7.692 0 00-4.416 1.238c-6.69 6.187-15.788 5.92-23.983 7.726-7.158 1.639-10.436-2.408-8.429-9.533a36.325 36.325 0 011.94-4.381c3.345-7.861 6.924-15.62 9.667-23.648 1.438-4.248 4.716-4.482 8.83-6.288zM802.047 289.665l-25.823 12.911a12.639 12.639 0 01-2.876-2.643c-2.911-4.783-5.854-9.532-8.296-14.549-3.98-8.162-2.04-14.918 5.419-20.069a59.293 59.293 0 015.552-3.111c9.166-5.184 12.21-4.114 16.223 5.419 2.977 6.857 6.155 13.847 9.801 22.042zM897.311 257.12l-12.443.936c-8.162.602-11.941-2.207-13.179-10.034a230.307 230.307 0 01-3.111-22.878c-.368-6.69 1.606-8.697 6.69-10.035a8.606 8.606 0 019.591 1.808 8.584 8.584 0 011.882 2.875 148.825 148.825 0 017.092 19.366c.408 1.274.688 2.585.836 3.914.535 4.582 3.345 6.254 7.66 6.254 2.359-.08 4.717.202 6.991.837 1.237.434 3.01 2.475 2.776 3.344-.368 1.472-1.974 3.546-3.345 3.713a95.548 95.548 0 01-11.44-.1zM814.792 451.753c2.977-.903 5.118-2.609 7.593.201a49.075 49.075 0 0019.869 12.643 9.534 9.534 0 016.99 8.496c.904 7.024 3.345 13.914 4.583 20.938.703 3.116.703 6.35 0 9.466a14.017 14.017 0 01-4.783 6.689c-2.843 2.174-5.018 1.037-6.69-2.542-5.787-12.543-11.473-25.153-17.427-37.629-3.044-5.82-6.456-11.573-10.135-18.262zM723.742 853.929c3.144-5.318 4.549-11.606 11.741-14.65 3.177 12.041 6.322 23.179 8.998 34.451 1.538 6.456 2.441 13.078 3.344 19.634 1.138 7.359-1.271 14.249-3.512 21.039a5.978 5.978 0 01-4.549 3.345c-1.371 0-3.345-2.542-3.713-4.181-1.17-7.359-1.806-14.784-2.709-22.176a120.138 120.138 0 00-9.6-37.462zM1101.55 1105.62c1.57.48 3.08 1.14 4.49 1.98 4.08 3.34 6.69 8.06 11.9 10.27.75.55 1.37 1.26 1.81 2.07.45.81.71 1.72.77 2.64.63 6.06 1.07 12.18 1.2 18.26 0 5.06-.36 10.04-.43 15.12-.07 5.09-1.51 6.32-6.26 6.06-4.24-.19-8.46-.65-12.64-1.37-4.82-.91-6.96-4.39-4.08-7.96 6.35-7.93 3.88-16.73 3.85-25.32 0-4.52-1.11-9-1.38-13.38.06-2.81.31-5.6.77-8.37zM850.415 270.399c-6.69-1.137-8.028-2.074-10.035-8.161-2.007-6.088-4.048-12.677-5.82-19.099-1.639-5.887 1.973-11.64 8.596-14.249 5.887-2.308 13.38-.334 14.986 5.118a262.023 262.023 0 016.489 27.895 6.22 6.22 0 01-3.044 4.85 86.29 86.29 0 01-11.172 3.646z"/><path fill="#fff" d="M1145.94 222.167c-2.47 4.148-6.69 5.251-10.94 6.69h.27l-5.99-15.855a15.307 15.307 0 01-14.31-4.649 47.242 47.242 0 00-11.28-6.689c-.46-6.289-1.13-12.51-1.33-18.765 0-3.579-1.34-8.395 2.57-10.034 4.42-2.04 6.99 2.208 9.74 5.117a22.854 22.854 0 015.28 13.112c.37 2.575.7 5.151 1.17 8.563h14.12c1.84 9.131 4.25 16.958 10.9 22.711l-.2-.201zM572.484 1094.99c.635.53 1.037.77 1.003.9-3.813 13.38-1.906 26.76-2.04 40.14.1 1.85.1 3.7 0 5.55a9.82 9.82 0 01-10.035 9.43c-4.75.3-9.5.5-14.249.4a5.058 5.058 0 01-2.216-.81 5.16 5.16 0 01-2.298-3.98c-.049-.8.088-1.6.399-2.33a56.591 56.591 0 015.887-12.14c7.56-11.57 15.788-22.75 21.274-35.59.602-.6 1.639-1.07 2.275-1.57zM1080.21 1186.84c5.09-7.93 10.04-15.46 14.79-22.95 3.34.43 6.49.87 9.6 1.17.8-.02 1.59.13 2.33.43.75.3 1.42.75 1.98 1.32.56.57 1 1.25 1.29 1.99.28.75.42 1.55.38 2.35.77 9.26-2.2 17.76-5.38 26.15-1.51 3.95-5.15 3.35-8.2 2.21-2.11-1.1-4.06-2.47-5.82-4.08-3.54-2.74-7.02-5.48-10.97-8.59zM367.204 1032.51a20.072 20.072 0 017.092 12.34c2.742 12.14 5.452 24.35 7.359 36.79.498 5.83.33 11.7-.502 17.5-.201 2.27-1.138 5.38-4.248 4.48a7.287 7.287 0 01-2.762-1.79 7.27 7.27 0 01-1.687-2.83c-.97-4.92-.87-10.03-1.472-15.02a55.636 55.636 0 00-7.727-23.41 7.19 7.19 0 01-1.538-4.35c1.572-7.69 3.512-15.32 5.485-23.71zM1174.71 201.162a24.666 24.666 0 00-.24-14.918 6.099 6.099 0 01-.43-3.88c.63-1.839 1.57-4.181 3.04-4.883a4.2 4.2 0 011.74-.479 4.16 4.16 0 011.77.295 4.167 4.167 0 012.41 2.559 45.81 45.81 0 003.35 5.284c4.05-1.471 2.87-4.247 2.61-6.689-.54-4.783 0-9.131 7.16-11.707l8.19 9.499c-1.34-4.716-2.48-8.663-3.78-13.379l8.26-6.689c6.69 6.957 6.69 11.539 1.57 17.459a70.774 70.774 0 01-26.96 20.303c-1.74.703-2.74 3.144-4.34 4.482-1.4.964-2.89 1.782-4.45 2.442l.1.301zM511.739 1229.01c9.801-7.36 19.1-14.41 28.466-21.37 2.709-2.01 7.325-.8 10.503 2.51a6.18 6.18 0 011.699 1.94 6.249 6.249 0 01.458 5.04c-.28.82-.73 1.58-1.321 2.22a12.485 12.485 0 01-2.877 2.77c-6.957 4.79-13.814 9.74-21.006 14.18-3.914 2.41-11.473-1.17-15.922-7.29zM637.275 1223.63c.636.6 2.743 1.67 2.977 3.04 1.438 8.83 8.63 11.67 15.32 14.85a88.265 88.265 0 0012.008 4.32c2.676.8 5.653 1.6 5.52 4.75 0 1.54-2.375 3.07-3.78 4.48a17.222 17.222 0 01-4.315 3.54c-1.506.71-3.981 1.38-5.085.64-8.63-5.62-18.899-9.23-24.184-19a47.467 47.467 0 01-4.448-11c-.937-3.41 1.605-5.86 5.987-5.62zM528.798 1205.2a28.428 28.428 0 01-3.612 6.89c-3.947 3.95-8.363 7.46-12.477 11.24a10.093 10.093 0 01-4.844 2.67 9.994 9.994 0 01-5.525-.3l-10.704-3.34c11.239-8.57 20.036-19.14 37.162-17.16zM355.396 1276.94a57.259 57.259 0 012.944-9.6 83.877 83.877 0 007.794-24.95c.603-3.4 1.649-6.7 3.111-9.83.422-.61.974-1.12 1.616-1.49a5.007 5.007 0 012.096-.65c.736 0 2.008 1.54 2.442 2.61a18.879 18.879 0 011.714 8.41c-.081 2.9-.828 5.74-2.182 8.31-3.847 7.26-7.56 14.62-11.607 21.74a49.856 49.856 0 01-5.686 6.86l-2.242-1.41zM494.312 970.361c-7.593-8.295-18.129-6.322-27.361-9.667a61.01 61.01 0 0129.803-10.803 8.327 8.327 0 01.97 11.372 51.091 51.091 0 00-3.412 9.098zM695.043 1265.6c-10.637-1.47-16.725-6.18-17.428-12.97h30.339l.602 1.9c-1.539 1.11-3.111 2.14-4.549 3.35-3.111 2.64-8.128 3.04-9.232 7.99l.268-.27z"/><path fill="#fff" d="M1161.19 212.066a12.643 12.643 0 00-5.23 2.113 12.762 12.762 0 00-3.8 4.175c-1.67 2.207-3.34 3.98-6.22 3.779l.2.201c-.6-3.077-1.04-6.188-1.84-9.231a11.396 11.396 0 01-.44-5.875 11.37 11.37 0 012.58-5.297c3.11-3.646 5.59-3.612 7.86.535.72 1.99 1.56 3.934 2.51 5.82a22.674 22.674 0 004.45 3.847l-.07-.067zM406.474 1035.18c.261-2.44.372-4.9.334-7.36-.234-3.04-.903-6.05-1.505-9.76 8.931 1.4 13.38 7.26 18.932 11.8-7.961 7.23-12.108 8.3-17.828 5.19l.067.13zM534.652 1197.14l15.12-20.64a21.981 21.981 0 01-4.583 22.98c-3.078 3.38-5.686 2.67-10.537-2.34z"/><path fill="#fff" d="M1161.26 212.133c-.53-4.449-1.34-8.897-1.47-13.379a57.02 57.02 0 011.87-10.035c3.35 3.345 5.19 5.218 6.69 7.292 1.51 2.074 2.44 5.485 6.22 5.184l-.23-.234c-1.41 6.69-3.04 8.095-9.07 8.764-1.47 0-2.84 1.505-4.21 2.341.13 0 .2.067.2.067zM1219.3 164.369c-1.21-9.566-.51-11.071 7.69-16.389 2.67 3.846 6.15 7.827 3.88 12.643-2.28 4.816-6.89 4.348-11.57 3.746zM203.235 1177.9l-5.251-4.81c-.703 4.01-1.205 6.69-2.007 11.34-.77-5.39-1.439-9-1.673-12.61 0-1.07 1.004-3.15 1.539-3.15.727-.03 1.454.09 2.13.36a4.98 4.98 0 011.783 1.21 51.567 51.567 0 013.345 7.87l.134-.21zM340.478 965.277c.937 5.519 1.94 10.369 2.475 15.286 1.171 10.569 1.94 21.207 3.145 31.807a39.508 39.508 0 01-3.747 23.41c-2.676 5.22-5.017 10.61-7.593 15.89a33.716 33.716 0 01-2.508 3.88c-8.263-9.6-9.433-23.64-3.111-32.81a33.846 33.846 0 013.847-5.08 17.51 17.51 0 004.477-7.5c.837-2.84.942-5.84.306-8.73-1.071-7.388-2.141-14.78-3.345-22.172-1.037-6.388-.435-8.128 6.054-13.981zM126.067 1225.1c3.01 7.59 2.576 8.19-4.75 7.32l4.75-7.32zM741.27 722.413c.401-20.069 11.607-37.596 14.784-58.166a19.291 19.291 0 012.509 17.393 196.716 196.716 0 01-13.748 40.137c-.267.602-1.07.97-1.639 1.438l-1.906-.802zM766.423 711.007c5.218 3.345 3.111 8.395 4.081 13.379-6.957-6.589-7.459-8.395-4.081-13.379zM741.403 735.691v-7.525h1.137c0 2.441.302 4.883.435 7.325l-1.572.2zM747.658 383.285c-.669 3.345-1.137 5.552-1.839 9.031-7.292-5.954-13.079-3.144-19.1.334-6.021 3.479-7.727 3.078-10.737-3.746a155.041 155.041 0 01-6.69-17.158c1.371 1.605 2.743 3.177 4.081 4.816 5.351 6.69 11.506 10.837 20.738 8.262 4.471-.85 9-1.364 13.547-1.539zM743.878 407.869a14.346 14.346 0 01-1.772-12.375c.234-.736 2.073-.937 3.545-1.572a17.11 17.11 0 01-1.773 13.947zM749.732 368.535c-.702 4.883-1.204 8.194-1.873 12.81-2.074-1.639-4.114-2.475-4.281-3.612-.536-3.512.535-6.656 6.154-9.198zM1264.95 132.059c-1.63-.502-3.71-.569-4.78-1.639a50.103 50.103 0 01-4.98-7.292l7.62-5.385c.71 5.385 1.31 10.034 1.91 14.516l.23-.2zM1370.12 57.303c3.85 7.86 3.75 8.295-1.81 11.506-2.57-4.047-1.24-7.359 1.81-11.506zM1386.01 60.413l-9.07 3.814c.24-2.81-.3-5.319.71-6.69 1.63-1.974 4.21-1.104 8.36 2.876zM1355.77 72.856a76.054 76.054 0 016.69-4.315c.63-.334 1.97.201 2.74.736.25.285.43.624.52.99.09.366.1.749.02 1.117-.97 3.445-5.52 4.415-9.97 1.472zM1317.87 99.48c-.67-4.649.97-6.69 4.12-7.592a3.77 3.77 0 013.01 1.472c.16.445.21.926.14 1.396-.08.47-.28.91-.58 1.28a58.172 58.172 0 01-6.69 3.445zM1285.79 131.691c-4.55-3.345-5.25-5.385-.5-7.727.17 2.409.27 4.215.5 7.727zM1398.25 53.724l4.08.301v1.605l-4.08-.334v-1.572zM1352.79 77.773l-5.68 4.75c.26-2.543 0-4.416.63-4.884.64-.468 2.48 0 5.05.134zM599.979 796.8a119.347 119.347 0 0134.486 40.372c-.97-.335-2.241-.435-2.843-1.138a2852.27 2852.27 0 01-29.435-34.217 18.437 18.437 0 01-2.208-5.017z"/></svg>