<svg width="1578" height="1297" viewBox="0 0 1578 1297" fill="none" xmlns="http://www.w3.org/2000/svg">
<path d="M1028.25 258.076L1027.58 257.608C1023.74 254.999 1018.22 255.3 1015.81 250.116C1011.72 242.588 1009.66 234.129 1009.82 225.565C1010.13 223.015 1011.31 220.65 1013.17 218.875C1017.86 214.53 1022.88 210.56 1028.19 207.001C1030.02 205.93 1031.55 204.397 1032.61 202.555C1033.67 200.713 1034.23 198.625 1034.24 196.499C1034.36 193.839 1034.79 191.201 1035.51 188.639C1036.62 183.968 1039.43 179.88 1043.4 177.181C1047.37 174.481 1052.2 173.366 1056.95 174.055L1060.93 174.356C1071.44 175.159 1072.01 175.728 1073.78 187.167C1069.9 189.441 1065.92 191.95 1061.74 194.158C1059.86 194.908 1058.32 196.328 1057.42 198.144C1056.53 199.959 1056.34 202.042 1056.89 203.991C1058.06 209.008 1058.16 214.627 1063.34 217.805L1063.14 217.571C1063.14 223.893 1063.31 224.428 1068.33 225.398C1071.94 226.344 1075.66 226.882 1079.4 227.003C1085.53 227.085 1091.47 229.15 1096.32 232.89C1112.17 243.369 1126.87 255.488 1140.18 269.047C1152.22 281.155 1163.79 293.765 1175.6 306.107C1181.55 312.262 1187.47 318.416 1193.63 324.37C1207.98 338.055 1218.09 355.592 1222.73 374.876C1227.31 393.44 1235.21 411.167 1241.63 429.262C1242.4 431.453 1243.05 433.687 1243.57 435.952C1244.37 439.564 1245.01 443.176 1245.94 448.06C1248.81 446.331 1251.76 444.768 1254.81 443.377C1256.67 442.646 1258.73 442.54 1260.66 443.076C1261.36 443.31 1261.56 446.421 1261.13 448.06C1260.26 451.405 1258.82 454.448 1257.62 457.659C1263.57 460.134 1268.12 450.267 1275.31 456.522L1264.84 472.042L1274.47 470.002C1274.55 473.413 1273.84 476.796 1272.39 479.888C1270.95 482.98 1268.81 485.697 1266.15 487.829C1264.04 489.769 1261.26 491.174 1263.3 495.89C1266.85 492.913 1269.99 490.171 1273.34 487.495C1275.3 485.69 1277.43 484.078 1279.69 482.678C1280.52 482.069 1281.51 481.73 1282.54 481.71C1283.56 481.69 1284.57 481.989 1285.42 482.565C1286.27 483.142 1286.91 483.968 1287.27 484.929C1287.63 485.89 1287.68 486.938 1287.42 487.93C1286.92 492.771 1284.81 497.306 1281.43 500.807C1279.76 502.513 1278.09 504.352 1276.58 506.125C1273.94 508.968 1274.68 511.778 1276.58 516.16C1278.29 514.224 1280.13 512.413 1282.1 510.741C1284.82 508.66 1287.8 506.95 1290.97 505.657C1294.14 504.587 1296.42 506.961 1295.35 510.172C1293.99 513.636 1292.37 516.991 1290.5 520.207C1288.89 523.113 1287.61 526.186 1286.68 529.371C1291.85 527.279 1296.17 523.54 1298.99 518.735C1300 516.867 1301.26 515.145 1302.74 513.617C1304.49 512.691 1306.37 512.058 1308.33 511.744C1308.69 513.684 1309.9 515.992 1309.26 517.464C1306.92 522.816 1303.98 527.933 1301.17 533.084C1299.9 535.392 1298.06 537.466 1296.99 539.774C1296.45 540.911 1296.99 542.55 1297.39 545.527L1315.18 527.766C1320.17 529.472 1320.74 532.582 1319.33 535.827C1317.28 540.695 1314.86 545.402 1312.11 549.908C1309.43 554.223 1309.16 554.056 1309.63 559.474C1314.92 559.207 1317.89 554.992 1321.77 552.45C1324.68 550.544 1327.29 545.761 1331.1 549.105C1334.28 552.082 1330.17 555.461 1328.73 558.337C1326.78 561.814 1324.61 565.166 1322.24 568.371C1320.94 570.378 1320.27 572.285 1324.28 573.857L1338.53 559.14C1333.45 543.486 1323.51 531.445 1315.45 518.367C1305.69 503.378 1296.99 487.731 1289.39 471.54C1285.01 461.506 1279.73 451.94 1274.44 442.407C1271.91 437.154 1267.85 432.784 1262.8 429.864C1261.96 430.199 1261.33 430.232 1261.03 430.567C1254.64 438.025 1249.92 437.457 1246.01 428.125C1238.89 411.697 1233.63 394.519 1230.35 376.916C1228.08 365.359 1223.65 354.331 1217.31 344.405C1208.38 329.755 1198.68 315.707 1185.06 304.903C1184.03 304.09 1183.2 303.04 1182.65 301.841C1182.11 300.642 1181.85 299.329 1181.92 298.013C1182 287.939 1184.19 277.993 1188.34 268.813C1197.88 269.816 1206.67 271.021 1215.54 271.455C1218.25 271.455 1220.99 269.482 1223.8 268.646C1229.65 266.94 1235.47 265.1 1241.43 263.896C1244.21 263.41 1247.06 263.516 1249.8 264.208C1252.54 264.899 1255.1 266.161 1257.32 267.91C1264.71 273.128 1272.23 278.145 1279.43 283.597C1281.07 285.245 1282.23 287.318 1282.77 289.584C1286.12 298.916 1284.84 308.649 1285.01 318.215C1285.01 328.885 1284.31 339.555 1284.68 350.225C1285.04 360.895 1286.88 371.498 1287.12 382.134C1287.42 396.316 1292.27 409.26 1296.15 422.639L1302.57 424.178V434.681C1309.76 436.922 1310.4 438.36 1306.62 444.414C1304.68 447.491 1302.54 450.468 1299.36 455.151L1312.37 451.806C1313.58 456.957 1310.47 459.8 1308.49 463.111C1306.52 466.423 1302.97 469.165 1305.85 474.283C1307.81 472.956 1309.91 471.835 1312.11 470.938C1314.31 470.536 1316.56 470.39 1318.8 470.503C1319 472.471 1319 474.455 1318.8 476.423C1318.33 479.233 1317.36 481.942 1316.22 486.023C1318.22 484.504 1320.36 483.182 1322.61 482.076C1324.51 481.703 1326.46 481.568 1328.4 481.675C1328.66 483.647 1328.58 485.65 1328.16 487.595C1326.86 490.773 1324.82 493.582 1323.21 496.726C1321.6 499.87 1321 502.479 1319.7 505.958C1324.21 505.958 1325.59 503.182 1327.56 501.342C1330.1 498.967 1332.41 496.325 1335.15 494.218C1335.81 493.919 1336.53 493.764 1337.26 493.764C1337.99 493.764 1338.7 493.919 1339.37 494.218C1339.94 494.452 1340.27 496.76 1339.83 497.563C1338.39 500.721 1336.78 503.802 1335.02 506.794C1333.22 509.545 1331.98 512.626 1331.37 515.858C1332.3 515.255 1333.3 514.761 1334.35 514.387C1335.97 514.063 1337.62 513.84 1339.27 513.718C1339.75 515.344 1339.9 517.05 1339.7 518.735C1338.31 521.756 1337.39 524.97 1336.96 528.268L1354.05 517.665C1357.66 519.203 1359.67 521.009 1357.13 524.99C1355.09 528.1 1352.91 531.111 1350.91 534.255C1347.56 539.305 1344.55 544.289 1341.37 549.507L1342.91 551.179C1346.66 549.005 1350.27 546.563 1354.18 544.724C1358.1 542.884 1361.18 538.402 1367.16 541.58C1364.75 550.644 1355.69 555.293 1352.18 563.588C1355.86 565.361 1357.93 562.819 1360.44 561.515C1364.6 559.156 1368.89 557.035 1373.28 555.16C1374.08 554.734 1375 554.602 1375.89 554.788C1376.77 554.973 1377.56 555.464 1378.12 556.174C1378.68 556.884 1378.97 557.769 1378.94 558.672C1378.91 559.575 1378.57 560.439 1377.97 561.113C1374.62 565.863 1370.54 570.211 1366.86 574.793C1365.46 576.6 1364.29 578.573 1362.65 581.048C1370.14 582.654 1375.26 573.823 1382.92 578.841C1380.71 583.372 1377.85 587.554 1374.42 591.25C1369.4 597.471 1364.65 603.893 1359.54 609.981C1358.01 612.047 1355.81 613.514 1353.32 614.128C1344.32 615.031 1335.29 615.366 1326.25 615.7C1322.5 615.879 1318.75 615.756 1315.02 615.332C1308.09 614.563 1301.2 613.66 1296.15 607.84C1294.41 606.231 1292.45 604.879 1290.33 603.826C1277.78 595.577 1267.2 584.658 1259.36 571.85C1247.15 553.019 1234.97 534.154 1222.09 515.792C1203.83 489.737 1182.73 465.797 1159.17 444.414C1146.29 432.384 1134.14 419.596 1122.78 406.116C1109.9 391.265 1102.71 373.304 1092.51 357.182C1083.34 342.933 1077.12 327.347 1070.1 312.061C1067.69 306.776 1063.88 302.027 1061.07 297.043C1058.97 293.077 1057.08 289.002 1055.41 284.834C1054.11 281.724 1053.11 278.479 1052.07 275.302L1050.4 275.77C1051.27 279.115 1051.9 282.46 1053.01 285.804C1056.65 296.675 1060.67 307.445 1064.11 318.383C1068.59 332.631 1073.51 346.847 1073.51 362.065C1073.51 365.41 1074.11 368.454 1070.4 371.197C1060.72 347.795 1052.55 323.797 1045.95 299.351H1043.81C1042.89 301.892 1042.21 304.512 1041.77 307.178C1040.12 324.72 1039.64 342.352 1040.33 359.958C1040.33 369.046 1039.79 378.126 1038.72 387.151C1038.29 394.075 1038.02 400.999 1037.52 407.922C1037.28 411 1036.68 414.043 1036.18 417.656C1031.53 415.348 1031.63 411.936 1031.13 408.524C1029.39 397.319 1031.13 386.181 1031.33 375.077C1031.56 364.793 1031.15 354.506 1030.13 344.271C1029.26 345.584 1028.57 347 1028.05 348.486C1026.25 356.58 1024.71 364.708 1022.9 372.802C1022.84 374.398 1022.46 375.967 1021.8 377.418C1014.94 386.081 1017.62 395.982 1018.08 405.481C1018.75 418.86 1020.06 432.072 1020.96 445.351C1021.7 453.641 1020.5 461.99 1017.45 469.734C1013.5 479.367 1009.62 489.033 1005.24 498.466C1003.19 501.877 1000.83 505.091 998.182 508.065C994.269 513.484 990.522 519.036 986.475 524.354C984.1 527.465 981.825 531.044 976.875 530.308C974.338 530.028 971.925 529.061 969.897 527.511C967.869 525.961 966.303 523.886 965.368 521.511C963.362 517.153 962.565 512.335 963.06 507.563C964.331 498.332 964.833 488.967 965.335 479.668C965.868 471.587 969.287 463.966 974.968 458.194C985.566 447.052 991.983 432.588 993.131 417.254C993.634 405.788 992.082 394.325 988.549 383.405C987.04 377.754 985.834 372.026 984.936 366.246C984.97 364.444 985.252 362.654 985.773 360.928C990.966 363.45 995.407 367.29 998.65 372.066C1002.36 377.742 1007.34 382.473 1013.2 385.88C1014 380.93 1014.61 376.582 1015.41 372.3C1019.29 351.563 1023.18 330.825 1027.08 310.088C1027.73 307.758 1028.05 305.348 1028.02 302.93C1026.55 289.852 1036.68 282.326 1042.37 272.827C1043.24 271.355 1045.95 270.987 1048.56 269.749C1044.14 261.454 1036.45 259.013 1027.92 257.976L1028.25 258.076ZM1099.43 305.104C1120.77 328.818 1147.8 340.124 1174.16 352.767C1172.68 350.108 1170.72 347.749 1168.37 345.81C1163.47 342.247 1158.28 339.092 1152.85 336.378C1136.86 326.845 1121.21 316.744 1105.35 306.91C1103.44 306.12 1101.46 305.515 1099.43 305.104ZM1337.16 591.818C1345.62 585.831 1348.57 578.74 1352.98 572.519L1344.85 564.023C1341.94 570.278 1338.86 576.064 1336.62 582.118C1335.75 584.293 1336.79 587.437 1337.16 591.818Z" fill="white"/>
<path d="M347.39 375.01C341.576 369.411 338.169 361.77 337.89 353.704C337.517 350.552 336.742 347.46 335.582 344.506C332.873 336.98 329.594 329.621 327.22 321.962C323.674 310.422 325.948 305.874 335.916 299.151C345.248 293.343 355.66 289.486 366.523 287.812C380.861 285.405 394.164 278.806 404.755 268.847C420.544 253.36 439.175 242.758 458.943 233.727C462.288 232.155 465.633 230.382 468.978 228.676C476.504 225.164 482.358 220.749 484.465 211.751C485.33 209.049 486.758 206.56 488.655 204.45C490.552 202.34 492.875 200.656 495.47 199.509C502.16 195.83 507.813 198.339 508.85 206.199C509.653 212.22 510.991 218.341 508.482 224.361C508.075 225.973 507.817 227.619 507.713 229.278C511.285 227.551 515.202 226.655 519.169 226.655C523.137 226.655 527.053 227.551 530.626 229.278C532.698 229.863 534.564 231.02 536.007 232.618C537.451 234.215 538.415 236.188 538.787 238.309C539.624 243.861 540.426 249.38 541.329 255.033C541.641 257.363 542.342 259.625 543.403 261.722C547.886 253.561 548.521 245.634 542.902 237.841C540.259 234.195 537.683 230.482 535.242 227.037C538.587 219.946 543.738 223.692 548.621 223.692C551.465 218.976 554.274 213.658 561.633 214.528C567.524 215.565 572.909 218.516 576.953 222.923C578.693 221.719 580.298 220.648 581.703 219.578C583.61 218.246 585.779 217.337 588.066 216.912C590.353 216.486 592.705 216.555 594.963 217.112C597.221 217.669 599.335 218.703 601.161 220.144C602.987 221.584 604.484 223.399 605.552 225.465C608.449 230.825 610.888 236.419 612.844 242.189C614.531 248.382 615.905 254.655 616.959 260.987L608.83 265.602L610.47 267.241C618.163 267.241 622.645 263.06 620.906 256.103C619.166 249.146 616.29 241.386 613.881 234.061C612.072 229.633 610.575 225.084 609.399 220.448C609.026 219.15 608.913 217.791 609.066 216.449C609.22 215.108 609.636 213.809 610.291 212.629C610.947 211.448 611.829 210.408 612.887 209.569C613.945 208.73 615.158 208.108 616.457 207.738C619.334 206.639 622.493 206.526 625.441 207.416C628.389 208.306 630.958 210.148 632.747 212.655C637.224 220.55 640.451 229.091 642.313 237.974C643.819 243.794 645.892 249.514 647.766 255.535C652.315 254.297 653.118 251.956 652.716 248.611C651.494 240.917 648.79 233.534 644.755 226.87C642.852 223.977 641.355 220.837 640.306 217.538C639.411 213.661 639.331 209.64 640.072 205.731C640.35 203.173 641.448 200.775 643.203 198.893C644.957 197.012 647.274 195.75 649.806 195.295C652.735 194.821 655.738 195.237 658.428 196.49C661.118 197.742 663.369 199.773 664.892 202.319C666.612 205.045 667.751 208.097 668.237 211.283C670.277 222.823 672.083 234.429 673.856 246.002C674.224 248.343 674.157 250.718 674.358 253.728L691.083 244.196C691.415 240.154 690.892 236.088 689.549 232.262C688.207 228.435 686.074 224.934 683.289 221.986C681.048 219.311 678.439 216.936 676.365 214.193C674.969 212.165 674.029 209.859 673.611 207.433C673.192 205.007 673.305 202.519 673.941 200.141C674.576 197.763 675.721 195.551 677.294 193.657C678.868 191.764 680.833 190.234 683.055 189.174C685.468 187.911 688.22 187.447 690.913 187.85C693.607 188.253 696.103 189.501 698.04 191.415C702.616 195.851 706.176 201.226 708.476 207.169C711.821 218.575 713.628 230.583 715.869 241.553L685.43 258.277L694.26 262.927C693.357 264.532 692.889 266.505 691.618 267.442C679.509 276.774 671.749 289.752 663.119 301.893C652.917 316.209 643.685 331.227 634.018 345.944C633.325 347.09 632.494 348.146 631.543 349.088C615.554 362.935 611.841 382.837 605.987 401.568C602.642 412.505 599.966 423.677 597.19 434.815C591.303 458.228 584.379 481.642 584.078 506.293C584.078 516.695 585.282 527.097 585.315 537.5C585.149 543.318 584.432 549.108 583.175 554.792C582.807 556.565 580.465 559.441 579.462 559.274C578.359 559.011 577.318 558.533 576.4 557.867C575.481 557.201 574.703 556.361 574.11 555.394C567.833 543.791 565.067 530.612 566.149 517.464C567.42 500.975 568.725 484.451 570.598 467.995C571.47 458.931 573.206 449.971 575.782 441.237C582.138 421.168 589.53 401.367 596.12 381.332C601.994 364.906 608.84 348.845 616.624 333.234C618.801 329.254 621.237 325.422 623.916 321.761C630.606 311.437 637.196 301.079 643.685 290.688C643.885 290.354 643.685 289.718 643.451 288.38C641.732 289.525 640.13 290.836 638.667 292.294C630.74 302.663 622.444 312.831 615.253 323.701C609.667 332.063 605.419 341.328 600.602 350.192C597.926 355.142 595.083 359.959 592.641 365.009C585.436 381.101 579.985 397.922 576.385 415.181C573.474 427.389 569.996 439.498 567.32 451.739C565.146 461.774 563.807 472.176 562.001 482.411C561.6 484.652 560.864 486.826 559.794 490.907C557.854 487.997 556.449 486.793 556.148 485.321C553.765 474.897 552.931 464.179 553.672 453.512C555.78 430.374 560.378 407.531 567.387 385.379C569.998 378.099 573.047 370.984 576.518 364.073C580.164 355.778 583.208 347.081 587.557 339.221C593.678 328.317 600.669 317.881 607.626 307.546C610.971 302.729 615.353 298.682 618.899 294.167C624.129 286.68 631.065 280.546 639.136 276.272C642.121 274.507 644.982 272.541 647.699 270.385L638.467 268.981L644.287 260.451C642.456 259.862 640.471 259.986 638.728 260.799C636.985 261.611 635.613 263.052 634.888 264.833C632.379 269.951 628.398 271.222 623.147 271.523C617.092 271.857 611.072 272.961 604.415 273.83C605.92 277.878 604.148 280.754 601.07 283.865C592.086 292.212 583.576 301.056 575.582 310.356C561.876 327.807 550.622 347.05 542.132 367.551C536.082 380.929 531.766 395.024 529.288 409.495C528.142 416.39 526.001 423.082 522.932 429.363C522.397 428.159 521.36 426.921 521.427 425.717C522.13 412.672 522.798 399.594 523.969 386.583C524.466 382.078 525.592 377.664 527.314 373.472C532.265 360.828 536.814 347.917 542.935 335.843C548.068 325.289 554.507 315.423 562.102 306.476C571.768 295.572 582.573 285.37 596.588 279.717C597.498 279.16 598.34 278.497 599.097 277.744C594.38 275.804 594.313 275.704 585.115 279.517C580.465 281.423 576.017 283.932 570.765 286.541C560.529 280.353 551.933 285.437 543.203 294.568C542.534 289.384 542.099 286.106 541.664 282.828L540.56 282.56C537.75 291.859 534.952 301.135 532.164 310.389C542.199 302.93 550.194 293.665 562.269 289.952C563.373 289.618 564.744 290.22 567.487 290.554C565.986 293.533 564.145 296.328 562.001 298.883C544.474 314.804 534.74 335.675 526.01 356.815C523.822 363.379 522.078 370.084 520.792 376.883C520.14 380.284 519.257 383.637 518.149 386.918C517.909 387.796 517.361 388.558 516.604 389.064C515.847 389.57 514.933 389.786 514.03 389.672C513.126 389.559 512.294 389.122 511.687 388.444C511.08 387.766 510.737 386.891 510.723 385.981C510.427 381.174 510.55 376.351 511.091 371.565C512.761 354.494 517.931 337.95 526.277 322.965C526.972 321.453 527.575 319.901 528.083 318.316C523.802 319.855 520.524 320.724 517.48 322.163C516.681 322.658 515.793 322.99 514.865 323.14C513.938 323.29 512.99 323.256 512.076 323.038C511.162 322.82 510.3 322.424 509.54 321.872C508.779 321.32 508.136 320.623 507.646 319.821C505.739 317.246 503.933 314.603 501.993 312.061C500.622 310.255 499.15 308.549 497.511 306.509C487.476 324.37 472.758 337.248 460.716 352.333C459.964 353.402 459.283 354.519 458.676 355.677C462.389 356.079 463.827 353.67 465.533 351.965C473.795 343.603 481.957 335.241 490.319 326.845C497.009 320.156 497.277 320.156 506.04 324.404C507.001 324.938 507.928 325.53 508.817 326.176C507.144 334.672 505.472 342.9 503.9 351.329C501.424 364.976 503.063 378.522 505.171 392.002C506.241 398.691 506.609 398.691 500.923 402.304C499.217 403.407 497.578 404.611 494.634 406.585L515.774 408.826C513.366 418.86 515.774 427.791 516.978 436.688C517.38 440.033 517.681 443.11 522.297 443.377C523.534 443.377 525.307 445.585 525.642 447.057C526.444 450.402 526.444 453.913 526.946 457.325C527.716 462.476 526.946 468.095 531.796 472.477L538.486 469.701C539.657 472.176 540.861 474.216 541.631 476.39C545.157 486.222 550.876 495.121 558.355 502.413C559.637 503.732 560.623 505.309 561.246 507.04C561.869 508.77 562.115 510.614 561.968 512.447C562.017 523.364 562.619 534.27 563.774 545.126C564.729 550.923 566.675 556.512 569.527 561.649C571.48 565.141 574.303 568.067 577.723 570.145C583.81 573.991 588.727 571.483 589.831 564.459C590.366 561.114 590.467 557.769 590.868 553.12C592.254 554.16 593.512 555.361 594.614 556.699C596.086 559.207 596.621 562.586 598.628 564.459C605.987 571.148 605.151 580.647 607.158 589.21C610.503 604.027 616.39 617.808 629.201 627.173C632.921 629.706 637.104 631.48 641.511 632.391C646.093 633.461 648.201 630.652 647.632 625.702C647.264 623.327 646.327 621.019 646.026 618.678C645.625 615.333 647.766 613.694 651.044 614.931C661.137 618.879 671.673 621.586 682.419 622.992C687.481 623.793 692.188 626.091 695.932 629.59C699.676 633.089 702.286 637.63 703.426 642.626C703.919 644.167 703.855 645.833 703.243 647.332C702.631 648.83 701.512 650.065 700.081 650.821C694.89 654.058 689.506 656.973 683.958 659.551C682.444 660.164 680.774 660.277 679.192 659.874C677.609 659.471 676.197 658.572 675.161 657.31C673.321 655.47 671.816 653.43 668.872 650.286C667.267 654.065 666.096 656.574 665.126 659.149C659.105 675.037 652.75 679.218 635.891 680.088C629.77 680.422 624.953 679.452 621.106 674.636C620.77 674.221 620.362 673.87 619.902 673.599C607.86 666.575 602.308 654.935 599.565 642.225C595.183 622.156 584.58 605.198 572.805 588.875C565.48 578.841 557.385 569.141 549.893 559.107C530.525 533.218 511.426 507.129 491.891 481.374C484.499 471.574 476.371 462.309 468.242 453.077C463.997 448.403 459.449 444.012 454.629 439.932C453.288 439.036 452.297 437.705 451.822 436.164C451.347 434.623 451.417 432.966 452.019 431.47C454.595 424.312 457.773 417.656 466.603 415.616C461.753 415.616 456.87 415.883 452.019 415.616C443.323 415.047 442.286 413.609 441.617 405.013C441.142 395.841 437.609 387.091 431.582 380.161C429.509 378.105 427.1 376.419 424.457 375.177C421.313 373.505 419.741 376.582 417.533 377.887C414.439 379.407 410.957 379.952 407.547 379.45C404.136 378.949 400.958 377.424 398.433 375.077C386.726 363.471 385.054 363.17 369.7 370.026C367.259 371.13 364.716 372 362.341 373.371C357.648 376.05 352.11 376.84 346.854 375.579L347.39 375.01ZM679.911 261.589C675.662 261.354 671.448 260.451 671.147 255.1L648.1 267.375C651.813 270.285 655.225 265.301 658.135 269.349C655.125 274.433 649.003 277.71 647.833 285.102L679.911 261.589ZM564.945 248.611L563.005 248.912C563.841 253.294 564.677 257.709 565.781 263.629C569.628 256.906 568.658 252.558 564.945 248.611ZM585.75 245.266C586.754 251.454 586.754 251.454 590.534 254.297C591.571 248.711 591.571 248.711 585.75 245.333V245.266Z" fill="white"/>
<path d="M470.818 982.122C468.51 981.921 466.904 981.921 465.366 981.653C462.07 981.406 458.955 980.053 456.526 977.812C454.097 975.572 452.497 972.576 451.986 969.311C449.436 957.215 448.961 944.774 450.581 932.518C452.789 911.814 455.966 891.21 458.007 870.506C459.311 857.127 459.245 843.748 459.813 830.369C460.148 822.107 460.984 813.812 460.75 805.551C460.348 792.774 459.144 779.996 458.509 767.219C458.437 762.752 458.627 758.285 459.077 753.84C459.612 746.682 460.148 739.491 460.984 732.333C461.651 729.137 462.557 725.995 463.693 722.935C468.878 725.945 473.26 728.754 477.909 731.096C483.094 733.705 488.58 735.812 493.831 738.32C495.667 739.203 497.331 740.403 498.748 741.866C499.748 743.121 500.507 744.55 500.989 746.08C509.586 767.454 507.679 766.45 494.567 780.364C490.018 785.214 484.532 789.897 481.99 795.717C478.639 803.564 476.713 811.945 476.304 820.468C475.3 844.751 475.501 869.068 475.033 893.351C474.886 899.235 474.339 905.102 473.394 910.911C471.893 920.386 472.314 930.066 474.631 939.375C475.537 937.293 476.286 935.147 476.872 932.953C481.154 906.596 485.38 880.217 489.55 853.816C490.133 850.946 490.138 847.988 489.563 845.117C488.989 842.245 487.847 839.517 486.205 837.092C484.513 834.692 483.403 831.932 482.962 829.03C482.521 826.127 482.761 823.162 483.663 820.368C485.67 812.909 487.008 805.25 488.479 797.657C488.72 795.256 489.713 792.993 491.317 791.191C492.921 789.389 495.054 788.14 497.41 787.623C500.118 786.695 502.626 785.266 504.803 783.408C506.91 781.803 508.148 779.16 510.556 777.889C517.447 773.942 517.045 768.089 514.938 762.035C513.348 757.791 511.39 753.695 509.084 749.793C504.334 741.23 507.044 733.738 516.376 730.226C527.802 726.348 539.944 725.046 551.933 726.413C553.243 726.478 554.526 726.808 555.704 727.383C556.883 727.958 557.933 728.766 558.79 729.758C562.882 735 565.012 741.507 564.811 748.154C564.332 754.57 562.466 760.806 559.342 766.431C556.217 772.056 551.909 776.935 546.715 780.732C542.527 784.022 538.823 787.884 535.71 792.205C533.255 795.974 531.467 800.138 530.425 804.514C528.719 810.635 528.017 817.057 526.444 823.211C521.661 841.741 520.892 860.673 520.424 879.671C520.123 892.214 519.821 904.757 519.654 917.3C519.654 919.875 520.056 922.417 520.424 926.464C523.778 922.801 526.097 918.312 527.143 913.457C528.189 908.602 527.925 903.556 526.378 898.836C527.871 899.751 529.223 900.878 530.391 902.181C535.777 910.376 540.426 918.905 546.447 926.899C552.468 934.893 558.79 941.315 565.179 948.373C566.259 949.155 567.53 949.629 568.858 949.744C580.699 952.554 589.363 960.715 596.688 969.211C602.341 975.9 603.846 985.332 602.542 994.999C596.822 994.765 595.584 990.852 594.18 987.641C592.774 984.31 590.652 981.33 587.964 978.914C585.275 976.497 582.087 974.703 578.626 973.659C576.641 972.887 574.517 972.541 572.39 972.645C570.263 972.749 568.182 973.3 566.283 974.261C557.318 978.677 543.838 973.158 540.828 963.892C539.337 959.1 537.078 954.581 534.138 950.513C531.219 945.94 528.562 941.205 526.177 936.332C525.675 941.014 525.541 943.958 525.073 946.868C524.203 952.42 522.364 954.193 516.911 954.962C513.566 955.464 510.021 955.965 506.575 956.2C504.987 956.193 503.437 956.692 502.15 957.624C500.864 958.556 499.907 959.872 499.417 961.384C503.844 962.058 508.319 962.371 512.797 962.321C520.424 961.718 525.307 965.899 529.522 971.05C531.007 973.174 531.769 975.718 531.696 978.308C531.568 983.871 533.018 989.356 535.877 994.129C538.988 999.481 539.824 1006.2 541.43 1012.39C545.004 1026.94 551.07 1040.76 559.359 1053.23C562.114 1056.49 565.272 1059.39 568.758 1061.86C576.686 1068.55 583.007 1076.31 583.543 1087.62L592.908 1086.51C593.31 1088.75 593.611 1090.29 593.845 1091.83C595.116 1099.96 598.595 1103.54 606.456 1105.21C609.086 1105.61 611.658 1106.33 614.115 1107.35C618.665 1109.42 619.668 1114.04 615.721 1116.88C613.428 1118.49 611.601 1120.68 610.426 1123.22C609.251 1125.77 608.77 1128.58 609.031 1131.37C609.001 1133 608.502 1134.59 607.595 1135.95C606.688 1137.3 605.41 1138.37 603.913 1139.03C601.701 1138.45 599.66 1137.36 597.965 1135.82C596.27 1134.29 594.971 1132.37 594.18 1130.23C593.102 1127.78 592.295 1125.22 591.771 1122.6C591.48 1120.22 590.553 1117.96 589.087 1116.06C587.622 1114.16 585.672 1112.69 583.442 1111.8C577.455 1109.02 576.752 1106.41 579.629 1100.29C580.666 1098.02 581.569 1095.71 582.673 1093.07L568.959 1098.65C568.765 1103.14 567.377 1107.5 564.937 1111.28C562.496 1115.05 559.093 1118.11 555.077 1120.13C550.194 1122.9 547.217 1121.97 544.674 1116.78C543.156 1113.61 542.119 1110.23 541.597 1106.75C539.791 1095.31 533.971 1085.81 527.649 1076.48C527.281 1075.94 526.444 1075.71 524.638 1074.6C525.508 1082.26 526.879 1088.89 531.06 1093.9C537.182 1101.3 536.68 1109.79 536.881 1118.22C536.495 1120.62 535.236 1122.78 533.345 1124.3C531.454 1125.82 529.067 1126.59 526.645 1126.45C520.952 1125.36 515.406 1123.61 510.121 1121.23C509.415 1120.85 508.801 1120.32 508.321 1119.68C507.842 1119.04 507.508 1118.3 507.345 1117.52C506.019 1111.07 505.346 1104.5 505.338 1097.92C505.906 1093.17 505.484 1088.35 504.1 1083.77C498.447 1067.92 492.627 1052.03 483.428 1037.85C478.534 1030.86 473.05 1024.3 467.038 1018.25C463.336 1014.39 459.232 1010.93 454.796 1007.94C452.643 1006.6 450.995 1004.58 450.112 1002.2C449.228 999.825 449.158 997.221 449.912 994.798C450.046 992.937 450.835 991.183 452.139 989.848C453.444 988.513 455.179 987.684 457.037 987.507C461.486 986.403 466.67 987.072 470.818 982.122ZM507.077 992.156C507.288 998.688 509.227 1005.05 512.697 1010.59C516.677 1016.51 520.457 1022.56 524.371 1028.51C525.3 1029.76 526.305 1030.94 527.381 1032.06C522.425 1017.92 515.62 1004.51 507.144 992.156H507.077ZM566.249 1092.77C563.373 1088.42 560.563 1083.97 557.519 1079.72C554.475 1075.47 553.572 1070.22 548.253 1067.98C550.06 1073.53 552.635 1078.69 554.642 1084.04C555.372 1086.56 556.909 1088.78 559.016 1090.35C561.124 1091.92 563.688 1092.76 566.316 1092.73L566.249 1092.77ZM492.661 967.471C484.365 966.602 480.351 970.114 478.913 978.643L492.661 967.471Z" fill="white"/>
<path d="M400.942 386.751C409.371 383.406 417.901 384.71 427.534 385.212C431.18 393.239 435.161 401.635 438.773 410.164C441.249 416.017 438.372 420.466 433.99 424.179C432.716 425.051 431.63 426.17 430.795 427.468C429.96 428.767 429.393 430.22 429.128 431.741C428.864 433.262 428.906 434.82 429.252 436.325C429.599 437.829 430.243 439.249 431.147 440.501C431.76 437.622 433.022 434.921 434.836 432.602C436.651 430.284 438.969 428.41 441.617 427.122C444.46 431.303 447.337 435.116 449.778 439.13C453.716 446.446 458.992 452.959 465.332 458.329C466.018 458.869 466.568 459.561 466.94 460.351C467.311 461.14 467.494 462.005 467.473 462.878C467.139 464.082 464.831 464.885 463.292 465.587C461.753 466.289 460.583 466.089 459.445 466.691C458.552 467.279 457.55 467.684 456.499 467.882C455.447 468.079 454.367 468.066 453.321 467.841C452.275 467.617 451.284 467.187 450.406 466.576C449.528 465.965 448.78 465.185 448.206 464.283C446.951 463.158 445.57 462.182 444.092 461.373C444.708 463.438 445.537 465.433 446.567 467.326C451.852 474.016 457.304 480.706 462.656 487.395C468.978 495.255 475.769 502.814 481.422 511.143C485.055 517.373 488.284 523.831 491.088 530.476C494.274 537.535 497.928 544.374 502.026 550.946C510.422 563.087 513.533 577.303 518.751 590.682C521.209 598.286 525.193 605.308 530.458 611.319C537.148 618.41 543.838 625.835 550.26 633.227C554.941 639.036 558.061 645.944 559.325 653.296C561.801 664.468 565.38 675.405 568.156 686.543C569.461 691.694 569.862 697.079 571.033 702.264C571.542 703.809 571.485 705.485 570.873 706.992C570.26 708.5 569.131 709.74 567.688 710.492C562.279 713.307 556.692 715.765 550.963 717.85C548.354 718.787 546.414 717.148 546.313 714.004C546.428 711.869 546.236 709.729 545.745 707.649C544.58 704.668 543.251 701.753 541.764 698.919C537.081 702.933 537.683 707.615 537.014 711.529C536.275 715.47 534.458 719.129 531.763 722.098C530.826 723.235 529.154 724.741 527.983 724.607C520.323 723.804 514.202 728.453 507.311 730.259C504.81 731.173 502.139 731.527 499.486 731.296C496.833 731.065 494.263 730.254 491.958 728.922C488.85 727.388 485.601 726.156 482.258 725.242C471.186 721.162 462.188 715.208 460.315 702.297C459.345 695.608 457.739 689.219 456.401 682.697C455.847 680.331 456.023 677.853 456.907 675.589C457.791 673.326 459.341 671.384 461.352 670.02C462.328 669.113 463.392 668.306 464.53 667.612C475.401 662.628 476.538 653.53 474.564 643.395C470.015 619.982 464.53 597.037 450.949 576.5C440.914 561.415 431.883 545.628 422.283 530.242C419.875 526.395 416.864 522.95 414.355 519.17C408.669 510.474 403.484 501.443 397.463 492.981C388.198 479.936 379.033 466.691 365.352 457.593C361.329 454.906 358.206 451.072 356.387 446.589C353.99 440.917 351.161 435.438 347.925 430.199C344.124 423.704 342.705 416.087 343.911 408.659C344.311 401.281 346.898 394.19 351.342 388.287C355.785 382.385 361.885 377.937 368.864 375.512C371.378 374.643 374.111 374.643 376.624 375.512C381.133 377.164 385.442 379.318 389.469 381.934C393.617 384.677 396.594 388.289 394.319 394.076C393.659 396.4 393.422 398.825 393.617 401.233C393.457 402.807 393.861 404.385 394.755 405.689C395.649 406.994 396.976 407.939 398.5 408.358C397.887 404.678 397.618 400.949 397.698 397.22C398.441 393.634 399.527 390.128 400.942 386.751Z" fill="white"/>
<path d="M347.055 374.709C347.722 376.305 348.043 378.025 347.997 379.755C347.951 381.484 347.539 383.185 346.787 384.743C344.917 388.591 343.395 392.599 342.238 396.718C339.581 404.484 338.623 412.731 339.428 420.9C340.499 435.527 340.633 450.207 339.83 464.851C339.606 470.731 339.047 476.594 338.157 482.411C337.996 487.227 336.081 491.818 332.772 495.322C328.156 494.887 327.721 491.509 327.554 488.365C327.086 477.962 326.851 467.56 326.517 457.158C326.316 451.906 326.216 446.588 321.332 442.006C319.001 445.394 318.099 449.564 318.824 453.612C319.559 463.479 320.563 473.347 321.098 483.214C321.157 486.607 320.706 489.989 319.76 493.248C318.89 496.593 316.75 499.235 312.836 498.499C311.229 498.272 309.759 497.468 308.7 496.237C307.642 495.007 307.067 493.433 307.083 491.81C306.648 485.12 306.079 478.431 305.477 471.741C304.975 466.155 304.674 460.536 303.704 455.017C302.766 451.893 301.499 448.877 299.925 446.02C298.44 447.237 297.336 448.855 296.743 450.681C296.15 452.507 296.093 454.464 296.58 456.322C297.449 467.259 298.553 478.163 299.557 489.067C299.919 491.449 300.131 493.85 300.192 496.258C300.227 497.758 299.702 499.216 298.718 500.348C297.734 501.481 296.363 502.205 294.874 502.379C291.529 502.814 289.622 500.239 289.087 496.994C288.823 494.874 288.678 492.742 288.652 490.606C287.552 476.787 284.418 463.206 279.353 450.301C279.353 449.9 278.584 449.699 277.781 449.13C275.139 451.204 275.607 454.081 275.841 456.89C276.477 464.617 277.413 472.31 277.547 480.036C277.53 485.361 276.992 490.671 275.941 495.89C275.922 496.854 275.694 497.801 275.275 498.668C274.855 499.535 274.253 500.302 273.51 500.915C272.766 501.528 271.899 501.973 270.968 502.22C270.037 502.467 269.064 502.51 268.114 502.346C267.403 499.72 266.944 497.032 266.743 494.318C266.91 484.953 267.445 475.621 267.746 466.256C267.746 462.008 268.047 457.726 267.746 453.445C267.546 450.334 267.245 450.368 263.063 447.291C258.581 451.271 260.153 456.522 260.32 461.305C260.555 466.858 261.525 472.41 261.558 478.029C261.558 485.22 261.19 492.412 260.856 499.637C260.955 501.248 260.483 502.842 259.522 504.139C258.561 505.436 257.174 506.353 255.604 506.727C251.992 505.055 252.527 501.911 252.56 499.101C252.56 486.826 252.861 474.517 252.895 462.309C252.923 459.108 252.699 455.909 252.226 452.743C252.244 451.248 251.677 449.806 250.645 448.725C249.614 447.643 248.2 447.009 246.707 446.956C246.124 448.83 245.732 450.757 245.536 452.709C245.536 458.864 246.038 465.018 245.803 471.139C245.569 478.33 245.034 485.555 244.164 492.679C243.562 497.663 242.492 498.7 236.839 503.282C236.163 501.638 235.68 499.921 235.401 498.165C235.033 486.96 234.966 475.721 234.497 464.483C234.263 457.793 233.494 451.371 232.925 444.414C228.41 445.284 228.711 448.194 228.443 450.669C227.038 463.145 225.7 475.588 224.262 488.064C223.861 491.676 223.961 495.556 220.917 498.533C215.431 496.191 216.301 491.643 216.635 487.595C217.405 478.531 218.576 469.533 219.445 460.503C219.906 457.055 220.018 453.57 219.78 450.1C219.272 447.449 218.452 444.867 217.338 442.407H215.465C214.788 443.901 214.305 445.474 214.026 447.09C213.725 454.315 213.725 461.54 213.458 468.764C213.869 473.578 212.694 478.394 210.113 482.478C205.999 480.872 206.333 477.227 206.3 474.317C206.3 468.196 206.734 462.075 207.035 455.954C207.236 451.572 208.608 447.09 205.865 442.04C201.148 447.124 203.256 452.576 202.921 457.492C202.587 462.409 202.921 468.062 202.921 473.179C195.495 473.949 193.087 472.377 192.886 466.691C192.886 461.874 193.488 457.091 193.589 452.275C193.589 448.662 193.288 445.083 193.121 441.471L191.314 441.203C190.679 442.374 189.575 443.545 189.508 444.749C189.508 449.799 189.508 454.783 189.508 459.934C189.751 461.786 189.862 463.652 189.842 465.52C189.842 466.657 188.739 468.463 187.936 468.597C187.133 468.731 184.357 468.162 183.922 467.259C182.312 463.947 181.185 460.422 180.577 456.79C180.075 452.843 180.911 448.796 180.811 444.782C180.503 442.184 179.999 439.612 179.306 437.089C171.847 444.648 179.64 454.281 172.616 460.77C167.766 457.158 168.234 451.639 167.699 446.588C167.673 444.727 167.83 442.867 168.167 441.036C168.495 439.452 168.297 437.804 167.603 436.343C166.908 434.882 165.756 433.688 164.321 432.942C161.344 434.012 160.976 436.487 161.243 438.828C161.511 444.18 162.18 449.465 162.314 454.816C161.994 456.514 161.358 458.136 160.44 459.6C158.835 458.496 156.46 457.76 155.791 456.255C154.554 453.004 153.624 449.645 153.015 446.221C152.212 442.876 151.543 439.531 150.807 436.186C145.522 435.818 144.853 438.929 145.488 442.273C146.311 445.373 147.432 448.386 148.833 451.271C149.878 453.196 150.226 455.422 149.817 457.574C149.409 459.726 148.27 461.67 146.592 463.078C137.996 458.128 142.077 446.354 133.514 440.434C133.146 442.742 132.443 444.28 132.811 445.451C133.882 449.03 135.621 452.408 136.691 455.987C138.163 460.871 136.892 465.118 134.183 466.022C132.195 466.155 130.217 465.649 128.538 464.578C126.859 463.506 125.567 461.926 124.85 460.068C124.248 458.596 123.98 456.991 123.412 455.485C122.843 453.98 122.275 453.245 120.87 450.602C120.268 453.479 119.431 454.95 119.799 456.021C121.38 459.394 122.765 462.856 123.947 466.389C124.101 467.508 124.004 468.647 123.663 469.723C123.322 470.799 122.744 471.786 121.974 472.611C119.833 474.584 117.458 472.811 115.919 470.771C114.381 468.731 113.745 467.092 112.574 465.353C111.404 463.613 109.865 461.74 108.025 459.365C107.11 460.543 106.591 461.979 106.543 463.469C106.495 464.96 106.92 466.427 107.758 467.66C108.594 469.333 109.898 470.771 110.634 472.477C111.264 474.117 111.271 475.931 110.655 477.576C110.039 479.222 108.841 480.584 107.289 481.407C103.744 483.046 101.87 480.471 100.198 478.063C98.8934 476.223 97.8565 474.25 96.853 472.31L95.0802 472.644C94.5191 474.145 94.2029 475.726 94.1436 477.327C94.5075 478.885 95.0933 480.383 95.8829 481.775C97.1206 484.685 97.7896 487.629 94.4112 489.469C91.0328 491.308 89.0593 488.699 87.1192 486.425L83.7743 482.344C80.2286 485.455 81.7004 488.498 82.8711 491.442C84.0418 494.385 85.8481 496.292 83.1387 498.733C80.4293 501.175 77.7868 499.469 75.3115 497.663C73.8238 496.755 72.2695 495.962 70.6621 495.288C71.0276 497.352 71.5418 499.386 72.2008 501.376C73.5387 504.186 74.5757 506.928 71.8328 509.403C69.09 511.878 67.0161 509.169 64.8419 507.932C64.1789 507.738 63.4922 507.636 62.8014 507.631C62.6289 510.798 62.0672 513.932 61.129 516.963C59.2893 521.21 55.2753 516.963 52.198 518.434C52.198 521.779 53.3018 525.993 51.83 528.736C50.3583 531.479 46.4112 531.88 43.2001 533.519C41.2934 545.661 41.1597 545.861 32.329 547.266C32.329 550.243 33.3325 553.789 32.0614 556.063C30.7903 558.337 27.2112 559.408 25.3715 560.612L17.6112 571.951C16.2733 573.924 14.9687 575.931 13.497 577.771C11.6693 580.39 9.54818 582.791 7.17501 584.928C6.37604 585.475 5.45583 585.819 4.49411 585.929C3.53239 586.04 2.55816 585.915 1.65585 585.564C-0.652158 584.126 -0.31766 581.416 1.25446 579.209C1.83843 578.31 2.54806 577.499 3.36178 576.801C9.11508 572.486 9.78407 566.465 9.18198 560.077C9.18198 559.274 8.81404 558.07 9.18198 557.735C14.9018 552.752 13.7646 544.356 18.2802 538.938C22.7959 533.519 27.1109 528 31.4928 522.481C32.7065 520.784 33.8233 519.02 34.8377 517.197C42.0628 505.557 49.1875 493.783 56.3123 482.244C57.0848 481.292 57.5408 480.122 57.6168 478.899C56.3457 472.209 61.2628 468.664 65.6112 466.356C72.3223 462.244 77.9443 456.577 82.0014 449.833C83.3949 447.877 85.0621 446.131 86.952 444.648C89.7283 442.374 93.6418 441.304 93.9094 436.721C93.9094 436.186 95.1136 435.116 95.5485 435.216C101.001 436.42 102.439 431.503 103.978 428.526C106.921 423.074 114.013 423.008 116.755 417.723C117.324 416.753 120.702 417.321 122.843 417.154C124.406 413.123 127.009 409.579 130.388 406.882C133.766 404.185 137.8 402.432 142.077 401.802C145.087 395.112 152.111 392.102 161.377 393.975C161.94 392.603 162.732 391.336 163.718 390.229C165.056 389.192 167.933 387.854 168.401 388.322C173.151 393.239 179.64 390.396 185.126 392.503C188.705 388.489 193.054 386.683 198.238 390.095C200.847 378.656 202.988 375.913 211.618 380.897L224.998 373.706C228.51 363.437 230.952 362.735 240.084 371.063C243.428 368.387 245.536 362.333 251.657 366.146C254.333 361.798 256.842 357.885 262.261 358.119C262.527 358.107 262.789 358.041 263.03 357.926C263.272 357.811 263.488 357.649 263.665 357.45C268.75 351.028 274.269 353.001 279.587 356.714C281.622 352.441 284.099 348.394 286.98 344.639C290.626 340.759 295.81 342.03 300.694 343.87C301.489 341.745 302.171 339.579 302.734 337.381C304.24 329.822 311.297 327.815 316.817 328.618C320.031 328.87 323.047 330.274 325.309 332.573C327.571 334.871 328.926 337.909 329.126 341.127C329.728 347.449 331.066 353.737 331.835 360.059C331.938 362.886 332.913 365.612 334.625 367.863C336.338 370.115 338.705 371.782 341.402 372.635C343.375 373.338 345.249 374.308 347.189 375.144L347.055 374.709Z" fill="white"/>
<path d="M939.11 437.123C938.91 445.92 943.124 453.211 946.402 461.005C948.376 465.788 947.272 471.975 947.105 477.528C946.737 488.432 946.035 499.369 945.533 510.273C945.533 512.38 945.767 514.555 945.533 516.662C944.73 522.214 942.188 525.124 936.669 525.124C934.284 525.202 931.941 525.767 929.784 526.785C927.626 527.803 925.7 529.253 924.125 531.044C916.599 538.169 909.039 545.36 900.911 551.782C896.932 554.44 892.481 556.313 887.799 557.301C881.486 559.321 874.81 559.948 868.231 559.14C869.469 549.942 870.238 541.212 872.044 532.683C872.613 530.041 875.724 527.666 878.166 525.76C884.67 521.022 890.891 515.907 896.797 510.44C891.077 513.083 885.391 515.892 879.57 518.367C876.381 519.672 873.078 520.68 869.703 521.378C868.009 521.962 866.206 522.156 864.427 521.944C862.648 521.732 860.94 521.121 859.431 520.156C857.922 519.191 856.651 517.897 855.713 516.37C854.775 514.844 854.195 513.126 854.015 511.344C852.878 505.624 852.409 499.737 851.172 494.051C850.467 491.27 849.241 488.648 847.559 486.325C840.033 475.554 828.292 469.601 818.157 461.908C802.824 450.747 788.457 438.316 775.208 424.747C767.061 416.65 758.341 409.149 749.117 402.304C739.317 394.443 729.048 387.018 719.013 379.459C717.575 378.389 715.969 377.519 714.564 376.616C713.879 378.799 712.971 380.906 711.855 382.904C700.062 400.852 692.586 421.287 690.012 442.608C684.958 470.261 685.049 498.608 690.28 526.228C691.651 536.797 693.625 547.3 695.632 557.769C696.677 561.338 698.008 564.816 699.612 568.171C701.285 572.62 703.325 577.035 700.816 583.123C698.456 581.806 696.294 580.162 694.394 578.239C688.139 569.309 681.483 560.679 679.944 549.206C676.599 523.519 672.886 497.864 671.414 471.975C670.952 457.53 672.781 443.102 676.833 429.229C680.58 415.081 683.055 400.497 690.213 387.386C693.892 380.696 697.371 373.84 701.118 366.782C694.962 360.751 687.378 356.379 679.074 354.072C677.803 353.637 676.465 353.37 675.228 352.935C665.728 349.59 661.848 346.245 665.996 333.97C670.145 321.754 677.367 310.812 686.968 302.194C689.442 299.746 692.378 297.814 695.605 296.511C698.833 295.207 702.287 294.558 705.767 294.602C709.243 294.544 712.71 294.22 716.136 293.632C717.607 293.319 719.139 293.474 720.518 294.073C721.897 294.673 723.055 295.688 723.83 296.977C726.606 301.826 730.285 306.676 731.189 311.928C733.514 322.966 738.627 333.226 746.04 341.73C752.883 349.9 760.21 357.651 767.983 364.943C785.31 381.967 803.172 398.39 820.231 415.783C828.092 423.71 834.113 433.443 841.906 441.438C848.857 448.818 856.635 455.372 865.087 460.971C871.375 464.985 879.637 464.717 886.996 462.945C895.63 461.072 903.713 457.226 910.612 451.706C912.787 449.341 914.51 446.598 915.696 443.612C918.138 439.197 918.338 433.143 925.731 432.875C928.236 432.637 930.763 432.927 933.149 433.728C935.534 434.529 937.725 435.822 939.579 437.524L939.11 437.123Z" fill="white"/>
<path d="M939.445 437.357C937.839 434.013 938.743 429.296 934.06 427.323C933.357 427.022 933.056 424.982 933.056 423.778C933.099 421.113 933.311 418.454 933.692 415.817C936.568 395.28 933.257 375.379 927.671 355.611C926.867 352.906 925.379 350.455 923.352 348.492C921.325 346.529 918.826 345.122 916.097 344.406C910.846 342.533 908.939 343.804 909.407 349.222C909.578 352.694 910.071 356.143 910.879 359.524C916.061 378.616 918.98 398.251 919.576 418.025C919.576 419.831 920.312 421.637 920.446 423.477C920.853 425.419 920.628 427.441 919.803 429.247C918.979 431.052 917.598 432.546 915.863 433.511C913.092 435.871 910.818 438.759 909.173 442.007C908.009 444.078 906.981 446.223 906.096 448.429C905.168 446.369 904.462 444.216 903.989 442.007C903.688 430.267 904.29 418.593 903.119 406.786C901.992 396.724 899.92 386.791 896.931 377.118C895.682 372.312 893.018 367.992 889.284 364.717C885.551 361.443 880.92 359.366 875.991 358.755C875.991 360.996 875.791 363.003 875.991 364.943C876.828 372.903 877.965 380.797 878.634 388.758C879.597 397.231 880.077 405.751 880.072 414.278C879.805 424.112 878.366 433.912 877.463 443.713C877.162 447.057 876.995 450.135 876.794 453.312C876.835 453.919 876.754 454.529 876.557 455.105C876.359 455.68 876.049 456.211 875.644 456.666C875.24 457.12 874.748 457.49 874.199 457.752C873.65 458.015 873.054 458.166 872.446 458.195C869.435 458.496 866.425 458.195 865.355 454.516C864.839 453.004 864.535 451.428 864.451 449.833C864.451 444.013 864.619 438.227 864.451 432.407C864.451 413.242 864.451 394.042 864.117 374.843C863.993 371.367 863.5 367.914 862.645 364.541C861.791 362.004 861.757 359.261 862.55 356.704C863.343 354.146 864.921 351.903 867.06 350.293C868.455 349.074 869.475 347.485 870.004 345.71C863.715 349.055 857.795 352.4 857.26 360.762C856.882 364.251 855.897 367.647 854.35 370.796C846.255 388.524 843.378 407.589 840.803 426.554C840.385 428.393 839.814 430.195 839.097 431.939C833.544 426.42 835.752 414.68 823.342 415.215C824.078 410.365 824.881 405.448 825.583 400.531C829.117 377.787 836.099 355.714 846.288 335.074C853.225 321.138 862.894 308.739 874.72 298.616C882.514 291.759 891.178 285.906 899.54 279.684C901.221 278.341 903.289 277.574 905.439 277.496C907.589 277.418 909.707 278.032 911.481 279.25C914.826 281.29 918.673 282.762 922.252 284.601C923.73 285.27 924.914 286.453 925.585 287.929C926.255 289.406 926.367 291.076 925.898 292.629C925.858 292.888 925.802 293.145 925.731 293.398C924.234 297.712 923.356 302.217 923.122 306.777C923.423 310.958 926.132 314.938 927.838 319.153C924.593 321.926 920.467 323.455 916.198 323.468C903.015 325.673 890.424 330.556 879.203 337.817C878.366 338.318 877.831 339.355 876.259 341.161C878.346 340.949 880.415 340.58 882.447 340.058C894.489 335.676 906.263 330.525 918.539 326.98C925.229 325.073 931.518 321.294 939.111 322.899C942.957 323.702 946.101 320.926 948.175 317.447C949.217 315.281 950.858 313.459 952.903 312.196C954.948 310.934 957.312 310.283 959.715 310.323C963.398 309.716 966.897 308.287 969.951 306.142C971.161 305.289 972.63 304.882 974.106 304.992C975.583 305.102 976.975 305.721 978.046 306.744C980.989 309.419 978.748 312.162 977.577 314.704C976.977 315.927 976.199 317.054 975.269 318.049C973.648 319.667 972.563 321.745 972.162 324.001C971.762 326.257 972.064 328.581 973.028 330.659C975.738 337.047 974.166 343.001 971.657 349.523C966.673 346.914 967.007 342.399 966.171 338.452C964.37 343.995 963.878 349.88 964.733 355.644C966.606 362.334 961.388 366.916 960.752 372.77L959.046 373.004C958.478 370.964 957.842 368.957 957.374 366.883C955.635 359.391 954.196 351.798 952.122 344.372C951.688 341.95 950.336 339.789 948.349 338.338C946.362 336.886 943.892 336.257 941.452 336.579C941.556 339.225 941.96 341.851 942.656 344.406C945.752 352.663 947.338 361.409 947.339 370.228C947.941 386.517 948.409 402.806 948.409 419.061C948.129 424.358 947.265 429.608 945.834 434.715C944.931 438.628 942.154 438.628 939.144 436.99L939.445 437.357Z" fill="white"/>
<path d="M714.631 283.263C713.322 284.452 711.949 285.569 710.517 286.608C708.054 288.519 705.313 290.042 702.389 291.123C689.832 294.237 678.863 301.87 671.582 312.563C668.638 316.677 665.996 321.025 663.253 325.307C657.065 335.04 653.987 345.041 659.54 356.313C660.309 357.851 659.172 360.828 658.102 362.668C654.556 368.622 650.575 374.308 646.829 380.128C636.717 395.343 630.714 412.914 629.402 431.136C628.265 447.358 625.689 463.48 624.585 479.702C623.281 499.135 621.976 518.635 622.311 538.068C622.494 557.905 626.586 577.511 634.352 595.766C636.115 599.949 637.612 604.239 638.835 608.61C639.507 610.909 639.734 613.316 639.504 615.701C639.48 616.577 639.207 617.429 638.717 618.156C638.227 618.883 637.54 619.456 636.737 619.807C635.933 620.158 635.046 620.273 634.179 620.138C633.313 620.003 632.503 619.624 631.844 619.045C630.091 617.817 628.525 616.341 627.194 614.664C617.449 603.519 611.151 589.785 609.065 575.128C607.359 561.749 605.017 548.17 604.382 534.623C603.394 518.878 603.562 503.082 604.883 487.361C606.824 467.962 609.265 448.629 609.767 429.095C609.919 426.182 610.459 423.303 611.373 420.533C614.985 408.491 618.063 396.249 622.578 384.61C628.9 368.521 634.286 351.965 644.822 337.783C653.72 325.775 661.547 313.065 670.11 300.789C677.568 289.666 686.748 279.798 697.304 271.556C705.985 264.811 716.45 260.753 727.409 259.883C730.405 260.039 733.376 260.509 736.273 261.288C728.078 269.482 718.645 274.165 714.196 283.597L714.631 283.263Z" fill="white"/>
<path d="M657.332 599.277C650.107 600.314 645.692 597.772 643.952 591.852C641.31 583.467 639.319 574.89 637.998 566.198C636.627 554.825 636.527 543.286 636.025 531.813C635.389 516.36 633.683 500.773 634.653 485.388C636.125 461.706 638.835 438.059 642.28 414.579C644.922 396.45 653.285 380.127 662.35 364.407C664.691 360.192 667.434 357.349 673.087 358.319C675.556 358.74 677.898 359.71 679.942 361.157C681.985 362.605 683.678 364.492 684.895 366.681C685.497 367.651 684.426 370.394 683.322 371.498C679.299 375.807 676.514 381.123 675.261 386.884C673.51 393.354 671.274 399.682 668.571 405.815C660.541 424.514 656.246 444.603 655.927 464.951C655.225 481.474 654.589 498.031 654.823 514.554C655.225 539.607 656.429 564.726 657.232 589.711C657.432 592.989 657.332 596.133 657.332 599.277Z" fill="white"/>
<path d="M849.733 521.144C851.138 529.606 855.988 529.271 861.708 527.231C863.381 534.623 858.597 539.373 855.52 543.955C851.611 548.845 847.218 553.327 842.408 557.334L850.938 561.415C851.272 563.656 851.64 565.763 851.874 567.837C852.811 577.202 851.874 577.871 843.712 582.554C838.713 585.57 834.414 589.618 831.102 594.428C825.665 602.646 820.76 611.204 816.418 620.049C811.539 628.991 809.224 639.108 809.728 649.282C809.677 653.005 810.674 656.668 812.604 659.852C814.143 662.059 815.247 664.467 812.604 667.009C808.858 670.822 804.51 672.562 801.332 670.889C799.196 669.583 797.13 668.165 795.144 666.641C793.471 667.511 791.799 668.381 790.193 669.15C784.841 671.592 782.5 670.588 780.727 664.902C779.875 662.696 779.532 660.326 779.723 657.969C779.914 655.612 780.635 653.329 781.831 651.289C795.043 627.876 801.901 602.02 810.698 576.968C814.367 567.239 816.62 557.034 817.388 546.664C817.318 541.939 818.886 537.336 821.825 533.635C824.764 529.935 828.892 527.365 833.51 526.361C838.762 525.191 843.512 523.251 849.733 521.144Z" fill="white"/>
<path d="M590.634 623.26C591.671 627.307 592.942 631.89 593.979 636.639C594.648 639.482 595.216 642.392 595.718 645.269C597.491 655.671 601.405 664.468 611.272 670.02C615.495 672.829 619.369 676.13 622.812 679.854C624.665 681.791 626.947 683.267 629.474 684.161C632.002 685.056 634.704 685.345 637.363 685.005C641.206 684.782 645.059 684.782 648.903 685.005C648.033 687.078 647.933 688.35 647.264 688.851C639.201 694.924 629.89 699.128 620.003 701.16C618.165 701.557 616.252 701.429 614.483 700.792C603.892 697.069 592.685 695.411 581.469 695.909C572.772 695.909 570.263 694.337 570.932 685.874C572.069 671.191 565.915 658.882 560.596 646.138C560.061 644.901 559.426 643.73 558.924 642.493C556.081 635.335 556.382 634.265 562.536 629.916C563.493 629.443 564.391 628.859 565.212 628.177C571.835 620.35 580.097 619.815 590.634 623.26Z" fill="white"/>
<path d="M743.799 567.368C735.504 570.914 734.634 570.446 730.419 563.823C726.193 557.306 723.579 549.876 722.793 542.149C720.819 520.341 719.08 498.667 717.742 476.691C717.404 463.009 719.674 449.387 724.432 436.554C727.409 427.423 731.122 418.492 734.467 409.495C735.203 407.588 736.306 405.782 737.812 402.805C742.227 407.287 746.274 411 749.753 415.181C750.258 416.04 750.585 416.992 750.718 417.98C750.85 418.968 750.783 419.972 750.522 420.934C745.237 441.003 740.287 461.339 739.551 482.277C739.183 493.148 739.551 504.085 740.287 514.956C741.157 530.409 742.528 545.828 743.632 561.247C743.933 563.054 743.799 564.893 743.799 567.368Z" fill="white"/>
<path d="M1027.92 257.809C1028.84 259.373 1029.86 260.88 1030.96 262.324C1037.65 270.118 1038.09 273.897 1031.46 281.156C1028.65 284.318 1026.64 288.117 1025.61 292.227C1023 301.759 1021.03 311.459 1018.08 320.892C1013.94 334.271 1009.19 347.65 1004.7 361.029C1004.24 362.4 1002.8 363.404 1000.36 364.374C1000.09 362.219 1000.09 360.04 1000.36 357.885C1002.63 346.914 1005.21 336.01 1007.51 325.039C1010.02 312.998 1012.33 300.923 1014.67 288.882C1014.78 287.479 1014.78 286.07 1014.67 284.668C1009.19 291.056 977.41 367.685 973.998 382.168L983.397 379.492C984.596 382.914 985.47 386.442 986.006 390.028C986.742 401.2 986.909 412.405 987.478 423.476C987.764 425.372 987.405 427.309 986.459 428.977C985.513 430.645 984.034 431.947 982.26 432.674C980.83 431.093 979.74 429.235 979.055 427.216C978.371 425.197 978.107 423.059 978.28 420.934C977.811 412.405 977.477 403.876 976.741 395.346C976.111 391.466 975.217 387.633 974.065 383.874C968.713 387.587 969.449 396.316 961.053 395.514C960.647 393.761 960.512 391.956 960.652 390.162C962.45 382.11 964.751 374.178 967.542 366.414C974.232 350.058 981.424 334.037 988.381 317.881C992.496 308.315 996.409 298.682 1000.62 289.183C1002.5 285.036 1003.47 281.256 1000.62 277.175C998.082 273.63 999.587 271.289 1002.56 268.345C1009.92 261.187 1019.12 259.481 1028.52 257.976L1027.92 257.809Z" fill="white"/>
<path d="M1111.04 687.948C1116.83 694.036 1117.46 697.581 1112.28 703.334C1107.73 708.385 1107.76 714.071 1108.5 719.79C1109.28 723.405 1108.74 727.178 1106.98 730.43C1105.22 733.681 1102.35 736.195 1098.9 737.518C1094.73 739.716 1090.73 742.209 1086.92 744.976C1081.87 748.321 1076.89 752.134 1071.87 755.446C1070.29 756.108 1068.6 756.471 1066.89 756.516C1064.45 753.171 1066.89 751.599 1068.33 749.826C1074.21 742.602 1080.33 735.611 1086.22 728.386C1087.84 726.794 1089.11 724.885 1089.96 722.779C1090.8 720.672 1091.21 718.414 1091.14 716.144C1091.57 713.058 1092.99 710.195 1095.19 707.983C1099.33 702.799 1097.86 697.949 1095.45 692.33C1090.57 698.016 1086.09 703.067 1081.87 708.318C1079.04 712.56 1074.85 715.719 1070 717.282C1067.23 718.239 1064.61 719.567 1062.2 721.229C1061.63 721.665 1060.97 721.966 1060.27 722.11C1059.57 722.253 1058.84 722.236 1058.15 722.059C1057.45 721.882 1056.8 721.55 1056.26 721.088C1055.71 720.625 1055.27 720.044 1054.98 719.389C1056.38 717.516 1057.69 715.609 1059.16 713.803C1063.21 708.853 1067.32 703.769 1071.4 699.019C1074.15 695.674 1076.49 692.731 1075.48 687.58C1074.95 684.737 1077.93 681.325 1078.83 678.048C1080.55 673.05 1081.84 667.913 1082.68 662.695C1082.95 659.512 1082.26 656.32 1080.7 653.53C1078.29 648.821 1077.31 643.505 1077.89 638.245C1089 634.298 1092.91 635.703 1098.5 645.202C1102.58 652.092 1106.69 658.949 1111.07 665.672C1115.89 673.131 1115.15 680.288 1111.04 687.948ZM1096.32 679.419L1094.15 680.456L1098.26 688.015C1100.74 682.897 1098 681.359 1096.32 679.419Z" fill="white"/>
<path d="M747.813 334.471C741.625 329.621 738.18 325.842 738.347 319.353C738.012 315.178 737.227 311.051 736.005 307.044C748.616 288.915 763.534 272.325 783.972 261.89C796.449 255.534 807.386 256.538 816.685 268.579C817.961 270.838 818.897 273.272 819.462 275.804C807.721 283.43 797.586 290.922 791.799 302.997C790.238 306.079 788.269 308.937 785.945 311.493C784.789 312.906 783.139 313.827 781.329 314.068C768.685 314.068 760.223 322.229 751.225 329.32C749.876 330.888 748.73 332.618 747.813 334.471Z" fill="white"/>
<path d="M1033.3 600.817C1031.6 600.549 1029.29 600.816 1028.69 599.913C1025.94 596.33 1023.69 592.392 1022 588.207C1021.55 585.358 1021.9 582.442 1023 579.778C1026.35 568.473 1029.99 557.334 1033.04 545.995C1036.18 533.787 1034.04 521.512 1032.4 509.203C1031.96 507.082 1031.05 505.084 1029.75 503.35C1028.45 501.616 1026.79 500.189 1024.88 499.169C1018.72 494.988 1017.65 490.84 1020.59 484.217C1021.96 481.185 1024.32 478.706 1027.28 477.187C1030.23 475.667 1033.62 475.198 1036.88 475.856L1041.5 477.227C1049.96 479.735 1055.41 484.318 1055.18 494.218C1055.03 497.268 1055.49 500.317 1056.53 503.188C1057.57 506.059 1059.17 508.695 1061.23 510.942C1062.44 512.387 1063.48 513.97 1064.31 515.658C1065.44 517.125 1066 518.954 1065.88 520.802C1065.75 522.65 1064.96 524.39 1063.64 525.693C1060.4 529.196 1057.37 532.881 1054.54 536.731C1051.42 540.38 1049.31 544.786 1048.42 549.507C1047.02 558.773 1045.08 567.703 1048.42 577.135C1050.87 583.825 1049.16 585.498 1042.17 586.267C1037.22 586.835 1035.48 588.207 1034.68 592.956C1034.41 594.261 1034.47 595.632 1034.24 596.937C1034.03 598.252 1033.71 599.549 1033.3 600.817Z" fill="white"/>
<path d="M876.56 266.339C867.462 273.697 857.795 276.54 846.723 271.657C848.564 264.103 853.14 257.501 859.568 253.127C858.698 243.092 857.929 234.262 857.093 225.365C856.6 218.141 858.479 210.954 862.444 204.895C866.927 197.369 872.479 196.968 878.333 203.657C879.37 204.828 880.306 206.133 881.377 207.47C883.449 206.933 885.565 206.575 887.699 206.4C889.725 206.356 891.718 206.927 893.413 208.038C895.109 209.148 896.429 210.746 897.198 212.621C900.543 220.181 899.607 228.308 899.573 236.236C899.2 238.07 898.179 239.708 896.697 240.851C891.311 245.869 891.98 251.789 893.954 257.843C895.125 261.355 896.797 264.532 898.135 267.877C890.542 278.547 885.591 278.346 876.56 266.339Z" fill="white"/>
<path d="M532.934 463.681C532.198 459.956 531.673 456.193 531.361 452.409C530.967 437.945 532.956 423.514 537.249 409.696C542.667 392.136 547.283 374.141 554.642 357.35C564.677 333.937 576.752 311.66 596.956 294.903C603.913 289.15 609.332 281.524 617.862 277.744C619.869 276.841 621.842 274.868 624.919 277.309L612.209 292.595C600.046 306.768 589.344 322.132 580.264 338.452C573.933 349.864 568.346 361.673 563.54 373.806C557.519 389.928 550.561 405.849 549.357 423.543C548.351 433.367 546.63 443.104 544.206 452.676C543.879 455.527 542.58 458.178 540.526 460.183C538.473 462.187 535.791 463.422 532.934 463.681Z" fill="white"/>
<path d="M889.137 281.992C888.314 282.522 887.453 282.992 886.562 283.397C872.948 288.247 864.585 298.816 856.457 310.155C849.255 319.762 843.486 330.364 839.331 341.629C837.316 347.852 833.881 353.52 829.296 358.186C820.591 366.539 814.285 377.073 811.033 388.69C809.895 393.473 807.688 394.644 803.64 392.202C800.435 390.292 797.648 387.755 795.445 384.743C795.026 383.67 794.834 382.522 794.88 381.371C794.926 380.22 795.21 379.09 795.713 378.054C800.262 367.217 804.51 356.212 810.029 345.877C817.02 332.699 825.014 319.989 832.808 307.245C838.792 297.328 847.661 289.474 858.23 284.734C861.876 283.096 865.288 280.955 868.934 279.282C872.129 277.444 875.842 276.714 879.496 277.204C883.15 277.694 886.539 279.377 889.137 281.992Z" fill="white"/>
<path d="M856.156 280.721L850.536 284.568C846.232 287.139 842.139 290.046 838.294 293.264C828.57 302.465 820.631 313.386 814.879 325.474C811.835 331.996 808.189 338.151 804.844 344.673C804.23 346.131 803.241 347.399 801.978 348.351C800.715 349.303 799.223 349.903 797.653 350.092C794.762 350.874 791.933 351.869 789.19 353.069L789.424 354.641L795.445 356.045C797.92 362.501 792.1 366.414 790.829 372.769C786.012 367.719 787.317 362.066 785.812 357.015C784.564 356.695 783.247 356.775 782.047 357.243C780.847 357.711 779.824 358.544 779.122 359.624C775.777 363.437 772.9 362.969 769.522 360.026C767.347 358.153 765.039 356.413 762.564 354.44C768.143 343.06 774.868 332.279 782.634 322.263C793.164 308.439 805.807 296.361 820.097 286.474C825.163 282.843 830.902 280.26 836.979 278.876C843.056 277.491 849.348 277.334 855.487 278.413L856.156 280.721Z" fill="white"/>
<path d="M931.751 204.493C927.68 218.239 924.991 232.357 923.724 246.637C922.787 254.196 925.162 256.672 932.621 258.411C935.463 259.125 938.413 259.296 941.318 258.913C943.321 258.539 945.391 258.838 947.206 259.764C949.022 260.689 950.48 262.189 951.353 264.03C955.417 269.752 957.281 276.746 956.605 283.731C955.858 289.554 954.673 295.312 953.059 300.957C952.258 302.908 951.062 304.673 949.547 306.141C947.172 308.984 944.663 311.76 942.154 314.503C941.047 315.975 939.66 317.213 938.073 318.149C933.558 320.189 929.845 317.547 930.782 312.329C931.946 306.033 933.738 299.87 936.133 293.933C941.151 281.189 941.418 281.122 928.373 278.112C923.663 277.157 918.889 276.553 914.09 276.306C912.521 276.254 910.992 275.799 909.651 274.985C908.309 274.171 907.2 273.024 906.43 271.656C896.395 256.605 895.559 248.811 909.775 233.459C911.576 231.238 912.733 228.565 913.12 225.732C914.057 220.481 914.224 215.096 914.993 209.811C916.03 202.754 918.338 201.315 925.363 202.653C927.523 203.156 929.655 203.77 931.751 204.493Z" fill="white"/>
<path d="M528.853 851.307C533.034 855.588 534.406 860.773 536.68 865.422C537.583 867.262 538.52 870.004 540.025 870.406C548.454 872.814 551.732 880.039 556.047 886.36C557.189 888.472 558.581 890.437 560.195 892.214C562.144 894.242 564.625 895.679 567.353 896.361C569.085 896.323 570.78 896.865 572.169 897.901C573.557 898.938 574.558 900.409 575.013 902.081C576.786 907.834 580.733 909.172 586.252 908.235C588.875 907.667 591.59 907.667 594.213 908.235C596.822 908.938 600.334 910.242 601.304 912.316C602.085 913.857 603.199 915.205 604.564 916.263C605.929 917.322 607.512 918.064 609.199 918.437C611.879 919.256 614.365 920.612 616.505 922.424C618.644 924.235 620.392 926.464 621.642 928.973C624.318 933.823 627.328 938.439 630.205 943.255C626.224 946.299 624.05 943.255 621.742 942.084C617.026 939.743 612.744 935.963 607.794 934.726C599.279 932.84 590.637 931.588 581.937 930.98C578.17 930.971 574.561 929.467 571.902 926.799C567.186 921.815 562.771 916.764 555.679 914.39C550.093 912.55 548.153 906.329 545.344 901.546C543.373 897.557 540.09 894.368 536.045 892.515C531.061 890.24 527.381 884.922 523.401 880.641C522.565 879.294 522.277 877.678 522.598 876.125C523.802 868.767 525.207 861.475 526.679 854.184C526.98 853.28 527.916 852.545 528.853 851.307Z" fill="white"/>
<path d="M794.074 561.248C787.384 561.749 784.373 558.271 781.798 553.99C777.384 546.347 774.552 537.896 773.469 529.138C770.659 509.37 767.214 489.603 769.087 469.534C769.856 461.573 771.395 453.713 772.733 445.819C773.114 443.992 773.768 442.233 774.673 440.601C776.111 437.625 778.419 436.755 781.162 438.829C785.023 441.66 788.719 444.709 792.234 447.96C792.771 448.672 793.148 449.493 793.339 450.364C793.529 451.236 793.529 452.139 793.338 453.011C789.993 465.988 792.702 479.066 792.167 492.111C791.899 498.801 793.037 505.958 792.167 512.782C790.833 525.235 791.159 537.81 793.137 550.176C793.839 553.722 793.806 557.334 794.074 561.248Z" fill="white"/>
<path d="M749.252 243.928C736.24 254.264 720.284 255.167 705.767 259.983C703.882 260.257 701.966 260.257 700.081 259.983C701.619 248.109 712.524 247.641 719.582 242.189C721.041 234.175 720.859 225.948 719.047 218.006C717.566 210.144 715.599 202.38 713.16 194.76C710.918 187.168 711.788 183.455 717.575 179.642C720.238 177.561 723.551 176.487 726.929 176.61C730.307 176.732 733.533 178.043 736.039 180.311C737.906 182.198 739.434 184.393 740.555 186.8C741.901 189.414 742.826 192.225 743.298 195.128C745.405 211.283 747.278 227.405 749.252 243.928Z" fill="white"/>
<path d="M947.172 199.61C949.981 203.323 948.71 206.634 948.041 210.012C946.901 214.658 946.152 219.39 945.8 224.161C945.564 227.143 946.469 230.103 948.332 232.444C950.194 234.784 952.876 236.331 955.835 236.77C961.496 238.268 967.251 239.386 973.061 240.115C974.248 240.119 975.403 240.495 976.364 241.191C977.324 241.888 978.041 242.869 978.413 243.995C982.628 255.501 985.371 267.074 980.019 278.982C977.176 285.303 974.399 291.658 971.188 297.813C968.546 302.83 964.498 305.339 961.923 303.9C957.875 301.592 959.013 297.445 959.213 293.866C959.615 286.942 960.451 280.085 960.585 273.162C960.427 266.953 958.135 260.988 954.096 256.27C950.751 251.922 949.48 251.454 944.73 254.23C941.238 256.235 937.153 256.945 933.19 256.237C932.442 256.261 931.699 256.107 931.022 255.79C930.345 255.472 929.752 254.999 929.293 254.409C928.833 253.819 928.519 253.128 928.377 252.394C928.235 251.66 928.268 250.902 928.473 250.183C928.841 247.842 929.477 245.5 929.979 243.159C932.119 233.125 934.394 222.823 936.301 212.588C936.527 209.559 937.698 206.678 939.648 204.35C941.598 202.022 944.23 200.364 947.172 199.61Z" fill="white"/>
<path d="M731.255 1154.24C728.311 1153.64 725.432 1152.76 722.659 1151.6C718.728 1149.36 714.951 1146.85 711.353 1144.11C706.975 1140.53 701.486 1138.59 695.833 1138.62C690.782 1138.62 686.534 1140.03 684.527 1145.61C683.597 1148.44 681.755 1150.87 679.29 1152.53C676.825 1154.19 673.878 1154.98 670.913 1154.78C670.391 1154.71 669.862 1154.71 669.341 1154.78C657.098 1157.89 649.003 1151.43 641.946 1142.77C637.564 1137.49 638.132 1134.24 643.551 1130.06C646.294 1127.92 649.237 1126.08 652.014 1124.01C653.53 1122.67 655.381 1121.78 657.367 1121.42C659.353 1121.06 661.399 1121.25 663.286 1121.97C667.843 1123.48 672.751 1123.59 677.368 1122.27C681.282 1121.5 685.363 1121.4 689.243 1120.49C694.052 1119.26 699.104 1119.34 703.871 1120.73C708.637 1122.12 712.943 1124.77 716.337 1128.39C721.689 1133.61 727.308 1138.66 729.717 1145.95C730.432 1148.67 730.946 1151.44 731.255 1154.24Z" fill="white"/>
<path d="M962.124 191.683C964.666 195.596 966.74 198.673 968.813 201.717C970.993 205.905 974.487 209.263 978.759 211.275C983.031 213.287 987.845 213.842 992.462 212.855C994.173 212.455 995.97 212.672 997.537 213.468C999.103 214.263 1000.34 215.586 1001.03 217.203C1010.73 235.6 1012.13 250.651 998.249 266.84C997.228 268.561 995.625 269.861 993.73 270.505C991.835 271.149 989.772 271.095 987.913 270.352C988.61 263.607 988.922 256.829 988.85 250.049C988.06 243.294 986.865 236.592 985.271 229.98C983.382 230.444 981.545 231.093 979.785 231.92C972.225 236.77 964.264 234.897 956.37 233.191C954.166 232.587 952.219 231.281 950.824 229.47C949.43 227.659 948.664 225.442 948.643 223.157C949.842 212.784 953.339 202.809 958.879 193.957C959.347 192.954 960.886 192.485 962.124 191.683Z" fill="white"/>
<path d="M997.513 150.475C995.547 152.488 993.359 154.273 990.991 155.793C986.776 157.834 986.743 160.777 988.014 164.389C988.281 165.159 988.683 165.861 989.017 166.597C994.168 178.638 994.837 179.14 1008.22 177.768C1013.48 177.19 1018.7 176.24 1023.84 174.925C1027.18 174.089 1029.22 174.925 1030.26 177.802C1031.3 180.678 1033.34 184.726 1029.72 186.431C1028.86 186.74 1028.06 187.22 1027.39 187.84C1026.71 188.461 1026.16 189.211 1025.78 190.047C1025.4 190.882 1025.18 191.785 1025.15 192.704C1025.13 193.623 1025.28 194.538 1025.61 195.396C1026.05 196.662 1026.05 198.042 1025.61 199.309C1023.21 202.757 1020.44 205.931 1017.35 208.775C1011.5 213.692 1010.12 213.926 1004.34 213.625C1004 210.079 1003.63 206.467 1003.13 201.583L994.001 205.497C984.501 209.611 981.156 208.674 975.069 200.245C973.664 198.305 971.991 196.533 970.62 194.559C966.071 187.87 966.773 184.525 973.597 180.11C975.751 179.01 977.987 178.082 980.287 177.334C979.551 174.19 978.815 170.945 978.012 167.701C975.871 158.67 977.143 155.726 985.538 151.98C989.051 150.408 992.797 149.338 996.443 148.067C996.644 148.87 997.078 149.672 997.513 150.475Z" fill="white"/>
<path d="M744.267 257.642C747.044 248.276 756.443 246.303 761.561 240.148C760.156 232.556 758.216 225.03 757.513 217.404C756.789 210.246 756.699 203.037 757.246 195.864C757.654 192.261 759.346 188.927 762.012 186.47C764.678 184.013 768.139 182.598 771.763 182.484C779.557 182.652 784.741 187.769 785.143 196.499C785.879 209.042 786.113 221.618 786.782 234.161C787.012 235.879 786.736 237.626 785.987 239.189C785.239 240.751 784.05 242.061 782.567 242.958C780.668 243.956 778.976 245.307 777.583 246.938C772.699 254.397 764.203 255.568 756.945 258.277C753.499 259.648 748.883 257.943 744.267 257.642Z" fill="white"/>
<path d="M612.309 1197.56C616.872 1192.65 622.951 1189.43 629.569 1188.39C631.043 1188.46 632.488 1188.82 633.817 1189.46C633.209 1190.98 632.399 1192.41 631.409 1193.71C629.623 1195.2 627.721 1196.54 625.723 1197.73C627.763 1197.99 628.833 1198.46 629.235 1198.16C635.757 1192.81 643.384 1195.42 650.509 1195.42C659.674 1195.42 666.364 1201.47 672.518 1207.29C684.359 1218.43 686.333 1232.88 685.63 1248C681.382 1249.5 680.948 1246.76 679.81 1244.65C677.253 1239.73 674.451 1234.94 671.414 1230.3C670.327 1228.74 668.762 1227.57 666.953 1226.96C665.145 1226.36 663.189 1226.36 661.38 1226.96C658.273 1227.8 655.018 1227.93 651.853 1227.36C648.687 1226.78 645.691 1225.5 643.083 1223.61C642.256 1222.93 641.264 1222.48 640.206 1222.31C631.643 1222.08 627.897 1216.09 625.12 1209.57C612.443 1209.57 614.584 1211.41 612.142 1197.73L612.309 1197.56Z" fill="white"/>
<path d="M812.471 259.983L822.506 248.51C820.687 240.99 820.423 233.178 821.728 225.552C823.034 217.925 825.882 210.646 830.099 204.159C834.113 197.804 839.933 198.172 844.014 204.56C847.517 210.599 849.385 217.447 849.433 224.428C849.867 232.957 850.302 241.52 850.202 250.049C850.202 257.842 844.281 262.224 839.03 266.773C838.166 267.702 837.127 268.452 835.973 268.979C834.819 269.506 833.572 269.799 832.303 269.843C831.035 269.886 829.771 269.679 828.583 269.232C827.396 268.786 826.308 268.109 825.382 267.241C821.271 264.495 816.954 262.069 812.471 259.983Z" fill="white"/>
<path d="M512.931 1204.75C511.369 1204.45 509.827 1204.04 508.315 1203.55C507.741 1203.39 507.206 1203.11 506.741 1202.74C506.277 1202.37 505.892 1201.9 505.611 1201.38C505.33 1200.85 505.157 1200.28 505.105 1199.68C505.052 1199.09 505.12 1198.49 505.304 1197.93C506.375 1190.33 507.311 1182.67 507.679 1175.01C507.615 1171.32 507.052 1167.65 506.007 1164.11C505.531 1162.02 504.742 1160.01 503.665 1158.16C498.079 1148.66 503.197 1141.43 508.649 1134.28C509.635 1133.25 510.828 1132.44 512.148 1131.91C513.469 1131.38 514.887 1131.14 516.309 1131.2C520.776 1131.75 525.165 1132.82 529.388 1134.38C533.235 1135.58 533.971 1138.46 532.733 1142.04C531.987 1144.03 531.115 1145.97 530.124 1147.86C527.858 1152.36 527.029 1157.45 527.749 1162.44C528.407 1172.72 528.261 1183.05 527.314 1193.31C526.344 1203.04 523.902 1204.68 512.931 1204.75Z" fill="white"/>
<path d="M776.646 256.304C777.742 253.614 779.366 251.171 781.423 249.12C783.48 247.069 785.928 245.451 788.621 244.363C790.112 243.813 791.357 242.75 792.136 241.365C792.914 239.98 793.174 238.363 792.869 236.804C792.635 229.68 793.07 222.488 792.869 215.331C792.869 207.47 797.653 202.553 802.904 197.904C803.507 197.353 804.228 196.947 805.012 196.716C805.796 196.485 806.622 196.435 807.427 196.571C808.233 196.706 808.997 197.023 809.663 197.497C810.328 197.972 810.876 198.591 811.266 199.309C813.5 202.256 814.992 205.698 815.615 209.343C816.652 220.448 817.321 231.653 817.354 242.791C817.354 251.22 813.474 253.762 805.212 253.428C800.469 253.319 795.736 253.905 791.163 255.167C782.767 257.341 782.834 257.609 776.646 256.304Z" fill="white"/>
<path d="M523.969 1234.25L516.109 1237.13C518.507 1238.97 520.451 1241.34 521.79 1244.06C523.13 1246.77 523.83 1249.75 523.836 1252.78C524.79 1265.84 523.546 1278.97 520.156 1291.61C519.475 1293.33 518.635 1294.97 517.647 1296.53C516.325 1295.05 515.201 1293.41 514.303 1291.65C510.79 1279.91 506.944 1268.23 504.268 1256.36C503.386 1252.76 503.603 1248.99 504.891 1245.52C506.179 1242.05 508.479 1239.04 511.493 1236.89C510.131 1236.67 508.757 1236.54 507.378 1236.49C506.773 1236.6 506.151 1236.56 505.566 1236.37C504.981 1236.17 504.452 1235.84 504.026 1235.4C503.6 1234.96 503.289 1234.42 503.121 1233.83C502.953 1233.23 502.933 1232.61 503.063 1232.01C503.707 1226.22 504.825 1220.49 506.408 1214.88C507.512 1211.24 511.593 1210.44 516.711 1211.1C520.725 1211.61 521.929 1213.95 522.23 1217.59C522.531 1222.95 523.3 1228.5 523.969 1234.25Z" fill="white"/>
<path d="M612.309 1197.56V1197.73C611.306 1200.64 610.302 1203.58 609.299 1206.42C598.428 1204.65 592.574 1198.39 592.775 1188.33C593.113 1185.15 592.564 1181.94 591.188 1179.06C589.812 1176.18 587.663 1173.74 584.981 1172C580.833 1169.16 580.967 1167.66 583.71 1163.34C583.851 1163.11 584.019 1162.9 584.212 1162.71C586.955 1159.96 589.597 1155.15 592.507 1154.98C595.304 1154.93 598.076 1155.5 600.622 1156.66C603.168 1157.82 605.424 1159.53 607.225 1161.67C611.136 1165.58 615.292 1169.23 619.668 1172.61C622.444 1175.01 625.288 1177.36 629.101 1180.57C626.886 1182.37 624.417 1183.83 621.776 1184.92C620.504 1184.98 619.26 1185.31 618.121 1185.88C616.982 1186.45 615.972 1187.25 615.154 1188.22C614.335 1189.2 613.726 1190.33 613.363 1191.55C613 1192.77 612.892 1194.05 613.045 1195.32C612.907 1196.1 612.659 1196.85 612.309 1197.56Z" fill="white"/>
<path d="M572.036 1165.42C570.464 1160.8 569.126 1157.35 568.122 1153.84C567.545 1150.95 566.251 1148.24 564.358 1145.97C562.464 1143.71 560.032 1141.95 557.285 1140.87C555.559 1140.13 553.982 1139.09 552.635 1137.79C547.718 1133.24 547.685 1128.39 553.07 1124.41C558.455 1120.43 564.175 1117.22 569.795 1113.64C575.314 1117.35 579.194 1121.3 579.161 1128.49C579.161 1133.94 584.212 1136.15 588.493 1138.52C591.515 1140.1 594.382 1141.96 597.056 1144.08C597.657 1144.51 598.147 1145.09 598.484 1145.75C598.821 1146.41 598.997 1147.15 598.997 1147.89C598.997 1148.63 598.821 1149.37 598.484 1150.03C598.147 1150.69 597.657 1151.26 597.056 1151.7C585.249 1147.62 581.602 1160.57 572.036 1165.42Z" fill="white"/>
<path d="M807.788 675.606C815.968 687.583 826.369 697.882 838.428 705.943C843.244 709.288 846.522 714.974 850.001 719.924C850.374 720.836 850.526 721.824 850.445 722.807C850.363 723.789 850.051 724.738 849.533 725.577C847.191 729.122 839.866 730.025 835.919 728.186C833.555 727.27 831.427 725.836 829.69 723.99C827.954 722.143 826.653 719.931 825.884 717.516C823.108 707.716 815.414 702.498 807.922 696.945C803.44 693.6 799.191 689.988 794.81 686.543C793.648 685.864 792.761 684.8 792.302 683.535C791.844 682.27 791.843 680.885 792.301 679.619C792.75 678.208 793.706 677.013 794.985 676.265C796.264 675.518 797.775 675.271 799.225 675.572C801.968 675.773 804.543 675.606 807.788 675.606Z" fill="white"/>
<path d="M1036.35 174.825C1029.66 165.326 1021.1 169.172 1012.63 171.781C1010.68 172.613 1008.68 173.328 1006.64 173.922C998.952 175.293 995.071 172.216 993.968 164.423C993.653 163.157 993.753 161.824 994.253 160.62C994.752 159.416 995.626 158.404 996.744 157.733C998.584 156.629 1000.09 155.224 1002.06 154.154C1011.53 148.635 1010.76 147.063 1019.96 154.923C1022.37 156.553 1025.02 157.795 1027.82 158.603C1029.68 159.424 1031.78 159.519 1033.7 158.869C1035.63 158.218 1037.24 156.871 1038.22 155.091C1039.19 153.82 1039.86 152.315 1040.86 151.11C1041.69 150.035 1042.85 149.277 1044.17 148.966C1045.49 148.655 1046.87 148.81 1048.09 149.405C1049.39 149.801 1050.49 150.689 1051.15 151.881C1051.82 153.073 1051.99 154.476 1051.63 155.793C1050.1 164.189 1047.82 172.35 1036.35 174.825Z" fill="white"/>
<path d="M1037.12 599.077C1037.02 597.327 1037.48 595.593 1038.44 594.125C1039.4 592.657 1040.8 591.532 1042.44 590.916C1046.12 589.477 1049.63 589.009 1052.64 592.387C1061.77 602.422 1070.93 612.456 1080.07 622.49C1080.41 622.892 1080.72 623.316 1081 623.761C1082.94 626.471 1084.75 629.314 1081.87 632.357C1080.19 633.6 1078.13 634.247 1076.04 634.199C1073.95 634.15 1071.93 633.409 1070.3 632.09C1068.19 630.016 1066.39 627.675 1064.18 625.802C1056.69 619.48 1049.03 613.292 1041.5 607.037C1038.99 604.997 1036.62 602.79 1037.12 599.077Z" fill="white"/>
<path d="M647.197 1123.87C644.722 1125.28 642.146 1126.58 639.738 1128.12C634.152 1131.73 633.951 1132.3 635.322 1138.52C637.43 1148.02 635.724 1149.69 626.425 1147.05C621.006 1145.55 615.955 1143.71 612.744 1138.26C611.534 1136.66 610.826 1134.75 610.713 1132.75C610.6 1130.75 611.086 1128.77 612.108 1127.05C613.714 1124.31 615.453 1121.6 617.26 1118.99C618.009 1117.9 618.977 1116.98 620.103 1116.28C628.03 1111.4 641.979 1115.24 647.197 1123.87Z" fill="white"/>
<path d="M714.364 283.531C716.39 282.406 718.315 281.108 720.117 279.651C726.353 273.904 733.51 269.245 741.29 265.87C744.8 264.092 748.653 263.094 752.585 262.944C756.516 262.794 760.434 263.495 764.069 265.001L733.028 297.043C731.368 294.762 729.203 292.896 726.702 291.591C724.201 290.285 721.432 289.576 718.612 289.518C714.23 289.518 714.731 286.173 714.665 283.263L714.364 283.531Z" fill="white"/>
<path d="M912.117 808.694C909.073 812.875 904.992 811.537 901.747 810.634C888.769 807.122 878.801 799.931 874.018 786.652C872.68 782.973 870.037 779.762 868.532 776.116C865.588 769.025 865.956 768.457 873.382 764.376C875.73 765.534 877.969 766.899 880.072 768.457C881.945 770.062 884.554 772.203 884.688 774.276C885.491 787.02 892.85 794.345 903.554 799.797C905.501 800.637 907.261 801.856 908.731 803.384C910.201 804.911 911.352 806.717 912.117 808.694Z" fill="white"/>
<path d="M896.563 738.588C902.249 740.361 906.832 741.398 911.08 743.237C914.566 744.589 917.732 746.65 920.379 749.291C924.493 753.94 930.079 755.68 935.197 758.355C937.404 759.526 939.378 761.132 941.887 762.837C940.583 764.758 938.626 766.139 936.38 766.724C934.134 767.308 931.752 767.056 929.678 766.015C922.975 763.405 915.675 762.721 908.604 764.041C907.039 764.355 905.414 764.12 904.001 763.377C902.588 762.634 901.473 761.428 900.844 759.961C898.57 756.114 895.76 752.535 893.786 748.555C892.935 746.845 892.747 744.879 893.26 743.038C893.772 741.197 894.949 739.612 896.563 738.588Z" fill="white"/>
<path d="M968.746 397.722C972.493 399.26 972.526 402.237 972.593 405.214C972.794 419.396 973.006 433.567 973.229 447.726C973.356 450.003 972.992 452.281 972.161 454.405C971.33 456.529 970.051 458.449 968.412 460.035C965.569 462.778 962.859 462.075 961.923 458.296C961.383 455.678 961.158 453.006 961.254 450.335C961.254 436.187 961.521 422.038 961.488 407.856C961.467 405.616 962.159 403.427 963.464 401.605C964.769 399.783 966.618 398.424 968.746 397.722Z" fill="white"/>
<path d="M814.378 472.945C820.733 469.6 823.844 475.186 828.359 476.524C828.058 485.856 827.69 494.853 827.456 503.851C827.456 508.132 827.456 512.413 827.456 516.695C827.456 520.04 826.821 523.385 822.673 523.752C821.045 523.825 819.447 523.301 818.178 522.278C816.91 521.256 816.058 519.806 815.782 518.2C814.81 514.588 814.183 510.893 813.909 507.162C813.541 502.379 813.575 497.563 813.675 492.746C813.775 486.157 814.11 479.534 814.378 472.945Z" fill="white"/>
<path d="M816.986 671.057C822.673 676.04 827.222 680.389 832.106 684.436C840.535 691.125 848.663 698.317 857.561 704.504C860.906 706.812 862.645 711.194 865.187 714.539L860.973 724.239C857.683 721.655 854.678 718.729 852.008 715.509C846.653 708.135 839.817 701.96 831.938 697.38C824.295 692.785 818.74 685.396 816.451 676.776C816.388 674.855 816.568 672.933 816.986 671.057Z" fill="white"/>
<path d="M348.795 449.197C354.949 449.197 356.053 453.01 358.361 455.887C360.418 458.293 361.809 461.195 362.395 464.305C362.982 467.415 362.745 470.624 361.706 473.614C360.268 478.732 359.632 484.05 358.06 489.134C356.603 492.145 354.832 494.993 352.775 497.63C351.273 495.183 350.039 492.581 349.096 489.87C346.587 476.39 348.393 462.978 348.795 449.197Z" fill="white"/>
<path d="M841.639 734.607C843.154 733.228 844.813 732.017 846.589 730.995C850.971 729.088 853.279 727.65 856.624 733.303C860.471 740.561 864.953 747.485 868.499 754.877C868.874 756.074 868.945 757.347 868.706 758.579C868.466 759.811 867.924 760.964 867.127 761.934C864.861 763.134 862.249 763.512 859.735 763.005C858.497 763.005 857.092 761.198 856.39 759.927C851.306 751.532 846.623 743.203 841.639 734.607Z" fill="white"/>
<path d="M884.889 745.077C879.504 739.993 874.854 735.377 869.97 731.062C865.087 726.747 865.02 722.7 869.067 716.914C875.423 720.827 882.146 724.406 888.234 728.855C892.047 731.597 892.014 735.276 889.338 739.457C888.334 741.029 887.03 742.367 884.889 745.077Z" fill="white"/>
<path d="M819.796 391.199C820.365 382.904 816.618 375.846 823.476 370.428C827.623 375.445 826.553 383.907 819.796 391.199Z" fill="white"/>
<path d="M1098.16 204.36C1099.23 200.313 1100 197.67 1100.67 194.727C1102.51 187.067 1106.02 181.348 1114.25 178.538C1118.3 177.2 1121.58 173.454 1125.16 170.745C1126.56 169.674 1127.83 168.437 1130.34 166.263C1131.21 170.878 1132.15 174.357 1132.52 177.903C1133.22 184.759 1133.49 191.683 1134.15 198.573C1134.59 200.387 1134.4 202.294 1133.61 203.984C1132.82 205.673 1131.48 207.044 1129.81 207.872C1128.22 208.849 1126.77 210.03 1125.49 211.384C1123.99 213.098 1121.89 214.166 1119.62 214.366C1117.35 214.565 1115.09 213.88 1113.32 212.454C1108.7 209.477 1103.58 207.203 1098.16 204.36Z" fill="white"/>
<path d="M1382.85 217.338C1381.71 203.591 1375.76 191.683 1372.11 178.672C1373.08 179.543 1373.94 180.519 1374.69 181.582C1378.5 187.705 1381.96 194.037 1385.06 200.547C1386.78 204.636 1387.59 209.051 1387.44 213.486C1387.29 217.921 1386.18 222.271 1384.19 226.235C1381.01 232.924 1377.06 239.346 1373.35 245.835C1372.7 247.296 1371.65 248.539 1370.31 249.414C1368.7 250.151 1366.87 250.247 1365.19 249.682C1364.22 249.314 1363.45 247.073 1363.55 245.768C1363.82 242.858 1364.79 240.049 1365.32 237.139C1366.03 233.826 1366.54 230.476 1366.86 227.104C1367.2 221.753 1368.23 220.181 1373.55 218.876C1375.12 218.591 1376.71 218.39 1378.3 218.274L1382.85 217.338Z" fill="white"/>
<path d="M1215 169.34C1217.11 179.174 1213.06 185.127 1206.1 189.877C1203.6 191.616 1201.15 193.222 1198.18 191.315C1196.94 190.093 1196.19 188.461 1196.06 186.725C1195.94 184.989 1196.45 183.268 1197.51 181.883C1201.89 175.984 1208.01 171.599 1215 169.34Z" fill="white"/>
<path d="M1460.55 224.829C1447.34 207.437 1429.25 195.797 1412.69 181.782C1414.71 182.411 1416.66 183.252 1418.51 184.291C1426.87 189.943 1434.73 196.432 1443.49 201.316C1450.18 205.095 1453.53 211.35 1457.98 216.836C1459.53 218.905 1460.95 221.072 1462.23 223.324L1460.55 224.829Z" fill="white"/>
<path d="M1486.85 238.476C1488.82 240.583 1490.96 242.557 1492.77 244.798C1496.12 248.232 1498.2 252.701 1498.69 257.474C1499.39 261.952 1500.51 266.353 1502.03 270.62C1502.6 272.861 1503.03 275.135 1503.5 277.309L1501.96 277.811L1486.21 238.777L1486.85 238.476Z" fill="white"/>
<path d="M1520.93 275.47L1505.24 250.384L1509.52 246.303C1515.7 254.922 1519.62 264.948 1520.93 275.47Z" fill="white"/>
<path d="M1480.99 338.284C1481.86 329.822 1482.53 321.326 1487.01 313.834C1488.82 322.999 1484.87 330.625 1480.99 338.284Z" fill="white"/>
<path d="M1277.18 233.359C1277.59 242.189 1273.07 245.166 1260.73 244.698C1261.26 241.721 1264.07 241.821 1265.78 240.784C1267.48 239.747 1269.56 238.878 1271.33 237.707C1273.1 236.536 1274.98 234.998 1277.18 233.359Z" fill="white"/>
<path d="M1400.71 173.153L1405.6 176.33L1404.76 177.568L1399.94 174.223L1400.71 173.153Z" fill="white"/>
<path d="M1099.43 305.104C1101.46 305.516 1103.44 306.121 1105.35 306.911C1121.21 316.744 1136.86 326.979 1152.85 336.378C1158.27 339.093 1163.47 342.248 1168.37 345.811C1170.72 347.749 1172.68 350.109 1174.16 352.768C1147.8 340.124 1120.77 328.819 1099.43 305.104Z" fill="white"/>
<path d="M1337.16 591.819C1336.86 587.303 1335.82 584.293 1336.69 581.952C1338.93 575.898 1342.01 570.111 1344.92 563.856L1352.98 572.519C1348.5 578.741 1345.55 585.832 1337.16 591.819Z" fill="white"/>
<path d="M679.911 261.589L647.632 285.002C648.803 277.61 654.924 274.332 657.934 269.248C655.158 265.201 651.746 270.185 647.899 267.275L671.013 255C671.515 260.452 675.662 261.355 679.911 261.589Z" fill="white"/>
<path d="M564.945 248.611C568.658 252.558 569.628 256.906 565.781 263.629C564.677 257.709 563.841 253.294 563.005 248.912L564.945 248.611Z" fill="white"/>
<path d="M585.75 245.333C591.571 248.678 591.571 248.678 590.534 254.364C586.754 251.521 586.754 251.521 585.75 245.333Z" fill="white"/>
<path d="M507.144 992.156C515.643 1004.5 522.47 1017.92 527.448 1032.06C526.372 1030.94 525.367 1029.76 524.437 1028.51C520.524 1022.56 516.744 1016.51 512.764 1010.59C509.294 1005.05 507.355 998.688 507.144 992.156Z" fill="white"/>
<path d="M566.316 1092.73C563.695 1092.74 561.143 1091.89 559.048 1090.31C556.953 1088.74 555.43 1086.52 554.709 1084C552.702 1078.65 550.127 1073.5 548.32 1067.95C553.639 1070.19 554.676 1075.71 557.586 1079.69C560.496 1083.67 563.439 1088.38 566.316 1092.73Z" fill="white"/>
<path d="M492.727 967.438L478.98 978.777C480.418 970.081 484.432 966.569 492.727 967.438Z" fill="white"/>
<path d="M1096.32 679.419C1098.13 681.359 1100.87 682.764 1098.26 688.015L1094.15 680.456L1096.32 679.419Z" fill="white"/>
<path d="M1087 234.405C1086.38 233.23 1085.82 232.025 1085.33 230.793C1081.48 219.521 1083.32 214.771 1094.23 210.122C1101.35 207.459 1107.32 202.397 1111.12 195.807C1109.94 194.674 1108.82 193.479 1107.77 192.228C1102.39 185.304 1102.79 179.518 1108.94 173.43C1111.18 171.222 1113.36 168.948 1115.8 166.406C1114.09 163.463 1112.79 160.854 1111.15 158.479C1109.28 156.337 1108.27 153.577 1108.32 150.734C1108.37 147.892 1109.48 145.168 1111.42 143.093C1112.44 141.779 1113.37 140.405 1114.23 138.979C1115.5 139.581 1116.8 139.748 1117.24 140.45C1121.25 146.839 1127.27 147.675 1133.96 147.14C1139.25 146.772 1144.53 146.605 1149.85 146.337L1150.12 144.565L1111.65 131.888C1112.47 126.629 1115.21 121.861 1119.35 118.509C1122.44 116.362 1124.95 113.467 1126.63 110.093C1128.31 106.719 1129.1 102.975 1128.95 99.2093C1129.14 95.2054 1128.83 91.1929 1128.01 87.2684C1124.66 74.8259 1132.42 65.5273 1141.22 60.9784C1143.58 59.7149 1146.07 58.7273 1148.65 58.0351C1157.65 55.6269 1166.81 53.7537 1174.84 48.4355C1177.2 47.172 1179.77 46.3557 1182.43 46.0273C1187.2 45.1359 1191.65 43.0161 1195.34 39.8778C1199.04 36.7394 1201.85 32.6911 1203.5 28.1328C1205.25 23.4701 1208.27 19.3875 1212.21 16.3444C1216.15 13.3012 1220.86 11.4182 1225.82 10.9072C1232.3 9.76993 1238.86 9.10091 1245.38 8.33161C1245.95 8.33161 1246.65 8.93365 1248.03 9.6695L1237.69 17.9311C1240.94 18.2008 1244.21 17.7163 1247.25 16.5154C1250.28 15.3146 1253 13.4297 1255.18 11.0075C1256.88 9.33557 1258.94 8.07444 1261.2 7.32077C1263.46 6.56709 1265.87 6.34079 1268.23 6.65922C1272.75 7.18543 1277.32 6.05684 1281.07 3.48174C1290.91 -3.4085 1308 0.538242 1315.03 9.97052C1319.81 16.42 1323.33 23.7179 1325.39 31.4775C1327.23 38.1671 1326.23 40.0736 1320.38 44.1208C1318.91 45.1242 1317.57 46.3618 1316.06 47.4656C1320.68 50.3086 1323.89 50.1413 1335.13 46.6628C1334.89 44.6224 1334.53 42.5153 1334.49 40.4415C1334.41 38.6932 1334.8 36.9542 1335.61 35.4067C1336.43 33.8591 1337.65 32.5599 1339.14 31.6447C1352.52 22.848 1376.77 24.42 1389.02 34.9895C1394.42 39.3853 1398.63 45.0668 1401.26 51.5127C1402.68 54.6961 1403.35 58.1693 1403.19 61.6543C1403.03 65.1392 1402.06 68.539 1400.36 71.5814C1398.4 75.0833 1397.21 78.9585 1396.86 82.953C1396.51 86.9476 1397 90.9714 1398.31 94.7607C1400.76 103.758 1402.6 112.889 1408.88 120.449C1411.51 123.84 1414.78 126.673 1418.52 128.781C1422.25 130.889 1426.37 132.23 1430.63 132.724C1435.71 133.474 1440.49 135.603 1444.44 138.878C1447.79 141.32 1451.53 143.36 1455.15 145.568C1456.63 146.194 1458.07 146.909 1459.46 147.709C1467.05 153.395 1474.55 159.215 1482.11 164.934C1483.34 165.915 1484.66 166.787 1486.05 167.543C1487.05 167.93 1488.08 168.243 1489.13 168.48C1494.82 170.152 1497.73 175.169 1501.81 178.715C1505.89 182.26 1512.48 181.859 1514.55 188.281C1514.77 188.906 1515.11 189.477 1515.57 189.956C1516.03 190.435 1516.58 190.81 1517.19 191.057C1524.72 192.963 1525.96 199.553 1528.2 205.406C1530.14 210.624 1531.95 215.875 1533.92 221.093C1535.53 224.447 1536.89 227.912 1538 231.462C1540.78 242.362 1545.97 252.5 1553.19 261.13C1561.39 271.37 1568.14 282.693 1573.26 294.779C1576.27 301.664 1577.15 309.298 1575.76 316.687C1575.15 320.573 1575.57 324.551 1576.97 328.226C1577.99 333.685 1578.2 339.263 1577.6 344.783C1577.14 347.685 1576.84 350.611 1576.7 353.546C1577.24 359.935 1575.93 364.919 1570.01 368.464C1568.2 369.534 1567.54 372.98 1566.9 375.488C1565.15 384.142 1561.21 392.203 1555.46 398.902C1553.72 400.775 1552.32 403.584 1547.9 401.778C1548.34 397.229 1548.84 392.379 1549.47 385.957C1543.32 394.453 1543.72 406.026 1533.08 409.672C1529.17 406.695 1530.54 402.982 1530.98 399.336L1532.18 389.302L1530.61 388.934C1529.34 393.65 1527.96 398.366 1526.79 403.116C1525.19 409.806 1522.78 411.879 1516.42 411.712V391.443C1514.22 396.861 1512.75 401.276 1510.67 405.424C1507.49 411.846 1503.98 418.201 1500.3 424.255C1499.67 425.164 1498.83 425.909 1497.85 426.427C1496.88 426.945 1495.79 427.221 1494.68 427.232C1491.71 426.496 1492.58 423.519 1493.14 421.111C1494.58 414.89 1496.05 408.635 1497.32 402.347C1498.05 398.974 1498.22 395.506 1497.83 392.078C1495.22 397.631 1492.84 403.35 1489.93 408.802C1487.63 413.028 1484.93 417.026 1481.87 420.743C1479.6 423.519 1476.72 426.329 1471.84 423.653L1479.23 398.667C1477.11 398.617 1475.04 399.237 1473.29 400.439C1471.55 401.64 1470.23 403.362 1469.53 405.357C1466.79 410.842 1464.41 416.629 1458.89 420.108C1457.59 420.944 1456.18 421.546 1454.41 422.449C1451.53 418.469 1453.37 415.023 1454.74 411.746C1458.63 403.126 1460.74 393.807 1460.93 384.352C1459.61 385.337 1458.4 386.458 1457.32 387.697C1449.86 398.433 1442.53 409.27 1434.98 419.94C1432.7 423.285 1430.19 426.63 1425.24 426.63C1422.06 423.285 1424.07 420.71 1426.04 417.733C1433.3 406.962 1437.32 394.754 1441.33 382.579C1441.49 381.947 1441.51 381.286 1441.39 380.644C1441.27 380.003 1441.01 379.396 1440.63 378.866C1439.09 380.84 1437.58 382.88 1435.98 384.82C1430.89 391.019 1425.78 397.185 1420.63 403.317C1419.88 404.426 1418.88 405.343 1417.72 405.993C1415.64 406.695 1412.8 407.799 1411.33 406.929C1408.65 405.424 1410.46 402.848 1411.53 400.641C1415.67 392.011 1419.79 383.348 1423.74 374.585C1424.51 372.143 1425.04 369.635 1425.34 367.093C1418.65 371.374 1416.18 377.328 1411.73 381.174C1407.28 385.021 1402.53 388.165 1397.78 391.744C1394.07 387.998 1395.5 385.255 1397.01 382.345C1399.85 376.926 1402.53 371.408 1405.21 365.855C1405.51 365.188 1405.67 364.464 1405.67 363.731C1405.67 362.998 1405.51 362.274 1405.21 361.607C1404.19 362.435 1403.25 363.353 1402.4 364.35C1398.05 370.772 1393.93 377.361 1389.48 383.683C1387.93 385.838 1385.95 387.649 1383.66 389.001C1382.88 389.403 1382.02 389.613 1381.14 389.613C1380.26 389.613 1379.39 389.403 1378.61 389.001C1378.1 388.312 1377.75 387.51 1377.6 386.661C1377.46 385.811 1377.52 384.939 1377.78 384.118C1380.02 377.428 1382.63 371.107 1385.14 364.618L1389.85 352.342C1381.56 358.329 1378.91 368.464 1368.34 371.04C1367.14 362.176 1374 356.389 1375.23 348.496C1367.57 354.082 1364.5 363.614 1354.63 367.728C1353.76 357.694 1361.05 351.272 1361.59 342.609C1354.3 345.352 1352.59 355.687 1342.82 355.52C1341.62 345.485 1347.84 337.893 1351.02 327.858C1343.16 332.976 1340.65 342.107 1332.22 344.582C1328.57 342.174 1330.01 339.03 1331.18 336.154C1333.69 329.999 1336.4 323.912 1338.94 317.991C1336.17 313.342 1333.56 315.282 1331.01 317.557C1327.47 320.701 1323.99 323.878 1319.61 327.892C1314.66 318.326 1322.15 312.472 1323.39 304.846C1321.72 303.828 1319.97 302.934 1318.17 302.171C1308.9 299.286 1301.14 292.854 1296.59 284.276C1295.3 281.77 1293.4 279.632 1291.06 278.058C1288.72 276.485 1286.02 275.529 1283.21 275.278C1270.77 273.305 1258.33 272.369 1246.22 277.887C1233.17 283.841 1219.9 283.273 1206.38 278.958C1199.52 276.716 1192.45 275.181 1185.27 274.375C1177.28 273.506 1170.69 269.325 1163.9 265.98C1161.16 264.642 1160.25 259.29 1158.75 255.745C1157.85 253.504 1157.34 251.062 1156.51 248.119L1147.54 253.972C1140.85 258.254 1137.84 258.187 1132.02 252.501C1126.85 247.065 1120.43 242.967 1113.33 240.56C1109.04 239.255 1104.56 238.72 1100.21 237.65C1095.86 236.579 1091.65 235.275 1087.37 234.071L1087 234.405ZM1384.23 209.253C1384.18 207.79 1384 206.335 1383.7 204.904C1379.42 189.391 1371.07 175.302 1359.51 164.098C1347.54 153.498 1334.29 144.43 1320.08 137.106C1315.39 134.552 1310.35 132.704 1305.12 131.62C1303.43 131.154 1301.65 131.16 1299.96 131.637C1298.27 132.114 1296.75 133.044 1295.55 134.326C1294.36 135.609 1293.53 137.194 1293.18 138.911C1292.82 140.627 1292.93 142.409 1293.52 144.063C1294.3 147.177 1295.42 150.195 1296.86 153.06C1297.91 154.777 1298.47 156.751 1298.47 158.763C1298.47 160.775 1297.91 162.749 1296.86 164.466C1294.12 168.981 1291.08 173.363 1287.96 177.644C1285.16 181.039 1283.07 184.96 1281.81 189.177C1280.54 193.393 1280.13 197.819 1280.61 202.195C1282.28 213.634 1296.19 226.746 1307.63 228.418C1311.21 228.907 1314.64 230.154 1317.7 232.075C1320.76 233.995 1323.37 236.546 1325.36 239.556C1326.6 241.296 1327.9 242.901 1329.07 244.774C1330.18 246.792 1331.97 248.356 1334.11 249.193C1336.26 250.031 1338.63 250.088 1340.81 249.356C1343.36 248.621 1345.93 247.918 1348.41 246.982C1355.1 244.44 1361.79 241.831 1368.48 239.121C1370 238.659 1371.38 237.819 1372.49 236.68C1378.62 228.653 1382.66 219.228 1384.23 209.253V209.253ZM1246.72 88.4391C1242.17 91.7427 1237.43 94.7911 1232.54 97.5703C1229.94 98.6685 1227.61 100.33 1225.73 102.436C1223.85 104.541 1222.47 107.038 1221.67 109.745C1219.68 116.922 1218.55 124.31 1218.32 131.754C1218.16 135.424 1219.32 139.032 1221.58 141.926C1223.84 144.82 1227.06 146.812 1230.67 147.541C1234.01 148.444 1237.36 149.649 1240.7 150.318C1241.5 150.392 1242.27 150.626 1242.98 151.005C1243.68 151.384 1244.31 151.901 1244.81 152.524C1245.31 153.148 1245.68 153.866 1245.9 154.636C1246.12 155.406 1246.18 156.212 1246.09 157.007C1246.29 161.021 1247.32 165.001 1248.16 170.219C1253.91 163.83 1253.14 157.676 1252.91 151.589C1252.59 147.358 1252.59 143.109 1252.91 138.878C1253.61 132.523 1254.68 126.168 1255.95 119.914C1256.8 115.152 1256.08 110.242 1253.88 105.932C1251.64 100.146 1249.3 94.3259 1246.82 88.4391H1246.72ZM1121.72 221.06C1127.14 223.903 1132.26 226.144 1136.87 229.154C1138.65 230.58 1140.91 231.265 1143.18 231.066C1145.45 230.866 1147.55 229.798 1149.05 228.084C1150.33 226.73 1151.78 225.549 1153.36 224.572C1155.04 223.744 1156.38 222.373 1157.17 220.684C1157.96 218.994 1158.15 217.086 1157.71 215.273C1157.04 208.383 1156.78 201.459 1156.07 194.602C1155.71 191.057 1154.77 187.578 1153.9 182.963C1151.39 185.137 1150.12 186.307 1148.71 187.445C1145.14 190.154 1141.86 193.9 1137.81 195.238C1129.58 197.981 1126.07 203.767 1124.23 211.427C1123.66 214.236 1122.89 217.012 1121.82 221.06H1121.72ZM1406.41 234.037L1401.89 234.84C1400.3 234.956 1398.72 235.157 1397.14 235.442C1391.79 236.747 1390.75 238.319 1390.45 243.67C1390.13 247.042 1389.62 250.392 1388.92 253.705C1388.38 256.615 1387.41 259.424 1387.14 262.334C1387.14 263.639 1387.81 265.88 1388.78 266.248C1390.46 266.813 1392.29 266.717 1393.9 265.98C1395.24 265.105 1396.29 263.862 1396.94 262.401C1400.66 255.912 1404.6 249.524 1407.78 242.801C1409.78 238.837 1410.89 234.487 1411.04 230.052C1411.19 225.617 1410.37 221.203 1408.65 217.113C1405.55 210.603 1402.09 204.271 1398.28 198.148C1397.53 197.085 1396.67 196.109 1395.71 195.238C1399.42 208.383 1405.37 220.29 1406.51 234.037H1406.41ZM1159.12 92.386C1154.29 95.9264 1150.92 101.096 1149.62 106.936C1148.45 110.682 1147.68 114.562 1146.44 118.275C1142.89 128.944 1144.9 131.654 1156.47 130.383C1158.98 130.148 1161.43 129.413 1165.24 128.643C1158.15 117.338 1160.12 105.431 1159.12 92.386ZM1238.66 186.04C1231.67 188.299 1225.55 192.684 1221.17 198.583C1220.11 199.967 1219.6 201.689 1219.72 203.425C1219.84 205.161 1220.6 206.793 1221.84 208.015C1224.81 210.022 1227.25 208.316 1229.76 206.577C1236.72 201.76 1240.77 195.807 1238.66 186.04ZM1484.21 241.597L1485.89 240.091C1484.61 237.839 1483.19 235.672 1481.64 233.603C1477.12 228.184 1473.91 221.862 1467.15 218.083C1458.39 213.199 1450.43 206.71 1442.17 201.058C1440.32 200.019 1438.37 199.178 1436.35 198.549C1452.9 212.497 1471 224.137 1484.21 241.53V241.597ZM1510.5 255.243L1509.84 255.645L1525.59 294.678L1527.13 294.176C1526.66 291.902 1526.23 289.628 1525.66 287.487C1524.13 283.22 1523.01 278.819 1522.31 274.342C1521.83 269.568 1519.74 265.099 1516.39 261.665C1514.69 259.257 1512.48 257.284 1510.5 255.176V255.243ZM1544.59 292.237C1543.28 281.715 1539.36 271.689 1533.18 263.07L1528.9 267.151L1544.59 292.237ZM1504.65 354.985C1508.4 347.325 1512.34 339.699 1510.67 330.534C1506.32 338.027 1505.65 346.589 1504.65 354.985ZM1300.61 250.059C1298.4 251.698 1296.66 253.17 1294.76 254.407C1292.85 255.645 1291.04 256.414 1289.2 257.484C1287.36 258.555 1284.69 258.421 1284.15 261.398C1296.73 261.866 1301.24 258.889 1300.84 250.059H1300.61ZM1424.14 189.853L1423.37 190.957L1428.18 194.301L1429.02 193.064L1424.14 189.853Z" fill="white"/>
<path d="M1096.8 155.268C1096.73 156.561 1096.73 157.856 1096.8 159.148C1097.04 161.021 1097.57 162.827 1097.74 164.667C1099.21 183.632 1096.03 186.442 1076.63 184.535C1077.33 182.495 1078.07 180.689 1078.6 178.815C1080.06 175.125 1081.07 171.274 1081.62 167.343C1081.85 159.817 1075.36 156.372 1068.94 160.319C1065.79 162.259 1063.08 164.901 1060.04 167.008C1059.01 167.971 1057.79 168.715 1056.47 169.196C1055.14 169.677 1053.73 169.884 1052.32 169.806C1050.91 169.728 1049.53 169.366 1048.27 168.741C1047 168.117 1045.87 167.243 1044.95 166.172C1042.55 164.065 1040.34 161.757 1037.76 159.851C1037.06 159.459 1036.45 158.904 1036.01 158.231C1035.56 157.559 1035.28 156.789 1035.19 155.987C1035.1 155.184 1035.21 154.372 1035.5 153.618C1035.79 152.865 1036.26 152.192 1036.86 151.656C1037.8 150.385 1039 149.281 1039.87 147.977C1044.52 141.287 1050.51 137.942 1058.94 139.782C1062.55 140.585 1066.36 140.484 1070.01 141.253C1072.62 141.858 1075.33 141.779 1077.9 141.023C1080.47 140.267 1082.8 138.86 1084.66 136.939C1085.8 135.826 1087.05 134.818 1088.37 133.929C1090.51 132.557 1093.32 129.881 1094.86 130.584C1098.9 131.865 1102.54 134.169 1105.43 137.273C1109.28 141.989 1105.1 151.99 1099.11 153.997C1098.31 154.364 1097.54 154.789 1096.8 155.268Z" fill="white"/>
<path d="M1125.07 63.6211C1124.6 66.7652 1124.1 68.9728 1123.93 71.2138C1123.22 76.4221 1122.94 81.68 1123.09 86.9342C1123.67 90.3387 1123.48 93.8286 1122.55 97.1536C1121.62 100.479 1119.97 103.556 1117.71 106.167C1115.03 109.144 1112.69 112.388 1110.08 115.398C1109.61 116.128 1108.99 116.755 1108.27 117.242C1107.54 117.728 1106.73 118.064 1105.87 118.23C1105.02 118.395 1104.14 118.387 1103.29 118.205C1102.44 118.023 1101.63 117.671 1100.92 117.171C1097.93 115.418 1094.86 113.822 1091.72 112.388C1084.29 109.043 1083.92 108.575 1085.03 100.28C1085.68 96.6335 1086.62 93.0438 1087.84 89.5432C1088.59 86.3761 1090.45 83.5821 1093.08 81.6631C1095.71 79.7442 1098.94 78.8261 1102.19 79.074C1104.68 79.3622 1107.19 78.7666 1109.29 77.3912C1111.38 76.0158 1112.93 73.9479 1113.66 71.5482C1114.65 69.3095 1116.24 67.3864 1118.25 65.9886C1120.26 64.5908 1122.62 63.7718 1125.07 63.6211Z" fill="white"/>
<path d="M1084.09 110.917C1087.67 116.971 1084.96 122.489 1084.69 127.941C1084.58 128.467 1084.34 128.957 1084 129.37C1083.65 129.784 1083.21 130.108 1082.72 130.316C1076.83 131.654 1070.91 133.092 1064.92 133.862C1062.45 134.196 1061.58 131.788 1061.58 129.346C1061.11 116.736 1066.9 110.85 1079.88 110.917H1084.09Z" fill="white"/>
</svg>
