<svg width="1279" height="1114" viewBox="0 0 1279 1114" fill="none" xmlns="http://www.w3.org/2000/svg">
<path d="M200.509 1.14221C199.209 2.04224 198.009 2.24231 197.009 1.64221C194.009 -0.25769 189.709 0.642212 187.109 3.74231C184.709 6.64221 184.209 6.74231 175.509 7.14221C164.609 7.54224 160.809 9.14221 155.909 15.7423C153.509 18.9423 150.609 21.2423 145.609 23.7423C141.709 25.6422 134.609 29.9423 129.609 33.2423C119.709 39.8423 102.909 48.7423 100.509 48.7423C99.6087 48.7423 94.3087 51.2423 88.6087 54.2423C78.6087 59.6422 58.4087 67.8423 51.9087 69.2423C44.0087 70.9423 29.8087 80.2423 20.5087 89.9423C10.8087 99.9423 9.40874 102.042 8.10874 108.342C7.40874 111.542 6.20875 114.242 5.10875 115.042C2.30874 116.942 1.10874 121.042 1.00875 128.542C1.00875 132.242 0.608745 136.142 0.208745 137.242C-0.891255 139.942 2.60874 158.342 4.80874 161.542L6.60875 164.242L7.10875 160.242L7.60875 156.242L9.40874 161.942C10.4087 165.142 11.7087 167.942 12.2087 168.342C12.9087 168.742 13.1087 168.342 12.8087 167.142C12.5087 166.042 11.9087 162.942 11.5087 160.242L10.9087 155.242L13.7087 157.942L16.5087 160.742L18.3087 156.942C19.9087 153.642 20.1087 153.442 20.7087 155.342C21.0087 156.542 22.3087 159.642 23.6087 162.342L25.9087 167.242L26.0087 158.242C26.2087 144.542 27.7087 141.042 30.0087 148.942C30.7087 151.342 32.6087 156.742 34.3087 160.942C37.5087 169.442 39.7087 172.142 38.8087 166.642C38.4087 163.542 39.5087 154.242 40.7087 150.742C41.1087 149.742 42.3087 151.242 44.2087 154.942C45.8087 158.142 47.6087 160.742 48.1087 160.742C48.7087 160.742 49.1087 158.642 49.2087 155.942V151.242L51.6087 156.542C53.9087 161.542 56.1087 162.742 56.1087 158.942C56.1087 158.042 57.2087 159.642 58.6087 162.542C60.0087 165.442 61.5087 167.642 62.0087 167.342C62.5087 167.042 62.7087 163.942 62.4087 160.442L61.8087 154.242L63.9087 156.742L66.0088 159.242L66.1087 153.742C66.2087 145.142 67.5088 144.542 70.2087 151.642C71.5088 155.042 73.6087 159.042 74.7087 160.542L76.9087 163.142L77.6087 157.142C78.0088 153.142 79.0088 150.142 80.5088 148.242C83.8087 144.142 86.6087 145.442 89.7087 152.542C91.1087 155.642 92.9087 159.342 93.8087 160.642C95.9087 163.842 97.1087 161.842 97.1087 155.142C97.1087 142.542 99.7087 140.542 103.609 150.042C107.509 159.742 110.809 162.042 109.709 154.242C108.809 148.442 109.909 140.742 111.609 140.742C112.409 140.742 113.409 142.242 114.009 144.042C115.309 147.742 120.609 153.442 121.409 152.042C121.709 151.542 121.609 149.342 121.109 147.242C120.009 142.442 120.909 134.742 122.509 134.742C123.209 134.742 124.209 136.242 124.909 137.942C127.109 144.142 135.509 151.342 133.609 145.442C133.209 144.242 132.709 140.242 132.409 136.442C131.909 130.342 132.009 129.742 133.809 129.742C134.909 129.742 136.409 131.142 137.609 133.342C139.709 137.242 146.709 143.742 148.809 143.742C149.809 143.742 150.009 142.742 149.509 139.742C148.409 132.942 152.709 128.742 162.109 127.342C165.309 126.842 169.909 127.442 178.809 129.442C190.109 131.842 191.809 132.042 197.809 131.042C201.509 130.342 204.709 130.042 204.909 130.242C205.809 131.142 198.909 133.642 190.109 135.742C165.509 141.442 160.709 142.842 151.909 146.242C138.209 151.742 119.209 161.042 114.409 164.542C109.909 167.942 106.109 174.042 106.109 178.142C106.109 180.042 105.409 180.742 103.109 181.242C100.709 181.742 100.109 182.442 100.109 184.442C100.109 185.742 99.4087 187.542 98.6087 188.342C97.7087 189.242 97.1087 189.442 97.1087 188.742C97.1087 188.142 96.7087 187.942 96.1087 188.242C95.6087 188.542 95.4087 190.242 95.7087 192.042C96.1087 195.042 96.1087 195.042 95.0088 192.942C93.3087 189.742 92.3087 190.242 91.1087 194.942C89.6087 200.942 89.3087 201.542 89.2087 199.042C89.0088 193.942 85.1087 196.642 85.1087 201.942V204.242L83.1087 201.742C81.2087 199.142 81.2087 199.142 79.8087 203.742C79.5088 204.742 78.9087 204.242 78.1087 202.242C77.0088 199.342 76.9087 199.342 75.5088 201.142C74.7087 202.242 74.1087 204.242 74.0088 205.642C74.0088 208.142 73.9087 208.142 72.3087 204.942C70.3087 200.742 68.9087 201.342 67.5088 206.842L66.4087 211.242L65.1087 206.942C63.4087 201.442 61.6087 199.942 60.1087 202.742C59.4087 204.142 58.4087 204.642 57.2087 204.242C55.9087 203.842 55.2087 204.342 54.7087 205.942C54.1087 208.242 54.1087 208.242 52.5087 206.242C51.2087 204.542 50.9087 204.442 50.1087 205.742C49.6087 206.542 49.1087 208.842 49.0087 210.742C48.9087 214.142 48.9087 214.142 47.6087 209.442C46.1087 203.842 45.7087 203.242 44.1087 204.242C42.4087 205.242 41.1087 209.342 39.6087 217.742C38.8087 221.842 38.0087 225.942 37.6087 226.842C37.2087 227.842 38.7087 230.642 41.5087 234.442C45.3087 239.542 47.2087 240.942 53.3087 243.842C60.1087 246.942 61.4087 247.142 73.4087 247.542C87.7087 248.042 95.3087 246.842 117.209 241.242C126.709 238.742 134.509 237.442 144.109 236.742C186.709 233.642 191.609 233.042 197.609 230.042C199.309 229.142 207.909 221.042 216.909 211.842L233.109 195.242L232.509 201.042C232.109 204.542 232.309 207.842 233.009 209.542C234.009 211.942 233.609 214.242 230.509 224.742C226.309 239.542 224.809 253.342 227.409 255.242C228.809 256.242 228.609 257.342 226.109 265.942C222.809 277.042 220.609 290.542 221.509 294.242C222.009 296.242 222.809 296.742 225.109 296.742C226.709 296.742 228.409 296.042 228.909 295.142C229.509 294.142 230.009 298.342 230.409 307.042C230.709 314.542 231.509 321.542 232.109 322.842C233.409 325.142 234.009 330.742 234.309 340.742C234.609 350.042 234.009 350.942 225.709 355.242C216.909 359.742 211.709 364.442 210.109 369.342C208.209 374.942 209.309 385.342 212.409 392.042C216.209 400.442 228.109 412.142 237.809 417.242C237.909 417.342 237.209 419.142 236.109 421.342C231.509 430.842 225.309 469.242 226.609 480.742C227.409 487.642 231.309 496.042 234.809 498.242C236.309 499.242 240.409 500.942 244.009 502.142L250.609 504.242L252.009 509.842L253.409 515.442L249.509 519.342C247.409 521.542 244.409 525.642 242.809 528.542C239.809 534.342 236.309 537.142 221.809 545.542C209.809 552.542 204.409 554.642 200.609 553.642C197.209 552.642 195.109 554.042 195.109 557.242C195.109 558.842 194.409 559.742 192.809 560.142C189.509 560.942 179.109 568.742 179.109 570.442C179.109 572.742 175.709 575.742 173.109 575.742C171.209 575.742 170.109 576.642 168.609 579.442C167.509 581.542 165.509 583.742 164.109 584.442C160.109 586.342 156.509 590.842 154.809 595.942C153.909 598.642 153.609 600.742 154.109 600.742C154.609 600.742 155.209 599.942 155.609 598.842C156.109 597.342 156.909 597.042 160.509 597.442C165.409 598.042 168.309 596.042 169.409 591.542C169.809 590.142 171.109 588.342 172.409 587.442L174.809 585.942L172.909 589.642C171.909 591.742 170.809 595.842 170.509 598.842C170.009 603.542 170.109 604.042 171.309 602.542C172.109 601.642 173.909 600.542 175.409 600.242C178.609 599.442 180.109 597.042 180.109 593.042C180.109 590.942 181.809 588.442 186.509 583.442C190.009 579.742 193.309 576.742 194.009 576.742C194.609 576.742 195.109 576.142 195.109 575.442C195.109 573.442 199.509 569.742 201.909 569.742C203.009 569.742 204.309 569.242 204.709 568.642C205.109 567.942 206.809 567.742 208.809 568.042C213.209 568.842 215.009 568.042 216.209 565.042C217.909 560.642 242.509 550.542 259.809 547.142C266.609 545.842 272.909 544.342 274.009 543.742C276.409 542.542 277.609 539.042 276.209 537.442C275.609 536.642 275.609 535.642 276.109 534.742C276.709 533.942 277.109 532.142 277.109 530.842C277.109 529.542 277.909 527.842 278.909 527.142C280.309 526.142 280.909 526.142 282.409 527.442C283.309 528.342 284.109 529.642 284.109 530.342C284.109 531.042 285.709 533.642 287.609 536.142C289.509 538.742 291.109 541.142 291.109 541.742C291.109 542.242 293.109 545.142 295.509 548.042C297.909 551.042 300.609 554.742 301.409 556.342C302.209 557.942 303.909 560.142 305.109 561.242C306.309 562.342 307.909 564.442 308.709 565.942C309.409 567.342 311.909 570.742 314.109 573.442C316.309 576.042 321.009 581.642 324.409 585.742C332.309 595.242 349.609 612.442 358.309 619.442C386.009 641.542 408.609 651.842 470.009 670.442C479.009 673.142 479.609 673.442 483.209 678.342C489.109 686.342 495.509 691.342 507.509 697.242C524.309 705.442 539.609 719.042 570.409 753.242C583.909 768.042 585.309 770.742 585.909 781.442C586.509 792.442 585.009 797.942 579.509 804.542C577.009 807.642 574.509 812.142 573.609 814.942C572.309 819.542 572.309 820.342 573.709 823.442C574.609 825.242 576.809 827.742 578.509 828.942C580.209 830.142 581.809 831.242 582.009 831.342C582.209 831.542 580.909 833.542 579.109 835.742C575.809 839.942 572.709 847.242 573.609 848.642C573.809 849.142 573.209 850.242 572.109 851.242C568.709 854.342 569.509 859.242 574.109 864.442C576.309 866.942 578.109 869.942 578.109 871.142C578.109 872.342 575.909 877.042 573.109 881.742C570.409 886.442 568.109 890.542 568.109 890.942C568.109 891.342 564.709 898.942 560.509 907.742C555.009 919.442 553.109 924.642 553.309 926.942C553.609 930.042 553.409 930.242 549.709 930.842C545.309 931.542 541.109 935.542 541.109 938.942C541.109 940.142 542.109 942.142 543.409 943.542L545.609 945.942L542.809 945.242C540.609 944.642 539.309 945.142 535.609 948.242C531.709 951.442 531.109 952.342 531.109 955.842C531.109 957.942 531.009 959.742 530.809 959.742C530.609 959.742 527.809 960.242 524.609 960.842C520.209 961.642 517.709 961.642 514.409 960.642C511.209 959.842 509.409 959.742 507.809 960.542C506.609 961.042 504.809 961.842 503.809 962.142C502.909 962.442 500.809 964.842 499.209 967.442C492.009 979.242 488.009 981.642 476.209 981.742C469.909 981.742 468.009 982.142 463.709 984.642C460.209 986.542 456.609 987.642 452.409 988.042C448.509 988.342 444.809 989.342 442.609 990.742C439.009 992.942 426.909 1008.94 426.709 1011.64C426.509 1014.74 430.009 1013.64 435.709 1008.94C442.109 1003.64 444.209 1002.34 448.309 1001.34C450.609 1000.84 451.009 1001.04 451.309 1003.44C451.709 1007.34 458.109 1011.54 465.709 1012.84L471.809 1013.94L466.909 1022.04C464.309 1026.44 462.209 1030.64 462.409 1031.14C463.409 1034.04 466.709 1032.64 472.709 1026.64C478.609 1020.84 479.209 1020.44 480.409 1022.14C482.009 1024.34 495.609 1027.64 503.409 1027.74C511.409 1027.74 518.209 1025.94 518.909 1023.54C519.209 1022.14 520.309 1021.74 523.509 1021.74C528.509 1021.74 530.109 1020.44 530.109 1016.24C530.109 1009.94 540.209 1001.94 551.509 999.142L554.509 998.442L552.209 1001.54C550.609 1003.84 549.209 1004.74 547.109 1004.74C545.609 1004.74 543.409 1005.54 542.309 1006.44C537.409 1010.74 527.209 1036.04 527.109 1044.04C527.109 1046.54 527.409 1046.84 529.809 1046.54C531.809 1046.34 533.209 1045.14 534.709 1042.34L536.909 1038.44L549.309 1038.64C559.809 1038.84 562.109 1038.54 565.109 1036.94C567.209 1035.74 568.509 1034.34 568.309 1033.34C568.109 1032.34 569.109 1031.54 571.309 1030.94C575.209 1029.94 576.209 1026.64 573.509 1023.64C572.309 1022.24 572.009 1020.84 572.409 1018.04C573.309 1013.04 575.609 1010.04 582.609 1005.24C587.409 1001.94 588.609 1000.54 589.709 996.742C590.409 994.242 591.809 989.542 592.709 986.242C594.509 980.342 596.809 977.342 602.609 973.342C605.209 971.542 605.309 971.142 604.809 965.142L604.309 958.742L608.309 957.542C614.909 955.642 617.109 948.942 612.609 944.742C610.209 942.442 610.209 942.342 611.809 939.842C612.809 938.242 613.709 933.842 614.209 928.242C614.809 921.742 616.109 916.142 619.009 907.742C622.609 897.542 623.109 895.242 623.109 887.042V877.842L630.609 870.442C637.209 864.042 638.109 862.642 638.109 859.542C638.109 857.542 637.509 855.742 636.909 855.442C636.109 855.142 637.009 853.742 639.309 851.842C643.109 848.542 647.109 841.542 647.109 838.042C647.109 835.642 642.109 831.042 638.509 830.142C636.209 829.542 635.109 827.742 637.009 827.742C637.509 827.742 638.909 826.142 640.109 824.142C645.009 816.242 640.909 802.942 627.309 782.142C610.309 756.142 574.109 693.342 574.109 689.742C574.109 689.242 574.709 688.742 575.509 688.742C576.209 688.742 579.509 686.942 582.709 684.842C586.009 682.642 592.309 679.542 596.909 677.842C601.409 676.242 612.209 670.842 620.909 665.842C638.809 655.642 641.309 654.542 664.609 647.042C674.009 644.042 684.209 640.242 687.409 638.642C698.509 633.042 705.209 624.742 703.109 619.342C700.309 611.942 687.209 610.342 650.809 613.242C631.109 614.742 629.209 614.542 627.109 610.742C624.609 606.042 627.209 592.842 634.409 573.242C666.809 486.042 665.309 489.742 668.209 489.742C670.609 489.742 671.009 490.242 672.009 494.442C673.209 499.042 678.209 505.742 680.509 505.742C682.709 505.742 694.109 513.742 694.109 515.242C694.109 516.042 698.209 527.642 703.209 540.942C722.609 592.542 734.709 628.842 742.009 656.942C745.509 670.342 748.109 678.742 750.609 684.942C751.109 686.142 750.809 686.742 749.909 686.742C749.109 686.742 745.709 688.442 742.409 690.642C735.709 694.942 733.509 698.742 734.609 703.942C737.909 718.842 752.009 732.942 770.609 739.842C786.909 745.942 794.209 755.142 812.009 791.842C826.809 822.242 831.409 841.142 827.609 855.342C825.309 863.942 826.009 869.342 829.909 872.842C831.509 874.342 833.409 875.642 834.109 875.942C835.009 876.242 834.109 878.142 831.509 881.742C828.609 885.842 827.609 888.042 827.609 891.142C827.609 893.942 827.009 895.742 825.309 897.442C822.309 900.442 822.909 903.842 828.209 912.942C830.309 916.542 832.109 920.842 832.109 922.442C832.109 924.042 830.109 928.642 827.709 932.742C820.209 945.342 809.409 979.542 810.609 986.742C811.309 990.642 811.209 990.642 807.209 991.742C802.409 993.042 800.709 995.642 801.509 1000.54C802.009 1003.64 801.609 1004.64 798.009 1008.44C795.109 1011.64 794.109 1013.34 794.709 1014.54C795.109 1015.44 795.409 1017.34 795.509 1018.64C795.609 1020.74 794.909 1021.24 790.109 1022.54C785.809 1023.64 783.809 1023.64 780.809 1022.74C777.609 1021.84 776.509 1021.84 774.609 1023.14C773.209 1024.04 771.409 1024.74 770.409 1024.74C768.009 1024.84 765.109 1027.34 761.609 1032.24C756.809 1038.94 753.809 1041.84 749.109 1044.24C742.809 1047.34 738.809 1048.14 729.709 1047.84C722.409 1047.64 721.509 1047.84 716.209 1051.04C711.609 1053.74 709.109 1054.54 703.509 1054.94C691.309 1055.84 685.209 1059.94 673.809 1075.24C670.509 1079.54 669.609 1081.54 670.309 1082.44C671.609 1084.04 674.009 1082.84 680.609 1077.04C686.109 1072.24 692.609 1068.74 695.909 1068.74C697.509 1068.74 698.009 1069.44 698.309 1071.94C698.509 1074.64 699.509 1075.64 704.109 1078.44C711.909 1083.14 719.109 1085.14 729.209 1085.14H737.909L735.409 1090.74C730.909 1100.64 731.009 1100.54 733.309 1101.34C735.109 1101.84 736.309 1101.04 739.509 1097.14C741.809 1094.44 744.809 1090.94 746.309 1089.24L749.009 1086.24L750.609 1088.54C752.809 1091.54 756.209 1093.14 766.109 1095.54C779.209 1098.74 785.809 1099.14 792.509 1097.24C796.709 1096.04 798.109 1095.14 797.909 1093.94C797.709 1092.64 798.609 1092.14 802.109 1091.74C804.609 1091.44 807.509 1090.74 808.609 1090.04C810.209 1089.14 810.309 1088.54 809.409 1086.44C808.709 1085.04 808.509 1082.84 808.809 1081.64C809.609 1078.24 813.809 1072.84 817.509 1070.64C820.909 1068.54 836.209 1063.54 837.009 1064.24C838.109 1065.44 835.009 1069.74 833.109 1069.74C828.809 1069.74 827.109 1071.54 827.109 1076.04C827.109 1078.34 826.009 1082.94 824.709 1086.24C821.709 1093.84 818.509 1111.54 819.909 1112.94C821.909 1114.94 824.609 1113.14 826.809 1108.54C829.309 1103.34 828.209 1103.54 842.009 1105.84C850.109 1107.14 858.409 1106.94 860.709 1105.34C861.709 1104.54 862.609 1102.84 862.609 1101.54C862.609 1100.04 863.309 1099.14 864.609 1098.94C869.809 1097.94 869.709 1095.54 864.009 1088.94C861.809 1086.54 861.109 1084.64 861.109 1081.64C861.109 1077.44 861.509 1076.94 869.809 1069.54C872.709 1066.94 872.809 1066.54 873.409 1056.04C873.709 1050.14 874.209 1044.54 874.509 1043.74C874.809 1042.94 876.809 1041.34 878.909 1040.24C880.909 1039.14 882.709 1037.44 882.909 1036.54C883.409 1033.74 881.109 1023.84 879.509 1022.34C878.709 1021.54 878.109 1020.54 878.109 1020.14C878.109 1019.74 877.209 1018.44 876.109 1017.24C875.009 1016.04 873.709 1012.94 873.209 1010.24C872.509 1006.64 871.409 1004.54 869.209 1002.54C866.509 1000.14 866.209 999.442 867.209 997.642C867.809 996.542 868.009 994.542 867.809 993.442C867.509 992.242 867.609 990.342 868.009 989.242C868.709 987.442 868.909 987.442 870.509 990.042C871.509 991.542 872.009 993.442 871.709 994.342C871.409 995.142 871.809 996.842 872.609 998.042C873.409 999.242 874.109 1001.44 874.109 1002.94C874.109 1004.54 874.509 1005.74 874.909 1005.74C876.709 1005.74 878.109 1003.14 878.109 1000.04C878.109 998.242 878.609 996.742 879.109 996.742C879.709 996.742 879.709 996.042 878.909 994.842C878.009 993.342 878.109 992.442 879.409 990.342C881.009 987.942 881.009 987.642 879.009 984.242C877.709 982.042 877.209 980.042 877.609 978.942C878.409 977.042 878.709 975.042 879.609 965.742C880.009 962.142 880.909 957.342 881.709 954.942C883.509 949.342 883.509 943.342 881.509 939.642C880.709 937.942 880.109 935.142 880.309 933.442C880.609 930.542 881.309 929.942 888.309 926.542C897.409 922.242 900.509 918.442 899.709 912.842C899.209 909.742 899.609 909.042 903.209 905.942C908.009 901.842 911.109 896.042 911.109 891.242C911.109 886.442 909.809 884.242 906.109 882.742L902.909 881.442L907.009 877.742C911.809 873.342 912.309 869.842 909.109 861.742C906.909 856.142 905.809 854.442 893.109 836.742C888.209 829.842 881.509 819.042 878.209 812.742C868.309 793.642 850.809 747.642 844.009 723.242C842.209 716.642 841.809 712.342 841.709 699.042L841.609 682.842L838.109 679.242C832.609 673.442 825.509 668.642 821.609 668.042L818.109 667.442L818.709 660.742C819.509 652.242 819.209 651.942 802.309 641.842C795.509 637.842 788.209 632.842 786.009 630.642C781.309 625.942 774.809 616.042 769.909 606.242C766.109 598.842 757.109 576.542 757.109 574.742C757.109 574.142 759.509 576.542 762.409 579.942C765.909 584.142 768.609 586.342 770.309 586.542C773.709 586.942 774.209 584.842 773.009 575.042C771.309 561.142 767.209 548.842 752.909 514.242L745.409 496.242L744.809 483.742C744.109 469.942 741.709 458.542 737.009 445.942C733.909 437.842 733.809 437.642 735.709 435.642C737.509 433.642 737.509 433.542 735.609 432.042C734.509 431.242 733.009 430.242 732.309 429.842C730.909 429.042 729.209 422.942 729.109 418.642C729.109 417.142 730.509 414.442 732.609 411.942C735.809 408.242 736.609 407.842 739.409 408.442C743.809 409.242 746.009 410.542 749.609 414.342C751.609 416.442 754.609 418.142 758.409 419.242C763.809 420.842 764.109 421.042 764.109 424.142C764.109 426.042 764.809 429.442 765.709 431.842C771.109 447.042 772.209 453.642 773.509 480.842C774.709 503.842 775.109 507.942 776.909 511.842C778.109 514.242 779.609 516.942 780.309 517.842C782.309 520.342 787.709 522.742 791.309 522.842C798.309 523.042 799.409 523.842 800.809 530.042C803.409 541.642 807.809 546.742 815.409 546.742C817.809 546.742 819.509 547.542 821.709 549.842C825.709 554.042 831.209 556.742 836.109 556.742C840.009 556.742 840.309 556.942 842.109 561.142C844.409 566.542 849.609 570.242 856.309 571.242C859.709 571.642 861.209 572.342 861.609 573.842C862.509 576.642 866.909 581.642 870.009 583.142C871.409 583.842 874.709 584.742 877.209 585.142C881.509 585.742 882.009 586.142 882.509 589.042C883.309 593.042 884.709 594.842 889.509 598.142C892.009 599.842 894.709 600.742 897.309 600.742C900.409 600.742 901.409 601.242 902.309 603.242C904.609 608.242 916.809 612.942 921.409 610.642C923.509 609.442 923.609 604.842 921.609 595.742C920.909 592.142 920.409 589.142 920.609 588.942C921.109 588.442 923.909 598.242 924.609 603.242C926.009 612.342 927.509 617.342 929.309 619.442C932.209 622.542 939.909 625.542 945.909 625.942C950.709 626.242 951.209 626.442 952.109 629.342C954.109 635.342 960.309 639.142 969.709 640.242C974.009 640.742 976.109 640.542 976.609 639.742C977.109 638.942 978.009 639.242 979.609 640.742C980.909 641.942 984.409 643.242 988.109 643.942C994.009 645.042 994.509 645.042 996.009 643.142C997.509 641.142 997.509 641.142 1003.21 643.442C1006.51 644.742 1011.81 645.942 1015.71 646.142C1019.51 646.342 1024.21 647.242 1026.11 648.042C1028.01 648.842 1032.21 649.842 1035.51 650.242C1038.71 650.642 1043.11 651.542 1045.21 652.242C1049.81 653.842 1056.21 654.442 1057.91 653.342C1059.81 652.142 1059.31 648.442 1056.21 639.842C1053.41 632.042 1052.61 628.242 1053.01 622.442C1053.31 616.742 1055.01 620.042 1056.61 629.442C1060.21 650.642 1061.71 652.942 1072.31 654.142C1075.71 654.542 1079.61 655.442 1081.01 656.142C1086.91 659.142 1104.11 660.142 1104.11 657.542C1104.11 656.942 1106.01 656.842 1108.91 657.242C1116.01 658.142 1116.51 657.142 1113.91 646.342C1112.51 640.542 1112.21 637.242 1112.81 636.642C1113.51 635.942 1114.01 637.142 1114.41 640.142C1115.11 645.242 1118.91 653.342 1121.71 655.942C1123.61 657.542 1126.21 658.042 1131.01 657.842C1133.11 657.742 1133.31 657.442 1132.71 653.442C1131.81 647.042 1131.11 634.942 1131.71 637.242C1133.01 641.942 1137.51 652.442 1139.31 654.942C1141.21 657.742 1146.31 658.842 1147.51 656.942C1147.81 656.442 1147.41 653.642 1146.61 650.642C1145.01 644.642 1144.71 639.842 1145.91 637.942C1146.51 637.042 1147.81 638.842 1150.11 643.442C1154.61 652.442 1156.71 654.742 1160.61 654.742C1164.91 654.742 1165.21 654.142 1163.51 649.742C1162.61 647.642 1162.11 644.242 1162.31 642.142L1162.61 638.242L1166.01 644.042C1169.91 650.742 1172.31 652.742 1176.81 652.742C1180.51 652.742 1180.71 652.342 1178.61 648.742C1177.01 645.942 1176.61 641.742 1178.01 641.742C1178.51 641.742 1179.21 642.842 1179.51 644.242C1179.91 645.642 1181.21 647.242 1182.51 647.742C1185.21 648.742 1203.11 648.742 1204.61 647.742C1205.21 647.342 1210.11 647.442 1215.61 647.842C1222.11 648.342 1225.81 648.242 1226.21 647.642C1226.61 646.942 1228.61 646.842 1231.51 647.242C1234.81 647.742 1236.11 647.642 1236.11 646.742C1236.11 646.042 1237.41 645.642 1239.41 645.842C1241.11 645.942 1243.31 645.742 1244.21 645.342C1245.01 644.942 1247.31 644.842 1249.21 644.942C1252.51 645.242 1252.61 645.142 1252.61 641.742C1252.61 637.642 1254.51 636.442 1263.11 634.842C1278.41 632.142 1279.71 631.242 1278.41 624.642C1277.91 621.942 1277.71 621.842 1269.91 621.542C1265.61 621.342 1260.81 621.642 1259.31 622.042C1256.71 622.842 1254.51 623.042 1236.61 624.242C1232.21 624.442 1227.71 624.842 1226.61 624.942C1224.91 625.242 1224.61 624.642 1224.61 620.842C1224.61 616.842 1224.31 616.342 1221.81 615.642C1217.81 614.542 1216.41 615.342 1214.91 619.342C1213.31 623.942 1212.01 623.642 1212.31 618.642C1212.51 614.142 1211.31 612.742 1206.81 612.742C1204.51 612.742 1203.71 613.442 1202.51 616.242C1200.61 620.842 1199.41 620.742 1199.91 616.042C1200.41 611.742 1198.41 609.742 1193.61 609.742C1191.01 609.742 1190.21 610.342 1188.61 613.442L1186.71 617.242L1186.11 612.842C1185.71 608.942 1185.21 608.242 1182.61 607.542C1178.31 606.442 1176.11 607.442 1174.31 611.542L1172.61 615.242L1172.31 611.042C1172.01 606.342 1171.01 605.242 1166.31 604.442C1163.81 603.942 1162.61 604.242 1161.11 605.742C1160.01 606.842 1159.11 608.342 1159.11 609.142C1159.11 609.942 1158.61 610.942 1158.01 611.242C1157.31 611.742 1157.21 610.842 1157.61 608.542C1158.51 603.742 1156.51 601.442 1151.01 601.342C1147.01 601.242 1146.51 601.542 1145.11 604.442C1143.21 608.542 1142.41 608.542 1142.41 604.742C1142.41 600.942 1139.81 598.042 1135.31 596.742C1132.41 595.942 1131.31 596.142 1129.91 597.442C1128.91 598.342 1128.11 599.642 1128.11 600.442C1128.11 601.142 1127.71 601.742 1127.21 601.742C1126.81 601.742 1126.61 600.742 1126.81 599.442C1127.41 596.542 1125.71 595.142 1120.41 594.242C1116.41 593.642 1116.11 593.742 1114.11 596.942L1112.11 600.242V597.542C1112.11 593.342 1111.11 591.742 1107.01 589.742C1102.01 587.142 1097.51 587.142 1095.91 589.742C1095.21 590.842 1093.61 591.742 1092.51 591.742C1090.51 591.742 1090.31 591.342 1090.81 587.942C1091.41 583.142 1090.31 582.142 1082.41 581.242C1076.61 580.642 1076.01 580.742 1073.61 583.142C1072.21 584.542 1070.91 585.742 1070.71 585.742C1070.51 585.742 1070.61 583.842 1070.81 581.442C1071.41 576.042 1069.31 573.942 1062.41 573.042C1057.01 572.442 1055.71 573.142 1051.91 578.742C1050.31 581.242 1050.21 581.142 1050.41 575.242L1050.61 569.242L1046.11 566.942C1039.81 563.842 1035.91 564.042 1032.81 567.742C1031.41 569.442 1030.01 570.742 1029.81 570.742C1029.51 570.742 1029.61 568.842 1029.81 566.442C1030.41 561.142 1028.31 558.842 1021.51 557.642C1016.11 556.642 1012.81 558.042 1010.91 562.242C1010.31 563.642 1009.41 564.442 1009.01 564.142C1007.21 563.042 1008.21 560.542 1012.21 556.642C1014.51 554.442 1016.11 551.942 1015.91 550.942C1015.51 548.942 1009.01 545.142 1004.31 544.242C999.909 543.442 996.809 545.442 994.009 550.942C992.509 553.842 991.709 554.642 991.109 553.742C989.909 551.842 991.009 549.742 994.809 545.942C996.609 544.142 998.109 541.842 998.109 540.842C998.109 537.542 987.809 529.742 983.309 529.742C982.009 529.742 981.309 529.342 981.609 528.742C982.709 527.042 980.309 524.042 975.409 520.942C966.009 515.142 960.509 515.942 956.909 523.942C955.209 527.642 954.209 528.742 952.409 528.742C949.109 528.742 949.509 526.242 953.509 521.642C959.409 514.742 960.009 508.642 956.009 496.242C953.209 487.642 951.209 485.442 945.909 484.842C945.509 484.742 945.709 483.342 946.309 481.742C947.209 479.042 947.009 478.142 944.709 474.742C941.609 470.042 935.209 465.142 930.909 464.242L927.909 463.542L930.909 460.342C938.209 452.542 938.909 447.942 934.109 440.442C925.409 426.742 912.009 419.242 902.909 423.042C900.009 424.242 899.009 425.542 896.909 430.842C894.609 436.642 894.309 436.942 893.209 434.942C891.609 431.942 894.709 426.042 901.709 418.442C908.209 411.442 909.309 408.142 906.209 405.642C903.309 403.242 890.009 400.342 884.609 400.942L880.209 401.442L885.209 395.542C887.909 392.342 890.109 388.842 890.109 387.842C890.109 383.742 876.009 380.442 866.609 382.142C862.209 383.042 856.109 388.342 852.509 394.442C850.209 398.342 849.709 398.742 848.909 397.342C847.709 395.142 851.509 389.042 856.609 385.042C861.309 381.342 869.109 371.042 868.509 369.342C867.709 367.142 863.309 365.642 854.409 364.642C839.809 362.842 832.609 366.042 830.109 375.642C829.309 378.842 828.709 379.742 827.809 378.842C826.209 377.242 828.709 372.742 835.809 363.942C841.909 356.542 846.109 349.342 846.109 346.342C846.109 342.942 837.609 340.342 827.009 340.242H817.409L818.909 337.042C820.909 332.842 819.709 331.342 812.509 329.042C808.109 327.642 806.909 326.842 806.509 324.842C805.509 320.442 804.009 316.942 802.309 315.342C801.309 314.542 793.209 311.142 784.209 307.842C764.509 300.542 760.509 298.442 733.609 280.742C711.209 266.042 706.909 263.642 698.109 260.542C684.709 255.942 677.009 255.142 622.609 253.142C601.509 252.342 586.209 255.142 579.109 261.242C578.309 261.942 575.809 262.842 573.609 263.142C570.109 263.742 569.509 263.542 568.609 261.542C568.109 260.342 566.109 258.442 564.309 257.442C560.209 255.042 549.209 254.042 545.209 255.642C542.809 256.742 541.709 256.642 538.509 254.942C534.009 252.742 523.309 251.342 521.109 252.742C520.009 253.442 519.209 253.142 518.009 251.542C516.909 250.242 514.609 249.242 511.109 248.642C505.109 247.742 501.509 248.242 498.909 250.442C497.309 251.842 497.209 251.742 497.809 248.442C498.309 245.242 498.009 244.742 495.309 243.342C491.409 241.342 481.909 241.242 478.209 243.242C474.509 245.142 472.309 250.842 470.609 263.242C469.809 269.142 467.509 274.042 465.809 273.442C464.909 273.142 464.709 269.942 464.909 262.142C465.009 256.142 464.709 250.642 464.209 249.842C463.609 248.942 460.909 248.242 457.209 247.942C451.809 247.542 451.009 247.742 448.509 250.242C446.009 252.742 445.909 253.242 446.509 259.742C446.809 263.842 446.709 267.742 446.009 269.442C444.909 272.342 441.309 276.742 440.009 276.742C439.609 276.742 438.809 273.942 438.209 270.442C436.909 262.742 434.809 260.742 427.909 260.742C419.009 260.742 415.209 264.242 416.609 271.342C417.409 275.742 415.009 276.042 413.409 271.742C412.509 269.242 411.709 268.742 408.909 268.742C407.109 268.742 404.509 269.442 403.209 270.342C399.909 272.742 396.109 281.342 396.109 286.742C396.109 289.242 395.609 291.942 395.109 292.742C394.509 293.742 394.209 292.042 394.409 287.242L394.609 280.242L390.909 279.942C388.909 279.742 386.009 280.242 384.409 281.142C380.709 283.042 375.409 288.342 374.509 290.942C373.909 292.942 373.909 292.842 372.709 290.642C371.009 287.142 365.409 286.942 360.309 290.142C355.909 292.942 351.109 298.242 351.109 300.342C351.109 301.142 350.709 301.742 350.109 301.742C349.609 301.742 349.109 300.942 349.109 299.942C349.109 297.042 346.209 293.742 343.509 293.742C340.609 293.742 336.009 295.942 334.209 298.142C333.109 299.542 332.709 299.542 331.409 298.242C329.309 296.042 323.509 296.342 321.109 298.742C318.509 301.342 318.109 301.242 318.109 298.442C318.109 295.542 316.309 293.742 313.509 293.742C311.409 293.742 311.409 293.642 312.709 287.942C315.309 277.042 313.809 271.742 308.009 271.742H305.009L307.109 268.842C311.509 262.542 312.109 259.642 310.209 253.842C309.309 250.842 307.709 247.942 306.809 247.242C304.409 245.542 304.609 245.142 309.109 240.842C312.309 237.842 313.109 236.342 313.109 233.542C313.109 229.442 311.109 227.342 308.109 228.242C306.309 228.842 306.109 228.442 306.109 224.242C306.109 220.642 306.709 218.842 308.609 216.542C310.409 214.442 311.109 212.342 311.209 208.942C311.509 201.542 311.609 200.942 312.409 200.142C312.809 199.742 313.109 197.942 313.109 196.142C313.109 193.042 311.809 191.542 307.409 189.242C307.209 189.142 308.009 187.342 309.109 185.242C310.209 183.042 311.109 180.042 311.109 178.542C311.109 176.442 311.809 175.442 313.509 174.842C316.109 173.742 317.109 171.842 317.109 167.642C317.109 164.242 314.809 161.642 309.109 158.742C306.909 157.642 305.109 156.542 305.109 156.442C305.109 156.242 305.809 153.642 306.709 150.742C307.609 147.642 308.109 143.642 307.809 141.442C307.309 137.442 303.809 132.742 301.409 132.742C298.909 132.742 300.109 131.242 304.509 128.842C312.609 124.642 314.709 120.242 310.709 116.242C308.409 113.942 307.409 113.742 299.809 113.742H291.409L290.209 109.842C289.309 106.842 288.109 105.342 284.909 103.542C277.109 99.1423 277.109 98.8423 285.109 83.3423C289.809 74.1422 292.109 68.4423 292.109 66.1422C292.109 62.8423 292.009 62.7423 288.409 62.7423C284.909 62.7423 283.809 63.5422 274.609 73.0422C265.609 82.4423 264.409 83.3423 262.409 82.4423C258.909 80.9423 259.509 78.0422 266.209 64.5422C272.609 51.4423 273.109 47.8423 269.009 45.6422C266.509 44.3423 260.609 45.9423 257.609 48.7423L255.409 50.8423L251.709 45.8423C246.409 38.6422 237.009 30.3423 230.609 27.2423C224.309 24.1422 221.709 21.4423 216.209 11.9423C210.109 1.44226 205.009 -2.05774 200.509 1.14221ZM189.809 42.8423C191.709 44.0422 193.009 45.4423 192.909 46.1422C192.509 47.4423 184.909 51.2423 180.909 52.1422C178.409 52.7423 178.309 52.6422 179.009 49.9423C180.509 44.9423 183.109 40.7423 184.809 40.7423C185.609 40.7423 187.909 41.6422 189.809 42.8423ZM125.609 75.9423C126.509 78.8423 127.509 83.5422 127.809 86.3423C128.309 90.6423 128.009 91.7422 126.009 94.0423C124.709 95.5423 120.909 97.9423 117.609 99.2422C111.609 101.742 111.609 101.742 109.909 99.7422C107.909 97.3423 106.509 85.4423 107.709 81.8423C108.309 80.2423 111.209 77.7423 115.609 75.0422C119.409 72.6422 122.909 70.7423 123.309 70.7423C123.709 70.7423 124.709 73.1422 125.609 75.9423ZM32.4087 95.8423C31.4087 97.5423 30.0087 99.4423 29.2087 100.042C28.0087 101.042 28.0087 100.842 29.1087 98.7422C30.4087 96.1423 33.1087 92.7422 33.8087 92.7422C34.0087 92.7422 33.4087 94.1423 32.4087 95.8423ZM80.8087 100.442C80.6087 102.042 80.4087 100.942 80.4087 98.2422C80.4087 95.4423 80.6087 94.2422 80.8087 95.4423C81.0088 96.7422 81.0088 98.9423 80.8087 100.442ZM230.609 131.442C231.709 134.942 231.609 135.742 230.409 136.142C227.509 137.242 227.109 136.642 227.109 131.642C227.109 125.542 228.809 125.442 230.609 131.442ZM495.209 257.942C494.709 259.242 494.009 262.642 493.609 265.442C493.009 269.842 492.609 270.742 490.909 270.742C489.209 270.742 489.009 270.342 489.609 267.442C490.309 264.542 494.809 255.742 495.709 255.742C495.909 255.742 495.709 256.742 495.209 257.942ZM513.609 272.142C513.209 274.142 512.409 275.742 511.909 275.742C511.409 275.742 511.309 274.742 511.609 273.442C512.009 272.242 512.509 270.442 512.809 269.442C513.709 266.242 514.309 268.342 513.609 272.142ZM373.809 302.442C373.509 303.442 373.309 302.842 373.309 301.242C373.309 299.542 373.509 298.842 373.809 299.442C374.009 300.142 374.009 301.542 373.809 302.442ZM259.109 355.542C259.109 356.042 260.709 358.242 262.709 360.642L266.309 364.842L263.209 371.642C258.809 381.342 257.709 388.142 259.109 398.542C259.709 403.142 260.109 407.042 259.909 407.142C259.709 407.242 258.809 407.942 257.909 408.642C256.409 409.742 255.409 409.342 250.309 405.442C236.009 394.342 229.709 382.342 232.209 370.842C232.809 368.042 233.609 365.742 234.109 365.742C234.509 365.742 235.409 367.842 236.009 370.342C237.309 375.442 241.909 384.842 245.009 388.742C246.509 390.642 247.309 390.942 248.109 390.142C249.009 389.242 249.009 386.742 248.009 379.842C246.909 372.142 246.909 369.642 248.209 363.542C249.409 357.242 250.009 356.242 252.109 355.642C255.709 354.642 259.109 354.642 259.109 355.542ZM482.109 369.642C482.109 370.542 481.609 373.042 481.009 375.242L479.909 379.242L477.609 376.342C473.609 371.242 472.609 369.042 474.009 367.342C475.609 365.442 482.109 367.342 482.109 369.642ZM278.009 374.142L280.309 376.542L278.309 385.242C276.309 393.542 274.009 397.442 271.709 396.042C270.509 395.242 271.609 377.842 273.209 374.442C274.709 371.142 275.109 371.142 278.009 374.142ZM460.909 376.042C462.009 377.342 460.409 392.742 459.209 392.742C458.909 392.642 456.809 390.442 454.609 387.642C451.509 383.642 450.709 381.842 451.009 379.442C451.109 377.642 451.509 375.942 451.809 375.442C452.509 374.242 459.809 374.642 460.909 376.042ZM494.609 383.942C496.009 386.542 497.109 389.242 497.109 390.042C497.109 390.742 495.609 392.842 493.709 394.642L490.309 397.942L488.209 393.942L486.109 389.842L488.209 383.142C490.509 375.842 490.409 375.842 494.609 383.942ZM513.109 380.242C513.109 382.042 508.309 383.342 506.909 381.942C505.309 380.342 506.909 378.742 510.209 378.742C512.109 378.742 513.109 379.242 513.109 380.242ZM522.809 389.342C521.909 390.342 518.009 383.442 518.609 381.942C519.209 380.642 519.809 381.242 521.209 384.642C522.309 387.042 523.009 389.142 522.809 389.342ZM543.409 385.442C546.709 387.442 550.709 389.342 552.409 389.642C555.809 390.342 556.409 391.742 560.709 410.742L563.309 422.142L557.409 437.642C551.709 452.942 551.609 453.042 550.809 449.142C547.709 434.942 539.609 403.142 536.609 394.042C534.709 387.942 533.109 382.742 533.109 382.442C533.109 380.642 537.909 382.142 543.409 385.442ZM474.809 401.742C474.909 405.842 475.109 410.142 475.309 411.142C475.909 414.942 473.509 413.542 470.309 408.342C467.209 403.142 467.109 402.742 468.109 397.542C470.409 386.142 469.909 386.842 472.409 390.742C474.109 393.442 474.609 395.942 474.809 401.742ZM573.909 389.742H577.509L574.909 392.442C573.509 394.042 571.409 396.742 570.309 398.542L568.309 401.942L566.609 396.542C565.609 393.642 564.609 390.642 564.309 389.842C563.909 388.742 564.509 388.542 567.109 389.042C568.909 389.442 572.009 389.742 573.909 389.742ZM453.609 400.842C456.709 404.742 457.609 406.742 457.609 409.842C457.609 411.942 457.409 413.742 457.209 413.742C457.009 413.742 454.709 411.442 452.109 408.642C447.709 403.942 447.409 403.242 447.809 399.642C448.109 397.542 448.609 395.742 449.009 395.742C449.309 395.842 451.409 398.042 453.609 400.842ZM530.409 413.742C536.709 436.342 538.609 443.942 542.009 461.442L545.009 476.542L539.509 497.442C536.409 508.842 533.809 518.342 533.809 518.442C533.709 518.542 533.609 510.442 533.609 500.442C533.609 475.942 529.709 451.942 521.309 422.942C519.209 415.742 517.809 409.742 518.209 409.742C520.009 409.742 524.109 402.142 524.109 398.842C524.109 392.942 525.609 396.442 530.409 413.742ZM316.009 398.642L318.309 400.442L317.209 414.942C316.609 422.942 316.109 432.842 316.109 436.942V444.342L310.909 450.242L305.609 456.142L305.009 453.142C303.909 448.342 304.009 422.842 305.109 413.742C306.809 399.342 306.909 398.942 309.909 397.942C313.509 396.542 313.309 396.542 316.009 398.642ZM346.709 404.042C346.809 404.142 346.109 410.242 345.109 417.542C343.509 430.842 342.709 432.642 339.109 432.742C338.309 432.742 335.709 433.642 333.309 434.742C329.609 436.442 328.909 436.442 328.409 435.242C328.009 433.942 330.009 415.542 331.809 405.842L332.409 402.442L339.409 403.142C343.309 403.542 346.609 403.942 346.709 404.042ZM370.909 406.042C372.209 407.042 372.409 413.142 371.509 422.342L370.909 428.242H363.009C357.109 428.342 355.109 428.042 355.109 427.042C355.109 425.642 358.909 407.142 359.609 405.042C360.109 403.542 368.809 404.342 370.909 406.042ZM413.309 407.842C419.409 411.542 420.109 412.342 420.109 415.142C420.109 421.442 418.909 421.442 410.709 414.642C405.809 410.642 403.209 407.842 403.609 406.942C403.909 406.242 404.109 405.142 404.109 404.642C404.109 402.942 406.509 403.742 413.309 407.842ZM295.809 422.942C295.709 433.042 296.009 446.242 296.409 452.342L297.209 463.442L294.209 464.742C291.709 465.742 288.609 465.742 277.809 464.642L264.509 463.442L258.309 453.542L252.209 443.642L254.209 438.342C255.209 435.442 257.609 431.342 259.409 429.342C263.709 424.342 264.809 425.342 270.009 440.242C274.509 452.642 277.209 457.042 279.209 455.042C280.009 454.242 279.509 448.942 277.309 435.042C275.709 424.742 274.609 415.842 275.009 415.442C275.409 415.042 276.709 421.742 277.909 430.442C279.109 439.142 280.809 448.942 281.609 452.242C283.209 458.242 285.609 462.142 287.209 461.142C287.709 460.842 288.109 449.542 288.109 435.942C288.109 422.342 288.409 410.342 288.709 409.142C289.209 407.442 292.509 405.242 295.309 404.842C295.809 404.742 296.009 412.942 295.809 422.942ZM435.209 407.842C440.609 412.142 440.109 413.642 434.609 409.642C432.109 407.842 430.109 406.042 430.109 405.542C430.109 404.142 431.209 404.642 435.209 407.842ZM873.109 411.642C872.009 415.642 870.109 417.242 870.109 414.142C870.109 412.442 873.309 406.542 873.909 407.142C874.109 407.342 873.709 409.342 873.109 411.642ZM513.109 429.242C518.809 446.942 522.709 463.542 524.709 478.942C529.009 513.042 522.609 551.342 505.009 595.042C500.609 606.142 496.409 616.142 495.609 617.242C493.609 620.442 472.509 631.242 462.609 634.242C457.709 635.742 452.609 637.242 451.509 637.742C449.809 638.442 448.809 638.042 447.109 636.242C445.309 634.342 445.109 633.642 446.209 633.342C455.009 630.242 462.009 627.342 469.109 623.742C478.109 619.242 496.509 607.742 495.809 607.042C495.609 606.842 487.109 610.942 477.009 616.142C458.009 625.942 437.209 633.442 436.309 630.942C436.109 630.242 435.509 629.742 435.009 629.742C434.609 629.742 434.409 630.442 434.709 631.242C435.609 633.542 432.109 633.142 429.409 630.542C428.109 629.342 427.109 628.942 427.109 629.542C427.109 630.142 427.609 630.942 428.109 631.242C429.509 632.142 428.409 633.742 426.409 633.742C424.909 633.742 422.209 631.042 422.109 629.442C422.109 629.042 422.909 628.742 424.009 628.742C428.509 628.742 454.209 619.342 464.509 613.942C477.009 607.342 487.509 600.842 486.809 600.142C486.509 599.842 480.809 602.442 474.009 605.842C451.509 617.042 436.209 622.542 422.609 624.342C418.109 624.842 417.309 624.642 415.309 622.442L413.009 619.942L418.309 618.742C428.109 616.442 443.509 611.042 453.109 606.542C464.009 601.442 477.509 593.842 476.809 593.142C476.509 592.842 470.809 595.042 464.009 598.042C445.109 606.442 439.409 608.642 429.609 611.242C410.609 616.342 396.709 617.442 392.909 614.142C391.709 613.142 391.109 612.842 391.509 613.442C392.509 615.342 391.009 614.942 388.209 612.842L385.709 610.942L391.209 610.842C401.409 610.742 422.209 605.442 439.209 598.742C450.709 594.142 467.509 585.842 466.809 585.142C466.509 584.842 462.109 586.242 457.009 588.142C426.709 599.442 415.409 602.642 398.309 604.742C389.309 605.742 384.509 605.142 377.309 601.942L373.009 600.042L380.809 599.442C389.509 598.842 407.709 595.042 419.109 591.342C437.509 585.442 457.909 577.242 456.809 576.142C456.509 575.842 451.609 576.942 445.909 578.742C415.409 588.242 403.309 591.142 388.209 592.742C378.109 593.842 374.009 593.242 366.409 589.542C361.709 587.342 360.809 586.342 364.409 587.242C367.709 588.142 385.909 585.142 401.209 581.342C425.109 575.242 448.309 567.642 447.009 566.242C446.709 566.042 436.409 568.242 424.109 571.142C411.709 574.142 398.509 577.042 394.609 577.742C390.809 578.342 386.709 579.142 385.609 579.342C383.709 579.842 383.709 579.742 385.409 578.442C386.309 577.642 387.109 576.542 387.109 575.942C387.109 575.342 387.809 575.042 388.609 575.342C392.209 576.742 400.109 571.842 400.109 568.242C400.109 567.442 401.309 566.442 402.909 566.142C427.709 560.242 437.909 557.242 436.809 556.142C436.609 555.942 429.009 557.042 420.009 558.742C411.009 560.342 402.909 561.742 402.109 561.742C401.009 561.742 400.509 560.442 400.309 557.242C400.009 552.142 398.609 552.942 414.409 549.742C424.809 547.642 429.809 545.842 425.109 545.742C423.709 545.742 418.109 546.442 412.609 547.242C398.909 549.242 399.909 549.442 400.309 544.042L400.609 539.242L408.609 537.942C419.209 536.242 420.409 534.742 410.709 535.442L403.109 536.042V531.942C403.109 528.142 403.409 527.742 406.409 526.842L409.609 525.942L406.409 525.842C403.309 525.742 402.609 524.842 402.909 521.642C403.809 514.542 404.709 510.242 406.309 505.942C408.709 499.542 408.209 494.242 404.509 485.942C403.209 482.942 402.209 480.342 402.309 480.242C403.209 479.442 415.309 473.642 415.509 473.942C415.609 474.142 416.509 478.742 417.409 484.242C420.409 501.742 426.009 515.742 430.009 515.742C432.809 515.742 433.209 513.142 431.609 505.742C427.109 486.042 426.009 480.642 425.509 474.242L424.909 467.242L437.009 459.342C443.709 455.042 449.309 451.642 449.509 451.842C449.709 452.042 451.309 456.542 453.009 461.842C456.009 471.042 458.309 474.742 460.909 474.742C462.309 474.742 462.409 472.542 461.009 462.742C459.409 451.242 459.009 444.542 459.909 445.142C460.809 445.642 462.509 452.842 463.609 460.742C464.909 469.542 467.309 477.642 469.209 479.342C470.309 480.242 471.409 480.842 471.709 480.442C472.009 480.142 472.709 476.142 473.309 471.642C474.309 463.542 473.209 448.042 471.109 440.842C470.109 437.242 471.009 436.842 473.609 439.742C474.609 440.842 476.009 441.742 476.709 441.742C478.909 441.742 481.509 452.542 483.109 467.542C484.909 486.242 481.809 506.042 472.509 533.442C467.909 547.342 467.009 553.142 469.609 554.142C474.309 555.942 482.709 537.842 488.609 513.642C494.809 487.842 493.509 457.642 485.209 435.642C484.009 432.642 483.109 430.042 483.109 429.742C483.109 428.942 490.009 425.342 490.509 425.842C491.609 426.942 498.509 447.042 500.609 455.042C505.809 474.942 507.609 502.042 505.009 523.242C504.009 531.742 498.409 555.442 494.009 569.642C492.009 576.242 491.509 587.242 493.109 589.742C493.809 590.942 494.409 590.942 496.409 589.842C501.609 587.042 509.009 568.542 513.509 546.942C521.809 507.842 518.709 467.942 504.409 429.842L500.909 420.342L503.109 418.542C507.709 414.742 508.709 415.842 513.109 429.242ZM388.509 427.242C388.209 431.042 387.609 436.242 387.209 438.742L386.509 443.242L384.709 440.542C383.009 437.942 383.009 436.942 384.109 427.842C385.309 418.342 385.409 417.942 387.309 419.042C389.009 420.142 389.209 420.942 388.509 427.242ZM433.909 423.142C436.109 425.542 438.609 428.842 439.509 430.542C441.009 433.542 441.009 433.542 437.909 434.642C433.409 436.242 432.909 436.142 429.809 432.242C427.309 429.142 427.109 428.242 427.709 423.742C428.109 421.042 428.709 418.742 429.109 418.742C429.509 418.742 431.709 420.742 433.909 423.142ZM450.909 423.142C453.709 427.042 454.109 428.742 452.009 428.742C451.009 428.742 447.109 421.942 447.109 420.142C447.109 418.042 447.509 418.342 450.909 423.142ZM245.109 420.642C245.109 421.242 244.709 421.942 244.109 422.242C243.609 422.542 243.109 422.142 243.109 421.342C243.109 420.442 243.609 419.742 244.109 419.742C244.709 419.742 245.109 420.142 245.109 420.642ZM408.909 434.242C413.409 436.942 417.109 439.542 417.109 439.842C417.109 440.242 413.409 441.442 408.809 442.542C404.209 443.742 399.609 444.942 398.709 445.342C397.109 445.942 396.909 445.542 397.509 442.142C397.809 440.042 398.309 436.042 398.709 433.442C399.009 430.842 399.709 428.742 400.109 428.942C400.509 429.142 404.509 431.442 408.909 434.242ZM628.809 485.442C627.509 514.742 623.309 540.942 616.609 561.342C612.709 573.242 604.909 591.742 603.909 591.742C602.009 591.742 604.609 530.542 607.109 516.542C608.509 509.042 612.109 498.742 616.109 490.742C619.609 483.742 627.909 470.742 628.809 470.742C629.209 470.742 629.109 477.342 628.809 485.442ZM279.009 493.842L282.009 499.342L279.209 501.042C276.209 502.842 273.809 501.742 274.809 499.042C275.209 497.942 274.809 497.642 273.009 497.942C270.709 498.242 270.609 497.942 270.609 492.742C270.609 489.742 271.009 486.342 271.409 485.242C272.209 483.342 272.309 483.342 274.109 485.742C275.209 487.142 277.409 490.742 279.009 493.842ZM932.909 500.942C930.909 504.742 930.609 504.942 930.309 502.942C930.109 501.642 930.709 499.742 931.709 498.642C934.609 495.342 935.209 496.542 932.909 500.942ZM287.509 509.542C287.809 509.942 286.709 510.842 285.009 511.442C282.709 512.342 282.109 512.342 282.109 511.242C282.109 509.242 286.409 507.842 287.509 509.542ZM275.309 516.742C274.609 517.642 272.109 513.342 272.109 511.342C272.109 509.742 272.609 510.142 273.909 512.742C274.909 514.642 275.509 516.442 275.309 516.742ZM281.109 510.642C281.109 512.142 278.209 513.942 276.609 513.342C273.809 512.342 274.909 509.742 278.109 509.742C279.809 509.742 281.109 510.142 281.109 510.642ZM384.109 515.742C384.109 517.442 383.409 517.742 379.109 517.742C375.609 517.742 374.109 517.342 374.109 516.442C374.109 514.242 375.209 513.742 379.809 513.742C383.409 513.742 384.109 514.042 384.109 515.742ZM319.109 515.742C319.109 516.242 318.909 516.742 318.709 516.742C318.409 516.742 317.909 516.242 317.609 515.742C317.309 515.142 317.509 514.742 318.009 514.742C318.609 514.742 319.109 515.142 319.109 515.742ZM365.909 516.442C365.509 518.742 356.309 519.642 355.009 517.542C354.409 516.542 355.109 516.042 357.909 515.642C365.009 514.442 366.309 514.642 365.909 516.442ZM346.109 517.742C346.109 519.542 345.409 519.742 338.609 519.742C332.809 519.742 331.109 519.442 331.109 518.342C331.109 516.342 332.709 515.942 339.909 515.842C345.509 515.742 346.109 515.942 346.109 517.742ZM384.109 523.742C384.109 526.542 383.909 526.742 380.109 526.742C377.909 526.742 375.809 526.742 375.409 526.842C374.309 526.842 373.809 523.942 374.509 522.142C374.909 521.242 376.509 520.742 379.609 520.742C383.909 520.742 384.109 520.842 384.109 523.742ZM365.109 524.742C365.109 527.042 364.609 527.842 362.709 528.342C358.709 529.342 356.609 528.442 356.309 525.542C356.009 523.242 356.409 522.842 359.309 522.442C361.109 522.242 363.209 521.942 363.909 521.942C364.609 521.842 365.109 522.942 365.109 524.742ZM347.509 526.342C347.909 527.842 348.109 529.042 347.909 529.242C347.709 529.342 344.609 529.742 340.809 530.042C334.809 530.442 333.909 530.342 333.009 528.542C332.409 527.442 332.209 526.342 332.509 526.042C332.909 525.542 338.009 524.742 345.709 523.842C346.409 523.842 347.209 524.942 347.509 526.342ZM583.609 545.742C581.009 575.542 576.809 601.442 571.909 618.242C570.109 624.442 564.809 637.342 563.609 638.642C562.609 639.642 558.109 634.242 558.109 632.042C558.109 630.842 555.809 625.342 553.009 620.042C548.009 610.342 547.909 610.142 548.409 603.042C549.109 594.142 553.209 583.342 564.709 560.742C572.109 546.342 583.609 527.942 584.609 528.942C584.809 529.142 584.309 536.742 583.609 545.742ZM291.109 532.342C291.109 534.442 289.409 534.842 287.709 533.142C285.409 530.942 285.709 529.942 288.609 530.542C290.009 530.742 291.109 531.542 291.109 532.342ZM384.109 533.642C384.109 537.742 382.809 538.742 377.409 538.742C375.509 538.742 375.109 538.142 375.109 535.742C375.109 534.042 375.109 532.442 375.109 531.942C375.009 531.342 378.909 530.242 382.909 529.842C383.709 529.742 384.109 531.142 384.109 533.642ZM301.109 532.542C301.109 533.642 294.109 535.842 292.909 535.142C292.509 534.842 292.109 533.942 292.109 533.142C292.109 532.142 293.309 531.742 296.609 531.742C299.109 531.742 301.109 532.142 301.109 532.542ZM366.109 536.242C366.109 539.142 365.709 539.642 363.009 540.242C359.309 541.042 359.209 540.942 358.409 536.442C357.909 533.042 358.009 532.842 361.209 532.542C365.809 532.042 366.109 532.342 366.109 536.242ZM349.509 536.342C351.009 540.342 350.209 540.642 344.909 538.442C340.209 536.542 339.909 536.242 342.109 535.642C346.409 534.442 348.909 534.642 349.509 536.342ZM976.509 539.542C975.809 542.842 974.109 543.942 974.109 541.142C974.109 539.342 976.109 535.342 976.709 536.042C976.909 536.242 976.809 537.842 976.509 539.542ZM296.209 542.742C298.209 543.842 298.909 547.142 296.909 546.542C295.609 546.042 292.509 541.742 293.509 541.742C293.909 541.742 295.109 542.242 296.209 542.742ZM382.709 543.942C382.409 545.242 382.109 546.842 382.109 547.542C382.109 548.442 381.109 548.742 379.409 548.542C377.209 548.342 376.509 547.642 376.309 545.542C376.009 543.342 376.409 542.842 378.809 542.442C380.309 542.242 382.009 541.942 382.509 541.842C382.909 541.842 383.109 542.742 382.709 543.942ZM308.409 545.242C308.309 545.742 306.609 546.642 304.609 547.142C301.709 547.942 300.809 547.842 300.009 546.642C298.409 544.042 299.009 543.642 303.909 543.942C306.509 544.142 308.509 544.642 308.409 545.242ZM367.109 545.742C367.109 546.242 366.509 546.742 365.709 546.742C364.909 546.742 363.909 546.242 363.609 545.742C363.309 545.142 363.909 544.742 365.009 544.742C366.209 544.742 367.109 545.142 367.109 545.742ZM340.709 551.242C343.109 553.042 341.409 553.142 338.109 551.242C336.509 550.342 336.209 549.842 337.209 549.742C338.009 549.742 339.609 550.442 340.709 551.242ZM304.809 556.242C305.709 558.642 304.709 558.942 303.309 556.742C302.509 555.442 302.509 554.742 303.109 554.742C303.709 554.742 304.409 555.442 304.809 556.242ZM317.509 557.842C319.109 559.242 317.309 560.142 312.509 560.142C308.709 560.242 307.709 559.842 307.109 558.142C306.309 556.142 306.509 556.042 311.409 556.542C314.309 556.742 317.009 557.342 317.509 557.842ZM356.109 563.342C356.709 564.742 357.109 566.242 357.109 566.742C357.109 567.942 349.709 565.642 344.609 562.942L340.609 560.842L347.909 560.742C354.809 560.742 355.209 560.842 356.109 563.342ZM366.109 566.242C367.109 567.442 367.109 567.742 365.709 567.742C364.809 567.742 364.109 567.042 364.109 566.242C364.109 565.442 364.309 564.742 364.509 564.742C364.709 564.742 365.409 565.442 366.109 566.242ZM312.909 569.242C312.609 569.542 312.009 569.042 311.709 568.042C311.109 566.642 311.209 566.542 312.209 567.442C312.909 568.142 313.209 568.942 312.909 569.242ZM317.109 569.642C317.109 570.142 317.409 571.442 317.709 572.442C318.209 574.042 318.109 574.042 316.709 572.342C314.909 570.042 314.709 568.742 316.109 568.742C316.709 568.742 317.109 569.142 317.109 569.642ZM327.109 570.742C329.009 571.942 328.109 572.742 323.809 573.442C320.909 573.842 320.109 573.642 319.209 571.842C318.109 569.842 318.309 569.742 321.809 569.742C323.909 569.742 326.309 570.142 327.109 570.742ZM376.009 576.342C377.209 578.242 378.109 580.142 378.109 580.442C378.109 580.742 374.609 580.742 370.409 580.542C364.709 580.242 361.109 579.342 356.909 577.342C353.709 575.842 351.109 574.442 351.109 574.242C351.109 574.042 353.509 574.142 356.409 574.342C359.209 574.642 363.409 574.442 365.609 573.942C372.609 572.242 373.709 572.442 376.009 576.342ZM327.509 585.642C326.809 586.342 324.109 582.842 324.109 581.342C324.209 580.742 325.109 581.342 326.209 582.642C327.309 583.942 327.909 585.342 327.509 585.642ZM333.709 582.842C337.609 582.542 339.109 584.442 335.909 585.642C334.209 586.242 333.309 586.042 332.309 584.842C331.109 583.342 331.009 583.442 331.509 584.942C332.209 587.342 330.409 587.242 329.109 584.842C327.809 582.242 327.809 581.442 329.309 582.342C330.009 582.842 332.009 583.042 333.709 582.842ZM338.109 596.942C338.109 597.542 337.409 597.442 336.609 596.742C335.809 596.042 335.109 595.042 335.109 594.542C335.109 593.942 335.809 594.042 336.609 594.742C337.409 595.442 338.109 596.442 338.109 596.942ZM342.109 596.242C342.809 597.142 343.109 598.042 342.809 598.442C342.009 599.142 339.109 596.942 339.109 595.642C339.109 594.242 340.709 594.542 342.109 596.242ZM346.909 596.542C347.209 597.442 346.709 597.842 345.509 597.542C344.609 597.442 343.609 596.642 343.309 595.942C343.009 595.042 343.509 594.642 344.709 594.942C345.609 595.042 346.609 595.842 346.909 596.542ZM349.609 608.542C349.009 609.242 346.109 606.742 346.109 605.442C346.109 604.942 347.009 605.242 348.109 606.242C349.209 607.242 349.909 608.242 349.609 608.542ZM354.109 608.942C354.109 609.542 353.409 609.442 352.609 608.742C351.809 608.042 351.109 607.042 351.109 606.542C351.109 605.942 351.809 606.042 352.609 606.742C353.409 607.442 354.109 608.442 354.109 608.942ZM359.109 607.742C359.109 608.242 358.509 608.742 357.709 608.742C356.909 608.742 355.909 608.242 355.609 607.742C355.309 607.142 355.909 606.742 357.009 606.742C358.209 606.742 359.109 607.142 359.109 607.742ZM972.809 620.542C973.609 623.542 974.009 626.142 973.809 626.442C973.209 626.942 969.109 614.942 969.109 612.842C969.209 610.142 971.209 614.442 972.809 620.542ZM360.609 616.842C361.709 618.542 360.509 618.942 359.109 617.242C358.309 616.342 358.309 615.742 358.909 615.742C359.509 615.742 360.309 616.242 360.609 616.842ZM366.209 617.342C367.309 618.742 367.209 618.842 365.109 618.542C363.809 618.442 362.609 617.642 362.309 616.942C361.809 615.242 364.609 615.442 366.209 617.342ZM1012.51 622.442C1013.41 624.942 1013.91 627.342 1013.61 627.542C1013.01 628.142 1010.11 621.342 1010.11 619.242C1010.11 616.642 1010.91 617.642 1012.51 622.442ZM1034.61 626.342C1036.71 634.542 1036.31 636.042 1033.51 630.242C1032.21 627.442 1031.11 623.442 1031.11 621.242C1031.21 616.242 1032.41 618.042 1034.61 626.342ZM415.109 624.842C415.109 626.342 410.909 625.842 408.909 624.042C406.509 621.942 406.609 620.942 409.409 620.542C411.509 620.142 415.109 622.842 415.109 624.842ZM406.509 623.242C408.209 625.842 408.209 625.842 405.409 625.142C403.909 624.742 401.709 623.942 400.609 623.442C398.709 622.442 398.809 622.242 401.609 621.642C403.309 621.242 404.709 620.942 404.709 620.842C404.809 620.842 405.609 621.842 406.509 623.242ZM493.509 626.542C492.909 630.242 492.309 631.042 487.509 633.742C482.009 636.842 469.109 642.042 469.109 641.142C469.109 640.942 468.209 641.142 467.009 641.742C465.409 642.642 464.509 642.542 462.809 641.142C461.609 640.142 461.209 639.942 461.909 640.742C463.509 642.542 463.409 643.742 461.809 643.742C460.109 643.742 456.709 640.142 457.809 639.442C458.209 639.242 461.109 638.242 464.109 637.242C470.209 635.342 484.609 628.142 490.109 624.342C492.009 623.042 493.709 622.042 493.909 622.242C494.009 622.342 493.909 624.342 493.509 626.542ZM1075.91 632.542L1075.61 638.242L1074.41 634.442C1073.11 630.142 1073.81 622.442 1075.31 625.142C1075.81 626.042 1076.11 629.342 1075.91 632.542ZM373.209 626.442C374.509 627.942 374.409 627.942 372.409 626.842C370.009 625.642 369.509 624.742 371.009 624.742C371.509 624.742 372.509 625.442 373.209 626.442ZM378.609 625.742C378.909 626.242 378.509 626.742 377.709 626.742C376.909 626.742 375.909 626.242 375.609 625.742C375.309 625.142 375.709 624.742 376.509 624.742C377.309 624.742 378.309 625.142 378.609 625.742ZM421.609 631.742C423.409 633.742 423.309 633.742 420.509 633.742C417.609 633.742 415.109 632.242 415.109 630.542C415.109 628.942 419.809 629.842 421.609 631.742ZM413.609 631.842C414.709 633.542 413.809 633.642 411.709 632.142C410.009 630.942 410.009 630.742 411.309 630.742C412.209 630.742 413.309 631.242 413.609 631.842ZM385.609 633.742C385.909 634.242 385.809 634.742 385.209 634.742C384.709 634.742 383.909 634.242 383.609 633.742C383.309 633.142 383.409 632.742 384.009 632.742C384.509 632.742 385.309 633.142 385.609 633.742ZM390.809 633.342C390.509 633.642 389.609 633.742 388.909 633.442C388.109 633.142 388.409 632.842 389.509 632.842C390.609 632.742 391.209 633.042 390.809 633.342ZM446.009 636.142C448.209 638.442 448.209 638.542 446.209 639.042C445.009 639.342 443.509 638.742 442.509 637.642C440.509 635.442 439.209 635.942 441.109 638.242C442.209 639.542 442.009 639.742 439.909 639.742C437.509 639.742 435.109 638.142 435.109 636.542C435.109 636.142 436.109 635.742 437.409 635.742C438.609 635.742 440.309 635.242 441.109 634.742C443.209 633.342 443.509 633.442 446.009 636.142ZM491.609 638.442C491.309 642.842 489.809 643.642 486.809 641.142C484.609 639.242 484.609 639.242 486.409 641.342C489.309 644.842 485.509 646.142 481.709 642.942C479.609 641.242 479.609 641.242 481.409 643.342C483.109 645.342 483.109 645.542 481.509 646.142C480.409 646.542 479.009 646.042 477.709 644.642C476.209 643.042 475.909 642.342 476.909 642.042C477.609 641.742 481.009 640.042 484.409 638.242C487.809 636.542 490.909 634.942 491.209 634.842C491.509 634.842 491.709 636.442 491.609 638.442ZM434.609 638.742C436.409 640.642 436.309 640.742 433.909 640.742C431.309 640.742 428.609 638.542 429.809 637.442C431.009 636.242 432.809 636.742 434.609 638.742ZM428.209 639.342C429.309 640.742 429.109 640.842 426.109 640.542C424.309 640.342 422.609 639.642 422.309 638.942C421.709 637.142 426.609 637.442 428.209 639.342ZM398.809 640.342C398.509 640.642 397.609 640.742 396.909 640.442C396.109 640.142 396.409 639.842 397.509 639.842C398.609 639.742 399.209 640.042 398.809 640.342ZM457.609 642.742C459.409 644.642 459.309 644.742 457.409 644.742C456.309 644.742 454.609 643.842 453.609 642.742C451.809 640.842 451.909 640.742 453.809 640.742C454.909 640.742 456.609 641.642 457.609 642.742ZM452.609 643.742C454.409 645.642 454.309 645.742 452.509 645.742C450.509 645.742 448.109 644.042 448.109 642.542C448.109 641.042 450.809 641.742 452.609 643.742ZM447.609 644.742C449.409 646.642 449.309 646.742 446.909 646.742C443.909 646.742 441.209 644.242 443.309 643.442C445.409 642.542 445.709 642.642 447.609 644.742ZM476.309 644.442C478.609 646.542 478.609 647.742 476.209 647.742C474.009 647.742 471.709 645.242 472.609 643.742C473.509 642.342 474.109 642.442 476.309 644.442ZM442.109 646.842C442.109 648.242 438.509 647.842 437.209 646.342C436.209 645.242 436.409 644.842 437.809 644.542C439.709 644.042 442.109 645.342 442.109 646.842ZM472.509 646.642C473.909 648.242 474.009 648.542 472.709 649.042C471.409 649.542 468.109 646.942 468.109 645.442C468.109 644.042 470.809 644.842 472.509 646.642ZM468.009 647.642C468.609 648.642 468.709 649.742 468.409 650.142C467.709 650.842 464.109 647.842 464.109 646.542C464.109 644.942 467.009 645.742 468.009 647.642ZM491.109 646.642C491.109 647.742 488.009 649.042 487.209 648.242C486.909 647.942 487.309 647.242 488.109 646.742C490.009 645.542 491.109 645.542 491.109 646.642ZM463.709 650.542C461.309 651.042 458.609 648.642 460.309 647.642C461.009 647.142 462.309 647.542 463.409 648.542C465.109 650.042 465.109 650.242 463.709 650.542ZM485.809 648.942C485.609 649.642 484.709 650.142 483.909 650.142C483.009 650.042 482.409 650.742 482.509 651.542C482.709 653.842 477.709 655.442 475.609 653.742C474.509 652.842 474.309 652.142 475.009 651.442C475.709 650.742 476.809 651.042 478.309 652.342C480.209 653.942 480.309 653.942 479.209 652.442C477.609 650.442 477.609 650.542 481.609 649.042C485.709 647.542 486.309 647.542 485.809 648.942ZM459.109 650.242C460.109 651.442 460.009 651.742 458.309 651.742C457.209 651.742 455.809 651.042 455.109 650.242C454.109 649.042 454.209 648.742 455.909 648.742C457.009 648.742 458.409 649.442 459.109 650.242ZM454.209 651.342C455.309 652.742 455.109 652.842 452.609 652.542C451.009 652.442 449.609 651.642 449.309 650.942C448.709 649.142 452.609 649.442 454.209 651.342ZM447.609 651.742C447.909 652.242 447.509 652.742 446.709 652.742C445.909 652.742 444.909 652.242 444.609 651.742C444.309 651.142 444.709 650.742 445.509 650.742C446.309 650.742 447.309 651.142 447.609 651.742ZM474.109 654.242C475.109 655.442 475.109 655.742 473.809 655.742C473.009 655.742 471.809 655.042 471.109 654.242C470.109 653.042 470.109 652.742 471.409 652.742C472.209 652.742 473.409 653.442 474.109 654.242ZM470.209 655.342C471.309 656.742 471.209 656.842 469.109 656.542C467.809 656.442 466.609 655.642 466.309 654.942C465.809 653.242 468.609 653.442 470.209 655.342ZM465.109 656.242C466.109 657.442 466.109 657.742 464.809 657.742C464.009 657.742 462.809 657.042 462.109 656.242C461.109 655.042 461.109 654.742 462.409 654.742C463.209 654.742 464.409 655.442 465.109 656.242ZM459.609 656.742C459.909 657.242 459.509 657.742 458.709 657.742C457.909 657.742 456.909 657.242 456.609 656.742C456.309 656.142 456.709 655.742 457.509 655.742C458.309 655.742 459.309 656.142 459.609 656.742ZM478.109 658.742C478.109 659.242 477.609 659.742 477.009 659.742C476.509 659.742 476.309 659.242 476.609 658.742C476.909 658.142 477.409 657.742 477.709 657.742C477.909 657.742 478.109 658.142 478.109 658.742ZM476.109 660.242C477.409 661.842 476.409 662.242 473.709 661.142C472.809 660.842 472.409 660.142 472.709 659.642C473.509 658.342 474.709 658.542 476.109 660.242ZM471.109 661.242C472.509 662.842 472.109 663.042 469.709 662.142C468.809 661.842 468.109 661.142 468.109 660.642C468.109 659.242 469.709 659.542 471.109 661.242ZM577.609 685.242C575.509 686.542 573.409 687.442 573.109 687.042C572.809 686.742 573.109 686.242 573.709 686.042C574.309 685.842 575.709 685.042 576.709 684.242C577.709 683.442 579.309 682.842 580.109 682.842C580.909 682.842 579.809 683.942 577.609 685.242ZM573.809 684.342C573.509 684.642 572.609 684.742 571.909 684.442C571.109 684.142 571.409 683.842 572.509 683.842C573.609 683.742 574.209 684.042 573.809 684.342Z" fill="white"/>
</svg>
