<svg xmlns="http://www.w3.org/2000/svg" fill="none" viewBox="0 0 1669 1240"><path fill="#fff" d="M1050.29 186.443l2.3 20.069c-3.68 2.274-6.69 4.214-10.03 6.087-1.23 1.03-2.67 1.783-4.22 2.208-12.47.836-24.95 3.345-37.43-.234-2.765-.527-5.324-1.838-7.37-3.776-2.046-1.939-3.492-4.425-4.166-7.162-1.405-5.084-3.813-10.034-5.519-14.984-2.743-8.061-1.84-16.423-.97-24.651.601-3.138 2.007-6.066 4.081-8.496 7.559-9.7 15.584-19.032 23.084-28.765 2.73-3.228 4.73-7.003 5.88-11.071 3.15-14.216 11.07-22.6445 25.93-23.9155 13.58-1.1707 27.12-2.5086 40.67-3.5789 5.06-.4233 10.14-.5462 15.22-.3679 4.76.2852 9.51.8211 14.22 1.6055 3.34.5017 6.69 1.4048 10.93 2.3413-3.04-7.4254-10.53-5.6192-14.48-9.3988-.9-9.265-.67-9.8002 5.25-12.0747 9.77-3.7461 12.41-3.3447 19.64 5.9872 5.08 6.6896-2.55 10.7702-4.79 16.7239 1.08.9336 2.28 1.7004 3.58 2.2744 16.33 4.9835 30.04 13.9815 44.09 22.7775 39.84 24.986 79.88 49.604 119.71 74.589 11.75 7.359 22.92 15.587 34.52 23.213 12.65 8.328 13.15 18.43 9.34 33.08-2.95 11.372-9.6 18.831-22.85 20.771 6.36 3.779 11.04 3.813 15.22-.368 6.69-6.69 14.05-13.647 14.28-24.116.13-7.386-.45-14.767-1.74-22.042-1.02-3.031-3.1-5.594-5.85-7.225-7.46-5.05-15.35-9.466-22.98-14.315-3.11-1.974-5.72-4.683-8.83-6.69-7.39-4.549-14.95-8.83-23.41-13.847 10.8-.301 8.19-9.199 10.7-15.085 6.45-.12 12.86.934 18.93 3.11.74.172 1.42.514 2 1 .57.486 1.03 1.102 1.32 1.796.29.695.42 1.449.36 2.201-.05.753-.28 1.482-.67 2.128-.37 1.276-.87 2.509-1.5 3.679-4.32 5.853-.77 11.339 1.1 16.724.84 2.442 3.61 4.014 6.92 1.472-.8-6.69-5.51-13.38-2.37-20.537 6.09-2.342 11.97-4.717 17.96-6.69 7.7-2.743 12.45 0 14.22 7.827 1.07 3.866 1.82 7.816 2.24 11.807.47 3.123-.01 6.316-1.37 9.165-4.95 7.258-1.07 13.379.67 20.068.94.067 1.88-.065 2.77-.389.88-.323 1.69-.83 2.36-1.486.68-.657 1.21-1.45 1.56-2.325.35-.876.5-1.815.46-2.757-.12-3.949-.82-7.858-2.07-11.606-1.7-5.653-1.94-7.359 2.94-10.035 4.79-2.869 10.03-4.915 15.49-6.054 7.13-1.304 11.11 3.68 10.27 10.904-.07 3.098.11 6.196.54 9.265-2.55 2.342-6.03 5.218-9.1 8.496-1.4 1.578-2.27 3.555-2.48 5.653-.37 5.452 7.26 15.085 12.68 16.021 3.34.569 7.16 1.238 9.53-2.308 2.38-3.545 4.59-7.157 2.54-11.171-2.04-4.014-3.11-8.329 0-12.677 1.73-2.402 3.97-4.383 6.56-5.797 2.6-1.413 5.48-2.221 8.43-2.364 5.49-.435 7.96 4.85 11.71 7.659 2.74 2.041 1.67 4.65.97 7.292-.63 2.051-.98 4.177-1.04 6.322.01 1.97-.46 3.912-1.37 5.659-.91 1.748-2.23 3.249-3.85 4.375-4.61 3.612-4.45 7.024.3 10.235 3.41 2.047 7.02 3.729 10.77 5.017.64.385 1.36.635 2.1.734.74.099 1.49.044 2.21-.159.71-.204 1.38-.553 1.96-1.026.58-.473 1.05-1.059 1.39-1.723 1.74-3.345 5.09-6.689 2.18-11.004-2.24-3.345-5.49-6.69-2.18-10.737 3.85-4.783 7.86-9.8 14.55-10.402 1.03.022 2.04.256 2.98.688.93.432 1.76 1.052 2.44 1.82 3.21 3.587 6.04 7.487 8.47 11.64.9 2.122 1 4.503.26 6.69-2.04 6.02-4.68 11.84-7.69 19.199 1.47 1.204 3.68 3.077 5.99 4.783 1.42.99 3.11 1.52 4.85 1.52 1.73 0 3.42-.53 4.85-1.52 2.77-2.475.73-4.984-.17-7.292-3.14-8.061-2.54-10.67 4.58-14.984 3.94-2.28 8-4.323 12.18-6.121 2.88-1.305 5.82-1.439 7.63 1.873 2.84 5.117 5.68 10.268 8.36 15.453 1 1.578 1.39 3.466 1.1 5.313-.29 1.847-1.24 3.525-2.67 4.721-1.68 1.737-3.17 3.643-4.45 5.686-.75.765-1.32 1.694-1.65 2.714-.33 1.02-.42 2.103-.26 3.163.16 1.061.56 2.07 1.18 2.948.61.878 1.42 1.601 2.37 2.112.45.3.91.568 1.4.803 4.15 2.241 8.16 5.987 13.38 2.542 5.22-3.445 2.54-8.261 1.97-12.476-1-7.659.34-10.034 7.7-11.907l4.65-1.104 4.88-1.271c6.19 3.579 7.03 10.335 6.89 15.988-.13 5.653-.73 12.443-8.23 16.289 2.88 3.345 5.02 6.188 7.63 8.596 2.61 2.408 6.22 3.345 8.63.669.89-1.09 1.52-2.377 1.82-3.754.3-1.378.28-2.808-.08-4.173-4.85-7.158 0-10.77 4.28-14.851l6.39-6.087c2.84-2.743 5.35-2.041 8.56 0 6.69 4.047 7.76 11.272 10.97 17.292.64 1.171-.53 3.345-1.23 5.118-2.08 4.582-4.35 9.098-6.39 13.379 5.32 8.061 5.32 8.061 16.29 6.99 1.9-3.879-.47-7.157-2.14-10.268-.42-.606-.71-1.288-.85-2.007-.15-.719-.15-1.46-.01-2.179.15-.72.43-1.403.84-2.011.41-.608.94-1.128 1.55-1.529.19-.196.41-.364.64-.502 4.28-2.375 8.46-8.028 13.38-4.516 4.92 3.512 10.04 8.362 8.86 15.922-.26 1.806-.26 3.645-.43 5.953 3.71.602 7.19-1.839 10.6 1.204 4.42 3.981 8.06 7.292 5.49 14.115-1.74 4.516-.47 5.62 4.15 6.255 9.5 1.271 9.5 1.271 9.6 10.737.15 1.333.15 2.68 0 4.014-.94 4.08 1.23 6.288 4.31 8.495 8.83 6.288 9.13 7.024 4.92 17.159-1.35 2.475-1.9 5.31-1.57 8.11.34 2.8 1.54 5.425 3.44 7.51 1.94 2.017 3.28 4.534 3.87 7.269.59 2.735.41 5.58-.52 8.217-.54 3.632-.24 7.338.87 10.838.68 2.585 1.81 5.03 3.34 7.224 1.62 2.278 2.45 5.018 2.38 7.81-.07 2.793-1.05 5.486-2.78 7.677l-4.88-1.639c-3.82 3.846-.84 7.592.53 11.037 1.05 2.425 1.29 5.122.69 7.694-.6 2.572-2.02 4.882-4.03 6.589l-7.09-5.82c-3.12.769-5.36 2.04-3.05 5.887.96 1.614 2.08 3.127 3.35 4.515 5.45 5.92 4.65 12.409 2.4 19.433-2.24 7.024-7.42 10.035-14.14 11.64-3.35-2.843-1.91-6.322-.84-9.499.77-2.136.96-4.439.55-6.672-.41-2.234-1.41-4.317-2.89-6.038-.28-.546-.68-1.018-1.18-1.375-.49-.356-1.07-.587-1.67-.673-.61-.085-1.22-.023-1.8.182-.57.206-1.09.547-1.51.996-2.51 2.241-4.61 4.917-7.36 7.86l8.47 8.463c4.01 4.114 4.71 6.99.77 11.037-5.89 5.786-12.12 11.204-18.67 16.223-1.61.968-3.48 1.402-5.35 1.237-.67.078-1.36-.051-1.95-.37-.6-.318-1.09-.812-1.4-1.414-.32-.602-.44-1.285-.35-1.958.08-.673.37-1.305.82-1.81 1.72-2.424 3.68-4.666 5.86-6.69 3.34-3.345 2.51-6.689.43-10.034-2.57-4.315-5.95-6.322-9.7-5.653-.94.034-1.86.287-2.69.74-.83.454-1.54 1.094-2.08 1.871-.53.777-.88 1.668-1.01 2.602-.13.935-.04 1.887.26 2.781 1.21 6.221 2.78 12.376 4.42 18.53.73 2.71 1.54 5.352-.91 7.392-7.86 6.489-15.75 13.045-27.09 10.035-2.04-3.044 0-5.218 1.44-7.292 1.12-1.154 2.32-2.216 3.61-3.178 1.17-.97 2.09-2.215 2.66-3.623.57-1.408.79-2.937.63-4.449-.16-1.513-.69-2.963-1.54-4.221-.86-1.259-2.01-2.286-3.35-2.992-.82-.423-1.71-.674-2.63-.737-.91-.063-1.83.062-2.69.369-4.05 1.806-7.83 4.214-12.25 6.689 2.01 3.345 3.35 5.921 4.99 8.362 1.64 2.442 3.11 4.349 4.41 6.69 3.65 6.322 2.51 10.837-4.01 13.647-6.52 2.809-12.98 4.883-19.53 7.091-1.59.58-3.31.696-4.96.334-1.63-.435-3.81-1.338-4.34-2.609-.54-1.271.87-3.345 2.04-4.382 2.77-2.475 5.95-4.515 8.93-6.689 1.16-.693 2.02-1.792 2.41-3.083.4-1.292.3-2.684-.27-3.908-1.17-2.91-2.54-4.983-6.22-5.218-5.34-.555-10.71.618-15.32 3.345-3.35 2.041-7.03 4.148-6.36 8.362.67 4.215.77 9.499 6.69 11.673 5.09 1.807 5.45 5.185 1.77 9.232-1.5 1.882-3.44 3.364-5.65 4.315-8.06 2.776-16.22 5.218-24.42 7.559-1.78.537-3.69.442-5.42-.268-1.73-.903-3.88-2.776-4.04-4.415-.17-1.639 2-3.344 3.34-4.85.47-.568 1.44-.635 2.18-.97 9.63-4.448 10.73-8.897 4.71-18.764-9.16 2.77-17.12 8.558-22.58 16.423l9.5 6.69c-.7 4.214-2.17 7.559-6.28 8.796-13.38 4.048-26.76 9.6-41.11 10.035-4.45 0-7.86-1.372-7.93-4.549-.09-1.659.47-3.288 1.56-4.539 1.1-1.25 2.64-2.022 4.29-2.151 2.11-.435 4.25-.568 6.36-.97 1.74-.379 3.38-1.133 4.81-2.21 1.42-1.076 2.59-2.45 3.43-4.025.84-1.575 1.33-3.314 1.43-5.096.1-1.783-.19-3.565-.84-5.225-.62-.753-1.39-1.358-2.27-1.769-.88-.411-1.84-.618-2.82-.606-4.98 0-10.03 1.037-14.98 1.137-6.44.036-12.77 1.619-18.47 4.616-2.07 1.153-3.8 2.839-5.01 4.883-.62.814-.99 1.787-1.08 2.804-.08 1.017.13 2.037.6 2.942.47.904 1.19 1.656 2.08 2.166.88.511 1.89.76 2.91.718 3.35.171 6.69.171 10.04 0 2.24 3.474 3.03 7.688 2.21 11.74-28.2 6.991-40.65 7.827-49.74 3.345-.57-5.787 3.94-7.125 7.96-8.128 4.41-1.02 8.41-3.352 11.47-6.69-1.68-2.881-3.76-5.506-6.19-7.793-2.64-2.125-5.91-3.303-9.3-3.345-4.96 1.021-9.78 2.65-14.35 4.85-4.28 1.639-4.98 3.345-2.87 7.359 1.35 2.51 3.26 4.673 5.58 6.321 4.48 3.078 5.15 5.921 1.04 9.132-1.85 1.506-4.11 2.405-6.49 2.575-11.74 0-23.41 0-35.26-.301-1.6-.014-3.17-.496-4.51-1.387-1.33-.891-2.38-2.153-3.01-3.63 5.25-5.653 14.28-3.345 19.03-9.299-2.27-7.559-2.71-8.295-9.1-7.458-6.05.896-12.03 2.226-17.89 3.98-.84.28-1.59.754-2.21 1.381-.61.628-1.07 1.392-1.34 2.231 0 1.238 1.61 3.345 3.01 3.947 2.51 1.238 5.39 1.94 4.25 5.519-.52 1.69-1.57 3.171-2.99 4.228-1.42 1.058-3.13 1.639-4.9 1.659-9 .468-18.03.635-27.06.568-1.44 0-3.85-1.538-4.05-2.709.02-.877.24-1.738.64-2.519.4-.781.97-1.463 1.67-1.996 1.63-.909 3.45-1.435 5.31-1.539 2.75-.468 4.55-1.873 4.59-4.683 0-3.344-2.58-4.515-5.39-4.716-9.02-.531-17.98 1.811-25.59 6.69l6.86 6.188c2.94 2.642 2.84 4.95-.3 6.957-5.82 3.679-30.41 5.218-36.59 2.207-.81-6.054 5.88-5.184 7.99-8.462-2.78-5.954-2.81-6.021-8.46-5.084-5.7.792-11.26 2.356-16.53 4.649l8.87 5.452c-.52 1.992-1.63 3.78-3.18 5.134-1.55 1.354-3.48 2.211-5.52 2.459-5.44 1.27-10.94 2.241-16.49 2.91-1.01.08-2.03-.071-2.97-.442-.95-.371-1.8-.952-2.48-1.699-1.04-2.072-1.27-4.459-.64-6.689.47-1.807 2.41-3.345 3.58-4.65-1.4-4.616-4.98-4.549-8.03-4.281-8.01.885-15.68 3.785-22.27 8.429l.3 1.839 14.45 1.874c-.67 1.639-.77 3.344-1.61 3.813-12.74 9.164-27.26 10.603-42.38 10.034-1.2-7.459 6.26-7.793 8.63-11.807-6.69-4.649-10.23-4.014-18.73 3.11l3.01 6.356c-.2.635-.23 1.672-.77 2.04-2.41 2.011-5.02 3.771-7.79 5.251-10.44 4.85-21.68 5.285-32.88 5.519-1.32-.211-2.58-.64-3.75-1.271.87-8.897 9.57-7.593 14.38-11.506-5.35-6.054-11.67-2.843-17.29-1.873-5.62.97-12.64 1.84-16.29 7.994 3.91 5.084 11.71-.268 14.38 7.492-2.22 2.042-4.79 3.673-7.59 4.817-12.01 2.508-24.15 4.415-36.23 6.489-.7 0-1.5-.368-2.37-.602-1.47-5.352 4.08-6.924 5.92-11.072-3.56-1.988-7.58-2.996-11.65-2.92-4.07.077-8.05 1.235-11.53 3.355 1.04 4.984 4.82 4.181 7.66 5.118 4.15 1.404 5.05 6.154 1.17 7.76-8.23 3.344-16.72 7.86-25.99 3.946-.985-.567-1.904-1.24-2.743-2.006 1.237-2.743 2.375-5.319 3.746-8.429-7.091-3.345-13.112-1.405-19.635 1.304 2.074 5.218 8.129 3.345 10.704 7.191-1.238 7.961-8.63 7.392-13.982 9.098-3.869 1.448-8.066 1.783-12.116.967-4.05-.815-7.79-2.75-10.797-5.583l7.125-7.458c-8.329-.803-15.755-1.506-24.084 4.247l8.53 4.014c-1.338 6.255-3.612 8.563-10.035 8.262-6.422-.301-13.714-1.539-20.471-2.342.201-4.983.201-4.983 5.921-10.034-2.315-.049-4.628.176-6.891.669-3.713 1.606-7.258 3.612-11.607 5.853l5.72 5.62c-8.63 4.214-17.126 6.689-26.124 3.344-2.375-.836-3.813-4.348-5.987-7.057-4.951 8.262-14.049 8.73-23.047 9.432-1.582.288-3.202.288-4.783 0-1.372-.401-3.613-1.639-3.579-2.408.321-1.69 1.149-3.241 2.374-4.449.603-.735 1.941-.802 2.877-1.337.632-.438 1.205-.955 1.706-1.539-5.619-3.144-7.994-2.943-15.353 1.338l4.281 6.455c-6.121 5.887-20.973 8.831-27.428 5.017-1.606-.903-2.108-3.679-3.345-6.221l9.131-2.876c-1.07-1.171-1.772-2.643-2.508-2.676-4.951 0-10.035.368-14.885.334-3.78 0-7.225.803-8.664 4.482-2.441 6.121-7.024 6.422-12.376 5.452l-6.355-1.17 3.345-8.496c-2.459-.935-5.103-1.277-7.719-.998-2.615.279-5.128 1.171-7.334 2.603-5.151 2.676-10.335 4.516-15.988 1.673-2.033-.989-3.878-2.325-5.453-3.947-2.91-3.178-4.649-3.612-7.927-1.137-8.195 6.154-13.38 4.716-17.528-5.553-3.947 1.104-8.095 1.974-12.042 3.345-7.191 2.709-10.77.937-12.309-6.689-.369-1.149-.828-2.268-1.371-3.345-1.479.589-2.883 1.353-4.182 2.274-.581.754-1.316 1.374-2.157 1.821-.84.446-1.766.709-2.716.769-.95.06-1.902-.083-2.792-.42-.89-.337-1.698-.86-2.369-1.534-1.028-.854-2.288-1.38-3.617-1.511-1.33-.131-2.668.139-3.843.775-3.189 1.024-6.472 1.729-9.8 2.107-.368-3.947-.669-7.258-1.037-11.573-5.185-.368-10.035-.836-15.086-1.003-6.288-.201-11.339-2.107-13.982-8.429.77-.836 1.238-1.773 1.84-1.873 9.667-1.673 19.367-3.713 28.733 1.572 1.673.779 3.508 1.146 5.352 1.07h22.98c1.973 4.783 6.69 5.452 12.209 6.523 8.297 1.228 16.758.727 24.853-1.472 2.157-.219 4.331-.219 6.489 0 1.171 2.776 2.174 5.184 3.178 7.492 1.88.784 3.935 1.058 5.955.794 2.021-.264 3.935-1.057 5.551-2.299 5.854-3.98 9.065-3.111 14.751 1.204 3.114 1.91 6.586 3.162 10.202 3.679 2.177.079 4.353-.169 6.456-.735v-1.639l-7.058-3.713c6.423-5.385 13.38-4.382 20.07-3.914.515.104.999.328 1.411.653.413.326.743.744.964 1.221 1.271 3.679 3.98 3.746 7.091 3.344 3.111-.401 6.857-.836 10.035-1.237 2.609-4.148-2.107-3.847-3.345-5.653 6.69-6.689 25.188-7.459 34.654-.736l-7.459 5.285.2 1.371 18.832-1.304c0-1.505 0-2.241-.234-2.375-1.94-1.07-5.251-.635-4.884-4.181.368-3.545 3.646-3.345 6.122-3.813 9.299-1.204 13.814.836 21.575 9.466 5.184-.569 10.402-.937 11.473-8.128.234-1.572 2.207-2.877 3.679-4.649-5.051-2.776-6.154-7.258-5.653-12.71.402-4.75 0-9.566 0-14.316-.235-2.897.071-5.812.903-8.596 5.396-11.379 11.822-22.239 19.2-32.445 3.345 3.813 6.423 6.69 8.864 10.035 1.559 2.19 3.683 3.916 6.145 4.994 2.462 1.078 5.171 1.467 7.837 1.127l27.763-1.137c4.683 10.301 7.159 20.737 1.271 31.741-1.256 2.615-2.373 5.295-3.344 8.028-2.108 5.184-2.877 5.552-8.53 4.248-2.107-.502-4.282-.769-7.259-1.271 1.138 4.281 1.94 7.225 2.977 11.104l12.912-1.271c.836-3.344.635-7.391 2.375-8.629 1.795-1.593 4.008-2.641 6.378-3.02s4.799-.074 7.002.879l1.839 6.924h8.496l-3.98-4.382c-.529-.498-.931-1.116-1.17-1.802-.239-.686-.309-1.42-.204-2.139.105-.719.382-1.402.808-1.991.425-.589.987-1.067 1.636-1.393 6.69-4.515 23.616-7.893 32.446-6.522 1.77 5.318-4.917 4.649-6.288 9.298l14.648-1.839c-.67-2.843-1.2-4.984-1.97-8.162 5.02-1.137 9.6-2.307 14.25-3.177 4.65-.87 8.49.368 9.53 6.188 7.43-1.472 15.02-1.305 20.94-6.489-.9-3.345-7.56-2.676-5.28-6.89 1.17-2.108 5.28-2.877 8.22-3.713 3.63-.95 7.32-1.632 11.04-2.04 1.44-.376 2.96-.302 4.35.213 1.4.514 2.6 1.444 3.45 2.663 1.57 2.509 3.81 2.509 6.32 2.275 5.75-.536 11.71-.301 17.23-4.215-.85-.996-1.63-2.046-2.35-3.144-1.74-3.345-1.23-6.255 2.18-7.057 6.81-1.592 13.75-2.621 20.74-3.078 5.15-.301 3.98 4.549 4.55 8.463 8.69 1.873 16.29-2.542 24.45-3.011l.2-1.973-8.5-3.345c-1.3-2.743-.4-4.549 2.48-5.385 5.15-1.539 10.23-3.144 15.42-4.382 4.35-1.036 6.15.603 8.86 7.794l17.23-4.75-9.07-5.552c4.52-6.121 16.73-8.295 26.76-4.984.27 2.944.54 6.054.91 10.035 8.89 0 17.79 2.14 26.02-5.285-5.22-2.241-11.54 3.044-14.18-4.014 5.11-7.626 23.78-13.981 36.79-12.108-1.6 3.345-3.08 6.489-5.02 10.569 7.6 1.572 14.29-.602 20.91-1.471 2.39-.762 4.65-1.89 6.69-3.345l-.5-1.973c-3.55.184-7.1.184-10.64 0-1.57-.201-3.91-1.472-4.21-2.676-.3-1.204 1.27-3.111 2.3-4.482.63-.736 1.46-1.28 2.38-1.572 6.84-2.211 13.81-3.998 20.87-5.352 8.53-1.238 10.47 1.906 7.19 10.034-.21.725-.38 1.462-.5 2.208 7.26 4.382 18.57 1.906 26.76-5.92-4.31-4.349-12.21 1.806-15.92-6.155 1.79-1.585 3.78-2.924 5.92-3.98 7.02-2.542 14.18-4.783 21.34-6.69 4.85-1.371 5.69-.869 11.04 3.813l-6.22 7.693c1.94 3.68 4.95 3.145 7.82 2.676 6.33-1.07 12.61-2.375 18.94-3.345 1.79-.328 3.47-1.117 4.86-2.29 1.4-1.173 2.47-2.689 3.1-4.399l-6.69.468c-4.79.335-9.57.87-14.35 1.004-.67.09-1.36.036-2.01-.159-.65-.196-1.25-.528-1.76-.975-.51-.447-.92-.998-1.2-1.616-.27-.618-.42-1.288-.42-1.967.17-.992.55-1.934 1.13-2.756.58-.823 1.34-1.504 2.22-1.993 10.59-5.861 22.63-8.598 34.72-7.894 8.23.669 9 1.974 6.19 9.834-1.58 4.281.5 7.024 5.08 5.653 5.52-1.921 10.93-4.155 16.19-6.69-.4-4.683-3.04-5.72-6.69-5.82-3.65-.1-7.09-.334-8.33-5.853 2.06-1.766 4.3-3.302 6.69-4.583 6.13-2.638 12.39-4.95 18.77-6.923 7.89-2.375 10.03-.602 11.13 8.529-1.94 2.642-7.76 2.04-6.68 7.425 3.07 1.827 6.65 2.585 10.2 2.155 3.55-.429 6.85-2.022 9.4-4.53 3.34-3.579 2.64-6.923-1.88-8.763-3.07-1.271-6.32-2.207-10.9-3.746 2.27-2.776 3.34-5.151 5.12-6.054 5.66-2.995 11.53-5.588 17.56-7.76 1.2-.39 2.47-.496 3.72-.31s2.43.658 3.47 1.38c.47 1.179.67 2.445.6 3.711-.08 1.266-.43 2.5-1.04 3.614-1.53 3.345-5.45 5.72-1.74 9.7 3.72 3.981 7.03.803 10.37-.267 4.07-1.28 8-2.949 11.74-4.984 1.48-.836 3.12-3.546 2.71-4.817-.4-1.271-2.97-2.642-4.78-2.976-1.81-.335-4.35.936-6.25.368-1.95-.662-3.55-2.054-4.49-3.88-.21-.84-.21-1.72 0-2.56.21-.84.63-1.616 1.21-2.257 8.92-6.815 19.43-11.257 30.54-12.911.73 0 1.5.435 2.17.636 4.65 7.592-3.98 13.379-2.44 20.637 3.6-.127 7.14-.964 10.42-2.462 3.28-1.498 6.23-3.628 8.68-6.268-2.07-1.94-4.15-3.846-6.19-5.82-5.89-5.619-6.12-9.332 0-14.616 3.15-2.444 6.69-4.333 10.47-5.586 4.92-1.907 10.04-3.178 15.92-4.984 5.82-9.599 9.34-10.034 19.54-1.137 2.34-5.619 2.31-7.325-1.94-10.67-8.26-6.69-9.27-14.583-6.89-24.317 1.3-7.057 2.09-14.2 2.34-21.373.14-1.35-.25-2.702-1.1-3.765-.84-1.064-2.07-1.753-3.42-1.921-1.8-.502-3.61-1.037-5.45-1.371-6.69-1.238-8.43 0-9.43 6.689-1.07 7.392-2.14 14.784-2.51 22.243-.27 5.887 1.34 7.426 6.69 9.165 8.06 2.508 9.87 6.89 6.52 14.683-6.15-.501-12.14-1.271-18.13-1.404-2.68.096-5.32-.672-7.53-2.189-2.21-1.518-3.87-3.705-4.74-6.24-3.82-8.83-5.99-17.594-2.95-27.227 1.36-4.899 2.24-9.917 2.64-14.984.44-2.339.2-4.754-.7-6.958-1.27-2.544-3.39-4.566-5.99-5.719-3.34-1.07-3.74 2.91-5.31 4.883-3.62 4.583-7.1 9.265-11.04 13.379-2.93 2.382-4.82 5.815-5.25 9.566.35 8.913 2.25 17.697 5.62 25.956 14.25-.769 15.28.468 13.04 14.215-5.22.636-10.4 1.405-15.62 1.94-5.22.535-14.62-6.689-15.32-13.212-.86-9.003-1.12-18.054-.77-27.092.27-10.035 1.27-19.701 1.97-29.568.31-3.847-.43-6.69-4.91-7.727-5.66-1.204-9.7 0-11.71 4.148-1.14 2.07-1.87 4.342-2.14 6.689-.6 12.811-.97 25.622-1.27 38.432-.15 1.591.16 3.192.88 4.618.72 1.426 1.83 2.619 3.2 3.443 6.25 4.081 7.43 8.696 5.25 17.259-20.67.301-28.5-14.383-28.36-31.575 0-7.124-.31-14.282-.67-21.406-.37-7.125-1.31-14.918-1.47-22.41.15-.978.09-1.976-.16-2.933-.25-.957-.7-1.852-1.31-2.63-.61-.778-1.37-1.421-2.24-1.891-.87-.47-1.83-.757-2.82-.841-4.08-.87-8.13-3.847-11.91-.268-3.78 3.579-8.19 8.094-7.52 14.383 1 9.566 2.17 19.132 3.68 28.597.06 1.768.7 3.468 1.81 4.839 1.12 1.371 2.66 2.338 4.38 2.754 1.53.162 3.02.628 4.38 1.37 1.35.742 2.55 1.745 3.51 2.953.97 1.207 1.68 2.593 2.11 4.079.42 1.486.55 3.041.37 4.576 0 3.345.33 6.689.53 10.034-17.19 3.579-22.44-2.642-26.96-12.81-.97-2.208-2.37-4.215-3.34-6.422-2.06-4.589-3.61-9.389-4.62-14.316-1.61-13.379-2.64-26.591-3.61-39.903-.26-3.387-1.41-6.645-3.33-9.447-1.92-2.801-4.55-5.046-7.61-6.508-3.24 2.314-6.35 4.816-9.3 7.493-1.41 1.515-2.23 3.485-2.31 5.552-.56 10.702.56 21.426 3.35 31.775 1.21 4.094 3.02 7.983 5.38 11.54 1.96 2.094 4.43 3.649 7.16 4.515 3.03 1.083 5.6 3.161 7.3 5.895 1.69 2.734 2.41 5.962 2.03 9.157-1.27 7.425-6.89 10.034-13.38 5.92-2.9-1.91-5.94-3.598-9.1-5.051-2.61-1.065-4.92-2.752-6.74-4.914-1.81-2.163-3.07-4.736-3.66-7.495-3.84-15.821-7.96-31.575-11.24-47.496-1.08-7.138-1.53-14.356-1.37-21.574.06-2.121-.56-4.206-1.76-5.955-1.2-1.748-2.93-3.071-4.93-3.778-3.91-1.672-7.73-3.779-11.77-5.05-5.72-1.807-8.23 0-7.6 6.221 1.11 14.487 6.22 28.382 14.76 40.137 2.57 3.345 5.65 6.456 8.09 10.035 5.15 7.425 2.74 14.315-5.22 16.155-1.27.486-2.67.485-3.93-.003-1.27-.489-2.31-1.429-2.93-2.64-2.11-3.698-4.03-7.505-5.75-11.405-3.95-9.366-6.42-19.567-11.71-28.029-6.09-10.023-9.66-21.374-10.4-33.08-.12-2.155-.7-4.258-1.72-6.164-1.01-1.906-2.42-3.569-4.14-4.876-1.72-1.307-3.7-2.226-5.8-2.693-2.11-.468-4.29-.473-6.4-.014-2.91.501-5.32 1.672-8.06-.87-1.81-1.395-3.29-3.163-4.34-5.184-1.06-2.021-1.67-4.246-1.78-6.523.3-4.274.9-8.521 1.8-12.71 10.04-2.074 17.33 6.021 28.07 5.285-6.43-4.021-13.37-7.149-20.64-9.299-2.71-1.003-5.79-1.103-8.53-2.073-12.51-4.516-23.98-3.345-34.59 5.184-2.21 1.474-4.73 2.445-7.36 2.843-5.45 1.271-10.97 2.375-16.49 3.345-2.87.501-5.8.568-8.69.201-5.96-.937-7.2-2.275-7.83-8.262-1.17-10.603-2.14-21.206-3.35-31.809 0-1.07-.3-2.141-.43-3.345-.15-3.915-1.69-7.649-4.35-10.521-2.67-2.873-6.27-4.694-10.17-5.132-10.74-1.974-21.37-4.583-32.04-6.891-8.97-1.591-18.19-.806-26.76 2.275-6.86 2.107-13.78 4.181-20.54 6.689-2.82.934-5.28 2.726-7.03 5.125s-2.71 5.285-2.74 8.255c-.4 4.448-2.27 8.729-3.11 13.178-.36 2.393-1.58 4.574-3.42 6.141-1.84 1.567-4.19 2.416-6.61 2.388-5.39.201-11.71.468-15.06-5.318-3.36-5.757-6.32-11.748-8.83-17.928-1.87-4.716.34-8.195 5.79-9.299 2.92-.31 5.73-1.332 8.16-2.976 2.44-1.645 4.44-3.861 5.82-6.456 2.88-5.552 2.31-9.666-3.64-12.141-5.76-1.965-11.62-3.596-17.56-4.884zm536.09 206.775c-1.82-3.76-3.91-7.382-6.26-10.838-2.91-3.746-5.82-3.879-8.46 0-3.24 5.162-6.04 10.588-8.36 16.223-.86 2.102-1.03 4.419-.5 6.627.52 2.207 1.73 4.194 3.44 5.681 1.71 1.28 3.8 1.938 5.93 1.865 2.13-.073 4.17-.872 5.78-2.266-2.61-7.76 1.97-12.844 8.43-17.292zm-219.7-141.083c2.55 2.053 4.3 4.932 4.95 8.139.65 3.208.15 6.54-1.4 9.421-.5 1.237-1.24 2.341-1.67 3.612-1.74 5.285-3.55 10.536-4.99 15.921-.32.81-.45 1.681-.4 2.55.06.869.31 1.714.74 2.473.43.76 1.02 1.415 1.73 1.917.71.503 1.52.84 2.38.987-.73-10.541 1.81-21.052 7.26-30.103 1.67-2.876 2.98-5.184 6.89-5.652 3.91-.468 5.52-3.579 4.72-7.526-.35-1.328-.97-2.569-1.82-3.642-.86-1.072-1.93-1.953-3.15-2.584-1.21-.631-2.55-.999-3.92-1.079-1.37-.079-2.74.13-4.02.615-2.55 1.47-4.99 3.125-7.3 4.951zm-298.83-100.344c-4.95-13.379-24.25-34.518-33.12-36.792-4.15 9.599-3.51 11.573 5.19 16.322 1.86.994 3.66 2.111 5.38 3.345 7.19 5.385 14.38 10.871 22.55 17.058v.067zm345.46 114.191c-1.57 6.121-2.94 10.57-3.84 15.119-1.78 9.097-3.65 18.162-4.75 27.36-.61 5.05.77 5.954 5.98 6.924.38-4.723.33-9.47-.16-14.182-1.24-5.199-.39-10.677 2.37-15.253 2.64-4.348 3.35-10.034 9.7-11.639.6-.106 1.18-.345 1.68-.699.5-.355.91-.817 1.21-1.353.3-.535.47-1.13.51-1.742.04-.611-.06-1.224-.29-1.792-.39-1.43-1.28-2.675-2.51-3.514-1.22-.838-2.7-1.217-4.18-1.068-1.96.4-3.87.994-5.72 1.772v.067zm114.9 35.455c.27 4.515 1.67 8.362.44 10.904-3.35 6.489-3.35 13.379-4.22 20.068-.37 3.111-.6 6.958 3.55 8.697.3-.602.5-.803.5-1.037v-4.783c.23-10.703.57-21.239 12.14-27.026.66-.342 1.23-.849 1.64-1.474.4-.624.64-1.344.69-2.089.05-.745-.1-1.489-.42-2.16-.33-.671-.83-1.246-1.44-1.669-2.51-1.494-5.35-2.333-8.26-2.442-1.81.101-3.68 2.308-4.62 2.944v.067zm52.08 17.526c-1.4 2.777-1.94 5.62-3.64 6.891-4.55 3.102-7.97 7.582-9.78 12.778-1.81 5.196-1.9 10.835-.26 16.087 1.37-.568 3.65-.869 3.85-1.706 1-4.248 3.51-8.228 2.14-13.078-.15-1.116-.06-2.25.25-3.332.31-1.082.84-2.088 1.55-2.956 5.19-6.69 6.93-6.89 14.89-4.482.4 0 1-.301 1.47-.502 1.71-6.89 1.71-6.89-10.47-9.766v.066zm-87.74-7.994c4.15-6.522 7.43-11.539 10.61-16.723.79-1.102 1.15-2.448 1.04-3.797-.12-1.349-.71-2.612-1.68-3.562-.93-.997-2.21-1.601-3.57-1.688-1.36-.087-2.7.349-3.75 1.22-3.35 2.107-6.26 4.649-8.37 6.254 1.94 6.188 3.52 11.139 5.72 18.296zM923.913 599.758c-.234-.469-.435-.97-.669-1.472l-30.104 6.422.201 1.371 9.767 1.74-.87 7.525L919.164 612c-.77-2.877-1.305-4.783-1.74-6.422l6.489-5.82zm526.127-302.301c1.37-3.145 2.89-6.215 4.58-9.199 2.01-3.344 4.52-6.221 7.46-10.235-3.55-1.454-7.24-2.574-11-3.344-1.1-.192-2.24-.066-3.27.365-1.03.431-1.91 1.147-2.55 2.065-.64.918-1 1.999-1.04 3.115-.04 1.116.24 2.221.8 3.184 1.98 4.148 3.31 8.898 5.09 13.982l-.07.067zm46.26 222.728c-1.64-6.187-2.91-12.375-5.05-18.295-1.18-2.624-3.09-4.846-5.52-6.389-.68-.616-1.5-1.06-2.39-1.292-.89-.233-1.82-.248-2.71-.045-.9.203-1.73.62-2.43 1.213-.71.594-1.25 1.348-1.6 2.198 3.62 2.196 6.7 5.175 9.01 8.717 2.32 3.542 3.81 7.558 4.37 11.753.5 3.211 2.98 4.08 6.32 2.14zm121.36-127.101c4.08 4.014 7.42 7.024 10.36 10.335 2.95 3.311 5.59 7.158 9.37 12.041.45-3.806.14-7.664-.92-11.347-1.06-3.682-2.86-7.114-5.27-10.093-2.94-3.645-7.79-3.98-13.61-.836l.07-.1zM1572.2 446.4c-3.68 4.047-7.56 6.689-7.19 10.703.9 6.246 2.18 12.433 3.81 18.53 2.84-8.998 8.93-17.493 3.31-29.133l.07-.1zm-176.95 92.182c1.61-4.382 2.94-7.225 3.71-10.235.48-2.217.2-4.531-.8-6.566s-2.67-3.67-4.72-4.639c-2.19-.549-4.51-.238-6.49.869-2.44 1.472-1.8 3.914-.33 6.255 2.64 4.281 5.08 8.596 8.56 14.416l.07-.1zm145.07-99.775c-2.38 2.542-4.11 4.114-5.49 5.954-1.06 1.522-1.53 3.379-1.33 5.224.2 1.846 1.07 3.555 2.44 4.81 2.17 2.074 4.28 1.371 6.39 0 .82-.421 1.55-1.004 2.14-1.713.59-.71 1.03-1.531 1.29-2.415.27-.884.35-1.812.25-2.729-.1-.917-.39-1.805-.84-2.609-1.5-2.245-3.14-4.39-4.92-6.422l.07-.1zm-101.89 90.075c5.19-3.713 4.99-7.994 3.75-12.677-1.74-6.455-4.05-7.191-9.67-2.876l5.92 15.553zm171.83-89.64c1.68-5.218 2.14-10.704-2.21-15.353-2.37-2.575-5.28-4.917-8.99-3.345l11.2 18.698zm-88.71 39.602c1.71 7.559 3.35 14.449 4.85 21.641.91-5.452 2.15-10.637 2.58-15.855.44-5.217-1.1-6.054-7.49-5.686l.06-.1zm-66.89-155.465c0-8.028-3.01-14.818-5.12-21.808-3.61 10.268-1.84 17.727 5.05 21.908l.07-.1zm127.1 98.403c-5.78 2.509-7.39 5.452-6.69 12.443 7.9-.669 9.9-4.416 6.63-12.343l.06-.1zm-231.83 124.693c.76-2.174 1.97-3.779 1.63-4.916-.78-3.075-2.11-5.986-3.91-8.596-.38-.594-.9-1.085-1.51-1.433-.61-.348-1.3-.542-2.01-.565-.7-.023-1.4.125-2.03.433-.64.307-1.19.763-1.61 1.33 3.01 4.583 5.92 9.031 9.37 13.848l.07-.101zm-227.63 24.886c-4.55 6.689-3.34 9.566 4.95 11.907-1.3-4.047-.63-8.429-5.01-11.807l.06-.1zm483.21-223.599c-5.05 6.422-4.78 8.128 1.64 14.449 1.98-5.987 1.91-6.522-1.64-14.449zm-441.23 225.773v-11.841c-4.58 1.137-5.55 1.84-5.55 4.315-.14 1.705.35 3.401 1.37 4.773 1.02 1.372 2.51 2.326 4.18 2.686v.067zm-80.85 16.724l2.75.501c1.01-2.219 1.81-4.525 2.4-6.89.17-.803-1.6-2.81-2.1-2.709-1.27.301-3.11 1.371-3.35 2.408-.16 2.234-.06 4.48.3 6.69zm122.56-20.705l1.61-.836c-.35-2.516-.94-4.992-1.77-7.392-.37-.869-2.51-1.003-3.82-1.471-.4 1.17-1.47 2.709-1.03 3.344 1.5 2.244 3.18 4.369 5.01 6.355zm36.43-21.339c-1.47 7.057-1.47 7.057 5.12 9.566.44-1.944.17-3.983-.77-5.741-.94-1.758-2.49-3.117-4.35-3.825zm250.54-216.541V319.9c-4.15 5.419-4.25 6.723 0 11.774zm-436.42 265.274l-4.35-7.392c-2.24 5.987-2.24 5.987 4.35 7.392zM788.309 639.46c-.267-5.619-.267-5.619-4.883-7.559-.088 1.614.337 3.215 1.214 4.573.877 1.357 2.162 2.403 3.669 2.986zm96.167-15.018c-3.545 1.74-6.522 2.71-3.344 6.088.836.903 2.542 1.003 4.616 1.739-.569-2.943-.837-4.917-1.272-7.827zm95.131-18.028c-4.115 5.318-4.115 5.318 2.91 6.689l-2.91-6.689zm-47.03 14.483l2.074-.903c-.87-1.84-1.74-3.713-2.643-5.553-.646.331-1.271.7-1.873 1.104.87 1.806 1.606 3.579 2.442 5.352zm374.633-73.585l-2.14.568c.33 2.442-.9 5.452 4.05 7.359-.81-3.278-1.34-5.586-1.91-7.894v-.033zm-292.28 49.737c-2.91 4.281-2.41 6.254.8 7.425.37 0 .91-.268 1.84-.602l-2.64-6.823zm616.67-251.194l-2.1-.635c-.37 2.308-.77 4.649-1.14 6.991l1.87.334c.47-2.208.94-4.415 1.37-6.656v-.034zM93.7982 260.162l4.8167-5.686 9.1321 8.094c1.906-3.98 2.642-8.027 4.984-9.633 2.341-1.605 5.786.435 10.034.937-.55-2.597-1.231-5.165-2.04-7.693-1.271-3.345-3.111-6.69-4.215-10.369-.148-1.705.045-3.422.569-5.051 1.706.268 3.847 0 5.051.904 3.78 2.943 7.191 6.321 11.172 10.034 2.642-2.174 5.921-5.486 10.035-.903 2.575-4.282-2.409-8.396 2.241-11.607l9.031 7.994c4.014-3.344 2.241-6.689 2.676-10.034.537-1.907 1.337-3.731 2.375-5.418 1.89.681 3.679 1.614 5.319 2.776 1.505 1.405 2.14 3.679 3.545 5.284 1.368 1.37 2.857 2.613 4.449 3.713l1.806-.736v-8.027c.189-1.976.48-3.941.87-5.887 1.907.468 3.847.87 5.686 1.472 1.354.664 2.651 1.435 3.88 2.308-1.94-4.984-3.344-8.596-4.917-12.677 7.56-2.676 10.871 4.415 16.223 6.255 5.419-1.238 2.041-7.158 5.419-10.035l7.192 3.345 21.575-16.155c.836-.669 1.438-1.773 2.341-2.141 11.942-4.783 19.735-14.984 29.603-22.41 7.158-5.385 6.69-12.409-.836-17.159-4.282-2.675-8.095-7.224-12.644-8.027-4.549-.803-9.533 2.609-14.45 3.345-4.776.384-9.575.384-14.35 0-2.643 0-5.285-.803-7.928-.736-4.415 0-8.663.869-8.696 7.291l-5.787-3.512-4.917 6.69c-.636-.301-1.238-.368-1.539-.702-1.706-1.84-3.345-5.185-4.984-5.352-3.713-.335-3.646 3.846-4.783 6.388-.335.703-.636 1.439-1.104 2.543l-7.66-4.784c-3.144 4.382-.268 10.737-5.753 15.286l-8.095-14.55c-4.349 4.282-1.438 10.737-5.352 14.918l-10.537-9.733-3.98 17.46c-9.332 1.337-8.128-8.898-13.38-13.079-1.94 6.088 1.639 12.677-3.98 17.46-6.389-2.508-3.546-10.67-8.463-14.483l-4.248 4.984-5.185-3.545c-.435.301-1.104.501-1.17.836-.669 2.876-.971 5.82-1.874 8.629-1.0809 2.789-2.3205 5.514-3.7126 8.162-9.4327-5.72-5.9874-17.159-13.3797-23.983-.6471 2.837-1.4739 5.63-2.4753 8.362-1.202 2.344-2.6007 4.582-4.1812 6.69-5.8871-4.214-2.9435-12.978-10.0348-15.486-3.0774 2.776.6021 8.897-5.8202 10.034l-5.6864-7.425c-1.3134.599-2.4256 1.565-3.203 2.781-.7774 1.217-1.1867 2.632-1.1789 4.075-.2341 2.81-.9031 5.586-1.5052 8.931-1.5217-.799-2.8036-1.989-3.7146-3.446-.911-1.458-1.4183-3.131-1.4701-4.849-.9366-4.449-1.639-8.964-2.7763-13.379-.8859-1.949-2.0094-3.78-3.3449-5.452-1.4718 5.485-2.2746 9.566-3.7129 13.379-.5018 1.371-2.7763 3.345-3.8802 2.943-.9762-.197-1.9004-.596-2.7127-1.172-.8124-.576-1.4949-1.316-2.0036-2.173-1.3215-4.093-2.3609-8.273-3.1108-12.509l-7.8607 10.67c-1.0034-1.004-2.4083-1.84-2.9435-3.044-4.08083-8.663-7.99443-17.426-11.941466-26.19-.2300714-.478-.3337119-1.008-.30104542-1.538C1.54456 124.063 2.48116 113.627 4.95642 103.593c1.65099-4.2593 4.64545-7.8642 8.52958-10.2686 9.6-6.6895 18.531-14.0815 30.1045-17.928 8.7972-2.91 17.7951-3.3448 26.7596-5.0841 15.6878-3.1775 31.5759-5.3516 47.0629-9.1981 8.436-2.4816 16.587-5.8449 24.318-10.0344 17.595-8.5292 36.795-11.3053 55.526-14.9511 6.255-1.2041 12.611-2.2076 18.732-3.8465 2.613-.7525 4.942-2.2663 6.69-4.3482 5.619-6.8568 13.38-10.4023 20.772-14.8174 2.772-1.5605 6.01-2.0823 9.132-1.4717 10.662 2.5094 21.695 3.031 32.546 1.5386 7.855-1.4202 15.44-4.06114 22.478-7.8268 11.134-5.3951096 23.793-6.76618 35.824-3.87994 6.69 1.33791 10.57 5.81991 14.718 10.33534 1.606 1.7393 2.977 3.6793 4.449 5.5189l11.808-7.55919C380.56 16.06 376.981 25.9605 384.44 29.506c4.26-2.426 8.74-4.4419 13.38-6.0206 5.046-.7696 10.152-1.0719 15.253-.9031.368-2.9768.87-5.753 1.037-8.5292.368-6.42196.903-7.1578 7.192-8.29503 1.563-.36757 3.15-.62463 4.75-.7693 6.388 0 8.596 2.37479 8.094 8.83023.009.5443-.07 1.0864-.234 1.6055-5.251 11.4057 3.345 15.8208 10.637 21.5069.937-1.5386 1.639-2.6089 2.241-3.7461 4.616-9.0309 11.841-12.4426 21.441-9.8671 1.267.3232 2.372 1.0959 3.111 2.1741 1.773 3.3448 3.345 6.6895 4.583 9.566-2.175 3.88-7.727 2.8431-7.827 8.0944-.489 5.3024.819 10.6151 3.712 15.085 2.81-2.7428 5.586-5.5189 8.43-8.1947 2.241-2.0738 5.251-4.1141 7.827-2.0069 1.773 2.1369 2.858 4.7606 3.111 7.5257.102 1.8725-.207 3.7446-.903 5.4855-1.874 6.9237-1.606 7.7599 4.616 11.4057 1.258.6062 2.554 1.1313 3.88 1.572 1.906-3.8465 3.612-7.6261 5.686-11.205.937-1.6389 2.542-3.9134 3.947-3.9803.993.1757 1.935.5661 2.761 1.1438.827.5777 1.517 1.3289 2.022 2.201 1.466 1.931 2.495 4.1577 3.014 6.5256.52 2.368.519 4.8206-.003 7.188-2.643 8.8637.803 14.3491 9.299 18.2291.702-1.5386 1.505-3.0438 2.107-4.6158.903-2.5086 1.739-5.0506 2.509-7.5927.769-2.542 2.676-4.4485 5.285-3.7796 1.823.7706 3.341 2.1231 4.315 3.8465 2.202 2.812 3.819 6.0364 4.755 9.4831.937 3.4467 1.174 7.0459.697 10.5853-.325 1.586-.149 3.234.502 4.716.928 1.375 2.055 2.604 3.345 3.646 1.037-1.037 2.642-1.94 3.01-3.345 1.74-6.12 3.345-12.3752 4.75-18.7303 4.047-1.8731 5.987.2007 7.125 3.6793 1.706 5.3182 3.345 10.703 5.017 16.021.803 2.576 1.572 5.319 5.018 5.352 3.445.034 4.214-2.776 5.117-5.285.724-2.839 1.652-5.623 2.777-8.3282.433-.8874 1.051-1.6718 1.813-2.3006.761-.6289 1.649-1.0875 2.602-1.3452 1.97.2842 3.761 1.2992 5.017 2.8431 1.173 1.4499 2.09 3.0909 2.71 4.8499 2.542 6.455 2.542 6.455 10.035 5.787-2.752 5.377-5.881 10.552-9.366 15.486-3.58 4.144-5.995 9.163-7 14.546-1.005 5.383-.563 10.936 1.28 16.092 3.679 12.476 10.035 22.31 21.408 28.531 1.235.621 2.364 1.434 3.345 2.408 2.408 2.442 2.308 4.85-.77 6.489-2.315 1.306-4.904 2.051-7.559 2.174-8.798 0-17.595 0-26.325-.502-3.139-.585-6.15-1.718-8.898-3.344-3.11-1.405-6.121-3.077-9.165-4.65-7.058 7.091-14.617 3.947-21.943 1.907-7.325-2.04-14.818-5.385-14.684-15.018-11.875-1.104-24.318 0-27.696-14.784-17.628 1.003-18.665.502-20.07-10.302-8.195 2.341-13.112-2.876-18.33-7.994-2.625-2.451-4.492-5.603-5.381-9.083-.889-3.479-.763-7.141.364-10.551-10.303-2.274-21.007-3.746-23.014-16.724l-5.117 1.572c-1.953.932-4.168 1.161-6.271.649-2.102-.512-3.963-1.733-5.27-3.458-1.306-1.465-2.764-2.788-4.348-3.9471-3.88-3.3448-7.994-5.2179-13.146-2.4752-1.997.7487-4.057 1.3196-6.154 1.7059-7.393 2.1744-11.039 0-12.343-7.4589-.201-1.0034-.234-2.0068-.435-4.3147-4.516 7.7933-5.486 14.249-.97 21.106 1.257 2.603 2.373 5.271 3.345 7.994 1.073 3.012 2.811 5.744 5.084 7.994 9.333 6.455 9.667 16.155 9.634 25.654-.473 7.467-1.344 14.903-2.609 22.276-.178 1.871-.855 3.659-1.962 5.177-1.106 1.518-2.601 2.711-4.327 3.453-1.92.881-3.718 2.005-5.352 3.345-11.172 10.335-22.612 20.369-33.182 31.24-11.847 12.362-26.465 21.729-42.648 27.327-15.186 5.318-31.041 7.325-46.394 11.506-16.39 4.482-33.684 6.388-48.836 14.817-11.902 6.043-23.232 13.152-33.851 21.239-11.231 9.206-24.538 15.532-38.768 18.43-13.846 2.832-27.838 4.898-41.9122 6.188-6.9263.147-13.8392-.675-20.538-2.442-2.2533-.663-4.1531-2.19-5.285-4.248-3.3449-6.89-6.6899-14.014-9.4327-21.172-.3433-.853-.4856-1.773-.416-2.689.0696-.917.3493-1.805.8174-2.596 4.2146-4.047 2.2745-8.194 1.0034-12.509-.7358-2.509-.97-5.151-1.639-8.697 7.1582 3.011 10.8377 8.63 14.9854 12.644l10.0348-6.69c0-6.489-5.0174-13.647-1.7393-21.908 6.7233 3.646 6.3888 11.807 11.6404 16.155zm74.3248-153.559c1.195-3.363 3.127-6.417 5.654-8.9375 2.528-2.5207 5.587-4.4445 8.953-5.6308 3.367-1.1863 6.956-1.6051 10.506-1.2257 3.549.3794 6.969 1.5474 10.009 3.4185 4.102 2.0475 8.84 2.4194 13.212 1.0369.73-.2494 1.392-.6625 1.937-1.2074.545-.545.958-1.2075 1.208-1.9367 2.98-10.0038 4.18-20.4533 3.545-30.8723-.635-5.9872-3.345-7.8937-9.232-6.8568-8.262 1.4382-15.353 4.8834-19.066 12.8774-2.356 4.8352-6.154 8.8202-10.871 11.4057-7.326 4.3482-14.985 8.0943-22.512 12.1081-2.542 1.4048-4.984 3.0103-7.593 4.3147-.802.3614-1.525.8776-2.128 1.519-.603.6414-1.073 1.3954-1.384 2.2188-.31.8234-.455 1.7001-.427 2.5791.029.88.231 1.745.594 2.547 1.104 3.579 4.449 4.415 7.794 4.214 3.345-.2 6.389-1.003 9.801-1.572zM257.5 42.8517l-4.382 5.5523c-3.453 4.5382-5.537 9.9691-6.005 15.6524-.468 5.6833.698 11.382 3.362 16.4241 1.807 3.3447 4.248 6.0875 8.028 5.6526 6.041-.7587 12.013-1.9889 17.862-3.6792.973-.408 1.851-1.0143 2.576-1.7802.726-.766 1.284-1.6748 1.639-2.6684 3.704-9.7478 5.356-20.1556 4.85-30.5713-.739-4.1972-3.083-7.9417-6.536-10.4394-3.453-2.4977-7.744-3.5521-11.961-2.9397-3.345.5686-6.69 1.3379-10.035 2.1072-.822.371-1.587.8552-2.275 1.4383.903 1.7727 1.907 3.512 2.877 5.2513zm74.759 4.181c2.498-.6214 4.947-1.4263 7.326-2.4083 2.77-1.0455 5.076-3.0444 6.505-5.6377 1.428-2.5932 1.885-5.6108 1.288-8.5107.1-1.4656-.272-2.9246-1.06-4.1641-.788-1.2395-1.952-2.1947-3.321-2.7261-3.345-1.2711-5.352.8027-7.493 2.9768-3.108 3.2334-6.463 6.2193-10.035 8.9306-1.087.7315-1.967 1.7321-2.553 2.9043-.586 1.1723-.859 2.4763-.792 3.7852 0 5.2848-.669 10.5695-.602 15.8543-.204 1.858.039 3.7378.708 5.4831.669 1.7453 1.745 3.3056 3.139 4.5512 6.842 5.3835 14.528 9.599 22.745 12.4761 4.884-10.904 1.405-21.2394-8.83-26.4238-2.843-1.4717-6.322-2.2745-7.025-7.0909zM295.967 194.939l.602 1.472c3.176-.821 6.267-1.941 9.232-3.345 14.829-8.563 29.536-17.27 44.12-26.123 4.165-2.402 8.125-5.143 11.841-8.195 3.88-3.344 3.612-5.117-.335-9.7-19.938 17.82-41.91 33.223-65.46 45.891zm9.867-62.882c-2.551 4.543-3.326 9.87-2.174 14.951 11.172-3.846 20.672-11.238 32.847-9.265.333-1.728 0-3.519-.93-5.013-.93-1.494-2.389-2.583-4.087-3.048-2.944-1.104-5.586-2.876-8.898-.368-2.213 2.055-4.984 3.411-7.965 3.899s-6.039.086-8.793-1.156zm72.586-54.4865h1.873c4.147-8.964 6.054-18.4632.501-27.2265-4.315-6.6896-10.737-12.2085-15.219-20.4032-1.806 7.6261-1.104 12.175 3.847 16.356 3.164 2.6658 5.593 6.0968 7.057 9.9667 1.464 3.8698 1.913 8.0498 1.305 12.1423-.018 3.0665.195 6.13.636 9.1647zM230.64 130.084l1.271 2.374c3.847-1.371 7.827-2.542 11.54-4.181 5.787-2.609 11.339-5.753 17.193-8.228 4.683-2.007 9.667-3.345 14.918-5.151-1.794-1.639-4.083-2.635-6.506-2.828-2.423-.194-4.841.424-6.873 1.758-9.868 5.151-19.836 10.034-29.737 15.185l-1.806 1.071zm223.81-70.4415c-2.251 1.969-4.619 3.8008-7.091 5.4854-5.988 3.6124-6.69 5.9537-3.345 11.9409.803 1.4048 2.743 3.0772 4.047 2.9768 1.305-.1003 4.65-1.4717 5.051-2.8765 2.093-5.5986 2.556-11.6753 1.338-17.5266zm23.181 21.6742c-2.186 1.6582-3.821 3.9367-4.692 6.5382-.871 2.6014-.938 5.405-.192 8.045 1.037 4.1471 7.058 6.6891 8.429 3.5789 1.374-3.7001 2.032-7.6273 1.94-11.5729.14-1.5998-.358-3.19-1.386-4.4241-1.027-1.2342-2.501-2.0124-4.099-2.1651zM25.8289 115.065c8.2954-.602 11.9414-4.883 14.1825-16.0879-8.4961-1.6389-13.848 4.2479-14.1825 16.0879zm477.0231-1.036c5.887 4.214 7.793 3.946 11.172-1.271 4.683-7.225 4.348-9.5-1.907-13.0785l-9.265 14.3495zm-79.644-72.3814c-1.906 1.7058-3.813 3.3447-5.786 5.1509-1.974 1.8062-4.583 4.7162-3.044 7.4923 1.17 2.0738 4.348 3.0438 6.489 4.3817 7.493-9.4992 7.76-11.9409 2.341-17.0249zm114.799 76.2944l-2.107.268c-1.941 4.013-4.014 7.994-5.821 12.108-.293.464-.458.998-.481 1.547-.023.549.099 1.094.353 1.581.254.487.631.9 1.093 1.196.463.296.995.466 1.544.492.835.002 1.658-.195 2.402-.573.744-.377 1.388-.926 1.88-1.601 1.56-3.401 2.684-6.986 3.345-10.67.2-1.271-1.439-2.91-2.208-4.348zm35.958 63.785c-2.877-7.392-5.318-13.647-7.861-20.069-6.188 6.589-3.044 14.282 7.861 20.069zm-217.823-62.18c-.401.636-.836 1.238-1.237 1.84.844 2.419 1.967 4.731 3.345 6.89.613.611 1.367 1.061 2.195 1.312.828.25 1.705.294 2.554.127.875-.455 1.647-1.084 2.269-1.849.621-.766 1.079-1.65 1.344-2.6-.044-.831-.297-1.638-.736-2.345-.438-.707-1.048-1.293-1.773-1.702-2.588-.831-5.256-1.392-7.961-1.673zm208.792 14.417c-2.609 5.117-2.676 5.953-.703 7.927 1.331 1.367 3.106 2.216 5.006 2.394 1.901.178 3.802-.327 5.364-1.424 0-6.054-5.553-6.188-9.667-8.897zm-28.165 17.794c-7.793 7.525-6.924 14.215 1.472 16.255-.535-5.686-1.003-10.904-1.472-16.255zm-36.527-6.69c3.345-7.024 3.546-8.964 1.84-15.419-5.552 5.017-5.92 6.99-1.84 15.553v-.134zm-19.869-31.173c-7.793 2.375-7.793 2.375-4.649 10.034 1.639-3.278 2.81-5.853 4.649-9.9v-.134z"/><path fill="#fff" d="M865.109 454.795c2.094-1.338 4.064-2.861 5.887-4.549 16.424-18.296 32.948-36.492 49.004-55.122 5.082-6.524 9.817-13.312 14.182-20.336 1.639-2.308 3.011-6.222 6.456-4.583 3.947 1.907 1.305 5.586.535 8.463-.485 1.528-1.183 2.981-2.074 4.314-10.302 16.524-20.605 32.98-33.917 47.396-7.058 7.626-13.079 16.222-19.435 24.484-1.179 1.849-2.197 3.796-3.043 5.82l1.739 1.338c3.98-3.68 8.229-7.158 11.908-11.139 17.327-18.597 34.386-37.394 51.713-55.924 3.953-3.973 8.202-7.641 12.711-10.971 1.922-1.196 3.991-2.141 6.154-2.81 1.115 1.533 1.661 3.407 1.545 5.299-.116 1.892-.887 3.684-2.18 5.07-2.248 3.327-4.73 6.49-7.426 9.466-19.802 20.905-39.638 41.843-59.707 62.514-2.183 1.952-3.929 4.344-5.122 7.019-1.194 2.675-1.808 5.572-1.802 8.5.2 7.225-2.71 14.851 3.345 21.741.387-4.115 1.023-8.203 1.906-12.241.792-3.902 2.349-7.609 4.583-10.904 7.526-9.332 15.152-18.798 25.288-25.387 11.64-7.559 23.615-14.617 35.59-21.574 6.479-3.701 12.163-8.646 16.724-14.55 10.035-12.877 20.677-25.22 31.077-37.762 8.94-10.943 16.97-22.6 24.01-34.853 10.04-16.724 20.81-32.98 30.38-49.938 9.56-16.958 19.46-32.645 24.18-51.275 1-4.114 1.57-8.329 2.28-12.543.97-5.753 3.17-11.272 8.69-13.379 8.38-3.336 17.05-5.911 25.89-7.693 6.86-1.338 10.94 2.508 12.58 9.466.84 3.545 1.54 7.157 2.27 10.736 7.2-2.241 7.73-3.646 5.26-13.379 5.35-5.285 18.63-7.124 25.95-3.345 7.33 3.78 12.48 8.095 13.98 16.457.81 4.415 3.18 8.562 4.02 12.977 1.27 6.69 1.84 13.681 2.67 20.537.14.516.14 1.057 0 1.572-3.34 6.857-6.49 13.881-10.37 20.437-1.88 2.173-4.25 3.87-6.92 4.95-13.38 7.66-26.93 15.119-40.31 22.812-8.02 4.616-13.74 11.74-19.6 18.731-16.56 20.068-33.45 39.501-49.7 59.67-12.88 15.988-24.89 32.712-37.43 48.968-11.24 14.55-22.82 28.865-34.088 43.482-2.587 3.38-4.828 7.011-6.69 10.837-6.255 12.945-11.875 26.223-18.698 38.867-2.375 4.381-7.694 7.157-11.541 10.837-2.099 2.171-4.691 3.803-7.556 4.758-2.865.955-5.919 1.205-8.901.727-5.044-.184-10.091.277-15.019 1.371-3.078.476-6.229-.031-9.003-1.448s-5.031-3.672-6.45-6.445c-2.571-4.644-4.71-9.515-6.389-14.55-2.375-6.355-4.382-12.877-6.69-19.333l-1.672.368c1.07 8.395 2.14 16.724 3.345 26.39-2.543-1.036-4.382-1.237-4.951-2.174-1.486-2.481-2.613-5.162-3.345-7.96-1.104-4.181-1.773-8.262-6.69-10.035-1.438-.535-2.341-2.742-3.345-4.281-2.141-3.345-3.01-7.258-7.827-9.332-2.91-1.237-3.847-7.024-6.121-11.673l-8.061-5.686c-.837-.602-1.974-1.84-2.543-1.639-7.091 2.776-8.897-4.382-12.844-7.158-1.491-1.186-3.211-2.051-5.051-2.542-6.948-1.628-13.776-3.729-20.438-6.288-2.442-.937-4.248-3.646-6.69-5.921-5.385 2.007-11.372 4.014-16.289-2.374-2.114 1.334-4.355 2.454-6.69 3.344-3.111.87-6.69 2.877-9.5-.836-.429-.283-.918-.464-1.429-.528-.51-.064-1.029-.009-1.515.16-6.89 2.576-10.503-1.405-13.647-7.425-10.871 6.689-16.892-2.743-24.184-7.359l-11.072 5.218-7.793-14.784-10.336 3.746-9.6-9.064c-4.065.272-8.144.272-12.209 0-8.329-1.171-12.31-6.322-13.179-14.683-.332-3.18-1.654-6.176-3.78-8.563-7.694-8.128-15.019-17.092-24.117-23.414-8.296-5.753-12.878-14.917-21.441-20.068-1.481-1.1-2.636-2.579-3.345-4.282-5.285-10.536-10.604-21.005-15.454-31.708-1.362-3.473-2.043-7.174-2.007-10.904-.036-3.716-1.203-7.333-3.345-10.369-2.575-3.713-4.415-7.927-6.69-11.874-.828-1.31-1.146-2.879-.893-4.408.253-1.53 1.059-2.913 2.265-3.887 4.382.709 8.31 3.112 10.938 6.69 1.658 2.093 3.482 4.05 5.452 5.853 1.065 1.21 2.532 1.995 4.13 2.21 1.597.215 3.219-.154 4.567-1.039 3.731-2.086 7.679-3.757 11.774-4.984 5.82-1.773 8.931 0 9.734 5.92.718 5.025.718 10.127 0 15.152-1.626 10.103.466 20.453 5.887 29.133 8.633 14.427 18.793 27.884 30.305 40.137 4.248 4.65 10.369 7.76 14.082 12.744 3.713 4.984 5.453 11.339 9.667 17.058.535-3.344 1.204-6.923 1.572-10.402.77-7.726.703-7.726 6.356-10.737 1.037-3.344 1.104-6.154 2.609-7.559 5.051-4.749 4.382-9.8 1.873-15.185-1.438-3.01-3.345-5.887-5.452-9.8-6.69 8.529-12.945 15.754-10.503 26.49.273.679.402 1.406.38 2.137-.023.731-.197 1.449-.511 2.109-.315.661-.763 1.248-1.316 1.727-.553.478-1.2.836-1.898 1.051-9.299-6.388-11.239-14.014-5.386-23.079 3.345-5.017 7.259-9.599 11.005-14.516l-7.894-5.452c-5.302 4.592-8.76 10.949-9.734 17.895-.368 2.374 0 5.017-2.776 6.054-1.606.602-3.914 1.405-4.984.702-1.07-.702-3.345-3.679-3.077-4.984 2.809-9.03 4.716-18.831 15.52-23.681-11.339-9.599-25.187-13.947-38.299-21.64-3.881-11.975-4.851-24.451 5.385-36.325 4.215 5.285 8.362 10.503 12.477 15.754l1.17-.635c.147-1.495.01-3.004-.401-4.449-4.549-8.562-4.114-17.593-2.408-26.591 2.418-12.898 1.73-26.186-2.007-38.766-1.789-6.16-3.186-12.427-4.182-18.764.017-2.594.759-5.131 2.141-7.325 1.84-3.679 4.148-7.158 6.523-11.172 8.195 7.392 8.362 16.39 9.165 24.952.903 12.773.903 25.593 0 38.365-.636 13.379 1.438 27.059 2.709 40.539.402 4.314 1.572 8.462-1.906 12.141 8.897 14.416 22.745 22.578 36.794 32.512.704-2.911 1.163-5.876 1.372-8.864-.569-21.072-1.004-42.211-2.108-63.283-1.171-22.41-2.475-44.854-4.816-67.197-1.573-15.319-5.051-30.438-7.961-47.429l15.386-11.807c.956 1.258 1.733 2.642 2.308 4.114 1.539 10.569 3.345 21.106 4.349 31.675 1.237 11.941 2.241 23.882 2.843 35.856 1.104 21.875 2.141 43.783 2.609 65.658.268 12.51-.569 25.053-.903 37.562 0 2.676-.234 5.385 0 8.028.557 3.932.803 7.902.736 11.874-.93 4.314-2.252 8.535-3.947 12.609 2.575 2.208 5.352 4.884 8.462 7.091 7.092 5.084 7.159 11.74-.234 16.724-4.883 3.345-10.035 6.054-14.851 9.466-4.148 2.977-5.085 9.365-2.509 16.122 13.38-11.807 23.18-27.361 39.203-36.793.591 1.91.628 3.948.107 5.878-.521 1.93-1.579 3.673-3.051 5.026-3.345 4.181-7.191 7.927-10.469 12.142-3.914 5.017-7.694 10.235-11.106 15.586-1.104 2.578-1.868 5.287-2.274 8.061 6.69-2.207 8.73-9.164 15.821-9.031-.501 2.977-.936 5.686-1.706 10.302 2.442-2.408 3.914-3.612 5.085-5.017 7.961-9.7 15.721-19.533 23.849-29.066 2.888-3.155 6.184-5.911 9.801-8.195 2.52-1.189 5.186-2.043 7.927-2.542-1.036 8.228-6.054 12.51-9.7 17.46-6.523 8.763-13.614 17.125-20.07 25.889-4.014 5.418-3.746 6.154-.301 13.379 3.646-.669 4.65-4.081 6.255-6.69 6.021-9.466 11.54-19.232 17.695-28.631 7.694-11.774 18.364-20.704 29.268-29.334.883-.609 1.887-1.02 2.944-1.204.81-.046 1.622.033 2.408.234 2.342 4.582-.401 7.693-3.11 10.603-11.216 12.537-21.071 26.227-29.403 40.84-3.01 4.352-4.969 9.345-5.719 14.583 1.906-.635 3.345-.669 4.114-1.438 8.964-9.165 17.996-18.162 24.318-29.601 7.382-13.332 16.308-25.748 26.592-36.994 1.44-1.345 2.983-2.575 4.616-3.679 4.014 6.69-.435 12.175-1.171 18.263 4.014-.201 5.252-3.145 6.991-5.151 4.215-4.817 8.162-10.035 12.443-14.617 2.509-2.81 5.352-5.385 10.303-3.345-2.007 9.533-11.239 15.486-13.581 24.751l1.74 1.305c2.583-2.415 5.018-4.984 7.292-7.693 7.559-10.034 17.661-17.058 27.763-24.049 2.475-1.706 5.084-4.315 9.399-1.672l-12.309 16.723 1.137 1.271c1.478-.721 2.908-1.536 4.282-2.441 7.693-5.787 15.219-11.74 23.013-17.36 2.341-1.332 4.834-2.376 7.426-3.11 3.646 3.345 3.612 6.154 1.438 9.131-1.093 1.515-2.337 2.916-3.713 4.181-10.269 9.265-20.638 18.43-30.941 27.728-2.341 2.141-4.516 4.516-6.69 6.69-6.69 6.89-13.814 13.379-19.802 20.804-6.337 8.229-12.243 16.781-17.695 25.621-1.232 2.457-2.132 5.066-2.675 7.76 3.344 2.776 5.117 1.137 6.689-.635 6.991-7.359 14.016-14.684 20.839-22.176 5.553-6.121 10.805-12.51 16.223-18.764.983-1.241 2.105-2.363 3.345-3.345 14.317-10.035 25.188-23.848 37.932-35.622 2.241-2.074 4.817-3.78 7.325-5.686 4.182 4.248 1.94 7.76 0 10.67-3.11 4.352-6.46 8.529-10.034 12.509-6.69 7.86-13.748 15.62-20.639 23.414-10.035 11.205-19.835 22.41-29.636 33.715-3.512 4.047-6.69 8.328-9.834 12.643-.812 1.547-1.398 3.203-1.739 4.917l1.605 1.773zm234.781-142.923l1 2.208 7.43-2.074c7.79-2.736 15.12-6.662 21.71-11.64l28.63-18.931-.87-1.438c-21.14 7.224-41.74 15.486-57.9 31.808v.067zm-253.145 85.259c-13.379 11.673-22.243 32.377-20.437 44.586.854-1.151 1.646-2.345 2.375-3.579 5.318-10.402 10.737-20.738 15.754-31.307 1.13-3.16 1.904-6.436 2.308-9.767v.067zm-16.724-2.71l-1.94-1.404c-10.671 11.706-16.391 26.089-21.508 40.806l1.572.836 21.876-40.238zM1480.65 758.334l-6.16 10.536c1.14.535 1.87 1.003 2.01.87 7.02-7.058 13.61-2.877 20.07.769 3.78 2.107 4.11 6.154 4.58 9.767.87 6.689 1.2 13.379 1.81 20.068.97 13.849 5.26 27.261 12.51 39.101 6.42 10.034 11.54 21.072 17.19 31.675 1.92 4.195 5.38 7.49 9.67 9.198 8.69 3.077 13.74 9.867 17.99 17.46 3.78 6.689 7.33 13.613 10.97 20.436 1.24 2.342 3.35 5.352 0 6.89-1.23.212-2.49.16-3.7-.151-1.21-.312-2.34-.875-3.32-1.655-2.39-2.128-4.58-4.48-6.52-7.024-3.11-3.344-6.29-6.422-10.04-10.402-.26 1.665-.16 3.366.28 4.992.44 1.626 1.23 3.139 2.3 4.44 1.55 2.168 2.91 4.475 4.04 6.891 2.15 5.953-1.13 10.569-7.25 9.733-6.07-.888-12.05-2.321-17.87-4.281-8.76-2.844-13.88-8.63-12.97-18.531.16-1.839-.24-3.746-.17-5.585 0-7.445-2.24-14.717-6.42-20.872-8.43-14.516-15.46-29.835-22.85-44.954-2.47-5.017-4.25-10.368-6.46-15.519-4.31-8.951-10.64-16.781-18.49-22.879-3.88-3.344-5.99-6.689-4.79-11.74.41-2.226 1.45-4.29 2.98-5.954 4.08-3.094 7.88-6.529 11.37-10.268-1.37.736-2.74 1.505-4.11 2.174-4.22 2.107-8.53 6.054-12.64 5.82-6.23-.334-13.38-3.345-15.39-9.834-4.32-15.051-16.12-23.614-26.56-33.447-13.08-12.175-26.96-23.414-40.37-35.355-19-16.724-38.5-33.013-58.97-47.964-7.97-5.82-16.23-11.238-24.26-16.958-12.7-8.959-26.84-15.679-41.81-19.868-4.64-1.237-8.98-3.409-12.75-6.382-3.78-2.974-6.9-6.686-9.19-10.91-.44-1.133-.76-2.311-.94-3.512 15.39 3.344 30.11.735 44.89-.87 9.29-1.093 18.67-1.317 28-.669 5.03.568 9.8 2.551 13.75 5.72 7.05 5.721 13.75 11.864 20.07 18.396 16.72 16.724 33.75 32.678 49.5 50.171 14.09 14.967 29.29 28.853 45.46 41.543 13.78 11.305 28.73 21.239 43.18 31.775 5.96 4.382 11.31 9.466 11.38 17.159zM824.435 1095.59c-2.059-.98-3.723-2.63-4.72-4.68-.997-2.04-1.267-4.37-.766-6.59.133-.8.133-1.62 0-2.41-1.338-9.2 2.275-16.32 8.295-23.15 14.953-17.78 27.101-37.75 36.026-59.201 5.084-11.473 9.733-23.112 14.149-34.852 1.585-4.293 2.488-8.808 2.676-13.38.535-9.398 2.742-17.861 10.536-23.948 1.238-.97 2.576-1.907 3.914-2.877-2.509-6.689-4.616-12.777-6.958-18.664-.852-1.691-1.162-3.604-.887-5.478.276-1.873 1.123-3.616 2.426-4.991 8.128-8.362 8.63-19.232 10.035-29.668 1.405-10.436 2.241-20.637 3.111-30.973 1.204-14.382 2.609-28.731 3.177-43.147.77-19.434 1.204-38.934 1.037-58.4-.167-19.467-1.003-38.331-1.873-57.497-.268-5.519-2.007-10.971-2.509-16.523-.568-6.322.903-8.864 6.857-9.667 7.676-.825 15.395-1.182 23.114-1.07.748-.064 1.501.039 2.205.301.703.262 1.34.676 1.865 1.213.524.538.923 1.184 1.168 1.894.245.71.329 1.465.248 2.211 0 5.854-.368 11.707-.636 17.527-.234 4.549-.635 9.064-.803 13.58-.669 20.269-1.315 40.55-1.94 60.841-.401 14.951 0 30.103-1.204 44.854-1.371 17.56-3.947 34.986-5.987 52.479 0 1.071-.536 2.074-.636 3.144-1.237 10.57-2.04 21.24-3.746 31.742-1.494 10.894-.346 21.987 3.345 32.345 3.177 9.833 3.846 17.827-7.493 22.644 4.014 6.689 4.616 12.275.769 18.63-1.672 2.743-.936 7.292-.468 10.904 1.292 11.984.682 24.096-1.806 35.89-.319 1.877-1.055 3.667-2.155 5.217-1.1 1.56-2.536 2.85-4.201 3.78-4.816-9.767.368-19.835-2.508-29.434-1.537.237-2.977.898-4.159 1.908-1.181 1.011-2.058 2.331-2.531 3.812-4.884 12.108-14.35 21.134-21.174 31.904-4.147 6.69-8.395 12.98-12.476 19.57-4.081 6.59-8.329 14.18-12.878 21.01-1.136 1.45-1.96 3.12-2.421 4.9-.46 1.79-.547 3.65-.255 5.47.96 6.66.093 13.46-2.509 19.66-.877 2.83-2.666 5.28-5.087 6.98-2.421 1.7-5.337 2.55-8.293 2.42-3.98 0-7.994-.3-11.975-.47l.101.24z"/><path fill="#fff" d="M1198 274.177c2.19 1.121 4.03 2.826 5.32 4.927 1.29 2.101 1.97 4.516 1.97 6.98 1.06 10.934 4.83 21.431 10.97 30.538 10.23 15.342 18.81 31.722 25.59 48.867 3.46 7.571 5.04 15.87 4.58 24.183-.37 4.248.3 8.596-.2 12.811-1.1 12.333 2.06 24.671 8.97 34.953 6.69 11.138 14.25 21.874 21.44 32.812 1.9 2.876 3.81 5.786 5.78 8.629 5.12 7.493 9.8 15.253 17.1 21.039 1.78 1.954 3.3 4.123 4.55 6.455-5.69 1.874-10.51 3.847-15.56 4.951-2.25.317-4.53-.183-6.44-1.411-1.91-1.228-3.32-3.102-3.96-5.279-7.06-18.129-18.7-33.448-29.14-49.67-6.69-10.502-15.08-20.069-22.47-30.103-4.18-5.649-10.35-9.491-17.26-10.737-10.04-2.073-20.44-3.545-30.71-5.151-2.61-.565-5.29-.801-7.96-.702-9.87.903-11.44-7.359-7.13-13.948 2.99-4.721 6.34-9.195 10.04-13.379 2.95-2.902 5.1-6.519 6.24-10.5 1.14-3.98 1.22-8.187.25-12.211-1.04-4.649-.9-9.533-1.67-14.282-.63-3.382-1.76-6.652-3.35-9.7-2.47 5.051-2.44 11.004-7.53 14.349-1.1.703-1.87 2.241-3.01 2.509-11.07 2.441-21.97 7.525-33.65 2.609-5.75-2.442-12.94-1.706-17.62-8.697 4.78-5.552 9.53-11.573 14.81-17.025 6.18-6.623 13.33-12.263 21.21-16.724 2.38-1.271 4.58-2.809 6.99-3.913 8.2-3.847 16.36-7.726 24.72-11.205 3.17-1.413 6.02-3.468 8.36-6.036 2.33-2.567 4.11-5.592 5.22-8.882 1.01-2.742 2.34-4.917 3.55-7.057zM732.348 78.1057l-9.867 1.873c-1.871-5.2714-2.069-10.992-.566-16.38 1.502-5.388 4.632-10.1806 8.961-13.723 1.29-.8385 2.771-1.3363 4.305-1.4469 1.535-.1106 3.072.1696 4.469.8144 1.396.6448 2.607 1.6332 3.517 2.8728.911 1.2395 1.493 2.6897 1.691 4.2151.542 5.2663.699 10.5652.468 15.8543v5.4185c8.636 2.6204 16.456 7.411 22.713 13.9143.368.368.836.6355 1.204 1.0369 4.482 4.5155 10.035 8.6969 8.396 16.1549-1.639 7.459-7.593 11.975-14.517 14.885-4.884 2.073-9.734 4.248-14.752 5.92-3.942 1.622-8.148 2.506-12.409 2.609-4.004-.212-8.006.446-11.731 1.931-3.725 1.484-7.083 3.758-9.844 6.665-12.544 11.148-24.46 22.985-35.691 35.455-10.133 12.724-19.504 26.037-28.064 39.869-4.144 6.653-5.836 14.543-4.783 22.31 1.003 10.335 1.94 20.671 2.943 31.006 1.004 10.336-2.308 15.888-12.008 18.798-7.091 2.141-14.049 5.251-21.842 4.382-2.125-.138-4.201-.697-6.107-1.645-1.907-.947-3.606-2.264-4.999-3.874-5.051-5.854-10.034-11.674-15.453-17.293-1.414-1.22-2.327-2.92-2.561-4.773-.235-1.853.224-3.727 1.29-5.261 1.973-3.345 3.345-7.325 5.017-10.871.582-1.534 1.656-2.832 3.054-3.691 1.398-.86 3.041-1.232 4.673-1.058 3.044.2 6.89.769 9.031-.736 3.197-2.4 5.711-5.594 7.292-9.265 2.71-6.054 4.315-12.61 6.69-18.865 2.04-6.274 4.407-12.437 7.091-18.463 9.963-20.529 24.304-38.625 42.013-53.015 8.949-6.819 16.054-15.763 20.672-26.022 4.917-11.707 15.721-18.5302 25.388-26.0894 5.017-3.9134 9.867-8.0275 14.818-12.0412l-.502-1.4717zM1118.89 532.093c-1.37 1.806-2.21 3.98-3.68 4.616-7.66 3.344-10.34 11.205-15.52 16.724-4.94 6.159-11.62 10.692-19.17 13.011-3.34-6.924-8.69-4.984-14.15-2.843-1.94.901-4 1.532-6.12 1.873-6.08.602-11.17 2.107-14.05 8.495-.73 1.639-4.44 2.543-6.89 2.777-15.65 1.371-31.34 2.709-47.026 3.612-9.533.569-19.1.368-29.469.502-.459-1.961-.583-3.985-.368-5.987 1.535-6.264.873-12.864-1.873-18.698-2.609-6.489-1.773-6.121 2.776-11.205 10.035-11.171 21.241-21.774 24.82-37.327.234-1.037 1.037-2.141.869-3.044-1.538-7.125 3.345-11.272 7.092-16.055 3.746-4.783 6.359-9.198 9.769-13.613 15.62-20.337 31.37-40.539 46.83-60.875 5.95-7.794 11.57-15.821 18.29-25.086-2.04 8.83-2.44 16.322-6.69 22.978-2.4 3.713-3.14 8.53-5.38 12.443-4.42 7.827-9.3 15.453-14.12 23.112-4.21 6.69-8.33 13.647-12.94 20.069-6.99 9.7-6.39 20.537-5.59 31.508.25 3.139.25 6.293 0 9.432-.45 2.785-.15 5.639.88 8.268 1.02 2.629 2.73 4.936 4.94 6.683 2.71 2.141 5.22 4.616 8 6.69 3.03 2.449 6.71 3.963 10.59 4.355 3.88.392 7.79-.354 11.25-2.148 1.47-.702 2.78-1.639 4.21-2.374 9.44-4.85 18.94-8.061 29.77-3.88 3.67.771 7.45.771 11.11 0 2.36-.449 4.8-.106 6.94.977 2.14 1.083 3.86 2.845 4.9 5.01zM1061.73 58.1708c-2.09 4.4043-5.64 7.9503-10.04 10.0343-4.49 2.0927-7.97 5.8648-9.7 10.5027l3.91 6.0206c-1.67 1.7604-3.67 3.1678-5.9 4.1388-2.22.971-4.62 1.4858-7.04 1.5139-10.54 1.4048-16.36 7.0574-20.27 16.7239-4.67 12.253-11.73 23.453-20.774 32.946-4.971 5.553-8.984 11.895-11.874 18.764-4.55 9.499-1.439 19.433.535 29.033 1.438 7.024.502 8.328-6.891 7.425-4.581-.184-8.927-2.082-12.175-5.318-1.575-1.233-3.561-1.819-5.553-1.639-4.114.234-8.229 1.037-13.012 1.706-3.612 7.86-7.024 16.724-11.707 25.186-6.356 11.373-13.581 22.277-20.672 33.214-.796 1.778-2.216 3.202-3.991 4.003-1.775.802-3.783.924-5.642.345-1.439-5.485 1.404-9.599 4.214-13.78 9.165-13.647 17.561-27.996 19.702-44.319 1.921-12.247 5.104-24.263 9.5-35.856 1.043-2.452 1.446-5.128 1.171-7.779-.275-2.65-1.219-5.187-2.744-7.373-.779-1.354-1.281-2.85-1.476-4.401-.195-1.55-.08-3.124.339-4.63 3.111-10.435 6.924-20.704 10.57-31.006.869-2.788 2.39-5.3289 4.438-7.4115 2.048-2.0825 4.563-3.6466 7.336-4.5624 5.116-1.7343 9.413-5.2916 12.073-9.9928 2.659-4.7012 3.493-10.217 2.344-15.4945-.461-2.8816-.255-5.8308.604-8.6201.858-2.7893 2.345-5.3443 4.347-7.4683 1.535-1.814 3.609-3.0912 5.92-3.6458 4.411-.8217 8.893-1.2026 13.38-1.1372 1.227-.1141 2.462.0859 3.59.5812 1.129.4954 2.112 1.2697 2.858 2.25s1.23 2.1345 1.41 3.3537c.17 1.2192.04 2.4634-.4 3.6153-1.724 7.5575-5.22 14.5966-10.201 20.537-2.879 3.4129-4.989 7.4056-6.188 11.7067-.242 1.3996-.147 2.8367.278 4.1921.424 1.3554 1.166 2.59 2.164 3.6012 1.388 1.2941 3.155 2.1067 5.041 2.3175 1.886.2109 3.789-.1912 5.428-1.1468 4.118-2.5086 8.398-4.6827 12.348-7.4254 1.66-1.1763 2.84-2.9085 3.34-4.8834.6-3.4076.6-6.8943 0-10.3019-2.68-12.175 4.88-22.9787 17.23-22.7111 8.98.4868 17.93 1.6045 26.76 3.3448 2.17.1338 3.71 2.4417 5.42 3.8465zM960.173 160.655l2.007 1.405c1.789-.985 3.442-2.199 4.917-3.613 6.79-8.535 11.99-18.222 15.353-28.598.821-1.766 1.047-3.752.643-5.658-.405-1.906-1.417-3.629-2.884-4.911l-20.036 41.375zM852.164 167.143l-6.489 1.238c-.669-.903-1.572-1.539-1.572-2.141 0-7.693.201-15.386.702-23.045 0-1.338 2.108-2.576 3.345-3.847 1.439 1.338 3.947 2.542 4.148 4.047.424 4.514.547 9.05.368 13.58-.176 1.831-.018 3.678.468 5.452 2.409-8.496 4.181-17.159 1.405-25.888-3.98-12.376.736-23.715 3.746-35.221.536-2.1072 2.911-3.7127 4.449-5.5523 4.181-5.0507 7.158-10.3354 5.82-17.4598-.704-5.2996-1.04-10.6419-1.003-15.9881-.234-6.2881 3.345-11.1715 6.69-15.8542 2.542-3.5455 15.922-4.2144 18.832-.97.944 1.0679 1.666 2.3126 2.126 3.6619.459 1.3493.646 2.7763.55 4.1983-1.773 10.0344-3.947 19.868-6.69 29.5679-.903 3.3448-1.673 5.6192.936 7.8937 5.553 4.7496 6.189 10.3686 4.516 17.2586-1.393 7.027-2.365 14.131-2.91 21.273-.435 3.78-1.438 6.69-5.887 7.258-4.984.502-6.523 4.382-7.392 8.329-3.345 14.817-7.56 29.401-8.162 44.82-.602 15.419-5.686 30.371-10.771 44.987-3.142 9.637-6.782 19.104-10.904 28.364-4.483 9.633-10.035 18.831-15.287 28.063-1.748 2.154-3.785 4.056-6.054 5.652-3.345-4.281-1.739-7.458-.669-10.703 6.155-18.463 12.209-36.993 18.397-55.456 5.669-17.281 8.647-35.331 8.831-53.517.066-.79.066-1.584 0-2.375-.402-2.441-.937-4.749-1.539-7.626z"/><path fill="#fff" d="M796.739 319.666c-3.88-3.144-3.011-6.121-2.141-9.299 4.75-17.192 10.035-34.25 13.982-51.61 3.48-15.053 5.596-30.39 6.322-45.823.803-17.059 2.442-34.05 3.746-51.075.602-7.961 1.84-15.955 1.739-23.882-.393-6.879-1.287-13.721-2.675-20.47-.834-3.791-.697-7.73.396-11.455 1.093-3.724 3.108-7.112 5.859-9.851 4.531-4.6684 7.207-10.8278 7.526-17.326.568-8.4623 0-16.958 0-26.3568 4.114-1.3714 9.232-3.3448 14.55-4.7496 6.69-1.639 8.931 0 9.266 6.9571.559 5.3609-.601 10.7607-3.312 15.4194-1.552 3.0658-2.677 6.3293-3.345 9.6999-.751 1.8794-.742 3.9774.026 5.8502.768 1.8727 2.234 3.3733 4.088 4.1842 4.349 2.2075 4.416 5.8868 2.375 9.5326-3.856 7.322-6.467 15.234-7.726 23.413-1.143 3.261-2.564 6.416-4.249 9.433-1.819 3.487-2.954 7.291-3.344 11.205.802 26.959-4.616 53.081-9.734 79.271-2.89 16.287-6.596 32.418-11.105 48.332-4.683 14.179-10.109 28.102-16.257 41.71-1.07 2.675-3.947 4.615-5.987 6.89zM861.898 267.755c.52-3.07 1.257-6.099 2.208-9.065 6.689-16.523 14.45-32.745 20.471-49.569 3.267-10.702 5.771-21.622 7.492-32.679 2.475-12.242 5.118-24.55 6.69-36.792.573-7.461.36-14.961-.635-22.377-.396-3.309-.094-6.664.885-9.85.98-3.186 2.615-6.131 4.801-8.6466 4.034-4.9443 7.669-10.201 10.871-15.7204 1.61-2.4696 2.22-5.4592 1.706-8.362-2.241-6.2213.636-10.904 3.345-15.7874.936-1.6181 1.963-3.1816 3.077-4.6827 7.426-10.837 9.567-11.4726 21.709-6.3216l2.141.9366c2.542 3.7796 0 7.1912-.469 10.7701-1.271 7.4254-2.508 14.4495-9.064 19.7677-4.215 3.3448-3.68 9.1312.368 13.3791 3.345 3.3448 1.973 6.1544.434 9.4322-3.4 6.315-6.319 12.879-8.73 19.634-2.258 6.699-5.043 13.208-8.329 19.467-3.345 6.689-3.612 14.951-5.619 22.376-4.148 15.185-7.292 30.839-13.38 45.255-5.017 12.142-9.199 25.019-17.862 35.622-4.516 5.519-7.693 12.108-11.707 18.095-2.542 3.445-2.743 3.345-10.403 5.118zM1174.85 413.42c11.64 1.973 23.15.602 34.09 4.515 1.5.488 2.82 1.44 3.75 2.72.93 1.28 1.43 2.822 1.43 4.405 2.16 17.776 6.41 35.235 12.68 52.011 2.7 7.308 7.33 13.754 13.38 18.664 2.13 1.611 4.01 3.527 5.58 5.686 4.82 6.957 2.98 15.419-4.91 18.196-10.24 3.579-20.61 6.689-30.61 11.104-1.61.713-3.42.818-5.1.295-1.68-.523-3.11-1.638-4.03-3.138-3.89-4.434-6.24-10.008-6.69-15.887-.69-10.109-2.43-20.119-5.19-29.869-3.67-13.614-6.08-27.561-9.09-41.342-1.61-7.291-3.35-14.516-5.05-21.808-.24-1.841-.32-3.698-.24-5.552z"/><path fill="#fff" d="M784.83 300.667c-3.191-4.878-4.488-10.755-3.646-16.523 2.342-17.727 5.52-35.354 7.493-53.115 1.372-12.175 1.305-24.517 1.873-36.793.736-16.724-3.077-32.912-3.345-49.335-.401-18.564-1.538-37.428 3.044-55.8581 2.631-10.6255 2.688-21.7253.168-32.3774-.299-.8957-.404-1.8443-.31-2.7835.095-.9393.387-1.8479.858-2.6661.471-.8183 1.109-1.5276 1.874-2.0815.764-.5538 1.637-.9396 2.562-1.1319 2.592-.6367 5.216-1.1391 7.86-1.5052 7.359-1.3044 11.172 2.1741 10.269 9.6664-.573 3.6845-1.344 7.3355-2.308 10.9375-.803 3.6458-1.973 7.2581-2.475 10.9374-.636 4.5155-.803 8.9306 3.813 12.1081 1.402 1.0689 2.434 2.5507 2.95 4.2367.516 1.6861.491 3.4915-.073 5.1621-.182.5045-.338 1.0185-.469 1.5385-.234 11.573-3.846 22.109-7.526 33.08-3.345 10.268-2.441 22.142-2.709 33.448-.368 14.416 0 28.865 0 43.482-.201 20.47-5.218 40.137-10.302 59.838-2.275 8.763-4.918 17.426-7.426 26.123-.636 1.256-1.362 2.463-2.175 3.612zM1540.45 1035.15c6.23 3.11 6.29 7.82 5.72 13.38-.93 8.46-.97 17.05-1.6 25.58-.27 3.55-1.11 7.1-1.98 12.31-14.75-15.45-15.82-32.17-12.44-50.4 1.07-.47 2.24-1.01 3.35-1.41 1.1-.4 2.5-.73 4.34-1.24l-10.53-9.7c-.74 5.79-1.37 11.54-2.28 17.23-.16 2.61-.92 5.14-2.24 7.39-3.27 3.89-6.75 7.58-10.43 11.07-2.31 2.41-4.55 2.58-6.69-.4-.91-1.3-1.74-2.67-2.68-3.98-7.79-11.3-7.59-12.07 1.37-22.54 3.04-3.71 5.61-7.79 7.63-12.14 4.01-8.43 7.52-17.1 11.37-25.624.91-1.687 1.95-3.297 3.11-4.817l1.71.636c-.83 3.955-1.44 7.952-1.84 11.975-.2 4.21.33 8.49.6 13.38 4.68-2.58 7.23-5.59 6.42-10.74-.03-1.87-.19-3.73-.47-5.585-1.4-5.217.81-8.127 6.69-9.532-2.61-1.739-4.51-2.843-6.25-4.181-1.81-1.197-3.2-2.922-3.99-4.939s-.94-4.228-.43-6.333c3.01-12.476-.73-24.317-3.34-36.258-.5-2.441-1.44-4.582.63-6.689 2.08-2.107 4.35-.435 6.69.234 4.54 1.464 9.17 2.637 13.85 3.512.73-.016 1.45.129 2.12.427.66.297 1.26.739 1.73 1.292.47.554.82 1.206 1.01 1.91.19.703.22 1.44.09 2.158 0 3.177.67 6.321.84 9.532.38 2.339.27 4.732-.34 7.024-3.57 8.797-3.68 17.159 2.45 25.153-1.5 1.512-2.59 3.378-3.18 5.424-.58 2.047-.64 4.208-.17 6.283.11 4.001-.34 7.998-1.34 11.878-.7 2.28-.93 4.68-.7 7.05 3.11 9.44-2.51 15.09-8.8 21.68zM740.343 324.348c-1.037-18.363-2.241-36.792-3.011-55.055-.635-13.847-1.338-27.728-.869-41.542.519-15.77-.141-31.557-1.974-47.228-1.031-10.347-1.445-20.745-1.238-31.14 0-8.596 1.506-10.035 9.6-12.443 2.043-.609 4.137-1.035 6.255-1.271 5.085-.669 5.352-.301 5.52 4.716 1.037 26.758.368 53.851-.234 80.777-.469 20.068.669 40.137.635 60.206.335 19.483-1.471 38.943-5.385 58.032-.11 1.059-.49 2.073-1.104 2.943-1.606 1.606-3.345 4.114-5.252 4.114-3.345 0-3.713-3.345-3.78-6.02v-15.988l.837-.101zM779.847 124.531c.903 1.405 2.609 2.843 2.742 4.449.569 7.091 3.044 13.847 2.275 21.306-1.171 11.372-.803 22.912-1.238 34.351-.167 4.248-.903 8.496-1.204 12.744-1.037 13.814-2.776 27.661-2.709 41.508 0 7.292 1.605 14.684.736 22.109-.602 5.017-.97 10.035-1.84 15.052-2.23 12.063-4.527 24.093-6.891 36.09-1.103 5.519-2.441 10.937-3.779 16.389-.603 2.476-1.807 4.717-4.75 4.482-2.944-.234-3.68-2.742-3.813-5.284-.118-1.604-.118-3.213 0-4.817 2.542-27.327 5.418-54.687 7.492-82.047.903-11.975.167-24.049.201-36.057V163.23c0-7.191 0-14.416-.402-21.607-.869-13.245-.501-13.914 13.18-17.092zM641.031 482.891c.736 8.362-3.612 13.379-10.67 16.724-2.308 1.204-3.78 4.114-5.519 6.355-1.523 2.356-3.222 4.592-5.085 6.69-.456.59-1.042 1.068-1.711 1.396-.67.329-1.406.5-2.152.5-.746 0-1.482-.171-2.152-.5-.67-.328-1.255-.806-1.712-1.396-.998-.847-2.128-1.524-3.345-2.007-5.954-3.178-6.321-6.088-1.237-10.737 1.572-1.405 3.612-2.375 5.051-3.913 2.23-2.501 4.318-5.125 6.255-7.861 1.07-1.505 1.773-3.344 2.743-4.849 3.144-5.319 10.034-6.69 12.577-13.38 2.241-5.585 8.094-9.633 11.941-14.683 5.319-6.991 10.369-14.182 15.253-21.474 3.077-4.582 5.653-9.499 8.496-14.349 3.345 4.382 6.155 8.396 9.165 12.342.531.515.954 1.131 1.242 1.812.288.681.437 1.413.437 2.152 0 .739-.149 1.471-.437 2.152-.288.681-.711 1.297-1.242 1.812-2.742 2.91-5.619 5.719-8.429 8.529-6.879 6.403-11.729 14.683-13.948 23.815 0 .769-.502 1.505-.736 2.274-3.178 10.034-4.917 11.038-14.785 8.596zM676.789 188.751c3.144-4.381 6.69-9.064 10.369-14.315 4.449 5.786 5.051 12.342 6.69 18.296 3.95 17.189 5.659 34.817 5.084 52.446 0 9.599 1.004 19.232.803 28.832-.234 13.044-1.037 26.089-1.84 39.134-.2 3.11-.736 6.689-4.85 7.191-2.776.267-4.449-2.944-4.449-8.262 0-11.205 0-22.443.368-33.648.903-19.199-3.713-37.696-6.422-56.427-1.84-10.77-3.88-21.406-5.753-33.247zM641.332 168.95c-1.692.098-3.362-.431-4.688-1.486-1.327-1.055-2.218-2.562-2.504-4.233-.504-1.806-.729-3.679-.669-5.553.268-6.689-2.174-11.372-8.931-13.379-2.308-.635-4.515-1.505-6.689-2.107-2.054-.25-3.94-1.262-5.284-2.835-1.344-1.573-2.049-3.593-1.975-5.661.468-10.904 1.171-21.808 2.308-32.678.435-4.2481 9.533-8.4626 13.38-6.4892.765.4578 1.42 1.0789 1.917 1.819.497.7401.825 1.5809.959 2.4624-.01 2.0868-.491 4.1448-1.404 6.0208-2.877 7.526-2.509 9.131 3.345 14.382 9.163 7.491 16.104 17.346 20.069 28.498 1.94 6.188 1.372 9.8-3.345 14.182-1.434 1.189-2.807 2.451-4.114 3.779-.867 1.036-1.661 2.131-2.375 3.278zM703.548 1239.58c-1.928-1.39-3.272-3.44-3.773-5.77-.5-2.32-.121-4.75 1.064-6.81 1.371-3.34 3.345-6.69 4.817-10.03 2.845-5.92 6.89-11.18 11.876-15.45 4.987-4.27 10.807-7.46 17.091-9.37 4.634-1.24 8.748-3.94 11.74-7.69 2.193-2.23 4.942-3.82 7.961-4.62.758-.19 1.55-.19 2.308 0 .758.18 1.458.55 2.041 1.07 3.679 4.45 6.991 9.23 10.603 14.08-1.538 2.71-2.91 5.29-4.448 7.73-.942 1.79-2.411 3.24-4.206 4.16-1.795.92-3.83 1.27-5.829.99-3.928-.49-7.896.53-11.105 2.85-3.675 2.02-7.668 3.4-11.808 4.08-3.958.67-7.53 2.78-10.035 5.92-5.82 6.25-11.841 12.27-18.297 18.86z"/><path fill="#fff" d="M662.84 81.4506c.943 2.644 1.348 5.4495 1.193 8.2522-.155 2.8028-.867 5.5464-2.096 8.0703-.605 1.7371-.825 3.5849-.646 5.4149.179 1.831.753 3.601 1.683 5.188 3.13 6.736 5.833 13.663 8.095 20.738 2.207 7.024-4.349 13.914-13.949 14.516-1.226-3.394-2.253-6.856-3.077-10.369-1.94-10.034-8.128-16.523-16.29-21.707-5.987-3.78-6.69-6.054-3.077-12.2423 3.612-6.1878 6.355-11.6064 9.533-17.4263 3.178-5.8199 4.482-6.4554 10.704-4.0806 2.007.7804 3.98 1.5832 5.92 2.4082.707.3483 1.379.7626 2.007 1.2376zM1458.57 1066.22c.1 3.64-1.2 7.18-3.62 9.9-2.43 2.72-5.8 4.4-9.43 4.72-4.46.38-8.94-.37-13.04-2.18-1.85-.99-3.89-1.57-5.99-1.7-2.09-.14-4.19.18-6.15.93-6.69 2.31-13.12 4.45-19.77 6.29-3.32.98-6.77 1.46-10.24 1.41-.98-.14-1.92-.48-2.76-1.01-.84-.53-1.55-1.24-2.09-2.07-.5-.87.77-3.71 2.01-4.52 13.11-8.56 25.76-18.22 42.25-19.36 5.81.21 11.58-1.1 16.72-3.82 5.52-3.34 10.77.34 11.67 6.93.17 1.6.31 3.18.44 4.48zM795.936 1110.37c.434 3.98.802 7.09 1.07 10.24.334 2.28-.179 4.6-1.442 6.53-1.264 1.93-3.19 3.33-5.415 3.94-11.507 3.91-19.802 12.14-27.997 20.5-2.275 2.31-4.282 5.32-7.961 3.78-3.68-1.54-7.593-3.04-8.463-7.69-.305-1.57-.528-3.16-.669-4.75-.87-11.38-.301-11.78 11.005-13.38 3.053-.69 5.912-2.07 8.362-4.02 3.08-2.1 5.849-4.62 8.229-7.49 5.887-7.46 13.881-7.66 23.281-7.66zM660.8 509.147c8.864 3.646 8.128 9.801 6.69 15.955-1.773 7.392-1.773 15.419-7.627 22.611-1.505-1.472-3.345-2.576-4.147-4.181-5.486-12.777-7.359-25.554 1.037-38.03.521-.837.821-1.792.869-2.777.469-6.689 7.827-21.506 13.38-26.758l2.642 4.616c.469-.401 1.305-.769 1.506-1.304 1.605-5.319 3.111-10.637 4.683-16.122 2.446-.261 4.92.034 7.236.863 2.317.828 4.416 2.168 6.143 3.92-2.207 7.091-4.214 13.379-6.355 20.269-4.549 2.074-9.232 3.345-13.982-.903-5.452 6.556-3.311 16.289-12.075 21.841zM642.938 1163.89c2.705-3.74 5.667-7.28 8.864-10.6 6.69-6.33 13.38-13.05 22.679-15.93.538-.1 1.043-.32 1.471-.66 6.69-7.43 14.216-5.36 22.111-1.28.602 5.05 1.404 10.34 1.839 15.62.131.88.06 1.78-.206 2.62-.266.85-.72 1.62-1.329 2.27-.609.64-1.356 1.14-2.185 1.45-.829.31-1.719.43-2.602.35-3.712.2-7.421-.42-10.871-1.8-7.492-3.35-13.982-1.24-20.404 2.57-4.148 2.41-8.195 4.99-12.376 7.4-2.475 1.33-4.984 2.2-6.991-2.01zM781.486 92.4548c-6.69-4.3483-12.477-8.1613-18.364-11.7737-1.276-.6996-2.327-1.7466-3.031-3.0195-.705-1.2728-1.034-2.7194-.95-4.1717-.049-4.8103-.486-9.6088-1.304-14.3491-.407-1.9731-.152-4.0253.724-5.8391.877-1.8139 2.327-3.2883 4.126-4.1953 1.756-1.1813 3.773-1.9199 5.877-2.1525 2.104-.2326 4.233.0476 6.205.8167 1.972.7691 3.729 2.0042 5.12 3.5998 1.391 1.5956 2.375 3.5043 2.868 5.5628 2.391 8.2137 2.391 16.939 0 25.1527-.713 3.4147-1.138 6.8831-1.271 10.3689zM705.455 63.79c1.038 2.8917 1.767 5.8852 2.174 8.9305.146 6.0265-.044 12.0564-.568 18.0619-.08.9075-.35 1.788-.794 2.5835-.444.7956-1.051 1.4882-1.782 2.0323-7.375 4.3318-13.309 10.7428-17.059 18.4298-.335.535-1.238.769-2.308 1.371-3.111-5.786-4.549-11.138-1.439-17.3592 1.188-2.6078 1.493-5.5316.87-8.3285-2.207-9.1647 0-16.1887 8.597-20.7042 3.713-2.0068 6.79-5.1175 12.309-5.0171zM601.527 129.548c.736.903 1.606 1.472 1.639 2.108.469 14.917 9.199 25.587 18.398 36.023 2.107 2.375 4.85 4.147 7.057 6.422.937.97 2.141 2.776 1.807 3.679-.275.771-.718 1.47-1.296 2.049-.579.578-1.279 1.021-2.049 1.296-2.485.628-5.108.416-7.459-.602-7.292-4.783-14.25-10.035-21.207-15.353-2.453-1.884-4.324-4.42-5.401-7.319s-1.315-6.042-.687-9.07c.936-6.69.401-14.082 7.225-18.497.631-.311 1.292-.558 1.973-.736zM743.152 1146.86c.112 1.88-.306 3.75-1.205 5.4-.899 1.65-2.243 3.01-3.879 3.94-1.587.76-3.374.99-5.105.67-1.73-.31-3.316-1.17-4.528-2.45-1.252-1.35-2.914-2.24-4.728-2.55-1.815-.31-3.68-.01-5.307.85-2.491.92-5.14 1.34-7.794 1.23-1.727-.12-3.392-.69-4.833-1.65-1.441-.96-2.609-2.28-3.39-3.83-.782-1.54-1.149-3.26-1.068-4.99.081-1.73.608-3.41 1.531-4.88.811-1.55 2.168-2.75 3.809-3.37 1.642-.62 3.454-.61 5.088.03 2.715 1.05 5.634 1.46 8.534 1.21 2.899-.26 5.702-1.18 8.191-2.68 8.296-4.39 12.41-1.78 13.815 7.69.234 1.7.568 3.54.869 5.38zM1462.52 1058.26c8.7-2.37 16.72-6.76 23.41-12.81 4.25-3.68 7.53-2.48 10.04 2.64.27.46.48.95.6 1.47.57 4.05 5.55 7.8 2.44 11.78-3.85 4.91-8.03 10.2-15.22 10.73-2.14.17-4.25.44-6.39.57-11.51.94-14.08-1.6-14.88-14.38zM1060.35 286.385c-13.38-14.349-11.03-30.638-9.83-47.396 4.08 3.345 7.12 7.426 11.1 9.165 4.55 1.357 9.25 2.121 13.99 2.274.24 1.199.34 2.423.3 3.646-.25 1.298-.66 2.558-1.24 3.746-4.55 9.165-9.17 18.296-14.32 28.565zM799.18 1152.92c.669 6.15.167 11-4.649 14.82-4.376 3.55-7.273 8.6-8.129 14.18-1.204 6.35-4.181 8.86-9.265 9.03-2.797.43-5.653-.23-7.979-1.84-2.327-1.62-3.948-4.06-4.531-6.83-.668-1.32-.786-2.85-.328-4.26.457-1.41 1.453-2.58 2.77-3.26 1.329-.88 2.715-1.67 4.147-2.38 3.011-1.11 5.713-2.93 7.882-5.3 2.17-2.36 3.745-5.21 4.595-8.31.37-.99.818-1.95 1.338-2.88 1.572-3.51 3.613-5.82 7.994-3.88 2.008.55 4.075.86 6.155.91zM577.143 530.889c1.605 2.107 2.943 4.047 4.448 5.82 3.646 4.314 3.345 8.127-1.17 11.305-.881.599-1.823 1.104-2.81 1.505-6.393 2.831-11.557 7.864-14.551 14.182-1.837 4.421-5.195 8.039-9.466 10.202-9.6-9.901 7.259-41.141 23.549-43.014zM1092.23 64.3249c0 7.693-4.38 12.8439-8.53 17.8946-2.47 3.0103-16.52 3.7796-19.63 1.6389-3.11-2.1407-3.98-13.3791-1.01-15.9881 3.92-3.5454 8.06-6.8902 12.21-10.0343.89-.8157 2.04-1.2686 3.25-1.2686 1.2 0 2.36.4529 3.24 1.2686 3.11 2.2745 6.62 4.0472 10.47 6.4889zM804.666 1115.62c5.017 1.01 8.663 1.61 12.209 2.51.919.09 1.8.41 2.558.94.758.52 1.367 1.24 1.767 2.07.401.83.58 1.75.519 2.67-.06.92-.358 1.81-.863 2.58-.65 1.48-1.556 2.83-2.676 3.98-5.108 4.33-8.802 10.08-10.604 16.53-.074.6-.288 1.18-.626 1.69s-.789.93-1.319 1.23c-.53.3-1.123.48-1.731.51-.609.03-1.217-.08-1.776-.32-1.271-.34-2.542-.7-3.847-.94-8.095-1.37-10.403-5.32-4.917-10.9 6.232-6.01 10.222-13.96 11.306-22.55z"/><path fill="#fff" d="M673.176 492.758c3.345.502 6.088.803 8.663 1.271.527.036 1.04.185 1.504.437.464.252.869.6 1.186 1.022.317.422.54.908.653 1.424.113.515.114 1.049.002 1.565-.836 7.927 2.977 14.349 6.858 20.705 1.773 2.306 3.35 4.756 4.716 7.325.268.839.33 1.73.178 2.598-.151.868-.511 1.687-1.048 2.385-.739.42-1.575.64-2.425.64-.85 0-1.685-.22-2.425-.64-6.422-5.998-12.621-12.175-18.598-18.53-1.102-1.489-1.593-3.344-1.371-5.184.468-4.917 1.371-9.8 2.107-15.018zM1285 160.454l-13.78 11.941c-7.03-2.408-13.85-4.984-15.86-13.379-1.13-4.683-.33-6.69 3.92-8.094 4.01-1.395 8.14-2.414 12.34-3.044 3.35-.468 6.69-.201 8.2 4.281 1.42 2.946 3.15 5.728 5.18 8.295zM987.233 389.505c-1.169 2.507-2.487 4.942-3.947 7.291-6.065 8.741-12.22 17.371-18.464 25.889-1.283 1.979-3.013 3.629-5.051 4.816-4.248 2.074-8.797 3.345-13.012 5.118-2.876-2.509-2.174-4.415-.301-6.456 9.801-10.502 19.468-21.172 29.436-31.541 2.9-2.575 6.01-4.902 9.299-6.957l2.04 1.84zM824.234 1095.49c7.493 4.38 8.764 7.32 6.69 14.38-1.004 3.34-3.011 5.69-6.69 5.38-5.954-.5-11.908-1.33-17.494-1.97-2.141-6.05 1.371-10.2 1.907-14.78h-.168c1.218-1.21 2.74-2.07 4.406-2.49 1.667-.42 3.415-.38 5.061.11 2.193.1 4.389-.11 6.522-.63h-.234zM889.259 140.552c.831 4.606 1.3 9.269 1.405 13.948-.301 6.121-1.672 12.175-2.575 18.229-.535 3.545-2.275 5.118-6.055 4.415-5.184-.97-7.158-2.341-6.355-6.288 1.773-8.864 3.813-17.727 6.289-26.424.501-1.873 3.344-3.11 4.917-4.616l2.374.736zM600.357 510.419c1.928.559 3.807 1.275 5.619 2.141 4.449 2.742 4.917 5.017 1.94 9.131s-5.787 8.161-8.864 12.108c-1.104 1.553-2.659 2.729-4.454 3.369-1.795.64-3.743.713-5.581.21-3.579-.836-6.89-3.111-6.957-6.69 0-2.374 2.475-4.783 3.846-7.191.165-.213.404-.356.669-.401 3.155-.834 6.059-2.424 8.46-4.633 2.401-2.209 4.228-4.97 5.322-8.044zM532.722 548.716c6.155-18.129 28.633-32.378 40.708-25.755-5.452 5.285-10.637 10.369-15.956 15.353-.887.556-1.934.802-2.977.702-8.161.033-14.851 3.78-21.775 9.7zM1262.15 279.328l-23.41-11.54c7.09-6.689 15.15-8.562 22.81-10.971 2.18-.702 4.45.87 4.75 4.081.86 6.441-.61 12.978-4.15 18.43zM682.308 457.604l16.959-20.068 8.63 5.619c-3.914 7.392-7.493 14.048-11.607 21.774l-13.982-7.325zM1224.52 141.857c5.39-10.335 5.59-10.402 16.73-6.154 7.16 2.776 7.26 3.345 3.88 17.025-7.71-1.743-14.82-5.493-20.61-10.871zM913.51 181.761c3.881-12.978 7.56-25.22 11.507-38.331 2.744 6.57 3.59 13.777 2.442 20.804-1.07 4.114-2.308 8.195-3.345 12.276-2.04 6.756-2.709 7.09-10.604 5.251zM1161.5 355.455l10.88-3.077c6.92 8.596 1.23 15.821-2.04 23.079-.54 1.137-3.18 1.873-4.72 1.672-1 0-2.34-2.14-2.51-3.344-.7-5.954-1.07-11.674-1.61-18.33zM577.444 516.138c5.921-5.084 11.239-9.8 16.725-14.248.97-.803 3.646-1.238 4.047-.703.511.648.872 1.401 1.057 2.205.185.804.189 1.639.013 2.444-1.687 3.577-3.786 6.945-6.255 10.035-4.248 5.418-8.529 5.485-15.587.267zM810.988 166.341c-2.809-7.548-3.638-15.689-2.408-23.648.153-.747.49-1.444.98-2.028.491-.584 1.12-1.037 1.829-1.316.733.04 1.443.271 2.059.67.616.399 1.117.952 1.454 1.604 1.037 8.797 2.374 17.293-3.914 24.718z"/><path fill="#fff" d="M808.646 1098.5c-1.204.93-3.144 1.67-3.344 2.84-1.706 7.09-6.69 7.26-12.277 6.22-.769 0-1.505-.4-2.241-.57.301-7.09 2.007-8.76 14.283-14.01 1.138 1.87 2.275 3.78 3.345 5.65l.234-.13zM1586.38 393.218c-6.52 4.448-11.04 9.532-8.43 17.325-1.61 1.394-3.65 2.194-5.78 2.267-2.13.073-4.22-.585-5.93-1.865-1.71-1.488-2.92-3.475-3.44-5.682-.53-2.207-.36-4.525.5-6.627 2.32-5.634 5.12-11.061 8.36-16.222 2.64-3.913 5.55-3.78 8.46 0 2.35 3.445 4.44 7.056 6.26 10.804zM1528.21 301.37c.94-.636 2.81-2.843 4.72-2.877 2.91.108 5.75.948 8.26 2.442.61.422 1.11.997 1.44 1.669.32.671.47 1.415.42 2.16-.05.744-.28 1.464-.69 2.089-.41.624-.98 1.132-1.64 1.474-11.57 5.786-11.91 16.322-12.14 27.026v4.783c0 .234-.2.434-.5 1.037-4.15-1.74-3.92-5.586-3.55-8.697.8-6.689.97-13.714 4.22-20.069 1-2.675-.27-6.522-.54-11.037zM923.98 599.69l-6.69 5.988c.435 1.639.97 3.545 1.74 6.422l-16.926 3.344 1.037-7.559-9.767-1.739-.201-1.371 30.105-6.422c.267.267.468.869.702 1.337zM1496.3 520.185c-3.34 1.94-5.75 1.07-6.19-2.141-.56-4.194-2.05-8.21-4.37-11.753-2.31-3.542-5.39-6.521-9.01-8.717.35-.85.9-1.604 1.6-2.197.7-.594 1.53-1.01 2.43-1.214.89-.203 1.83-.188 2.72.045.88.233 1.7.676 2.38 1.292 2.43 1.544 4.35 3.765 5.52 6.389 1.94 5.92 3.21 12.108 4.92 18.296zM1617.59 393.184c5.92-3.144 10.67-2.81 13.38.936 2.41 2.979 4.2 6.411 5.26 10.094 1.07 3.682 1.38 7.541.93 11.347-3.78-4.884-6.39-8.63-9.37-12.042-2.98-3.411-6.12-6.321-10.2-10.335zM1572.13 446.5c5.62 11.539-.47 20.069-3.34 29.233-1.64-6.096-2.91-12.284-3.82-18.53-.4-4.114 3.48-6.656 7.16-10.703zM1395.18 538.682c-3.34-5.82-5.92-10.034-8.63-14.316-1.47-2.341-2.1-4.783.34-6.255 1.97-1.107 4.29-1.418 6.49-.869 2.05.969 3.71 2.604 4.71 4.639s1.29 4.349.81 6.566c-.77 3.01-2.11 5.853-3.72 10.235zM1540.25 438.907c1.76 2.023 3.38 4.157 4.85 6.389.46.804.74 1.691.84 2.608.11.917.02 1.846-.24 2.73-.27.884-.71 1.705-1.3 2.414-.59.709-1.32 1.292-2.14 1.714-2.11 1.404-4.21 2.107-6.39 0-1.37-1.255-2.23-2.964-2.44-4.81-.2-1.846.27-3.703 1.34-5.225 1.37-1.706 3.11-3.311 5.48-5.82zM1438.37 528.982c-2.18-5.686-4.05-10.636-5.92-15.586 5.61-4.282 7.92-3.546 9.66 2.91 1.24 4.682 1.44 8.964-3.74 12.676zM1610.2 439.342l-11.21-18.798c3.71-1.472 6.69.87 9 3.345 4.35 4.749 3.88 10.235 2.21 15.453zM1521.49 478.944c6.39-.368 7.89.602 7.42 5.786-.46 5.185-1.67 10.402-2.57 15.854-1.61-7.191-3.28-14.081-4.85-21.64zM1454.59 323.479c-6.89-4.181-8.66-11.64-5.12-21.808 2.11 6.99 5.02 13.78 5.12 21.808zM1581.7 421.882c3.34 7.927 1.27 11.674-6.69 12.443-.71-6.991.9-9.934 6.69-12.443zM1349.86 546.575c-3.35-4.983-6.36-9.265-9.43-13.747.41-.567.96-1.023 1.6-1.331.63-.307 1.33-.455 2.04-.432.7.023 1.39.217 2 .565.61.348 1.13.839 1.51 1.432 1.81 2.611 3.13 5.522 3.92 8.597.33 1.137-.87 2.742-1.64 4.916zM1122.24 571.461c4.38 3.345 3.71 7.76 4.95 11.907-8.3-2.341-9.5-5.284-4.95-11.907zM1605.51 347.762c3.55 7.994 3.62 8.529 1.64 14.449-6.42-6.388-6.69-8.094-1.64-14.449zM1164.28 573.467c-1.68-.36-3.18-1.325-4.2-2.711s-1.5-3.098-1.35-4.814c0-2.475.97-3.178 5.55-4.315v11.84zM1083.43 590.258c-.35-2.211-.44-4.457-.26-6.689.2-1.037 2.04-2.107 3.34-2.408.5 0 2.28 1.906 2.11 2.709-.59 2.365-1.4 4.671-2.41 6.89l-2.78-.502zM1205.99 569.554c-1.83-1.976-3.51-4.089-5.01-6.322-.44-.668.63-2.207 1.03-3.344 1.31.468 3.35.602 3.82 1.471.83 2.4 1.42 4.876 1.77 7.392l-1.61.803zM1242.42 548.214c1.86.709 3.41 2.068 4.35 3.826.94 1.758 1.21 3.797.77 5.74-6.59-2.642-6.59-2.642-5.12-9.566zM1492.96 331.673c-4.29-5.051-4.19-6.355 0-11.774v11.774zM1056.54 596.948c-6.69-1.405-6.69-1.405-4.35-7.392l4.35 7.392zM788.309 639.46c-1.507-.583-2.792-1.629-3.669-2.987-.877-1.358-1.302-2.958-1.215-4.572 4.617 1.94 4.616 1.94 4.884 7.559zM884.476 624.442c.435 2.91.703 4.884 1.138 7.827-2.074-.736-3.78-.836-4.616-1.739-3.044-3.378-.168-4.348 3.478-6.088zM979.607 606.414l2.91 6.69c-7.025-1.372-7.025-1.372-2.91-6.69zM932.577 620.897c-.837-1.773-1.706-3.546-2.442-5.352.602-.404 1.227-.773 1.873-1.104.903 1.84 1.773 3.713 2.643 5.553l-2.074.903zM1307.21 547.345c.57 2.308 1.1 4.616 1.91 7.927-4.95-1.907-3.72-4.917-4.05-7.359l2.14-.568zM1014.93 597.082l2.64 6.69c-.93.334-1.47.735-1.84.602-3.21-1.037-3.71-3.011-.8-7.292zM1631.6 345.888c-.43 2.241-.9 4.449-1.37 6.69l-1.87-.334c.37-2.342.77-4.683 1.14-6.991l2.1.635zM378.42 77.5703c-.443-3.0457-.655-6.1205-.636-9.1981.608-4.0925.159-8.2725-1.305-12.1423-1.464-3.8699-3.893-7.3009-7.057-9.9667-4.951-4.181-5.653-8.7299-3.847-16.356 4.482 8.1947 10.904 13.6133 15.219 20.4032 5.553 8.7633 3.646 18.2625-.501 27.2265l-1.873.0334zM454.45 59.6426c1.25 5.8419.821 11.9184-1.238 17.5266-.401 1.4048-3.345 2.7427-5.051 2.8765-1.705.1338-3.344-1.572-4.047-2.9768-3.579-5.9872-2.743-8.3285 3.345-11.9409 2.437-1.6879 4.772-3.5196 6.991-5.4854zM477.631 81.3164c.798.0794 1.572.3156 2.279.6952.706.3796 1.33.895 1.837 1.5166.507.6216.885 1.3372 1.115 2.1056.229.7684.304 1.5746.221 2.3722.092 3.9456-.567 7.8729-1.94 11.5729-1.372 3.0101-7.392.5691-8.429-3.5789-.765-2.6575-.704-5.4845.174-8.1067.878-2.6222 2.532-4.9157 4.743-6.5769zM502.852 114.029l9.265-14.3493c6.255 3.5793 6.69 5.8533 1.907 13.0783-3.546 5.218-5.453 5.485-11.172 1.271zM423.208 41.6475c5.419 5.2178 5.152 7.5257-2.341 17.0249-2.141-1.3379-5.319-2.3079-6.489-4.3817-1.539-2.7761.635-5.4854 3.044-7.4923 2.408-2.0068 3.88-3.4117 5.786-5.1509zM538.007 117.942c.769 1.439 2.408 3.078 2.174 4.349-.66 3.683-1.784 7.268-3.345 10.669-.491.675-1.135 1.224-1.879 1.602-.744.378-1.568.574-2.402.573-.549-.027-1.081-.197-1.544-.493-.463-.296-.84-.708-1.093-1.196-.254-.487-.376-1.032-.353-1.581.022-.549.188-1.082.481-1.547 1.806-4.114 3.88-8.094 5.82-12.108l2.141-.268zM573.965 181.727c-11.072-5.787-14.049-13.379-7.861-20.069 2.543 6.422 4.984 12.677 7.861 20.069zM564.934 133.963c4.114 2.71 9.667 2.843 9.667 8.897-1.562 1.098-3.463 1.603-5.364 1.425-1.9-.178-3.675-1.027-5.006-2.395-1.973-1.973-1.906-2.809.703-7.927zM536.769 151.758c.469 5.285.937 10.569 1.472 16.255-8.396-2.04-9.265-8.729-1.472-16.255zM500.242 145.202c-3.98-8.563-3.713-10.536 1.84-15.42 1.706 6.456 1.505 8.396-1.84 15.42zM480.374 114.028c-1.84 4.048-3.011 6.69-4.65 10.035-2.977-7.66-2.977-7.66 4.65-10.035zM1099.89 311.805c16.16-16.322 36.8-24.584 57.9-31.875l.87 1.438-28.63 18.931c-6.59 4.978-13.92 8.905-21.71 11.64l-7.43 2.074-1-2.208zM846.745 397.064c-.409 3.309-1.183 6.562-2.308 9.7-5.017 10.569-10.436 20.905-15.754 31.307-.729 1.234-1.521 2.428-2.375 3.579-1.807-12.209 6.957-32.913 20.437-44.586zM829.92 394.355l-21.876 40.137-1.572-.836c5.118-14.717 10.838-29.1 21.508-40.806l1.94 1.505zM960.172 160.655l20.07-41.375c1.468 1.281 2.48 3.005 2.884 4.911.404 1.906.179 3.891-.643 5.658-3.363 10.376-8.563 20.062-15.353 28.598-1.475 1.414-3.128 2.628-4.917 3.613l-2.041-1.405z"/></svg>