<svg xmlns="http://www.w3.org/2000/svg" fill="none" viewBox="0 0 2632 1497"><path fill="#fff" d="M1773.9 605.716c-.09 1.07-.3 2.125-.64 3.144-2.34 4.917-5.99 6.021-9.16 1.84-5.42-7.058-11.88-5.887-18.74-3.847-4.75 1.405-9.43 3.011-15.52 4.951-5.05-2.074-11.47-6.121-18.33-7.125-6.85-1.003-13.91 1.137-21.1 1.94 0-5.786-.27-11.506 0-17.192 0-1.906 1.9-3.713 3.01-5.519 3.64-5.92 3.34-9.332-1.24-14.282a45.69 45.69 0 00-5.12-5.084c-2.07-1.606-4.88-2.542-3.75-6.121a10.042 10.042 0 018.47-7.325c3.75-.409 7.54.071 11.07 1.402a24 24 0 019.23 6.257c7.23 8.53 13.78 17.594 20.67 26.424a5.34 5.34 0 001.55 1.421c.6.368 1.27.612 1.97.72a20.756 20.756 0 00-.91-4.047c-2.44-5.017-4.81-10.035-7.66-14.951-4.31-7.326-4.25-15.286-4.21-23.414-.15-1.468.2-2.943.98-4.196a6.688 6.688 0 013.33-2.728 98.982 98.982 0 0114.85-5.652 17.49 17.49 0 0119.84 8.93c5.65 9.633 10.34 19.801 15.45 29.769.57 1.137 1.11 2.308 1.71 3.612 3.88-.87 4.58-3.144 3.34-6.02-1.23-2.877-3.01-5.653-4.34-8.597-2.75-6.054-5.69-12.074-7.93-18.329a12.88 12.88 0 01.18-8.598 12.88 12.88 0 015.57-6.554 39.352 39.352 0 0111.71-4.883c10.97-2.241 19.63 2.943 23.81 14.182 2.51 6.689 4.22 13.78 6.23 20.704.3 1.003.23 2.141.6 3.144a6.67 6.67 0 003.12 2.909c1.32.604 2.81.757 4.24.436 3.04-1.204 2.71-3.813 1.8-6.088-1.43-3.712-3.34-7.258-4.98-10.87-2.35-4.445-4.4-9.037-6.15-13.747a12.012 12.012 0 01-.66-4.754c.1-1.613.52-3.189 1.23-4.639.71-1.45 1.71-2.744 2.92-3.807a12.247 12.247 0 014.16-2.387 43.058 43.058 0 0131.31-.636c4.89 1.573 9.8 12.477 8.73 18.33-1.7 9.499-1.7 9.499 5.72 17.861.97-.07 1.93-.261 2.85-.569a32.34 32.34 0 003.61-2.274c-2.24-8.128-3.98-16.222-6.69-23.982-2.71-7.76.64-14.082 9.8-15.42a77.085 77.085 0 0113.58-.903c1.74-.014 3.47.34 5.06 1.038a12.32 12.32 0 014.2 3.012 12.483 12.483 0 012.6 4.462c.54 1.654.73 3.403.55 5.135v21.507c-.04 1.603.21 3.201.74 4.716a5.798 5.798 0 003.05 3.037c1.37.585 2.91.623 4.31.107 1.27-.301 2.77-3.345 2.7-4.984-.23-5.05-1.37-10.034-1.8-15.084a134.74 134.74 0 01-.4-14.35 5.392 5.392 0 011.39-4.079c.5-.548 1.1-.989 1.78-1.294.67-.305 1.4-.469 2.15-.48 9.09-1.037 18.02-1.572 26.76 2.074 4.28 1.739 7.02 4.181 6.48 8.797-.53 4.615-1.77 9.867-2.7 14.784-.67 3.344-1.58 6.689-1.98 10.034-.4 3.345 2.28 4.984 5.42 5.719a4.18 4.18 0 005.17-2.108 4.2 4.2 0 00.42-1.972 87.772 87.772 0 001.43-18.162c-.9-11.072 5.42-14.182 13.08-13.714 6.09.568 12.11 1.688 18 3.345 3.78.936 5.32 4.582 4.62 10.034-.71 5.452-2.08 11.004-2.81 16.724-.81 6.154 2.07 8.529 7.89 6.924 3.58-.97 4.08-3.813 3.98-6.924-.2-5.084-.67-10.034-.54-15.219 0-6.422 2.51-8.161 9.17-7.425 3.34.368 6.36.87 9.53 1.171 9.64.936 12.21 4.181 10.87 14.148-.53 3.947-1.57 7.86-1.97 11.841.16 1.689.6 3.339 1.31 4.883 1.83-.769 4.61-1.004 5.31-2.375a51.462 51.462 0 004.49-11.807c1.63-6.455 3.68-8.596 10.4-8.629 3.21.004 6.4.363 9.53 1.07 7.83 1.706 10.84 7.626 7.56 15.118-1.6 3.646-4.08 6.924-5.82 10.503-2.44 4.95-.33 8.864 4.92 8.864a7.27 7.27 0 005.12-2.81c2.62-4.022 4.98-8.212 7.05-12.543 2.71-5.385 4.62-7.258 10.27-6.255a82.599 82.599 0 0113.75 4.917c2.94 8.061-4.65 14.55-1.87 23.414a46.944 46.944 0 004.88-5.285c5.69-8.897 7.46-9.198 15.99-2.509.94.548 1.91 1.04 2.91 1.472l7.43-8.228c7.09 3.344 7.12 11.907 10.97 17.694 8.66-5.185 9.4-7.593 4.71-14.818-1.74-2.676-3.74-5.151-5.62-7.726 1.24-4.081 3.08-7.526 7.53-7.359 4.45.168 6.42 3.144 7.56 7.158.8 2.776 2.07 5.419 3.14 8.195 7.8-4.014 8.3-6.188 3.92-12.777a27.777 27.777 0 01-4.35-9.232 7.21 7.21 0 01.69-3.23 7.34 7.34 0 012.05-2.59c2.31-1.639 4.62 0 5.96 2.342 1.33 2.341 1.8 3.846 2.81 5.719 1.33 2.509 2.77 4.95 4.81 8.563l6.69-6.389c-3.91-5.251-8.63-9.231-10.03-14.115-.91-3.344 2.84-8.161 4.45-12.175 6.69-.501 7.09 4.583 8.89 8.095 1.54 2.977 1.38 7.024 5.66 8.061 7.72-4.349 8.19-6.255 2.47-13.179-3.34-4.248-7.06-8.094-4.95-14.249 1.27-3.813 3.35-5.151 7.23-3.712 2.26.905 4.32 2.261 6.04 3.986a17.859 17.859 0 013.99 6.048c1.21 2.609 2.34 5.218 3.68 8.262 4.42-2.576 7.13-4.683 4.85-9.801-1.57-3.612-1.94-7.759-3.34-11.539-.58-1.784-.8-3.666-.63-5.534.17-1.868.71-3.684 1.6-5.337.18-.733.59-1.393 1.15-1.898a3.809 3.809 0 012.02-.932c.75-.105 1.51.017 2.19.348.68.332 1.25.858 1.63 1.512a21.672 21.672 0 013.04 6.389c.6 1.739.5 3.713 1 5.519a7.07 7.07 0 002.7 3.809 7.051 7.051 0 004.5 1.275 5.904 5.904 0 003.88-2.627 6.01 6.01 0 00.85-2.24c.12-.796.08-1.61-.12-2.391a23.256 23.256 0 00-2.21-6.69c-3.64-7.225-2.2-14.014 1.38-20.671 1.84-3.344 4.65-3.88 6.69-.669a26.365 26.365 0 013.34 8.864c.39 3.186.62 6.39.67 9.6.27 2.742 1.07 5.217 4.75 5.552a11.812 11.812 0 002.04-11.205 45.84 45.84 0 011.64-24.484c1.54-4.315 3.68-7.793 9.4-7.191a22.562 22.562 0 015.55 18.296c-.45 2.231-.29 4.541.45 6.692a12.782 12.782 0 003.77 5.55 7.172 7.172 0 004.29 2.051 7.214 7.214 0 004.64-1.081c3.34-1.84 2.24-4.549 1.84-7.626a171.166 171.166 0 01-1.61-22.277c0-6.689 4.85-11.706 8.73-16.723 1.94-2.509 5.22-1.405 5.85 2.14.84 5.255 1.28 10.567 1.31 15.888a99.504 99.504 0 01-1.07 10.335c-.6 6.69 1.04 8.864 7.69 10.536 2.08.502 4.15 1.071 6.22 1.405 1.08-.046 2.14-.26 3.15-.635.53-3.345 1.24-6.924 1.67-10.57a45.76 45.76 0 017.31-21.334 45.832 45.832 0 0116.61-15.258 14.997 14.997 0 012.27 4.75c.57 9.399.74 18.798-7.52 25.688a15.41 15.41 0 00-2.98 3.411c-3.35 5.486-2.78 7.426 4.31 11.774 2.18-3.512 4.55-6.957 6.46-10.603 1.91-3.646 3.34-7.927 5.18-11.74 3.35-6.355 6.02-7.66 12.88-6.69 3.15.435 6.29.602 9.43.837 4.08.334 6.46 3.746 4.42 7.224a20.435 20.435 0 01-6.15 6.021 69.955 69.955 0 01-8.03 3.612 11.613 11.613 0 00-5.14 5.346 11.607 11.607 0 00-.85 7.364 8.564 8.564 0 003.91 4.415c2.36.928 4.82 1.557 7.33 1.874 4.35-4.014 5.95-9.868 7.86-15.186a13.867 13.867 0 0110.67-9.566c5.05-1.371 10.03-3.545 15.05-5.452 4.68 6.054-1.4 10.035-2.57 15.386 1.87-.167 3.34-.201 4.68-.468 9.67-1.84 20.47 3.345 23.41 12.041a10.06 10.06 0 004.04 5.648 10.02 10.02 0 006.73 1.677c12.61.203 25 3.317 36.2 9.098a35.769 35.769 0 0113.63 10.8 35.692 35.692 0 016.9 15.958c.81 4.75 1.81 9.432 2.45 14.182a7.117 7.117 0 001.45 4.157c.9 1.2 2.16 2.086 3.6 2.533 13.38 4.682 22.34 15.118 31.61 25.152 9.26 10.035 20.4 19.801 29.06 30.906a104.729 104.729 0 0036.26 28.063 21.125 21.125 0 017.61 5.727 21.124 21.124 0 014.3 8.488 40.208 40.208 0 0010.4 17.728 32.757 32.757 0 018.55 15.9 32.802 32.802 0 01-1.15 18.016 22.634 22.634 0 00-.91 4.682 79.397 79.397 0 01-11.77 33.783 65.076 65.076 0 01-12.01 12.676c-2.31 2.174-5.58 3.345-7.76 5.586a16.762 16.762 0 01-6.45 5.216 16.747 16.747 0 01-8.17 1.474c-4.85-.469-6.18 4.214-8.33 7.559a42.31 42.31 0 01-6.18 7.994c-1.27 1.204-3.68 1.237-6.69 2.107 1.13-5.719 2.04-10.034 2.94-14.617l-1.44-.769c-1.64 1.539-3.34 3.077-4.88 4.649s-2.34 3.144-3.92 3.947a21.376 21.376 0 01-5.78 1.204 14.692 14.692 0 01-.91-5.686c1.01-4.014 2.71-7.86 4.55-12.911-8.93 2.275-10.87 13.379-20.5 12.677a14.2 14.2 0 01.15-5.697 14.177 14.177 0 012.39-5.173c1.27-2.342 3.05-4.416 4.38-6.69 1.81-3.01 1.68-3.679-.77-8.295-2.1 2.542-4.04 4.95-6.05 7.292a9.109 9.109 0 01-3.71 3.225 9.106 9.106 0 01-4.85.822c-4.75-7.091 4.14-12.61 2.54-19.734-7.26 2.909-9.17 14.482-20.07 12.275 1.44-10.302 11.17-17.493 8.66-28.832-6.99 3.579-8.13 13.379-16.49 15.252-3.14-3.01-2.54-6.088-.83-9.432 1.13-2.12 2-4.365 2.6-6.69.1-.623.03-1.259-.2-1.846a3.639 3.639 0 00-1.1-1.499 3.836 3.836 0 00-1.75-.076 3.78 3.78 0 00-1.59.712c-1.98 1.806-3.35 4.08-5.29 6.02-1.94 1.94-4.01 3.914-6.69 6.69-3.34-8.295 4.48-13.379 3.11-20.069-6.35-2.642-7.29 6.255-12.71 6.021 1.47-5.419 2.84-10.636 4.72-17.627-5.12 1.305-8.6 2.007-11.94 3.077a15.068 15.068 0 01-10.81 0 139.718 139.718 0 00-18.16-6.188c-11.54-2.976-18.73-11.071-24.85-20.302-3-4.719-5.45-9.756-7.33-15.019a6.057 6.057 0 00-2.09-3.168 6.11 6.11 0 00-3.56-1.314 180.526 180.526 0 01-37.7-10.034 54.066 54.066 0 01-13.88-9.265 11.159 11.159 0 01-4.25-6.689 11.188 11.188 0 011.24-7.827 39.424 39.424 0 017.56-12.142 24.802 24.802 0 007.52-19.433c0-5.82-.7-11.673-1.2-17.46-.44-4.682-2.74-7.425-7.86-6.957-1.13.054-2.25-.058-3.35-.334a10.486 10.486 0 01-5.71-2.681 10.438 10.438 0 01-3.12-5.481c-1.84-6.689-2.27-6.923-10.94-6.689.43-3.061.7-6.143.81-9.232-.19-2.843-.57-5.67-1.14-8.462-5.08-.201-6.25 2.341-6.39 5.954 0 4.482-.47 8.997-.6 11.338-6.42 5.687-11.34 10.035-16.19 14.249-.17-1.338-.5-3.646-.84-6.221-3.34-.636-5.78-.268-7.02 2.575a74.946 74.946 0 00-6.26 16.223c-1.84 10.469-9.63 15.319-17.12 20.737l-6.32 4.649c-1.41-7.86 5.45-13.178 7.15-20.537-11.97 2.676-14.04 8.028-9.06 21.441l2.11-1.138c-1.21 5.452-2.38 10.904-3.58 16.39h-1.01v-6.857c-4.04 1.271-4.65 6.924-9.43 5.485a11.819 11.819 0 00-2.31 4.549c-.83 3.613-1.23 7.292-2.3 10.904 0-12.242 3.64-24.417.46-37.026-4.91.802-5.82 4.047-6.15 7.96-.67 8.195-1.44 16.39-2.07 23.815-6.03 3.579-11.41 6.89-16.73 10.034-.93.364-1.91.589-2.91.669 2.41-6.455 4.92-12.844 7.13-19.366.43-1.238 0-3.913-.77-4.181a5.649 5.649 0 00-2.52-.409c-.86.058-1.69.313-2.43.744a20.958 20.958 0 00-5.89 8.161 113.513 113.513 0 00-3.08 17.259c-.16 2.115-.16 4.24 0 6.355l-12.31 9.198c-1-7.425-2.11-15.754-3.34-24.116a7.57 7.57 0 00-5.56 2.563 7.534 7.534 0 00-1.53 2.722 7.62 7.62 0 00-.31 3.111c-.16 2.671.27 5.345 1.28 7.826 3.11 6.121 1.17 11.841-.57 18.129-4.02 1.137-8.37 2.141-12.48 3.713a6.99 6.99 0 00-3.65 3.779 49.848 49.848 0 00-2.87 12.343 26.299 26.299 0 01-5.09 13.947c4.75-12.275 5.19-25.453 7.86-38.164a18.92 18.92 0 000-8.663 5.689 5.689 0 00-4.71-3.01c-.93.334-1.77.894-2.43 1.629a5.936 5.936 0 00-1.35 2.586c-.13 3.189.07 6.384.6 9.532a47.228 47.228 0 01-5.02 27.227v-6.69a142.244 142.244 0 00-11.17 9.332 5.528 5.528 0 00-.66 2.609c0 .91.23 1.807.66 2.609 3.01 4.582 1.07 7.191-2.81 9.566-1.07.669-2.64 1.906-2.58 2.743.31 4.114-3.07 4.415-6.69 7.091 1.74-6.69 2.91-11.741 4.45-16.724 2.45-8.061 1.51-16.289 1.48-24.484 0-12.476-.47-24.952-.54-37.462 0-4.482.94-9.064-3.95-13.145a52.037 52.037 0 00-1.07 13.58c1.94 9.734 0 19.166-.73 28.665-.84 12.51-1.84 25.052-3.35 37.462a194.061 194.061 0 01-5.28 25.018c-3.35 13.112-7.56 26.056-11.24 39.101-2.81 10.034-5.35 20.069-8.33 31.106l15.45-25.487c4.25 4.348 3.11 9.8 4.48 14.383.31.936-.63 2.308-.26 3.11 4.65 9.533 2.81 19.835 3.74 29.802a48.55 48.55 0 01-10.47 33.649 79.161 79.161 0 01-28.23 22.878 56.562 56.562 0 01-44.82 4.716c-1.97-.669-4.28-.301-6.32-.869a47.245 47.245 0 01-6.49-3.345c7.29-2.475 12.94 1.037 18.63-2.643 4.7-3.123 8.3-7.654 10.27-12.944-4.82-4.749-4.65-11.74-5.22-18.128-.5-5.519-2.67-8.563-7.56-9.734-8.39-2.074-11-8.529-12.47-15.787-1.01-4.884-1.51-10.034-2.48-16.523a59.075 59.075 0 00-3.58 6.054 6.056 6.056 0 01-2.45 3.039 6.076 6.076 0 01-3.8.908c-3.65 0-4.09-2.777-5.22-5.118-2.48-4.984.33-9.466 1.44-13.948 2.64-10.502 5.88-20.905 9.03-31.909 1.57 8.529 0 17.192 3.34 25.052h1.71a108.87 108.87 0 00-3.82-42.886 108.813 108.813 0 00-20.13-38.057 152.939 152.939 0 00-28.97-29.635c-5.12-3.846-10.7-7.091-15.59-11.172a187.282 187.282 0 01-15.68-14.817 10.265 10.265 0 01-2.61-6.489c-.03-6.625.32-13.247 1.03-19.834.37-3.345 3.72-3.914 6.29-3.813a49.363 49.363 0 0122.45 4.482c14.61 7.726 28.03 16.724 37.69 30.337a185.3 185.3 0 0114.05 23.948c8.57 16.724 17.13 33.783 24.76 51.109a366.756 366.756 0 0111.3 34.685c2.34 7.392 3.95 15.018 6.26 22.377a27.503 27.503 0 004.55 8.429 5.27 5.27 0 007.38 2.048 5.244 5.244 0 001.95-2.048 32.817 32.817 0 004.11-7.727c4.32-10.503 9.27-20.871 12.55-31.709 2.74-9.03 7.42-17.861 5.65-28.731l-10.7-2.241a11 11 0 011.73-5.948 11.044 11.044 0 014.65-4.087l6.43 4.884a211.757 211.757 0 004.58-49.837c-.77-16.457.5-33.181-6.16-50.172l16.93-5.753c-1.74-4.482-6.05-2.843-9.03-3.345-2.61-4.415-4.85-8.629-7.56-12.543-.87-1.237-2.94-1.639-4.48-2.442-.81 1.573-2.45 3.345-2.18 4.717a87.64 87.64 0 003.65 11.171c-2.44-1.706-4.58-3.345-6.69-4.783-4.89-3.11-9.8-5.084-15.49-1.371a16.733 16.733 0 01-5.99 1.104c2.65-6.69 1.51-9.466-5.72-13.647-3.68-2.107-6.69-.87-7.59 3.345a20.95 20.95 0 00.34 5.418 32.267 32.267 0 01-4.02-4.649c-2.84-4.716-6.09-6.154-11.24-3.98a79.814 79.814 0 00-9.73 5.184c-2.61 1.539-5.02 2.944-7.96-.97a55.58 55.58 0 007.49-2.542 54.035 54.035 0 006.52-4.482c-2.04-4.348-3.81-8.429-8.46-8.061-5.85.435-4.88 5.92-5.35 10.035l-1.87 1.204a33.074 33.074 0 00-2.65-4.75c-6.25-7.76-13.68-8.362-22.14-2.81a80.963 80.963 0 01-14.45 5.653c-1.64-2.241-3.71-4.984-5.75-7.726-6.69-8.864-15.32-9.232-22.72-.97a35.195 35.195 0 01-3.61 4.147c-2.44 2.04-5.08 3.78-8.46 6.222l-14.62-14.584c-5.42-5.351-11.47-8.395-19.47-6.121a16.487 16.487 0 00-9.23 7.125c-6.02 8.596-8.43 8.964-16.72 3.11a10.05 10.05 0 00-7.37-2.172 10.064 10.064 0 00-6.75 3.677 8.97 8.97 0 01-3.79 3.299 9.012 9.012 0 01-4.97.749c2.94-5.285 3.07-7.493-.61-10.269a47.535 47.535 0 00-10.33-5.853 10.039 10.039 0 00-10.67 5.017c-1 2.642.87 5.753 4.92 8.128l9.76 5.586 7.19-2.877c-5.21 6.522-5.21 6.69-12.2 2.877a67.37 67.37 0 01-6.9-4.014 17.854 17.854 0 00-23.81 4.515c-3.35 4.382-7.16 8.195-11.04 12.543-6.09-3.345-12.01-6.689-19.27-6.689a16.719 16.719 0 00-15.18 6.957 16.21 16.21 0 01-9.27 6.99l3.61-5.652a102.51 102.51 0 00-8.86-10.035 7.566 7.566 0 00-2.97-1.63 7.578 7.578 0 00-3.38-.176 7.417 7.417 0 00-2.32 2.409 7.461 7.461 0 00-1.03 3.177c0 2.639.72 5.229 2.07 7.492 2.71 5.051 7.97 4.415 13.02 3.947zm306.56 247.179a66.523 66.523 0 006.19-8.194c3.71-6.957 7.12-14.115 10.43-21.273 3.32-7.158 6.39-14.483 9.47-21.741.33-1.527.48-3.088.44-4.649-3.35 4.783-6.06 8.027-8.03 11.673-4.58 8.362-9.03 16.724-13.08 25.521a105.145 105.145 0 00-4.82 14.349c-.28 1.488-.42 3-.4 4.515-3.98.769-6.29 3.345-9.16 7.693 6.22-.569 7.39-4.415 8.96-7.894zm404.74-232.529a32.617 32.617 0 005.45-2.341 19.032 19.032 0 0121.81-.836c4.63 3.031 9.09 6.302 13.38 9.8 1.57 1.137 3.34 2.141 5.59 3.679a94.571 94.571 0 012.81-10.034c3.54-8.998.9-16.49-4.55-23.848-7.86-10.637-20.07-15.687-30.11-23.414-.27-.201-.97.201-1.87.402-.24.907-.37 1.838-.4 2.776a51.355 51.355 0 01-6.69 29.166c-1.37 2.576-2.91 5.084-4.05 7.793a44.36 44.36 0 00-1.27 6.857h-.1zm-90.32-99.741c.71.268 1.41.803 2.08.736 10.03-1.037 17.53 4.214 24.85 9.399a16.695 16.695 0 016.29 9.766c3.04 17.661-4.18 39.87-29.03 40.706-2.93.308-5.83.914-8.63 1.807-2.88.702-5.32 2.542-4.55 5.518a8.78 8.78 0 001.75 3.288c.82.957 1.83 1.73 2.96 2.265 3.55.919 7.27.919 10.81 0a72.54 72.54 0 0012.31-5.753 30.547 30.547 0 0010.84-7.971 30.575 30.575 0 006.35-11.864c2.84-11.64 4.78-23.413 6.69-35.354a13.687 13.687 0 00-5.12-12.878 102.92 102.92 0 00-10.87-8.194c-10.64-6.523-21.37-3.011-26.69 8.529h-.04zm61.99 78.402c19.06-17.527 22.78-48.332 12.31-65.926a20.546 20.546 0 00-11.28 8.027 7.12 7.12 0 00-1.44 2.368 7.101 7.101 0 00-.42 2.74c.04.932.26 1.847.66 2.693.39.845.95 1.604 1.64 2.234a83.62 83.62 0 017.39 10.302c-3.34 4.415-6.69 8.429-9.33 12.911a19.496 19.496 0 00-3.35 10.034 69.682 69.682 0 003.82 14.617zm3.74 39.936c-11.17 2.342-22.01 4.683-32.88 6.891-2.91.602-5.05 1.638-4.91 5.05 15.75 11.239 30 6.823 37.79-11.74v-.201zm-206.08-76.461c-5.52-3.579-11.2-5.921-14.88-10.035-3.68-4.114-5.39-10.034-8.8-17.025-1.17 9.466-2.14 17.393-3.04 24.618 8.62 8.228 17.15 8.094 26.72 2.575v-.133zm-429.66 21.239c-6.95-3.345-12.27-6.991-19-6.69-2.61.168-6.05 0-6.35 3.345a7.94 7.94 0 00.88 3.2 7.93 7.93 0 002.13 2.553c4.08 3.345 8.63 6.054 13.95 9.667l8.39-12.075zm517.5-63.35c7.19-4.951 14.18-8.061 18.7-14.55a8.533 8.533 0 001.74-4.348 8.24 8.24 0 00-1.47-5.653 8.379 8.379 0 00-5.86-.401 7.533 7.533 0 00-3.84 2.642 40.272 40.272 0 00-9.27 22.444v-.134zM2146.86 678.9l1.87.468c1.04-1.572 2.74-3.043 3.08-4.783 1.37-7.024 2.37-14.148 3.34-21.206.47-2.91 1.07-6.321-2.71-7.291-3.78-.97-5.92 2.006-7.19 4.983a13.388 13.388 0 00-.6 6.121c.33 4.783 1 9.533 1.51 14.282.36 2.609.5 5.085.7 7.56v-.134zm-245.02-98.604c8.46-7.76 8.06-15.62-.3-19.768-3.35-1.639-7.09-2.408-9.7.401a7.355 7.355 0 00-1.8 4.817 7.35 7.35 0 001.8 4.816 117.15 117.15 0 0010 9.868v-.134zm302.08-22.878c-.77.301-1.1.334-1.2.501-4.55 7.493-.74 15.018.27 22.444 0 1.003 3.34 2.241 5.18 2.207 4.68 0 9.33-.635 14.12-1.003a69.6 69.6 0 01-11.04-9.767 84.868 84.868 0 01-7.33-14.249v-.133zm362.16 104.658c.81-2.962.86-6.082.13-9.066a18.064 18.064 0 00-4.28-7.993 4.902 4.902 0 00-3.58-2.264 4.908 4.908 0 00-4.01 1.361c-2.64 2.074-4.89 4.716-2.68 8.128a19.709 19.709 0 0014.42 9.834zM2396.66 475.27a14.23 14.23 0 00-10.68 4.654 14.168 14.168 0 00-3 5.144 14.161 14.161 0 00-.64 5.922c.13 1.553-.11 3.114-.69 4.559a10.083 10.083 0 01-2.65 3.77 15.371 15.371 0 00-1.84 3.344c13.64-4.916 15.75-16.422 19.5-27.393zm-75.46 37.562c1.27-9.232 2.37-17.059 3.71-26.759-3.65 2.743-6.69 3.981-7.86 6.155a61.245 61.245 0 00-4.58 12.509c-.24.836 1 2.375 1.94 3.345 1.74 1.371 3.74 2.609 6.79 4.85v-.1zm277.16 220.153c7.52-3.111 9.4-9.231 12.27-14.717a14.475 14.475 0 001.43-5.775c.08-2.002-.26-3.999-.99-5.865-.5-1.605-2.81-2.609-4.28-3.88-.97 1.405-2.54 2.71-2.71 4.215-.47 4.214.2 8.663-.64 12.777a93.676 93.676 0 01-5.08 13.345v-.1zm-323.89-189.682c-4.89-10.035-9.2-19.868-16.73-27.996-2.27 5.084-3.01 7.158-1.47 9.365a202.994 202.994 0 0012.64 16.088c1.38 1.405 3.75 1.807 5.56 2.643v-.1zm-314.83 35.019c0-5.92-9.13-11.706-13.38-9.566a3.576 3.576 0 00-2.35 3.814c.06.537.25 1.051.54 1.505a63.028 63.028 0 004.62 7.391c1.54 2.007 3.78 3.513 6.19 1.706a27.264 27.264 0 004.38-4.85zm44.72 0c-2.31-4.415-4.11-8.596-8.53-10.569-3.78-1.673-7.82.702-7.39 4.114 1.1 8.462 8.03 11.606 15.92 6.422v.033zm360.69-63.851c-15.19 3.779-25.59 12.375-26.49 22.61 7.39-9.867 19.06-12.509 26.49-22.644v.034zm-207.39 85.358a21.46 21.46 0 003.61 11.614 21.398 21.398 0 009.34 7.786c1.97.903 3.94 1.739 5.11-1.137l-18.06-18.263zm370.89 102.351c.8-7.961 1.91-15.286-2.48-22.344a44.11 44.11 0 00-3.88 10.302c-1.47 5.452-.4 7.593 6.29 12.008l.07.034zm-34.86-15.252c5.89-.302 7.06-3.914 7.3-8.162.33-5.452-1.21-7.526-8.27-10.636l.97 18.798zM2129.1 577.62c-5.72 8.295-4.05 13.914 5.21 17.761 3.21-7.593-2.2-12.108-5.31-17.794l.1.033zm453.07 141.384l-14.15 18.931 1.07 1.572c2.01-.769 5.02-.97 5.85-2.441 2.81-5.218 9.94-8.53 7.13-18.096l.1.034zm-29 4.515c9.73-4.348 12.94-14.048 8.46-24.182-2.91 8.06-5.59 15.754-8.56 24.149l.1.033zm-360.75-123.924l-13.85-20.938c-1.64 10.603 4.38 19.4 13.75 20.905l.1.033zm93.65-97.333a4.539 4.539 0 00-2.34 2.321 4.48 4.48 0 00-.16 3.298c.59 2.531.86 5.128.8 7.727-.34 5.05 2.41 7.526 6.92 10.034-1.77-8.261-3.44-15.653-5.18-23.413l-.04.033zM635.477 696.694a45.008 45.008 0 00-2.876-4.381 5.046 5.046 0 010-7.794 6.125 6.125 0 016.529-2.088 6.118 6.118 0 012.134 1.118c1.94 1.472 3.546 3.345 5.486 4.683a35.44 35.44 0 005.218 2.442l1.07-1.205a43.39 43.39 0 00-2.04-4.582c-1.338-2.241-2.007-4.281 0-6.522 2.007-2.241 3.88-3.847 6.924-2.843 3.044 1.003 5.92 2.207 9.834 3.679l-3.345-8.73c5.017-5.686 7.325-5.117 18.431 5.017a46.5 46.5 0 01-.569-5.117c0-5.519 2.977-7.927 8.262-6.355 7.058 2.107 10.369 7.826 12.611 14.282 2.241 6.455 3.712 6.89 10.402 3.913l-5.519-8.495c-3.345-5.118-3.345-7.794-.301-10.704a9.403 9.403 0 0112.343 1.238 57.462 57.462 0 017.192 14.048 9.265 9.265 0 009.131 7.292 45.82 45.82 0 00-1.639-5.519c-1.438-3.145-3.345-6.054-4.549-9.299a7.487 7.487 0 01.291-5.154 7.486 7.486 0 013.556-3.743 6.388 6.388 0 018.73 1.204c4.248 4.482 7.861 9.6 7.493 16.189-.201 4.281 1.539 6.489 6.255 7.358 0-1.94.301-3.679.267-5.385 0-3.344-.468-6.89-.501-10.335a8.197 8.197 0 015.853-8.596c2.877-.937 7.894 2.074 9.567 5.92 2.141 4.883 3.847 10.034 5.72 14.985 1.639 4.381 4.415 4.783 8.195 2.508a96.573 96.573 0 01-1.873-11.64c-.301-7.626 2.207-10.669 8.396-11.138 6.689-.535 10.034 2.208 11.205 9.566a54.871 54.871 0 003.345 13.012 16.727 16.727 0 006.69 6.288c2.709 1.572 5.285-.468 5.084-3.679-.2-3.211-.836-5.82-1.17-8.73a9.128 9.128 0 016.02-9.466c3.881-2.007 6.69.368 9.166 2.843a19.343 19.343 0 016.021 13.546c.2 3.947.869 7.827 1.304 11.607 7.091 0 8.563-1.539 8.362-6.924-.195-3.95-.072-7.91.368-11.84a5.417 5.417 0 015.72-4.616 12.879 12.879 0 0112.979 12.509c0 4.783.301 9.6.702 14.349a8.293 8.293 0 009.098 6.991 7.392 7.392 0 006.255-7.961c0-5.05-.234-10.034 0-15.185a5.346 5.346 0 011.816-4.661 5.355 5.355 0 014.874-1.126c1.305.168 2.676 0 4.014 0 10.336.937 13.38 4.616 12.544 15.052a108.91 108.91 0 00-.402 13.613 7.788 7.788 0 002.543 5.486 10.032 10.032 0 007.124 1.739c1.271-.301 2.174-3.947 2.241-6.121 0-3.713-.903-7.459-.802-11.172.2-7.592 4.114-10.636 11.506-9.432 7.961 1.305 10.938 4.549 11.473 12.811 0 2.91 0 5.887.234 8.797a8.128 8.128 0 004.951 7.626c5.72 2.542 8.73.435 8.128-5.887 0-1.07-.502-2.074-.602-3.144-.569-7.024 1.739-11.138 6.69-11.874 7.861-1.204 14.249 2.174 15.755 8.763.593 3.689.984 7.407 1.17 11.138 1.037 9.031 3.345 11.406 12.812 13.948a11.246 11.246 0 003.345-11.339 85.348 85.348 0 01-1.071-12.71 7.324 7.324 0 016.69-7.593 15.372 15.372 0 0110.783 1.977 15.386 15.386 0 016.71 8.66c.94 3.85 1.35 7.812 1.21 11.773.09 2.344.8 4.621 2.06 6.597a13.247 13.247 0 005.13 4.642c2.64.903 5.01-.703 5.52-4.047.5-3.345.73-7.392 1.3-11.072a9.866 9.866 0 011.01-4.025 9.8 9.8 0 012.6-3.236 9.748 9.748 0 017.86-2.004c10.41.669 11.78 1.639 14.12 11.707 1.54 6.69 2.51 13.58 3.75 20.336 9.46 2.409 15.32-3.345 13.01-13.379-.87-3.612-2.41-7.091-3.11-10.736-1.24-6.456.93-9.533 7.49-10.737 2.89-.574 5.82-.866 8.76-.87 2.71-.322 5.44.44 7.59 2.119a10.359 10.359 0 013.89 6.845c1.4 6.188 2.27 12.476 3.34 18.564 8.77 1.137 10.74-.569 8.6-8.028-4.42-15.352-2.68-13.78 9.63-19.199 8.73-3.846 13.88-1.773 17.5 7.492 1.75 5.027 3.2 10.154 4.34 15.353 1.17 4.516 3.65 5.586 8.03 3.177 1.51-4.682-.63-9.265-1.3-13.914-.57-3.947-1.27-7.893-1.94-11.84a5.022 5.022 0 01-.13-2.214 5.07 5.07 0 01.86-2.043 4.886 4.886 0 011.68-1.457 4.902 4.902 0 012.14-.574c4.7-.838 9.5-.996 14.25-.469a11.497 11.497 0 016.69 5.854 109.34 109.34 0 015.98 15.653c2.28 6.69 5.66 7.66 12.41 2.342-2.47-3.88-4.81-8.028-7.59-11.808-6.09-8.295-4.15-15.854 5.32-19.801 1.97-.802 4.01-1.471 6.02-2.207 7.86-3.01 12.58-.97 15.79 7.024 1.3 3.345 2.27 6.689 3.54 9.8a34.056 34.056 0 009.57 14.516c5.99-3.879 6.39-4.582 3.71-10.034-2.67-5.452-6.09-11.238-9.56-17.627.4-1.137 1.27-3.077 1.8-5.084 3.65-13.379 11.61-12.744 23.42-8.362 3.64 1.371 5.75 7.225 8.23 11.238 2.47 4.014 3.64 7.76 6.12 11.139 3.68 4.95 8.29 5.585 15.45 2.742a14.721 14.721 0 00-2.34-4.549 23.27 23.27 0 00-6.12-3.712c-12.41-5.553-14.42-10.703-9.44-23.414a9.489 9.489 0 012.95-4.165 9.401 9.401 0 014.68-2.023 33.27 33.27 0 0119.28 1.452 33.263 33.263 0 0115.21 11.927 84.397 84.397 0 0012.54 13.38c4.08 3.88 8.56 3.344 13.18 0-2.34-6.255-4.82-11.573-12.48-13.112-2.64-.502-5.18-4.348-6.69-7.258-3.34-6.221-.87-12.576 1.68-18.329 1.7-3.947 12.04-6.69 16.72-5.218 4.68 1.471 8.93 3.545 13.38 5.519 5.29 2.408 6.42 7.559 7.73 12.476.51 2.94 1.68 5.727 3.41 8.154 1.74 2.426 4 4.43 6.62 5.86 3.23-2.855 5.2-6.87 5.49-11.171a7.838 7.838 0 00-1.64-5.018 13.442 13.442 0 00-3.81-2.876c-10.44-6.69-8.8-13.045-3.01-23.413a7.87 7.87 0 015.38-2.676c5.33-.746 10.74.57 15.13 3.678a21.163 21.163 0 018.49 13.046c.7 3.01 1.5 5.987 2.4 9.599 4.35-2.174 6.69-4.348 3.95-8.362-3.34-4.883-2.11-10.369-1.97-15.553 0-2.074 2.54-4.516 4.48-6.054 3.75-2.944 7.96-5.285 11.84-8.061a6.098 6.098 0 018.1.368 29.984 29.984 0 015.65 8.563 5.405 5.405 0 01-.94 4.314 22.97 22.97 0 01-3.84 4.048c-5.89 5.719-12.18 11.104-17.6 17.225a131.495 131.495 0 00-13.75 18.597c-7.29 11.841-6.69 24.718-1.8 37.06a80.8 80.8 0 0014.55 26.391c6.69 7.224 12.11 8.763 21.31 4.615 1.01-.299 2-.702 2.94-1.204 6.89-5.251 13.85-4.114 21.07-.736a37.677 37.677 0 008.46 2.241c10.04 2.108 19.81 4.081 29.67 6.222 3.58.802 7.1 1.873 10.61 2.809.33 5.018-2.81 6.69-6.26 7.426-12.44 2.943-24.95 6.121-37.93 4.214-4.45-.721-9.02.031-13.01 2.141-9.7 4.85-20.07 7.425-31.38 3.11-4.51 8.998-12.67 10.369-21.57 10.369-3.71 0-7.39.569-11.98.97-.83 5.787-1.64 11.272-2.4 16.724-1.18 8.228-2.38 16.724-8.13 23.046-4.25 4.749-9.17 8.93-13.82 13.379-1.94 1.806-3.94 3.579-6.02 5.251a6.149 6.149 0 01-8.7.468c-3.11-2.809-1.77-6.154 0-8.729a26.898 26.898 0 017.66-8.028c9.74-5.586 11.65-15.219 12.25-24.651.67-10.335-3.68-16.222-15.89-12.576-1.57.589-3.1 1.282-4.58 2.073a44.846 44.846 0 000 8.028c1.84 9.231-1.64 16.724-7.16 23.681-6.69 8.362-13.15 16.724-20.07 24.852a34.34 34.34 0 01-10.57 7.96c-.93.568-2.01.823-3.1.73a5.102 5.102 0 01-2.92-1.25 5.122 5.122 0 01-1.61-2.741 5.056 5.056 0 01.34-3.161 64.76 64.76 0 017.22-13.379c4.05-6.255 8.83-12.075 12.61-18.463 5.32-9.031 5.05-10.703-.33-21.173-2.68.803-5.42 1.706-8.2 2.476-2.77.769-5.02 1.338-7.79 2.04a86.646 86.646 0 011.3 14.015 23.448 23.448 0 01-3.54 11.138c-7.73 11.439-15.92 22.577-24.09 33.715-5.15 7.024-10.53 7.994-16.96 2.91a47.355 47.355 0 011.71-5.72c3.75-8.194 7.63-16.355 11.47-24.517a12.087 12.087 0 012.48-4.08c7.22-6.155 7.79-13.38 3.75-22.477l-19.77 3.344c0 2.241-.2 5.118 0 7.928a35.525 35.525 0 01-2.38 16.508 35.494 35.494 0 01-9.67 13.595l-25.68 24.049c-.97.903-2.01 2.274-3.11 2.408-2.5.593-5.12.441-7.53-.435-1.27-.769-1.41-4.181-1.27-6.355a9.113 9.113 0 012.14-5.084c6.45-7.392 13.08-14.617 19.6-21.908.9-1.004 2.14-1.974 2.41-3.145 1.9-7.96 6.09-15.519 4.31-24.785h-18.73c-.3 4.014-.8 7.928-.77 11.808a36.804 36.804 0 01-10.03 25.453 112.676 112.676 0 01-24.49 22.21c-6.92 4.181-8.56 4.047-15.95-1.505a17.478 17.478 0 016.69-9.399c3.47-3.297 7.14-6.39 10.97-9.265a30.626 30.626 0 009.76-10.412 30.741 30.741 0 003.99-13.704c.2-3.144.97-6.221 1.57-10.034l-22.05 1.036a65.148 65.148 0 00-2.3 14.483c.83 13.881-7.56 21.976-17.7 28.23a193.522 193.522 0 01-26.76 12.276c-2 .665-4.14.746-6.19.234a3.849 3.849 0 01-2.04-.823 3.84 3.84 0 01-1.28-4.012c.2-.722.62-1.366 1.18-1.855a17.014 17.014 0 013.62-3.144c5.88-4.114 11.97-7.894 17.69-12.208 5.72-4.315 10.5-8.998 11.44-16.724.67-5.452 2.01-10.871 3.11-16.557l-23.75-3.947c-2.07 9.232-3.91 17.761-5.99 26.257a13.766 13.766 0 01-2.97 7.157c-12.21 10.035-25.26 18.798-41.18 21.942a11.29 11.29 0 01-3.34.268c-4.82-.401-6.46-3.679-3.88-7.794a23.397 23.397 0 0113.38-9.599 28.25 28.25 0 0016.72-13.078 31.892 31.892 0 004.47-12.635c.57-4.481.19-9.032-1.12-13.354-5.36-1.472-10.04-2.676-14.42-4.014-4.38-1.338-5.49-.802-6.69 3.914-1.14 4.08-1.74 8.362-3.08 12.409-4.18 12.543-19.06 24.049-32.21 25.387-2.88.301-5.65 1.471-8.53 1.94-3.61.602-7.29.836-10.8 1.237a5.427 5.427 0 01-.95-2.17 5.396 5.396 0 01.08-2.365c.2-.774.56-1.494 1.07-2.109a5.46 5.46 0 011.87-1.45c5.85-3.679 11.94-6.991 17.7-10.77a71.515 71.515 0 0011.94-9.131c4.91-5.018 4.85-11.54 4.04-17.962l-12.64-5.586c-3.04-1.338-5.45-.869-5.95 2.743-1.01 6.689-5.56 10.804-10.31 14.684a138.15 138.15 0 01-38.296 23.012c-3.144 1.17-6.69 3.344-9.265-.669-2.576-4.014 0-6.69 2.876-9.065 4.349-3.345 8.998-6.689 13.38-10.034a123.293 123.293 0 0010.537-8.496 23.061 23.061 0 004.918-7.158c3.34-7.425 1.67-10.77-5.922-13.379-1.739-.602-3.512-1.037-5.854-1.706a33.172 33.172 0 01-1.772 5.252 21.724 21.724 0 01-4.917 7.927c-9.5 6.689-19.301 13.379-29.235 19.333a46.443 46.443 0 01-11.908 4.649 19.37 19.37 0 01-8.63.468 4.252 4.252 0 01-3.694-2.811 4.241 4.241 0 011.085-4.514 22.286 22.286 0 016.054-5.117 202.045 202.045 0 0116.925-9.132c9.366-4.548 12.912-12.141 12.778-22.644l-17.962-7.559c-.836.702-1.539 1.003-1.572 1.338-.435 11.573-7.158 18.697-16.959 23.413-9.132 4.282-18.531 8.061-27.83 12.008a5.113 5.113 0 01-3.111.468c-1.639-.468-3.947-1.103-4.449-2.308-.501-1.204.77-3.344 1.974-4.448 3.813-2.91 8.195-5.084 11.908-8.061 5.419-4.315 10.603-8.964 15.554-13.78a11.445 11.445 0 003.044-12.242c-6.122-1.94-11.407-7.192-19.301-6.322a35.044 35.044 0 01-21.541 24.082c-9.533 3.981-19.234 9.499-31.844 6.054a30.34 30.34 0 013.914-7.024 30.743 30.743 0 0112.71-7.927 28.594 28.594 0 0015.554-10.737c2.241-3.144 2.242-3.144 1.84-9.331-6.957-1.706-12.911-7.058-21.374-6.356-2.141 12.276-12.209 16.724-21.742 21.441-6.021 2.843-12.51 5.987-19.602 4.582a5.75 5.75 0 01.282-7.041 5.753 5.753 0 011.993-1.522c4.014-2.642 7.928-5.452 11.908-8.161a40.232 40.232 0 004.683-3.044c7.225-6.355 6.456-11.573-2.208-15.486-.97-.435-1.94-.937-2.943-1.271a7.998 7.998 0 00-2.108 0c-2.341 10.937-10.77 16.088-20.504 19.701-5.018 1.873-10.035 3.679-15.153 5.217-2.03.647-4.181.819-6.288.502a5.056 5.056 0 01-3.111-2.977c-.268-.736.836-2.542 1.773-3.11a21.89 21.89 0 017.258-3.345c12.51-2.107 15.956-10.971 17.26-22.41-5.619-1.84-9.767-7.024-17.293-6.422a71.672 71.672 0 000 8.496 8.897 8.897 0 01-5.386 10.402c-6.689 3.077-12.777 6.69-19.333 9.566-3.847 1.739-3.981 1.405-10.035-.502a23.214 23.214 0 012.876-5.184 40.556 40.556 0 018.43-7.325c6.121-3.546 6.489-8.529 4.817-14.416-.435-1.539-.937-3.077-1.272-4.649a4.044 4.044 0 00-5.184-3.613c-2.843.469-5.72.87-8.463 1.271-.268.301-.535.468-.602.703-1.639 4.682-.535 11.004-5.62 13.613a177.944 177.944 0 01-21.508 8.395 3.703 3.703 0 01-3.344-1.338 4.88 4.88 0 01.3-4.247c2.442-2.409 5.419-4.282 8.062-6.489a28.05 28.05 0 005.72-5.519 7.733 7.733 0 001.118-6.785 7.72 7.72 0 00-4.731-4.989 49.422 49.422 0 00-5.218-2.04 8.946 8.946 0 00-2.542 0c-.301.702-1.004 1.505-.836 2.04 2.308 7.258-1.472 11.707-7.092 15.085a120.116 120.116 0 01-14.082 7.392c-1.572.669-3.847-.301-5.82-.502a17.844 17.844 0 011.605-5.686 50.517 50.517 0 016.69-6.689c2.007-1.84 4.516-3.512 2.977-6.69-1.538-3.178-3.177-6.355-8.262-4.783 1.873 11.172-6.689 15.018-13.881 20.069a3.587 3.587 0 01-2.275.702c-1.204 0-2.876-.267-3.345-1.07a3.886 3.886 0 01.235-3.345 39.032 39.032 0 015.151-6.121c2.408-2.375 3.345-5.017 1.237-7.793-2.107-2.776-4.515-4.716-8.228-2.676-1.082.487-2.201.89-3.345 1.204.368 6.69 2.375 13.781-5.352 18.229-5.419 3.144-6.422 3.88-12.142 2.174l5.017-9.532-6.054-3.646c.156-2.565.357-5.374.602-8.429-4.516-1.271-7.426 1.003-10.771 3.579a679.255 679.255 0 002.409 7.96c-5.72 3.345-7.159 12.142-16.725 13.179.535-4.482 1.171-8.061 1.304-11.64 0-1.238-1.17-2.542-1.806-3.847-1.137.904-3.144 1.74-3.345 2.743a25.12 25.12 0 01-8.596 15.721c-7.995-1.773-3.145-10.536-7.761-14.316-4.917 5.218-4.114 13.647-10.636 17.46-.736.435-2.007 0-3.345 0-.536-3.345-1.004-6.121-1.807-11.004a35.604 35.604 0 00-3.646 5.719c-.635 1.706-.435 3.746-1.07 5.452-2.643 7.158-5.887 7.693-11.273 2.241a91.085 91.085 0 00-7.593-6.154c-5.72 4.515-1.739 9.097-1.639 13.379-7.559 4.95-11.071-4.917-18.631-4.516 2.141 4.583 3.914 8.429 5.854 12.51-5.821 4.482-9.6.803-14.618-2.107.569 1.672 1.037 3.344 1.74 5.05.702 1.706 1.806 3.78 2.676 5.553-5.085 6.087-9.166 1.371-14.283-1.506a27.18 27.18 0 00.869 6.924c1.405 3.144 2.543 5.987-.334 8.797-2.877 2.809-5.787.334-8.931-1.974-.469 5.753 1.237 12.142-7.66 12.777l-4.282-10.034c-3.01 2.877-1.538 6.288-1.304 9.399.468 6.388-.836 7.827-8.329 8.83-.97-2.977-1.974-6.054-2.944-9.098h-1.672a25.35 25.35 0 00-.234 5.72 6.288 6.288 0 01-4.248 7.626 5.952 5.952 0 01-6.719-1.121 5.957 5.957 0 01-1.343-1.989 13.01 13.01 0 00-2.375-2.308c-3.345 2.307-3.01 5.585-3.11 8.662-.301 9.5-2.509 10.804-11.34 6.69-1.137-.502-2.341-.87-4.214-1.572a20.032 20.032 0 00-1.104 5.586c.267 2.575.568 4.649-2.308 6.054-2.877 1.405-5.018 0-6.69-2.174a9.575 9.575 0 00-2.208-1.639c-6.355 5.652 2.141 9.198 1.773 13.948-3.01 5.151-7.66.869-12.276 1.772-.602 6.69 5.887 7.191 9.399 10.837l-5.485 5.72c1.003 1.438 2.007 2.943 3.612 5.352l-10.469 8.763c-1.941 8.027-2.275 17.259-8.731 25.353-1.739-1.706-3.713-2.742-3.98-4.114a87.255 87.255 0 01-1.639-14.148c0-3.345 1.17-6.422 0-10.034-.87-2.409 1.17-6.021 2.375-8.898a57.774 57.774 0 014.616-7.325l-7.46-3.177 8.664-9.734-6.289-4.314c1.372-6.69 10.269-8.295 7.292-15.453l11.775-6.69c-2.911-9.8-2.911-9.8 9.131-12.108-.602-2.408-1.204-4.816-1.973-7.793l10.603.736a63.624 63.624 0 01-3.178-7.292 59.189 59.189 0 01-.836-7.392l18.665 3.345-7.794-10.436c4.817-5.251 8.296.602 12.143.268.301-9.165.3-9.165 8.195-10.603v-7.626c3.177-3.044 6.121-1.238 8.997 0 2.208.903 4.249 2.274 6.49 3.01a3.951 3.951 0 003.345-.836 4.146 4.146 0 000-3.512 52.997 52.997 0 00-3.68-5.854c6.924-5.217 14.083 3.546 20.639-1.906l-5.687-10.469c8.262-4.884 15.454 0 23.415 1.204-2.041-5.586-9.199-8.329-5.954-15.319 5.151-1.706 9.499.434 13.747 3.344 4.248 2.91 4.014 2.676 8.798-1.137-2.375-4.181-10.035-7.693-2.342-14.349l14.417 5.653 1.104-1.438-5.319-11.373c7.66-2.475 12.142 4.014 19 4.884a25.935 25.935 0 01-1.874-4.382c-.468-2.174-1.538-5.452-.535-6.388a14.386 14.386 0 017.058-2.108c.937-.167 1.974.569 3.345 1.037.468-2.876-1.304-6.388 2.709-7.626a11.641 11.641 0 0111.908 2.509 54.037 54.037 0 014.851 5.786l1.839-1.271zm672.103 26.758a67.392 67.392 0 00-7.7-7.392c-5.55-3.946-11-8.529-18.83-5.15-5.25 2.274-6.42 6.421-1.94 10.034a30.772 30.772 0 007.09 3.345c2.61 1.17 5.39 2.04 7.83 3.344 5.42 3.044 9.53 1.84 13.55-4.181zm-47.17 15.386a35.684 35.684 0 00-5.42-7.258 68.915 68.915 0 00-12.57-7.893 4.783 4.783 0 00-2.15-.548 4.752 4.752 0 00-3.87 1.872 4.75 4.75 0 00-.91 2.02c-1 3.345-2.84 7.091 1.14 9.332a63.914 63.914 0 0014.48 6.088 7.48 7.48 0 005.35-.023 7.47 7.47 0 003.95-3.59zm-61.71-7.191a4.183 4.183 0 00-5.52 3.345 4.562 4.562 0 00-.44 1.74c-.03.603.07 1.206.29 1.771.21.564.54 1.078.97 1.51.42.432.93.772 1.49 1a49.486 49.486 0 0114.18 8.161 4.83 4.83 0 002.24.769c2.95.535 4.62-1.338 3.78-4.114a18.766 18.766 0 00-6.18-9.863 18.786 18.786 0 00-10.81-4.319zm-71.55 14.182a18.029 18.029 0 00-5.22 4.214 5.103 5.103 0 00-.68 2.113c-.08.746.01 1.499.26 2.206.25.707.65 1.351 1.17 1.888a5.24 5.24 0 001.86 1.219 75.963 75.963 0 0012.31 5.351c.77.232 1.59.248 2.37.046a4.399 4.399 0 003.17-3.269c.18-.783.13-1.601-.12-2.362-1.14-4.716-8.63-11.038-15.12-11.406zm179.96-2.609a35.944 35.944 0 00-4.15 17.393c-.63 9.399 3.35 13.981 13.08 15.52-2.91-10.67-5.82-21.44-8.93-32.913zm-130.45 9.8c.2-8.295-9.6-14.583-17.23-12.074a7.499 7.499 0 00-4.32 3.88c-.36 1.003 1.34 3.344 2.71 4.281a88.964 88.964 0 0014.02 6.489 3.6 3.6 0 003.05-.218 3.622 3.622 0 001.77-2.492v.134zm175.61-59.202c-1.81 8.027-1.81 8.027 2.54 13.78 5.35 7.024 7.99 7.058 13.88 0-5.19-4.682-6.56-13.747-16.42-13.78zm-13.38 19.332c.36-4.448-3.92-9.566-9.34-11.338-3.94-1.271-6.12.2-6.32 4.348.42 3.11 1.62 6.065 3.47 8.6a18.85 18.85 0 007.14 5.916 3.29 3.29 0 001.54.244 3.333 3.333 0 002.59-1.596c.28-.452.44-.963.48-1.491.27-1.538.3-3.11.44-4.683zm-68.48 70.575c2.81-13.713 1.11-26.39-4.08-32.344-4.78 6.957-2.97 22.577 4.08 32.344zm-388.778-70.976a22.353 22.353 0 00-1.338 3.345c-.602 3.612 2.107 7.459-1.204 11.105-.469.535 2.141 4.448 3.947 6.121a5.36 5.36 0 004.616-1.506 28.916 28.916 0 001.706-10.603 8.198 8.198 0 00-7.727-8.462zm73.087 27.394a45.916 45.916 0 00-1.974-8.529 21.407 21.407 0 00-4.95-6.991 5.987 5.987 0 00-5.586-.234 3.008 3.008 0 00-1.169 4.21c.282.469.686.852 1.169 1.108a5.123 5.123 0 012.074 5.352 8.266 8.266 0 002.876 6.689c1.639.669 4.65-1.036 7.56-1.739v.134zm198.091 55.858c4.85-10.971 5.05-20.537-.47-30.103-2.31 9.566-5.29 19.199.47 29.969v.134zM1344 736.029c-3.34 17.46 1.81 29.701 14.32 32.912a83.637 83.637 0 01-14.32-33.046v.134zm-291.01 25.353c-1.03-3.345-1.67-6.321-2.74-8.997a19.123 19.123 0 00-3.34-5.452c-1.81-2.041-4.42-4.014-6.86-1.806a8.002 8.002 0 00-1.4 3.006 7.884 7.884 0 00-.07 3.315c.7 4.348 7.89 9.265 14.28 9.8l.13.134zm-135.333-30.103c-1.07-2.308-2.642-6.221-4.716-10.034a3.723 3.723 0 00-2.488-2.517 3.717 3.717 0 00-3.466.711c-2.308 1.873-2.041 4.047-.235 6.254 1.807 2.208 3.981 3.613 2.777 6.891a4.147 4.147 0 003.345 6.054c2.375.869 4.515-2.107 4.649-7.66l.134.301zm181.363 30.337a27.863 27.863 0 00-9.8-12.877 4.41 4.41 0 00-4.18 0 8.089 8.089 0 00-1.54 5.686c1.74 6.155 7.02 8.496 15.39 6.89l.13.301zm-109.58-15.82c-1.539-3.646-2.476-6.322-3.78-8.831a26.227 26.227 0 00-4.215-6.689 3.65 3.65 0 00-3.664-.838 3.64 3.64 0 00-2.457 2.845c-.97 4.415 6.255 14.817 10.67 15.118.937-.167 2.074-1.204 3.312-1.907l.134.302zm18.23-10.838c-8.664 5.887 1.67 9.265 1.4 14.115.14.867.48 1.689.99 2.403a5.66 5.66 0 001.96 1.712c1.37.669 3.34 0 6.42 0-3.51-7.526-1.07-16.524-10.9-18.531l.13.301zM822.928 714.89c2.509 3.746 5.252 2.876 7.894 1.237a5.284 5.284 0 002.576-6.689c-.736-1.974-1.405-3.981-2.175-5.954a3.965 3.965 0 00-.835-1.593 3.983 3.983 0 00-4.951-.882 3.348 3.348 0 00-2.344 1.989 3.344 3.344 0 00.27 3.062c2.709 3.344 1.003 5.987-.569 8.596l.134.234zm554.362 14.583c-4.25 11.439.53 23.781 9.43 26.056-3.08-8.63-6.12-16.992-9.43-26.056zm-522.585-23.848c-.903 1.103-1.472 1.471-1.472 1.873 0 4.114 2.041 8.529-1.739 12.309-.402.401.635 3.177 1.672 3.946a5.214 5.214 0 004.315.335 8.094 8.094 0 003.713-11.874 52.325 52.325 0 00-6.489-6.723v.134zm377.975 51.61c-2.94 5.017-1.57 10.335-1.53 15.453.03 5.117-2.28 10.803 2.5 16.991 3.32-11.941.81-22.243-.83-32.578l-.14.134zm-166.34 31.474c9.03-8.629-.4-15.219-.5-22.243-2.21 6.857-3.75 13.814.63 22.109l-.13.134zM781.752 698.4a19.62 19.62 0 00-2.977 2.308c-1.606 2.174-.301 3.746 1.639 4.114 3.713.702 7.693-4.114 5.787-7.191a25.38 25.38 0 00-7.226-7.024c-.802-.535-3.077 1.037-4.649 1.639a13.376 13.376 0 001.94 4.415c1.104.836 2.91.869 5.619 1.639l-.133.1zm19.635 3.345c0 2.475-.469 4.381.2 5.586.402.669 2.844.434 4.248 0a4.377 4.377 0 002.87-2.013 4.383 4.383 0 00.475-3.473 11.403 11.403 0 00-4.214-6.121c-2.409-1.672-5.453-1.873-8.463 2.709l4.884 3.312zm-121.857 4.549c3.947 0 6.891-.97 8.095-4.951-4.282-8.662-4.951-8.897-11.942-4.649 1.205 2.944 2.375 6.021 3.847 9.6zm350.82 76.227c3.11-10.971 2.81-15.921-1.41-20.069-2.04 5.921-3.81 11.64-2.14 17.728.34 1.003 2.24 1.538 3.58 2.341h-.03zm-280.409-78.702c5.185-.937 7.526-3.512 7.761-7.593.234-4.081-2.409-5.954-7.593-7.459-2.342 5.084-2.342 5.084 1.572 10.034a6.288 6.288 0 00-1.439 1.706 13.392 13.392 0 00-.267 3.312h-.034zm-37.195-6.958c-4.884-8.027-8.162-9.231-13.38-5.619 1.94 2.944 3.88 5.954 6.155 9.466l7.225-3.847zm-89.411 31.408c3.345-1.137 6.121-2.91 5.151-6.188a15.68 15.68 0 00-5.519-7.057c-.702-.536-3.546 1.639-5.385 2.609-.569.769-1.104 1.571-1.639 2.341 7.961-.736 5.82 4.649 7.426 8.295h-.034zm16.123-8.329c1.204-1.438 3.847-3.344 3.579-4.549a14.89 14.89 0 00-4.114-7.091c-.703-.702-3.345.302-4.851.536a23.969 23.969 0 001.171 4.682 63.624 63.624 0 004.148 6.422h.067zm-87.437 42.747c-5.486-4.783-8.63-5.519-10.938-3.111a5.445 5.445 0 00-1.238 4.148c0 .802 2.141 1.973 3.078 1.806a71.955 71.955 0 009.131-2.843h-.033zm47.498-31.24c-3.042-.16-6.09-.16-9.132 0-1.304 0-3.345 1.103-3.345 2.006a4.514 4.514 0 001.84 3.646 25.071 25.071 0 005.72 1.974c1.305-2.175 2.91-4.449 4.951-7.626h-.034zm52.85-26.759c4.115 4.884 7.861 1.673 11.942 1.305-4.349-6.222-4.85-6.288-11.908-1.338l-.034.033zm541.881 67.632l-1.84-.201a11.089 11.089 0 00-1.91 4.847c-.25 1.745-.07 3.523.51 5.187.26.803 1.84 1.171 4.31 2.576-.37-5.084-.67-8.73-1-12.443l-.07.034zm-238.093-19.634c-.836 3.913-1.706 7.827-2.81 12.944 6.824-5.552 7.159-7.258 2.877-12.978l-.067.034zm-44.722-8.128c-.267 3.713-.535 7.459-.869 12.041 6.455-5.184 6.455-5.218.936-12.074l-.067.033zm-174.606-49.235c-1.037-2.576-1.271-4.917-2.509-5.82a6.422 6.422 0 00-8.462.602c2.074 4.783 6.054 4.281 11.038 5.184l-.067.034zm375.441 97.199c2.2-4.147 4.91-8.228.4-14.249-.57 5.62-2.75 9.767-.34 14.216l-.06.033zm-585.905-11.907c4.181-.77 7.058-1.807 7.359-6.088-6.623-.502-6.623-.501-7.292 6.054l-.067.034zm-18.43 7.091c0 .568-.001 1.137.234 1.705 1.237.368 2.642 1.305 3.713 1.037a4.88 4.88 0 004.181-6.321l-8.128 3.579zm64.557-41.509l8.429-4.984c-6.288-2.575-6.556-2.442-8.429 4.984zM997.3 764.359h-2.274c-.201 3.044-.402 6.054-.736 10.871 4.415-4.382 4.683-7.493 3.211-10.871h-.201zm-124.633-28.196a6.688 6.688 0 00-.936 8.328c4.516-3.311 4.515-3.311.936-8.328zm-260.236-9.7c-1.773-2.375-3.881-3.345-6.49-1.305a2.683 2.683 0 000 2.643c2.676 2.408 4.717 1.271 6.49-1.405v.067zm229.998 6.957c4.616-4.583 4.616-4.616-1.572-8.195.502 2.642.937 4.817 1.572 8.128v.067zm-40.139-12.878c3.345.201 4.214-1.705 3.646-4.013-.268-1.071-1.907-1.773-3.646-3.345v7.358zm-66.899-23.714l-6.924.468c1.84 4.215 3.646 5.218 7.058-.535l-.134.067zM492.447 807.206c-5.017-3.111-5.552-2.81-6.288 3.545l6.288-3.545zm70.846-56.627c-6.355-.97-6.355-.97-6.69 5.318l6.69-5.318zm121.455-72.248l-2.441 2.475c1.146.507 2.332.921 3.545 1.238.335 0 1.338-1.271 1.271-1.338a22.714 22.714 0 00-2.241-2.308l-.134-.067z"/><path fill="#fff" d="M1687.13 615.751c2.44-1.405 4.81-2.609 6.99-4.081a15.47 15.47 0 019.43-2.854c3.37.103 6.61 1.305 9.23 3.423a17.59 17.59 0 016.21 7.715 17.636 17.636 0 011.05 9.845 9.946 9.946 0 01-1.07 3.846c-5.18 9.834-10.03 20.069-15.92 29.334-5.89 9.265-15.96 12.309-25.92 14.483-2.66.56-5.42.3-7.92-.746a13.36 13.36 0 01-6.1-5.108 15.135 15.135 0 00-11.14-6.923c-4.4-.14-8.74 1.02-12.48 3.334a22.397 22.397 0 00-8.56 9.677 64.066 64.066 0 00-5.32 14.182c-1.63 7.325-6.69 10.034-13.11 10.971a26.525 26.525 0 01-21.27-4.884 55.374 55.374 0 00-28.67-11.339c-10.03-.97-19.2 3.345-27.76 8.262-6.46 3.813-12.64 7.994-19.27 11.473a42.437 42.437 0 01-28.66 4.047 54.539 54.539 0 00-23.41-.093 54.541 54.541 0 00-21.28 9.726 188.015 188.015 0 01-24.19 15.653 70.416 70.416 0 01-15.92 4.516 8.908 8.908 0 01-9.1-3.746c-13.38-16.055-18.03-33.883-8.63-53.517 3.72-7.76 10.37-14.182 16.13-20.838a556.682 556.682 0 0123.41-25.387c5.15-5.284 11.34-9.599 16.36-14.984 8.09-8.663 19.4-11.607 29.13-17.36 8.2-4.85 16.16-10.034 24.12-15.352 20.07-13.379 40.14-27.361 63.95-32.478 17.06-3.679 34.26-8.462 52.15-7.492 4.45.234 9-1.439 13.38-1.539a91.577 91.577 0 0130.74 4.516c4.45 1.438 9.37 1.438 13.92 2.675a25.255 25.255 0 0113.61 10.336c6.99 9.566 7.19 20.369 5.05 31.441-.6 3.144-1.84 6.187-2.31 9.332-.46 3.144-1.4 6.99 3.15 9.934zM2339.66 602.84c-.33 6.689-.6 12.141-.97 17.693-.87 14.283 8.09 20.604 18.8 22.611 7.06 1.338 14.01 3.345 20.94 5.318a25.866 25.866 0 0110.12 5.696 25.717 25.717 0 016.6 9.557c3.95 9.231 11.28 15.386 17.13 22.844 7.56 9.633 15.82 18.765 23.68 28.197a27.082 27.082 0 015.35 18.798v12.409l15.26-10.035c4.51 8.797-3.75 13.38-4.79 20.27l10.94-3.345 1.41 1.405c-1.14 3.345-2.25 6.689-3.35 9.767l1.04 1.103c2.61-1.906 5.25-3.779 7.82-5.753a26.136 26.136 0 014.96-3.98 5.934 5.934 0 012.6-.433c.9.052 1.76.303 2.55.734.52.684.89 1.48 1.06 2.328a5.8 5.8 0 01-.09 2.555 34.824 34.824 0 01-3.15 6.422c-1.5 2.977-2.97 5.954-5.18 10.403l13.38-4.984c1.8 7.426-4.18 10.67-6.19 16.423 6.69-3.88 9.36-12.844 18.56-12.275 1.17 9.231-9.26 13.579-9.03 22.042 7.63 1.036 7.73-10.737 16.36-8.463l-3.35 15.152 15.22-9.064c4.35 2.709 1.78 5.117.51 7.592a68.245 68.245 0 00-5.36 13.112c7.7-5.686 13.89-12.978 23.99-17.058a19.51 19.51 0 010 6.288 85.137 85.137 0 01-6.12 11.205 23.746 23.746 0 00-3.35 21.373 60.668 60.668 0 011.41 6.255c.48 2.122.35 4.338-.37 6.392a11.5 11.5 0 01-3.72 5.214c-9.63 7.526-18.99 15.754-31.34 18.731a17.28 17.28 0 01-8.46 0c-9.2-2.642-18.26-5.753-27.33-8.83a29.103 29.103 0 01-15.45-13.112c-3.92-6.355-8.67-12.141-13.11-18.129a10.808 10.808 0 00-2.91-2.742c-19.44-11.674-36.8-26.157-56.87-37.261a296.704 296.704 0 01-36.79-26.39 29.35 29.35 0 01-10.64-19.266c-1.64-11.975-7.26-22.277-11.97-33.013-6.06-13.68-12.08-27.394-17.97-41.141a14.636 14.636 0 01-1.23-6.155c.64-12.509 1.42-25.007 2.34-37.495 0-1.304 1.47-2.475 2.27-3.712 1.25.763 2.38 1.71 3.35 2.809a18.308 18.308 0 012.07 5.185c3.98 16.924 15.52 29.601 24.32 43.85 3.08 4.984 6.29 10.034 9.56 14.817a40.36 40.36 0 003.35 4.014c.77-.636 1.5-1.003 1.44-1.238-2.28-10.402-4.22-20.905-7.16-31.14a31.455 31.455 0 00-6.96-10.469c-4.45-5.284-9.46-10.034-13.91-15.352-3.88-4.583-4.55-17.092-1.41-22.243 2.48-4.081 5.32-7.961 7.93-12.008a10.066 10.066 0 014.81-4.635 10.046 10.046 0 016.66-.583c3.01.87 6.53 1.271 10.74 1.74zm81.45 204.934l2.11-.602c.12-1.636-.06-3.279-.54-4.85-4.75-9.097-11.84-17.727-16.72-20.068 3.38 10.335 7.12 19.199 15.15 25.52z"/><path fill="#fff" d="M1640.13 760.011c3.61 2.576 7.16 5.251 10.87 7.726 5.15 3.345 10.27 6.69 15.62 9.801 8.06 4.515 13.38 12.008 20.47 17.66 9.1 7.359 18.94 13.847 28.37 20.805a195.705 195.705 0 0135.92 34.083c7.03 8.629 14.09 17.226 20.91 25.989a55.195 55.195 0 015.42 9.499 12.621 12.621 0 007.86 6.255 77.757 77.757 0 0113.04 5.652 9.51 9.51 0 014.02 5.519c2.64 10.035 4.41 20.37 1.74 30.873a26.26 26.26 0 00-.4 7.96 13.46 13.46 0 01-.87 6.311 13.332 13.332 0 01-3.68 5.195 69.624 69.624 0 01-12.04 9.198 16.732 16.732 0 01-18.07.368 102.442 102.442 0 00-14.71-6.221c-13.02-5.452-20.78-14.483-20.31-29.334.36-4.652-.22-9.33-1.71-13.75a34.524 34.524 0 00-6.99-11.971c-10.9-12.075-20.33-25.487-31.37-37.428a140.708 140.708 0 00-23.42-19.199c-15.98-11.071-32.24-21.875-48.83-32.01a169.171 169.171 0 00-47.13-21.339 285.801 285.801 0 01-44.42-15.921c-8.8-3.814-15.29-10.637-14.92-21.708-.2-4.255-.61-8.497-1.24-12.71-.15-2.667-.08-5.342.24-7.994 1-8.295 3.17-10.57 11.37-12.108 3.34-.636 6.69-1.205 10.23-1.539 3.55-.334 4.52-1.472 4.89-4.95.23-2.171.91-4.272 1.98-6.175a16.188 16.188 0 014.24-4.903 16.203 16.203 0 0112.31-3.171 290.553 290.553 0 0135.56 9.566 20.574 20.574 0 0112.51 16.456c2.3 13.011 10.7 19.735 20.6 24.083a22.608 22.608 0 014.95-3.713c1.84-.376 3.73-.432 5.59-.167 11.5 0 13.14 1.538 14.78 12.677.2 1.237.47 2.475.94 4.983l-13.38-5.619-.94 1.271z"/><path fill="#fff" d="M1684.59 946.148c-1.58.97-3.35 1.873-4.79 2.943-7.86 5.419-15.22 11.64-24.82 14.149a21.76 21.76 0 00-7.72 4.08c-12.61 10.035-27.73 16.022-41.41 24.317-7.7 4.683-15.12 9.803-22.68 14.653l-23.42 14.91c-3.64-.7-4.78-3.34-4.41-7.79 1.03-12.34 8.16-20.301 18.33-25.452 17.06-8.63 31.34-21.139 46.29-32.645a25.961 25.961 0 0010.54-23.146 197.57 197.57 0 01.17-20.069c.33-20.068-3.78-39.267-7.26-58.701-.4-2.341-1.54-4.582-2.01-6.923-2.44-12.811-12.34-17.393-23.15-20.403-2.94-.837-6.69.769-10.03 1.505-1.8.49-3.55 1.162-5.22 2.007-10.34 4.716-9.47 7.392-5.72 15.051 2.64 5.385 2.37 12.376 2.61 18.664a9.23 9.23 0 01-.94 3.786 9.39 9.39 0 01-2.41 3.071c-8.12 5.452-15.65 12.275-26.12 13.178-4.72.402-9.06 1.405-13.38-2.609-1.91-1.773-6.52-1.137-9.83-.736a17.09 17.09 0 00-6.43 3.111c-13.14 8.161-26.55 15.955-39.27 24.751a297.03 297.03 0 00-26.76 21.775 147.89 147.89 0 00-22.21 24.082 216.04 216.04 0 01-19.76 20.939c-2.95 3.077-5.89 6.154-8.73 9.332-1.98 2.207-4.59 3.712-6.96 1.939-1.51-1.103-1.94-4.013-2.28-6.221-.17-1.587.12-3.19.84-4.616a166.084 166.084 0 0137.93-50.171c5.32-4.817 10.3-10.035 15.72-14.684 7.66-6.689 15.82-12.643 23.42-19.4 9.56-8.495 18.86-17.326 27.89-26.39a14.637 14.637 0 004.22-9.064 218.63 218.63 0 00-1.44-34.318 45.451 45.451 0 014.11-28.664 10.018 10.018 0 00-1.1-12.376c-3.34-4.081-6.29-8.529-10.03-13.68l11.2-2.375c.97.87 1.61 1.137 1.74 1.572 2.88 10.034 9.8 14.951 19.37 18.296 12.01 4.214 23.41 10.335 35.79 13.379 5.35 1.338 10.03 5.084 15.35 6.69a194.831 194.831 0 0145.83 20.068c10.2 6.322 20.07 13.38 30.1 19.701a8.468 8.468 0 012.89 3.158c.67 1.283 1 2.719.96 4.167 1.1 12.777 2.47 25.487 3.75 38.231.04 1.32.21 2.631.53 3.913 4.78 13.58 9.57 27.127 14.52 40.639 1.27 3.345 3.18 6.69 4.75 10.035l1.44 2.341zm-148.75-89.874c10.03-10.536 20.67-18.631 27.53-30.103-2.55-3.345-5.02-2.91-7.13-.769-5.22 5.284-10.5 10.536-15.25 16.255a20.531 20.531 0 00-5.15 14.617z"/><path fill="#fff" d="M1708.7 909.857c5.76.836 10.97 1.672 16.23 2.375 3.07.401 3.64 2.442 3.94 5.05.6 8.977 1.72 17.911 3.35 26.759a18.073 18.073 0 007.49 10.536c8.8 4.985 17.88 9.452 27.2 13.379 6.15 2.776 7.09 4.348 4.81 10.971a32.55 32.55 0 00-2.57 7.559c-.61 6.69-4.82 8.763-10.64 9.7-8.36 1.304-16.73 3.345-25.02 4.444-3.6.67-7.3.46-10.81-.6a14.635 14.635 0 00-10.77 0c-7.76 2.88-15.45 6.02-23.41 8.16a167.264 167.264 0 00-41.48 18.23c-7.3 3.89-14.84 7.3-22.58 10.24-13.41 6-26.15 13.43-37.99 22.14a9.738 9.738 0 00-3.83 4.42c-.79 1.83-1 3.86-.59 5.82v.8c.6 6.95 1.04 13.38-5.59 18.73-7.29 5.89-14.81 9.66-24.18 7.93-10.47-1.98-20.74-4.95-31.58-4.12a10.023 10.023 0 01-10.33-7.19 62.9 62.9 0 01-2.91-6.69c-2.04-6.69-2.95-13.38 2.14-19.67 4.55-5.55 8.53-11.67 13.38-16.72a20.79 20.79 0 0110.03-5.92 89.335 89.335 0 0029.2-11.91c5.62-3.34 11.81-5.92 17.63-9.1 4.12-2.27 8.06-4.88 12.01-7.45a625.225 625.225 0 0163.55-36.597c6.9-3.344 12.82-8.696 19.64-12.275a118.456 118.456 0 0016.49-12.208 18.041 18.041 0 005.24-5.854 18.116 18.116 0 002.25-7.526 48.607 48.607 0 019.7-23.413zM1508.31 1004.25l12.14 7.56c-.8-3.35-.7-5.62-1.77-6.96a8.405 8.405 0 01-1.9-5.168 8.378 8.378 0 011.7-5.235 33.671 33.671 0 003.34-6.422 15.839 15.839 0 015.64-9.042 15.823 15.823 0 0110.08-3.434c9.33-.368 15.89-5.62 22.28-11.373 2.58-2.308 4.68-5.117 7.16-7.525a18.408 18.408 0 005.85-12.677c.74-10.034 2.54-19.634 2.71-29.501.17-9.867-1.14-19.132-1.77-28.698 0-2.108-.24-4.181-.37-6.857a15.457 15.457 0 0014.82-10.269 23.378 23.378 0 00.93-18.663c-1.07-3.011-2.24-5.954-3.54-9.366 5.99-4.348 13.11-4.515 20.07-5.285a44.926 44.926 0 019 25.454c1.1 16.49 2.57 32.98 0 49.57-1.58 10.034-1.41 20.069-2.14 30.304-.2 2.642-.94 5.251-1.31 7.893a14.426 14.426 0 01-2.25 5.749 14.413 14.413 0 01-4.44 4.286c-16.72 12.208-33.45 24.985-49.97 37.428a19.02 19.02 0 00-5 5.661 19.15 19.15 0 00-2.43 7.15c-1.27 7.36-4.88 9.4-11.74 6.39-3.14-1.37-6.02-3.55-10.3-1.77 2.23 2.21 4.17 4.69 5.79 7.39.99 3.26 1.61 6.63 1.84 10.03-1.59 1.15-3.3 2.12-5.09 2.91-14.68 5.19-25.59 14.05-30.1 29.6a8.463 8.463 0 01-4.28 4.12c-10.78 5.31-21.61 10.43-32.45 15.55a117.452 117.452 0 00-28.2 16.39 336.998 336.998 0 01-29.23 21c-2.77 1.59-5.1 3.84-6.78 6.55a19.319 19.319 0 00-2.86 8.97c-.97 14.09-10.4 23.42-20.07 32.42a8.668 8.668 0 01-4.77 2.37c-1.81.26-3.65-.05-5.26-.9a51.8 51.8 0 00-26.76-3.08c-6.26.8-7.19-.23-9.43-5.99-5.39-13.58-5.39-13.58 3.34-25.69 1.36-1.64 2.58-3.4 3.65-5.25a33.994 33.994 0 0117.93-15.18c10.28-4.45 20.78-8.36 31.47-11.71 7.39-2.41 12.78-7.56 18.77-11.94 12.51-9.13 24.65-18.7 37.39-27.46 6.69-4.65 14.65-7.66 21.68-11.97 8.39-5.12 16.72-10.57 24.58-16.33a55.717 55.717 0 0014.72-18.79c2.04-3.75 4.45-7.53 7.33-12.21zM1532.29 1280.09a54.46 54.46 0 00-14.35 32.98c-3.14.37-6.22.8-9.33 1.04-3.14-.07-6.29.12-9.4.57-1.69.42-3.47.36-5.13-.19a9.222 9.222 0 01-4.24-2.89c-2.37-2.54-.4-5.45.64-8.23 3.04-7.99 5.82-16.05 8.83-24.02 1.02-2.77 2.27-5.46 3.75-8.02 3.14-5.22 6.89-9.57 14.05-7.66.8.23 1.8-.4 3.34-.77-2.21-3.35-5.39-3.35-8.06-3.88a7.284 7.284 0 01-4.95-2.5 7.263 7.263 0 01-1.74-5.26c-.34-7.66-1.31-15.35-1-23.01.66-3.6 2.07-7.02 4.14-10.04 1.61-3.01 3.88-5.72 5.76-8.59a9.79 9.79 0 001.76-4.43 9.7 9.7 0 00-.56-4.74c-.6-2.05-.96-4.16-1.07-6.29-2.34-18.79-5.08-37.53-4.72-56.56-.06-1.59-.31-3.17-.73-4.71 0-.4-.74-.71-1.41-1.34-5.22 3.81-5.15 12.31-13.14 15.12-.89-2.4-1.6-4.86-2.11-7.36-.53-3.98-.81-7.99-.84-12.01-.07-2.12.35-4.23 1.24-6.15 4.75-9.2 9.74-18.3 14.69-27.36.23-.4.9-.57 2.24-1.31 1.47 1.17 3.84 2.24 4.85 4.08 2.81 5.02 7.46 5.89 12.27 5.99 10.64.27 21.28 0 32.28 0 .44 4.78 1.07 9.5 1.21 14.18.06 2.09-.54 4.15-1.71 5.89-8.06 10.77-8.96 23.41-8.56 35.92a95.46 95.46 0 005.15 26.76 65.563 65.563 0 0010.5 17.79 39.707 39.707 0 017.23 25.62c-.54 6.68-.54 13.39 0 20.07.93 6.43-3.01 9.03-6.96 11.24-1.92 1-4.1 1.37-6.24 1.06-2.13-.31-4.12-1.29-5.67-2.8a46.33 46.33 0 00-7.63-5.72 7.258 7.258 0 00-5.88-.57c-5.56 3.12-10.77 6.69-15.26 9.74 2.28 6.69 4.29 12.71 6.33 18.66l.43-.3zM1879.53 924.106l3.34-5.218 11.91 8.362-2.74 16.356c-6.26-1.706-12.24-2.877-16.46-8.295l3.35-8.998c-3.08 1.806-4.65 2.81-6.32 3.713-3.68 1.94-5.69 1.438-6.53-2.542a85.468 85.468 0 01-1.27-14.282c-.77-25.454 2.48-50.64 5.15-75.826a257.375 257.375 0 017.09-32.01c3.65-15.319 7.36-30.605 11.24-45.857a295.685 295.685 0 0122.01-62.481c2.91-5.585 3.85-12.174 6.26-18.061 5.52-13.58 11.44-27.026 17.12-40.573 2.28-5.385 4.25-10.903 6.69-16.289a40.71 40.71 0 014.22-7.659c3.68-5.218 7.42-10.402 11.51-15.286a163.528 163.528 0 0114.08-15.252 8.873 8.873 0 0111.71-1.271 16.483 16.483 0 015.94 5.233 16.4 16.4 0 012.79 7.41c0 2.776-2.51 5.753-3.92 8.596-1.4 2.843-2.41 4.75-3.34 6.456h-27.87c-16.72 19.132-15.25 31.809-1.2 50.573-39.97 83.553-63.12 171.788-74.76 263.201zM1322.09 1214.77c-3.91 3.34-6.35 5.88-8.99 8.02-4.42 3.58-8.73 4.59-10.84 2.38-3.35-3.35-1.14-7.16.4-10.44 5.32-11.27 10.97-22.41 16.46-33.61 2.94-6.02 7.46-8.16 14.35-9.4 9.7-1.74 17.76-.97 25.15 5.52.54.43 1.57.3 2.31.6.69.31 1.35.68 1.97 1.1 1.27 4.19 2.78 8.2 3.62 12.31.53 2.87.53 5.8 0 8.67-2.65 15.01-5.39 29.9-3.02 45.28 1.24 7.87 1.04 15.93 2.05 23.82.76 5.34 3.43 10.23 7.52 13.75a17.738 17.738 0 015.75 18.03c-.44 3.43-.7 6.9-.76 10.36-.14 1.71-.63 3.37-1.45 4.88-.82 1.5-1.95 2.82-3.32 3.85a12.09 12.09 0 01-4.6 2.16c-1.67.39-3.4.42-5.09.08-5.29-.63-10.62-.9-15.95-.8-1.45.23-2.93-.03-4.22-.73a6.736 6.736 0 01-2.91-3.15c-2.27-4.51-4.68-8.96-6.69-12.84 2.21-10.27 10.98-18.03 7.46-31.07-4.14 7.69-7.86 13.64-10.63 20.06-.59 1.76-1.54 3.37-2.78 4.74a13.271 13.271 0 01-4.45 3.22c-4.18 1.81-4.81 4.99-3.34 9.27 1.01 2.7 1.18 5.63.5 8.43-4.72 12.47-10.4 24.52-20.07 34.05-1.22.88-2.52 1.64-3.88 2.27-.5-1.32-.83-2.7-.97-4.11 1.01-17.08 3.84-34 8.46-50.47.4-1.24.4-3.35 1.11-3.68 6.08-2.11 3.78-6.19 3.34-10.41-.06-2.57.78-5.09 2.38-7.12 3.57-4.92 8.02-9.27 11.44-14.32 1.47-3.03 2.52-6.25 3.14-9.56 2.5-7.67 2.71-15.9.6-23.68-1.67-5.22-2.57-10.44-4.05-17.46z"/><path fill="#fff" d="M1943.05 590.531a208.603 208.603 0 00-31.44 44.753 407.23 407.23 0 00-22.51 51.208c-5.59 14.684-11.44 29.334-16.36 44.252a262.189 262.189 0 00-9.33 37.762c-2.75 15.487-6.69 30.772-9.84 46.125-1.3 5.168-2.3 10.405-3.01 15.687-2.34 22.544-6.92 44.887-6.49 67.698.04.535.04 1.071 0 1.606-.23 2.742-1.47 4.549-4.41 4.683-2.95.133-4.42-1.706-4.59-4.416-.76-7.97-1.1-15.975-1.03-23.982 1.03-23.146 2.31-46.325 4.21-69.437.81-9.801 3.72-19.4 5.19-29.133 3.07-20.404 9.13-39.971 14.75-59.738a570.595 570.595 0 0124.15-69.371c5.79-13.379 11.94-26.758 18.06-40.137 2.91-6.255 5.86-12.577 9.33-18.53 8.23-13.948 14.59-17.025 28.87-4.516 1.62 1.716 3.1 3.55 4.45 5.486zM1860.6 599.695c-3.11 3.345-5.69 6.322-8.63 8.964-10.04 8.931-15.76 20.838-21.71 32.277a282.02 282.02 0 00-16.09 38.365c-4.42 12.811-7.43 26.123-10.94 39.234-5.62 20.905-4.41 42.345-4.51 63.551 0 13.881.23 27.728.33 41.609.1 1.323 0 2.655-.3 3.947-1.04 3.111-2.44 6.121-6.29 6.422a6.688 6.688 0 01-4.22-1.109 6.722 6.722 0 01-2.64-3.473 60.402 60.402 0 01-3.61-12.209c-3.14-17.66-2.74-35.588-4.05-53.516a235.094 235.094 0 011.64-47.061c1.31-10.57 2.91-21.139 4.92-31.575 2.74-15.463 8-30.368 15.59-44.118 2.87-5.05 4.75-10.703 7.19-16.021a65.87 65.87 0 0130.47-31.575c7.73-4.014 13.58-2.341 22.85 6.288zM1618.36 1049.23c1.45-2.36 3.09-4.6 4.91-6.69 1.65-1.36 3.53-2.43 5.56-3.14 11-4.72 21.87-9.83 33.11-13.88 17.29-6.22 34.96-11.37 52.25-17.56 14.65-5.22 29.2-2.34 43.82-.7 3.14.65 6.16 1.78 8.96 3.34 2.51.97 4.78 2.49 6.63 4.45 1.86 1.95 3.25 4.3 4.09 6.86.83 2.56 1.09 5.28.75 7.95-.35 2.67-1.28 5.23-2.74 7.5-9.03 14.75-21.57 24.48-40.14 22.54-14.15-1.47-28.56-.93-42.51-3.34a351.537 351.537 0 00-50.18-4.62c-7.89-.36-15.75-1.74-24.51-2.71z"/><path fill="#fff" d="M1895.25 592.806c.46 2.097.45 4.267-.01 6.363a14.788 14.788 0 01-2.67 5.778c-4.11 7.124-8.29 14.215-12.17 21.507-1.84 3.345-2.98 7.358-4.48 11.004-9 21.975-18.13 43.85-26.76 65.892a159.452 159.452 0 00-5.05 18.33c-3.68 13.914-6.89 27.996-11.14 41.743-3.95 12.643-4.35 25.754-6.69 38.531-3.35 17.494-2.44 35.121-3.15 52.681-.16 4.214-.97 8.395-1.47 12.509-4.15 1.137-6.19 0-6.69-3.746s-1.64-7.86-2.01-11.84c-1.3-14.048-3.71-28.163-3.34-42.212.64-23.145 2.21-46.358 8.8-68.869 2.07-7.124 2.84-14.65 4.31-21.941a279.609 279.609 0 0114.15-47.396c3.85-10.034 6.69-20.068 11.47-29.735 6.93-14.115 14.92-27.728 22.65-41.442 1.81-3.344 4.72-5.82 6.52-9.064.28-.681.69-1.297 1.22-1.809a5.41 5.41 0 011.84-1.168 5.35 5.35 0 012.16-.33c.73.041 1.45.233 2.11.564 3.58 1.338 6.89 3.044 10.4 4.65zM1973.36 669.033c8.46 6.455 18.29 8.328 22.67 18.296-4.98 10.469-10.73 21.273-15.38 32.544-8.6 20.939-17.36 41.911-24.52 63.351-4.75 14.282-10.37 28.497-11.37 43.917-.44 6.254-3.72 12.275-4.69 18.53-2.64 16.724-4.81 33.748-7.02 50.64-.05 1.858.16 3.714.6 5.519a22.9 22.9 0 01-3.34 15.988 7.621 7.621 0 01-3.81 3.35 7.611 7.611 0 01-5.06.228c-3.71-.602-4.78-3.344-5.32-6.89a96.023 96.023 0 01.94-28.665c4.48-28.731 8.23-57.597 13.68-86.161a513.896 513.896 0 0114.22-52.446c3.34-10.637 7.96-20.805 11.6-31.341 4.45-12.844 8.37-25.855 12.68-38.732a63.629 63.629 0 014.12-8.128zM1800.39 597.889c3.34 1.639 7.66 2.275 9.13 4.582 1.91 2.944-.54 6.356-2.81 9.265-14.55 18.531-23.41 39.937-30.71 62.013a226.98 226.98 0 00-5.35 26.591c-.73 3.646-1.67 7.291-2.47 10.904a27.213 27.213 0 00-1.21 6.254c.14 18.664.39 37.339.77 56.025 0 6.924.84 13.848 1.27 20.738 0 .803.24 1.606.3 2.409.44 6.254-1 9.465-4.41 9.699a11.984 11.984 0 01-6.55-2.548 11.942 11.942 0 01-3.99-5.78c-5.58-29.468-9.13-59.203-6.12-89.139a196.855 196.855 0 018.6-42.98c3.14-9.365 5.52-18.898 8.53-28.23a70.692 70.692 0 0124.98-35.321 46.169 46.169 0 0110.04-4.482z"/><path fill="#fff" d="M1735.46 688.399c8.67-10.201 8.7-24.216 16.73-36.358.54 1.676.84 3.423.87 5.185-3.88 16.724-7.83 33.749-12.08 50.539-.4 1.606-2.64 3.111-4.38 3.914-8.09 3.612-11.37 7.158-9.53 15.152 2.07 9.265.5 19.098 5.38 27.962a36.357 36.357 0 012.54 12.443c1.31 9.465 2.45 18.964 3.65 28.464.8 6.321 0 8.428-3.61 8.964-2.11.095-4.2-.477-5.96-1.636a10.02 10.02 0 01-3.88-4.82c-3.34-11.573-5.85-23.413-9.56-34.719a146.484 146.484 0 01-5.86-39.301c-.55-11.496.76-23.006 3.88-34.083a260.504 260.504 0 017.7-27.561c4.85-11.807 11.17-22.979 16.99-34.351a87.012 87.012 0 005.32-8.863 7.325 7.325 0 013.03-4.123 7.351 7.351 0 015-1.129c3.39-.056 6.73.9 9.58 2.746 2.86 1.846 5.1 4.5 6.44 7.623-18.97 17.192-28.03 39.401-32.25 63.952zM1999.81 813.695c7.83 4.047 13.38-3.345 20.74-3.345.45 1.06.68 2.195.7 3.345-.63 3.077-1.8 6.02-2.54 9.031a7.205 7.205 0 01-2.31 4.55 7.197 7.197 0 01-4.75 1.872c-7.59 0-12.84 4.682-18.39 8.83-2.51 1.839-5.09 3.512-7.53 5.184-.47 6.088-.97 12.376-1.44 18.698-6.29 2.776-11.8 6.087-19.06 4.549-2.85-7.192-6.02-14.483-8.63-22.009-2.38-6.89-.57-8.998 6.69-9.8a35.347 35.347 0 0122.24 5.385c-.84-8.697-5.38-12.945-13.01-12.811h-12.95c2.41-2.241 4.22-3.579 5.66-5.251a8.319 8.319 0 013.79-2.672 8.374 8.374 0 014.64-.238c7.52 1.003 13.74-.401 22.98-4.047-.61-1.371-1.3-2.7-2.08-3.981a10.669 10.669 0 01-1.66-4.39c-.21-1.57-.07-3.168.42-4.674 1.98-9.064 3.35-18.296 4.99-27.394 1.57-8.128 3.34-16.222 5.22-24.249 2.67-11.406 5.42-22.812 8.33-34.15.4-1.539 1.8-3.847 2.94-3.981.86.104 1.7.405 2.43.88a5.622 5.622 0 011.78 1.863c2.46 4.422 4.6 9.016 6.39 13.747a9.671 9.671 0 01-.5 6.188 314.308 314.308 0 00-18.2 68.601c-.56 4.248-.6 4.215-6.89 10.269zM2094.44 603.241a33.361 33.361 0 015.45 13.177c.85 4.733.67 9.594-.53 14.25-3.35 12.075-6.39 24.216-9.7 36.291-3.78 13.881-7.66 27.762-11.51 41.609-.63 2.274-2.1 4.616 1.41 6.69-8.26 2.542-5.56 10.937-9.84 17.459-5.11-11.84-10.03-22.611-14.28-33.448-.31-2.077.01-4.2.94-6.087 4.65-14.483 10.03-28.765 13.95-43.482a177.378 177.378 0 004.98-30.806 11.698 11.698 0 015.69-10.435c4.08-2.275 7.25-7.258 13.44-5.218zM1939.37 963.909c-.64 7.693-5.65 11.606-12.18 14.282-2.44.97-4.61 2.575-7.09 3.344a45.102 45.102 0 01-10.03 2.442 7.098 7.098 0 01-5.35-1.204 7.1 7.1 0 01-1.92-2.033 7.048 7.048 0 01-.99-2.616 113.613 113.613 0 00-4.32-10.971 80.798 80.798 0 0118.4-13.379c4.08-2.107 5.52-1.271 7.02 3.144 2.81 8.161 4.99 9.165 12.58 6.69-2.21-3.345-4.55-6.991-6.69-10.603-1.74-2.877-.37-5.084 1.94-6.891 5.42-4.281 10.9-8.462 16.26-12.777a16.756 16.756 0 002.94-3.646 72.79 72.79 0 0011.21-28.899c.73-4.749 1.6-9.465 2.44-14.349a26.214 26.214 0 0117.02-2.508c3.35.368 6.26 1.739 6.46 5.887.18 1.054.51 2.079.97 3.043 3.55 9.232 2.84 11.205-4.72 17.828a39.891 39.891 0 00-9.03 10.034 239.99 239.99 0 00-14.62 29.267c-4.31 10.804-5.68 12.61-17.82 13.547-.77.066-1.51.234-2.48.368zM1489.01 1374.51l13.68-8.32-9.8-1.11c-9.07-1-12.55-4.65-11.11-13.75 1.67-10.7 4.45-21.23 6.69-31 7.36-4.52 14.15-3.35 20.54-2.41 2.94.44 5.45 3.55 8.36 5.55a79.01 79.01 0 01-4.55 8.7 20.254 20.254 0 00-4.07 9.83c-.46 3.58.05 7.22 1.46 10.54 1.84 4.58 2.15 8.8-2.34 11.14 2.06 3.43 3.94 6.97 5.62 10.6 1.9 5.5 4.94 10.54 8.93 14.78 7.6 7.43 4.65 17.2-5.38 20.61-1.5.58-3.03 1.06-4.58 1.44-1.41.44-2.9.56-4.35.33-1.46-.23-2.84-.8-4.04-1.65a9.56 9.56 0 01-2.87-3.29 9.419 9.419 0 01-1.09-4.22 56.92 56.92 0 00-11.1-27.77zM1712.38 666.391c-.75 4.295-1.77 8.539-3.04 12.71a103.671 103.671 0 00-5.92 34.183c0 3.111-.3 6.188-.44 8.931-15.75 3.345-30.1 9.365-45.49 11.071a24.749 24.749 0 01.9-16.958c3.62-9.399 7.97-18.53 12.15-27.728.26-.593.65-1.124 1.13-1.557a4.65 4.65 0 011.68-.952c14.21-2.341 25.12-10.803 36.16-19.098.94-.262 1.9-.463 2.87-.602zM1666.69 682.646c-3.34 5.486-6.35 9.767-8.6 14.416-6.45 13.379-12.91 26.993-9.19 42.68a4.23 4.23 0 01-.34 2.274c-.17.435-.73.703-.53.535-6.93-1.672-13.38-3.344-20.07-4.849-3.35-.837-6.69-1.773-10.04-2.743a8.568 8.568 0 01-4.62-2.985 8.626 8.626 0 01-1.87-5.176c-.6-5.218-1.27-10.403-2-16.49a29.302 29.302 0 018.63-2.509c2.27.065 4.51-.602 6.38-1.902 1.88-1.3 3.28-3.165 4.02-5.323 2.51-5.017 4.51-10.268 7.09-15.218a27.054 27.054 0 015.32-6.857 10.03 10.03 0 0113.04-2.04c3.62 2.241 7.56 3.813 12.78 6.187zM1584.37 1490.61c-.53-1.1-1.57-2.24-1.57-3.34 0-13.62-9.13-22.85-16.22-32.92-3.68-5.25-9.54-6.28-15.79-5.85-4.75.3-9.57 0-14.32 0-1.64.05-3.26-.45-4.59-1.41a7.47 7.47 0 01-2.8-3.91c-2.14-8.13-8.2-13.38-12.78-20.07-.76-1.24-1.43-2.54-2.01-3.88 5.19-3.34 10.04-6.69 15.02-9.33 1.63-.76 3.48-.85 5.17-.26 1.7.58 3.09 1.81 3.9 3.41 5.89 10.03 14.82 12.24 25.55 13.17 9.17.81 14.25 8.57 16.73 16.73 2.29 8.78 3.93 17.73 4.88 26.76.81 5.52 1.14 11.1 1.51 16.72-.11 1.44-.42 2.86-.94 4.21l-1.74-.03zM1338.48 1322.74a20.79 20.79 0 006.71 5.01c2.55 1.2 5.33 1.86 8.15 1.94 6.69.57 8.26 2.81 8.12 9.44 0 2.91-.46 5.85-.83 8.76-.42 2.23-.34 4.53.24 6.73.58 2.2 1.64 4.24 3.1 5.98 1.69 1.95 2.66 4.42 2.74 7 .08 2.57-.74 5.1-2.3 7.15-3.15 4.45-7.16 9.8-14.49 7.22-2.06-.52-4.16-.89-6.28-1.1-9.81-1.91-14.45-9.47-12.78-19.3s2.34-18.93 3.34-28.43c.17-3.68-.53-7.59 4.28-10.4zM2046.51 675.957a139.218 139.218 0 00-11.88-17.494 9.762 9.762 0 01-2.67-5.094 9.655 9.655 0 01.7-5.709c2.84-9.667 5.49-19.433 8.13-29.167.63-2.308.8-4.716 1.27-7.057.47-2.342.4-5.653 1.94-7.258a43.595 43.595 0 0110.6-8.262c2.85-1.572 6.26 1.973 7.9 5.954 4.61 11.272 1.2 21.741-2.08 32.477-3.27 10.737-5.82 20.939-8.22 31.542-.97 4.381-1.91 8.295-5.69 10.068zM1341.83 1395.08a9.077 9.077 0 012.75-5.02 9.104 9.104 0 015.21-2.37c6.19-1.1 12.31-2.71 18.77-4.18 1.6 4.85 2.91 8.87 4.28 12.81.64 2.17 1.78 4.15 3.32 5.8 1.53 1.66 3.43 2.93 5.54 3.73 7.36 2.91 8 5.49 5.12 13.05-2.71 7.02-5.82 13.78-12.58 17.89a9.002 9.002 0 01-4.98 1.64c-4.26-.46-8.25-2.27-11.41-5.16-3.15-2.9-5.3-6.73-6.12-10.93-.38-4.97-1.2-9.91-2.44-14.75-2.06-4.4-4.56-8.59-7.46-12.51zM1489.01 1496.83c-4.79-.4-6.89-3.61-9.3-6.45-2.41-2.85-5.65-6.39-8.36-9.7-1.64-1.98-2.95-4.25-4.59-6.22a79.037 79.037 0 00-11.2-12.48c-5.15-3.98-11.31-5.99-17.86-2.04-5.36 3.34-10.04.23-13.82-3.01a8.132 8.132 0 01-1.7-5.72c0-5.02.46-10.03.76-15.92a75.6 75.6 0 0112.48.94c8.05 1.81 16 4.04 23.82 6.68 3.3 1.16 6.31 3.01 8.83 5.42 2.52 2.42 4.49 5.35 5.78 8.6 1.91 4.41 4.05 8.73 5.89 13.14 3.26 7.85 6.44 15.74 9.53 23.65.34.77-.06 1.71-.26 3.11zM1506.17 754.358L1494.09 757a32.753 32.753 0 01-5.92-12.576c-1.47-5.251-2.51-5.82-7.99-5.084-2.65.335-5.25 1.037-7.9 1.438-2.31.6-4.7.826-7.09.669-9.63-1.705-19.23-3.779-28.83-5.753a5.56 5.56 0 01-.37-2.421c.05-.825.29-1.627.69-2.351a5.61 5.61 0 011.61-1.839 5.698 5.698 0 012.25-.981c11.47-3.345 22.95-6.991 34.52-10.035 2.88-.269 5.8.038 8.56.903 3.65.602 7.19 1.773 10.87 2.074 7.23.569 11.54 4.75 11.11 11.673-.24 3.713-1.31 7.359-1.27 11.038a69.29 69.29 0 001.84 10.603z"/><path fill="#fff" d="M1969.94 881.259c-1.43-4.382 0-6.69 3.11-7.827a43.202 43.202 0 016.23-1.438 49.102 49.102 0 0029.03-17.125c4.65-5.385 10.97-8.028 17.56-13.647-.57 3.545-1.44 5.318-.94 6.689a8.37 8.37 0 003.68 3.981c5.02 2.542 5.49 6.689 4.82 11.473-.37 2.608-.6 5.251-.97 8.796-5.55.736-11.44 1.706-17.33 2.275a10.19 10.19 0 00-5.23 1.741 10.157 10.157 0 00-3.56 4.212 24.8 24.8 0 01-13.85 11.473 26.363 26.363 0 01-4.22-6.489c-1.47-5.184-4.91-5.619-9.3-4.984-2.84.234-5.72.502-9.03.87zM1549.22 1406.26c4.28-2.08 8.59-5.99 12.17-5.42a51.526 51.526 0 0119.13 7.56c7.2 4.93 13.92 10.53 20.07 16.72 7.33 7.02 10.04 16.93 13.72 25.92 1.35 3.47 2.47 7.02 3.34 10.64.2.63-.43 1.47-.73 2.34-4.08.34-5.42-2.64-7.03-5.38-3.11-5.19-6.25-10.37-9.46-15.49a5.4 5.4 0 00-2.21-2.28c-9.73-3.34-16.73-10.83-24.79-16.45a37.414 37.414 0 00-11.27-3.75c-8.46-2.17-10.67-4.58-12.94-14.41zM2029.68 593.775c-1.57 7.292-2.54 12.777-3.94 18.129-1.71 6.689-2.95 13.647-8.9 16.724l-26.09-12.476a44.908 44.908 0 018.49-21.006c4.25-5.05 10.88-8.261 16.73-11.706a7.196 7.196 0 013.29.057c1.08.273 2.09.791 2.93 1.515a70.944 70.944 0 017.49 8.763zM1518.38 1361.4v-27.29c0-2.78 7.49-11.21 10.23-12.41 2.74-1.2 4.78-2.17 7.46-3.34 3.35 1.57 5.35 3.84 3.35 8.06-.41.93-.27 2.1-.61 3.11-1.36 3.93-1.7 8.14-.97 12.24s2.49 7.95 5.12 11.17c.3.44.5.94.77 1.4 1.87 3.35 5.59 7.13 2.64 10.04-2.94 2.91-7.66 2.98-11.64 2.98-5.58-.1-11.94.1-16.35-5.96zM2107.82 664.216a44.13 44.13 0 00-3.64-2.709c-7.06-4.148-7.16-4.148-4.99-11.64 1.01-3.579 2.54-7.024 3.58-10.603 1.04-3.579 3.65-5.619 8.5-4.415 1.2 7.024 2.44 14.282 3.71 21.875l-5.69 7.86c2 1.75 3.45 4.035 4.18 6.584.74 2.549.73 5.256-.03 7.799-.23 1.852-.31 3.72-.23 5.585-.27 9.031-2.24 16.958-9.84 23.414-5.01 4.181-8.46 10.235-12.71 15.386a53.334 53.334 0 01-4.61 4.281c-.78-2.374-.98-4.9-.59-7.367.4-2.467 1.38-4.804 2.86-6.815a134.659 134.659 0 0010.04-16.255 42.815 42.815 0 004.41-21.742c-.07-4.482.27-8.662 5.05-11.238zM1844.47 945.981c2.65 2.843 5.36 5.351 7.53 8.194 7.86 10.269 17.66 14.784 30.57 11.406 2.63-.5 5.29-.824 7.96-.97.2 5.285-2.84 9.834 1.51 14.182 2.21 2.174-.64 6.388-3.78 5.853a509.751 509.751 0 01-27.29-5.385 11.166 11.166 0 01-7.77-6.355c-3.34-6.422-6.48-12.81-9.63-19.266a5.633 5.633 0 01-1.07-4.009c.17-1.424.88-2.73 1.97-3.65zM1932.15 614.145a13.922 13.922 0 011.81 6.514c.06 2.287-.45 4.554-1.48 6.598-1.37 3.746-3.35 7.325-4.92 10.904a37.285 37.285 0 00-5.11 16.556 27.08 27.08 0 01-3.35 11.339c-4.11 8.061-10.6 10.034-20.44 6.924 7.19-21.474 19.67-39.837 33.49-58.835zM1992.15 942.235c-.26 4.582-.26 8.295-.73 11.94a27.893 27.893 0 01-2.21 9.165c-3.75 7.325-8.03 14.349-12.08 21.507a17.136 17.136 0 00-2.07 4.248c-1.07 4.716-4.45 5.954-9.73 6.89 1.44-5.619 2.24-10.569 3.94-15.185 3.68-9.834 6.29-19.6 3.15-30.103a5.987 5.987 0 01-.39-2.989c.12-1.013.5-1.979 1.1-2.806a6.024 6.024 0 012.32-1.928 6.049 6.049 0 012.96-.572c4.44-.435 8.99-.167 13.74-.167zM1492.85 1448.6c-7.15.9-14.58 2.31-20.07-3.34-9.33-10.04-21.24-13.78-33.95-16.49-2.45-.73-4.83-1.66-7.12-2.78.21-1.11.65-2.17 1.28-3.1a8.27 8.27 0 012.42-2.33c.96-.6 2.03-.99 3.15-1.16 1.12-.16 2.26-.09 3.35.2 8.76.78 17.35 2.86 25.49 6.19a66.718 66.718 0 0125.45 22.81zM1576.51 1357.89c0 7.86-6.49 9.3-11.04 12.54-7.56-.43-11.37-4.91-12.84-11.9-1.57-7.56-3.08-15.16-4.82-22.68-.9-3.95 1.04-5.49 4.42-5.92 3.37-.44 6.35-.54 10.4-.84 1.01 2.69 1.73 5.48 2.14 8.33.17 9.2 2.64 16.86 11.74 20.47zM2059.42 858.515l-15.59 11.941c-4.85-3.947-5.25-9.433-5.32-14.55a10.28 10.28 0 00-1.05-5.314 10.406 10.406 0 00-3.59-4.052c-2.75-1.906-6.69-4.247-4.52-8.094a15.803 15.803 0 018.43-6.69c6.92-2.107 12.81 2.141 14.95 9.232 1.07 3.345 2.71 6.69 4.05 10.268.87 2.542 1.8 4.984 2.64 7.259zM1381.23 1440.04c3.35-5.55 6.49-10.94 9.67-16.22 8.7-.97 15.15 4.18 22.24 7.35.84.65 1.42 1.58 1.64 2.61.45 1.26.66 2.59.6 3.92-1.07 12.77-3.01 18.56-16.49 11.3-5.78-3.11-11.7-5.95-17.66-8.96zM1524.66 1371.84l18.3-2.74c2.44 11.37 10.34 18.29 17.8 26.08-4.92 5.26-11.24 6.26-17.26 7.56-1.41.3-3.35-1.2-4.82-2.34a12.11 12.11 0 01-3.35-4.38c-3.54-7.63-6.82-15.39-10.67-24.18zM1532.06 1280.33c1.74-2.55 3.61-5.02 5.25-7.63 2.04-3.35 3.18-7.39 8.9-8.6-.64 3.35-1.24 6.36-1.68 9.27-.43 2.91-.8 5.85-.97 8.76-.36 7.43-.63 14.85-.9 22.28.15 2.12.15 4.26 0 6.39-.27 1.33-1.57 3.34-2.44 3.51-4.47.36-8.96.17-13.38-.57-3.81-.8-3.35-4.15-2.24-7.19 2.17-5.99 4.48-11.98 6.45-18.06.67-2.78 1.12-5.59 1.37-8.43l-.36.27zM1631.33 1417.19l-45.02-17.86c.34-1.02.79-2.01 1.34-2.94 11.44-11.98 6.96-12.38 22.75-3.35a50.595 50.595 0 0120.53 19.24c.53.92.94 1.89 1.24 2.91.1.26-.33.8-.84 2zM1556.98 1269.02c-3.88 18.03 3.64 34.28 5.45 51.34a18.84 18.84 0 01-7.22 2.39c-2.54.29-5.12.06-7.57-.68a37.656 37.656 0 01-1.47-18.03c.6-6.39 1.81-12.71 2.11-19.1-.08-1.99.29-3.97 1.08-5.8.79-1.83 1.97-3.46 3.47-4.77 1.56-1.64 2.95-3.43 4.15-5.35zM1852.67 617.824c-1.81 4.347-3.87 8.58-6.19 12.677-9.57 14.851-14.15 31.575-18.4 48.399-.28 2.31-.28 4.647 0 6.957l-10.03 4.214c-.8-1.849-1.21-3.84-1.21-5.853s.41-4.004 1.21-5.853a223.895 223.895 0 0110.34-24.216c5.82-11.105 12.41-21.808 18.76-32.612a39.572 39.572 0 013.91-4.917l1.61 1.204zM1561.29 1376.96l18.67-10.51c3.81 5.25 8.02 11.04 12.81 17.56-3.29 2.89-6.77 5.56-10.41 8-.93.42-1.96.6-2.98.55a6.47 6.47 0 01-2.9-.89c-5.05-3.78-9.74-8.09-14.45-12.34-.6-.57-.6-1.84-.74-2.37zM1925.72 937.05c.3.97.71 1.572.54 1.94-2.91 6.69-14.45 13.078-21.21 12.075a8.216 8.216 0 01-3.6-1.065 8.18 8.18 0 01-2.76-2.552 8.136 8.136 0 01-1.35-3.511 8.335 8.335 0 01.35-3.743c1.04-3.712 2.61-7.325 4.12-11.439a59.795 59.795 0 0011.14 6.69 58.629 58.629 0 0012.77 1.605zM1382.7 1377.36c.81.4 1.98.57 2.15 1.07 2.84 8.19 9.09 13.58 15.42 18.9a6.17 6.17 0 012.37 4.08c.22 1.63-.21 3.27-1.2 4.58-6.13-1.68-12.14-3.76-18-6.22-5.32-2.61-7.73-4.42-5.52-11.34 1.21-3.85.03-8.67 4.78-11.07zM1396.35 1411.21c8.67.6 17.66-3.58 25.49 3.34 2.98 2.68 4.78 5.75 3.11 8.53-1.67 2.78-4.85 2.88-7.66 1.54-7.49-3.51-15.25-6.86-20.94-13.41zM1961.41 961.3l6.26 10.703a50.183 50.183 0 01-26.96 17.828c6.55-9.131 13.24-18.229 20.7-28.531zM1371.93 1334.88c1.51 5.58 3.15 11.1 4.45 16.72 1.31 5.62 2.38 11.44 3.55 17.13-6.29 4.61-9.67 3.34-10.04-3.92-.77-9.86-1.67-19.9 2.04-29.93zM1773.9 605.716c-5.05.468-10.31 1.104-13.38-4.248a14.55 14.55 0 01-2.08-7.492c.1-1.123.45-2.21 1.03-3.177a7.417 7.417 0 012.32-2.409 7.578 7.578 0 013.38.176c1.1.312 2.12.87 2.97 1.63 3.17 3.15 6.13 6.501 8.87 10.035l-3.62 5.652.51-.167zM1856.11 913.235c-7.79-4.047-9.66-14.65-4.14-23.413 8.53 6.422 10.1 15.352 4.14 23.413zM2068.35 596.451a21.405 21.405 0 01-.33-5.419c.8-4.147 3.91-5.385 7.59-3.344 7.23 4.181 8.36 6.856 5.72 13.646h-2.71l-7.22.803-3.05-5.686zM1987.87 917.684c.37 5.485.7 10.369 1.14 16.356l-12.21 1.672c-2.04-10.469 1.84-16.556 11.07-18.028zM2220.38 643.412c-1.74 8.261-3.35 16.49-5.49 25.822-2.97-3.847-3.88-7.125-1.64-9.801a27.15 27.15 0 004.96-13.212c.2-1.036 1.4-1.839 2.14-2.776l.03-.033zM2154.82 708.234c-3.35-5.051.3-7.994 1.5-12.142l5.86 3.512-7.36 8.63zM2241.05 641.539l-6.29 5.786c-2.27-6.087-1.5-6.89 6.29-5.786zM2262.19 617.523c-.9 3.345-1.5 5.887-2.27 8.864-3.92-6.288-3.85-6.723 2.27-8.864zM2186.13 679.736c.5 1.104 1 2.241 1.4 3.345 0 0-.73.502-1.14.769l-1.9-3.345 1.64-.769zM2220.48 631.37v12.041c0-3.946 0-7.927.17-11.974l-.17-.067z"/><path fill="#fff" d="M2071.4 602.137l7.22-.803c-3.18 4.549-3.34 4.583-7.22.803zM2485.3 620.366c.36-2.348.91-4.663 1.64-6.924 1.14-2.709 2.67-5.217 4.05-7.793a51.44 51.44 0 006.69-29.166c.02-.938.16-1.87.4-2.777.9-.2 1.6-.602 1.87-.401 10.03 7.693 22.14 12.744 30.1 23.413 5.46 7.359 8.1 14.851 4.55 23.849a99.572 99.572 0 00-2.81 10.034c-2.37-1.539-4.01-2.542-5.58-3.679a158.833 158.833 0 00-13.38-9.8 19.032 19.032 0 00-21.81.836 32.686 32.686 0 01-5.72 2.408zM2456.87 599.026a69.542 69.542 0 01-3.95-14.516 19.576 19.576 0 013.34-10.034c2.65-4.482 6.09-8.496 9.34-12.911a82.653 82.653 0 00-7.4-10.302 7.32 7.32 0 01-1.64-2.234 7.178 7.178 0 01-.66-2.693 7.11 7.11 0 01.43-2.74c.32-.876.81-1.681 1.44-2.367 2.72-3.9 6.7-6.737 11.27-8.028 10.61 17.627 6.89 48.433-12.17 65.825zM2460.61 639.164c-7.79 18.63-22.04 23.045-37.79 11.941 0-3.345 2-4.449 4.91-5.051 10.87-2.274 21.71-4.616 32.88-6.89zM2080.69 853.23c-.04-1.525.08-3.051.37-4.549 1.27-4.891 2.87-9.687 4.82-14.349 4.05-8.663 8.5-17.159 13.08-25.521 1.97-3.646 4.71-6.89 8.03-11.673.04 1.561-.11 3.123-.44 4.649-3.08 7.258-6.15 14.55-9.47 21.741-3.31 7.191-6.69 14.316-10.43 21.273a66.458 66.458 0 01-6.19 8.195l.23.234zM2146.86 679.033c-.2-2.475-.34-4.95-.6-7.425-.51-4.75-1.18-9.499-1.51-14.282-.28-2.06-.07-4.155.6-6.121 1.27-2.977 3.35-5.987 7.19-4.984 3.85 1.004 3.35 4.382 2.71 7.292-1.07 7.057-2.07 14.182-3.34 21.206-.34 1.739-2.04 3.344-3.08 4.783l-1.97-.469zM2566.08 662.076a19.709 19.709 0 01-14.42-9.834c-2.21-3.345 0-6.054 2.68-8.128a4.908 4.908 0 016.06-.634c.62.392 1.14.917 1.53 1.537a18.058 18.058 0 014.28 7.993c.73 2.984.68 6.104-.13 9.066zM2598.36 733.085a94.047 94.047 0 005.08-13.379c.84-4.114 0-8.562.64-12.777.17-1.505 1.74-2.809 2.71-4.214 1.47 1.271 3.78 2.274 4.28 3.88.73 1.865 1.07 3.862.99 5.865a14.483 14.483 0 01-1.43 5.775c-2.87 5.619-4.75 11.74-12.27 14.85zM2157.59 599.796l18.07 18.262c-1.17 2.877-3.15 2.041-5.12 1.138a21.46 21.46 0 01-12.95-19.4zM2528.48 702.146c-6.69-4.415-7.76-6.69-6.35-12.041a43.67 43.67 0 013.88-10.302c4.38 7.058 3.28 14.383 2.47 22.343zM2493.63 686.894l-.97-18.798c7.06 3.111 8.59 5.185 8.26 10.637-.23 4.248-1.41 7.86-7.29 8.161zM2582.07 718.97c2.81 9.566-4.32 12.878-7.23 18.062-.83 1.472-3.84 1.673-5.85 2.442l-1.07-1.572 14.15-18.932zM2553.07 723.486c2.94-8.395 5.65-16.089 8.46-24.183 4.55 10.101 1.2 19.835-8.46 24.183zM2192.32 599.562c-9.37-1.506-15.39-10.302-13.85-20.939l13.85 20.939z"/><path fill="#fff" d="M2080.46 852.896c-1.57 3.344-2.74 7.324-8.96 7.893 2.87-4.248 5.18-6.924 9.19-7.66l-.23-.233zM1307.58 723.452c-4.02 6.054-8.13 7.225-13.38 4.148-2.44-1.372-5.22-2.241-7.83-3.345a30.579 30.579 0 01-7.09-3.345c-4.48-3.545-3.35-7.693 1.94-10.034 7.83-3.345 13.38 1.204 18.83 5.151a67.002 67.002 0 017.53 7.425zM1260.41 738.838a7.418 7.418 0 01-3.96 3.57 7.47 7.47 0 01-5.34.009 64.147 64.147 0 01-14.48-6.087c-3.98-2.241-2.14-6.121-1.14-9.332a4.74 4.74 0 01.91-2.02 4.752 4.752 0 011.71-1.397 4.796 4.796 0 014.31.072 68.92 68.92 0 0112.57 7.894 35.809 35.809 0 015.42 7.291zM1198.7 731.647c3.96.251 7.73 1.749 10.78 4.279a18.714 18.714 0 016.21 9.803c.84 2.776-.83 4.649-3.78 4.114a4.831 4.831 0 01-2.24-.77 49.486 49.486 0 00-14.18-8.161 4.397 4.397 0 01-1.49-.999 4.235 4.235 0 01-.97-1.51 4.295 4.295 0 01-.29-1.772c.03-.604.18-1.196.44-1.739a4.1 4.1 0 01.68-1.676c.35-.503.8-.923 1.32-1.232.53-.309 1.12-.5 1.72-.558.61-.058 1.22.017 1.8.221zM1127.15 745.829c6.49.334 14.02 6.689 15.12 11.406.26.761.3 1.579.12 2.362a4.399 4.399 0 01-3.17 3.269c-.78.202-1.6.186-2.37-.046a75.963 75.963 0 01-12.31-5.351 5.24 5.24 0 01-1.86-1.219 5.214 5.214 0 01-1.17-1.888 5.012 5.012 0 01-.26-2.206c.07-.746.3-1.467.68-2.113a18.029 18.029 0 015.22-4.214zM1307.11 743.22c3.11 11.473 6.02 22.243 8.93 32.913-9.7-1.539-13.71-6.121-13.08-15.52a35.944 35.944 0 014.15-17.393zM1176.66 752.886c-.11.509-.33.987-.64 1.402-.32.415-.72.757-1.18 1.002a3.56 3.56 0 01-3 .172 88.964 88.964 0 01-14.02-6.489c-1.37-.769-3.07-3.345-2.71-4.281a7.499 7.499 0 014.32-3.88c7.63-2.375 17.43 3.913 17.23 12.074zM1352.27 693.818c10.03 0 11.23 9.098 16.42 13.68-5.89 7.158-8.53 7.124-13.88 0-4.35-5.653-4.35-5.653-2.54-13.68zM1338.89 713.15c0 1.573 0 3.145-.44 4.683-.04.528-.2 1.039-.48 1.491a3.333 3.333 0 01-2.59 1.596 3.34 3.34 0 01-1.55-.244 18.895 18.895 0 01-7.13-5.916 18.889 18.889 0 01-3.47-8.6c.2-4.148 2.38-5.619 6.32-4.348 5.59 1.772 9.7 6.89 9.34 11.338zM1270.41 783.725c-7.05-9.766-8.79-25.387-4.08-32.344 5.26 5.954 6.89 18.631 4.08 32.344zM881.632 712.749a8.194 8.194 0 017.727 8.563 28.92 28.92 0 01-1.706 10.603 5.365 5.365 0 01-4.616 1.505c-1.807-1.673-4.416-5.586-3.948-6.121 3.345-3.646.603-7.492 1.205-11.105.35-1.183.798-2.335 1.338-3.445zM954.719 740.009c-2.91.703-5.921 2.408-7.46 1.539a8.263 8.263 0 01-2.876-6.69 5.114 5.114 0 00-2.074-5.351 3.022 3.022 0 01-1.169-1.108 3.018 3.018 0 010-3.103 3.022 3.022 0 011.169-1.108 5.995 5.995 0 015.586.234 21.425 21.425 0 014.951 6.991 45.953 45.953 0 011.873 8.596zM1152.81 795.867c-5.76-10.77-2.78-20.403-.47-30.103 5.52 9.566 5.32 19.132.47 30.103zM1344 735.895a83.695 83.695 0 0014.32 32.913c-12.51-3.211-17.73-15.453-14.32-32.913zM1052.86 761.249c-6.39-.536-13.58-5.452-14.28-10.035a7.884 7.884 0 01.07-3.315 8.014 8.014 0 011.4-3.007c2.44-2.207 5.05-.234 6.86 1.807a19.123 19.123 0 013.34 5.452c.94 2.776 1.57 5.586 2.61 9.098zM917.523 730.978c0 5.553-2.275 8.362-4.917 7.794a4.141 4.141 0 01-1.917-.65 4.135 4.135 0 01-1.899-3.436 4.153 4.153 0 01.471-1.969c1.204-3.344-1.137-4.916-2.776-6.89-1.639-1.973-2.074-4.381.234-6.254a3.717 3.717 0 013.406-.835 3.71 3.71 0 012.581 2.373c2.174 3.646 3.747 7.559 4.817 9.867zM1098.89 761.315c-8.37 1.673-13.65-.735-15.52-7.291a8.131 8.131 0 011.53-5.686 4.458 4.458 0 012.09-.527c.73 0 1.45.181 2.1.527a27.944 27.944 0 019.8 12.977zM989.306 745.494c-1.238.636-2.375 1.74-3.345 1.673-4.415-.301-11.641-10.703-10.671-15.119a3.65 3.65 0 014.406-2.934 3.653 3.653 0 011.716.927 26.25 26.25 0 014.215 6.69c1.204 2.442 2.14 5.118 3.679 8.763zM1007.54 734.657c9.7 2.007 7.39 11.005 10.77 18.062-3.01 0-5.05.837-6.43 0a5.698 5.698 0 01-2.94-4.114c.27-4.683-10.068-8.061-1.4-13.948zM822.794 714.656c1.572-2.609 3.345-5.352.669-8.764a3.346 3.346 0 011.84-5.251 3.977 3.977 0 013.5-.181 3.967 3.967 0 011.451 1.063c.397.46.683 1.005.836 1.593.769 1.974 1.438 3.981 2.174 5.954a5.286 5.286 0 01-2.576 6.69c-2.642 1.772-5.385 2.642-7.894-1.104zM1377.29 729.473c3.34 9.198 6.35 17.56 9.43 26.056-8.9-2.408-13.68-14.751-9.43-26.056zM854.705 705.491a52.468 52.468 0 016.49 6.69 8.093 8.093 0 01-.83 9.857 8.102 8.102 0 01-2.883 2.017 5.23 5.23 0 01-4.316-.335c-1.037-.769-2.073-3.545-1.672-3.947 3.78-3.779 1.606-8.194 1.739-12.308 0-.502.569-.87 1.472-1.974zM1232.82 757.101c1.64 10.335 4.15 20.637.97 32.444-4.79-6.188-2.48-11.807-2.51-16.991-.03-5.185-1.41-10.436 1.54-15.453zM1066.47 788.575c-4.38-8.295-2.84-15.252-.5-22.242.1 7.024 9.54 13.613.5 22.242zM781.886 698.3c-2.71-.769-4.516-.803-5.486-1.739a13.385 13.385 0 01-1.94-4.415c1.572-.602 3.847-2.175 4.649-1.639a25.363 25.363 0 017.225 7.024c1.907 3.077-2.073 7.893-5.786 7.191-1.94-.368-3.345-1.94-1.639-4.114a19.62 19.62 0 012.977-2.308zM801.521 701.611l-4.784-3.144c3.011-4.583 6.055-4.382 8.463-2.709a11.401 11.401 0 014.215 6.121 4.378 4.378 0 01-.476 3.472 4.384 4.384 0 01-2.869 2.013c-1.405.268-3.847.502-4.248 0-.77-1.304-.301-3.278-.301-5.753zM679.53 706.294c-1.505-3.713-2.676-6.69-3.846-9.599 6.991-4.248 7.66-4.014 11.941 4.649-1.171 3.98-4.114 4.983-8.095 4.95zM1030.38 782.521c-1.34-.803-3.34-1.338-3.54-2.308-1.68-6.087 0-11.807 2.14-17.727 4.21 4.114 4.51 9.064 1.4 20.035zM749.975 703.819a13.38 13.38 0 01.301-3.345 6.302 6.302 0 011.438-1.706c-3.913-5.084-3.913-5.084-1.572-10.034 5.185 1.505 7.794 3.779 7.593 7.459-.2 3.679-2.575 6.689-7.76 7.626zM712.779 696.861l-7.158 3.847c-2.275-3.345-4.215-6.522-6.155-9.466 5.151-3.612 8.429-2.408 13.313 5.619zM639.391 719.941a63.561 63.561 0 01-4.215-6.423 24.038 24.038 0 01-1.17-4.682c1.672-.234 4.148-1.238 4.85-.535a14.878 14.878 0 014.114 7.09c.368 1.272-2.274 3.111-3.579 4.55zM652.403 704.655c7.058-4.95 7.559-4.884 11.941 1.304-4.08.368-7.827 3.445-11.941-1.304zM1194.32 772.286c.33 3.713.63 7.392 1.07 12.543-2.48-1.405-4.05-1.773-4.32-2.575a11.144 11.144 0 01-.51-5.187c.25-1.745.9-3.406 1.92-4.848l1.84.067zM956.224 752.652c4.382 5.72 3.947 7.426-2.809 12.944 1.103-5.117 1.973-9.03 2.809-12.944zM911.502 744.525c5.62 6.689 5.62 6.89-.869 12.041.334-4.583.602-8.329.869-12.041zM736.896 695.29c-4.984-.904-8.964-.402-10.971-5.219a6.422 6.422 0 018.463-.602c1.237.904 1.471 3.212 2.508 5.821zM1112.33 792.489c-2.41-4.449-.23-8.596.4-14.249 4.52 6.021 1.81 10.101-.4 14.249zM997.5 764.359c1.472 3.345 1.205 6.489-3.01 10.837.334-4.817.535-7.827.736-10.871l2.274.034zM872.667 736.163c3.579 5.084 3.58 5.084-.936 8.328a6.69 6.69 0 01.936-8.328zM842.429 733.353c-.635-3.345-1.07-5.486-1.572-8.195 6.188 3.579 6.188 3.612 1.572 8.195zM802.323 720.476v-7.292c1.74 1.505 3.345 2.208 3.646 3.345.669 2.241-.234 4.147-3.646 3.947zM735.524 696.761c-3.344 5.753-5.218 4.75-6.923.468l6.923-.468zM684.882 678.398a22.758 22.758 0 012.375 2.375s-.937 1.405-1.271 1.338a23.416 23.416 0 01-3.546-1.238l2.442-2.475zM2421.11 807.774c-8.03-6.321-11.77-15.185-15.22-25.453 4.95 2.274 12.04 10.904 16.72 20.068.48 1.571.66 3.215.54 4.85l-2.04.535zM1535.84 856.274a20.573 20.573 0 015.15-14.517c4.75-5.719 10.03-10.97 15.25-16.255 2.11-2.141 4.58-2.542 7.12.769-6.92 11.372-17.49 19.467-27.52 30.003z"/></svg>