<svg xmlns="http://www.w3.org/2000/svg" xmlns:xlink="http://www.w3.org/1999/xlink" viewBox="0 0 4401.43 2468.64"><defs><style>.cls-1{fill:none;}.cls-2{clip-path:url(#clip-path);}.cls-3{fill:#402f5c;}.cls-4{fill:url(#_809);}.cls-5{fill:url(#_809-2);}.cls-6{fill:url(#_809-3);}.cls-7{fill:url(#_809-4);}.cls-8{fill:url(#_809-5);}.cls-9{fill:url(#_809-6);}.cls-10{fill:url(#_809-7);}.cls-11{fill:url(#_809-8);}.cls-12{fill:url(#_809-9);}.cls-13{fill:url(#_809-10);}.cls-14{fill:url(#_809-11);}.cls-15{fill:url(#_809-12);}.cls-16{fill:url(#_809-13);}.cls-17{fill:url(#_809-14);}.cls-18{fill:#c265af;}.cls-19{fill:url(#_48);}</style><clipPath id="clip-path" transform="translate(288.99 172.79)"><rect class="cls-1" width="4480" height="2240"/></clipPath><linearGradient id="_809" x1="854.97" y1="3177.35" x2="854.97" y2="303.81" gradientUnits="userSpaceOnUse"><stop offset="0" stop-color="#c165b4"/><stop offset="0.55" stop-color="#774584"/><stop offset="1" stop-color="#3f2d60"/></linearGradient><linearGradient id="_809-2" x1="585.16" y1="2819.26" x2="585.16" y2="-54.28" xlink:href="#_809"/><linearGradient id="_809-3" x1="570.2" y1="2420.57" x2="570.2" y2="253.69" xlink:href="#_809"/><linearGradient id="_809-4" x1="3735.86" y1="3187.64" x2="3735.86" y2="314.1" xlink:href="#_809"/><linearGradient id="_809-5" x1="3460.31" y1="2819.26" x2="3460.31" y2="-54.29" xlink:href="#_809"/><linearGradient id="_809-6" x1="3459.47" y1="2299.28" x2="3459.47" y2="354.97" xlink:href="#_809"/><linearGradient id="_809-7" x1="1419.23" y1="2841.06" x2="1419.23" y2="172.39" xlink:href="#_809"/><linearGradient id="_809-8" x1="1130.23" y1="2385.74" x2="1130.23" y2="-8.26" xlink:href="#_809"/><linearGradient id="_809-9" x1="1134.44" y1="2281.95" x2="1134.44" y2="-101.51" xlink:href="#_809"/><linearGradient id="_809-10" x1="2181.18" y1="3081.27" x2="2181.18" y2="207.72" xlink:href="#_809"/><linearGradient id="_809-11" x1="1881.82" y1="2819.26" x2="1881.82" y2="-54.3" xlink:href="#_809"/><linearGradient id="_809-12" x1="1908.53" y1="2063.31" x2="1908.53" y2="14.95" xlink:href="#_809"/><linearGradient id="_809-13" x1="2276.75" y1="2312.62" x2="2276.75" y2="575.61" xlink:href="#_809"/><linearGradient id="_809-14" x1="2140.77" y1="2587.13" x2="2140.77" y2="257.06" xlink:href="#_809"/><linearGradient id="_48" x1="2010.1" y1="2047.17" x2="2010.1" y2="15.55" gradientUnits="userSpaceOnUse"><stop offset="0" stop-color="#f4ffdb"/><stop offset="0.05" stop-color="#e2fcd6"/><stop offset="0.21" stop-color="#b2f6c9"/><stop offset="0.33" stop-color="#94f2c1"/><stop offset="0.39" stop-color="#89f0be"/><stop offset="0.48" stop-color="#7feabb"/><stop offset="0.62" stop-color="#64d9b3"/><stop offset="0.8" stop-color="#38bea6"/><stop offset="1" stop-color="#009c96"/></linearGradient></defs><g id="Layer_2" data-name="Layer 2"><g id="_Layer_" data-name="&lt;Layer&gt;"><g class="cls-2"><path class="cls-3" d="M1385.36,1866.44v-33.38h-65.88v-16.4H1386V1675.34l-32.48-23.69V1272.07l-29.87-21.77V945.84L1348,928.08V703.64l-50.78-62.47V-128H755.9V838.85L791.75,885v737.76H762.91v18.89H899.06l21.2,15.46V1997.9h-34l-32.75,94.18H825v-86.89H711.3v-17.68h56.28v-17.72h-68v-23.71H841.5V1965h12.12v-88.27H815.19v-31.67H793.06V1729.55H780.54v114.67H760.19v36.64H718.84V1727.14l-21.35-15.56V1398.24L673,1380.37V1193.14H566.9V1249H540.12v-85.77H355V2293.56h888.42V1866.44Z" transform="translate(288.99 172.79)"/><polygon class="cls-3" points="1209.25 2170.69 1565.63 2170.69 1592.58 2260.57 1652.87 2260.57 1690.09 2466.35 1486.5 2466.35 1209.25 2170.69"/><polygon class="cls-3" points="667.83 2172.98 595.05 2172.98 568.1 2262.86 507.81 2262.86 470.58 2468.64 674.17 2468.64 667.83 2172.98"/><polygon class="cls-3" points="2023.85 2172.98 1937.42 2172.98 1905.41 2262.86 1833.81 2262.86 1789.61 2468.64 2031.38 2468.64 2023.85 2172.98"/><polygon class="cls-3" points="2301.22 2172.98 2387.65 2172.98 2419.65 2262.86 2491.25 2262.86 2535.46 2468.64 2293.68 2468.64 2301.22 2172.98"/><polygon class="cls-3" points="793.33 1347.61 684.28 1347.61 693.75 1271.23 783.86 1271.23 793.33 1347.61"/><polygon class="cls-3" points="705.01 1278.49 711.45 1019.35 714.38 1278.49 705.01 1278.49"/><polygon class="cls-3" points="720.55 1278.49 724.13 1074.71 726.18 1278.49 720.55 1278.49"/><polygon class="cls-3" points="738.81 1278.49 742.38 1176.6 744.43 1278.49 738.81 1278.49"/><polygon class="cls-3" points="1962.52 2272.02 1853.48 2272.02 1862.94 2195.64 1953.05 2195.64 1962.52 2272.02"/><polygon class="cls-3" points="1874.2 2202.9 1880.64 1943.76 1883.58 2202.9 1874.2 2202.9"/><polygon class="cls-3" points="2457.03 2233.83 2347.99 2233.83 2357.46 2189.57 2447.57 2189.57 2457.03 2233.83"/><polygon class="cls-3" points="2368.71 2193.77 2375.31 2073.33 2378.33 2193.77 2368.71 2193.77"/><polygon class="cls-3" points="2430.83 2193.77 2437.26 2043.61 2440.2 2193.77 2430.83 2193.77"/><polygon class="cls-3" points="2410.56 2193.77 2416.53 2101.01 2419.26 2193.77 2410.56 2193.77"/><polygon class="cls-3" points="1673.72 2243.76 1564.67 2243.76 1574.14 2199.51 1664.25 2199.51 1673.72 2243.76"/><polygon class="cls-3" points="1647.51 2203.71 1653.95 2102.2 1656.89 2203.71 1647.51 2203.71"/><polygon class="cls-3" points="1627.25 2203.71 1633.22 2141 1635.94 2203.71 1627.25 2203.71"/><polygon class="cls-3" points="1889.74 2202.9 1893.32 1999.12 1895.37 2202.9 1889.74 2202.9"/><polygon class="cls-3" points="1908 2202.9 1911.58 2101.01 1913.63 2202.9 1908 2202.9"/><polygon class="cls-3" points="1581.05 510.4 1628.76 477.46 1628.76 375.8 1740.75 375.8 1772.93 339.28 1830.68 339.28 1844.52 322.81 1581.05 322.81 1581.05 510.4"/><polygon class="cls-3" points="2053.79 305.63 1581.05 305.63 1581.05 288.44 2067.64 288.44 2053.79 305.63"/><polygon class="cls-3" points="2438.56 800.63 2481.07 771.29 2481.07 680.72 2580.83 680.72 2609.5 648.19 2660.95 648.19 2673.29 633.52 2438.56 633.52 2438.56 800.63"/><polygon class="cls-3" points="2859.72 618.21 2438.56 618.21 2438.56 602.9 2872.05 602.9 2859.72 618.21"/><polygon class="cls-3" points="1954.69 953.78 1912.18 924.44 1912.18 833.87 1812.42 833.87 1783.75 801.33 1732.29 801.33 1719.96 786.67 1954.69 786.67 1954.69 953.78"/><polygon class="cls-3" points="1533.53 771.36 1954.69 771.36 1954.69 756.05 1521.2 756.05 1533.53 771.36"/><polygon class="cls-3" points="654.65 2068.45 607.34 2042.31 607.34 1961.6 496.28 1961.6 464.37 1932.61 407.1 1932.61 393.37 1919.54 654.65 1919.54 654.65 2068.45"/><polygon class="cls-3" points="22.11 1905.89 678.67 1905.89 678.67 1892.25 0 1892.25 22.11 1905.89"/><polygon class="cls-3" points="660.64 1420.03 594.6 1420.03 594.6 1753.24 652.46 1811.1 660.64 1420.03"/><path class="cls-3" d="M2184.92,1607.16V934.57l-66.72-53.22V749.52l-18.09-14.43V719.28c20.69-23.82,45.06-47.12,65.75-70.93V211.88L2149.72,199V171L2163.44,160V-45.19H1528.13V329c26.12,24.93,54.38,52.66,80.5,77.6V849.84l21.73,17.34V1081.8c-28.43,28.08-55.57,59.29-84,87.37v438Z" transform="translate(288.99 172.79)"/><rect class="cls-3" x="2007.61" y="2172.98" width="311.7" height="295.66"/><rect class="cls-3" x="1806.21" y="1767.41" width="693.72" height="33.56"/><rect class="cls-3" x="1990.92" y="1784.19" width="350.49" height="423.6"/><rect class="cls-3" x="1864.49" y="1815.22" width="166.9" height="15.65"/><rect class="cls-3" x="2276.75" y="1839.24" width="166.9" height="15.64"/><polygon class="cls-3" points="2010.22 2129.87 1975.48 2113.28 1975.48 2036.21 2010.22 2019.63 2010.22 2129.87"/><polygon class="cls-3" points="2324.03 1983.18 2358.78 1966.6 2358.78 1889.53 2324.03 1872.95 2324.03 1983.18"/><polygon class="cls-3" points="4169.28 2243.79 4016.61 2243.79 4016.61 2147.92 3891.12 2147.92 3891.12 2128.41 3953.22 2128.41 3953.22 2108.86 3878.24 2108.86 3878.24 2082.69 4034.79 2082.69 4034.79 2090.71 4048.16 2090.71 4048.16 2006.19 4005.75 2006.19 4005.75 1971.23 3981.34 1971.23 3981.34 1843.77 3967.53 1843.77 3967.53 1970.31 3945.07 1970.31 3945.07 2010.72 3899.44 2010.72 3899.44 1841.11 3875.88 1823.94 3875.88 1478.18 3848.83 1458.47 3848.83 1251.87 3731.79 1251.87 3731.79 1313.48 3702.24 1313.48 3702.24 1218.85 3497.97 1218.85 3497.97 2466.11 4401.43 2466.11 4169.28 2243.79"/><polygon class="cls-3" points="3533.7 2142.4 3453.39 2142.4 3423.65 2241.57 3357.12 2241.57 3316.05 2468.64 3540.7 2468.64 3533.7 2142.4"/><polygon class="cls-3" points="3760.86 1347.61 3651.81 1347.61 3661.28 1271.23 3751.39 1271.23 3760.86 1347.61"/><polygon class="cls-3" points="3672.54 1278.49 3678.97 1019.35 3681.91 1278.49 3672.54 1278.49"/><polygon class="cls-3" points="3688.08 1278.49 3691.66 1074.71 3693.7 1278.49 3688.08 1278.49"/><polygon class="cls-3" points="3706.33 1278.49 3709.91 1176.6 3711.96 1278.49 3706.33 1278.49"/><polygon class="cls-3" points="3519.16 2027.06 3466.95 1998.21 3466.95 1909.15 3344.41 1909.15 3309.19 1877.16 3246 1877.16 3230.85 1862.74 3519.16 1862.74 3519.16 2027.06"/><polygon class="cls-3" points="2324.03 1847.68 3545.66 1847.68 3545.66 1832.63 2299.63 1832.63 2324.03 1847.68"/><polygon class="cls-3" points="3525.77 1311.56 3452.89 1311.56 3452.89 1679.24 3516.74 1743.08 3525.77 1311.56"/><polygon class="cls-4" points="709.7 1336.01 709.7 1734.21 757.71 1782.23 757.71 1968.4 705.01 1968.4 705.01 2005.45 744.52 2044.96 777.28 2044.96 777.28 2055.82 741.14 2055.82 741.14 2172.98 711.93 2172.98 678.67 2271.82 654.65 2271.82 654.65 2285.36 691.15 2285.36 691.15 2296.62 650.73 2296.62 622.27 2430.43 1087.67 2430.43 1087.67 2290.87 1014.8 2290.87 1014.8 2272.02 1049.55 2272.02 1014.8 2177.98 967.19 2177.98 967.19 2107.89 1059.84 2107.89 1059.84 2087.53 966.05 2087.53 966.05 2055.25 1007.83 2055.25 1007.83 1899.94 986.49 1884.37 986.49 1571.04 961.97 1553.16 961.97 1365.93 855.9 1365.93 855.9 1421.77 829.12 1421.77 829.12 1336.01 709.7 1336.01"/><path class="cls-5" d="M591.09,1498v-49h15.14v49ZM486.9,1163.21v74.24h-8v44.46h8V1370h87.47V1193.14H566.9V1249H540.12v-85.77ZM416,1832.65l39.52,39.52H472.3v-40.9H416Zm114.23,425V2119.8h7.15v76.85h51.1V2031.12h-1.12v-206.4h5.18v34.82H616.7V1960.1h61.49v-25h13.22v-20.35H677.05v-32.28h14.36V1779.54h27.43v-52.4l-21.35-15.56V1490.87H635.21v146.91H611.4v-84H584V1538h-8.9v15.79H527.76v203.78H517.11v-309.4H450.33V1229H420.7v332.44l48,48v165.71h23.15v125.09h-1v138.63H472.3V1883H452.15v117.15H422.94L389.68,2099H376v13.54h26.11v11.27H376v19.25h65.47v114.56Zm196.1-139.56h-.53v-18.85h.53v-92.62l-.42-1.11H690.18v-.31h-12v-18.74H662.41v19H636.76v252.14h89.58Zm34.21-18.85-30.72-83.16v83.16Zm-30.72,18.85v61.14h64.44v-61.14Zm41-203.34h-16.8v20.35h16.8Z" transform="translate(288.99 172.79)"/><path class="cls-6" d="M587.42,1691.86H551.53v-7.65h-2.45v-13.63h34.21v7h4.13Zm2.42-240.66H617.2v-10.89H589.84Zm52,224.66h22.87v-9.11H641.8Zm-116,28.16H514.48v-3h-18v7.14h.33v7.33h28.91Zm9.15,76.19H513v8.73h21.91Zm-40,94.56h23.65v-9.43H494.93Zm89.13-142H560.67v9.32h23.39Zm43.1-470.3h19.22v-7.66H627.16Zm44.63,267.67H654.46v-6.71h-27.4v10.92h13.8v8.11h30.93ZM639.28,1760h20v-8h-20Zm29-193.63H646.91v8.51h21.35ZM636.05,1219h25.74V1208.7H636.05ZM669.84,1796H639.49v12.09h30.35Zm14.31-370.51h-27v10.75h27ZM516.93,1898.06h9.63v-3.84h-9.63ZM663.32,1474.6h4.43v-1.77h-4.43ZM617,1350.4h15.67v-6.24H617Zm-48.53,52.88h22.66v-9H568.45Zm-86.39,356.43H468.72v13.08h13.34Zm-6.34-120.15h-7v6.74h7Zm30.46,102.8h-4.31v-7.09H472.74v11.6h20.13v.79h13.31Zm57.55-435h9.17v-3.65h-9.17Zm29.07,25.76H573.9v7.53h18.9Zm-96,584.84v-7.25h-10v-8.12H464.86v8.73h13.73V1918Zm-15.13-99h14.77v-5.89H481.65ZM545,1392.34h21.47v-8.55H545Zm-92.59,426.8h-22.7v9h22.7Zm-30.73,17.57h13.16v-5.25H421.66Zm90.06,93H488.06v9.43h23.66Zm-93-131.06H416v3.14h2.72Zm38.22,44v3.54h8.9v-3.54Zm-10.84,13.48h-6.67l5.47,5.46h1.2Zm5-10v-6.5h1.37v-6.46H436.27V1837h-7.86v8l1,1ZM648,1779H620.65v10.89H648Zm33.47,103.35v.09h23.19v-.09Zm-3.41-269.19h19.42v-8.12H678.07Zm-40.63-393.6v11.11h14.09v7.81H673v-10.87h-7.64v-8.05Zm-101.7,43.77H552.9v-1.12h10.24v7.16h34.08v-8.06h3.42V1246.8H566.9V1249H547.7v7.53h-12Zm167.61,490.48h11.88v-4.73H703.35ZM688,1848.38v13.14h30.81v-13.14Zm-15.27-113h34v-13.56h-34ZM440,1203.51v1.63h4.09v-1.63ZM521.21,1307h29.41v-11.72H521.21Zm155.84,604.09H664.41v14.58H701v-11h-24Zm14.69,17.81v6.15h32.64v-6.15ZM545.07,1826.27H529v-1.2h-3v-6.27h-21v8.36h7.52v4.44H516v3.75H507.2v5.32h13.34v-2.84h24.53Zm-3,42.74v-3h-7.48v3ZM714,1785.6v8.18h4.86v-8.18ZM475.57,1915.91H455.33V1924h20.24ZM448.75,1358H420.7v12.77h28.05Zm19.3,583v-2.65h-6.64v2.65ZM646.29,1321h22.26v-8.87H646.29Zm-6.77,60.82h10.81v-4.31H639.52Zm23.55-28H647.93v6h15.14Zm16.09,40.31h-7.44v3h7.44Zm-20.81-92.25H673V1289.2H658.35Zm-20.59,29.36h25v-10h-25Zm-9.69,305.65h9v-3.57h-9Zm-8-170.44H654V1453H620.08Zm74.29,19.59h3.12v-4.55h-3.12ZM677,1587.83h15v-6H677Zm2.71,10.55h15.45v-6.16H679.72ZM617.94,1769.2v-1.55h-3.88v1.55Zm70.53-86.61v5.56h9v-5.56Zm-58.61-135.22H610v7.92h19.89Zm15.79-52.2h-4.07v9.17h23v-.28h15.71v-13.81H645.65Zm32.6,22.11h8.55v-3.41h-8.55ZM657,1272.86h15.39v-6.13H657Zm-94.84,474.2H549.3v5.11h12.82Zm12.28,181.85H562v4.94H574.4Zm-25.57-183.44h-18v7.15h18Zm2.85-20.81h-5.52v-2.09h-10v2.09H517.4v13.65h34.28ZM562,1813.44h13.35v-2.38H582V1798.2H549.75v12.86H562Zm23.45,8.75H570.56v5.93h14.86Zm-1.76,131.21H555.82v11.09h27.84Zm-7.68-97v2.79h7v-2.79ZM460.4,1462.07H448.21v4.85H460.4Zm126.16,305.08H555.27v12.46h4.56v.82h8.58v-.82h18.15ZM477,1596.56v-8.48H455.72v8.36l.12.12Zm-23.61-143.2H441.92v4.57h11.47Zm54,486.29H470.44v14.72h36.95Zm-60.32-568.49H420.7v12.07h26.37Zm83.61,613.77h3.4v-8.56H512.59v2.28H506v9.84h24.71Zm17.49-190.65H536.74v4.55h11.43Zm-60.64,4.29v-7.68H468.72v4.71h-.45v3Zm183.27-601.4H673v-4H670.8Zm-103.16,46.3v1h21.12V1236h-3.87v-1h-6.43v-10.3H566.9v18.72Zm12-30.07H566.9v5.93h12.76Zm115.12,230.11h2.71v-4.91h-2.71Zm-21.08,16.85h23.79v-13.45H673.7Zm-230,118.44h-5.66l5.66,5.66Zm-23.05-255h18.5v-9.25H420.7Zm100.51-160.26h18.91v-.37H521.21Zm92.62,543.87H613v-3.31H601.58v3.31H577.3V1722h36.53Zm11.5,209.35H592.45v13.09h32.88ZM598.74,1895h24.15v-9.62H598.74Zm23.87-38.78H590.25v12.9h32.36Zm31.61-11.7h-4.46v-7.72h7.49v-9.52h-23.9v4.21H620.41v7.27h.23v8.43H625v9h29.19Zm-16.57,59H615.42v8.86h22.23Zm39.4-21.11h2.52v-9.82H650.46v11.6h26.59Zm-8.3,16.92H657.88v4.33h10.87ZM489.16,1566.31h-24v9.56h24Zm5.27-10.57h-8.72v3.47h8.72Zm26.49,76H494v10.72h26.91ZM473.14,1346.9h6.38v-2.54h-6.38ZM496,1477.36H482.07v5.53H496Zm-11.84-196.21h18.17v-7.24H484.11Zm1.63,162.12h21.64v-8.62H485.74Zm-11.93,85.29h29V1517h-29ZM490.15,1395v2h5.05v-2ZM569,1561H556v5.18h13Zm12.73-30H565.87v-.21H538.11v11.06h9.39v2.78h34.22Zm-53.3,81.77h35.15v-14H528.42Zm-72-301h28.87v-11.51H456.45Zm71.76,120.11H541.4v-5.25H528.21Zm-15.73,42.83h16.37v-6.52H512.48Zm35.78-10.87v5H560.7v-5Zm-57.53,50.44h14.7v2.9h16.41v-2.9h5.6v-14.63H490.73Zm104.45,134.53h-9.26v3.69h9.26Zm3.5-412h7.54v-3h-7.54Zm-131,116.08V1349H458v3.89Zm129.23,257.75H572.6v4.73h-2.54v2.25h2.54v2.71h24.34ZM445,1274.74h35.76V1260.5H445Zm140.56,384.47H572.16v5.35h13.43ZM474.18,1180h35.09v-14H474.18ZM505.41,1336h34.17v-13.61H505.41Zm4.34-42.9h10.59v-4.22H509.75Zm8.93-101h21.2v-8.44h-21.2Zm52.19,433.64H539.42v12.53h31.45Zm-79.44-87.36H457.2V1552h34.23Zm-36.68-115.61H474v-7.67H454.75Zm10.5,67.79h-14v5.57h14Zm74.82,202.49H528.86v-1.58H514.57v5.69h11.15v1.61h14.35Zm26.59-275.64h22.6v-9H568.12V1398H540.5v11h26.16ZM476.5,1661.1v4.24h10.62v-4.24Z" transform="translate(288.99 172.79)"/><polygon class="cls-7" points="3575.03 1218.85 3575.03 1659.68 3628.18 1712.84 3628.18 1918.94 3569.84 1918.94 3569.84 1959.95 3613.58 2003.7 3649.85 2003.7 3649.85 2015.72 3609.84 2015.72 3609.84 2145.42 3577.5 2145.42 3540.68 2254.84 3514.09 2254.84 3514.09 2269.82 3554.49 2269.82 3554.49 2282.3 3509.75 2282.3 3478.25 2430.43 3993.47 2430.43 3993.47 2275.94 3912.8 2275.94 3912.8 2255.06 3951.26 2255.06 3912.8 2150.96 3860.09 2150.96 3860.09 2073.36 3962.66 2073.36 3962.66 2050.82 3858.82 2050.82 3858.82 2015.09 3905.08 2015.09 3905.08 1843.14 3881.45 1825.92 3881.45 1479.03 3854.3 1459.25 3854.3 1251.98 3736.88 1251.98 3736.88 1313.8 3707.24 1313.8 3707.24 1218.85 3575.03 1218.85"/><path class="cls-8" d="M3435.86,2002.44v80.87h15.73v57.11H3433v-22.94h-34.57v-115Zm-60.21-65.28h56.44V1763.57h-56.44ZM3286,1324.25h23.49V1146.44H3286Zm32,737.44v-81.92h52.2V1781.59H3321.7v-35.45h-40.86v41l43.75,43.74h36.26v12h-40v129.7h-32.34L3267,2036.46v25.23Zm48.2,195.95v-71.9h-27v2.72h-9.26v-43.62h-32.35v43.62h-.79v-73.53h-33v101.42h31.36v41.29Zm-58.72-749.23v-11.29h-11.3Zm42.36,75.93V1457.69h-41.19v51.9l30.46,30.45v44.3Zm306.76,518.8v26.07h-40.93v42.12h-4.91v86.31H3541.6V2103.06h23.94v-85.65h-31.73v-98.49h-22.38v-30.39h-19.09v93.88h-16.49v5.6H3459v-5.6h-22.62V1810.25h22.47v-56.79h-13V1577.52h-3.11v-10.87H3415.2V1380.74h-14.77v42h-41.66v-71.69h-36.95V1228.74h15.6v-134h44.64v-48.69h36.18v89.12h-1.49v62.22h-9.55v28.35h26.68v139h47v183.49h.3V1394.19h24.06v-43.1h39.45v43.1h7.18v19.73h14.94v37.92h25.68v201.28l23.64,17.23v172h-.62v-7.88h-13.06v7.88h-32.59V1878h32.59v22.54h-31.32v77.59h52.71l32.88,89v15.13H3623.8v20.87Zm-140.86-491.59h-3.31v78h3.31ZM3569,1745.46v61h6.42V1645.54h-10.27V1476.62h-13.36V1563h10.94v144.38h-19.21v38.1ZM3429.3,2229.53h-21v28.11h21Zm33.39-105.47v44H3477v-44Zm17.5-1044.88h-18.25v45h18.25Zm-1.91,186.9h7.44V1243.2h-7.44Zm60.31-186.9v20.54H3524v65.5h8.38v135h13.68v61.07h40.85v50.78h5.51V1306.24l-27.14-19.78V1079.18ZM3368,2059v-59.61h-19.38V2059Zm21.6-39.76V1977h-13.74v42.26Zm-35.95-333.86h57.94V1507.21h-57.94Zm-26.26,456.28V2115h-8.68v26.69Zm114.39-544.1h-11v33.89h11Z" transform="translate(288.99 172.79)"/><path class="cls-9" d="M3509,1564.8v-5.36h15.74v5.36Zm-48.5,197.66v9.17h27v-7.18h17.75v-12.26H3471.1V1743h-39.66v13.49h37.74v5.93Zm123.17-129v11.14h8.77v-11.14Zm-216.29-464.16h-23.3v7.93h23.3Zm8.4,132.81h-21v7.16h21Zm69.91-77.82h-12.48v4.25h12.48Zm1.07,30.89H3436.6v3.46h10.17Zm5.47,226.93v6.2H3450v11h-10.59V1506h19.76v-3h23.59v-2.06h4.37V1488.3h-2.38v-6.2Zm129.6-166.74h5.8v-2h-5.8Zm3,286.79h7.58v-12.61h-7.58Zm-33.09-55.43h33.12v-11.26h-33.12Zm-21.52-29.13h-6.56v-7.47h-27v7.47h-5.43v13.28h39Zm23.29-73.66H3519.3v11.65h9.29v9.68h35.24v-12h-10.28Zm5.15-58.35h21.62v-7.36H3558.7Zm6.2,111.56v1.57h4.61v-1.57Zm-236.4-244.67h29.35v-10H3328.5Zm108.73,163.38v4H3449v-4Zm-5.93,15.56h33.86v-11.52H3431.3Zm-55.55,14.77h27.95v8.49h35.23v-12h-27.06v-8.8h-36.12Zm51-32.56v-1.92h-5.66v1.92Zm31.55,44.06v-3.91h-11.48v3.91Zm-42.4,179.74h-14.42v4.9h14.42Zm5.36-52.63H3406.8v4.93h14.49Zm-4.55-86.81v-10.52h-30.91V1498Zm54.65,59.82h13v-4.43h-13Zm12.41,48.56H3494v-3.47H3483.8ZM3418,1622.68h23.82v3.84H3474v-11h-20.1v-5.1H3418Zm40.92-43.79h-16.06v5.46h16.06Zm5.21,63h10v-3.41h-10Zm-15.93,89.93v-3h-8.7v3Zm13.62-21.9h-27.56v9.38h27.56Zm-31.71-338.51H3401.5v9.72h28.59Zm-17,159.81h-36.33v12.36h36.33Zm-112-435.92v10.44h15.65v11h36.92v-11.26h7.6v-6.17H3343.2v4.87h-11.32v-8.83Zm23.65,374.93v2.08H3331v-2.08Zm63.38-301.4h40.49V1155H3388.2Zm-38.75,145.55h-29.83v10.15h29.83Zm129.43-156.75v6h17.76v-6Zm-10.78,98.8h33.55V1245H3468.1Zm-25.22,71.49h39.76v-13.52h-39.76Zm10.17-178v1.57h4.6v-1.57Zm-39.39-6.47v4.74h13.92v-4.74ZM3434.71,1863h-37.14v12.63h37.14Zm-.33,52v-11.78h-34.62V1915ZM3318,1507h13.85v-4.71H3318Zm291.41,378.69v5.88h17.27v-5.88Zm-269.84-371.78v-2.58H3332v2.58Zm.37-125.84h-19.63v6.68h19.63Zm23.33,343.35h-24.08v12h24.08Zm154.63-123h33v-11.23h-33Zm86.53,190.39V1794H3590v4.9Zm-103.07-578.22h28.76v-9.78h-28.76Zm49.6,356.87h-5.18v3H3551v2h31.16v-10.6H3551Zm22.24,81.14h-13v4.42h13Zm.93,70.53h-8v2.74h8Zm-4.8-41.86h-35.89v12.21h35.89Zm-28-66.62h-12.57V1625h12.57Zm29.78,57.77h22.26v-7.57h-22.26Zm-40.52-398.37h34.77v-13.83h-34.77Zm7.64,2.82v-2.21h-6.51v2.21Zm-34.75-78.9v4.62H3517V1204Zm57.92,563.35h-12.3v4.18h12.3Zm49.74-68.65H3577v11.61h34.13ZM3524.28,1348h33.45v-11.37h-33.45Zm-4.7,451.65h37.73v-12.84h-37.73Zm-54.51-259.39h-26v11.06h32.53v-6.68h3.21v2h12.74v-2h13.31v-12.17h-35.77Zm-111.25,302.69h-30.11v7.23h-2.86v10.93h9.85v-10h23.12Zm93.6-48h-36.84v12.53h36.84Zm.6,25.75h31.81v-12.85H3442v12.78h-2.27v2.81H3448Zm-57,53h-39.07V1887H3391Zm8.57-49.61h-11.75v4h11.75Zm71.93,7.69h-12.88v4.38h12.88Zm40.32,48h-35.27v12h35.27Zm-15.2-8.9h11v-3.77h-11v-.89h-32.58v11.08h32.58Zm-183.41-652.24h13.38v-4.55h-13.38Zm-17-73.71h11.14v-3.79h-11.14Zm240.57,428.63h-29.76v10.13h29.76Zm-206.23-297.42h-31.12v10.58h31.12Zm8,615.64h-1.1v-3.15h-16.69V1902h17.79Zm-.1-142.32V1753h10.39v-3.53Zm47.34-35.42h-38.74v13.18h38.74Zm-62.08-415.72h-23.21v7.89h23.21Zm-3.7,51.67h-27.84v9.48h27.84Zm127.79-215.36h4.59v-7h10.63V1116h-15.22Zm79.62,41.71h-24.89v10.48h30.8v-6.4h31.89v-13.25h-37.8ZM3338,1132.85h38v-12.91h-38Zm207.35,705.52h-31.52v10.72h31.52Zm-200-308.63v-10.38h-26.8l10.38,10.38Zm-14.92,301.16v-2.43h-8.23l2.43,2.43Zm230.09-580.13h4.83v-5.51h-4.83Zm-230.26,532.35h-32.39v11h32.39Zm228.41,123.06h-21.07v7.17h21.07Zm4.57-97.85h-11.56v3.93h11.56Zm-19.81,72.28h7v-2.37h-7Zm48.17-480.89h.89v-5.44h-.89Zm-37.62-89.66h38.51v-3.82l-13.18-9.61h-25.33Zm16.61,594.1h-7.34v2.5h7.34Zm-5.06-190.44h-33v11.22h33Zm-122.15-507.26h7.11V1204h-7.11Zm-65.25,460.48h8.36v-2.84h-8.36Zm.92-68.47h-22.26V1606H3379Zm-4.8-30v-5.67h-16.68v5.67Zm-4.48-275.68h22.12v-7.52h-22.12Zm22.82,408.45h-24v8.17h24Zm-10.47,68.42v1.51h4.44v-1.51Zm27.88,20.56h-33.25v11.31H3410Zm-37.07-10.47h16.37v-5.57h-16.37Zm76.56-410.4H3480v-10.39h-30.53Zm-11.75,34.82h36.69v-12.49H3437.7Zm31,37.94h15.62v-5.31h-15.62Zm-92.31-105.64h38.87v-13.22h-38.87Zm9.65-99.74h20v-6.79h-20Zm40.67,108.48h17.51v-6h-17.51Zm-13.75,21.09h28.17v-9.59h-28.17ZM3522.86,1482v-3.73h6.85v-10.62h-31.22v10.62h9.28V1482Zm2.92-63.9v-5.43h-16v5.43Zm-78.63,269.37h1.1v-5h-1.34v-7.78h-30.82v9h-7.51v13.12h38.57Zm97.12-289.41H3509v12h35.31Zm-132.93-126.32h23.93v-8.14h-23.93Zm-35.41-74.49h24.13v-8.21h-24.13Zm77.73,274.61h-20.29v5h-18.95v7.79h22.91v-5.87h16.33Zm-24.47-282.29h16.21v-5.51h-16.21Zm105.09,362.9H3528v2.12h6.24ZM3478,1859.32h32.89v-11.19H3478Zm27.67-74.5H3485v7h20.66Zm-71.45-20.75h-5.41v1.84h5.41Zm55.72-402.92h13.86v5.73H3519v5.84h23.67v-8.06h-18.22v-4.8h-10.08v-7h-24.41Zm29-35.89h-16.38v5.57H3519Zm-26.81,326.11H3509v-5.71h-16.79Zm36.34-299.25v2.73h8v-2.73Z" transform="translate(288.99 172.79)"/><polygon class="cls-10" points="1179.18 61.2 1179.18 682.66 1205.51 708.98 1205.51 902.68 1174.63 933.55 1174.63 1141.33 1201.68 1168.79 1201.68 1271.23 1172.52 1292.8 1172.52 1801.2 1260.01 1801.2 1282.38 1823.57 1282.38 2043.61 1312.18 2043.61 1312.18 2058.88 1282.91 2058.88 1282.91 2170.69 1256.2 2170.69 1221.88 2266.48 1330.93 2266.48 1330.93 2275.63 1218.32 2275.63 1163.49 2423.57 1635.94 2423.57 1594.01 2288.46 1513.18 2288.46 1513.18 2279.45 1590.96 2279.45 1565.63 2170.69 1532.42 2170.69 1532.42 2039.24 1674.35 2039.24 1674.35 2005.85 1608.47 2005.85 1608.47 1989.46 1674.96 1989.46 1674.96 1848.13 1642.48 1824.45 1642.48 1444.87 1612.62 1423.1 1612.62 1118.63 1636.98 1100.88 1636.98 876.43 1586.19 813.97 1586.19 61.2 1179.18 61.2"/><path class="cls-11" d="M1353.49,1583.55v68.1l32.48,23.69v33.19h-38.38v-125ZM977.61,564.31v-198h33.88V262.84h29.25v100.5H1139V244.57h5.49V320h13.61V465.55h52.32v21.32h8v-7H1234V422h-3.79V246.26H1199v-92h-21.89V-29.13h36.16V-111.6h-58.39v65.69h-2.2V-111.6h-88.43V64.75h-11.79V22.64h-.39V-16.6h8.24v-95h-51.2v62H972.45V-111.6H911.26V48.28h44.86V153.17H941.36v64.49h-46V288h-5.19V509.86l26.32,26.32v28.13Zm407.75,1268.75h-42.17v33.38h42.17Zm-77.87-122.56H1255.8v155.94h81.32v-33.38h-17.64v-16.4h17.64v-50.4h-29.63ZM967.07,2102.83v43.36h57v11H1005.5v88.4h29.08v-74.7h3.71v-43.1h-8.68v-25Zm-72-505.32h37.23V1484.38H895.11ZM924,2117.29l-49.47,133.48H924Zm165.69,15.86v59.31h33.71V2122.3h-6.53V2104H1074.7v-95.9h-15.16v-43.28h-2.15v106.71h-27.78v22.14H967.07v-95.43l.13-.36h26.71V1886.08h29.27v-15.26H993.39v-220L971,1628.4H945.44V1500.85H996v-93.77h12.28v-2.3H969.72V1393h-58V1111.48h15.45V1021H912.68V996l-27-27.45V834.6h18.42V767.8h83.32V937.36h39.12v294.69h-5.1v67.37h-9.51v53.91h49.68V1130.16h-31.44V902.42h74.94v160.07h11V896.64h-43.38v-138h-39.76v-246h56.22V475.51H1152V666.43h-38.1v53.73h16.88v109.3h36.44V616.4h46V590.72h-19.61V502.06h29.17v81.67h5.37V564.8h65.42V720.89h50.61V699l3.8,4.67V928.08l-24.36,17.76V1022H1284.3V875.57h-14.71V787.19h14.71V763.61h-6.23v17.2H1245.6v73.86h-38.78v152.59h25v278.63h-55.2v49.81h-18v15.75h37.73v122h-40.13V1357.36h-89.75v47.49h65V1535.7h34.17v12.13h4.55v8.76h28.72v67.58h55.55v187.37h-23.23v117.89h-20.25v49.92h6.64v271.42H1047.31v-58.31h13v-59.31Zm50.58-324.25V1778H1126v-47.76h-.27v-19h-17.91v-71.66h-30.54v14.43h-62.71V1657H1037v110.47h63v41.42Zm117.92,271.72v25.52h8.4v-25.52ZM1239.65-72.44h39.92v17h-60.34V161.8h71.49V116.43h6.48v-228h-57.55Zm28.83,2300.14h-4.61v-24.08h-27.64v47.15h32.25Zm11.26-991.91h43.88V1092h-43.88Zm63.45,485.82v95.05H1386v-95.05Zm-87.11,276.29v14.64h24l-3.41-14.64Zm-19-2.54h6.34V1965h-6.34ZM1352.18,1351h-28.13v54.9h-7V1269.42h-64.86v153.75h-6.2v80.77h13v99.11h61.38V1556h7.81V1436.46h24.06Zm1.31-78.9-27.36-19.94v88.21h27.36Z" transform="translate(288.99 172.79)"/><path class="cls-12" d="M944.19,1168.06h14.9v5.06h-14.9Zm189.36-263v-2.32h-6.83V905Zm5.42-44.88h-20.33v6.91H1139Zm-29.86-54.49h11.8v-4h-11.8Zm-36.49-20.94h-18.34v9.1h19.54v6.59h25.32V791.8H1081v0h31.46V778.22h-39.87Zm28.47,246.82h-8.29v2.82h8.29Zm7.31-67H1082v9h26.44Zm-19.13-137.31h33.12V816h-33.12Zm3.24-173.08v1.53h4.5v-1.53Zm-45.89,283.77h31.63V927.17h-31.63Zm31.78-265.28h25.42V664H1078.4Zm25.92,73.63v-3.23H1124V730.82h-36v7h-4v3.49h4v1.76h4.93v3.23Zm.4-81.68H1122v-5.86h-17.25Zm21.4-5.94v-3.77H1115v3.77Zm3.12-20.34h-22v7.49h22ZM1082,1056.66v-11.32h-14V1039h-38.44v6H1018V1051h-8.59v4.78h14.06v-1.63h21.76V1052h3.45v4.62Zm-62.24-339.27h39.75V703.87h-39.75Zm-49,311.14v-10.07h-8.46v-5.6h-6v-1.45H931v1.45h-5.16v12.37h15.21v3.3Zm84-259.72h-34.1V780.4h34.1Zm1.25,205.45v-2.34h12.48V962.5h-27.68v9.42h3.34v2.34Zm-41.61-63.51h31.58V900H1014.3Zm25.42,253.66H1023v-3h-12.28v3H1000v13.49h39.68Zm14.19-214.15v3.27h9.62v-3.27Zm20.44-9.9h-7.58v2.58h7.58Zm-30.8-123.09v-4.15h-12.2v4.15ZM965.82,948.05v-1.81h-5.33v1.81Zm41.68,54.43H969.34v13h38.16Zm-39.31-86.36H939.7v9.68h28.49ZM1035,624.43v5.12h15.08v-5.12Zm-44.21-70.6h26.38v-9H990.76ZM1024,697.65h28.8v-9.79H1024Zm-19.56-205.1v3.88h11.43v-3.88Zm97.2,191.91h5.13v-1.75h-5.13ZM947.62,1199.9H907.31v12.32h-2.15v10.12h29.76v-8.72h12.7Zm-4.71,28.78H919.15v8.08h23.76Zm-1.6,36v-4.46H928.2v4.46Zm77-984.48h40.24V266.55h-40.24Zm-19.68,30h7.16v6.62h26V308H1020v-5h-21.4Zm25.83-76.1h-9.39v3.19h9.39Zm31.79,103.41h5.33v-1.81h-5.33Zm35.67,1168.08v-1.53h-4.52v1.53Zm17.27-54.63h-34.51v11.73h34.51Zm55.34-733h35.28V706h-35.28Zm-54,769.7h-34v11.57h34ZM971.82,1125.42H944.7V1123h-11v3.74H938v1.73H919.42V1138h28v-1h24.37Zm43.09,279.13h33.74v-11.48h-33.74Zm-40.48-17v-4.18H962.15v4.18Zm136.88,47.33h-38.18v13h38.18Zm-50.78-86.59h-19.79v-10.79H1004V1350h27.55v5.14H998.2v8.75H967.89v11.85h-9.77v6.31h18.54v-5.75h27.7v-7.82h33.07v-10.33h23.1Zm-81.82,11.54h4.14v-1.41h-4.14ZM1076,1157.26v-11.63h-18.48v-.89H1038.9v6.33h2.89v6.19Zm21.13,123.31v-10.49H1083.5V1270h-23.36v7.94h6.16v2.67Zm-33-161.38V1121h5.31v-1.81Zm-71.61,173H967.16v8.64h25.38Zm-.53,17.59h-23v7.81h23ZM974.59,1331h6v-2h-6Zm169.86-259.18v-8.16h-24v8.16Zm38.32-322.94v3.83h-6.54v11.42h33.59V752.73H1203V748.9Zm31.77-103.12h-16v5.44h16Zm-44.06,481.48H1136V1139h34.45Zm-108.84,12.61h34.27v-11.66h-34.27ZM1190,588.65v2.67h7.86v-2.67Zm-44.48,430.26h-31.08v10.57h31.08Zm-11.19,171.72h11.91v-4.06H1134.3ZM941.48,539.3h14.8v-5h-14.8Zm73.06,29.54h32V558h-32Zm-25-146h20.14V416H989.56ZM1005.22,488h23.48v-8h-23.48Zm-31.43-49.56h17.47V432.5H973.79ZM929.67,569H916.51v10h8v9.12h32.26v-11H933.06V571h5.62v3.4h27.6V565H957.7v-3.56h-28Zm12.68-76.78h31.89V481.41H942.35Zm13.82,21.51H968v-4H956.17Zm196.09,588.89v-8.29h-17.55v-8.54h-28v-1.95h-14.1v-5h-29.93v10.18H1075v5.61h21.36v4.22h31.54v3.78Zm-113-349.19h-12.71V766.7h38.89v-6.45h7V749h-33.18Zm3,321h2V1067h-22.1v7.51h3.53v4.23h16.6Zm-13.15,18.2h-36v12.23h36Zm21.71-449.84h17.9v-6.09h-17.9Zm2.39-27.11h10.29v-3.51h-10.29Zm9.71,27.54v1.79h5.26v-1.79Zm-28.8-55.9h22.93v-7.8h-22.93Zm-22.53,495.19h-12v4.09h12Zm-42.93,169.73h4.93v-1.68h-4.93Zm3.08-36H1001v-10H971.75Zm-82-353.4h-4.09v12h4.09Zm118,352.05v2.85h8.37v-2.85Zm-17.1-129.48H972.3v6.22h18.3ZM1012,1274.7H971.55v13.75H1012Zm4.64-41.78h-24.2v8.24h24.2Zm-43.07,37.31h5.67v-1.93h-5.67ZM922,877.2H898.35v8H922Zm14,37.34h37.57v-13H935.13v8h-22v7.75h22.79Zm-35.16-24.09H885.63v5.18h15.15Zm13.81,193.69H927v-4.23H914.59Zm18.53,54.39H915.48v6h17.64Zm-17.46-130.81h23.17v-7.88H915.66Zm64.87,38.71H942.37v13h38.16ZM951.79,882H932.14v6.69h19.65ZM935.86,657.07h-6.92v-6.94H916.51v12.63h12.43v-.12h7.5V657.3h28.14v-9.77H935.86Zm18.67,21.57h31.72v-10.8H954.53ZM926.64,809.38h40v-13.6h-40Zm16.83,42.06v-1.73H938.4v1.73Zm28.92-240.1h28.7v-9.76h-28.7ZM963,820.87H936.23V830H963Zm-9.43-76.73v2.05h6v-2.05ZM980.38,844h22V836.5h-22ZM1005,888.91h11.78v-4H1005Zm-5.61-165.7h17.28v-5.87H999.38ZM980.83,531.08h16v-5.45h-16ZM1042,925.75h29.36v-10H1042Zm-44.63-266h9.17v-3.12h-9.17ZM934.08,780.32h12.45v-4.24H934.08Zm48.46-5.43v3.61h10.61v-3.61ZM973,866.42h-6.62v2.26H973Zm39.37,1.85h-39v13.26h39ZM966.7,848.86H944.85v7.43H966.7ZM930.64,624.33H916.51v6.6h14.13Zm46,63H937.19v10.43h-1.75v5h14.8v-2h26.4Zm21,309.14v-3.56H987.2v3.56Zm3.22-47.88H1009v-8.47H984.1v7h-10v9.11h26.79Zm-2.61,39.57h-12.2v4.15h12.2Zm-2.64,53h15.48v-3.28h5.27v-9.77H987.67v9.77h8ZM903.19,743.21l-1.3,1.29h1.3ZM916.51,623.9h29.63v-11H916.51Zm-8.16,118h8.53V739h-8.53Zm24.7,100H906.16V851h26.89Zm30.25,49.57H935.07v9.6H963.3Zm-8.19-29.78H946.6v2.9h8.51Zm100.38-17.88h18.37v-6.24h-18.37ZM1081.61,978h-24.43v8.31h24.43Zm246.48,699.8h-16v5.44h16ZM1162.65,58.42h.21v8.89h27.06v-9.2h0v-9h-27.26Zm-26.1,247.7h16.27v-5.54h-16.27Zm145.62,474.23h13.29v-4.52h-13.29ZM1334,899.65v2.41h7.1v-2.41Zm-62.69-78.83H1289v-6h-17.71Zm24,1.55h8v-2.7h-8ZM1191.59,22.16h-27.73V31.6h27.73Zm-107.73,99.22v2.24h6.59v-2.24ZM997.21,44.1h32.42v-11H997.21Zm282,1031.43h26.45v-9h-26.45ZM1078.7,139h-12.86v11h32.36V139.64h21.13V125.82H1078.7Zm58.8,142.76h14.89v-5.07H1137.5Zm-42.34-171.23h18.42v-6.26h-18.42Zm5-91h4.57V18h-4.57Zm39.11-30.85v2.7h7.93v-2.7ZM1304.82,1259h17.57v-6h-17.57ZM1282,982.12v1.54h4.53v-1.54Zm65.46,344.55h-36.39v12.39h36.39Zm-29.64-150.15h5.79v-3.15h-5.79Zm-11.19,181.54h31.1v-10.59h-31.1Zm20.59,360v-4.74h-13.91v4.74Zm-45.75-501.85h25.26v-8.6h-25.26Zm-14.94,28h17.75v-6h-17.75Zm26.2,70.44h-15v-12.27h-37.23v12.66h28.36v7.74h23.9Zm15.88,343.69h33.2v-11.29h-33.2Zm-40.35-594.75h32.94v-11.2h-32.94Zm32.92,529.4h15.1v-5.14h-15.1Zm-61.28-447v6.54h19.25V1146Zm26.26,222.64h4.4v-1.49h-4.4ZM1238.32,1170h40.22V1156.3h-40.22ZM974.11,82.38h37.29v6.44h29.94V78.64h-27.52V68.87H974.11Zm51.79-183.27v4.49h13.19v-4.49Zm-6.85,11.36H981.17v13h23.06v6h34.87V-82.37h-19.74v-6.7h20.24v-7h-20.55Zm62.84,74.72h39.42V-28.22h-39.42ZM1136.82-77v-8.7h-25.57V-77ZM933.74-71.37v7.09h20.84v-7.09Zm208.39-30.32h-34.2v11.63h34.2Zm-53.75,12.83v3.07h9v-3.07ZM931-27.62H961.1V-37.87H931Zm276.55,1927.43h8V1893H1195.6v6.57h-10.47v7.61h22.39Zm162-51.41v-8.55h-25.11v8.55Zm12.2-8.51h3.69v-6.83h-3.69Zm-292.25,88.71v-1h22.08v-13.17h-38.71v13.17h3.8v1Zm-6.45-143v-5.78h-16.36v-1h-18.26V1785H1066v.57Zm111.91,212.72v-2.41h-7.08v2.41Zm-92.33-2059h23.08v6.08h26.27v-8.93h-14.27v-9.08h-35.08Zm-69.21,2036.54v2.07h6.09v-2.07ZM949.73,63.47H937.45v4.18h12.28Zm16.86-28.09h22.94V27.57H966.59ZM938.73,98.64V93.26H924.48V90h-19v6.48h17.44v2.19Zm68.41-103h23.8v-8.1h-23.8Zm-25-43.21h6.41v-2.18h-6.41ZM949.29,1468.2H917.12v10.94h32.17ZM952.82,66.13H992V52.81H952.82ZM934.1,1481.68h-7v2.38h7Zm213.09,298.72h-31.32v10.66h31.32Zm-8.11,95.7v-2h-5.82v2Zm13.64-58.78h11v-3.76h-11Zm-29.41-103.11h33.46v-11.38h-33.46ZM1021,53.67h-18.63V63.75H1032V54.56h4.54V49.27H1021Zm192.23,1211.2h-11.58v3.56h-19.38v8.82h25.92v-8.44h5Zm-280.32,293.4h-6.54v2.22h6.54Zm-4.86-61.5h-6.13v2.08H928ZM1107.47,236.35v-3.92H1096v3.92Zm11.16,172.34h-10.14v10.36h30.45v-.94h16.64V405.54h-36.95Zm-30.75-201.77h34V195.34h-34Zm111.51-38.51h-27v9.19h27ZM1186,201.15V197h-12.18v4.14Zm-57.15,158.58v2.64h7.79v-2.64Zm2.5-170.93V183h-17.06v5.81Zm35.4,90h38.07V265.81h-38.07Zm-35.35-120.6h-34.33v11.69h34.33ZM931.73,268.48h38.5v-13.1h-38.5ZM945,225.16h9.76v-3.31H945ZM969.48,194h36.66V181.54H969.48ZM1038,155.2v2.17h6.37V155.2Zm-.13,70.29h36.65V213h-36.65Zm-52-76v1.52h4.45v-1.52Zm234.48,333.7v-4.82h-14.18v4.82ZM1242.42,466h-14.9v5.08h14.9Zm-19.64,410.79v3.45h10.13v-3.45Zm8.12,551.8h-5.32v1.82h5.32Zm3.35-78.35h-38v12.9h38Zm-4.45,32.27h-6.94v2.36h6.94Zm-27.6-43.49h25.27v-8.59H1202.2Zm9.36-442.19h-1.17v2h5.91V897.1h19V889h-23.75Zm19.62,344.86v-12.3H1195v11.7h-6.08v11.16h9.75v4.21h31.65v-10.77h-8.57v-4Zm39.38-802.51h-34.11v11.6h34.11Zm-36.7-9.83h9.81v-3.33h-9.81Zm-13.36,61.13h7.74v-2.64h-7.74ZM1198.59,628.7h33V617.47h-33Zm14.2-52v4h11.72v-4Zm-12-201.84h34.75V363h-34.75ZM964,154.79h-18.9v6.43H964Zm382.3,1408h7.17V1557h-7.17ZM1296,946.59h27.6v-.75l8.48-6.18v-5.35H1296Zm4.71,8.48v10.26h18.41v9.83h4.48V955.07Zm10.88,49.08v7.65h12v-7.65ZM1304,846.31h5.36v-1.82H1304Zm-27.11,14.92h30.33V850.91h-30.33Zm17,46.5H1278v11.45h33.65v-4.54h17.22v-11.9h-35Zm-35.33,74.55h15V977.2h-15Zm45.52,179.93h19.56v-13.38h-19.56Zm-1.34,386.93H1296v2.3h6.77Zm-12,82.87h13v-4.42h-13Zm19.89-353.67h-4.48V1272h-19v6.31h-14v12.77h37.54Zm23.56,260.51h19.35v-13.26h-19.35ZM1295,1083.56h16.17v-5.5H1295Zm43.87,363.76h-35.16v12h35.16Zm14.67,117.51H1331.4v11.31h22.09ZM913.79,218.52h23.07v-7.85H913.79Zm93.9,1222v-2.41h-7.06v2.41Zm-23.33,1.82H951.05v11.33h33.31Zm15.47-16.13v-1.73h-5.11v1.73ZM966,1462.08v-2.18H959.6v2.18ZM916.56,179.16v3.7h10.88v-3.7Zm-22.94,93h31.86V261.31H893.62Zm14.52-18.42v2.4h7.05v-2.4ZM1214,1436.8h-27.43v9.33H1214Zm-6.15,42.54h-11.23v3.82h11.23Zm2,21.84h-4.58v1.56h4.58Zm3.67,10h-4.53v1.54h4.53Zm21.43-366.2h40v-13.62h-40Zm-118.45,609.88h-20.51v7h20.51Zm-93.5-374.17H988.68v11.65h34.25Zm74.43,413.56v1.49h-4.67v9.76h28.7v-9.76h-11.57v-1.49Zm83.41,183.65h-39.59v13.47h39.59ZM1080.23,1767.6H1052v9.62h28.25Zm-20.82-5h-7.66v2.61h7.66Zm-3.57-103.4H1073v-5.84h-17.17Zm19.1,192.26h26.74v-9.1h-26.74Zm32.37,6H1097v3.52h10.34ZM898.57,1446.74H883.78v5h14.79Zm191.94,142.66h-29.57v10.06h29.57Zm-29.57,58.51h-13v4.43h13Zm-89-158.22H942.78v9.92h29.14Zm-49.44-129.62H891.41v-10.45h-7.89v13.11h2.16v9.86h36.8Zm65.4,150.47H959.59v9.62h28.29Zm55.3,50.31h-23.62v8h23.62Zm-38.45,9.3H977.06v9.41h27.67Zm43.4,256.6H1037.7v3.54h10.43Zm-12.37-84.24h-30.87V1753h30.87Zm57.72,27h-7v2.36h7Zm159-13.83h-40.84v13.89h40.84ZM1237,1578h14.83v-5H1237Zm-7.59,113.48v3.19h9.37v-3.19Zm-1.16-40.69h15.23v-5.18h-15.23Zm33.3-214.77h-24.27v8.26h24.27Zm-69.61,153.36h39.71v-13.51h-39.71Zm58.77-70.1h-26.93v9.16h26.93ZM1126.2,1827.59h3.89v-5h-14.65v.23H1096.8v10h29.4Zm41.38-156.34h-24v8.17h24Zm-17.7,63.4h-5.58v1.89h5.58Zm-14.05,8.68v2.94h8.63v-2.94Zm72.25-55.53h-9.68v3.29h9.68Zm10-18.8h-11.39v3.87h11.39Zm23.55-193.52H1233v2.94h8.63Zm-63,205.06h-13.19V1685h13.19ZM972,108.37v-1.93h-5.68v1.93Zm271.44,279h27.15v-9.24h-27.15Zm-143.27-33h40.3V340.65h-40.3Zm172.59,167.26h-39.2V527h-31.49V540.8h40.46V535h30.23Zm-35.66-119.19h29.83V392.29h-29.83Zm-31.15-73.54h34.64V317.11h-34.64Zm-68,60.87h35.69V377.62H1137.9Zm71.21-285.85h-26.88v9.14h26.88Zm11.43,438.31v1.49h4.37v-1.49Zm25.77,549.54h9.35v-3.17h-9.35Zm-34.43,217.81h24.51v-8.34h-24.51ZM1221.94,876h25.85v-8.79h-25.85ZM1236.3,604v3H1245v-3Zm-21.38,207.2h25v-8.49h-25Zm44.54-256.52h-28v3.1H1202.9v12.06h35.44v-5.64h21.12Zm-12.88,182.71h-24.41v8.3h24.41ZM946.19,24h11.39V20.12H946.19Zm.37,110.74h11.56v.66h6.78v-.66h19.92v-13H946.56Zm-7.14,11.53h22.22V138.7H939.42Zm22.76-58.68H948.45v4.67h13.73Zm-70.83,1338.3h-7.83v8.18h7.83ZM890.19,234.42h26.09V224.8H890.19Zm21-74.2H937.5v-8.94H911.22Zm16,76.69h25.09v-8.09h9.32v-3.43H951.55v3H927.22ZM1106.61,69.23h19.66V62.54h-19.66Zm-155-21.55h8.94v-3h-8.94Zm161.54-42.6h13.8V.38h-13.8Zm8.27,82h10.48V83.54H1121.4ZM1102.63-29.54h26.5v-9h-26.5Zm8.46,286h-19.16v6.65h19.54v-2.24h20.68v-7.17h-21.06Zm156.37,1250H1254.4v4.44h13.06ZM1029.42,106H1019v6.69h19.69v-.94h28.14V99h-37.4Zm174.24,1645.77h-33.77v11.49h33.77Zm-67.12,160.78h-23.68v8h23.68Zm-17.41,50H1081.6v12.77h37.53Zm-53.87-10.6h-5.9v2h5.9Zm116.59-103.53H1172v3.35h9.83Zm-120.68,107.07h-33.1v11.26h33.1Zm104.93-12.63h-26.53v9h26.53Zm-10.67-43.7h-37.67V1912h37.67ZM906.73,39.71h27.51V30.34H906.73ZM1197.2,1789.44h-36.52v12.42h36.52ZM898.06,59.49h28.06V49.94H898.06Zm178.44,1181.9h-12.85v4.38h12.85ZM900.1,1506.84H883.52v12.67H900.1Zm-16.25,55.31h-.33v9.24h.33Zm6.34-1450.91h1.42v-4.41h-1.42Zm0,13.67h32.15V119h30.29V107.73h-33.1v4.63H890.19Zm443.92,1672.77h23.14v-11.51h-33.86v7.6h-14.78v8.67h25.5ZM954.68,19.91h22.24V12.34H954.68ZM1173.86-110h13.8v-1.64h-13.8Zm170.19,904.08h-.15v9.23H1348V783.77h-3.93Zm-13.63-40.46H1348v-7.09h-17.56ZM1013.33-102.5h35.38v-9.1h-35.38Zm227,1899.85h-30.65v10.43h30.65ZM890.19,10h8.15V-.82h-8.15Zm-3.05,1570.64h-3.62v10.18h3.62Zm396,55.4h-24v8.15h24Zm-11.76-104.2h-28v6.22h-14.53V1545h20.3v-3.6h22.25Zm-18.45,294h-27.56v9.37h27.56Zm28-127.49h-18v6.12h18Zm30.84,117.76h-35.38v12h35.38Zm-8.92-3.64v-6.86h-20.17v6.86Zm1.53-61.6h-29.83v10.14h29.83Zm20.12-89.34h-36.63V1674h36.63Zm-18.91-930.33h16.55v-5.63h-16.55Zm9.74,46.73h11.5v-3.91h-11.5Zm18.07,42.25H1348v-6.64h-14.6ZM1311.45,865h9.23v9.66H1348V859.18h-5.09v4.13h-3.13v-8h-28.31Zm-52.62-114.05h-23.16v12.66h37.23v-4h24v-13h-38.09ZM1288,768.83h15.18v-5.17H1288Zm6.3,72.48h30v-10.2h-30Zm77.9,934.37H1366v2.11h6.2ZM1278,1424.33H1249.3v9.76H1278Zm-2.15,324.16h40.52v-10.7h10.73v-6.62h17.4V1721.1H1314.9v6.46H1297v7.14h-21.18Zm21-344.56h.87V1393h-32.17v10.62h-6.4v12.83h37.7ZM1240.42,305.81h36.2V293.5h-36.2Zm105.31,1309.36h-21.2v7.21h21.2ZM1371.05,1750h-20.39v6.94h20.39ZM966.91-15h16.56v-5.64H966.91Zm385.41,1616.51h-23v7.82h23ZM1179.7-64H1198v-6.23H1179.7ZM1070.34,39h34.32V27.28h-34.32ZM1159.76-50h-28.07v11.82h34.74v-9.73h24.24V-58.42h-30.91ZM1080.93,9.54h22.71V2.29h6.46V-5.42h-22.68V1.81h-6.49Zm-41.36-67.79h14V-63h-14Zm23.36,69.52h9.1V8.18h-9.1ZM1032.55,71h35.12V59h-35.12Zm209.18,136.29h22v-7.48h-22Zm-3.13-48.34h23v-7.83h-23ZM1222.16,118h26.15v-8.9h-26.15Zm30.7,100.6v-3.46h-10.15v3.46ZM1183.54,80.74h23.53v-8h-23.53Zm23.78,163.66h20.46v6.1H1257v-9.92h-11.74v-9.06h-37.89ZM1187.46-20.18H1202v-4.94h-14.53Zm14.71,61.58h10.15V38h-10.15ZM961,.84H949.66V4.7H961Zm106.76,592.44h15.28v-5.19h-15.28ZM983.39,226.42h22.91v-7.79H983.39Zm56.18,261.14h36V475.31h-36ZM1009.86,441h37.89V428.09h-37.89ZM978.51,297.47h21.32v-7.25H978.51Zm-39.19-14h16.52v-5.62H939.32Zm5,112.26h15.48v1.16H965v-1.16h17.21V382.85h-37.9ZM1115.5,780.11h39.42v-12.6h1.24V766h-4.51v.71H1115.5Zm23.85-78.33h31.37V691.11h-31.37Zm-55.21-101.61h-3v12.77h37.53V600.17h-19.87v-1.54h-14.7ZM1192,834h-23.17v7.88H1192Zm-260-465.09h9.38v-3.2h-9.38Zm162.19,65.25h12.9V429.8h-12.9Zm8.94,21.12h10.93v-3.71h-10.93Zm-3.55,24.85h35V468.23h-35ZM900.39,971h14.92v2.13h20.77v-7.07H935v-7.83H897.46v11.08H886.39l12.22,12.4h1.78Zm175.81,408.33h-10.08v3.43h10.08Zm.79-49.49H1064.1v4.39H1077ZM979.23,1339H951.62v9.39h27.61Zm92-38.41h-16.45v-1.85h-32v10.88h20v.65h28.46Zm95.43-84.4h-37v12.57h37Zm-42.13-106.39h-15.13v5.15h15.13ZM1121.58,1372h-17.75v6h17.75ZM892.33,512l19.26,19.26h.54v-9H930.3V509.37h-38Zm-2.14-32.15h1.58V467.64h-1.58Zm46.27,22.67h8.72v4.62H965v-6.73h-2.79v-6.64H936.46Zm-20,54.89h32V546.47h3.64v-2.68h-7.88v.91H916.51Zm60.55,623.69H943.31v11.48h33.75Zm-11.94,25.19v-3.83H953.84v3.83ZM1161.19,1402H1145v5.5h16.18Zm23.42-516.48h12.71v-4.32h-12.71ZM884.78,1159.19h-1.26v10.17h1.26Zm229.77,32.18H1077v12.77h37.53Zm-.93,38.7h-2.68v-1.91h-28.36v9.65h6.4v.64h24.64ZM1094.21,1336h6v-2h-6Zm13.55-264.65h-16.13v5.49h16.13Zm-46,33.79h-39.83v13.54h25.26v3h14.85v-5.05h-.28Zm42.61,316.48h-14.82v5.05h14.82Zm-14.33-360.81h10.21v-5.16H1085.1v3.1h-27.48v11h32.43Zm98.52-85.15h31.88V964.78h-31.88Zm-89.2,237.18h-23.89v8.12h23.89ZM1092,1405.21h-10.23v3.47H1092Zm-17.69-204h-17.51v6h17.51Zm6.19-20.86h-17.32v5.89h17.32Zm14.71-14.57H1060.5v11.79h34.66Zm36.32-180.38h-17v-3.28h-17.26v3.28h-3.9v13h38.12Zm-52.89,267.13h-31.26v10.63h31.26Zm5.63,95.58h-6.36v2.17h6.36ZM1180,1046.9h-22.81v7.76H1180Zm-1-6.09h40v-13.62h-40Zm-7.61,88.67h22.37v-7.61h-22.37Zm6.49,39.83h-8.54v2.91h8.54Zm47.06-21.22h-19.1v6.5h19.1ZM1176.26,989.6h32.55V978.53h-32.55Zm36.6,214.26h-39.94v13.58h39.94Zm-36.44-201.81h-40.14v13.65h40.14Zm10.09-202.4h-26v8.86h26ZM1181.77,720h-29v9.87h29ZM1150,735.39h13.83V730.7H1150Zm-3.09,178V923H1175v-9.56Zm4-88.31h30.21V814.8H1150.9Zm29,115.28H1194v-4.79h-14.1Zm6.2-36.4v2.3h6.78V904Zm49.25,543h-14.89V1452h14.89ZM1026,1550.62h-11.49v3.91H1026Zm-1.12-44.38v-3.48h-10.25v3.48Zm2,1.13h-8.21v2.79H1027Zm39.63,31.14h-33.06v11.24h33.06ZM989.3,1416.78H979.05v3.48H989.3Zm65.93,67.13h-34.9v11.88h34.9Zm-18,50h26.1V1525h-26.1ZM941,1321.29H919.85v7.21H941Zm-18.27-57.21H898.18v8.36h24.59Zm-28,74.74H883.52V1348h11.29ZM915.94,1311H898v-5.2h4.22v-11.64H883.52v30.71h32.42Zm32.88,22.07H923.67v8.56h25.15Zm27.92,96.63H944.25v11h32.49Zm-56.07-6.83h28.81V1421h6.28v-9.58H927.58v1.66h-6.91Zm.66-18.39h19.45v-6.62H921.33Zm148.13,152.87h-9.9v3.37h9.9Zm118.37-141.93h-10.7V1415h-37.91v12.9h37.91v-8h10.7Zm-7,219.57h-25.6v8.72h25.6Zm-23.77-114.2h-27.43v9.34h27.43Zm66.25-128h2v-7.25H1204v4.3h-10.77v10.23h30.1Zm-72.64,183.44h-13.47v4.58h13.47Zm40.08,40.88h15.51v-5.28h-15.51Zm31,4.74h-36.37v12.37h36.37ZM1123.7,1689h-22.78v7.74h22.78Zm-5.42-149H1078v13.7h40.26Zm-26.06-3.49h21.72v-7.39h-21.72Zm10.51-15.36H1112v-7.5h-22v.12h-19.48v11h32.28Zm-.22,198.28v4.13h12.12v-4.13Zm31.27-157.71h-23.13v7.87h23.13Zm-63.57-92.11h2.46v-12.94h-38v9.48h-.44v12.24h36Zm70.7,133.83h-12.08v4.1h12.08ZM1062.37,402.31h13.34v-4.54h-13.34Zm97.32,166.26h37.6v-12.8h-37.6Zm5.29-116.8h16.85V446H1165Zm14.76-117.38H1167v4.32h12.71Zm-37.49,158.25v4.12h12.1v-4.12Zm34.45-37.33h-10.86V459h10.86Zm-3.06,175.92v-2h-5.8v2ZM1140.3,670.4h35.44v-12H1140.3ZM1183.76,1343h-23.14v7.88h23.14Zm3.5-57.09H1171.8v5.26h15.46Zm49.43-334.61h-21.41v7.29h21.41Zm-152.16-574.5h39.84V363.29h-39.84Zm151.38,313.39h-33v11.21h33Zm-46.16,178.18h22.46v-7.64h-22.46Zm21.94-178.56h22v-7.48h-22ZM1195.31,503.6h-26.26v8.93h26.26ZM1028.8,247h25v-8.51h-25Zm-8.64,11.06h26v-8.86h-26Zm-130,93h12.14V339H890.19ZM1005.09,204H977v11.32h33.27v-11H1028v-7.81h-22.95Zm39.06,159.35h30.72V352.86h-30.72Zm-38.22-187h20.23v-6.88h-20.23ZM912.46,286.61H895.34v5.81h17.12ZM904.6,392.94h31.94V382.08H904.6Zm150.26,68.63h26.34v-9h-26.34Zm59.2-147.37h-17.33v5.89h17.33Zm53.88,1045.21h-21.81v7.42h21.81ZM1124.39,322.15h-23.31v7.93h23.31Zm-42.5-24.3h36.83V285.32h-36.83Zm-2.72-140.15H1087V155h-7.82Zm3.4,227.26h9.51v-3.24h-9.51Zm-6.07,20.41h17.24V399.5H1076.5Z" transform="translate(288.99 172.79)"/><polygon class="cls-13" points="1973.76 127.6 1973.76 497.36 2038.03 561.63 2038.03 1019.35 2057.16 1038.48 2057.16 1265.56 1966.05 1356.67 1966.05 1767.41 1921.14 1767.41 1921.14 1800.97 2046.2 1800.97 2046.2 1815.22 2005.79 1815.22 2005.79 1832.63 2071.37 1832.63 2071.37 1956.88 2085.86 1971.37 2085.86 2040 2074.04 2051.82 2074.04 2133.55 2042.39 2133.55 2031.38 2172.35 2007.61 2172.35 1996.49 2202.9 1947.94 2202.9 1921.14 2272.02 1862.43 2466.35 2495.35 2466.35 2449.59 2280.97 2400.98 2280.97 2370.58 2207.79 2347.99 2207.79 2347.99 2172.98 2341.41 2172.98 2341.41 1974.89 2358.78 1966.6 2358.78 1889.53 2341.41 1882.1 2341.41 1800.97 2499.92 1800.97 2499.92 1767.41 2473.91 1767.41 2473.91 1107.37 2407.19 1054.14 2407.19 922.31 2389.11 907.88 2389.11 892.07 2454.85 821.14 2454.85 384.67 2438.71 371.8 2438.71 343.75 2452.43 332.8 2452.43 127.6 1973.76 127.6"/><path class="cls-14" d="M1959,1311.07v-52.2h16.26v52.2Zm26.75-385h-50.9v.31h-28.6v4.07h-34.39V1186h79.54v-96.4h34.35ZM1871,816.77v87.06h44.73V816.77h16.06v-109h13.94V786.2h32.07V739.79h15.69V686.72h-15.69v-3.53h-23.4V544.3h-47.84V498.58h19.64V422.84h-19.64V378.07H1881.8V336h-27.13v42.12h-25.18V546.4h-3.78V753.14h29v63.63ZM2046,204v23.87h-.12V384.62h48.81V227.85h-28.44V204Zm-57.42,244.47v22.63h-1.12V646.14H1996V687.8h29.57v105h74.92V735.38l-.38-.29V719.28l.38-.41V552.11h-54.41V526.92H2042V471.08h-3V448.45Zm-117.34-198v23h7.15v-23Zm299.88,925h-54v73h-46.58v-149.6h-.18v-2h27.93v65.59h30.45v-97.83h-28.16v-237h-83.82v188.88h-6v59.4h-11.57v22.93h-16.87V1382.1h12.56v47.21h37.47V1382.1h12.26v164.29h62.56v81.78h79.38v-33.55h-1.63v-72.5h-1.39V1476h-46.15V1348.94h31.46v96h16.08V1237.79h-13.8Zm-490.68,886.05h-33.65l-13.42,34.63v116.58h47.07ZM1749,539.33h32.31V425.71H1755V385.54h-1.19V222.73h-14V174h9.91v9.22h11.37V352.62h84.8V80.19h-76.78v-29h-38.25V153.78h-46.09V324.56L1749,388.83Zm351.74,1541.86-6-14.48h-11.71v56.91h17.72ZM1872,54.14h18.47V211.9h66.43v73.15h59V167.72H2086V76.19h23.33V-45.19H1872ZM2112,112.83V168.3h17.26V112.83ZM1825.49,2226.16V1990.43h-73.38v.16h-7.18l-2.54,9h-13.52v85.35h23.24v141.25Zm216.58-56.54H1981.4v123.94h60.67Zm-147,123.94v-28.47h-36.13V2161.56h-21.85V2010.77h-7.24V1754.46h26.34V1676h17.9v-51.78h66.71v27h2v-97H1902V1389.54h51.27v84.75h56.56v176.92h8.8v138h51.21v4.56l-17.38,8.29v198.08H2059V2035h18.72v28.82H2025v4.11h-7.09v-4.11h-25.62V1936.62h-8.15V2149h-8.43v144.52Zm14.57-407.77h20.11v-47.26h-20.11Zm-14.57,227.81v-60.07h-3.47v60.07Zm-297.21,167.85v-68.67l-20.75,68.67Zm562.76-173.28h-47.76v100.48h58.5v-57Zm-454.8,166h-13.09v19.35h13.09Zm256.52-1655.4h20.78V552.07h-20.78Zm-233.21,867.92v16.33h-24.24v125.11h52.34v14.25h-40.42v17.42h65.58v97.35h1.6v-8.38h62.94v-181H1863V1331.86H1845.2V1188.45h-24.28V1045.59h-39.76v-33.22h-12.93V953.25h-.06v139.51L1703,1157.91V1263.4h42v25.91h22.52v63.37h-9.36v135.56h2.88v14.82h-23.34v-16.33ZM1966.83,383.16h-2.35v29.12h9.06v-8.46H1996V310.2h-29.15Zm-83.29,810.3h-13.7v44h13.7Zm254.81-665.12h27.51V306h-27.51ZM1843.53-45.19h-64V5.86h64Z" transform="translate(288.99 172.79)"/><path class="cls-15" d="M1790.16,321.63h-8.32v-1.76h8.32Zm31.94,216.15H1766v11.83h56.14Zm26.62,38.2h-32v6.73h32Zm31.83,207h26.82V777.3h-26.82Zm5.13-40.33v1.52h7.17v-1.52Zm-63.22,370.93H1788v7.25h34.42ZM1764.93,364h20.81v-4.39h-20.81Zm65.8,732.3h-44.2v9.31h44.2Zm-81.5-273.89H1749v3.51h.19Zm54.08,66.86h-35.14v7.44h35.14Zm-14.89-57.11h26.49v5.56h34.89v-5.56h.47v-13h-61.85ZM1749,789.7H1752V787H1749Zm89.67-113.76h-25.1v5.29h25.1Zm47.53,276.46v3.67h17.43V952.4Zm-29.62,18.24h50.94V959.9h-50.94Zm-54.36-203.7v1.72h8.18v-1.72Zm97,264.34v-1.68h-8v1.68Zm23.4-393.63H1950V631.9h-27.31Zm14.71-222h14.53v-3.07h-14.53Zm.76,19.46h66.28v-14h-66.28Zm3.6,168.67V602h-8.54v1.8Zm-129.19,566.19H1798V1173h14.56Zm145.6-765.44h52.5V393.43h-52.5Zm53.15-71.15h50.31v-10.6h-50.31Zm-36.44,46.51h60.87V367h-60.87Zm-39.22,170h-5.18v10h47.68v-10h-3.9V548h-38.6Zm-157.33,773h31.53v-6.64h-31.53Zm-11.38-139.65h34.59v-7.29h-34.59ZM1912.27,739.5h43.16v-9.09h-43.16Zm-46.62,453.28V1191h-8.59v1.81Zm34.43-444.16H1897v12.67h60.15V748.62h-10.53v-3.93h-46.56Zm12.19,351.25v-9.1h-19.11v-11.66h-59.74v12.59h35.67v8.17Zm-45.09,19.91h-29.62V1126h29.62ZM2048.83,315h14.82v-3.12h-14.82ZM1867,715.63h12.09v-2.55H1867Zm9-6.39h21.44v-4.52H1876Zm-51.59-176.4h44v-9.28h-44Zm93,506.68h-36.7v7.73h36.7Zm2.74-111.31h-54.14v11.41h54.14Zm12-34.76h-47.66v10h47.66Zm-97.29-200.22V688.8h-21v4.43Zm89.28,226.21h-26.5V925h26.5ZM1818.78,512.06h24.3v-5.12h-24.3Zm-56.41-232.88H1803v-8.57h-40.66Zm33.61-73.7h10.91v-2.3H1796Zm1.85,217.36h39.39v-8.3h-39.39ZM1749,573.5h32.56v-7.4H1749Zm58.24-338.62h60.86V222.05h-60.86Zm-1,147.5h-35.15v7.4h20.57v6.55h42.21v-8.9H1806.3Zm-1.78-281h32.21V94.54h-32.21Zm21.73,374.09h-17.36v3.66h17.36Zm49.81,516.82h-51.22V1003h51.22Zm-37-26.93h-42.29v8.91h42.29Zm26.08-109.22h62.13V843h-62.13Zm11.22,200.41h-44.81V1066h44.81Zm-81.53-186.17h52.37v-11h-52.37ZM1801.9,915h-13.4v2.82h13.4Zm-31.13-276.86h55.5v-11.7h-55.5Zm2.32,244.43h19.68v-4.14h-19.68Zm74.67-73.6h57.57V796.83h-57.57Zm-38.51,280.52h-26.4V1095h26.4Zm22-75.37h-31.06v6.54h31.06Zm10.28-9.64H1803v8.11h38.48Zm-84.19-208.31h35.38v-7.45h-35.38Zm53,227.87h-42.17v13.47h42.17ZM1749,737h18V728.3h-18Zm0-34.24h2.26v-6.83H1749ZM2050.9,416.48h-21.3V421h21.3Zm-14.48-241.07h59V163h-59Zm-112.15,41.72V221h18.37v-3.88Zm125.06-103.91v2.2h10.42v-2.2Zm105.15,245h11.38v-2.43h-11.38ZM1856.21,1479H1841.7v3.06h14.51Zm14.28,26.62h-24.2v5.1h24.2Zm12.36-52.78h6.74V1447h-27.81v1.55H1836v9.88h46.87Zm260.54-871.54h22.47v-8.1h-22.47Zm-243-294.77h43.31v-9.13h-43.31Zm76.33,700.54v-3.74h11v-7.7h-36.55v7.7h7.54v3.74Zm-79.82,241.7v-2.21h-10.52v2.21Zm115.72,87.43h32.84v1.89h16.06v-1.89h7.31v-11.85h-56.21Zm-110.89-119.74h-56.58v11.93h56.58Zm129.45,90.16h28.68v-6.05h-28.68Zm86.62-304.72h-21v4.43h21Zm-9-59.72h-29.16v6.15h29.16Zm-77,374.28h41.1v-8.66h-41.1Zm-26.25-5.8h17.64V1287h-17.64Zm-250-1280.06v4.26h20.18V10.61Zm148.47,136.58H1962V134.93h-58.14ZM1743.17-1.9V.3h10.44V-1.9Zm165.65,63.43V68h30.64V61.53Zm166.42,1502.1h-54.93v11.58h54.93Zm-82.65-56.09v-2.71h-12.85v2.71Zm138.67,70.61h53.66v-12.41h-53.66ZM2105.59,253.26h60V240.61h-60ZM1726,33.29h62.58V20.1H1726Zm393.87,1328.79v-5H2096v5Zm20.75-90.59h-21.18V1276h21.18Zm-127.93,187h-12.43v-1.31H1982v1.31h-3.64v7.25h34.39Zm149.17-269.84H2116v9.67h45.89Zm-88.51,143.9H2125v-10.87h-51.59ZM2126.8,37.08v2.71h12.86V37.08Zm18.52,1169.07v-1.74h-8.24v1.74ZM2065.15,655h43.08v-9.08h-43.08Zm-52.64,86.11h10.17V739h-10.17Zm-32.88,76.52H2016V810h-36.34Zm6.8-402h36V408h-36Zm-33,426.84h49.44V832.05h-49.44Zm79.1-127.82h-8v1.69h8Zm-73.1-147.47v6.09h28.89v-6.09Zm30.72,227h35.14v-7.41h-35.14Zm-41.07-202v10.37H1982V605h14.17v-2.5h2.11v-8.85h.13v-8.08h-2.36v-2.48H1955.7v8.5h4.35v.54ZM2011,732.76h-32.25v6.79H2011ZM2028.76,901h26v-5.48h-26Zm-266.58,544.92h45.68v-9.63h-45.68Zm302.64-1004H2037v5.86h27.8Zm-68.33,410h17.78v-3.75h-17.78Zm13.11,172.84h41.31V1016H2009.6Zm11.72-145.51h-58.6v12.35h58.6Zm10.88,67.53h18.55V934.23h-59.38v6.25h-1.3v8.88h42.13Zm-4.26-304.35h12.54v-2.64h-12.54ZM2120,533.83h-35.4v7.46H2120Zm-13.82-43.06H2082.5v5h23.68Zm-128.57,570.06h39.21v-8.27h-39.21Zm70.16-533.69v2.09h9.91v-2.09Zm-251.87,93V609.46H1749v10.69Zm1,874.37h12.18V1492h-12.18Zm250.64-805h53.4V678.25h-53.4Zm-265.39,884.62h-10.2v2.15h10.2Zm286.73-996.93h62.2v-13.1h-62.2Zm-47.4,490h-44.35v9.34h44.35Zm-55.44-22h13.16v-2.78H1966Zm40.42,84.42v1.74h8.25v-1.74Zm99.61-459.9v-2.55h-12.12v2.55ZM2055.46,1039h-28.33v-11.53h-61.66v13h40.47v9h49.52Zm-74.56,110.21H2016v-7.4h-35.1Zm64.89-41.24h-20.24v4.26h20.24Zm35.86-299.53h-23.74v5h23.74Zm4.67-716.07h11.27V90h-11.27ZM1941.5,45.89h46.29V36.14H1941.5Zm-188.59,582v-4.67H1749v4.67ZM1968.56-29.91h58.11V-42.16h-58.11ZM1955.18,3.85h41.23V-4.84h-41.23Zm47.45-7.25h56.17V-15.24h-56.17Zm66.93,63.9h16.78V57h-16.78Zm-41.65,29.33H2071V80.74h-43.12Zm-139.64,74.75h60.64V151.79h-9.66v-1.35h-31.69v1.35h-19.29ZM1698.2,338h6v-3.64h-9.63Zm-2.86-205.14h6.73v-1.42h-6.73Zm4,7.46H1707v-1.62h-7.72ZM1878,481.07h24v-5h-24ZM1684.77,220.9h5.57V208.69h-5.57ZM1829.36-21.6H1791V-9.73h56.36v-7.5H1865V-19h18.72V-30.44h-54.39ZM1706.21,116.3h56.51V104.39h-56.51Zm70-149.29h33v-6.94h-33ZM2153.61,278v5.61h12.25V278Zm-44.21,752.72h6.75v-12.54h-59.5v12.54h19.94v6.3h32.81Zm-30-902.07h29.69v-6.26h-29.69Zm80.68,994v-6.78h-32.14v6.78Zm3.3-172.73h-61.85v13h61.85Zm-72.43,283.42H2079.8v-4.17h-63v13.28h63v-5.77h11.14Zm-12,74.87h8.31v-1.75H2079Zm-30.17,28.14h-50.37v10.62h50.37Zm35.33,21.48h-65.8v13.87h65.8Zm40.14-176.17h-13.21v2.79h13.21Zm17.62-982.65v3.94h12.63l-4.82-3.85v-.09Zm11.57,33.87h12.38v-13h-12.38Zm-79-18.08H2110v-7.49h-35.53Zm67.21,39.47v8.57h24.18v-8.57ZM2149.07,906h-34.79v13.86h52.17Zm10.14-284.28v5.94h6.65V621.7Zm-501.69,978.35h63.94v-13.48h-43.18v-3.42h-1.22v11.47h-44.91v.32h25.37Zm243-37.9h-21.7v4.58h21.7Zm284.43-348.93h-21.27v9.61h21.27Zm-18.47-40.36h-16.13v9.78h34.6v-14.83h-18.47Zm17.09-158h1.38v-7.6h-1.38Zm-52.23,342.18h42.44v-8.95h-42.44Zm13.11-98h-57.06v12h57.06v-2.47h22v-5.16h-22Zm-19.68,265.58h-34.45V1532h34.45Zm18.08-14.62H2097v9.66h45.83Zm-.56,22.58h8.63v-1.82h-8.63Zm27.41-237.8v9.3h15.25v-9.3Zm15.25-356.06h-11.78V942h11.78Zm-379.5,577.4h-21.71v4.58h21.71Zm373.74-526.37v12.4h5.76v-12.4ZM1684.77,40.27H1717V29.37h-32.25Zm450.32-3.78h28.35v-11h-28.35Zm3.84-72.64h24.51v-5.32h-24.51Zm16,19.78v1.65h7.84v-1.65ZM2124.4,1422h-42.14v8.88h42.14Zm-217.53,73.36H1913V1493h-6.11v-7.5h-54.53V1497h54.53Zm33.27-200.39h-54.71v11.53h54.71Zm75.31,148.44h-17.21V1447h17.21Zm-66.29-25.45h-22.9v4.83h22.9Zm-110.84,112.46h-34v7.16h34ZM2109,1404.69h39.18v-8.26H2109Zm-211.9,198.42H1846.6v10.64h50.51Zm-47.36,14.31h-35.81V1625h35.81Zm100.51-31.1h-6.7v1.41h6.7Zm183.38-109.88v-5.78h14v-11H2095.5v11h1.14v5.78Zm30.41-.08h-26.8V1482h26.8Zm-36.38-99.06h-61v12.86h61ZM2018,1588.56H1995v4.86H2018Zm-6.73-42.78h-48.72v10.27h48.72Zm46.8-127.7H1999v12.44h59.05Zm-91.63-24.84h-19.1v4h19.1ZM1952.11,110.63v-1.94H1943v1.94Zm113.07,453.21h24.41V558.7h-24.41ZM2028.8,104.68h15.82v-3.33H2028.8Zm59.84,867.23H2063.4v5.32h25.24Zm30.59-535.58h12.29v-2.59h-12.29ZM2075.16,302.6h58.06V290.36h-58.06Zm43,578.75v-1h-4.58v8.4h13.86Zm-26.51-417.92h54.45V452h-54.45Zm14.94-153.82h21.42V305.1h-21.42ZM2036.5,516.08h30.59v-6.45H2036.5Zm-101.17-174.3h27.73v-5.84h-27.73Zm10.41-67.25h26.65v-5.62h-26.65Zm-54.15,86.59h65.51V347.31h-65.51ZM1995,15h32.86V8.07H1995Zm-43.22,166.06h30.92v-6.51h-30.92Zm46.51,66.73h66.19V233.84h-66.19ZM1980.55,67h20.89v-4.4h-20.89ZM1740.61,1122.54h-2.22l-12.4,12.4h14.62ZM1797.17,1243h-52.69v11.1h52.69Zm-48.41,70h28.33v-6h-28.33Zm6-33.19v1.78h8.46v-1.78Zm-22.11,66.84H1784v-9.34h18v-4.55h-21.56v3.07h-47.74Zm-31.81-141.8h-23.8v12.61h23.8Zm10.67,170.62h52.11v-6.66h33.82V1357.7h-53v6.84h-33Zm86.33-220.24H1737v12.83h60.85Zm159.27-756.2H1906v10.79h51.18Zm55.74,593.3h-51.16v10.78h51.16Zm46.48,171.22h20.94v-11.24H2027v9.82h-13.08v9.57h45.44Zm-48.68-8.38H1964v9.82h46.64Zm-165.05,201.2h-43.88v9.25h43.88Zm197.5-250.84h18.71v-3.94h-18.71ZM2067,776.29h-10.78v2.27H2067Zm-186,463.34h-39v8.23h39Zm73.11-139.46H1890.3v13.46h63.83Zm-194.57,453.24h-30.7v6.47h30.7Zm-28.41-156.25h15.23v-6.6h-31.31v5H1706v5.3h25.16Zm-6.61,17.48v-2.4h-11.38v2.4Zm266.51-67.56h-42.61v9h42.61ZM1697,303.46H1746V293.14H1697Zm23.3,1263h-11.9V1569h11.9Zm-20-35.41h-23.28v8.38h23.28Zm4.13-106.57h-9.25v2h9.25Zm39-135.1h-24.86v-1.37h-19.48v1.37h-9.08v11.26h53.42Zm5.56,171.44h-33.2v7H1749Zm157.36-211.35h-42.72v9h9v1.42h11.14v-1.42h22.55Zm41.55,9.27h-47.7v10.06H1948Zm19.75-78.06H1908v12.58h59.7Zm-90.28,163.4h18.73v-3.95h-18.73Zm-38.07,34h-36v7.58h36Zm-23.71,118.4h-33.82v7.13h33.82Zm92-123.94h-54.77v11.54h54.77Zm-126.85-1321h50.07V41h-50.07Zm102,100.32h-41.78v8.81h41.78Zm-180.61,60.53h18.43v-3.88h-18.43Zm178.14,91.12h-65.1v13.72h65.1ZM1833.57,64.15h35.53V56.66h-35.53Zm24,459.07h30.07v-6.33h-30.07Zm28.76,122.67H1871v3.25h13.3v8.2h24.93v4.21h32.29v-6.81h-16v-6.1h-39.12Zm-83.14-631.5h34V7.23h-34Zm43.33,475.3h36.24v-7.63h-36.24Zm-27.26-115.2h51.36V363.67H1819.3Zm-62.78-144h-47.09v9.93h47.09Zm39.2-237.15h9.42v-2h-9.42ZM1718,192.85h12.48v-2.63H1718Zm7.21-61.73h51.12V120.34h-51.12Zm165.6,497.22h35.29V620.9h-35.29ZM1739.7,263.63h-28.09v5.92h28.09Zm-5.22-.05h65V249.89h-65Z" transform="translate(288.99 172.79)"/><polygon class="cls-16" points="2292.53 2082.25 2292.53 2158.06 2305.72 2165.37 2305.72 2184.1 2292.53 2191.41 2292.53 2201.93 2292.53 2213.09 2292.53 2224.45 2251.37 2224.45 2251.37 2217.86 2264.36 2212.83 2264.36 2150.36 2279.23 2142.12 2279.23 2123.39 2264.36 2115.16 2264.36 2018.38 2247.77 2009.18 2247.77 1974.31 2264.36 1965.11 2264.36 1923.78 2251.37 1918.77 2251.37 1791.79 2255.83 1791.79 2255.83 1895.4 2265.18 1899 2278.45 1893.29 2278.45 1813.05 2264.36 1806.54 2264.36 1791.79 2292.53 1791.79 2292.53 1812.54 2299.42 1816.35 2299.42 1892.44 2292.53 1896.25 2292.53 1968.82 2271.56 1978.06 2271.56 2073.01 2292.53 2082.25"/><polygon class="cls-17" points="2156.56 1933.99 2156.56 1858.18 2169.75 1850.87 2169.75 1832.14 2156.56 1824.83 2156.56 1814.3 2156.56 1803.14 2156.56 1791.79 2115.4 1791.79 2115.4 1798.38 2128.39 1803.41 2128.39 1865.87 2143.26 1874.11 2143.26 1892.84 2128.39 1901.08 2128.39 1997.86 2111.8 2007.06 2111.8 2041.93 2128.39 2051.13 2128.39 2092.46 2115.4 2097.46 2115.4 2224.45 2119.86 2224.45 2119.86 2120.83 2129.2 2117.23 2142.47 2122.94 2142.47 2203.19 2128.39 2209.7 2128.39 2224.45 2156.56 2224.45 2156.56 2203.7 2163.45 2199.89 2163.45 2123.8 2156.56 2119.99 2156.56 2047.42 2135.59 2038.18 2135.59 1943.23 2156.56 1933.99"/><polygon class="cls-18" points="2383.85 2241.98 1931.91 2241.98 1946.88 2208.43 2370.58 2208.43 2383.85 2241.98"/><polygon class="cls-18" points="1607.16 2202.11 1232.65 2202.11 1245.05 2168.56 1596.16 2168.56 1607.16 2202.11"/><rect class="cls-3" x="1731.08" y="297.37" width="3.45" height="57.61" transform="translate(1695.63 2231.77) rotate(-90)"/><rect class="cls-3" x="1731.08" y="278.88" width="3.45" height="57.61" transform="translate(1714.11 2213.29) rotate(-90)"/><rect class="cls-3" x="1731.08" y="260.4" width="3.45" height="57.61" transform="translate(1732.6 2194.81) rotate(-90)"/><rect class="cls-3" x="1731.08" y="241.91" width="3.45" height="57.61" transform="translate(1751.08 2176.32) rotate(-90)"/><rect class="cls-3" x="1731.08" y="223.43" width="3.45" height="57.61" transform="translate(1769.57 2157.83) rotate(-90)"/><rect class="cls-3" x="1731.08" y="204.94" width="3.45" height="57.61" transform="translate(1788.05 2139.35) rotate(-90)"/><rect class="cls-3" x="1731.08" y="186.46" width="3.45" height="57.61" transform="translate(1806.54 2120.86) rotate(-90)"/><rect class="cls-3" x="1731.08" y="167.98" width="3.45" height="57.61" transform="translate(1825.02 2102.38) rotate(-90)"/><rect class="cls-3" x="1731.08" y="149.49" width="3.45" height="57.61" transform="translate(1843.51 2083.89) rotate(-90)"/><rect class="cls-3" x="1731.08" y="131" width="3.45" height="57.61" transform="translate(1862 2065.41) rotate(-90)"/><rect class="cls-3" x="1731.08" y="112.52" width="3.45" height="57.61" transform="translate(1880.48 2046.92) rotate(-90)"/><rect class="cls-3" x="1731.08" y="94.03" width="3.45" height="57.61" transform="translate(1898.97 2028.44) rotate(-90)"/><rect class="cls-3" x="1731.08" y="75.55" width="3.45" height="57.61" transform="translate(1917.45 2009.95) rotate(-90)"/><rect class="cls-3" x="1731.08" y="57.06" width="3.45" height="57.61" transform="translate(1935.94 1991.47) rotate(-90)"/><rect class="cls-3" x="1731.08" y="38.58" width="3.45" height="57.61" transform="translate(1954.42 1972.98) rotate(-90)"/><rect class="cls-3" x="1731.08" y="20.09" width="3.45" height="57.61" transform="translate(1972.91 1954.5) rotate(-90)"/><rect class="cls-3" x="1731.08" y="1.61" width="3.45" height="57.61" transform="translate(1991.39 1936.01) rotate(-90)"/><rect class="cls-3" x="1731.08" y="-16.88" width="3.45" height="57.61" transform="translate(2009.87 1917.53) rotate(-90)"/><rect class="cls-3" x="1731.08" y="-35.37" width="3.45" height="57.61" transform="translate(2028.36 1899.04) rotate(-90)"/><rect class="cls-3" x="1731.08" y="-53.85" width="3.45" height="57.61" transform="translate(2046.85 1880.55) rotate(-90)"/><rect class="cls-3" x="1731.08" y="-72.33" width="3.45" height="57.61" transform="translate(2065.33 1862.07) rotate(-90)"/><rect class="cls-3" x="1731.08" y="-90.82" width="3.45" height="57.61" transform="translate(2083.82 1843.58) rotate(-90)"/><rect class="cls-3" x="1731.08" y="-109.3" width="3.45" height="57.61" transform="translate(2102.3 1825.1) rotate(-90)"/><rect class="cls-3" x="2134.86" y="1537.93" width="3.45" height="57.61" transform="translate(858.84 3876.11) rotate(-90)"/><rect class="cls-3" x="2134.86" y="1519.44" width="3.45" height="57.61" transform="translate(877.33 3857.62) rotate(-90)"/><rect class="cls-3" x="2134.86" y="1500.96" width="3.45" height="57.61" transform="translate(895.81 3839.14) rotate(-90)"/><rect class="cls-3" x="2134.85" y="1482.47" width="3.45" height="57.61" transform="translate(914.3 3820.65) rotate(-90)"/><rect class="cls-3" x="2134.86" y="1463.99" width="3.45" height="57.61" transform="translate(932.78 3802.16) rotate(-90)"/><rect class="cls-3" x="2134.86" y="1445.5" width="3.45" height="57.61" transform="translate(951.27 3783.68) rotate(-90)"/><rect class="cls-3" x="2134.86" y="1427.02" width="3.45" height="57.61" transform="translate(969.75 3765.19) rotate(-90)"/><rect class="cls-3" x="2134.85" y="1408.53" width="3.45" height="57.61" transform="translate(988.24 3746.71) rotate(-90)"/><rect class="cls-3" x="2134.86" y="1390.04" width="3.45" height="57.61" transform="translate(1006.73 3728.22) rotate(-90)"/><rect class="cls-3" x="2134.86" y="1371.56" width="3.45" height="57.61" transform="translate(1025.21 3709.74) rotate(-90)"/><rect class="cls-3" x="2134.86" y="1353.08" width="3.45" height="57.61" transform="translate(1043.7 3691.25) rotate(-90)"/><rect class="cls-3" x="2134.86" y="1334.59" width="3.45" height="57.61" transform="translate(1062.18 3672.77) rotate(-90)"/><rect class="cls-3" x="2134.86" y="1316.11" width="3.45" height="57.61" transform="translate(1080.66 3654.28) rotate(-90)"/><rect class="cls-3" x="2134.85" y="1297.62" width="3.45" height="57.61" transform="translate(1099.15 3635.8) rotate(-90)"/><rect class="cls-3" x="2134.86" y="1279.13" width="3.45" height="57.61" transform="translate(1117.64 3617.31) rotate(-90)"/><rect class="cls-3" x="2134.86" y="1260.65" width="3.45" height="57.61" transform="translate(1136.12 3598.83) rotate(-90)"/><rect class="cls-3" x="2134.86" y="1242.17" width="3.45" height="57.61" transform="translate(1154.61 3580.34) rotate(-90)"/><rect class="cls-3" x="2134.86" y="1223.68" width="3.45" height="57.61" transform="translate(1173.09 3561.86) rotate(-90)"/><rect class="cls-3" x="2134.85" y="1205.19" width="3.45" height="57.61" transform="translate(1191.58 3543.37) rotate(-90)"/><rect class="cls-3" x="2134.86" y="1186.71" width="3.45" height="57.61" transform="translate(1210.06 3524.88) rotate(-90)"/><rect class="cls-3" x="2134.86" y="1168.22" width="3.45" height="57.61" transform="translate(1228.55 3506.4) rotate(-90)"/><rect class="cls-3" x="2134.86" y="1149.74" width="3.45" height="57.61" transform="translate(1247.03 3487.92) rotate(-90)"/><rect class="cls-3" x="2134.86" y="1131.25" width="3.45" height="57.61" transform="translate(1265.52 3469.43) rotate(-90)"/><rect class="cls-3" x="2134.85" y="1112.77" width="3.45" height="57.61" transform="translate(1284 3450.95) rotate(-90)"/><rect class="cls-3" x="2134.86" y="1094.28" width="3.45" height="57.61" transform="translate(1302.49 3432.46) rotate(-90)"/><rect class="cls-3" x="2134.86" y="1075.8" width="3.45" height="57.61" transform="translate(1320.97 3413.97) rotate(-90)"/><rect class="cls-3" x="2134.85" y="1057.31" width="3.45" height="57.61" transform="translate(1339.46 3395.49) rotate(-90)"/><rect class="cls-3" x="2134.86" y="1038.83" width="3.45" height="57.61" transform="translate(1357.94 3377.01) rotate(-90)"/><rect class="cls-3" x="2134.86" y="1020.34" width="3.45" height="57.61" transform="translate(1376.43 3358.52) rotate(-90)"/><rect class="cls-3" x="2134.85" y="1001.86" width="3.45" height="57.61" transform="translate(1394.91 3340.03) rotate(-90)"/><rect class="cls-3" x="2134.86" y="983.37" width="3.45" height="57.61" transform="translate(1413.4 3321.55) rotate(-90)"/><rect class="cls-3" x="2134.85" y="964.88" width="3.45" height="57.61" transform="translate(1431.89 3303.06) rotate(-90)"/><rect class="cls-3" x="2134.86" y="946.4" width="3.45" height="57.61" transform="translate(1450.37 3284.58) rotate(-90)"/><rect class="cls-3" x="2134.86" y="927.91" width="3.45" height="57.61" transform="translate(1468.86 3266.09) rotate(-90)"/><rect class="cls-3" x="1726.51" y="1537.06" width="3.45" height="57.61" transform="translate(451.36 3466.89) rotate(-90)"/><rect class="cls-3" x="1726.51" y="1518.58" width="3.45" height="57.61" transform="translate(469.85 3448.41) rotate(-90)"/><rect class="cls-3" x="1726.51" y="1500.09" width="3.45" height="57.61" transform="translate(488.33 3429.92) rotate(-90)"/><rect class="cls-3" x="1726.51" y="1481.6" width="3.45" height="57.61" transform="translate(506.82 3411.43) rotate(-90)"/><rect class="cls-3" x="1726.51" y="1463.12" width="3.45" height="57.61" transform="translate(525.3 3392.95) rotate(-90)"/><rect class="cls-3" x="1726.51" y="1444.64" width="3.45" height="57.61" transform="translate(543.79 3374.47) rotate(-90)"/><rect class="cls-3" x="1726.51" y="1426.15" width="3.45" height="57.61" transform="translate(562.27 3355.98) rotate(-90)"/><rect class="cls-3" x="1726.51" y="1407.67" width="3.45" height="57.61" transform="translate(580.76 3337.49) rotate(-90)"/><rect class="cls-3" x="1726.51" y="1389.18" width="3.45" height="57.61" transform="translate(599.25 3319.01) rotate(-90)"/><rect class="cls-3" x="1726.51" y="1370.69" width="3.45" height="57.61" transform="translate(617.73 3300.52) rotate(-90)"/><rect class="cls-3" x="1726.51" y="1352.21" width="3.45" height="57.61" transform="translate(636.21 3282.04) rotate(-90)"/><rect class="cls-3" x="1726.51" y="1333.73" width="3.45" height="57.61" transform="translate(654.7 3263.56) rotate(-90)"/><rect class="cls-3" x="1726.51" y="1315.24" width="3.45" height="57.61" transform="translate(673.19 3245.07) rotate(-90)"/><rect class="cls-3" x="1726.51" y="1296.75" width="3.45" height="57.61" transform="translate(691.67 3226.58) rotate(-90)"/><rect class="cls-3" x="1726.51" y="1278.27" width="3.45" height="57.61" transform="translate(710.16 3208.1) rotate(-90)"/><rect class="cls-3" x="1726.51" y="1259.78" width="3.45" height="57.61" transform="translate(728.64 3189.61) rotate(-90)"/><rect class="cls-3" x="1726.51" y="1241.3" width="3.45" height="57.61" transform="translate(747.13 3171.13) rotate(-90)"/><rect class="cls-3" x="1726.51" y="1222.81" width="3.45" height="57.61" transform="translate(765.61 3152.64) rotate(-90)"/><rect class="cls-3" x="1726.51" y="1204.33" width="3.45" height="57.61" transform="translate(784.1 3134.16) rotate(-90)"/><rect class="cls-3" x="1726.51" y="1185.84" width="3.45" height="57.61" transform="translate(802.58 3115.67) rotate(-90)"/><rect class="cls-3" x="1726.51" y="1167.36" width="3.45" height="57.61" transform="translate(821.07 3097.19) rotate(-90)"/><rect class="cls-3" x="1518.65" y="1530.37" width="109.56" height="37.27" transform="translate(3435.86 3270.8) rotate(180)"/><rect class="cls-3" x="1518.65" y="1483.26" width="109.56" height="37.27" transform="translate(3435.86 3176.58) rotate(180)"/><rect class="cls-3" x="1518.65" y="1436.15" width="109.56" height="37.27" transform="translate(3435.86 3082.36) rotate(180)"/><rect class="cls-3" x="1518.65" y="1389.04" width="109.56" height="37.27" transform="translate(3435.86 2988.14) rotate(180)"/><rect class="cls-3" x="1518.65" y="1341.93" width="109.56" height="37.27" transform="translate(3435.86 2893.92) rotate(180)"/><rect class="cls-3" x="1518.65" y="1294.82" width="109.56" height="37.27" transform="translate(3435.86 2799.7) rotate(180)"/><rect class="cls-3" x="1518.65" y="1247.71" width="109.56" height="37.27" transform="translate(3435.86 2705.48) rotate(180)"/><rect class="cls-3" x="1518.65" y="1200.6" width="109.56" height="37.27" transform="translate(3435.86 2611.26) rotate(180)"/><rect class="cls-3" x="1518.65" y="1153.49" width="109.56" height="37.27" transform="translate(3435.86 2517.03) rotate(180)"/><rect class="cls-3" x="1307.87" y="1285.63" width="3.45" height="57.61" transform="translate(284.15 2796.82) rotate(-90)"/><rect class="cls-3" x="1307.87" y="1304.12" width="3.45" height="57.61" transform="translate(265.67 2815.3) rotate(-90)"/><rect class="cls-3" x="1307.87" y="1322.6" width="3.45" height="57.61" transform="translate(247.18 2833.79) rotate(-90)"/><rect class="cls-3" x="1307.87" y="1341.08" width="3.45" height="57.61" transform="translate(228.7 2852.27) rotate(-90)"/><rect class="cls-3" x="1307.86" y="1359.57" width="3.45" height="57.61" transform="translate(210.21 2870.76) rotate(-90)"/><rect class="cls-3" x="1307.87" y="1378.06" width="3.45" height="57.61" transform="translate(191.73 2889.25) rotate(-90)"/><rect class="cls-3" x="1307.87" y="1396.54" width="3.45" height="57.61" transform="translate(173.24 2907.73) rotate(-90)"/><rect class="cls-3" x="1307.87" y="1415.03" width="3.45" height="57.61" transform="translate(154.76 2926.21) rotate(-90)"/><rect class="cls-3" x="1307.87" y="1433.51" width="3.45" height="57.61" transform="translate(136.27 2944.7) rotate(-90)"/><rect class="cls-3" x="1307.86" y="1452" width="3.45" height="57.61" transform="translate(117.79 2963.19) rotate(-90)"/><rect class="cls-3" x="1307.87" y="1470.48" width="3.45" height="57.61" transform="translate(99.3 2981.67) rotate(-90)"/><rect class="cls-3" x="1307.87" y="1488.97" width="3.45" height="57.61" transform="translate(80.81 3000.16) rotate(-90)"/><rect class="cls-3" x="1307.87" y="1507.45" width="3.45" height="57.61" transform="translate(62.33 3018.64) rotate(-90)"/><rect class="cls-3" x="1307.87" y="1525.94" width="3.45" height="57.61" transform="translate(43.85 3037.12) rotate(-90)"/><rect class="cls-3" x="1307.86" y="1544.42" width="3.45" height="57.61" transform="translate(25.36 3055.61) rotate(-90)"/><rect class="cls-3" x="1307.87" y="1562.91" width="3.45" height="57.61" transform="translate(6.87 3074.1) rotate(-90)"/><rect class="cls-3" x="1307.87" y="1581.39" width="3.45" height="57.61" transform="translate(-11.61 3092.58) rotate(-90)"/><rect class="cls-3" x="1307.87" y="1599.88" width="3.45" height="57.61" transform="translate(-30.1 3111.07) rotate(-90)"/><rect class="cls-3" x="1307.87" y="1618.36" width="3.45" height="57.61" transform="translate(-48.58 3129.55) rotate(-90)"/><rect class="cls-3" x="1307.86" y="1636.85" width="3.45" height="57.61" transform="translate(-67.07 3148.04) rotate(-90)"/><rect class="cls-3" x="1307.87" y="1655.34" width="3.45" height="57.61" transform="translate(-85.55 3166.52) rotate(-90)"/><rect class="cls-3" x="1307.87" y="1673.82" width="3.45" height="57.61" transform="translate(-104.04 3185.01) rotate(-90)"/><rect class="cls-3" x="1307.87" y="1692.3" width="3.45" height="57.61" transform="translate(-122.52 3203.49) rotate(-90)"/><rect class="cls-3" x="1307.87" y="1710.79" width="3.45" height="57.61" transform="translate(-141.01 3221.98) rotate(-90)"/><rect class="cls-3" x="1307.86" y="1729.28" width="3.45" height="57.61" transform="translate(-159.49 3240.46) rotate(-90)"/><rect class="cls-3" x="1307.87" y="1747.76" width="3.45" height="57.61" transform="translate(-177.98 3258.95) rotate(-90)"/><rect class="cls-3" x="1307.87" y="1766.25" width="3.45" height="57.61" transform="translate(-196.46 3277.43) rotate(-90)"/><rect class="cls-3" x="1266.69" y="684.98" width="3.45" height="57.6" transform="translate(843.63 2154.99) rotate(-90)"/><rect class="cls-3" x="1266.69" y="703.47" width="3.45" height="57.6" transform="translate(825.14 2173.47) rotate(-90)"/><rect class="cls-3" x="1266.69" y="721.95" width="3.45" height="57.6" transform="translate(806.66 2191.96) rotate(-90)"/><rect class="cls-3" x="1266.69" y="740.44" width="3.45" height="57.6" transform="translate(788.17 2210.45) rotate(-90)"/><rect class="cls-3" x="1266.69" y="758.92" width="3.45" height="57.6" transform="translate(769.69 2228.93) rotate(-90)"/><rect class="cls-3" x="1266.69" y="777.41" width="3.45" height="57.6" transform="translate(751.2 2247.41) rotate(-90)"/><rect class="cls-3" x="1266.69" y="795.89" width="3.45" height="57.6" transform="translate(732.71 2265.9) rotate(-90)"/><rect class="cls-3" x="1266.69" y="814.37" width="3.45" height="57.6" transform="translate(714.23 2284.38) rotate(-90)"/><rect class="cls-3" x="1266.69" y="832.86" width="3.45" height="57.6" transform="translate(695.74 2302.87) rotate(-90)"/><rect class="cls-3" x="1266.69" y="851.35" width="3.45" height="57.6" transform="translate(677.26 2321.35) rotate(-90)"/><rect class="cls-3" x="1266.69" y="869.83" width="3.45" height="57.6" transform="translate(658.77 2339.84) rotate(-90)"/><rect class="cls-3" x="1266.69" y="888.32" width="3.45" height="57.6" transform="translate(640.29 2358.33) rotate(-90)"/><rect class="cls-3" x="1266.69" y="906.8" width="3.45" height="57.6" transform="translate(621.8 2376.81) rotate(-90)"/><rect class="cls-3" x="1266.69" y="925.29" width="3.45" height="57.6" transform="translate(603.32 2395.3) rotate(-90)"/><rect class="cls-3" x="1266.69" y="943.77" width="3.45" height="57.6" transform="translate(584.83 2413.78) rotate(-90)"/><rect class="cls-3" x="1266.69" y="962.26" width="3.45" height="57.6" transform="translate(566.35 2432.27) rotate(-90)"/><rect class="cls-3" x="1266.69" y="980.74" width="3.45" height="57.6" transform="translate(547.86 2450.75) rotate(-90)"/><rect class="cls-3" x="1266.69" y="999.23" width="3.45" height="57.6" transform="translate(529.38 2469.24) rotate(-90)"/><rect class="cls-3" x="1266.69" y="1017.72" width="3.45" height="57.6" transform="translate(510.89 2487.72) rotate(-90)"/><rect class="cls-3" x="1266.69" y="1036.2" width="3.45" height="57.6" transform="translate(492.41 2506.21) rotate(-90)"/><rect class="cls-3" x="930.56" y="1567.54" width="3.45" height="57.6" transform="translate(-375.07 2701.42) rotate(-90)"/><rect class="cls-3" x="930.55" y="1549.05" width="3.45" height="57.6" transform="translate(-356.58 2682.93) rotate(-90)"/><rect class="cls-3" x="930.55" y="1530.57" width="3.45" height="57.6" transform="translate(-338.09 2664.45) rotate(-90)"/><rect class="cls-3" x="930.56" y="1512.08" width="3.45" height="57.6" transform="translate(-319.61 2645.96) rotate(-90)"/><rect class="cls-3" x="930.56" y="1493.6" width="3.45" height="57.6" transform="translate(-301.12 2627.47) rotate(-90)"/><rect class="cls-3" x="930.56" y="1475.11" width="3.45" height="57.6" transform="translate(-282.64 2608.99) rotate(-90)"/><rect class="cls-3" x="930.55" y="1456.63" width="3.45" height="57.6" transform="translate(-264.15 2590.5) rotate(-90)"/><rect class="cls-3" x="930.55" y="1438.14" width="3.45" height="57.6" transform="translate(-245.67 2572.02) rotate(-90)"/><rect class="cls-3" x="930.56" y="1419.66" width="3.45" height="57.6" transform="translate(-227.18 2553.53) rotate(-90)"/><rect class="cls-3" x="930.56" y="1401.17" width="3.45" height="57.6" transform="translate(-208.7 2535.05) rotate(-90)"/><rect class="cls-3" x="930.56" y="1382.69" width="3.45" height="57.6" transform="translate(-190.21 2516.56) rotate(-90)"/><rect class="cls-3" x="930.55" y="1364.2" width="3.45" height="57.6" transform="translate(-171.73 2498.08) rotate(-90)"/><rect class="cls-3" x="930.55" y="1345.72" width="3.45" height="57.6" transform="translate(-153.24 2479.59) rotate(-90)"/><rect class="cls-3" x="930.56" y="1327.23" width="3.45" height="57.6" transform="translate(-134.76 2461.11) rotate(-90)"/><rect class="cls-3" x="930.56" y="1308.75" width="3.45" height="57.6" transform="translate(-116.27 2442.62) rotate(-90)"/><rect class="cls-3" x="930.56" y="1290.26" width="3.45" height="57.6" transform="translate(-97.79 2424.14) rotate(-90)"/><rect class="cls-3" x="930.55" y="1271.77" width="3.45" height="57.6" transform="translate(-79.3 2405.65) rotate(-90)"/><rect class="cls-3" x="930.55" y="1253.29" width="3.45" height="57.6" transform="translate(-60.82 2387.17) rotate(-90)"/><rect class="cls-3" x="930.56" y="1234.8" width="3.45" height="57.6" transform="translate(-42.33 2368.68) rotate(-90)"/><rect class="cls-3" x="930.56" y="1216.32" width="3.45" height="57.6" transform="translate(-23.84 2350.2) rotate(-90)"/><rect class="cls-3" x="930.56" y="1197.83" width="3.45" height="57.6" transform="translate(-5.36 2331.71) rotate(-90)"/><rect class="cls-3" x="930.55" y="1179.35" width="3.45" height="57.6" transform="translate(13.13 2313.23) rotate(-90)"/><rect class="cls-3" x="930.55" y="1160.86" width="3.45" height="57.6" transform="translate(31.61 2294.74) rotate(-90)"/><rect class="cls-3" x="930.56" y="1142.38" width="3.45" height="57.6" transform="translate(50.1 2276.25) rotate(-90)"/><rect class="cls-3" x="930.56" y="1123.89" width="3.45" height="57.6" transform="translate(68.58 2257.77) rotate(-90)"/><rect class="cls-3" x="937.26" y="-199.87" width="3.45" height="57.61" transform="translate(1399.05 940.71) rotate(-90)"/><rect class="cls-3" x="937.26" y="-181.39" width="3.45" height="57.61" transform="translate(1380.57 959.2) rotate(-90)"/><rect class="cls-3" x="937.27" y="-162.9" width="3.45" height="57.61" transform="translate(1362.08 977.69) rotate(-90)"/><rect class="cls-3" x="937.27" y="-144.42" width="3.45" height="57.61" transform="translate(1343.6 996.17) rotate(-90)"/><rect class="cls-3" x="937.26" y="-125.93" width="3.45" height="57.61" transform="translate(1325.11 1014.66) rotate(-90)"/><rect class="cls-3" x="937.26" y="-107.45" width="3.45" height="57.61" transform="translate(1306.63 1033.14) rotate(-90)"/><rect class="cls-3" x="937.27" y="-88.96" width="3.45" height="57.61" transform="translate(1288.14 1051.63) rotate(-90)"/><rect class="cls-3" x="937.26" y="-70.47" width="3.45" height="57.61" transform="translate(1269.66 1070.11) rotate(-90)"/><rect class="cls-3" x="937.27" y="-51.99" width="3.45" height="57.61" transform="translate(1251.17 1088.6) rotate(-90)"/><rect class="cls-3" x="937.26" y="-33.5" width="3.45" height="57.61" transform="translate(1232.68 1107.08) rotate(-90)"/><rect class="cls-3" x="937.26" y="-15.02" width="3.45" height="57.61" transform="translate(1214.2 1125.57) rotate(-90)"/><rect class="cls-3" x="937.26" y="3.47" width="3.45" height="57.61" transform="translate(1195.71 1144.05) rotate(-90)"/><rect class="cls-3" x="937.26" y="21.95" width="3.45" height="57.61" transform="translate(1177.23 1162.54) rotate(-90)"/><rect class="cls-3" x="937.27" y="40.44" width="3.45" height="57.61" transform="translate(1158.75 1181.02) rotate(-90)"/><rect class="cls-3" x="937.27" y="58.92" width="3.45" height="57.61" transform="translate(1140.26 1199.51) rotate(-90)"/><rect class="cls-3" x="937.26" y="77.41" width="3.45" height="57.61" transform="translate(1121.77 1217.99) rotate(-90)"/><rect class="cls-3" x="937.26" y="95.89" width="3.45" height="57.61" transform="translate(1103.29 1236.48) rotate(-90)"/><rect class="cls-3" x="937.27" y="114.38" width="3.45" height="57.61" transform="translate(1084.8 1254.96) rotate(-90)"/><rect class="cls-3" x="937.27" y="132.86" width="3.45" height="57.61" transform="translate(1066.32 1273.45) rotate(-90)"/><rect class="cls-3" x="937.26" y="151.35" width="3.45" height="57.61" transform="translate(1047.83 1291.94) rotate(-90)"/><rect class="cls-3" x="937.26" y="169.83" width="3.45" height="57.61" transform="translate(1029.35 1310.42) rotate(-90)"/><rect class="cls-3" x="937.27" y="188.32" width="3.45" height="57.61" transform="translate(1010.86 1328.91) rotate(-90)"/><rect class="cls-3" x="937.27" y="206.8" width="3.45" height="57.61" transform="translate(992.38 1347.39) rotate(-90)"/><rect class="cls-3" x="937.26" y="225.29" width="3.45" height="57.61" transform="translate(973.89 1365.87) rotate(-90)"/><rect class="cls-3" x="937.27" y="243.78" width="3.45" height="57.61" transform="translate(955.4 1384.36) rotate(-90)"/><rect class="cls-3" x="937.26" y="262.26" width="3.45" height="57.61" transform="translate(936.92 1402.85) rotate(-90)"/><rect class="cls-3" x="937.26" y="280.75" width="3.45" height="57.61" transform="translate(918.44 1421.33) rotate(-90)"/><rect class="cls-3" x="937.27" y="299.23" width="3.45" height="57.61" transform="translate(899.95 1439.82) rotate(-90)"/><rect class="cls-3" x="937.27" y="317.71" width="3.45" height="57.61" transform="translate(881.47 1458.3) rotate(-90)"/><rect class="cls-3" x="937.26" y="336.2" width="3.45" height="57.61" transform="translate(862.98 1476.79) rotate(-90)"/><rect class="cls-3" x="937.26" y="354.68" width="3.45" height="57.61" transform="translate(844.5 1495.27) rotate(-90)"/><rect class="cls-3" x="937.27" y="373.17" width="3.45" height="57.61" transform="translate(826.01 1513.76) rotate(-90)"/><rect class="cls-3" x="937.27" y="391.66" width="3.45" height="57.61" transform="translate(807.52 1532.24) rotate(-90)"/><rect class="cls-3" x="937.27" y="410.14" width="3.45" height="57.61" transform="translate(789.04 1550.73) rotate(-90)"/><polygon class="cls-3" points="1357.51 2170.69 1353.03 2170.69 1353.03 1912.44 1280.8 1840.21 1283.97 1837.04 1357.51 1910.59 1357.51 2170.69"/><polygon class="cls-3" points="1496.23 2171.78 1491.75 2171.78 1491.75 1628.37 1535.57 1584.56 1535.57 1289.1 1554.78 1269.89 1555.17 1237.77 1559.65 1237.82 1559.23 1271.77 1540.05 1290.96 1540.05 1586.41 1496.23 1630.22 1496.23 2171.78"/><polygon class="cls-3" points="1314.42 1872.08 1309.94 1872.08 1309.94 1071.1 1137.57 898.74 1140.74 895.57 1314.42 1069.24 1314.42 1872.08"/><polygon class="cls-3" points="1316.79 1212.58 1313.62 1209.42 1433.33 1089.7 1433.33 0.94 1437.81 0.94 1437.81 1091.55 1316.79 1212.58"/><polygon class="cls-3" points="2193.51 1773.36 2189.03 1773.36 2189.03 1177.52 1997.3 985.79 2000.46 982.63 2193.51 1175.67 2193.51 1773.36"/><polygon class="cls-3" points="2326.28 1779.96 2321.8 1779.96 2321.8 1328.35 2368.46 1281.68 2368.46 972 2308.57 912.12 2308.57 509.47 2444.11 373.93 2447.28 377.1 2313.05 511.32 2313.05 910.26 2372.94 970.15 2372.94 1283.54 2326.28 1330.2 2326.28 1779.96"/><polygon class="cls-3" points="2123.03 1106.12 2118.55 1106.12 2118.55 799.71 2213.83 704.43 2213.83 61.2 2218.31 61.2 2218.31 706.28 2123.03 801.56 2123.03 1106.12"/><rect class="cls-18" x="1921.15" y="1767.41" width="578.78" height="33.56"/><polygon class="cls-18" points="1032.77 2207 694.23 2207 701.93 2180.55 1017.53 2180.55 1032.77 2207"/><polygon class="cls-18" points="3935.81 2185.58 3556.02 2185.58 3564.67 2152.72 3918.71 2152.72 3935.81 2185.58"/><polygon class="cls-3" points="900.82 2175.22 850.04 2175.22 850.04 2170.74 896.34 2170.74 896.34 1861.68 836.53 1801.88 836.53 1594.08 692.64 1450.18 695.81 1447.01 841.01 1592.22 841.01 1800.02 900.82 1859.83 900.82 2175.22"/><rect class="cls-3" x="2374.1" y="2368.71" width="105.46" height="4.48"/><rect class="cls-3" x="1939.45" y="2306.94" width="157.87" height="4.48"/><rect class="cls-3" x="2083.57" y="1883.73" width="114.4" height="4.48"/><rect class="cls-3" x="2239.13" y="2023.27" width="73.53" height="4.48"/><rect class="cls-3" x="1463.61" y="2371" width="130.48" height="4.48"/><rect class="cls-3" x="1273.74" y="2311.52" width="87.2" height="4.48"/><rect class="cls-3" x="818.49" y="2210.86" width="75.53" height="4.48"/><rect class="cls-3" x="967.19" y="2238.31" width="100.68" height="4.48"/><rect class="cls-3" x="605.74" y="2371" width="96.19" height="4.48"/><rect class="cls-3" x="3552.25" y="2190.27" width="78.08" height="4.48"/><rect class="cls-3" x="3572.84" y="2242.89" width="155.58" height="4.48"/><rect class="cls-3" x="3847.35" y="2332.11" width="211.07" height="4.48"/><rect class="cls-3" x="3922.85" y="2375.57" width="140.46" height="4.48"/><polygon class="cls-3" points="3687.34 2153.71 3682.86 2153.71 3682.86 2045.75 3725.84 2002.77 3725.84 1698.49 3652.95 1625.6 3652.95 1218.85 3657.43 1218.85 3657.43 1623.74 3730.32 1696.64 3730.32 2004.63 3687.34 2047.61 3687.34 2153.71"/><polygon class="cls-3" points="3729.98 1848.66 3726.81 1845.49 3799.74 1772.57 3799.74 1251.87 3804.22 1251.87 3804.22 1774.42 3729.98 1848.66"/><polygon class="cls-18" points="980.41 2191.19 909.02 2191.19 915.22 2152.83 974.21 2152.83 980.41 2191.19"/><polygon class="cls-18" points="922.58 2156.48 926.8 2026.35 928.72 2156.48 922.58 2156.48"/><polygon class="cls-18" points="932.76 2156.48 935.1 2054.15 936.44 2156.48 932.76 2156.48"/><polygon class="cls-18" points="944.71 2156.48 947.05 2105.31 948.39 2156.48 944.71 2156.48"/><polygon class="cls-18" points="1298.86 2187.73 1227.47 2187.73 1233.67 2149.38 1292.66 2149.38 1298.86 2187.73"/><polygon class="cls-18" points="1241.03 2153.02 1245.25 2022.89 1247.17 2153.02 1241.03 2153.02"/><polygon class="cls-18" points="1251.21 2153.02 1253.55 2050.69 1254.89 2153.02 1251.21 2153.02"/><polygon class="cls-18" points="1263.16 2153.02 1265.51 2101.86 1266.85 2153.02 1263.16 2153.02"/><rect class="cls-18" x="2299.63" y="1731.93" width="90.14" height="43.92"/><polygon class="cls-18" points="2367.59 1740.64 2349.97 1740.64 2353.17 1650.53 2364.39 1650.53 2367.59 1740.64"/><rect class="cls-18" x="2322.98" y="1696.06" width="61.98" height="19.89"/><rect class="cls-18" x="1980.79" y="2181.96" width="90.14" height="43.92"/><polygon class="cls-18" points="2048.75 2190.67 2031.13 2190.67 2034.33 2100.56 2045.55 2100.56 2048.75 2190.67"/><rect class="cls-18" x="2004.14" y="2146.09" width="61.98" height="19.89"/><polygon class="cls-18" points="3841.76 2206.94 3841.76 2181.09 3865.87 2188.25 3865.87 2199.78 3841.76 2206.94"/><polygon class="cls-18" points="3834.51 2421.91 3834.51 2360.73 3858.63 2367.89 3858.63 2414.75 3834.51 2421.91"/><polygon class="cls-18" points="3823.35 2324.62 3823.35 2288.82 3799.24 2295.98 3799.24 2317.46 3823.35 2324.62"/><polygon class="cls-18" points="3850.71 2320.84 3826.59 2315.15 3826.59 2256.67 3850.71 2250.98 3850.71 2170.39 3818.31 2170.39 3818.31 2209.03 3835.41 2214.1 3835.41 2225.64 3818.31 2230.71 3818.31 2363.62 3850.71 2371.09 3850.71 2320.84"/><polygon class="cls-18" points="3850.71 2412.77 3850.71 2429.88 3818.31 2429.88 3818.31 2420.79 3850.71 2412.77"/><polygon class="cls-18" points="3822.54 2347.71 3803.38 2351.66 3803.38 2429.88 3808.5 2429.88 3808.5 2366.06 3823.76 2362.91 3822.54 2347.71"/><polygon class="cls-18" points="3803.38 2163.4 3803.38 2167.46 3850.71 2177.26 3850.71 2163.4 3803.38 2163.4"/><polygon class="cls-18" points="3670.52 2386.33 3670.52 2412.19 3694.64 2405.03 3694.64 2393.49 3670.52 2386.33"/><polygon class="cls-18" points="3663.28 2171.36 3663.28 2232.55 3687.39 2225.39 3687.39 2178.53 3663.28 2171.36"/><polygon class="cls-18" points="3652.12 2268.65 3652.12 2304.45 3628 2297.29 3628 2275.81 3652.12 2268.65"/><polygon class="cls-18" points="3679.47 2272.43 3655.36 2278.12 3655.36 2336.6 3679.47 2342.3 3679.47 2422.88 3647.08 2422.88 3647.08 2384.25 3664.18 2379.17 3664.18 2367.64 3647.08 2362.56 3647.08 2229.65 3679.47 2222.18 3679.47 2272.43"/><polygon class="cls-18" points="3679.47 2180.5 3679.47 2163.4 3647.08 2163.4 3647.08 2172.48 3679.47 2180.5"/><polygon class="cls-18" points="3651.31 2245.57 3632.14 2241.61 3632.14 2163.4 3637.27 2163.4 3637.27 2227.22 3652.53 2230.36 3651.31 2245.57"/><polygon class="cls-18" points="3632.14 2429.88 3632.14 2425.82 3679.47 2416.01 3679.47 2429.88 3632.14 2429.88"/><rect class="cls-3" x="3132.98" y="1372.83" width="109.56" height="37.27" transform="translate(6664.51 2955.73) rotate(180)"/><rect class="cls-3" x="3132.98" y="1325.72" width="109.56" height="37.27" transform="translate(6664.51 2861.5) rotate(180)"/><rect class="cls-3" x="3132.98" y="1278.61" width="109.56" height="37.27" transform="translate(6664.51 2767.28) rotate(180)"/><rect class="cls-3" x="3132.98" y="1231.5" width="109.56" height="37.27" transform="translate(6664.51 2673.06) rotate(180)"/><rect class="cls-3" x="3132.98" y="1184.39" width="109.56" height="37.27" transform="translate(6664.51 2578.84) rotate(180)"/><rect class="cls-3" x="716.07" y="242.01" width="109.56" height="37.27" transform="translate(1830.69 694.08) rotate(180)"/><rect class="cls-3" x="716.07" y="194.9" width="109.56" height="37.27" transform="translate(1830.69 599.86) rotate(180)"/><rect class="cls-3" x="716.07" y="147.79" width="109.56" height="37.27" transform="translate(1830.69 505.64) rotate(180)"/><rect class="cls-3" x="716.07" y="100.68" width="109.56" height="37.27" transform="translate(1830.69 411.42) rotate(180)"/><rect class="cls-3" x="716.07" y="53.57" width="109.56" height="37.27" transform="translate(1830.69 317.2) rotate(180)"/><rect class="cls-3" x="716.07" y="6.46" width="109.56" height="37.27" transform="translate(1830.69 222.98) rotate(180)"/><rect class="cls-3" x="716.07" y="-40.65" width="109.56" height="37.27" transform="translate(1830.69 128.76) rotate(180)"/><path class="cls-19" d="M1113.45,55.19h-5.15V33.46h5.15Zm-43.67-21.73h-5.15V55.19h5.15Zm-22.54,0h-5.15V55.19h5.15Zm-38,0h-5.15V55.19h5.15Zm-35.64,0h-5.15V55.19h5.15Zm-22.9,0h-5.14V55.19h5.14Zm111,65.2h-5.14v21.73h5.14Zm54.25,67.48h-5.15v21.73h5.15Zm-36.32,0h-5.15v21.73h5.15Zm-42.8,0h-5.15v21.73h5.15Zm-27.86,0h-5.15v21.73h5.15Zm-26.19,0h-5.15v21.73h5.15ZM1125,222.19h-5.15v21.73H1125Zm-53.29,0h-5.15v21.73h5.15Zm-29.53,0h-5.15v21.73h5.15ZM1174.85,109h-5.15v21.73h5.15Zm-48.58,0h-5.15v21.73h5.15Zm-38.3,0h-5.14v21.73H1088Zm-64.26,167h-5.14v21.73h5.14Zm-29.53,0H989v21.73h5.15Zm89.9,35.46h-5.14v21.73h5.14Zm-38.43,0h-5.15v21.73h5.15Zm25.6,207h-5.14v21.73h5.14Zm-32,0h-5.15v21.73h5.15Zm-23.38,0h-5.14v21.73h5.14Zm82.6-34.31h-5.14v21.73h5.14Zm-48.28,0h-5.15v21.73h5.15ZM1040,693.45h-5.14v21.73H1040Zm-49.29,0H985.6v21.73h5.15Zm.46,46.9h-5.15v21.73h5.15Zm-41.64,0h-5.15v21.73h5.15Zm93,37.74h-5.15v21.73h5.15Zm-46.15,0h-5.15v21.73h5.15Zm83.18-117.82h-5.14V682h5.14Zm-60.31,0h-5.15V682h5.15Zm91,161.28h-5.15v21.74h5.15Zm-34.94,0h-5.15v21.74h5.15Zm-20.59,40h-5.15v21.73h5.15Zm132.13,185.3h-5.15v21.73h5.15Zm-33.81,0H1148v21.73h5.15Zm-44.56,0h-5.15v21.73h5.15Zm24,43.46h-5.14v21.74h5.14Zm6.08,75.5h-5.15v21.73h5.15Zm-37,0h-5.15v21.73h5.15Zm98,58.33h-5.15v21.74h5.15Zm-28.4,0h-5.15v21.74h5.15Zm-30.86,0h-5.15v21.74h5.15Zm-35.28,0H1100v21.74h5.15Zm75.27,50.33h-5.15v21.74h5.15Zm-31.75,0h-5.15v21.74h5.15Zm-25.22,0h-5.15v21.74h5.15Zm51.53,45.76h-5.15V1342H1175Zm-57.25,0h-5.15V1342h5.15Zm27.82,34.31h-5.15v21.73h5.15Zm-22.77,0h-5.15v21.73h5.15Zm-43.94,0h-5.14v21.73h5.14Zm77.26,35.46h-5.15v21.73h5.15Zm-31.5,0h-5.15v21.73h5.15Zm-9.18,46.9h-5.14v21.73h5.14Zm-58.31,0h-5.15v21.73h5.15Zm41.28,68.62h-5.15v21.74h5.15Zm-37.85,0h-5.15v21.74h5.15Zm29.74,52.62h-5.15v21.73h5.15Zm12.58,81.22h-5.14v21.73h5.14ZM1220.29,353.73h-5.14v21.73h5.14Zm-34,0h-5.14v21.73h5.14Zm58.69,32h-5.15v21.73H1245Zm-27.8,0h-5.15v21.73h5.15ZM1240,445.23h-5.14V467H1240Zm-29.64,0h-5.14V467h5.14Zm-24,61.77h-5.14v21.74h5.14Zm24,80.07h-5.14V608.8h5.14ZM1231,698h-5.15v21.74H1231Zm-28.68,0h-5.14v21.74h5.14Zm-3.42,64.06h-5.15v21.73h5.15ZM1085.68,576.77h-5.14v21.74h5.14Zm89.22,302h-5.14v21.74h5.14Zm-4.76,74.19H1165v21.73h5.14ZM932.41,907.34h-5.15v21.73h5.15Zm21.73,32H949V961.1h5.14Zm10.3-38.89h-5.15v21.74h5.15Zm164.71,677.14H1124v21.74h5.15Zm8,36.61H1132V1636h5.15Zm-5.72,66.34h-5.15v21.73h5.15Zm9.15-160.14h-5.15v21.74h5.15Zm14.87,26.31h-5.15v21.74h5.15Zm-46.9,0h-5.15v21.74h5.15ZM1096,1806.39h-5.15v21.73H1096Zm80.19,54.91H1171V1883h5.15Zm-23.56,0h-5.15V1883h5.15Zm-39.47,0H1108V1883h5.15Zm21.73-53.76h-5.15v21.73h5.15ZM1887.57,47.18h-5.15V68.91h5.15Zm-36.49,0h-5.15V68.91h5.15Zm-56.22,0h-5.15V68.91h5.15Zm70.31,57.19H1860V126.1h5.14Zm-47.43,0h-5.15V126.1h5.15Zm64.82,66.35h-5.14v21.73h5.14Zm-29.36,0h-5.15v21.73h5.15Zm11.7,89.22h-5.14v21.73h5.14Zm-42.22,0h-5.15v21.73h5.15Zm-31.25,0h-5.15v21.73h5.15Zm83.6,44.6h-5.15v21.74H1875Zm-48.14,0h-5.15v21.74h5.15ZM1880,359.45h-5.15v21.73H1880Zm-40.51,0h-5.15v21.73h5.15Zm35.46,51.47h-5.15v21.73h5.15Zm-22.88,74.35h-5.15V507h5.15Zm-59.48,65.2h-5.15V572.2h5.15Zm-1.14-56.05h-5.15v21.73h5.15ZM2111.52,35.74h-5.15V57.48h5.15Zm-26.5,0h-5.15V57.48H2085Zm-37.89,0H2042V57.48h5.14Zm-49.72,0h-5.15V57.48h5.15Zm-31,0h-5.14V57.48h5.14Zm110.84,54.91h-5.15v21.73h5.15Zm-43.61,0h-5.15v21.73h5.15Zm-61.51,0H1967v21.73h5.14Zm130.61,45.75h-5.15v21.73h5.15Zm-52.83,0h-5.14v21.73h5.14ZM2028.61,213h-5.15v21.73h5.15Zm-42.77,0h-5.15v21.73h5.15Zm-25.12,0h-5.15v21.73h5.15Zm22.87-37.75h-5.15V197h5.15ZM1990,311.41h-5.15v21.73H1990Zm-24.66,0h-5.15v21.73h5.15Zm10.29,51.47h-5.14v21.74h5.14Zm180.21-13.73h-5.14v21.74h5.14Zm-63.93,0h-5.14v21.74h5.14Zm-30.49,0h-5.15v21.74h5.15Zm67.17,48.05h-5.14v21.73h5.14Zm-43.15,0h-5.15v21.73h5.15Zm12.45,61.9h-5.15v21.73h5.15Zm-27.32,27.31h-5.14v21.74h5.14Zm57.08,119h-5.14V627.1h5.14Zm-27.78,0h-5.14V627.1h5.14Zm-27,0h-5.15V627.1h5.15Zm-89.27,40h-5.15v21.73h5.15Zm-32.27,0h-5.15v21.73h5.15Zm-64.9,0h-5.15v21.73h5.15Zm64.78,42.32H1946v21.73h5.15Zm-27,0H1919v21.73h5.15Zm121.71,106.38h-5.15v21.73h5.15Zm-29.4,0h-5.15v21.73h5.15Zm-57.07,0h-5.15v21.73h5.15Zm-36.19,0H1918v21.73h5.15Zm-58.53,0h-5.14v21.73h5.14Zm173,43.46h-5.15V859.3h5.15Zm-22.35,0h-5.15V859.3h5.15Zm-50,0h-5.15V859.3h5.15Zm25.31,58.33h-5.15v21.74h5.15Zm-24.08,0h-5.15v21.74h5.15Zm-33.26,0h-5.15v21.74h5.15Zm121.91,60.63H2050v21.73h5.14Zm-45.7,0h-5.14v21.73h5.14Zm-35,0h-5.15v21.73h5.15ZM2012.9,1000h-5.15v21.74h5.15Zm-43,0h-5.15v21.74h5.15Zm-34.32,82.36h-5.15v21.73h5.15Zm50,90.36h-5.14v21.73h5.14Zm-40.89,0h-5.15v21.73h5.15Zm11.44,62.91H1951v21.73h5.15Zm-18.3,97.23h-5.15v21.73h5.15Zm-91.66-179.58H1841V1175h5.14Zm-35.35,0h-5.15V1175h5.15Zm-29.7,0H1776V1175h5.14Zm61.65,60.62h-5.15v21.73h5.15Zm-36.48,0h-5.15v21.73h5.15Zm21.73-127h-5.15v21.74H1828Zm-13.73-61.76h-5.14v21.73h5.14Zm83,258.5h-5.15v21.73h5.15Zm-55,0h-5.14v21.73h5.14Zm-54.22,0h-5.15v21.73H1788Zm83.58,75.49h-5.15v21.74h5.15Zm-49.89,0h-5.14v21.74h5.14Zm-28,0h-5.14v21.74h5.14Zm41.63,58.34h-5.15v21.73h5.15Zm-24.47,0h-5.14v21.73h5.14ZM1952.1,1469H1947v21.74h5.14Zm-37.14,0h-5.15v21.74H1915Zm67.64,48h-5.15v21.74h5.15Zm-34.47,0H1943v21.74h5.14Zm1501.39-307.3h-5.15v21.73h5.15Zm-60.16,0h-5.15v21.73h5.15Zm24.4,27.44h-5.14v21.74h5.14Zm76.13,36.61h-5.15v21.73h5.15Zm-62.41,0h-5.14v21.73h5.14Zm-21.35,45.75H3401v21.73h5.15Zm68.7,41.18h-5.14v21.73h5.14Zm-27.44,0h-5.14v21.73h5.14Zm-30.58,0h-5.15v21.73h5.15Zm29,44.23h-5.14v21.73h5.14Zm55.24,48.8h-5.15v21.74H3501Zm-24.59,0h-5.15v21.74h5.15Zm-29.12,0h-5.14v21.74h5.14Zm-39.67-323.32h-5.15v21.73h5.15Zm-30.53,0H3372v21.73h5.14Zm-35.74,0h-5.15v21.73h5.15Zm-25.22,0H3311v21.73h5.15ZM3473.24,1562h-5.15v21.74h5.15Zm83.41,146.42h-5.14v21.73h5.14Zm-37,0h-5.15v21.73h5.15Zm-47.94,0h-5.15v21.73h5.15ZM3581,1752.63h-5.15v21.73H3581Zm-25.36,0h-5.15v21.73h5.15Zm-59.49,0H3491v21.73h5.14Zm50.3,57.95h-5.15v21.74h5.15Zm-54.87,0h-5.15v21.74h5.15Zm-7.69,80.84h-5.15v21.73h5.15Zm-53.31,0h-5.15v21.73h5.15Zm59.93,51.85h-5.15V1965h5.15Zm-40.11,0h-5.14V1965h5.14Zm-1449-181.49h-5.15v21.74h5.15Zm-57.59,0h-5.15v21.74h5.15Zm-55.42,0h-5.15v21.74h5.15Zm-43.9,0h-5.15v21.74h5.15Zm84,47.28h-5.15v21.73h5.15Zm-51.77,0h-5.15v21.73h5.15Zm-47.53,0H1824v21.73h5.14Zm92.66,80.84h-5.14v21.73h5.14Zm-38.24,0h-5.15v21.73h5.15Zm-39.16,0h-5.15v21.73h5.15Zm33.9,30.14h-5.15v21.73h5.15Zm-17.13,17.13h-5.15v21.73h5.15Zm4.58,48.8h-5.15v21.73h5.15Zm99.9-250.11h-5.15v21.73h5.15Zm-52.62,0h-5.15v21.73h5.15Zm47.27-32h-5.14v21.73h5.14ZM647.81,1270.7h-5.15v21.73h5.15Zm-58.62,0H584v21.73h5.15Zm-24.13,0h-5.14v21.73h5.14Zm-48.09,0h-5.15v21.73H517Zm-46.67,0h-5.14v21.73h5.14Zm157.86-36.6H623v21.73h5.14Zm-25.17,0h-5.15v21.73H603Zm-158.61,0h-5.15v21.73h5.15Zm173,86.93H612.2v21.73h5.14Zm-35,0H577.2v21.73h5.14Zm-34.26,0h-5.14v21.73h5.14Zm66.81,59.47h-5.15v21.74h5.15Zm-28.68,0h-5.14v21.74h5.14Zm4.58,41.19h-5.15v21.73h5.15Zm4.57,102.17h-5.14v21.74h5.14Zm75.55,56.44h-5.15V1602h5.15Zm-47.72,0H618V1602h5.15Zm-55.28,0h-5.14V1602h5.14Zm-44.75-115.91H518v21.73h5.15Zm-27.36,0h-5.15v21.73h5.15Zm-33.12,0h-5.15v21.73h5.15Zm12.2,32h-5.15v21.73h5.15Zm66,248.59h-5.15v21.73h5.15Zm-43.1,0h-5.15v21.73h5.15Zm53,36.6h-5.15v21.73h5.15Zm-34.7,0h-5.15v21.73h5.15Zm1.52,77.78h-5.15v21.73h5.15Zm-12.2,83.88h-5.14V1965h5.14Zm2911.79-370.22H3412v21.73h5.14Zm-48.4,0h-5.15v21.73h5.15ZM3400,1636h-5.15v21.74H3400Zm-23.19,0h-5.15v21.74h5.15Zm-32,276.81h-5.15v21.73h5.15Z" transform="translate(288.99 172.79)"/></g></g></g></svg>