<svg xmlns="http://www.w3.org/2000/svg" xmlns:xlink="http://www.w3.org/1999/xlink" viewBox="0 0 3707.59 1065.28"><defs><style>.cls-1{isolation:isolate;}.cls-2{mix-blend-mode:color-dodge;fill:url(#linear-gradient);}</style><linearGradient id="linear-gradient" x1="1853.8" y1="-700.33" x2="1853.8" y2="1457.88" gradientUnits="userSpaceOnUse"><stop offset="0"/><stop offset="0.15" stop-color="#000909"/><stop offset="0.4" stop-color="#002323"/><stop offset="0.71" stop-color="#004c4c"/><stop offset="1" stop-color="#007979"/></linearGradient></defs><g class="cls-1"><g id="Layer_2" data-name="Layer 2"><g id="Layer_1-2" data-name="Layer 1"><path class="cls-2" d="M3692.74,587V528h-8.51V510.4h.78v-3.31h-74.16v3.31h1.28V528h-38.5v-89.5h-15.94v-111h0v-3.75H3351.21V209.14h-101.6V142.22H3238V124h-13.1L3172.06,0l-52.81,124h-13.1v18.21h-10.29V530.3h-22.65V249.84h-13.87V235.59h6.92v-6.87H2930.6v-1H2921V154.87h-6.39V142.21h-24.75V121.07h-11.11V90.76h-8.85V27.35H2859.1V90.76h-8.86v30.31h-11.11v21.14h-24.74v12.66H2808v72.89h-9.59V422.85h-24.12V148.78h-9.42V91.54H2772V85.88H2525.32v5.66H2531v57.24h-11.45V507.09h-48.42v-76h-11.68V387.52h5.83V380h-14.85V367.32h-26.09V349.21H2403.6V311.33h-25.4v37.88h-20.79v18.11h-26.09V380h-15.24v7.56h5.82v43.55h-11.67V620.9h-13.92V211.72h-11.45V200h5.71v-5.67H2144.21V200h5.72v11.77h-11.45V428.23H2091v3.53h3.58V454h-14.46V569.49h-2.62v-9.91l-5.39-4.16-5.42,4.16v9.91h-10.43V354.75h-4.94v-11.7h4.94v-4.3h-16.15a59.6,59.6,0,0,0-58-59.57V248.34h4.51a1.65,1.65,0,0,0,1.65-1.66h0a1.65,1.65,0,0,0-1.65-1.65H1982v-1.11h4.51a1.65,1.65,0,1,0,0-3.3H1982v-5.68a1.54,1.54,0,0,0-3.08,0v5.68h-4.51a1.65,1.65,0,0,0,0,3.3H1979V245h-4.51a1.65,1.65,0,0,0-1.65,1.65h0a1.65,1.65,0,0,0,1.65,1.66H1979v30.84a59.6,59.6,0,0,0-58,59.57h-16.17v4.3h5v11.7h-5v32.77l-78,332.32v-60h0v-3.75H1620.29V541.46h-101.6V474.54h-11.64V456.32H1494l-52.81-124-52.81,124h-13.1v18.22h-10.29V862.62h-22.65V582.16h-13.87V567.9h6.92V561H1199.68v-1h-9.59V487.19h-6.39V474.53H1159V453.39h-11.11V423.08H1139V359.67h-10.82v63.41h-8.85v30.31h-11.11v21.14h-24.74v12.66h-6.39v72.89h-9.59V755.17h-24.12V481.1H1034V423.86h7.13v-5.67H794.4v5.67h5.71V481.1H788.67V839.41H740.25v-76H728.57V719.84h5.83v-7.57H719.55V699.64H693.46V681.53H672.68V643.64h-25.4v37.89H626.49v18.11H600.4v12.63H585.16v7.57H591v43.55H579.31V953.21H565.39V544H553.94V532.27h5.71V526.6H413.29v5.67H419V544H407.56V760.55H360v3.53h3.58v22.28H349.17V901.81h-2.62V891.9l-5.39-4.16-5.42,4.16v9.91H325.31V687.07h-4.94v-11.7h4.94v-4.3H309.16a59.58,59.58,0,0,0-58.05-59.57V580.65h4.51a1.65,1.65,0,0,0,1.65-1.65h0a1.65,1.65,0,0,0-1.65-1.65h-4.51v-1.11h4.51a1.66,1.66,0,0,0,0-3.31h-4.51v-5.67a1.54,1.54,0,0,0-3.08,0v5.67h-4.51a1.66,1.66,0,0,0,0,3.31H248v1.11h-4.51a1.65,1.65,0,0,0-1.65,1.65h0a1.65,1.65,0,0,0,1.65,1.65H248V611.5A59.58,59.58,0,0,0,190,671.07H173.81v4.3h4.95v11.7h-4.95v32.77H21.53v10.28h2.76v6.15H21.53L19.05,839.62,0,875v190.28l3707.59-.06V587Z"/></g></g></g></svg>