<svg width="4802" height="900" viewBox="0 0 4802 900" fill="none" xmlns="http://www.w3.org/2000/svg">
<path d="M4801 0H1V900H4801V0Z" fill="#8E0404"/>
<g style="mix-blend-mode:multiply" opacity="0.2">
<path d="M244 88.6001C112 94.4201 1 119.34 1 119.34V77.1301C102 48.6801 270.62 26.5201 387.63 44.3101C504.64 62.1001 624.63 79.7201 780.63 77.1301C936.63 74.5401 984.63 26.5201 1182.63 46.1301C1380.63 65.7401 1354.63 102.37 1513.63 97.7501C1672.63 93.1301 1850 2.4301 2122 58.2401C2394 114.05 2368 81.4801 2588 88.6001C2808 95.7201 2974.24 41.9301 3274.18 63.8901C3574.12 85.8501 3628.11 106.44 3934.05 64.1401C4239.99 21.8401 4415.82 58.0001 4623.92 82.3101C4705 91.7701 4753 90.1801 4801 77.1301V119.34C4564 176.44 4420.43 58.2001 3994 124.57C3824.42 150.96 3538 138.8 3440 131.68C3342 124.56 3152 55.4001 2798 118.24C2444 181.08 2138 115.24 2058 96.9001C1978 78.5601 1848 67.8001 1704 106.9C1560 146 1384.14 138.9 1276.15 108.43C1168.16 77.9601 1033.5 86.0301 942 109.12C850.5 132.21 683 138.12 596 132.84C509 127.56 376 82.7801 244 88.6001ZM190.26 472.67C270.26 491 601.19 542 963.69 499.5C1275.69 462.89 1478.25 520.65 1576.25 527.76C1674.25 534.87 1960.67 547.04 2130.25 520.65C2556.68 454.28 2690 594 2927 536.84C2927 536.84 3038 511.92 3170 506.1C3302 500.28 3445.27 523.61 3532.26 528.95C3619.25 534.29 3786.77 528.32 3878.26 505.23C3969.75 482.14 4104.41 474.09 4212.41 504.54C4320.41 534.99 4492.26 521.83 4636.26 482.7C4690.07 468.115 4745.31 459.476 4801 456.94V419.2C4660.84 430.97 4549.55 470.46 4446 473.47C4287 478.09 4317 461.73 4119 442.16C3921 422.59 3873 470.63 3717 473.16C3561 475.69 3430.71 479.54 3313.7 461.76C3196.69 443.98 3028 466.18 2927 494.64C2879 507.64 2831 509.27 2749.92 499.81C2541.83 475.53 2376.25 417.93 2070.32 460.22C1764.39 502.51 1710.38 482 1410.44 460C1110.5 438 973.69 477 753.69 469.89C533.69 462.78 526.26 489.89 254.26 434.04C159.4 414.54 76.06 412.9 1 419.2V456.94C76.82 453.47 142.46 461.72 190.26 472.67ZM675.14 275.51C873.14 295.07 929.07 229.42 1085.08 226.83C1241.09 224.24 1361.08 241.83 1478.08 259.66C1595.08 277.49 1760.74 241.57 1864.71 226.83C2276 168.51 2445.69 327.32 2880 267.28C3185.94 224.98 3091.62 218.1 3391.56 240.07C3691.5 262.04 3946 214.68 4166 221.8C4386 228.92 4275.74 210.23 4547.74 266.04C4642.61 285.5 4725.94 287.15 4801 280.85V243.1C4725.19 246.58 4659.54 238.33 4611.74 227.38C4531.74 209.04 4312 118.52 3958 181.38C3604 244.24 3462 184.94 3225.75 172.3C3127.42 167.04 2981.58 186.35 2812 212.75C2385.58 279.12 2294.08 122.42 1864.75 184.65C1864.75 184.65 1753.75 209.56 1621.75 215.39C1489.75 221.22 1356.75 176.45 1269.75 171.12C1182.75 165.79 1015.24 171.74 923.75 194.83C832.26 217.92 689.75 243.6 581.75 213.15C473.75 182.7 309.81 178.23 165.81 217.36C111.982 231.952 56.7138 240.584 1 243.1L1 280.85C141.16 269.08 244.55 247.21 348.11 244.2C507.13 239.58 477.12 255.94 675.14 275.51ZM4558 354.88C4426 360.7 4293 315.95 4206 310.61C4119 305.27 3951.49 311.23 3860 334.33C3768.51 357.43 3634 347.63 3526 317.18C3254.16 240.54 2930.76 432.25 2627.71 362.8C2017.31 222.93 2013.92 380.65 1361.99 311.8C1264.79 301.53 977.57 292.51 807.99 318.91C381.57 385.28 238 267 1 324.14V366.34C49 353.34 97 351.71 178.08 361.17C386.18 385.45 562.01 421.63 867.94 379.33C1173.87 337.03 1228.05 356.76 1527.81 379.58C2077.93 421.47 1988 284.5 2577.93 405.58C2849.93 461.38 3133.41 352.9 3292.43 348.28C3451.45 343.66 3421.43 360.02 3619.43 379.59C3817.43 399.16 3865.29 368.96 4021.3 366.37C4177.31 363.78 4297.3 381.37 4414.3 399.2C4531.3 417.03 4700 394.8 4801 366.34V324.14C4801 324.14 4690 349.05 4558 354.88ZM596 667C683 672.33 850.51 666.37 942 643.28C1033.49 620.19 1168.15 612.14 1276.15 642.59C1384.15 673.04 1552 703.43 1696 664.3C1840 625.17 1992 636.09 2072 654.42C2152 672.75 2444 715.23 2798 652.42C3152 589.61 3342 658.74 3440 665.85C3538 672.96 3824.42 685.13 3994 658.74C4420.43 592.37 4564 710.62 4801 653.51V611.27C4753 624.32 4705 625.91 4623.92 616.45C4415.82 592.17 4240 556 3934.06 598.28C3628.12 640.56 3574.13 620 3274.19 598C2974.25 576 2848 616.11 2628 609C2408 601.89 2376 642.58 2148 603.08C1874.37 555.67 1687 608.33 1528 612.95C1369 617.57 1380.72 599.8 1182.7 580.23C984.68 560.66 936.7 608.7 780.7 611.23C624.7 613.76 504.7 596.23 387.7 578.41C270.7 560.59 102 582.82 1 611.27V653.48C1 653.48 112 628.56 244 622.74C376 616.92 509 661.67 596 667ZM683 804.78C881 824.35 929 776.32 1085 773.78C1241 771.24 1361 788.78 1478 806.61C1595 824.44 1763.62 802.24 1864.63 773.78C1912.63 760.78 1960.63 759.15 2041.71 768.61C2249.81 792.89 2455.96 835.83 2761.89 793.53C3067.82 751.23 3091.62 765 3391.56 787C3691.5 809 3946 761.59 4166 768.71C4386 775.83 4275.74 757.14 4547.74 812.95C4642.61 832.41 4725.94 834.06 4801 827.76V790C4725.19 793.48 4659.54 785.23 4611.74 774.28C4531.74 755.94 4312 665.42 3958 728.28C3604 791.14 3462 731.83 3225.75 719.2C3127.42 713.94 2863.58 712.55 2694.01 738.95C2267.58 805.32 2101.75 674.43 1864.75 731.54C1864.75 731.54 1753.75 756.45 1621.75 762.28C1489.75 768.11 1356.75 723.35 1269.75 718.01C1182.75 712.67 1015.24 718.63 923.75 741.73C832.26 764.83 697.6 772.87 589.6 742.42C481.6 711.97 309.76 725.12 165.76 764.26C111.948 778.844 56.6965 787.476 1 790L1 827.75C141.16 816 252.45 776.5 356 773.49C515 768.87 485 785.23 683 804.79V804.78Z" fill="#0D23AF"/>
</g>
<path style="mix-blend-mode:screen" opacity="0.3" d="M4801 107.83H1V898.94H4801V107.83Z" fill="url(#paint0_linear)"/>
<path d="M49.54 590.74C66.44 512.74 82.54 565.28 91.32 610.65C100.1 656.02 126.63 542.3 140.85 506.76C155.07 471.22 174.63 583.76 188.63 639.93C202.63 696.1 222.63 664.74 242.63 567.75C262.63 470.76 272.63 498.32 274.14 526.45C275.65 554.58 287.64 640.45 299.64 590.74C311.64 541.03 324.89 600.9 329.64 649.47C334.39 698.04 352.14 570.88 371.64 514.92C391.14 458.96 389.64 566.44 406.13 606.81C422.62 647.18 428.63 561.99 437.63 493.81C446.63 425.63 458.63 495.41 470.63 548.81C482.63 602.21 505.13 674.61 518.63 614.97C532.13 555.33 528.63 615.43 550.63 650.36C572.63 685.29 570 572.08 592 535.28C614 498.48 616.66 660.79 627.27 649.47C637.88 638.15 649 618.15 675 664.83C701 711.51 712.63 514.66 736 459.57C759.37 404.48 776.4 530.38 782 581.3C787.6 632.22 808 601.56 824.8 548.75C841.6 495.94 844.64 518.61 861.44 632.45C878.24 746.29 908.64 475.16 930.52 413.95C952.4 352.74 974.64 536.38 981.3 590.74C987.96 645.1 988.64 581.8 1008.64 535.28C1028.64 488.76 1044.69 617.47 1046.64 648.96C1048.59 680.45 1082.64 627.22 1095.46 648.96C1108.28 670.7 1144.61 646.96 1151.39 617.26C1158.17 587.56 1170.61 540.33 1186.61 580.09C1202.61 619.85 1192.61 536.38 1214.61 456.5C1236.61 376.62 1237.01 563.6 1264.61 639.93C1292.21 716.26 1278.61 591.67 1304.68 524.51C1322.25 479.28 1330.06 612.31 1348.61 652.77C1373.94 708.03 1384.17 606.31 1390.61 583.31C1397.05 560.31 1412.61 591.67 1416.61 639.93C1420.61 688.19 1448.61 637.09 1460.61 590.74C1472.61 544.39 1480.61 463.31 1503.89 524.51C1527.17 585.71 1527.78 540.89 1534.61 485.25C1541.44 429.61 1558.06 548.66 1571.56 590.74C1585.06 632.82 1574.56 597.54 1594.06 557.55C1613.56 517.56 1607.18 573.87 1628.86 610.65C1650.54 647.43 1642.08 571.38 1665.38 534.55C1688.68 497.72 1710.61 668.69 1725.7 624.07C1740.79 579.45 1748.61 554.15 1760.61 589.76C1772.61 625.37 1768.61 593.65 1794.61 509.65C1820.61 425.65 1842.61 625.24 1848.61 669.08C1854.61 712.92 1870.61 617.35 1900.61 571.08C1930.61 524.81 1936.04 609.41 1943.54 642.48C1951.04 675.55 1960.61 629.21 1974.61 606.97C1988.61 584.73 1997.61 659.82 2017.61 659.82C2037.61 659.82 2048.15 634.15 2054.52 662.82C2060.89 691.49 2069.59 652.34 2082.61 628.45C2095.63 604.56 2092.61 575.94 2107.61 607.01C2122.61 638.08 2116.61 579.89 2127.61 542.36C2138.61 504.83 2162.61 646.04 2170.68 674.67C2178.75 703.3 2185.61 639.13 2194.61 610.67C2203.61 582.21 2207.61 613.42 2215.61 642.48C2223.61 671.54 2241.24 623.79 2243.28 597.15C2245.32 570.51 2256.61 562.73 2260.61 593.67C2264.61 624.61 2264.78 682.07 2291.61 659.61C2318.44 637.15 2334.99 700.22 2350.45 628.16C2365.91 556.1 2369.78 633.61 2380.31 669.16C2390.84 704.71 2392.58 610.66 2413.6 565.98C2434.62 521.3 2442.98 656.79 2450.48 680.49C2457.98 704.19 2457.17 660.49 2471.2 623.42C2485.23 586.35 2494.6 684.51 2508 670C2521.4 655.49 2515.61 637.09 2537.61 660.79C2559.61 684.49 2543.32 622.47 2561.61 597.13C2579.9 571.79 2585.94 661.45 2599.86 677.25C2613.78 693.05 2613.61 642.46 2627.28 617.35C2640.95 592.24 2647 659.74 2666.5 652.77C2686 645.8 2689.5 619.6 2707 652.77C2724.5 685.94 2725 616.77 2735.5 571.66C2746 526.55 2759.5 600.5 2771.5 649.23C2783.5 697.96 2780.44 588.23 2791 535.23C2801.56 482.23 2810.49 561.94 2818 628.34C2825.51 694.74 2828.5 606.34 2843.45 612.61C2858.4 618.88 2845 671.54 2869.06 677.47C2893.12 683.4 2888.5 610.82 2902 562.79C2915.5 514.76 2931.95 623.22 2940.62 658.79C2949.29 694.36 2959.12 629.66 2965.9 602.5C2972.68 575.34 2987.62 653.85 2994.62 670.63C3001.62 687.41 3010.62 673.63 3017.62 659.77C3024.62 645.91 3034.62 642.99 3038.62 662.77C3042.62 682.55 3049.62 665.77 3055.62 660.77C3061.62 655.77 3058.62 620.29 3063.62 589.77C3068.62 559.25 3082.62 628.54 3082.62 642.47C3082.62 656.4 3094.62 679.89 3094.62 671.34C3094.62 662.79 3101.12 653.34 3102.12 660.8C3103.12 668.26 3107.12 685.98 3112.62 683.51C3118.12 681.04 3119.29 656.85 3125.29 633.15C3131.29 609.45 3138.62 654.21 3139.95 675.28C3141.28 696.35 3150.62 672.65 3158.62 628.4C3166.62 584.15 3173.95 640.4 3174.62 660.8C3175.29 681.2 3189.29 664.8 3191.95 652.8C3194.61 640.8 3197.29 632.51 3202.62 649.26C3207.95 666.01 3218.62 683.86 3225.17 678.59C3231.72 673.32 3242 657.5 3250 681.2C3258 704.9 3264 647.63 3268.67 628.39C3273.34 609.15 3271.34 587.72 3288.48 649.23C3305.62 710.74 3301.17 614.38 3309.17 589.76C3317.17 565.14 3316.67 598.09 3328.06 622.52C3339.45 646.95 3346.15 645.63 3348.58 620.52C3351.01 595.41 3357.1 634.52 3360.21 649.26C3363.32 664 3373.67 671.68 3374.67 662.79C3375.67 653.9 3388.67 645.02 3392.67 655.88C3396.67 666.74 3411.67 657.88 3411.67 644.03C3411.67 630.18 3424.67 536.41 3430.67 614.41C3436.67 692.41 3448.67 648.97 3457.67 634.16C3466.67 619.35 3474.58 668.16 3484.34 685.33C3494.1 702.5 3499.67 673.66 3506.98 663.33C3514.29 653 3516.71 645.08 3520.76 661.82C3524.81 678.56 3532.3 660.91 3535.67 642.07C3539.04 623.23 3542.67 625.28 3550.62 642.07C3558.57 658.86 3554.67 681.56 3569.25 671.69C3583.83 661.82 3588 666.75 3598.37 688.48C3608.74 710.21 3607.67 679.59 3614.65 659.14C3621.63 638.69 3629.65 652.93 3633.65 681.56C3637.65 710.19 3651.65 625.28 3657.65 598.71C3663.65 572.14 3672.65 637.13 3681.83 660.98C3691.01 684.83 3693.65 649.98 3701.26 637.13C3708.87 624.28 3714.52 662.77 3722.65 685.98C3730.78 709.19 3736.65 671.69 3743.65 656.88C3750.65 642.07 3756.65 658.88 3763.65 677.62C3770.65 696.36 3786.65 614.75 3793.32 596.98C3799.99 579.21 3812.65 631.21 3823.32 649.27C3833.99 667.33 3830.65 631.16 3837.32 624.44C3843.99 617.72 3852.2 678.87 3861.44 675.64C3880.59 668.95 3875.65 648.98 3883.65 623.49C3891.65 598 3898.65 643.06 3898.65 661.82C3898.65 680.58 3908.65 665.82 3912.65 642.07C3916.65 618.32 3925.65 652.93 3930.08 677.62C3934.51 702.31 3954.65 650.96 3956.65 636.15C3958.65 621.34 3959.65 621.33 3973.65 643.06C3987.65 664.79 3993.65 661.82 4007.65 649.27C4021.65 636.72 4021.3 654.27 4037.75 674.49C4054.2 694.71 4052.61 631.25 4060.65 610.33C4068.69 589.41 4072.65 610.49 4079.03 639.2C4085.41 667.91 4093.65 662.8 4102.65 642.07C4111.65 621.34 4112.65 678.6 4138.65 685.51C4164.65 692.42 4147.65 620.35 4159.65 598.71C4171.65 577.07 4174.65 652.93 4190.65 671.71C4206.65 690.49 4211.21 609.56 4213.32 589.82C4215.43 570.08 4223.32 575.27 4228.65 610.35C4233.98 645.43 4249.32 650.35 4254.65 628.45C4259.98 606.55 4269.32 611.45 4271.98 643.74C4274.64 676.03 4298.65 700.34 4312.56 642.52C4326.47 584.7 4324.15 591.39 4340.65 623.52C4357.15 655.65 4370.76 668.67 4375.35 649.3C4379.94 629.93 4390.65 615.44 4393.93 652.84C4397.21 690.24 4433.04 643.15 4448.65 581.37C4464.26 519.59 4454.55 655.01 4493.32 649.3C4508.65 647.04 4514.48 593.72 4519.98 575.95C4525.48 558.18 4527.66 587.42 4532.49 606.03C4537.32 624.64 4546.65 629.91 4550.65 606.22C4554.65 582.53 4560.52 594.82 4563.25 613.36C4565.98 631.9 4572.65 647.61 4579.98 649.3C4587.31 650.99 4593.98 585.95 4597.32 571.73C4600.66 557.51 4606.65 535.63 4608.65 598.73C4610.65 661.83 4638.94 706.73 4655.44 628.45C4671.94 550.17 4674.94 476.23 4688.44 571.72C4701.94 667.21 4710.06 625.21 4717.25 595.11C4724.44 565.01 4739.98 629.83 4742.65 649.29C4745.32 668.75 4753.65 690.47 4759.13 668.75C4791.39 541.75 4776.3 656.9 4801.02 656.9V770.62H1V656.84C14.64 656.84 32.63 668.69 49.54 590.74Z" fill="url(#paint1_linear)"/>
<path d="M4801 0V221.41C4787.36 221.41 4767.89 250.2 4750.51 348.53C4736.63 427.07 4698.14 240 4689.37 194.63C4680.6 149.26 4675.37 290.08 4661.15 325.63C4646.93 361.18 4627.37 294.48 4613.37 238.33C4599.37 182.18 4579.37 89.76 4559.37 186.75C4539.37 283.74 4529.37 256.18 4527.86 228.05C4526.35 199.92 4507.64 183.63 4499.37 234.12C4471.43 404.65 4467.11 237.21 4462.37 188.64C4457.63 140.07 4449.87 213.42 4430.37 269.37C4410.87 325.32 4412.37 217.86 4395.88 177.49C4379.39 137.12 4373.38 222.3 4364.38 290.54C4355.38 358.78 4345.14 352.79 4336.52 298.76C4321.52 204.5 4296.88 203.7 4283.38 263.35C4269.88 323 4270.85 214.22 4248.88 179.29C4226.91 144.36 4232 306.17 4210 343C4188 379.83 4173.83 78.56 4154.34 159.49C4120.34 300.78 4133.71 178.14 4107.72 131.49C4081.73 84.84 4075.43 261.75 4052.02 316.83C4028.61 371.91 4025.53 347.94 4020.02 297.02C4014.51 246.1 4004.44 209.48 3987.65 262.28C3970.86 315.08 3960.42 305.04 3943.65 191.19C3926.88 77.34 3905.17 164.92 3871.53 268.9C3851.53 330.74 3827.41 341.9 3820.75 287.58C3814.09 233.26 3813.41 296.51 3793.41 343.03C3773.41 389.55 3757.41 260.84 3755.41 229.35C3753.41 197.86 3719.41 251.09 3706.59 229.35C3693.77 207.61 3669.97 144.9 3654.38 234.14C3637.09 333.14 3631.04 298.72 3624.97 256.36C3602.97 103.03 3603.75 314.46 3587.44 421.81C3575 503.67 3565.04 314.71 3537.44 238.39C3509.84 162.07 3523.44 286.64 3497.37 353.8C3479.8 399.03 3471.99 266 3453.44 225.54C3428.11 170.29 3417.88 272.01 3411.44 295C3405 317.99 3389.44 286.64 3385.44 238.39C3384.93 231.859 3383.58 225.421 3381.44 219.23C3380.7 218.048 3380.19 216.739 3379.93 215.37C3378.21 211.283 3375.93 207.453 3373.16 203.99C3371.28 207.36 3369.54 216.99 3367.4 231.18C3363.06 260.01 3352.4 286.51 3348.4 256.89C3344.4 227.27 3329.3 221.89 3324.9 247.95C3317.9 307.01 3317.96 405.95 3298.12 353.81C3274.83 292.6 3274.23 337.43 3267.4 393.07C3260.57 448.71 3243.95 329.66 3230.45 287.59C3216.95 245.52 3227.45 280.79 3207.95 320.77C3188.45 360.75 3194.83 304.45 3173.15 267.67C3151.47 230.89 3159.93 306.94 3136.63 343.77C3113.33 380.6 3091.4 209.63 3076.31 254.25C3061.22 298.87 3053.4 324.17 3041.4 288.57C3029.4 252.97 3033.4 284.68 3007.4 368.67C2981.4 452.66 2959.4 253.08 2953.4 209.24C2947.4 165.4 2931.4 260.98 2901.4 307.24C2871.4 353.5 2865.97 268.91 2858.47 235.83C2850.97 202.75 2841.4 249.1 2827.4 271.35C2813.4 293.6 2804.4 218.49 2784.4 218.49C2764.4 218.49 2753.86 244.16 2747.49 215.49C2741.12 186.82 2732.42 225.98 2719.4 249.86C2706.38 273.74 2709.4 302.38 2694.4 271.31C2679.4 240.24 2685.4 298.43 2674.4 335.95C2663.4 373.47 2639.4 232.27 2631.33 203.64C2623.26 175.01 2616.4 239.19 2607.4 267.64C2598.4 296.09 2594.4 264.9 2586.4 235.83C2578.4 206.76 2560.77 254.52 2558.73 281.16C2556.69 307.8 2545.4 315.58 2541.4 284.65C2537.4 253.72 2537.23 196.25 2510.4 218.71C2483.57 241.17 2467.02 178.1 2451.56 250.16C2436.1 322.22 2432.23 244.71 2421.7 209.16C2411.17 173.61 2409.43 267.66 2388.41 312.34C2367.39 357.02 2359.03 221.53 2351.53 197.84C2344.03 174.15 2344.84 217.84 2330.81 254.91C2316.78 291.98 2307.46 193.81 2294.04 208.31C2280.62 222.81 2286.43 241.22 2264.43 217.52C2242.43 193.82 2258.72 255.84 2240.43 281.18C2222.14 306.52 2216 216.8 2202.12 201C2188.24 185.2 2188.37 235.79 2174.7 260.91C2161.03 286.03 2154.98 218.51 2135.48 225.48C2115.98 232.45 2112.48 258.66 2094.98 225.48C2077.48 192.3 2076.98 261.48 2066.48 306.59C2055.98 351.7 2042.48 277.75 2030.48 229.03C2018.48 180.31 2021.54 290 2011 343C2000.46 396 1991.51 316.29 1984 249.89C1976.49 183.49 1973.5 271.89 1958.55 265.63C1943.6 259.37 1957 206.69 1932.94 200.77C1908.88 194.85 1913.5 267.42 1900 315.44C1886.5 363.46 1870 255.01 1861.38 219.44C1852.76 183.87 1842.88 248.57 1836.1 275.72C1829.32 302.87 1814.38 224.38 1807.38 207.59C1800.38 190.8 1791.38 204.59 1784.38 218.45C1777.38 232.31 1767.38 235.24 1763.38 215.45C1759.38 195.66 1752.38 212.45 1746.38 217.45C1740.38 222.45 1743.38 257.94 1738.38 288.45C1733.38 318.96 1719.38 249.67 1719.38 235.74C1719.38 221.81 1707.38 198.33 1707.38 206.88C1707.38 215.43 1700.88 224.82 1699.88 217.41C1698.88 210 1694.88 192.24 1689.38 194.7C1683.88 197.16 1682.71 221.36 1676.71 245.06C1670.71 268.76 1663.37 224.05 1662 203C1660.63 181.95 1651.33 205.64 1643.33 249.88C1635.33 294.12 1628 237.88 1627.33 217.48C1626.66 197.08 1612.66 213.48 1610 225.48C1607.34 237.48 1604.66 245.77 1599.33 229.03C1594 212.29 1583.33 194.43 1576.78 199.69C1570.23 204.95 1560 220.75 1552 197.05C1544 173.35 1538 230.63 1533.33 249.86C1528.66 269.09 1530.66 290.53 1513.52 229.03C1496.38 167.53 1500.83 263.87 1492.83 288.5C1484.83 313.13 1485.33 280.16 1473.94 255.73C1462.55 231.3 1455.85 232.62 1453.42 257.73C1450.99 282.84 1444.9 243.73 1441.79 229C1438.68 214.27 1428.33 206.57 1427.33 215.46C1426.33 224.35 1413.33 233.23 1409.33 222.37C1405.33 211.51 1390.33 220.37 1390.33 234.22C1390.33 248.07 1377.33 341.84 1371.33 263.84C1365.33 185.84 1353.33 229.28 1344.33 244.09C1335.33 258.9 1327.42 210.09 1317.66 192.93C1307.9 175.77 1302.33 204.6 1295.02 214.93C1287.71 225.26 1285.29 233.17 1281.24 216.44C1277.19 199.71 1269.7 217.34 1266.33 236.18C1262.96 255.02 1259.33 252.97 1251.38 236.18C1243.43 219.39 1247.33 196.69 1232.75 206.56C1218.17 216.43 1214 211.5 1203.63 189.78C1193.26 168.06 1194.33 198.66 1187.35 219.11C1180.37 239.56 1172.35 225.32 1168.35 196.69C1164.35 168.06 1150.35 252.97 1144.35 279.54C1138.35 306.11 1129.35 241.12 1120.17 217.28C1110.99 193.44 1108.35 228.28 1100.74 241.12C1093.13 253.96 1087.48 215.49 1079.35 192.28C1071.22 169.07 1065.35 206.56 1058.35 221.37C1051.35 236.18 1045.35 219.37 1038.35 200.64C1031.35 181.91 1015.35 263.5 1008.68 281.28C1002.01 299.06 989.35 247.05 978.68 228.99C968.01 210.93 971.35 247.09 964.68 253.82C958.01 260.55 949.8 199.38 940.56 202.61C921.41 209.31 926.35 229.27 918.35 254.77C910.35 280.27 903.35 235.2 903.35 216.44C903.35 197.68 893.35 212.49 889.35 236.18C885.35 259.87 876.35 225.32 871.92 200.64C867.49 175.96 847.35 227.3 845.35 242.11C843.35 256.92 842.35 256.92 828.35 235.2C814.35 213.48 808.35 216.44 794.35 228.99C780.35 241.54 780.7 223.99 764.25 203.77C747.8 183.55 749.39 247.01 741.35 267.93C733.31 288.85 729.35 267.76 722.97 239.06C716.59 210.36 708.35 215.45 699.35 236.18C690.35 256.91 689.35 199.65 663.35 192.74C637.35 185.83 654.35 257.91 642.35 279.54C630.35 301.17 627.35 225.32 611.35 206.54C595.35 187.76 590.79 268.7 588.68 288.44C586.57 308.18 578.7 303 573.37 268C568.04 233 552.7 228 547.37 249.89C542.04 271.78 532.7 266.89 530.04 234.61C527.38 202.33 503.37 178 489.46 235.82C475.55 293.64 477.87 286.96 461.37 254.82C444.87 222.68 431.26 209.66 426.67 229.04C422.08 248.42 411.37 262.89 408.09 225.49C404.81 188.09 369 235.18 353.37 297C337.74 358.82 347.47 223.35 308.7 229.07C293.37 231.33 287.54 284.65 282.04 302.42C276.54 320.19 274.36 290.94 269.53 272.33C264.7 253.72 255.37 248.46 251.37 272.15C247.37 295.84 241.5 283.54 238.77 265.01C236.04 246.48 229.37 230.71 222 229C214.63 227.29 208 292.35 204.66 306.56C201.32 320.77 195.33 342.66 193.33 279.56C191.33 216.46 163.04 171.56 146.54 249.84C130.04 328.12 127.04 402.06 113.54 306.57C100.04 211.08 92 253.11 84.77 283.2C77.54 313.29 62 248.49 59.37 229C56.74 209.51 48.37 187.81 42.89 209.53C10.65 336.42 32.56 221.41 1 221.41V0H4801Z" fill="url(#paint2_linear)"/>
<path d="M4801 757.34H1V871.05H4801V757.34Z" fill="url(#paint3_linear)"/>
<path opacity="0.7" d="M3991.15 821.44C3975.65 823.44 3915.99 822.6 3887.32 821.44C3858.65 820.28 3864.15 812.8 3869.9 809.35C3875.65 805.9 3868.9 802.93 3857.65 802.44C3846.4 801.95 3794.65 802.44 3782.15 798.24C3769.65 794.04 3787.9 787.63 3792.9 786.14C3797.9 784.65 3805.15 779.48 3790.65 777.26C3776.15 775.04 3734 774.06 3717 774C3700 773.94 3696.66 771.28 3762.33 770.62C3803.08 770.21 3836.48 777.48 3805.07 786.89C3773.66 796.3 3818.57 796.95 3839.78 796.95C3860.99 796.95 3900.66 798.76 3883.16 809.13C3865.66 819.5 3912.66 817.02 3935.66 819.49C3958.66 821.96 4006.65 819.47 3991.15 821.44ZM4330 817.37C4311.34 819.37 4263.17 814.45 4279.84 804.58C4296.51 794.71 4226 793 4204.7 791.34C4183.4 789.68 4176.7 787.71 4194.7 779.15C4212.7 770.59 4129.37 770.27 4109.87 770.76C4090.37 771.25 4061.87 773.76 4084.16 786.06C4106.45 798.36 4031.85 792.81 3984.87 791.34C3943.37 790.05 4051.87 801.34 4084.16 799.89C4116.45 798.44 4105.87 790.51 4092.51 780.89C4079.15 771.27 4159.37 776.89 4173.37 776.89C4187.37 776.89 4179.37 780.51 4172.37 784.13C4165.37 787.75 4158.7 792.36 4185.37 795.32C4212.04 798.28 4240.03 797.62 4260.03 799.6C4284.47 802.01 4253.12 809.8 4203.03 809.14C4173.03 808.75 4111.03 820.66 4152.37 828.56C4193.71 836.46 4316.46 832.87 4246.7 831.08C4183.39 829.46 4115.87 822.64 4185.37 815.73C4204.99 813.73 4263 814.83 4276.28 816.57C4308.94 821.97 4379.11 822.64 4429.37 822.64C4490.37 822.6 4348.7 815.36 4330 817.37ZM3713.72 799.9H3711.56C3663.56 799.56 3591.22 797.61 3575.22 799.9C3559.22 802.19 3591.22 805.97 3618.22 805.31C3645.22 804.65 3775.73 800.65 3713.72 799.9ZM3607.37 778.16C3587.87 782.61 3582.12 785.78 3601.87 785.08C3620.21 784.42 3669.37 773.47 3625.37 768.71C3594.37 765.35 3589.87 764.84 3575.37 765.33C3560.87 765.82 3563.87 769.98 3579.37 770.62C3594.87 771.26 3626.87 773.72 3607.37 778.16Z" fill="#FF4E00"/>
<path opacity="0.7" d="M1006.1 809.35C955.94 812.35 885.86 815.93 852.93 812.52C839.56 811.58 781.59 814.02 762.13 817.15C693.19 828.23 761 831 824.3 828.78C894.04 826.36 771.73 837.34 729.99 831.94C688.25 826.54 749.39 810.94 779.36 809.51C829.36 807.15 860.21 797.51 835.66 796.51C815.58 795.74 787.66 798.09 760.87 796.74C734.08 795.39 740.44 790.39 747.2 786.35C753.96 782.31 761.73 778.22 747.75 779.06C733.77 779.9 653.37 779.06 667.3 787.92C681.23 796.78 692.3 804.01 660.13 807.43C627.96 810.85 519 806.13 560.5 804.92C607.5 803.56 682.29 804.65 659.28 793.68C636.27 782.71 664.56 778.52 684 776.85C703.44 775.18 786.63 770.49 769.19 780.12C751.75 789.75 758.53 791.34 779.92 791.68C801.31 792.02 871.79 789.51 855.77 800.37C839.75 811.23 888.84 807.98 908.22 807.97C927 808 1067 805.67 1006.1 809.35ZM511.53 819.46C488.53 816.99 441.53 819.46 459.03 809.1C476.53 798.74 436.86 796.92 415.65 796.92C394.44 796.92 349.53 796.27 380.94 786.86C412.35 777.45 378.94 770.19 338.19 770.59C272.53 771.25 275.86 773.88 292.86 773.97C309.86 774.06 352 775 366.53 777.26C381.06 779.52 373.78 784.66 368.78 786.14C363.78 787.62 345.53 794 358 798.24C370.47 802.48 422.25 801.94 433.5 802.44C444.75 802.94 451.5 805.89 445.75 809.35C440 812.81 434.5 820.29 463.16 821.44C491.82 822.59 551.5 823.44 567 821.44C582.5 819.44 534.53 821.94 511.53 819.46ZM313 807.41L310.83 807.3C262.91 804.67 190.75 799.3 174.66 800.79C158.57 802.28 113.97 805.01 217.35 808.25C244.29 809.1 374.85 811.12 313 807.41ZM183.24 778.17C163.74 782.61 157.99 785.78 177.74 785.08C196.08 784.42 245.24 773.48 201.24 768.71C170.24 765.35 165.74 764.84 151.24 765.33C136.74 765.82 139.74 769.98 155.24 770.62C170.74 771.26 202.74 773.72 183.24 778.17Z" fill="#FF4E00"/>
<path d="M1 0H559.36C551.27 11.79 541.58 21.71 513.82 23.51C464.27 26.75 469.37 75.2 463.37 141.75C457.37 208.3 443.37 209.27 426.67 130.44C409.97 51.61 391.37 49.36 387.18 85.07C382.99 120.78 363.37 244.81 345.37 239C312.68 228.38 313.23 73.43 289.07 42.51C264.91 11.59 257.57 111.56 241.29 141.79C225.01 172.02 217.07 89 196.08 45.45C175.09 1.9 161.58 67.91 155.58 95.77C149.58 123.63 139.08 134.54 130.08 111.52C121.08 88.5 118.08 73.97 105.19 130.44C92.3 186.91 92.58 212.07 73.08 167.38C53.58 122.69 59.58 42.47 38.34 45.54C17.1 48.61 17.58 141.75 1 141.75V0ZM642 0C646.712 7.87587 649.904 16.5664 651.41 25.62C657.41 62.1 673.76 186.17 685.41 138.21C697.06 90.25 696.71 17.66 731.41 23.43C755.41 27.43 759.76 153.79 779.52 88.43C799.28 23.07 816.93 -5.93 837.41 16.75C865.41 47.75 854.58 254.75 886.08 206.43C917.58 158.11 911.54 78 925 117C938.46 156 958.88 174.26 962.5 149.09C967.33 115.41 1000.98 20.61 1016.88 70.2C1032.78 119.79 1053.33 74.06 1067.33 46.05C1081.33 18.04 1101.33 15.38 1127.33 79.4C1153.33 143.42 1160.78 220.85 1173.9 168.93C1187.02 117.01 1187.9 16.13 1211.47 40.72C1235.04 65.31 1244.02 169.28 1255.68 107.67C1267.34 46.06 1307.48 22.35 1325.48 70.2C1343.48 118.05 1378.32 256.09 1399.15 207.08C1419.98 158.07 1413.15 77.2 1441.79 107.67C1470.43 138.14 1474 127.09 1492 83.09C1510 39.09 1516.15 19.09 1540.08 46.09C1564.01 73.09 1576.08 82.29 1576.81 62.19C1577.54 42.09 1632.99 28.73 1627.36 87.11C1621.73 145.49 1651 263.91 1669 164C1687 64.09 1698.25 124.5 1712.12 140.81C1725.99 157.12 1729 147.11 1733.5 121.1C1738 95.09 1752.83 42.38 1769.41 61.74C1785.99 81.1 1793.5 130.34 1799.5 107.74C1805.5 85.14 1818.68 73.74 1836.09 131.43C1853.5 189.12 1892.09 320.94 1910.73 255.55C1929.37 190.16 1911.12 67.36 1948.24 131.43C1985.36 195.5 1999.37 222.21 2003.37 183.5C2007.37 144.79 2009.37 62.94 2031.37 88.8C2053.37 114.66 2073.24 62.9 2112.13 53.11C2151.02 43.32 2173 37.69 2191 72.89C2209 108.09 2236.09 221.75 2240.5 173.11C2244.91 124.47 2242.27 51.11 2257.14 82.11C2272.01 113.11 2279.54 143.11 2289.27 86.11C2299 29.11 2351.05 23.11 2362.53 54.11C2374.01 85.11 2388.28 97.11 2396.14 68.11C2404 39.11 2423.86 10.46 2443.89 54.11C2463.92 97.76 2483.8 268.35 2501.4 225.7C2519 183.05 2516.68 61.26 2537.23 107.7C2557.78 154.14 2565.37 203.58 2582.45 149.58C2599.53 95.58 2615.23 -0.59 2631.3 42.09C2647.37 84.77 2657.72 73.86 2663.54 59.98C2669.36 46.1 2669.35 28.58 2695.37 43.43C2721.39 58.28 2749.67 89.79 2781.52 55.27C2813.37 20.75 2875.37 16 2905.37 61.73C2935.37 107.46 2972.37 269.14 2986.54 197.32C3000.71 125.5 3011.37 86.11 3021.37 114.12C3031.37 142.13 3051.37 151.46 3053.37 115.45C3055.37 79.44 3091.27 118.45 3096.37 168.97C3101.47 219.49 3115.89 292.31 3136.65 243.23C3157.41 194.15 3150.95 48.42 3173.17 82.11C3195.39 115.8 3215.17 233.69 3231.42 175.47C3247.67 117.25 3307.42 -2.99 3333.42 46.23C3359.42 95.45 3379.25 216.92 3401.42 134.12C3423.59 51.32 3461.42 122.45 3471.42 168.97C3481.42 215.49 3497.75 284.47 3523.05 197.32C3548.35 110.17 3536.76 -8.34 3570.99 25.62C3605.22 59.58 3629.91 93.72 3644.63 59.92C3659.35 26.12 3704.07 23.83 3713.22 48.13C3722.37 72.43 3749.11 194.94 3772.07 149.59C3795.03 104.24 3795.07 18.45 3820.76 44.13C3861.42 84.77 3862.76 154.68 3884.04 122.73C3905.32 90.78 3944.2 119.45 3963.81 175.47C3983.42 231.49 3994.35 133.78 4006.69 107.71C4019.03 81.64 4049 4.71 4084.21 52.76C4119.42 100.81 4114.27 161.26 4132.04 116.76C4149.81 72.26 4169.42 29.31 4177.42 61.76C4185.42 94.21 4180.74 163.76 4210.08 181.62C4239.42 199.48 4232.56 28.78 4302.99 20.78C4373.42 12.78 4383.31 148.04 4413.36 118.42C4443.41 88.8 4431.19 2 4464.62 42.19C4498.05 82.38 4522.62 269.24 4557.99 239.69C4593.36 210.14 4577.46 82.69 4623.92 55.6C4649.37 40.76 4652.16 73.5 4661.15 117.04C4670.14 160.58 4681.36 219.77 4697.29 191.63C4713.22 163.49 4735.56 59.43 4752.46 80.77C4769.36 102.11 4783.93 141.77 4801 141.77V0H642Z" fill="url(#paint4_linear)"/>
<path opacity="0.7" d="M1672.35 826.1C1652.98 825.67 1560.68 826.1 1593.85 812.1C1611.2 804.79 1594.6 799.63 1541.27 798.97C1487.94 798.31 1524.36 795.97 1545.02 795.19C1586.68 793.62 1620.02 799.48 1612.68 806.79C1605.34 814.1 1596.68 814.42 1607.35 817.79C1618.02 821.16 1658.52 822.27 1662.52 822.12C1666.52 821.97 1731.68 827.42 1672.35 826.1Z" fill="#FF4E00"/>
<path opacity="0.7" d="M1893.82 795.88C1903.42 795.88 1976.98 797.59 1953.59 802.23C1941.28 804.68 1926.48 815.78 1957.92 815.78C1977.07 815.78 2030.99 817.42 2017.25 815.78C2003.51 814.14 1932.85 811.7 1950.37 807.2C1987.22 797.75 1960.37 795.76 1953.06 794.85C1921.44 790.94 1878.36 795.81 1893.82 795.88Z" fill="#FF4E00"/>
<path opacity="0.7" d="M1910.15 769.18C1885.49 769.76 1837.59 769.18 1853.69 774.55C1874.12 781.36 1862.39 780.55 1846.44 781.13C1830.49 781.71 1787.26 779.99 1797.7 784.57C1807.01 788.66 1811.93 789.79 1797.45 793.23C1816.62 793.07 1836.11 793.79 1852.53 795.87C1878.35 799.15 1856.01 807.78 1835.99 812.65C1815.97 817.52 1854.27 818.65 1871.68 820.65C1889.09 822.65 1895.47 822.36 1889.37 823.41C1883.27 824.46 1844.99 821.22 1826.13 819.21C1807.27 817.2 1821.49 809.21 1830.48 808.75C1839.47 808.29 1856.59 803.75 1848.48 799.82C1841.48 796.46 1806.34 794.63 1777.87 796.82C1742.67 801.36 1619.4 796.54 1655.7 784.59C1676.15 777.86 1679.2 778.08 1670.93 776.36C1662.66 774.64 1640.45 771.57 1613.49 771.13C1572.88 770.46 1592.24 769.2 1625.38 769.2C1653.96 769.2 1706.83 775.5 1681.81 780.44C1621.03 792.44 1735.71 796.04 1765.51 794.32C1787.23 792.16 1799.51 788.32 1786.1 784.59C1761.16 777.72 1826.72 777.15 1842.39 777.15C1858.06 777.15 1827.67 770.34 1852.59 767.49C1877.51 764.64 1935.08 767.42 1945.52 769.2C1955.96 770.98 1934.81 768.61 1910.15 769.18Z" fill="#FF4E00"/>
<path opacity="0.7" d="M1058.17 829.82C1093.62 829.14 1089.24 821.52 1078.64 818.45C1068.04 815.38 1079.94 811.45 1120.96 811.45C1161.98 811.45 1168.21 814.3 1137.5 814.69C1106.79 815.08 1090.34 817.22 1096.5 822.63C1102.66 828.04 1086.81 835.09 1055.38 834C1023.95 832.91 983.59 831.27 1058.17 829.82Z" fill="#FF4E00"/>
<path opacity="0.7" d="M1402.49 814.85C1395.36 813.54 1389.3 809.18 1400.49 804.38C1411.68 799.58 1383.79 797.84 1364.23 799.15C1344.67 800.46 1325.09 795.53 1330.6 806.21C1336.11 816.89 1267.41 814.3 1260.16 814.47C1252.91 814.64 1250.27 814.3 1258.16 821.83C1266.05 829.36 1202.16 827.95 1171.16 826.99C1149.06 826.3 1183.41 822.38 1219.16 822.7C1241.3 822.9 1246.61 821.34 1242.16 817.76C1237.85 812.76 1239.97 810.76 1256.33 810.76H1258.62C1266.68 810.76 1275.72 810.96 1283.72 810.96C1307.46 810.96 1325.92 810.96 1317.57 801.81C1309.22 792.66 1339.57 795.7 1376.04 795.26C1412.51 794.82 1417.74 798.82 1406.37 806.26C1390.17 816.83 1461.58 815.87 1483.5 818.03C1502.74 819.88 1428.07 819.54 1402.49 814.85ZM1214.76 791.31C1239.42 789.31 1265.76 788.61 1251.65 782.05C1234.57 774.12 1265.32 774.12 1279.29 773.45C1293.26 772.78 1301.97 772.13 1279.29 770.81C1256.61 769.49 1223.15 771.13 1238.29 778.88C1252.14 786 1224.52 785.26 1157.59 784.37C1132.74 784.04 1107.89 781.9 1117.21 777.75C1126.53 773.6 1111.31 769.59 1083.98 768.75C1056.65 767.91 1007.26 771.51 1023.73 771.51C1040.2 771.51 1115.97 773.16 1106.34 778.45C1096.71 783.74 1098.58 783.75 1119.08 787.71C1133.73 790.52 1201.64 792.32 1214.76 791.31V791.31Z" fill="#FF4E00"/>
<path opacity="0.7" d="M2466.71 837.65C2489.28 837.2 2596.84 837.65 2558.18 822.96C2537.96 815.27 2557.31 809.85 2619.46 809.16C2681.61 808.47 2639.16 806 2615.09 805.16C2566.54 803.52 2527.69 809.67 2536.24 817.34C2544.79 825.01 2554.91 825.34 2542.45 828.92C2529.99 832.5 2482.83 833.63 2478.17 833.46C2473.51 833.29 2397.56 839 2466.71 837.65Z" fill="#FF4E00"/>
<path opacity="0.7" d="M2892.86 769.18C2868.2 769.76 2820.29 769.18 2836.4 774.55C2856.83 781.36 2845.1 780.55 2829.14 781.13C2813.18 781.71 2770 780 2780.4 784.57C2789.72 788.66 2794.63 789.79 2780.16 793.23C2799.33 793.07 2818.81 793.79 2835.23 795.87C2861.05 799.15 2837.77 806.08 2817.75 810.95C2797.73 815.82 2840.51 816.09 2857.92 818.1C2875.33 820.11 2879.53 819.92 2873.43 820.97C2867.33 822.02 2830.27 820.2 2811.43 818.19C2792.59 816.18 2804.43 811.01 2813.2 808.77C2825.94 805.5 2840.96 802.51 2831.2 799.84C2823.74 797.84 2789.06 794.65 2760.59 796.84C2725.4 801.38 2602.12 796.56 2638.43 784.61C2658.88 777.88 2661.92 778.1 2653.66 776.38C2645.4 774.66 2623.18 771.59 2596.21 771.15C2555.6 770.48 2574.97 769.22 2608.11 769.22C2636.68 769.22 2689.56 775.52 2664.54 780.46C2603.76 792.46 2717.15 794.12 2746.95 792.39C2768.67 790.24 2782.26 788.31 2768.83 784.61C2743.83 777.74 2809.45 777.17 2825.11 777.17C2840.77 777.17 2810.39 770.36 2835.32 767.51C2860.25 764.66 2917.8 767.44 2928.25 769.22C2938.7 771 2917.52 768.61 2892.86 769.18Z" fill="#FF4E00"/>
<path opacity="0.7" d="M2467.08 798.67C2502.54 797.98 2498.15 790.37 2487.55 787.3C2476.95 784.23 2488.85 780.3 2529.88 780.3C2570.91 780.3 2577.13 783.15 2546.41 783.55C2515.69 783.95 2499.25 786.07 2505.46 791.49C2511.67 796.91 2495.78 803.94 2464.34 802.86C2432.9 801.78 2392.5 800.11 2467.08 798.67Z" fill="#FF4E00"/>
<path opacity="0.7" d="M2404.3 813.81C2396.6 812.4 2390.06 807.69 2402.16 802.51C2414.26 797.33 2384.16 795.44 2362.99 796.85C2341.82 798.26 2320.72 792.95 2326.67 804.48C2332.62 816.01 2258.41 813.23 2250.58 813.4C2242.75 813.57 2239.89 813.23 2248.44 821.4C2256.99 829.57 2187.9 828.01 2154.44 826.97C2130.57 826.23 2167.67 821.97 2206.31 822.34C2230.23 822.56 2235.96 820.87 2231.21 817.01C2226.55 811.63 2228.85 809.49 2246.52 809.41H2249C2257.71 809.41 2267.48 809.62 2276.12 809.62C2301.76 809.62 2321.7 809.62 2312.68 799.73C2303.66 789.84 2336.42 793.14 2375.83 792.67C2415.24 792.2 2420.88 796.51 2408.59 804.53C2391.1 815.95 2468.23 814.91 2491.91 817.25C2512.58 819.25 2431.93 818.88 2404.3 813.81ZM2197.47 791.31C2222.13 789.31 2248.47 788.61 2234.36 782.05C2217.27 774.12 2248.02 774.12 2262 773.45C2275.98 772.78 2284.67 772.13 2262 770.81C2239.33 769.49 2205.86 771.13 2220.94 778.88C2234.79 786 2207.17 785.26 2140.25 784.37C2115.4 784.04 2090.55 781.9 2099.87 777.75C2109.19 773.6 2093.97 769.59 2066.64 768.75C2039.31 767.91 1989.92 771.51 2006.38 771.51C2022.84 771.51 2098.63 773.16 2089 778.45C2079.37 783.74 2081.23 783.75 2101.73 787.71C2116.44 790.52 2184.35 792.32 2197.47 791.31V791.31Z" fill="#FF4E00"/>
<path opacity="0.7" d="M3470.73 805C3495.38 803 3521.73 802.3 3507.62 795.74C3490.53 787.81 3521.28 787.81 3535.26 787.14C3549.24 786.47 3557.93 785.82 3535.26 784.5C3512.59 783.18 3479.12 784.82 3494.2 792.57C3508.05 799.69 3480.43 798.95 3413.51 798.06C3388.66 797.73 3363.81 795.59 3373.13 791.44C3382.45 787.29 3367.23 783.28 3339.9 782.44C3312.57 781.6 3263.18 785.2 3279.64 785.2C3296.1 785.2 3371.89 786.85 3362.26 792.2C3352.63 797.55 3354.49 797.49 3374.99 801.46C3389.7 804.18 3457.61 806 3470.73 805Z" fill="#FF4E00"/>
<path opacity="0.7" d="M2945.41 801.11C2980.86 800.42 2976.48 792.81 2965.88 789.74C2955.28 786.67 2967.18 782.74 3008.2 782.74C3049.22 782.74 3055.45 785.59 3024.74 785.99C2994.03 786.39 2977.58 788.51 2983.79 793.93C2990 799.35 2974.1 806.38 2942.66 805.3C2911.22 804.22 2870.83 802.55 2945.41 801.11Z" fill="#FF4E00"/>
<path opacity="0.7" d="M3230 804.42C3222.87 802.86 3216.81 797.65 3228 791.92C3239.19 786.19 3211.3 784.11 3191.74 785.67C3172.18 787.23 3152.6 781.36 3158.11 794.1C3163.62 806.84 3094.92 803.77 3087.67 803.96C3080.42 804.15 3077.78 803.77 3085.67 812.75C3093.56 821.73 3029.67 820.06 2998.67 818.91C2976.57 818.09 3010.92 813.4 3046.67 813.79C3068.81 814.03 3074.12 812.16 3069.67 807.89C3065.36 801.95 3067.48 799.58 3083.84 799.49H3086.13C3094.19 799.49 3103.23 799.73 3111.23 799.73C3134.97 799.73 3153.43 799.73 3145.08 788.8C3136.73 777.87 3167.08 781.51 3203.55 780.99C3240.02 780.47 3245.25 785.23 3233.88 794.1C3217.68 806.72 3289.09 805.57 3311.01 808.16C3330.24 810.42 3255.57 810 3230 804.42Z" fill="#FF4E00"/>
<path opacity="0.7" d="M960.74 784.33C933.37 783.82 858.74 786.48 911.34 787.81C963.94 789.14 1097.34 785.97 1051.99 784.33C1006.64 782.69 960.74 784.33 960.74 784.33Z" fill="#FF4E00"/>
<path d="M1 900V837.3C173 837.3 413 844.63 521 841C576.89 839.13 700.81 844.45 769.17 846.09C946.8 846.09 1136.92 840.19 1233.92 838.86C1294.92 838.02 1406.6 834.74 1470.82 837.3C1752.24 840.46 1713.38 837.12 1850.62 838.86C2520.87 847.4 2723.99 838.86 2723 838.86C2831 833.78 2900.62 835.66 2981.72 837.3H3299.9C3408.11 835.3 3525.69 837.23 3554 837.23C3555 837.23 3854 833.78 4010 838.86C4040.46 840.22 4263.43 840.35 4385.33 842.69C4498.51 842.92 4683.5 837.3 4801 837.3C4798.18 837.3 4794.84 837.3 4791 837.38L4801 837.3V900H1Z" fill="url(#paint5_linear)"/>
<path opacity="0.7" d="M120.72 806.34C141.41 808.34 60.7202 808.01 33.1302 802.95C25.4302 801.54 18.8802 796.83 30.9902 791.64C41.4202 787.18 20.5002 785.17 0.990234 785.64V781.83H4.63023C44.0402 781.36 49.6802 785.67 37.3902 793.69C19.9002 805 97.0002 804 120.72 806.34ZM4801 781.78C4763.24 782.03 4732.75 779.23 4741.49 788.78C4750.49 798.67 4730.57 798.67 4704.93 798.67C4696.28 798.67 4686.52 798.48 4677.81 798.45H4675.34C4657.67 798.54 4655.34 800.68 4660.03 806.05C4664.78 809.92 4659.03 811.6 4635.13 811.39C4596.48 811.04 4559.38 815.28 4583.26 816.02C4616.73 817.02 4685.82 818.57 4677.26 810.45C4668.7 802.33 4671.56 802.67 4679.4 802.45C4687.24 802.23 4761.4 805.05 4755.49 793.52C4749.58 781.99 4770.68 787.31 4791.81 785.9C4794.74 785.71 4797.81 785.57 4800.99 785.5L4801 781.78ZM4557.58 787C4540.5 779.06 4571.24 779.06 4585.22 778.4C4599.2 777.74 4607.89 777.08 4585.22 775.76C4562.55 774.44 4529.08 776.07 4544.16 783.83C4558.01 790.95 4530.39 790.21 4463.47 789.31C4438.62 788.98 4413.77 786.84 4423.09 782.7C4432.41 778.56 4417.19 774.53 4389.86 773.7C4362.53 772.87 4313.14 776.46 4329.6 776.46C4346.06 776.46 4421.85 778.11 4412.22 783.4C4402.59 788.69 4404.46 788.69 4424.95 792.66C4439.66 795.51 4507.57 797.31 4520.69 796.3C4545.35 794.25 4571.68 793.55 4557.58 787Z" fill="#FF4E00"/>
<rect x="1" width="4800" height="900" fill="url(#paint6_linear)"/>
<defs>
<linearGradient id="paint0_linear" x1="2401" y1="893.993" x2="2401" y2="104.657" gradientUnits="userSpaceOnUse">
<stop stop-color="#FF5521"/>
<stop offset="1"/>
</linearGradient>
<linearGradient id="paint1_linear" x1="2401" y1="794.62" x2="2401" y2="514.84" gradientUnits="userSpaceOnUse">
<stop stop-color="#350402"/>
<stop offset="1" stop-color="#700100"/>
</linearGradient>
<linearGradient id="paint2_linear" x1="1.152e+07" y1="0" x2="1.152e+07" y2="195309" gradientUnits="userSpaceOnUse">
<stop stop-color="#350402"/>
<stop offset="1" stop-color="#700100"/>
</linearGradient>
<linearGradient id="paint3_linear" x1="2401" y1="871.05" x2="2401" y2="757.34" gradientUnits="userSpaceOnUse">
<stop offset="0.01" stop-color="#CF0000"/>
<stop offset="0.29" stop-color="#D50700"/>
<stop offset="0.71" stop-color="#E71B00"/>
<stop offset="1" stop-color="#F72D00"/>
</linearGradient>
<linearGradient id="paint4_linear" x1="2401" y1="273.3" x2="2401" y2="0" gradientUnits="userSpaceOnUse">
<stop stop-color="#380303"/>
<stop offset="1" stop-color="#240000"/>
</linearGradient>
<linearGradient id="paint5_linear" x1="2401" y1="900" x2="2401" y2="835.56" gradientUnits="userSpaceOnUse">
<stop stop-color="#240000"/>
<stop offset="1" stop-color="#380303"/>
</linearGradient>
<linearGradient id="paint6_linear" x1="2401" y1="0" x2="2401" y2="1027.14" gradientUnits="userSpaceOnUse">
<stop offset="0.135417" stop-color="#00012D"/>
<stop offset="1" stop-opacity="0"/>
</linearGradient>
</defs>
</svg>
