<svg xmlns="http://www.w3.org/2000/svg" viewBox="0 0 200.89 181.51"><path fill="currentColor" d="M93.41 181.24c-29.63-1.74-59-16.16-76.66-40.3 58.8-11.07 118.56-17.19 178.34-19.41-15.63 39.87-60.09 62.79-101.68 59.71zM7.15 124.55a84.45 84.45 0 01-3.86-10.48c34.38-4.52 68.92-7.52 103.48-10.29 31.22-1.62 62.42-3.56 93.69-3.33-.37 2.75-.71 5.53-1.35 8.23-29.75 1.09-59.37 4.14-89 6.69h-.21.17c-33.41 4.54-66.9 8.45-99.94 15.24-1.08-1.99-2.04-4.02-2.98-6.06zm-5.8-19.04A70.5 70.5 0 01.11 86.94c66.34-8.2 133.44-8.66 200.19-6.94.58 1.71.09 3.83.59 5.38v5C134.22 91.77 67.68 98 1.73 107.65c-.13-.71-.25-1.43-.38-2.14zm-.79-24.8a83.28 83.28 0 015.18-20.34c61.27-5 122.6-9.64 184.07-11.24a80.71 80.71 0 019.24 23.69C132.73 72.11 66.07 73.74.34 83c.21-.74-.04-1.53.22-2.29zm6.31-22.97C21.82 22.67 59.52 1.18 96.75.06c35.47-1.22 72.2 15.4 91.24 46C127.41 48.08 67 53 6.63 58.26z"/></svg>