<svg width="4801" height="900" viewBox="0 0 4801 900" fill="none" xmlns="http://www.w3.org/2000/svg">
<path d="M4800.01 0H0.00976562V900H4800.01V0Z" fill="#8E0404"/>
<g style="mix-blend-mode:multiply" opacity="0.2">
<path d="M243.01 88.5996C111.01 94.4196 0.00976562 119.34 0.00976562 119.34V77.1296C101.01 48.6796 269.63 26.5196 386.64 44.3096C503.65 62.0996 623.64 79.7196 779.64 77.1296C935.64 74.5396 983.64 26.5196 1181.64 46.1296C1379.64 65.7396 1353.64 102.37 1512.64 97.7496C1671.64 93.1296 1849.01 2.42961 2121.01 58.2396C2393.01 114.05 2367.01 81.4796 2587.01 88.5996C2807.01 95.7196 2973.25 41.9296 3273.19 63.8896C3573.13 85.8496 3627.12 106.44 3933.06 64.1396C4239 21.8396 4414.83 57.9996 4622.93 82.3096C4704.01 91.7696 4752.01 90.1796 4800.01 77.1296V119.34C4563.01 176.44 4419.44 58.1996 3993.01 124.57C3823.43 150.96 3537.01 138.8 3439.01 131.68C3341.01 124.56 3151.01 55.3996 2797.01 118.24C2443.01 181.08 2137.01 115.24 2057.01 96.8996C1977.01 78.5596 1847.01 67.7996 1703.01 106.9C1559.01 146 1383.15 138.9 1275.16 108.43C1167.17 77.9596 1032.51 86.0296 941.01 109.12C849.51 132.21 682.01 138.12 595.01 132.84C508.01 127.56 375.01 82.7796 243.01 88.5996ZM189.27 472.67C269.27 491 600.2 542 962.7 499.5C1274.7 462.89 1477.26 520.65 1575.26 527.76C1673.26 534.87 1959.68 547.04 2129.26 520.65C2555.69 454.28 2689.01 594 2926.01 536.84C2926.01 536.84 3037.01 511.92 3169.01 506.1C3301.01 500.28 3444.28 523.61 3531.27 528.95C3618.26 534.29 3785.78 528.32 3877.27 505.23C3968.76 482.14 4103.42 474.09 4211.42 504.54C4319.42 534.99 4491.27 521.83 4635.27 482.7C4689.08 468.114 4744.32 459.476 4800.01 456.94V419.2C4659.85 430.97 4548.56 470.46 4445.01 473.47C4286.01 478.09 4316.01 461.73 4118.01 442.16C3920.01 422.59 3872.01 470.63 3716.01 473.16C3560.01 475.69 3429.72 479.54 3312.71 461.76C3195.7 443.98 3027.01 466.18 2926.01 494.64C2878.01 507.64 2830.01 509.27 2748.93 499.81C2540.84 475.53 2375.26 417.93 2069.33 460.22C1763.4 502.51 1709.39 482 1409.45 460C1109.51 438 972.7 477 752.7 469.89C532.7 462.78 525.27 489.89 253.27 434.04C158.41 414.54 75.0698 412.9 0.00976562 419.2V456.94C75.8298 453.47 141.47 461.72 189.27 472.67ZM674.15 275.51C872.15 295.07 928.08 229.42 1084.09 226.83C1240.1 224.24 1360.09 241.83 1477.09 259.66C1594.09 277.49 1759.75 241.57 1863.72 226.83C2275.01 168.51 2444.7 327.32 2879.01 267.28C3184.95 224.98 3090.63 218.1 3390.57 240.07C3690.51 262.04 3945.01 214.68 4165.01 221.8C4385.01 228.92 4274.75 210.23 4546.75 266.04C4641.62 285.5 4724.95 287.15 4800.01 280.85V243.1C4724.2 246.58 4658.55 238.33 4610.75 227.38C4530.75 209.04 4311.01 118.52 3957.01 181.38C3603.01 244.24 3461.01 184.94 3224.76 172.3C3126.43 167.04 2980.59 186.35 2811.01 212.75C2384.59 279.12 2293.09 122.42 1863.76 184.65C1863.76 184.65 1752.76 209.56 1620.76 215.39C1488.76 221.22 1355.76 176.45 1268.76 171.12C1181.76 165.79 1014.25 171.74 922.76 194.83C831.27 217.92 688.76 243.6 580.76 213.15C472.76 182.7 308.82 178.23 164.82 217.36C110.992 231.952 55.7235 240.583 0.00976563 243.1L0.00976562 280.85C140.17 269.08 243.56 247.21 347.12 244.2C506.14 239.58 476.13 255.94 674.15 275.51ZM4557.01 354.88C4425.01 360.7 4292.01 315.95 4205.01 310.61C4118.01 305.27 3950.5 311.23 3859.01 334.33C3767.52 357.43 3633.01 347.63 3525.01 317.18C3253.17 240.54 2929.77 432.25 2626.72 362.8C2016.32 222.93 2012.93 380.65 1361 311.8C1263.8 301.53 976.58 292.51 807 318.91C380.58 385.28 237.01 267 0.00976562 324.14V366.34C48.0098 353.34 96.0098 351.71 177.09 361.17C385.19 385.45 561.02 421.63 866.95 379.33C1172.88 337.03 1227.06 356.76 1526.82 379.58C2076.94 421.47 1987.01 284.5 2576.94 405.58C2848.94 461.38 3132.42 352.9 3291.44 348.28C3450.46 343.66 3420.44 360.02 3618.44 379.59C3816.44 399.16 3864.3 368.96 4020.31 366.37C4176.32 363.78 4296.31 381.37 4413.31 399.2C4530.31 417.03 4699.01 394.8 4800.01 366.34V324.14C4800.01 324.14 4689.01 349.05 4557.01 354.88ZM595.01 667C682.01 672.33 849.52 666.37 941.01 643.28C1032.5 620.19 1167.16 612.14 1275.16 642.59C1383.16 673.04 1551.01 703.43 1695.01 664.3C1839.01 625.17 1991.01 636.09 2071.01 654.42C2151.01 672.75 2443.01 715.23 2797.01 652.42C3151.01 589.61 3341.01 658.74 3439.01 665.85C3537.01 672.96 3823.43 685.13 3993.01 658.74C4419.44 592.37 4563.01 710.62 4800.01 653.51V611.27C4752.01 624.32 4704.01 625.91 4622.93 616.45C4414.83 592.17 4239.01 556 3933.07 598.28C3627.13 640.56 3573.14 620 3273.2 598C2973.26 576 2847.01 616.11 2627.01 609C2407.01 601.89 2375.01 642.58 2147.01 603.08C1873.38 555.67 1686.01 608.33 1527.01 612.95C1368.01 617.57 1379.73 599.8 1181.71 580.23C983.69 560.66 935.71 608.7 779.71 611.23C623.71 613.76 503.71 596.23 386.71 578.41C269.71 560.59 101.01 582.82 0.00976562 611.27V653.48C0.00976562 653.48 111.01 628.56 243.01 622.74C375.01 616.92 508.01 661.67 595.01 667ZM682.01 804.78C880.01 824.35 928.01 776.32 1084.01 773.78C1240.01 771.24 1360.01 788.78 1477.01 806.61C1594.01 824.44 1762.63 802.24 1863.64 773.78C1911.64 760.78 1959.64 759.15 2040.72 768.61C2248.82 792.89 2454.97 835.83 2760.9 793.53C3066.83 751.23 3090.63 765 3390.57 787C3690.51 809 3945.01 761.59 4165.01 768.71C4385.01 775.83 4274.75 757.14 4546.75 812.95C4641.62 832.41 4724.95 834.06 4800.01 827.76V790C4724.2 793.48 4658.55 785.23 4610.75 774.28C4530.75 755.94 4311.01 665.42 3957.01 728.28C3603.01 791.14 3461.01 731.83 3224.76 719.2C3126.43 713.94 2862.59 712.55 2693.02 738.95C2266.59 805.32 2100.76 674.43 1863.76 731.54C1863.76 731.54 1752.76 756.45 1620.76 762.28C1488.76 768.11 1355.76 723.35 1268.76 718.01C1181.76 712.67 1014.25 718.63 922.76 741.73C831.27 764.83 696.61 772.87 588.61 742.42C480.61 711.97 308.77 725.12 164.77 764.26C110.957 778.844 55.7063 787.475 0.00976563 790L0.00976562 827.75C140.17 816 251.46 776.5 355.01 773.49C514.01 768.87 484.01 785.23 682.01 804.79V804.78Z" fill="#0D23AF"/>
</g>
<path style="mix-blend-mode:screen" opacity="0.3" d="M4800.01 107.83H0.00976562V898.94H4800.01V107.83Z" fill="url(#paint0_linear)"/>
<path d="M48.5498 590.74C65.4498 512.74 81.5498 565.28 90.3298 610.65C99.1098 656.02 125.64 542.3 139.86 506.76C154.08 471.22 173.64 583.76 187.64 639.93C201.64 696.1 221.64 664.74 241.64 567.75C261.64 470.76 271.64 498.32 273.15 526.45C274.66 554.58 286.65 640.45 298.65 590.74C310.65 541.03 323.9 600.9 328.65 649.47C333.4 698.04 351.15 570.88 370.65 514.92C390.15 458.96 388.65 566.44 405.14 606.81C421.63 647.18 427.64 561.99 436.64 493.81C445.64 425.63 457.64 495.41 469.64 548.81C481.64 602.21 504.14 674.61 517.64 614.97C531.14 555.33 527.64 615.43 549.64 650.36C571.64 685.29 569.01 572.08 591.01 535.28C613.01 498.48 615.67 660.79 626.28 649.47C636.89 638.15 648.01 618.15 674.01 664.83C700.01 711.51 711.64 514.66 735.01 459.57C758.38 404.48 775.41 530.38 781.01 581.3C786.61 632.22 807.01 601.56 823.81 548.75C840.61 495.94 843.65 518.61 860.45 632.45C877.25 746.29 907.65 475.16 929.53 413.95C951.41 352.74 973.65 536.38 980.31 590.74C986.97 645.1 987.65 581.8 1007.65 535.28C1027.65 488.76 1043.7 617.47 1045.65 648.96C1047.6 680.45 1081.65 627.22 1094.47 648.96C1107.29 670.7 1143.62 646.96 1150.4 617.26C1157.18 587.56 1169.62 540.33 1185.62 580.09C1201.62 619.85 1191.62 536.38 1213.62 456.5C1235.62 376.62 1236.02 563.6 1263.62 639.93C1291.22 716.26 1277.62 591.67 1303.69 524.51C1321.26 479.28 1329.07 612.31 1347.62 652.77C1372.95 708.03 1383.18 606.31 1389.62 583.31C1396.06 560.31 1411.62 591.67 1415.62 639.93C1419.62 688.19 1447.62 637.09 1459.62 590.74C1471.62 544.39 1479.62 463.31 1502.9 524.51C1526.18 585.71 1526.79 540.89 1533.62 485.25C1540.45 429.61 1557.07 548.66 1570.57 590.74C1584.07 632.82 1573.57 597.54 1593.07 557.55C1612.57 517.56 1606.19 573.87 1627.87 610.65C1649.55 647.43 1641.09 571.38 1664.39 534.55C1687.69 497.72 1709.62 668.69 1724.71 624.07C1739.8 579.45 1747.62 554.15 1759.62 589.76C1771.62 625.37 1767.62 593.65 1793.62 509.65C1819.62 425.65 1841.62 625.24 1847.62 669.08C1853.62 712.92 1869.62 617.35 1899.62 571.08C1929.62 524.81 1935.05 609.41 1942.55 642.48C1950.05 675.55 1959.62 629.21 1973.62 606.97C1987.62 584.73 1996.62 659.82 2016.62 659.82C2036.62 659.82 2047.16 634.15 2053.53 662.82C2059.9 691.49 2068.6 652.34 2081.62 628.45C2094.64 604.56 2091.62 575.94 2106.62 607.01C2121.62 638.08 2115.62 579.89 2126.62 542.36C2137.62 504.83 2161.62 646.04 2169.69 674.67C2177.76 703.3 2184.62 639.13 2193.62 610.67C2202.62 582.21 2206.62 613.42 2214.62 642.48C2222.62 671.54 2240.25 623.79 2242.29 597.15C2244.33 570.51 2255.62 562.73 2259.62 593.67C2263.62 624.61 2263.79 682.07 2290.62 659.61C2317.45 637.15 2334 700.22 2349.46 628.16C2364.92 556.1 2368.79 633.61 2379.32 669.16C2389.85 704.71 2391.59 610.66 2412.61 565.98C2433.63 521.3 2441.99 656.79 2449.49 680.49C2456.99 704.19 2456.18 660.49 2470.21 623.42C2484.24 586.35 2493.61 684.51 2507.01 670C2520.41 655.49 2514.62 637.09 2536.62 660.79C2558.62 684.49 2542.33 622.47 2560.62 597.13C2578.91 571.79 2584.95 661.45 2598.87 677.25C2612.79 693.05 2612.62 642.46 2626.29 617.35C2639.96 592.24 2646.01 659.74 2665.51 652.77C2685.01 645.8 2688.51 619.6 2706.01 652.77C2723.51 685.94 2724.01 616.77 2734.51 571.66C2745.01 526.55 2758.51 600.5 2770.51 649.23C2782.51 697.96 2779.45 588.23 2790.01 535.23C2800.57 482.23 2809.5 561.94 2817.01 628.34C2824.52 694.74 2827.51 606.34 2842.46 612.61C2857.41 618.88 2844.01 671.54 2868.07 677.47C2892.13 683.4 2887.51 610.82 2901.01 562.79C2914.51 514.76 2930.96 623.22 2939.63 658.79C2948.3 694.36 2958.13 629.66 2964.91 602.5C2971.69 575.34 2986.63 653.85 2993.63 670.63C3000.63 687.41 3009.63 673.63 3016.63 659.77C3023.63 645.91 3033.63 642.99 3037.63 662.77C3041.63 682.55 3048.63 665.77 3054.63 660.77C3060.63 655.77 3057.63 620.29 3062.63 589.77C3067.63 559.25 3081.63 628.54 3081.63 642.47C3081.63 656.4 3093.63 679.89 3093.63 671.34C3093.63 662.79 3100.13 653.34 3101.13 660.8C3102.13 668.26 3106.13 685.98 3111.63 683.51C3117.13 681.04 3118.3 656.85 3124.3 633.15C3130.3 609.45 3137.63 654.21 3138.96 675.28C3140.29 696.35 3149.63 672.65 3157.63 628.4C3165.63 584.15 3172.96 640.4 3173.63 660.8C3174.3 681.2 3188.3 664.8 3190.96 652.8C3193.62 640.8 3196.3 632.51 3201.63 649.26C3206.96 666.01 3217.63 683.86 3224.18 678.59C3230.73 673.32 3241.01 657.5 3249.01 681.2C3257.01 704.9 3263.01 647.63 3267.68 628.39C3272.35 609.15 3270.35 587.72 3287.49 649.23C3304.63 710.74 3300.18 614.38 3308.18 589.76C3316.18 565.14 3315.68 598.09 3327.07 622.52C3338.46 646.95 3345.16 645.63 3347.59 620.52C3350.02 595.41 3356.11 634.52 3359.22 649.26C3362.33 664 3372.68 671.68 3373.68 662.79C3374.68 653.9 3387.68 645.02 3391.68 655.88C3395.68 666.74 3410.68 657.88 3410.68 644.03C3410.68 630.18 3423.68 536.41 3429.68 614.41C3435.68 692.41 3447.68 648.97 3456.68 634.16C3465.68 619.35 3473.59 668.16 3483.35 685.33C3493.11 702.5 3498.68 673.66 3505.99 663.33C3513.3 653 3515.72 645.08 3519.77 661.82C3523.82 678.56 3531.31 660.91 3534.68 642.07C3538.05 623.23 3541.68 625.28 3549.63 642.07C3557.58 658.86 3553.68 681.56 3568.26 671.69C3582.84 661.82 3587.01 666.75 3597.38 688.48C3607.75 710.21 3606.68 679.59 3613.66 659.14C3620.64 638.69 3628.66 652.93 3632.66 681.56C3636.66 710.19 3650.66 625.28 3656.66 598.71C3662.66 572.14 3671.66 637.13 3680.84 660.98C3690.02 684.83 3692.66 649.98 3700.27 637.13C3707.88 624.28 3713.53 662.77 3721.66 685.98C3729.79 709.19 3735.66 671.69 3742.66 656.88C3749.66 642.07 3755.66 658.88 3762.66 677.62C3769.66 696.36 3785.66 614.75 3792.33 596.98C3799 579.21 3811.66 631.21 3822.33 649.27C3833 667.33 3829.66 631.16 3836.33 624.44C3843 617.72 3851.21 678.87 3860.45 675.64C3879.6 668.95 3874.66 648.98 3882.66 623.49C3890.66 598 3897.66 643.06 3897.66 661.82C3897.66 680.58 3907.66 665.82 3911.66 642.07C3915.66 618.32 3924.66 652.93 3929.09 677.62C3933.52 702.31 3953.66 650.96 3955.66 636.15C3957.66 621.34 3958.66 621.33 3972.66 643.06C3986.66 664.79 3992.66 661.82 4006.66 649.27C4020.66 636.72 4020.31 654.27 4036.76 674.49C4053.21 694.71 4051.62 631.25 4059.66 610.33C4067.7 589.41 4071.66 610.49 4078.04 639.2C4084.42 667.91 4092.66 662.8 4101.66 642.07C4110.66 621.34 4111.66 678.6 4137.66 685.51C4163.66 692.42 4146.66 620.35 4158.66 598.71C4170.66 577.07 4173.66 652.93 4189.66 671.71C4205.66 690.49 4210.22 609.56 4212.33 589.82C4214.44 570.08 4222.33 575.27 4227.66 610.35C4232.99 645.43 4248.33 650.35 4253.66 628.45C4258.99 606.55 4268.33 611.45 4270.99 643.74C4273.65 676.03 4297.66 700.34 4311.57 642.52C4325.48 584.7 4323.16 591.39 4339.66 623.52C4356.16 655.65 4369.77 668.67 4374.36 649.3C4378.95 629.93 4389.66 615.44 4392.94 652.84C4396.22 690.24 4432.05 643.15 4447.66 581.37C4463.27 519.59 4453.56 655.01 4492.33 649.3C4507.66 647.04 4513.49 593.72 4518.99 575.95C4524.49 558.18 4526.67 587.42 4531.5 606.03C4536.33 624.64 4545.66 629.91 4549.66 606.22C4553.66 582.53 4559.53 594.82 4562.26 613.36C4564.99 631.9 4571.66 647.61 4578.99 649.3C4586.32 650.99 4592.99 585.95 4596.33 571.73C4599.67 557.51 4605.66 535.63 4607.66 598.73C4609.66 661.83 4637.95 706.73 4654.45 628.45C4670.95 550.17 4673.95 476.23 4687.45 571.72C4700.95 667.21 4709.07 625.21 4716.26 595.11C4723.45 565.01 4738.99 629.83 4741.66 649.29C4744.33 668.75 4752.66 690.47 4758.14 668.75C4790.4 541.75 4775.31 656.9 4800.03 656.9V770.62H0.00976562V656.84C13.6498 656.84 31.6398 668.69 48.5498 590.74Z" fill="url(#paint1_linear)"/>
<path d="M4800.01 0V221.41C4786.37 221.41 4766.9 250.2 4749.52 348.53C4735.64 427.07 4697.15 240 4688.38 194.63C4679.61 149.26 4674.38 290.08 4660.16 325.63C4645.94 361.18 4626.38 294.48 4612.38 238.33C4598.38 182.18 4578.38 89.76 4558.38 186.75C4538.38 283.74 4528.38 256.18 4526.87 228.05C4525.36 199.92 4506.65 183.63 4498.38 234.12C4470.44 404.65 4466.12 237.21 4461.38 188.64C4456.64 140.07 4448.88 213.42 4429.38 269.37C4409.88 325.32 4411.38 217.86 4394.89 177.49C4378.4 137.12 4372.39 222.3 4363.39 290.54C4354.39 358.78 4344.15 352.79 4335.53 298.76C4320.53 204.5 4295.89 203.7 4282.39 263.35C4268.89 323 4269.86 214.22 4247.89 179.29C4225.92 144.36 4231.01 306.17 4209.01 343C4187.01 379.83 4172.84 78.56 4153.35 159.49C4119.35 300.78 4132.72 178.14 4106.73 131.49C4080.74 84.84 4074.44 261.75 4051.03 316.83C4027.62 371.91 4024.54 347.94 4019.03 297.02C4013.52 246.1 4003.45 209.48 3986.66 262.28C3969.87 315.08 3959.43 305.04 3942.66 191.19C3925.89 77.34 3904.18 164.92 3870.54 268.9C3850.54 330.74 3826.42 341.9 3819.76 287.58C3813.1 233.26 3812.42 296.51 3792.42 343.03C3772.42 389.55 3756.42 260.84 3754.42 229.35C3752.42 197.86 3718.42 251.09 3705.6 229.35C3692.78 207.61 3668.98 144.9 3653.39 234.14C3636.1 333.14 3630.05 298.72 3623.98 256.36C3601.98 103.03 3602.76 314.46 3586.45 421.81C3574.01 503.67 3564.05 314.71 3536.45 238.39C3508.85 162.07 3522.45 286.64 3496.38 353.8C3478.81 399.03 3471 266 3452.45 225.54C3427.12 170.29 3416.89 272.01 3410.45 295C3404.01 317.99 3388.45 286.64 3384.45 238.39C3383.94 231.859 3382.59 225.421 3380.45 219.23C3379.71 218.048 3379.2 216.739 3378.94 215.37C3377.22 211.283 3374.94 207.453 3372.17 203.99C3370.29 207.36 3368.55 216.99 3366.41 231.18C3362.07 260.01 3351.41 286.51 3347.41 256.89C3343.41 227.27 3328.31 221.89 3323.91 247.95C3316.91 307.01 3316.97 405.95 3297.13 353.81C3273.84 292.6 3273.24 337.43 3266.41 393.07C3259.58 448.71 3242.96 329.66 3229.46 287.59C3215.96 245.52 3226.46 280.79 3206.96 320.77C3187.46 360.75 3193.84 304.45 3172.16 267.67C3150.48 230.89 3158.94 306.94 3135.64 343.77C3112.34 380.6 3090.41 209.63 3075.32 254.25C3060.23 298.87 3052.41 324.17 3040.41 288.57C3028.41 252.97 3032.41 284.68 3006.41 368.67C2980.41 452.66 2958.41 253.08 2952.41 209.24C2946.41 165.4 2930.41 260.98 2900.41 307.24C2870.41 353.5 2864.98 268.91 2857.48 235.83C2849.98 202.75 2840.41 249.1 2826.41 271.35C2812.41 293.6 2803.41 218.49 2783.41 218.49C2763.41 218.49 2752.87 244.16 2746.5 215.49C2740.13 186.82 2731.43 225.98 2718.41 249.86C2705.39 273.74 2708.41 302.38 2693.41 271.31C2678.41 240.24 2684.41 298.43 2673.41 335.95C2662.41 373.47 2638.41 232.27 2630.34 203.64C2622.27 175.01 2615.41 239.19 2606.41 267.64C2597.41 296.09 2593.41 264.9 2585.41 235.83C2577.41 206.76 2559.78 254.52 2557.74 281.16C2555.7 307.8 2544.41 315.58 2540.41 284.65C2536.41 253.72 2536.24 196.25 2509.41 218.71C2482.58 241.17 2466.03 178.1 2450.57 250.16C2435.11 322.22 2431.24 244.71 2420.71 209.16C2410.18 173.61 2408.44 267.66 2387.42 312.34C2366.4 357.02 2358.04 221.53 2350.54 197.84C2343.04 174.15 2343.85 217.84 2329.82 254.91C2315.79 291.98 2306.47 193.81 2293.05 208.31C2279.63 222.81 2285.44 241.22 2263.44 217.52C2241.44 193.82 2257.73 255.84 2239.44 281.18C2221.15 306.52 2215.01 216.8 2201.13 201C2187.25 185.2 2187.38 235.79 2173.71 260.91C2160.04 286.03 2153.99 218.51 2134.49 225.48C2114.99 232.45 2111.49 258.66 2093.99 225.48C2076.49 192.3 2075.99 261.48 2065.49 306.59C2054.99 351.7 2041.49 277.75 2029.49 229.03C2017.49 180.31 2020.55 290 2010.01 343C1999.47 396 1990.52 316.29 1983.01 249.89C1975.5 183.49 1972.51 271.89 1957.56 265.63C1942.61 259.37 1956.01 206.69 1931.95 200.77C1907.89 194.85 1912.51 267.42 1899.01 315.44C1885.51 363.46 1869.01 255.01 1860.39 219.44C1851.77 183.87 1841.89 248.57 1835.11 275.72C1828.33 302.87 1813.39 224.38 1806.39 207.59C1799.39 190.8 1790.39 204.59 1783.39 218.45C1776.39 232.31 1766.39 235.24 1762.39 215.45C1758.39 195.66 1751.39 212.45 1745.39 217.45C1739.39 222.45 1742.39 257.94 1737.39 288.45C1732.39 318.96 1718.39 249.67 1718.39 235.74C1718.39 221.81 1706.39 198.33 1706.39 206.88C1706.39 215.43 1699.89 224.82 1698.89 217.41C1697.89 210 1693.89 192.24 1688.39 194.7C1682.89 197.16 1681.72 221.36 1675.72 245.06C1669.72 268.76 1662.38 224.05 1661.01 203C1659.64 181.95 1650.34 205.64 1642.34 249.88C1634.34 294.12 1627.01 237.88 1626.34 217.48C1625.67 197.08 1611.67 213.48 1609.01 225.48C1606.35 237.48 1603.67 245.77 1598.34 229.03C1593.01 212.29 1582.34 194.43 1575.79 199.69C1569.24 204.95 1559.01 220.75 1551.01 197.05C1543.01 173.35 1537.01 230.63 1532.34 249.86C1527.67 269.09 1529.67 290.53 1512.53 229.03C1495.39 167.53 1499.84 263.87 1491.84 288.5C1483.84 313.13 1484.34 280.16 1472.95 255.73C1461.56 231.3 1454.86 232.62 1452.43 257.73C1450 282.84 1443.91 243.73 1440.8 229C1437.69 214.27 1427.34 206.57 1426.34 215.46C1425.34 224.35 1412.34 233.23 1408.34 222.37C1404.34 211.51 1389.34 220.37 1389.34 234.22C1389.34 248.07 1376.34 341.84 1370.34 263.84C1364.34 185.84 1352.34 229.28 1343.34 244.09C1334.34 258.9 1326.43 210.09 1316.67 192.93C1306.91 175.77 1301.34 204.6 1294.03 214.93C1286.72 225.26 1284.3 233.17 1280.25 216.44C1276.2 199.71 1268.71 217.34 1265.34 236.18C1261.97 255.02 1258.34 252.97 1250.39 236.18C1242.44 219.39 1246.34 196.69 1231.76 206.56C1217.18 216.43 1213.01 211.5 1202.64 189.78C1192.27 168.06 1193.34 198.66 1186.36 219.11C1179.38 239.56 1171.36 225.32 1167.36 196.69C1163.36 168.06 1149.36 252.97 1143.36 279.54C1137.36 306.11 1128.36 241.12 1119.18 217.28C1110 193.44 1107.36 228.28 1099.75 241.12C1092.14 253.96 1086.49 215.49 1078.36 192.28C1070.23 169.07 1064.36 206.56 1057.36 221.37C1050.36 236.18 1044.36 219.37 1037.36 200.64C1030.36 181.91 1014.36 263.5 1007.69 281.28C1001.02 299.06 988.36 247.05 977.69 228.99C967.02 210.93 970.36 247.09 963.69 253.82C957.02 260.55 948.81 199.38 939.57 202.61C920.42 209.31 925.36 229.27 917.36 254.77C909.36 280.27 902.36 235.2 902.36 216.44C902.36 197.68 892.36 212.49 888.36 236.18C884.36 259.87 875.36 225.32 870.93 200.64C866.5 175.96 846.36 227.3 844.36 242.11C842.36 256.92 841.36 256.92 827.36 235.2C813.36 213.48 807.36 216.44 793.36 228.99C779.36 241.54 779.71 223.99 763.26 203.77C746.81 183.55 748.4 247.01 740.36 267.93C732.32 288.85 728.36 267.76 721.98 239.06C715.6 210.36 707.36 215.45 698.36 236.18C689.36 256.91 688.36 199.65 662.36 192.74C636.36 185.83 653.36 257.91 641.36 279.54C629.36 301.17 626.36 225.32 610.36 206.54C594.36 187.76 589.8 268.7 587.69 288.44C585.58 308.18 577.71 303 572.38 268C567.05 233 551.71 228 546.38 249.89C541.05 271.78 531.71 266.89 529.05 234.61C526.39 202.33 502.38 178 488.47 235.82C474.56 293.64 476.88 286.96 460.38 254.82C443.88 222.68 430.27 209.66 425.68 229.04C421.09 248.42 410.38 262.89 407.1 225.49C403.82 188.09 368.01 235.18 352.38 297C336.75 358.82 346.48 223.35 307.71 229.07C292.38 231.33 286.55 284.65 281.05 302.42C275.55 320.19 273.37 290.94 268.54 272.33C263.71 253.72 254.38 248.46 250.38 272.15C246.38 295.84 240.51 283.54 237.78 265.01C235.05 246.48 228.38 230.71 221.01 229C213.64 227.29 207.01 292.35 203.67 306.56C200.33 320.77 194.34 342.66 192.34 279.56C190.34 216.46 162.05 171.56 145.55 249.84C129.05 328.12 126.05 402.06 112.55 306.57C99.0498 211.08 91.0098 253.11 83.7798 283.2C76.5498 313.29 61.0098 248.49 58.3798 229C55.7498 209.51 47.3798 187.81 41.8998 209.53C9.65976 336.42 31.5698 221.41 0.00976562 221.41V0H4800.01Z" fill="url(#paint2_linear)"/>
<path d="M4800.01 757.34H0.00976562V871.05H4800.01V757.34Z" fill="url(#paint3_linear)"/>
<path opacity="0.7" d="M3990.16 821.44C3974.66 823.44 3915 822.6 3886.33 821.44C3857.66 820.28 3863.16 812.8 3868.91 809.35C3874.66 805.9 3867.91 802.93 3856.66 802.44C3845.41 801.95 3793.66 802.44 3781.16 798.24C3768.66 794.04 3786.91 787.63 3791.91 786.14C3796.91 784.65 3804.16 779.48 3789.66 777.26C3775.16 775.04 3733.01 774.06 3716.01 774C3699.01 773.94 3695.67 771.28 3761.34 770.62C3802.09 770.21 3835.49 777.48 3804.08 786.89C3772.67 796.3 3817.58 796.95 3838.79 796.95C3860 796.95 3899.67 798.76 3882.17 809.13C3864.67 819.5 3911.67 817.02 3934.67 819.49C3957.67 821.96 4005.66 819.47 3990.16 821.44ZM4329.01 817.37C4310.35 819.37 4262.18 814.45 4278.85 804.58C4295.52 794.71 4225.01 793 4203.71 791.34C4182.41 789.68 4175.71 787.71 4193.71 779.15C4211.71 770.59 4128.38 770.27 4108.88 770.76C4089.38 771.25 4060.88 773.76 4083.17 786.06C4105.46 798.36 4030.86 792.81 3983.88 791.34C3942.38 790.05 4050.88 801.34 4083.17 799.89C4115.46 798.44 4104.88 790.51 4091.52 780.89C4078.16 771.27 4158.38 776.89 4172.38 776.89C4186.38 776.89 4178.38 780.51 4171.38 784.13C4164.38 787.75 4157.71 792.36 4184.38 795.32C4211.05 798.28 4239.04 797.62 4259.04 799.6C4283.48 802.01 4252.13 809.8 4202.04 809.14C4172.04 808.75 4110.04 820.66 4151.38 828.56C4192.72 836.46 4315.47 832.87 4245.71 831.08C4182.4 829.46 4114.88 822.64 4184.38 815.73C4204 813.73 4262.01 814.83 4275.29 816.57C4307.95 821.97 4378.12 822.64 4428.38 822.64C4489.38 822.6 4347.71 815.36 4329.01 817.37ZM3712.73 799.9H3710.57C3662.57 799.56 3590.23 797.61 3574.23 799.9C3558.23 802.19 3590.23 805.97 3617.23 805.31C3644.23 804.65 3774.74 800.65 3712.73 799.9ZM3606.38 778.16C3586.88 782.61 3581.13 785.78 3600.88 785.08C3619.22 784.42 3668.38 773.47 3624.38 768.71C3593.38 765.35 3588.88 764.84 3574.38 765.33C3559.88 765.82 3562.88 769.98 3578.38 770.62C3593.88 771.26 3625.88 773.72 3606.38 778.16Z" fill="#FF4E00"/>
<path opacity="0.7" d="M1005.11 809.35C954.95 812.35 884.87 815.93 851.94 812.52C838.57 811.58 780.6 814.02 761.14 817.15C692.2 828.23 760.01 831 823.31 828.78C893.05 826.36 770.74 837.34 729 831.94C687.26 826.54 748.4 810.94 778.37 809.51C828.37 807.15 859.22 797.51 834.67 796.51C814.59 795.74 786.67 798.09 759.88 796.74C733.09 795.39 739.45 790.39 746.21 786.35C752.97 782.31 760.74 778.22 746.76 779.06C732.78 779.9 652.38 779.06 666.31 787.92C680.24 796.78 691.31 804.01 659.14 807.43C626.97 810.85 518.01 806.13 559.51 804.92C606.51 803.56 681.3 804.65 658.29 793.68C635.28 782.71 663.57 778.52 683.01 776.85C702.45 775.18 785.64 770.49 768.2 780.12C750.76 789.75 757.54 791.34 778.93 791.68C800.32 792.02 870.8 789.51 854.78 800.37C838.76 811.23 887.85 807.98 907.23 807.97C926.01 808 1066.01 805.67 1005.11 809.35ZM510.54 819.46C487.54 816.99 440.54 819.46 458.04 809.1C475.54 798.74 435.87 796.92 414.66 796.92C393.45 796.92 348.54 796.27 379.95 786.86C411.36 777.45 377.95 770.19 337.2 770.59C271.54 771.25 274.87 773.88 291.87 773.97C308.87 774.06 351.01 775 365.54 777.26C380.07 779.52 372.79 784.66 367.79 786.14C362.79 787.62 344.54 794 357.01 798.24C369.48 802.48 421.26 801.94 432.51 802.44C443.76 802.94 450.51 805.89 444.76 809.35C439.01 812.81 433.51 820.29 462.17 821.44C490.83 822.59 550.51 823.44 566.01 821.44C581.51 819.44 533.54 821.94 510.54 819.46ZM312.01 807.41L309.84 807.3C261.92 804.67 189.76 799.3 173.67 800.79C157.58 802.28 112.98 805.01 216.36 808.25C243.3 809.1 373.86 811.12 312.01 807.41ZM182.25 778.17C162.75 782.61 157 785.78 176.75 785.08C195.09 784.42 244.25 773.48 200.25 768.71C169.25 765.35 164.75 764.84 150.25 765.33C135.75 765.82 138.75 769.98 154.25 770.62C169.75 771.26 201.75 773.72 182.25 778.17Z" fill="#FF4E00"/>
<path d="M0.00976562 0H558.37C550.28 11.79 540.59 21.71 512.83 23.51C463.28 26.75 468.38 75.2 462.38 141.75C456.38 208.3 442.38 209.27 425.68 130.44C408.98 51.61 390.38 49.36 386.19 85.07C382 120.78 362.38 244.81 344.38 239C311.69 228.38 312.24 73.43 288.08 42.51C263.92 11.59 256.58 111.56 240.3 141.79C224.02 172.02 216.08 89 195.09 45.45C174.1 1.9 160.59 67.91 154.59 95.77C148.59 123.63 138.09 134.54 129.09 111.52C120.09 88.5 117.09 73.97 104.2 130.44C91.3098 186.91 91.5898 212.07 72.0898 167.38C52.5898 122.69 58.5898 42.47 37.3498 45.54C16.1098 48.61 16.5898 141.75 0.00976562 141.75V0ZM641.01 0C645.722 7.87587 648.914 16.5664 650.42 25.62C656.42 62.1 672.77 186.17 684.42 138.21C696.07 90.25 695.72 17.66 730.42 23.43C754.42 27.43 758.77 153.79 778.53 88.43C798.29 23.07 815.94 -5.93 836.42 16.75C864.42 47.75 853.59 254.75 885.09 206.43C916.59 158.11 910.55 78 924.01 117C937.47 156 957.89 174.26 961.51 149.09C966.34 115.41 999.99 20.61 1015.89 70.2C1031.79 119.79 1052.34 74.06 1066.34 46.05C1080.34 18.04 1100.34 15.38 1126.34 79.4C1152.34 143.42 1159.79 220.85 1172.91 168.93C1186.03 117.01 1186.91 16.13 1210.48 40.72C1234.05 65.31 1243.03 169.28 1254.69 107.67C1266.35 46.06 1306.49 22.35 1324.49 70.2C1342.49 118.05 1377.33 256.09 1398.16 207.08C1418.99 158.07 1412.16 77.2 1440.8 107.67C1469.44 138.14 1473.01 127.09 1491.01 83.09C1509.01 39.09 1515.16 19.09 1539.09 46.09C1563.02 73.09 1575.09 82.29 1575.82 62.19C1576.55 42.09 1632 28.73 1626.37 87.11C1620.74 145.49 1650.01 263.91 1668.01 164C1686.01 64.09 1697.26 124.5 1711.13 140.81C1725 157.12 1728.01 147.11 1732.51 121.1C1737.01 95.09 1751.84 42.38 1768.42 61.74C1785 81.1 1792.51 130.34 1798.51 107.74C1804.51 85.14 1817.69 73.74 1835.1 131.43C1852.51 189.12 1891.1 320.94 1909.74 255.55C1928.38 190.16 1910.13 67.36 1947.25 131.43C1984.37 195.5 1998.38 222.21 2002.38 183.5C2006.38 144.79 2008.38 62.94 2030.38 88.8C2052.38 114.66 2072.25 62.9 2111.14 53.11C2150.03 43.32 2172.01 37.69 2190.01 72.89C2208.01 108.09 2235.1 221.75 2239.51 173.11C2243.92 124.47 2241.28 51.11 2256.15 82.11C2271.02 113.11 2278.55 143.11 2288.28 86.11C2298.01 29.11 2350.06 23.11 2361.54 54.11C2373.02 85.11 2387.29 97.11 2395.15 68.11C2403.01 39.11 2422.87 10.46 2442.9 54.11C2462.93 97.76 2482.81 268.35 2500.41 225.7C2518.01 183.05 2515.69 61.26 2536.24 107.7C2556.79 154.14 2564.38 203.58 2581.46 149.58C2598.54 95.58 2614.24 -0.59 2630.31 42.09C2646.38 84.77 2656.73 73.86 2662.55 59.98C2668.37 46.1 2668.36 28.58 2694.38 43.43C2720.4 58.28 2748.68 89.79 2780.53 55.27C2812.38 20.75 2874.38 16 2904.38 61.73C2934.38 107.46 2971.38 269.14 2985.55 197.32C2999.72 125.5 3010.38 86.11 3020.38 114.12C3030.38 142.13 3050.38 151.46 3052.38 115.45C3054.38 79.44 3090.28 118.45 3095.38 168.97C3100.48 219.49 3114.9 292.31 3135.66 243.23C3156.42 194.15 3149.96 48.42 3172.18 82.11C3194.4 115.8 3214.18 233.69 3230.43 175.47C3246.68 117.25 3306.43 -2.99 3332.43 46.23C3358.43 95.45 3378.26 216.92 3400.43 134.12C3422.6 51.32 3460.43 122.45 3470.43 168.97C3480.43 215.49 3496.76 284.47 3522.06 197.32C3547.36 110.17 3535.77 -8.34 3570 25.62C3604.23 59.58 3628.92 93.72 3643.64 59.92C3658.36 26.12 3703.08 23.83 3712.23 48.13C3721.38 72.43 3748.12 194.94 3771.08 149.59C3794.04 104.24 3794.08 18.45 3819.77 44.13C3860.43 84.77 3861.77 154.68 3883.05 122.73C3904.33 90.78 3943.21 119.45 3962.82 175.47C3982.43 231.49 3993.36 133.78 4005.7 107.71C4018.04 81.64 4048.01 4.71 4083.22 52.76C4118.43 100.81 4113.28 161.26 4131.05 116.76C4148.82 72.26 4168.43 29.31 4176.43 61.76C4184.43 94.21 4179.75 163.76 4209.09 181.62C4238.43 199.48 4231.57 28.78 4302 20.78C4372.43 12.78 4382.32 148.04 4412.37 118.42C4442.42 88.8 4430.2 2 4463.63 42.19C4497.06 82.38 4521.63 269.24 4557 239.69C4592.37 210.14 4576.47 82.69 4622.93 55.6C4648.38 40.76 4651.17 73.5 4660.16 117.04C4669.15 160.58 4680.37 219.77 4696.3 191.63C4712.23 163.49 4734.57 59.43 4751.47 80.77C4768.37 102.11 4782.94 141.77 4800.01 141.77V0H641.01Z" fill="url(#paint4_linear)"/>
<path opacity="0.7" d="M1671.36 826.1C1651.99 825.67 1559.69 826.1 1592.86 812.1C1610.21 804.79 1593.61 799.63 1540.28 798.97C1486.95 798.31 1523.37 795.97 1544.03 795.19C1585.69 793.62 1619.03 799.48 1611.69 806.79C1604.35 814.1 1595.69 814.42 1606.36 817.79C1617.03 821.16 1657.53 822.27 1661.53 822.12C1665.53 821.97 1730.69 827.42 1671.36 826.1Z" fill="#FF4E00"/>
<path opacity="0.7" d="M1892.83 795.88C1902.43 795.88 1975.99 797.59 1952.6 802.23C1940.29 804.68 1925.49 815.78 1956.93 815.78C1976.08 815.78 2030 817.42 2016.26 815.78C2002.52 814.14 1931.86 811.7 1949.38 807.2C1986.23 797.75 1959.38 795.76 1952.07 794.85C1920.45 790.94 1877.37 795.81 1892.83 795.88Z" fill="#FF4E00"/>
<path opacity="0.7" d="M1909.16 769.181C1884.5 769.761 1836.6 769.181 1852.7 774.551C1873.13 781.361 1861.4 780.551 1845.45 781.131C1829.5 781.711 1786.27 779.991 1796.71 784.571C1806.02 788.661 1810.94 789.79 1796.46 793.23C1815.63 793.07 1835.12 793.791 1851.54 795.871C1877.36 799.151 1855.02 807.781 1835 812.651C1814.98 817.521 1853.28 818.651 1870.69 820.651C1888.1 822.651 1894.48 822.36 1888.38 823.41C1882.28 824.46 1844 821.221 1825.14 819.211C1806.28 817.201 1820.5 809.211 1829.49 808.751C1838.48 808.291 1855.6 803.751 1847.49 799.821C1840.49 796.461 1805.35 794.631 1776.88 796.821C1741.68 801.361 1618.41 796.541 1654.71 784.591C1675.16 777.861 1678.21 778.081 1669.94 776.361C1661.67 774.641 1639.46 771.571 1612.5 771.131C1571.89 770.461 1591.25 769.201 1624.39 769.201C1652.97 769.201 1705.84 775.501 1680.82 780.441C1620.04 792.441 1734.72 796.041 1764.52 794.321C1786.24 792.161 1798.52 788.321 1785.11 784.591C1760.17 777.721 1825.73 777.151 1841.4 777.151C1857.07 777.151 1826.68 770.341 1851.6 767.491C1876.52 764.641 1934.09 767.421 1944.53 769.201C1954.97 770.981 1933.82 768.611 1909.16 769.181Z" fill="#FF4E00"/>
<path opacity="0.7" d="M1057.18 829.82C1092.63 829.14 1088.25 821.52 1077.65 818.45C1067.05 815.38 1078.95 811.45 1119.97 811.45C1160.99 811.45 1167.22 814.3 1136.51 814.69C1105.8 815.08 1089.35 817.22 1095.51 822.63C1101.67 828.04 1085.82 835.09 1054.39 834C1022.96 832.91 982.6 831.27 1057.18 829.82Z" fill="#FF4E00"/>
<path opacity="0.7" d="M1401.5 814.85C1394.37 813.54 1388.31 809.18 1399.5 804.38C1410.69 799.58 1382.8 797.84 1363.24 799.15C1343.68 800.46 1324.1 795.53 1329.61 806.21C1335.12 816.89 1266.42 814.3 1259.17 814.47C1251.92 814.64 1249.28 814.3 1257.17 821.83C1265.06 829.36 1201.17 827.95 1170.17 826.99C1148.07 826.3 1182.42 822.38 1218.17 822.7C1240.31 822.9 1245.62 821.34 1241.17 817.76C1236.86 812.76 1238.98 810.76 1255.34 810.76H1257.63C1265.69 810.76 1274.73 810.96 1282.73 810.96C1306.47 810.96 1324.93 810.96 1316.58 801.81C1308.23 792.66 1338.58 795.7 1375.05 795.26C1411.52 794.82 1416.75 798.82 1405.38 806.26C1389.18 816.83 1460.59 815.87 1482.51 818.03C1501.75 819.88 1427.08 819.54 1401.5 814.85ZM1213.77 791.31C1238.43 789.31 1264.77 788.61 1250.66 782.05C1233.58 774.12 1264.33 774.12 1278.3 773.45C1292.27 772.78 1300.98 772.13 1278.3 770.81C1255.62 769.49 1222.16 771.13 1237.3 778.88C1251.15 786 1223.53 785.26 1156.6 784.37C1131.75 784.04 1106.9 781.9 1116.22 777.75C1125.54 773.6 1110.32 769.59 1082.99 768.75C1055.66 767.91 1006.27 771.51 1022.74 771.51C1039.21 771.51 1114.98 773.16 1105.35 778.45C1095.72 783.74 1097.59 783.75 1118.09 787.71C1132.74 790.52 1200.65 792.32 1213.77 791.31V791.31Z" fill="#FF4E00"/>
<path opacity="0.7" d="M2465.72 837.65C2488.29 837.2 2595.85 837.65 2557.19 822.96C2536.97 815.27 2556.32 809.85 2618.47 809.16C2680.62 808.47 2638.17 806 2614.1 805.16C2565.55 803.52 2526.7 809.67 2535.25 817.34C2543.8 825.01 2553.92 825.34 2541.46 828.92C2529 832.5 2481.84 833.63 2477.18 833.46C2472.52 833.29 2396.57 839 2465.72 837.65Z" fill="#FF4E00"/>
<path opacity="0.7" d="M2891.87 769.18C2867.21 769.76 2819.3 769.18 2835.41 774.55C2855.84 781.36 2844.11 780.55 2828.15 781.13C2812.19 781.71 2769.01 780 2779.41 784.57C2788.73 788.66 2793.64 789.79 2779.17 793.23C2798.34 793.07 2817.82 793.79 2834.24 795.87C2860.06 799.15 2836.78 806.08 2816.76 810.95C2796.74 815.82 2839.52 816.09 2856.93 818.1C2874.34 820.11 2878.54 819.92 2872.44 820.97C2866.34 822.02 2829.28 820.2 2810.44 818.19C2791.6 816.18 2803.44 811.01 2812.21 808.77C2824.95 805.5 2839.97 802.51 2830.21 799.84C2822.75 797.84 2788.07 794.65 2759.6 796.84C2724.41 801.38 2601.13 796.56 2637.44 784.61C2657.89 777.88 2660.93 778.1 2652.67 776.38C2644.41 774.66 2622.19 771.59 2595.22 771.15C2554.61 770.48 2573.98 769.22 2607.12 769.22C2635.69 769.22 2688.57 775.52 2663.55 780.46C2602.77 792.46 2716.16 794.12 2745.96 792.39C2767.68 790.24 2781.27 788.31 2767.84 784.61C2742.84 777.74 2808.46 777.17 2824.12 777.17C2839.78 777.17 2809.4 770.36 2834.33 767.51C2859.26 764.66 2916.81 767.44 2927.26 769.22C2937.71 771 2916.53 768.61 2891.87 769.18Z" fill="#FF4E00"/>
<path opacity="0.7" d="M2466.09 798.67C2501.55 797.98 2497.16 790.37 2486.56 787.3C2475.96 784.23 2487.86 780.3 2528.89 780.3C2569.92 780.3 2576.14 783.15 2545.42 783.55C2514.7 783.95 2498.26 786.07 2504.47 791.49C2510.68 796.91 2494.79 803.94 2463.35 802.86C2431.91 801.78 2391.51 800.11 2466.09 798.67Z" fill="#FF4E00"/>
<path opacity="0.7" d="M2403.31 813.81C2395.61 812.4 2389.07 807.69 2401.17 802.51C2413.27 797.33 2383.17 795.44 2362 796.85C2340.83 798.26 2319.73 792.95 2325.68 804.48C2331.63 816.01 2257.42 813.23 2249.59 813.4C2241.76 813.57 2238.9 813.23 2247.45 821.4C2256 829.57 2186.91 828.01 2153.45 826.97C2129.58 826.23 2166.68 821.97 2205.32 822.34C2229.24 822.56 2234.97 820.87 2230.22 817.01C2225.56 811.63 2227.86 809.49 2245.53 809.41H2248.01C2256.72 809.41 2266.49 809.62 2275.13 809.62C2300.77 809.62 2320.71 809.62 2311.69 799.73C2302.67 789.84 2335.43 793.14 2374.84 792.67C2414.25 792.2 2419.89 796.51 2407.6 804.53C2390.11 815.95 2467.24 814.91 2490.92 817.25C2511.59 819.25 2430.94 818.88 2403.31 813.81ZM2196.48 791.31C2221.14 789.31 2247.48 788.61 2233.37 782.05C2216.28 774.12 2247.03 774.12 2261.01 773.45C2274.99 772.78 2283.68 772.13 2261.01 770.81C2238.34 769.49 2204.87 771.13 2219.95 778.88C2233.8 786 2206.18 785.26 2139.26 784.37C2114.41 784.04 2089.56 781.9 2098.88 777.75C2108.2 773.6 2092.98 769.59 2065.65 768.75C2038.32 767.91 1988.93 771.51 2005.39 771.51C2021.85 771.51 2097.64 773.16 2088.01 778.45C2078.38 783.74 2080.24 783.75 2100.74 787.71C2115.45 790.52 2183.36 792.32 2196.48 791.31V791.31Z" fill="#FF4E00"/>
<path opacity="0.7" d="M3469.74 805C3494.39 803 3520.74 802.3 3506.63 795.74C3489.54 787.81 3520.29 787.81 3534.27 787.14C3548.25 786.47 3556.94 785.82 3534.27 784.5C3511.6 783.18 3478.13 784.82 3493.21 792.57C3507.06 799.69 3479.44 798.95 3412.52 798.06C3387.67 797.73 3362.82 795.59 3372.14 791.44C3381.46 787.29 3366.24 783.28 3338.91 782.44C3311.58 781.6 3262.19 785.2 3278.65 785.2C3295.11 785.2 3370.9 786.85 3361.27 792.2C3351.64 797.55 3353.5 797.49 3374 801.46C3388.71 804.18 3456.62 806 3469.74 805Z" fill="#FF4E00"/>
<path opacity="0.7" d="M2944.42 801.11C2979.87 800.42 2975.49 792.81 2964.89 789.74C2954.29 786.67 2966.19 782.74 3007.21 782.74C3048.23 782.74 3054.46 785.59 3023.75 785.99C2993.04 786.39 2976.59 788.51 2982.8 793.93C2989.01 799.35 2973.11 806.38 2941.67 805.3C2910.23 804.22 2869.84 802.55 2944.42 801.11Z" fill="#FF4E00"/>
<path opacity="0.7" d="M3229.01 804.42C3221.88 802.86 3215.82 797.65 3227.01 791.92C3238.2 786.19 3210.31 784.11 3190.75 785.67C3171.19 787.23 3151.61 781.36 3157.12 794.1C3162.63 806.84 3093.93 803.77 3086.68 803.96C3079.43 804.15 3076.79 803.77 3084.68 812.75C3092.57 821.73 3028.68 820.06 2997.68 818.91C2975.58 818.09 3009.93 813.4 3045.68 813.79C3067.82 814.03 3073.13 812.16 3068.68 807.89C3064.37 801.95 3066.49 799.58 3082.85 799.49H3085.14C3093.2 799.49 3102.24 799.73 3110.24 799.73C3133.98 799.73 3152.44 799.73 3144.09 788.8C3135.74 777.87 3166.09 781.51 3202.56 780.99C3239.03 780.47 3244.26 785.23 3232.89 794.1C3216.69 806.72 3288.1 805.57 3310.02 808.16C3329.25 810.42 3254.58 810 3229.01 804.42Z" fill="#FF4E00"/>
<path opacity="0.7" d="M959.75 784.33C932.38 783.82 857.75 786.48 910.35 787.81C962.95 789.14 1096.35 785.97 1051 784.33C1005.65 782.69 959.75 784.33 959.75 784.33Z" fill="#FF4E00"/>
<path d="M0.00976562 900V837.3C172.01 837.3 412.01 844.63 520.01 841C575.9 839.13 699.82 844.45 768.18 846.09C945.81 846.09 1135.93 840.19 1232.93 838.86C1293.93 838.02 1405.61 834.74 1469.83 837.3C1751.25 840.46 1712.39 837.12 1849.63 838.86C2519.88 847.4 2723 838.86 2722.01 838.86C2830.01 833.78 2899.63 835.66 2980.73 837.3H3298.91C3407.12 835.3 3524.7 837.23 3553.01 837.23C3554.01 837.23 3853.01 833.78 4009.01 838.86C4039.47 840.22 4262.44 840.35 4384.34 842.69C4497.52 842.92 4682.51 837.3 4800.01 837.3C4797.19 837.3 4793.85 837.3 4790.01 837.38L4800.01 837.3V900H0.00976562Z" fill="url(#paint5_linear)"/>
<path opacity="0.7" d="M119.73 806.34C140.42 808.34 59.73 808.01 32.14 802.95C24.44 801.54 17.89 796.83 30 791.64C40.43 787.18 19.51 785.17 0 785.64V781.83H3.64C43.05 781.36 48.69 785.67 36.4 793.69C18.91 805 96.01 804 119.73 806.34ZM4800.01 781.78C4762.25 782.03 4731.76 779.23 4740.5 788.78C4749.5 798.67 4729.58 798.67 4703.94 798.67C4695.29 798.67 4685.53 798.48 4676.82 798.45H4674.35C4656.68 798.54 4654.35 800.68 4659.04 806.05C4663.79 809.92 4658.04 811.6 4634.14 811.39C4595.49 811.04 4558.39 815.28 4582.27 816.02C4615.74 817.02 4684.83 818.57 4676.27 810.45C4667.71 802.33 4670.57 802.67 4678.41 802.45C4686.25 802.23 4760.41 805.05 4754.5 793.52C4748.59 781.99 4769.69 787.31 4790.82 785.9C4793.75 785.71 4796.82 785.57 4800 785.5L4800.01 781.78ZM4556.59 787C4539.51 779.06 4570.25 779.06 4584.23 778.4C4598.21 777.74 4606.9 777.08 4584.23 775.76C4561.56 774.44 4528.09 776.07 4543.17 783.83C4557.02 790.95 4529.4 790.21 4462.48 789.31C4437.63 788.98 4412.78 786.84 4422.1 782.7C4431.42 778.56 4416.2 774.53 4388.87 773.7C4361.54 772.87 4312.15 776.46 4328.61 776.46C4345.07 776.46 4420.86 778.11 4411.23 783.4C4401.6 788.69 4403.47 788.69 4423.96 792.66C4438.67 795.51 4506.58 797.31 4519.7 796.3C4544.36 794.25 4570.69 793.55 4556.59 787Z" fill="#FF4E00"/>
<rect x="0.00976562" width="4800" height="900" fill="url(#paint6_linear)"/>
<defs>
<linearGradient id="paint0_linear" x1="2400.01" y1="893.993" x2="2400.01" y2="104.657" gradientUnits="userSpaceOnUse">
<stop stop-color="#FF5521"/>
<stop offset="1"/>
</linearGradient>
<linearGradient id="paint1_linear" x1="2400.01" y1="794.62" x2="2400.01" y2="514.84" gradientUnits="userSpaceOnUse">
<stop stop-color="#350402"/>
<stop offset="1" stop-color="#700100"/>
</linearGradient>
<linearGradient id="paint2_linear" x1="1.152e+07" y1="0" x2="1.152e+07" y2="195309" gradientUnits="userSpaceOnUse">
<stop stop-color="#350402"/>
<stop offset="1" stop-color="#700100"/>
</linearGradient>
<linearGradient id="paint3_linear" x1="2400.01" y1="871.05" x2="2400.01" y2="757.34" gradientUnits="userSpaceOnUse">
<stop offset="0.01" stop-color="#CF0000"/>
<stop offset="0.29" stop-color="#D50700"/>
<stop offset="0.71" stop-color="#E71B00"/>
<stop offset="1" stop-color="#F72D00"/>
</linearGradient>
<linearGradient id="paint4_linear" x1="2400.01" y1="273.3" x2="2400.01" y2="0" gradientUnits="userSpaceOnUse">
<stop stop-color="#380303"/>
<stop offset="1" stop-color="#240000"/>
</linearGradient>
<linearGradient id="paint5_linear" x1="2400.01" y1="900" x2="2400.01" y2="835.56" gradientUnits="userSpaceOnUse">
<stop stop-color="#240000"/>
<stop offset="1" stop-color="#380303"/>
</linearGradient>
<linearGradient id="paint6_linear" x1="2400.01" y1="0" x2="2400.01" y2="1590" gradientUnits="userSpaceOnUse">
<stop offset="0.135417" stop-color="#F6EAD0"/>
<stop offset="1" stop-opacity="0"/>
</linearGradient>
</defs>
</svg>
