<svg width="4000" height="45" viewBox="0 0 4000 45" fill="none" xmlns="http://www.w3.org/2000/svg">
<path d="M2071.44 0H1928.56H0V5.57H59.97V7.71L67.47 11.16H70.94V44.92H77.12V11.16H80.06L88.09 7.67V5.57H213V7.71L220.5 11.16H223.97V44.92H230.15V11.16H233.09L241.12 7.67V5.57H366.03V7.71L373.53 11.16H377V44.92H383.17V11.16H386.12L394.14 7.67V5.57H519.06V7.71L526.56 11.16H530.03V44.92H536.2V11.16H539.15L547.17 7.67V5.57H672.09V7.71L679.59 11.16H683.06V44.92H689.23V11.16H692.17L700.2 7.67V5.57H836.64V7.71L844.14 11.16H847.61V44.92H853.78V11.16H856.73L864.75 7.67V5.57H1001.19V7.71L1008.69 11.16H1012.16V44.92H1018.33V11.16H1021.28L1029.3 7.67V5.57H1165.74V7.71L1173.24 11.16H1176.71V44.92H1182.89V11.16H1185.83L1193.86 7.67V5.57H1330.3V7.71L1337.8 11.16H1341.27V44.92H1347.44V11.16H1350.38L1358.41 7.67V5.57H1494.85V7.71L1502.35 11.16H1505.82V44.92H1511.99V11.16H1514.93L1522.96 7.67V5.57H1659.4V7.71L1666.9 11.16H1670.37V44.92H1676.54V11.16H1679.48L1687.51 7.67V5.57H1823.95V7.71L1831.45 11.16H1834.92V44.92H1841.09V11.16H1844.04L1852.06 7.67V5.57H1928.56H1988.5V7.71L1996 11.16H1996.04H1999.47V44.92H1999.51H2005.64H2005.68V11.16H2008.59H2008.62L2016.65 7.67V5.57H2071.44H2141.56V7.71L2149.06 11.16H2152.53V44.92H2158.71V11.16H2161.65L2169.68 7.67V5.57H2294.59V7.71L2302.09 11.16H2305.56V44.92H2311.74V11.16H2314.68L2322.7 7.67V5.57H2447.62V7.71L2455.12 11.16H2458.59V44.92H2464.76V11.16H2467.71L2475.73 7.67V5.57H2600.65V7.71L2608.15 11.16H2611.62V44.92H2617.79V11.16H2620.74L2628.76 7.67V5.57H2765.2V7.71L2772.7 11.16H2776.17V44.92H2782.34V11.16H2785.29L2793.31 7.67V5.57H2929.75V7.71L2937.25 11.16H2940.72V44.92H2946.89V11.16H2949.84L2957.86 7.67V5.57H3094.3V7.71L3101.8 11.16H3105.27V44.92H3111.45V11.16H3114.39L3122.42 7.67V5.57H3258.86V7.71L3266.36 11.16H3269.83V44.92H3276V11.16H3278.94L3286.97 7.67V5.57H3423.41V7.71L3430.91 11.16H3434.38V44.92H3440.55V11.16H3443.49L3451.52 7.67V5.57H3587.96V7.71L3595.46 11.16H3598.93V44.92H3605.1V11.16H3608.05L3616.07 7.67V5.57H3752.51V7.71L3760.01 11.16H3763.48V44.92H3769.65V11.16H3772.6L3780.62 7.67V5.57H3917.06V7.71L3924.56 11.16H3928.03V44.92H3934.21V11.16H3937.15L3945.18 7.67V5.57H4000V0H2071.44Z" fill="url(#paint0_radial)"/>
<defs>
<radialGradient id="paint0_radial" cx="0" cy="0" r="1" gradientUnits="userSpaceOnUse" gradientTransform="translate(1628.76 -16.09) scale(2373.39)">
<stop stop-color="#1A72A2"/>
<stop offset="0.4" stop-color="#0F446F"/>
<stop offset="0.8" stop-color="#051D44"/>
<stop offset="1" stop-color="#010E33"/>
</radialGradient>
</defs>
</svg>
