<svg width="1595" height="55" viewBox="0 0 1595 55" fill="none" xmlns="http://www.w3.org/2000/svg">
<path d="M282.8 9.13998V50.14C282.807 50.775 282.687 51.405 282.449 51.9937C282.211 52.5824 281.859 53.1182 281.412 53.57C280.966 54.0218 280.435 54.3808 279.849 54.6262C279.264 54.8717 278.635 54.9987 278 55H15.5C12.4742 55.0014 9.52202 54.0671 7.04793 52.3252C4.57384 50.5833 2.69888 48.119 1.67998 45.27C1.34655 44.3075 1.11855 43.3117 0.999985 42.3C0.908767 41.6372 0.861997 40.969 0.859985 40.3V35.39C0.873654 33.675 1.213 31.9783 1.85999 30.39C4.92999 22.56 14.52 14.26 24.86 8.31998C33.55 3.31998 42.77 -0.0200195 49.08 -0.0200195H273.68C274.88 -0.017396 276.068 0.221616 277.176 0.683369C278.284 1.14512 279.29 1.82057 280.137 2.67116C280.984 3.52175 281.655 4.53081 282.112 5.64073C282.569 6.75065 282.803 7.9397 282.8 9.13998V9.13998Z" fill="url(#paint0_linear)"/>
<path d="M530.75 1.02329e-09H293.89C291.466 1.02331e-09 289.141 0.962961 287.427 2.67704C285.713 4.39113 284.75 6.71592 284.75 9.14V50.14C284.743 50.7759 284.863 51.4067 285.102 51.9961C285.34 52.5854 285.694 53.1216 286.141 53.5736C286.588 54.0255 287.121 54.3843 287.708 54.6291C288.295 54.874 288.924 55 289.56 55H535.08C536.356 55 537.579 54.4932 538.481 53.5912C539.383 52.6891 539.89 51.4657 539.89 50.19V9.19C539.897 7.98552 539.665 6.79161 539.209 5.67692C538.752 4.56222 538.08 3.54873 537.231 2.6947C536.381 1.84067 535.372 1.16294 534.259 0.700493C533.147 0.238042 531.955 -1.8022e-05 530.75 1.02329e-09V1.02329e-09Z" fill="url(#paint1_linear)"/>
<path d="M530.75 1.02329e-09H293.89C291.466 1.02331e-09 289.141 0.962961 287.427 2.67704C285.713 4.39113 284.75 6.71592 284.75 9.14V50.14C284.743 50.7759 284.863 51.4067 285.102 51.9961C285.34 52.5854 285.694 53.1216 286.141 53.5736C286.588 54.0255 287.121 54.3843 287.708 54.6291C288.295 54.874 288.924 55 289.56 55H535.08C536.356 55 537.579 54.4932 538.481 53.5912C539.383 52.6891 539.89 51.4657 539.89 50.19V9.19C539.897 7.98552 539.665 6.79161 539.209 5.67692C538.752 4.56222 538.08 3.54873 537.231 2.6947C536.381 1.84067 535.372 1.16294 534.259 0.700493C533.147 0.238042 531.955 -1.8022e-05 530.75 1.02329e-09V1.02329e-09Z" fill="url(#paint2_linear)"/>
<path d="M788.08 1.02329e-09H551.22C548.796 1.02329e-09 546.471 0.962961 544.757 2.67704C543.043 4.39113 542.08 6.71592 542.08 9.14V50.14C542.073 50.7759 542.193 51.4067 542.432 51.9961C542.671 52.5854 543.024 53.1216 543.471 53.5736C543.918 54.0255 544.451 54.3843 545.038 54.6291C545.625 54.874 546.254 55 546.89 55H792.41C793.686 55 794.909 54.4932 795.811 53.5912C796.713 52.6891 797.22 51.4657 797.22 50.19V9.19C797.227 7.98552 796.995 6.79161 796.539 5.67692C796.082 4.56222 795.41 3.54873 794.561 2.6947C793.711 1.84067 792.702 1.16294 791.589 0.700493C790.477 0.238042 789.285 -1.8022e-05 788.08 1.02329e-09V1.02329e-09Z" fill="url(#paint3_linear)"/>
<path d="M788.08 1.02329e-09H551.22C548.796 1.02329e-09 546.471 0.962961 544.757 2.67704C543.043 4.39113 542.08 6.71592 542.08 9.14V50.14C542.073 50.7759 542.193 51.4067 542.432 51.9961C542.671 52.5854 543.024 53.1216 543.471 53.5736C543.918 54.0255 544.451 54.3843 545.038 54.6291C545.625 54.874 546.254 55 546.89 55H792.41C793.686 55 794.909 54.4932 795.811 53.5912C796.713 52.6891 797.22 51.4657 797.22 50.19V9.19C797.227 7.98552 796.995 6.79161 796.539 5.67692C796.082 4.56222 795.41 3.54873 794.561 2.6947C793.711 1.84067 792.702 1.16294 791.589 0.700493C790.477 0.238042 789.285 -1.8022e-05 788.08 1.02329e-09V1.02329e-09Z" fill="url(#paint4_linear)"/>
<path d="M1044.79 1.02329e-09H807.93C805.506 1.02329e-09 803.181 0.962961 801.467 2.67704C799.753 4.39113 798.79 6.71592 798.79 9.14V50.14C798.783 50.7759 798.903 51.4067 799.142 51.9961C799.381 52.5854 799.734 53.1216 800.181 53.5736C800.628 54.0255 801.161 54.3843 801.748 54.6291C802.335 54.874 802.964 55 803.6 55H1049.12C1050.4 55 1051.62 54.4932 1052.52 53.5912C1053.42 52.6891 1053.93 51.4657 1053.93 50.19V9.19C1053.94 7.98552 1053.71 6.79161 1053.25 5.67692C1052.79 4.56222 1052.12 3.54873 1051.27 2.6947C1050.42 1.84067 1049.41 1.16294 1048.3 0.700493C1047.19 0.238042 1045.99 -1.8022e-05 1044.79 1.02329e-09V1.02329e-09Z" fill="url(#paint5_linear)"/>
<path d="M1044.79 1.02329e-09H807.93C805.506 1.02329e-09 803.181 0.962961 801.467 2.67704C799.753 4.39113 798.79 6.71592 798.79 9.14V50.14C798.783 50.7759 798.903 51.4067 799.142 51.9961C799.381 52.5854 799.734 53.1216 800.181 53.5736C800.628 54.0255 801.161 54.3843 801.748 54.6291C802.335 54.874 802.964 55 803.6 55H1049.12C1050.4 55 1051.62 54.4932 1052.52 53.5912C1053.42 52.6891 1053.93 51.4657 1053.93 50.19V9.19C1053.94 7.98552 1053.71 6.79161 1053.25 5.67692C1052.79 4.56222 1052.12 3.54873 1051.27 2.6947C1050.42 1.84067 1049.41 1.16294 1048.3 0.700493C1047.19 0.238042 1045.99 -1.8022e-05 1044.79 1.02329e-09V1.02329e-09Z" fill="url(#paint6_linear)"/>
<path d="M1301.74 0H1064.88C1063.68 0 1062.49 0.236413 1061.38 0.695741C1060.27 1.15507 1059.27 1.82832 1058.42 2.67704C1057.57 3.52577 1056.9 4.53336 1056.44 5.64227C1055.98 6.75119 1055.74 7.93972 1055.74 9.14V50.14C1055.74 51.4157 1056.25 52.6391 1057.15 53.5412C1058.05 54.4432 1059.27 54.95 1060.55 54.95H1306.07C1307.35 54.95 1308.57 54.4432 1309.47 53.5412C1310.37 52.6391 1310.88 51.4157 1310.88 50.14V9.14C1310.88 6.71592 1309.92 4.39113 1308.2 2.67704C1306.49 0.962961 1304.16 0 1301.74 0V0Z" fill="url(#paint7_linear)"/>
<path d="M1301.74 0H1064.88C1063.68 0 1062.49 0.236413 1061.38 0.695741C1060.27 1.15507 1059.27 1.82832 1058.42 2.67704C1057.57 3.52577 1056.9 4.53336 1056.44 5.64227C1055.98 6.75119 1055.74 7.93972 1055.74 9.14V50.14C1055.74 51.4157 1056.25 52.6391 1057.15 53.5412C1058.05 54.4432 1059.27 54.95 1060.55 54.95H1306.07C1307.35 54.95 1308.57 54.4432 1309.47 53.5412C1310.37 52.6391 1310.88 51.4157 1310.88 50.14V9.14C1310.88 6.71592 1309.92 4.39113 1308.2 2.67704C1306.49 0.962961 1304.16 0 1301.74 0V0Z" fill="url(#paint8_linear)"/>
<path d="M1312.09 9.14V50.14C1312.08 50.7759 1312.2 51.4067 1312.44 51.9961C1312.68 52.5854 1313.03 53.1216 1313.48 53.5736C1313.93 54.0255 1314.46 54.3843 1315.05 54.6291C1315.63 54.874 1316.26 55 1316.9 55H1579.4C1582.43 55.0014 1585.38 54.0671 1587.85 52.3253C1590.33 50.5834 1592.2 48.1191 1593.22 45.27V45.27C1593.56 44.3284 1593.8 43.3529 1593.94 42.36C1594.03 41.6972 1594.08 41.029 1594.08 40.36V35.39C1594.07 33.675 1593.73 31.9783 1593.08 30.39C1590.01 22.56 1580.42 14.26 1570.08 8.32C1561.39 3.32 1552.17 -0.0199977 1545.86 -0.0199977H1321.26C1320.06 -0.0226303 1318.86 0.21243 1317.75 0.671708C1316.64 1.13098 1315.63 1.80545 1314.77 2.65642C1313.92 3.5074 1313.25 4.51816 1312.79 5.63075C1312.33 6.74334 1312.09 7.93588 1312.09 9.14V9.14Z" fill="url(#paint9_linear)"/>
<path d="M1312.09 9.14V50.14C1312.08 50.7759 1312.2 51.4067 1312.44 51.9961C1312.68 52.5854 1313.03 53.1216 1313.48 53.5736C1313.93 54.0255 1314.46 54.3843 1315.05 54.6291C1315.63 54.874 1316.26 55 1316.9 55H1579.4C1582.43 55.0014 1585.38 54.0671 1587.85 52.3253C1590.33 50.5834 1592.2 48.1191 1593.22 45.27V45.27C1593.56 44.3284 1593.8 43.3529 1593.94 42.36C1594.03 41.6972 1594.08 41.029 1594.08 40.36V35.39C1594.07 33.675 1593.73 31.9783 1593.08 30.39C1590.01 22.56 1580.42 14.26 1570.08 8.32C1561.39 3.32 1552.17 -0.0199977 1545.86 -0.0199977H1321.26C1320.06 -0.0226303 1318.86 0.21243 1317.75 0.671708C1316.64 1.13098 1315.63 1.80545 1314.77 2.65642C1313.92 3.5074 1313.25 4.51816 1312.79 5.63075C1312.33 6.74334 1312.09 7.93588 1312.09 9.14V9.14Z" fill="url(#paint10_linear)"/>
<path d="M284.75 45.22V50.14C284.743 50.7758 284.863 51.4067 285.102 51.996C285.34 52.5854 285.694 53.1216 286.141 53.5735C286.588 54.0255 287.121 54.3843 287.708 54.6291C288.295 54.874 288.924 55 289.56 55H535.08C536.356 55 537.579 54.4932 538.481 53.5912C539.383 52.6891 539.89 51.4657 539.89 50.19V45.22H284.75Z" fill="#010E33"/>
<path d="M282.8 45.22V50.14C282.807 50.775 282.687 51.405 282.449 51.9937C282.211 52.5824 281.859 53.1181 281.412 53.57C280.966 54.0218 280.435 54.3808 279.849 54.6262C279.263 54.8717 278.635 54.9987 278 55H15.4999C12.4742 55.0014 9.52197 54.0671 7.04788 52.3252C4.57379 50.5833 2.69884 48.119 1.67993 45.27L282.8 45.22Z" fill="#010E33"/>
<path d="M798.79 45.22V50.14C798.783 50.7758 798.903 51.4067 799.142 51.996C799.381 52.5854 799.734 53.1216 800.181 53.5735C800.628 54.0255 801.161 54.3843 801.748 54.6291C802.335 54.874 802.964 55 803.6 55H1049.12C1050.4 55 1051.62 54.4932 1052.52 53.5912C1053.42 52.6891 1053.93 51.4657 1053.93 50.19V45.22H798.79Z" fill="#010E33"/>
<path d="M1055.74 45.22V50.14C1055.74 51.4157 1056.25 52.6391 1057.15 53.5412C1058.05 54.4432 1059.27 54.95 1060.55 54.95H1306.07C1307.35 54.95 1308.57 54.4432 1309.47 53.5412C1310.37 52.6391 1310.88 51.4157 1310.88 50.14V45.22H1055.74Z" fill="#010E33"/>
<path d="M542.08 45.22V50.14C542.073 50.7758 542.193 51.4067 542.432 51.996C542.671 52.5854 543.024 53.1216 543.471 53.5735C543.918 54.0255 544.451 54.3843 545.038 54.6291C545.625 54.874 546.254 55 546.89 55H792.41C793.686 55 794.909 54.4932 795.811 53.5912C796.713 52.6891 797.22 51.4657 797.22 50.19V45.22H542.08Z" fill="#010E33"/>
<path d="M1312.09 45.22V50.14C1312.08 50.7758 1312.2 51.4067 1312.44 51.996C1312.68 52.5854 1313.03 53.1216 1313.48 53.5735C1313.93 54.0255 1314.46 54.3843 1315.05 54.6291C1315.63 54.874 1316.26 55 1316.9 55H1579.4C1582.43 55.0014 1585.38 54.0671 1587.85 52.3252C1590.33 50.5833 1592.2 48.119 1593.22 45.27L1312.09 45.22Z" fill="#010E33"/>
<path d="M789.79 35.39H542.08V41.6H797.22V35.39H789.79Z" fill="#0071BC"/>
<path d="M1303.45 35.39H1055.74V41.6H1310.88V35.39H1303.45Z" fill="#0071BC"/>
<path d="M282.8 35.39V41.6H49.63C33.5774 41.563 17.5461 42.7699 1.67999 45.21C1.35074 44.2669 1.1228 43.2914 1 42.3C11.85 39.72 32.63 35.39 49.67 35.39H282.8Z" fill="#0071BC"/>
<path d="M532.46 35.39H284.75V41.6H539.89V35.39H532.46Z" fill="#0071BC"/>
<path d="M1046.5 35.39H798.79V41.6H1053.93V35.39H1046.5Z" fill="#0071BC"/>
<path d="M1312.09 35.39V41.6H1545.27C1561.34 41.5604 1577.39 42.7673 1593.27 45.21C1593.61 44.2684 1593.85 43.2929 1593.99 42.3C1583.14 39.72 1562.36 35.39 1545.32 35.39H1312.09Z" fill="#0071BC"/>
<path d="M102.67 11.02H93.65C92.5289 11.02 91.62 11.9289 91.62 13.05V26.72C91.62 27.8412 92.5289 28.75 93.65 28.75H102.67C103.791 28.75 104.7 27.8412 104.7 26.72V13.05C104.7 11.9289 103.791 11.02 102.67 11.02Z" fill="url(#paint11_linear)"/>
<path d="M121.59 11.02H112.57C111.449 11.02 110.54 11.9289 110.54 13.05V26.72C110.54 27.8412 111.449 28.75 112.57 28.75H121.59C122.711 28.75 123.62 27.8412 123.62 26.72V13.05C123.62 11.9289 122.711 11.02 121.59 11.02Z" fill="url(#paint12_linear)"/>
<path d="M78.74 11.02H57.94C55.3442 11.02 53.24 13.1243 53.24 15.72V47.26C53.24 49.8558 55.3442 51.96 57.94 51.96H78.74C81.3357 51.96 83.44 49.8558 83.44 47.26V15.72C83.44 13.1243 81.3357 11.02 78.74 11.02Z" fill="url(#paint13_linear)"/>
<path d="M216.2 11.02H207.18C206.059 11.02 205.15 11.9289 205.15 13.05V26.72C205.15 27.8412 206.059 28.75 207.18 28.75H216.2C217.321 28.75 218.23 27.8412 218.23 26.72V13.05C218.23 11.9289 217.321 11.02 216.2 11.02Z" fill="url(#paint14_linear)"/>
<path d="M235.12 11.02H226.1C224.979 11.02 224.07 11.9289 224.07 13.05V26.72C224.07 27.8412 224.979 28.75 226.1 28.75H235.12C236.241 28.75 237.15 27.8412 237.15 26.72V13.05C237.15 11.9289 236.241 11.02 235.12 11.02Z" fill="url(#paint15_linear)"/>
<path d="M178.36 11.02H169.34C168.219 11.02 167.31 11.9289 167.31 13.05V26.72C167.31 27.8412 168.219 28.75 169.34 28.75H178.36C179.481 28.75 180.39 27.8412 180.39 26.72V13.05C180.39 11.9289 179.481 11.02 178.36 11.02Z" fill="url(#paint16_linear)"/>
<path d="M197.28 11.02H188.26C187.139 11.02 186.23 11.9289 186.23 13.05V26.72C186.23 27.8412 187.139 28.75 188.26 28.75H197.28C198.401 28.75 199.31 27.8412 199.31 26.72V13.05C199.31 11.9289 198.401 11.02 197.28 11.02Z" fill="url(#paint17_linear)"/>
<path d="M140.51 11.02H131.49C130.369 11.02 129.46 11.9289 129.46 13.05V26.72C129.46 27.8412 130.369 28.75 131.49 28.75H140.51C141.631 28.75 142.54 27.8412 142.54 26.72V13.05C142.54 11.9289 141.631 11.02 140.51 11.02Z" fill="url(#paint18_linear)"/>
<path d="M159.44 11.02H150.42C149.299 11.02 148.39 11.9289 148.39 13.05V26.72C148.39 27.8412 149.299 28.75 150.42 28.75H159.44C160.561 28.75 161.47 27.8412 161.47 26.72V13.05C161.47 11.9289 160.561 11.02 159.44 11.02Z" fill="url(#paint19_linear)"/>
<path d="M270.67 11.02H249.87C247.274 11.02 245.17 13.1243 245.17 15.72V47.26C245.17 49.8558 247.274 51.96 249.87 51.96H270.67C273.266 51.96 275.37 49.8558 275.37 47.26V15.72C275.37 13.1243 273.266 11.02 270.67 11.02Z" fill="url(#paint20_linear)"/>
<path d="M473.29 11.02H464.27C463.149 11.02 462.24 11.9289 462.24 13.05V26.72C462.24 27.8412 463.149 28.75 464.27 28.75H473.29C474.411 28.75 475.32 27.8412 475.32 26.72V13.05C475.32 11.9289 474.411 11.02 473.29 11.02Z" fill="url(#paint21_linear)"/>
<path d="M492.21 11.02H483.19C482.069 11.02 481.16 11.9289 481.16 13.05V26.72C481.16 27.8412 482.069 28.75 483.19 28.75H492.21C493.331 28.75 494.24 27.8412 494.24 26.72V13.05C494.24 11.9289 493.331 11.02 492.21 11.02Z" fill="url(#paint22_linear)"/>
<path d="M435.44 11.02H426.42C425.299 11.02 424.39 11.9289 424.39 13.05V26.72C424.39 27.8412 425.299 28.75 426.42 28.75H435.44C436.561 28.75 437.47 27.8412 437.47 26.72V13.05C437.47 11.9289 436.561 11.02 435.44 11.02Z" fill="url(#paint23_linear)"/>
<path d="M454.37 11.02H445.35C444.229 11.02 443.32 11.9289 443.32 13.05V26.72C443.32 27.8412 444.229 28.75 445.35 28.75H454.37C455.491 28.75 456.4 27.8412 456.4 26.72V13.05C456.4 11.9289 455.491 11.02 454.37 11.02Z" fill="url(#paint24_linear)"/>
<path d="M416.52 11.02H408.12C406.999 11.02 406.09 11.9289 406.09 13.05V26.72C406.09 27.8412 406.999 28.75 408.12 28.75H416.52C417.641 28.75 418.55 27.8412 418.55 26.72V13.05C418.55 11.9289 417.641 11.02 416.52 11.02Z" fill="url(#paint25_linear)"/>
<path d="M527.75 11.02H506.95C504.354 11.02 502.25 13.1243 502.25 15.72V47.26C502.25 49.8558 504.354 51.96 506.95 51.96H527.75C530.346 51.96 532.45 49.8558 532.45 47.26V15.72C532.45 13.1243 530.346 11.02 527.75 11.02Z" fill="url(#paint26_linear)"/>
<path d="M350.36 28.75H359.38C360.501 28.75 361.41 27.8411 361.41 26.72V13.05C361.41 11.9289 360.501 11.02 359.38 11.02H350.36C349.239 11.02 348.33 11.9289 348.33 13.05V26.72C348.33 27.8411 349.239 28.75 350.36 28.75Z" fill="url(#paint27_linear)"/>
<path d="M331.43 28.75H340.45C341.571 28.75 342.48 27.8411 342.48 26.72V13.05C342.48 11.9289 341.571 11.02 340.45 11.02H331.43C330.309 11.02 329.4 11.9289 329.4 13.05V26.72C329.4 27.8411 330.309 28.75 331.43 28.75Z" fill="url(#paint28_linear)"/>
<path d="M388.19 28.75H397.21C398.331 28.75 399.24 27.8411 399.24 26.72V13.05C399.24 11.9289 398.331 11.02 397.21 11.02H388.19C387.069 11.02 386.16 11.9289 386.16 13.05V26.72C386.16 27.8411 387.069 28.75 388.19 28.75Z" fill="url(#paint29_linear)"/>
<path d="M369.28 28.75H378.3C379.421 28.75 380.33 27.8411 380.33 26.72V13.05C380.33 11.9289 379.421 11.02 378.3 11.02H369.28C368.159 11.02 367.25 11.9289 367.25 13.05V26.72C367.25 27.8411 368.159 28.75 369.28 28.75Z" fill="url(#paint30_linear)"/>
<path d="M295.88 51.96H316.68C319.276 51.96 321.38 49.8558 321.38 47.26V15.72C321.38 13.1243 319.276 11.02 316.68 11.02H295.88C293.284 11.02 291.18 13.1243 291.18 15.72V47.26C291.18 49.8558 293.284 51.96 295.88 51.96Z" fill="url(#paint31_linear)"/>
<path d="M730.62 11.02H721.6C720.479 11.02 719.57 11.9289 719.57 13.05V26.72C719.57 27.8412 720.479 28.75 721.6 28.75H730.62C731.741 28.75 732.65 27.8412 732.65 26.72V13.05C732.65 11.9289 731.741 11.02 730.62 11.02Z" fill="url(#paint32_linear)"/>
<path d="M749.54 11.02H740.52C739.399 11.02 738.49 11.9289 738.49 13.05V26.72C738.49 27.8412 739.399 28.75 740.52 28.75H749.54C750.661 28.75 751.57 27.8412 751.57 26.72V13.05C751.57 11.9289 750.661 11.02 749.54 11.02Z" fill="url(#paint33_linear)"/>
<path d="M692.77 11.02H683.75C682.629 11.02 681.72 11.9289 681.72 13.05V26.72C681.72 27.8412 682.629 28.75 683.75 28.75H692.77C693.891 28.75 694.8 27.8412 694.8 26.72V13.05C694.8 11.9289 693.891 11.02 692.77 11.02Z" fill="url(#paint34_linear)"/>
<path d="M711.69 11.02H702.67C701.549 11.02 700.64 11.9289 700.64 13.05V26.72C700.64 27.8412 701.549 28.75 702.67 28.75H711.69C712.811 28.75 713.72 27.8412 713.72 26.72V13.05C713.72 11.9289 712.811 11.02 711.69 11.02Z" fill="url(#paint35_linear)"/>
<path d="M673.85 11.02H665.45C664.329 11.02 663.42 11.9289 663.42 13.05V26.72C663.42 27.8412 664.329 28.75 665.45 28.75H673.85C674.971 28.75 675.88 27.8412 675.88 26.72V13.05C675.88 11.9289 674.971 11.02 673.85 11.02Z" fill="url(#paint36_linear)"/>
<path d="M785.08 11.02H764.28C761.684 11.02 759.58 13.1243 759.58 15.72V47.26C759.58 49.8558 761.684 51.96 764.28 51.96H785.08C787.676 51.96 789.78 49.8558 789.78 47.26V15.72C789.78 13.1243 787.676 11.02 785.08 11.02Z" fill="url(#paint37_linear)"/>
<path d="M607.68 28.75H616.7C617.821 28.75 618.73 27.8411 618.73 26.72V13.05C618.73 11.9289 617.821 11.02 616.7 11.02H607.68C606.559 11.02 605.65 11.9289 605.65 13.05V26.72C605.65 27.8411 606.559 28.75 607.68 28.75Z" fill="url(#paint38_linear)"/>
<path d="M588.76 28.75H597.78C598.901 28.75 599.81 27.8411 599.81 26.72V13.05C599.81 11.9289 598.901 11.02 597.78 11.02H588.76C587.639 11.02 586.73 11.9289 586.73 13.05V26.72C586.73 27.8411 587.639 28.75 588.76 28.75Z" fill="url(#paint39_linear)"/>
<path d="M645.53 28.75H654.55C655.671 28.75 656.58 27.8411 656.58 26.72V13.05C656.58 11.9289 655.671 11.02 654.55 11.02H645.53C644.409 11.02 643.5 11.9289 643.5 13.05V26.72C643.5 27.8411 644.409 28.75 645.53 28.75Z" fill="url(#paint40_linear)"/>
<path d="M626.6 28.75H635.62C636.741 28.75 637.65 27.8411 637.65 26.72V13.05C637.65 11.9289 636.741 11.02 635.62 11.02H626.6C625.479 11.02 624.57 11.9289 624.57 13.05V26.72C624.57 27.8411 625.479 28.75 626.6 28.75Z" fill="url(#paint41_linear)"/>
<path d="M553.22 51.96H574.02C576.616 51.96 578.72 49.8558 578.72 47.26V15.72C578.72 13.1243 576.616 11.02 574.02 11.02H553.22C550.624 11.02 548.52 13.1243 548.52 15.72V47.26C548.52 49.8558 550.624 51.96 553.22 51.96Z" fill="url(#paint42_linear)"/>
<path d="M987.33 11.02H978.31C977.189 11.02 976.28 11.9289 976.28 13.05V26.72C976.28 27.8412 977.189 28.75 978.31 28.75H987.33C988.451 28.75 989.36 27.8412 989.36 26.72V13.05C989.36 11.9289 988.451 11.02 987.33 11.02Z" fill="url(#paint43_linear)"/>
<path d="M1006.25 11.02H997.23C996.109 11.02 995.2 11.9289 995.2 13.05V26.72C995.2 27.8412 996.109 28.75 997.23 28.75H1006.25C1007.37 28.75 1008.28 27.8412 1008.28 26.72V13.05C1008.28 11.9289 1007.37 11.02 1006.25 11.02Z" fill="url(#paint44_linear)"/>
<path d="M949.48 11.02H940.46C939.339 11.02 938.43 11.9289 938.43 13.05V26.72C938.43 27.8412 939.339 28.75 940.46 28.75H949.48C950.601 28.75 951.51 27.8412 951.51 26.72V13.05C951.51 11.9289 950.601 11.02 949.48 11.02Z" fill="url(#paint45_linear)"/>
<path d="M968.4 11.02H959.38C958.259 11.02 957.35 11.9289 957.35 13.05V26.72C957.35 27.8412 958.259 28.75 959.38 28.75H968.4C969.521 28.75 970.43 27.8412 970.43 26.72V13.05C970.43 11.9289 969.521 11.02 968.4 11.02Z" fill="url(#paint46_linear)"/>
<path d="M930.56 11.02H922.16C921.039 11.02 920.13 11.9289 920.13 13.05V26.72C920.13 27.8412 921.039 28.75 922.16 28.75H930.56C931.681 28.75 932.59 27.8412 932.59 26.72V13.05C932.59 11.9289 931.681 11.02 930.56 11.02Z" fill="url(#paint47_linear)"/>
<path d="M1041.79 11.02H1020.99C1018.39 11.02 1016.29 13.1243 1016.29 15.72V47.26C1016.29 49.8558 1018.39 51.96 1020.99 51.96H1041.79C1044.39 51.96 1046.49 49.8558 1046.49 47.26V15.72C1046.49 13.1243 1044.39 11.02 1041.79 11.02Z" fill="url(#paint48_linear)"/>
<path d="M864.39 28.75H873.41C874.531 28.75 875.44 27.8411 875.44 26.72V13.05C875.44 11.9289 874.531 11.02 873.41 11.02H864.39C863.269 11.02 862.36 11.9289 862.36 13.05V26.72C862.36 27.8411 863.269 28.75 864.39 28.75Z" fill="url(#paint49_linear)"/>
<path d="M845.47 28.75H854.49C855.611 28.75 856.52 27.8411 856.52 26.72V13.05C856.52 11.9289 855.611 11.02 854.49 11.02H845.47C844.349 11.02 843.44 11.9289 843.44 13.05V26.72C843.44 27.8411 844.349 28.75 845.47 28.75Z" fill="url(#paint50_linear)"/>
<path d="M902.24 28.75H911.26C912.381 28.75 913.29 27.8411 913.29 26.72V13.05C913.29 11.9289 912.381 11.02 911.26 11.02H902.24C901.119 11.02 900.21 11.9289 900.21 13.05V26.72C900.21 27.8411 901.119 28.75 902.24 28.75Z" fill="url(#paint51_linear)"/>
<path d="M883.31 28.75H892.33C893.451 28.75 894.36 27.8411 894.36 26.72V13.05C894.36 11.9289 893.451 11.02 892.33 11.02H883.31C882.189 11.02 881.28 11.9289 881.28 13.05V26.72C881.28 27.8411 882.189 28.75 883.31 28.75Z" fill="url(#paint52_linear)"/>
<path d="M809.93 51.96H830.73C833.326 51.96 835.43 49.8558 835.43 47.26V15.72C835.43 13.1243 833.326 11.02 830.73 11.02H809.93C807.334 11.02 805.23 13.1243 805.23 15.72V47.26C805.23 49.8558 807.334 51.96 809.93 51.96Z" fill="url(#paint53_linear)"/>
<path d="M1244.28 11.02H1235.26C1234.14 11.02 1233.23 11.9289 1233.23 13.05V26.72C1233.23 27.8412 1234.14 28.75 1235.26 28.75H1244.28C1245.4 28.75 1246.31 27.8412 1246.31 26.72V13.05C1246.31 11.9289 1245.4 11.02 1244.28 11.02Z" fill="url(#paint54_linear)"/>
<path d="M1263.2 11.02H1254.18C1253.06 11.02 1252.15 11.9289 1252.15 13.05V26.72C1252.15 27.8412 1253.06 28.75 1254.18 28.75H1263.2C1264.32 28.75 1265.23 27.8412 1265.23 26.72V13.05C1265.23 11.9289 1264.32 11.02 1263.2 11.02Z" fill="url(#paint55_linear)"/>
<path d="M1206.43 11.02H1197.41C1196.29 11.02 1195.38 11.9289 1195.38 13.05V26.72C1195.38 27.8412 1196.29 28.75 1197.41 28.75H1206.43C1207.55 28.75 1208.46 27.8412 1208.46 26.72V13.05C1208.46 11.9289 1207.55 11.02 1206.43 11.02Z" fill="url(#paint56_linear)"/>
<path d="M1225.35 11.02H1216.33C1215.21 11.02 1214.3 11.9289 1214.3 13.05V26.72C1214.3 27.8412 1215.21 28.75 1216.33 28.75H1225.35C1226.47 28.75 1227.38 27.8412 1227.38 26.72V13.05C1227.38 11.9289 1226.47 11.02 1225.35 11.02Z" fill="url(#paint57_linear)"/>
<path d="M1187.51 11.02H1179.11C1177.99 11.02 1177.08 11.9289 1177.08 13.05V26.72C1177.08 27.8412 1177.99 28.75 1179.11 28.75H1187.51C1188.63 28.75 1189.54 27.8412 1189.54 26.72V13.05C1189.54 11.9289 1188.63 11.02 1187.51 11.02Z" fill="url(#paint58_linear)"/>
<path d="M1298.74 11.02H1277.94C1275.34 11.02 1273.24 13.1243 1273.24 15.72V47.26C1273.24 49.8558 1275.34 51.96 1277.94 51.96H1298.74C1301.34 51.96 1303.44 49.8558 1303.44 47.26V15.72C1303.44 13.1243 1301.34 11.02 1298.74 11.02Z" fill="url(#paint59_linear)"/>
<path d="M1121.34 28.75H1130.36C1131.48 28.75 1132.39 27.8411 1132.39 26.72V13.05C1132.39 11.9289 1131.48 11.02 1130.36 11.02H1121.34C1120.22 11.02 1119.31 11.9289 1119.31 13.05V26.72C1119.31 27.8411 1120.22 28.75 1121.34 28.75Z" fill="url(#paint60_linear)"/>
<path d="M1102.42 28.75H1111.44C1112.56 28.75 1113.47 27.8411 1113.47 26.72V13.05C1113.47 11.9289 1112.56 11.02 1111.44 11.02H1102.42C1101.3 11.02 1100.39 11.9289 1100.39 13.05V26.72C1100.39 27.8411 1101.3 28.75 1102.42 28.75Z" fill="url(#paint61_linear)"/>
<path d="M1159.19 28.75H1168.21C1169.33 28.75 1170.24 27.8411 1170.24 26.72V13.05C1170.24 11.9289 1169.33 11.02 1168.21 11.02H1159.19C1158.07 11.02 1157.16 11.9289 1157.16 13.05V26.72C1157.16 27.8411 1158.07 28.75 1159.19 28.75Z" fill="url(#paint62_linear)"/>
<path d="M1140.27 28.75H1149.29C1150.41 28.75 1151.32 27.8411 1151.32 26.72V13.05C1151.32 11.9289 1150.41 11.02 1149.29 11.02H1140.27C1139.15 11.02 1138.24 11.9289 1138.24 13.05V26.72C1138.24 27.8411 1139.15 28.75 1140.27 28.75Z" fill="url(#paint63_linear)"/>
<path d="M1066.88 51.96H1087.68C1090.28 51.96 1092.38 49.8558 1092.38 47.26V15.72C1092.38 13.1243 1090.28 11.02 1087.68 11.02H1066.88C1064.28 11.02 1062.18 13.1243 1062.18 15.72V47.26C1062.18 49.8558 1064.28 51.96 1066.88 51.96Z" fill="url(#paint64_linear)"/>
<path d="M1492.23 28.75H1501.25C1502.37 28.75 1503.28 27.8411 1503.28 26.72V13.05C1503.28 11.9289 1502.37 11.02 1501.25 11.02H1492.23C1491.11 11.02 1490.2 11.9289 1490.2 13.05V26.72C1490.2 27.8411 1491.11 28.75 1492.23 28.75Z" fill="url(#paint65_linear)"/>
<path d="M1473.31 28.75H1482.33C1483.45 28.75 1484.36 27.8411 1484.36 26.72V13.05C1484.36 11.9289 1483.45 11.02 1482.33 11.02H1473.31C1472.19 11.02 1471.28 11.9289 1471.28 13.05V26.72C1471.28 27.8411 1472.19 28.75 1473.31 28.75Z" fill="url(#paint66_linear)"/>
<path d="M1516.15 51.96H1536.95C1539.55 51.96 1541.65 49.8558 1541.65 47.26V15.72C1541.65 13.1243 1539.55 11.02 1536.95 11.02H1516.15C1513.55 11.02 1511.45 13.1243 1511.45 15.72V47.26C1511.45 49.8558 1513.55 51.96 1516.15 51.96Z" fill="url(#paint67_linear)"/>
<path d="M1378.7 28.75H1387.72C1388.84 28.75 1389.75 27.8411 1389.75 26.72V13.05C1389.75 11.9289 1388.84 11.02 1387.72 11.02H1378.7C1377.58 11.02 1376.67 11.9289 1376.67 13.05V26.72C1376.67 27.8411 1377.58 28.75 1378.7 28.75Z" fill="url(#paint68_linear)"/>
<path d="M1359.78 28.75H1368.8C1369.92 28.75 1370.83 27.8411 1370.83 26.72V13.05C1370.83 11.9289 1369.92 11.02 1368.8 11.02H1359.78C1358.66 11.02 1357.75 11.9289 1357.75 13.05V26.72C1357.75 27.8411 1358.66 28.75 1359.78 28.75Z" fill="url(#paint69_linear)"/>
<path d="M1416.54 28.75H1425.56C1426.68 28.75 1427.59 27.8411 1427.59 26.72V13.05C1427.59 11.9289 1426.68 11.02 1425.56 11.02H1416.54C1415.42 11.02 1414.51 11.9289 1414.51 13.05V26.72C1414.51 27.8411 1415.42 28.75 1416.54 28.75Z" fill="url(#paint70_linear)"/>
<path d="M1397.61 28.75H1406.63C1407.75 28.75 1408.66 27.8411 1408.66 26.72V13.05C1408.66 11.9289 1407.75 11.02 1406.63 11.02H1397.61C1396.49 11.02 1395.58 11.9289 1395.58 13.05V26.72C1395.58 27.8411 1396.49 28.75 1397.61 28.75Z" fill="url(#paint71_linear)"/>
<path d="M1454.38 28.75H1463.4C1464.52 28.75 1465.43 27.8411 1465.43 26.72V13.05C1465.43 11.9289 1464.52 11.02 1463.4 11.02H1454.38C1453.26 11.02 1452.35 11.9289 1452.35 13.05V26.72C1452.35 27.8411 1453.26 28.75 1454.38 28.75Z" fill="url(#paint72_linear)"/>
<path d="M1435.46 28.75H1444.48C1445.6 28.75 1446.51 27.8411 1446.51 26.72V13.05C1446.51 11.9289 1445.6 11.02 1444.48 11.02H1435.46C1434.34 11.02 1433.43 11.9289 1433.43 13.05V26.72C1433.43 27.8411 1434.34 28.75 1435.46 28.75Z" fill="url(#paint73_linear)"/>
<path d="M1324.22 51.96H1345.02C1347.62 51.96 1349.72 49.8558 1349.72 47.26V15.72C1349.72 13.1243 1347.62 11.02 1345.02 11.02H1324.22C1321.62 11.02 1319.52 13.1243 1319.52 15.72V47.26C1319.52 49.8558 1321.62 51.96 1324.22 51.96Z" fill="url(#paint74_linear)"/>
<path d="M69.13 11.02H68.34V51.96H69.13V11.02Z" fill="#010E33"/>
<path d="M261.06 11.02H260.27V51.96H261.06V11.02Z" fill="#010E33"/>
<path d="M518.15 11.02H517.36V51.96H518.15V11.02Z" fill="#010E33"/>
<path d="M305.5 51.96H306.29V11.02H305.5V51.96Z" fill="#010E33"/>
<path d="M775.47 11.02H774.68V51.96H775.47V11.02Z" fill="#010E33"/>
<path d="M562.82 51.96H563.61V11.02H562.82V51.96Z" fill="#010E33"/>
<path d="M1032.18 11.02H1031.39V51.96H1032.18V11.02Z" fill="#010E33"/>
<path d="M819.53 51.96H820.32V11.02H819.53V51.96Z" fill="#010E33"/>
<path d="M1289.13 11.02H1288.34V51.96H1289.13V11.02Z" fill="#010E33"/>
<path d="M1076.49 51.96H1077.28V11.02H1076.49V51.96Z" fill="#010E33"/>
<path d="M1525.77 51.96H1526.56V11.02H1525.77V51.96Z" fill="#010E33"/>
<path d="M1333.84 51.96H1334.63V11.02H1333.84V51.96Z" fill="#010E33"/>
<path d="M1551.93 12V26.72C1551.93 27.6969 1552.32 28.6339 1553.01 29.3257C1553.7 30.0174 1554.63 30.4073 1555.61 30.41H1593.05C1589.98 22.58 1580.39 14.28 1570.05 8.33997H1555.6C1554.63 8.34519 1553.7 8.73216 1553.01 9.41713C1552.33 10.1021 1551.94 11.03 1551.93 12Z" fill="url(#paint75_linear)"/>
<path d="M43 12V26.72C43 27.6969 42.6126 28.634 41.9227 29.3257C41.2329 30.0174 40.2969 30.4073 39.32 30.41H1.84998C4.91998 22.58 14.51 14.28 24.85 8.33998H39.3C40.2752 8.3373 41.2118 8.72078 41.9051 9.4066C42.5984 10.0924 42.992 11.0248 43 12V12Z" fill="url(#paint76_linear)"/>
<defs>
<linearGradient id="paint0_linear" x1="141.81" y1="54.95" x2="141.81" y2="-2.07002e-05" gradientUnits="userSpaceOnUse">
<stop stop-color="white"/>
<stop offset="0.33" stop-color="#56FFFF"/>
<stop offset="0.5" stop-color="#00FFFF"/>
<stop offset="0.79" stop-color="#1B87BF"/>
<stop offset="1" stop-color="#2E3192"/>
</linearGradient>
<linearGradient id="paint1_linear" x1="154216" y1="3022.25" x2="154216" y2="0" gradientUnits="userSpaceOnUse">
<stop stop-color="white"/>
<stop offset="0.33" stop-color="#56FFFF"/>
<stop offset="0.5" stop-color="#00FFFF"/>
<stop offset="0.79" stop-color="#1B87BF"/>
<stop offset="1" stop-color="#2E3192"/>
</linearGradient>
<linearGradient id="paint2_linear" x1="412.302" y1="54.95" x2="412.302" y2="0.0199916" gradientUnits="userSpaceOnUse">
<stop stop-color="white"/>
<stop offset="0.33" stop-color="#56FFFF"/>
<stop offset="0.5" stop-color="#00FFFF"/>
<stop offset="0.79" stop-color="#1B87BF"/>
<stop offset="1" stop-color="#2E3192"/>
</linearGradient>
<linearGradient id="paint3_linear" x1="220129" y1="3022.25" x2="220129" y2="0" gradientUnits="userSpaceOnUse">
<stop stop-color="white"/>
<stop offset="0.33" stop-color="#56FFFF"/>
<stop offset="0.5" stop-color="#00FFFF"/>
<stop offset="0.79" stop-color="#1B87BF"/>
<stop offset="1" stop-color="#2E3192"/>
</linearGradient>
<linearGradient id="paint4_linear" x1="669.632" y1="54.95" x2="669.632" y2="0.0199916" gradientUnits="userSpaceOnUse">
<stop stop-color="white"/>
<stop offset="0.33" stop-color="#56FFFF"/>
<stop offset="0.5" stop-color="#00FFFF"/>
<stop offset="0.79" stop-color="#1B87BF"/>
<stop offset="1" stop-color="#2E3192"/>
</linearGradient>
<linearGradient id="paint5_linear" x1="285883" y1="3022.25" x2="285883" y2="0" gradientUnits="userSpaceOnUse">
<stop stop-color="white"/>
<stop offset="0.33" stop-color="#56FFFF"/>
<stop offset="0.5" stop-color="#00FFFF"/>
<stop offset="0.79" stop-color="#1B87BF"/>
<stop offset="1" stop-color="#2E3192"/>
</linearGradient>
<linearGradient id="paint6_linear" x1="926.342" y1="54.95" x2="926.342" y2="0.0199916" gradientUnits="userSpaceOnUse">
<stop stop-color="white"/>
<stop offset="0.33" stop-color="#56FFFF"/>
<stop offset="0.5" stop-color="#00FFFF"/>
<stop offset="0.79" stop-color="#1B87BF"/>
<stop offset="1" stop-color="#2E3192"/>
</linearGradient>
<linearGradient id="paint7_linear" x1="351697" y1="3019.5" x2="351697" y2="0" gradientUnits="userSpaceOnUse">
<stop stop-color="white"/>
<stop offset="0.33" stop-color="#56FFFF"/>
<stop offset="0.5" stop-color="#00FFFF"/>
<stop offset="0.79" stop-color="#1B87BF"/>
<stop offset="1" stop-color="#2E3192"/>
</linearGradient>
<linearGradient id="paint8_linear" x1="1183.29" y1="54.9001" x2="1183.29" y2="0.0199734" gradientUnits="userSpaceOnUse">
<stop stop-color="white"/>
<stop offset="0.33" stop-color="#56FFFF"/>
<stop offset="0.5" stop-color="#00FFFF"/>
<stop offset="0.79" stop-color="#1B87BF"/>
<stop offset="1" stop-color="#2E3192"/>
</linearGradient>
<linearGradient id="paint9_linear" x1="464929" y1="3023.33" x2="464929" y2="-0.0200195" gradientUnits="userSpaceOnUse">
<stop stop-color="white"/>
<stop offset="0.33" stop-color="#56FFFF"/>
<stop offset="0.5" stop-color="#00FFFF"/>
<stop offset="0.79" stop-color="#1B87BF"/>
<stop offset="1" stop-color="#2E3192"/>
</linearGradient>
<linearGradient id="paint10_linear" x1="1453.06" y1="54.95" x2="1453.06" y2="-2.06919e-05" gradientUnits="userSpaceOnUse">
<stop stop-color="white"/>
<stop offset="0.33" stop-color="#56FFFF"/>
<stop offset="0.5" stop-color="#00FFFF"/>
<stop offset="0.79" stop-color="#1B87BF"/>
<stop offset="1" stop-color="#2E3192"/>
</linearGradient>
<linearGradient id="paint11_linear" x1="98.16" y1="11.02" x2="98.16" y2="28.75" gradientUnits="userSpaceOnUse">
<stop stop-color="#662D91"/>
<stop offset="1" stop-color="#15307A"/>
</linearGradient>
<linearGradient id="paint12_linear" x1="4140.22" y1="206.405" x2="4140.22" y2="520.757" gradientUnits="userSpaceOnUse">
<stop stop-color="#662D91"/>
<stop offset="1" stop-color="#15307A"/>
</linearGradient>
<linearGradient id="paint13_linear" x1="7885.31" y1="462.179" x2="7885.31" y2="2138.26" gradientUnits="userSpaceOnUse">
<stop stop-color="#662D91"/>
<stop offset="1" stop-color="#15307A"/>
</linearGradient>
<linearGradient id="paint14_linear" x1="5472.34" y1="206.405" x2="5472.34" y2="520.757" gradientUnits="userSpaceOnUse">
<stop stop-color="#662D91"/>
<stop offset="1" stop-color="#15307A"/>
</linearGradient>
<linearGradient id="paint15_linear" x1="5738.72" y1="206.405" x2="5738.72" y2="520.757" gradientUnits="userSpaceOnUse">
<stop stop-color="#662D91"/>
<stop offset="1" stop-color="#15307A"/>
</linearGradient>
<linearGradient id="paint16_linear" x1="4939.55" y1="206.405" x2="4939.55" y2="520.757" gradientUnits="userSpaceOnUse">
<stop stop-color="#662D91"/>
<stop offset="1" stop-color="#15307A"/>
</linearGradient>
<linearGradient id="paint17_linear" x1="5205.94" y1="206.405" x2="5205.94" y2="520.757" gradientUnits="userSpaceOnUse">
<stop stop-color="#662D91"/>
<stop offset="1" stop-color="#15307A"/>
</linearGradient>
<linearGradient id="paint18_linear" x1="4406.63" y1="206.405" x2="4406.63" y2="520.757" gradientUnits="userSpaceOnUse">
<stop stop-color="#662D91"/>
<stop offset="1" stop-color="#15307A"/>
</linearGradient>
<linearGradient id="paint19_linear" x1="4673.15" y1="206.405" x2="4673.15" y2="520.757" gradientUnits="userSpaceOnUse">
<stop stop-color="#662D91"/>
<stop offset="1" stop-color="#15307A"/>
</linearGradient>
<linearGradient id="paint20_linear" x1="13873.5" y1="462.179" x2="13873.5" y2="2138.26" gradientUnits="userSpaceOnUse">
<stop stop-color="#662D91"/>
<stop offset="1" stop-color="#15307A"/>
</linearGradient>
<linearGradient id="paint21_linear" x1="9092.17" y1="206.405" x2="9092.17" y2="520.757" gradientUnits="userSpaceOnUse">
<stop stop-color="#662D91"/>
<stop offset="1" stop-color="#15307A"/>
</linearGradient>
<linearGradient id="paint22_linear" x1="9358.57" y1="206.405" x2="9358.57" y2="520.757" gradientUnits="userSpaceOnUse">
<stop stop-color="#662D91"/>
<stop offset="1" stop-color="#15307A"/>
</linearGradient>
<linearGradient id="paint23_linear" x1="8559.34" y1="206.405" x2="8559.34" y2="520.757" gradientUnits="userSpaceOnUse">
<stop stop-color="#662D91"/>
<stop offset="1" stop-color="#15307A"/>
</linearGradient>
<linearGradient id="paint24_linear" x1="8825.78" y1="206.405" x2="8825.78" y2="520.757" gradientUnits="userSpaceOnUse">
<stop stop-color="#662D91"/>
<stop offset="1" stop-color="#15307A"/>
</linearGradient>
<linearGradient id="paint25_linear" x1="7923.43" y1="206.405" x2="7923.43" y2="520.757" gradientUnits="userSpaceOnUse">
<stop stop-color="#662D91"/>
<stop offset="1" stop-color="#15307A"/>
</linearGradient>
<linearGradient id="paint26_linear" x1="21894.7" y1="462.179" x2="21894.7" y2="2138.26" gradientUnits="userSpaceOnUse">
<stop stop-color="#662D91"/>
<stop offset="1" stop-color="#15307A"/>
</linearGradient>
<linearGradient id="paint27_linear" x1="7488.18" y1="206.405" x2="7488.18" y2="520.757" gradientUnits="userSpaceOnUse">
<stop stop-color="#662D91"/>
<stop offset="1" stop-color="#15307A"/>
</linearGradient>
<linearGradient id="paint28_linear" x1="7221.75" y1="206.405" x2="7221.75" y2="520.757" gradientUnits="userSpaceOnUse">
<stop stop-color="#662D91"/>
<stop offset="1" stop-color="#15307A"/>
</linearGradient>
<linearGradient id="paint29_linear" x1="8021.11" y1="206.405" x2="8021.11" y2="520.757" gradientUnits="userSpaceOnUse">
<stop stop-color="#662D91"/>
<stop offset="1" stop-color="#15307A"/>
</linearGradient>
<linearGradient id="paint30_linear" x1="7754.57" y1="206.405" x2="7754.57" y2="520.757" gradientUnits="userSpaceOnUse">
<stop stop-color="#662D91"/>
<stop offset="1" stop-color="#15307A"/>
</linearGradient>
<linearGradient id="paint31_linear" x1="15309.4" y1="462.179" x2="15309.4" y2="2138.26" gradientUnits="userSpaceOnUse">
<stop stop-color="#662D91"/>
<stop offset="1" stop-color="#15307A"/>
</linearGradient>
<linearGradient id="paint32_linear" x1="12715.4" y1="206.405" x2="12715.4" y2="520.757" gradientUnits="userSpaceOnUse">
<stop stop-color="#662D91"/>
<stop offset="1" stop-color="#15307A"/>
</linearGradient>
<linearGradient id="paint33_linear" x1="12981.8" y1="206.405" x2="12981.8" y2="520.757" gradientUnits="userSpaceOnUse">
<stop stop-color="#662D91"/>
<stop offset="1" stop-color="#15307A"/>
</linearGradient>
<linearGradient id="paint34_linear" x1="12182.5" y1="206.405" x2="12182.5" y2="520.757" gradientUnits="userSpaceOnUse">
<stop stop-color="#662D91"/>
<stop offset="1" stop-color="#15307A"/>
</linearGradient>
<linearGradient id="paint35_linear" x1="12448.8" y1="206.405" x2="12448.8" y2="520.757" gradientUnits="userSpaceOnUse">
<stop stop-color="#662D91"/>
<stop offset="1" stop-color="#15307A"/>
</linearGradient>
<linearGradient id="paint36_linear" x1="11387.1" y1="206.405" x2="11387.1" y2="520.757" gradientUnits="userSpaceOnUse">
<stop stop-color="#662D91"/>
<stop offset="1" stop-color="#15307A"/>
</linearGradient>
<linearGradient id="paint37_linear" x1="29923.1" y1="462.179" x2="29923.1" y2="2138.26" gradientUnits="userSpaceOnUse">
<stop stop-color="#662D91"/>
<stop offset="1" stop-color="#15307A"/>
</linearGradient>
<linearGradient id="paint38_linear" x1="11111.3" y1="206.405" x2="11111.3" y2="520.757" gradientUnits="userSpaceOnUse">
<stop stop-color="#662D91"/>
<stop offset="1" stop-color="#15307A"/>
</linearGradient>
<linearGradient id="paint39_linear" x1="10845" y1="206.405" x2="10845" y2="520.757" gradientUnits="userSpaceOnUse">
<stop stop-color="#662D91"/>
<stop offset="1" stop-color="#15307A"/>
</linearGradient>
<linearGradient id="paint40_linear" x1="11644.2" y1="206.405" x2="11644.2" y2="520.757" gradientUnits="userSpaceOnUse">
<stop stop-color="#662D91"/>
<stop offset="1" stop-color="#15307A"/>
</linearGradient>
<linearGradient id="paint41_linear" x1="11377.8" y1="206.405" x2="11377.8" y2="520.757" gradientUnits="userSpaceOnUse">
<stop stop-color="#662D91"/>
<stop offset="1" stop-color="#15307A"/>
</linearGradient>
<linearGradient id="paint42_linear" x1="23337.7" y1="462.179" x2="23337.7" y2="2138.26" gradientUnits="userSpaceOnUse">
<stop stop-color="#662D91"/>
<stop offset="1" stop-color="#15307A"/>
</linearGradient>
<linearGradient id="paint43_linear" x1="16329.8" y1="206.405" x2="16329.8" y2="520.757" gradientUnits="userSpaceOnUse">
<stop stop-color="#662D91"/>
<stop offset="1" stop-color="#15307A"/>
</linearGradient>
<linearGradient id="paint44_linear" x1="16596.3" y1="206.405" x2="16596.3" y2="520.757" gradientUnits="userSpaceOnUse">
<stop stop-color="#662D91"/>
<stop offset="1" stop-color="#15307A"/>
</linearGradient>
<linearGradient id="paint45_linear" x1="15796.9" y1="206.405" x2="15796.9" y2="520.757" gradientUnits="userSpaceOnUse">
<stop stop-color="#662D91"/>
<stop offset="1" stop-color="#15307A"/>
</linearGradient>
<linearGradient id="paint46_linear" x1="16063.4" y1="206.405" x2="16063.4" y2="520.757" gradientUnits="userSpaceOnUse">
<stop stop-color="#662D91"/>
<stop offset="1" stop-color="#15307A"/>
</linearGradient>
<linearGradient id="paint47_linear" x1="14842.4" y1="206.405" x2="14842.4" y2="520.757" gradientUnits="userSpaceOnUse">
<stop stop-color="#662D91"/>
<stop offset="1" stop-color="#15307A"/>
</linearGradient>
<linearGradient id="paint48_linear" x1="37932.4" y1="462.179" x2="37932.4" y2="2138.26" gradientUnits="userSpaceOnUse">
<stop stop-color="#662D91"/>
<stop offset="1" stop-color="#15307A"/>
</linearGradient>
<linearGradient id="paint49_linear" x1="14725.8" y1="206.405" x2="14725.8" y2="520.757" gradientUnits="userSpaceOnUse">
<stop stop-color="#662D91"/>
<stop offset="1" stop-color="#15307A"/>
</linearGradient>
<linearGradient id="paint50_linear" x1="14459.5" y1="206.405" x2="14459.5" y2="520.757" gradientUnits="userSpaceOnUse">
<stop stop-color="#662D91"/>
<stop offset="1" stop-color="#15307A"/>
</linearGradient>
<linearGradient id="paint51_linear" x1="15258.7" y1="206.405" x2="15258.7" y2="520.757" gradientUnits="userSpaceOnUse">
<stop stop-color="#662D91"/>
<stop offset="1" stop-color="#15307A"/>
</linearGradient>
<linearGradient id="paint52_linear" x1="14992.2" y1="206.405" x2="14992.2" y2="520.757" gradientUnits="userSpaceOnUse">
<stop stop-color="#662D91"/>
<stop offset="1" stop-color="#15307A"/>
</linearGradient>
<linearGradient id="paint53_linear" x1="31347.2" y1="462.179" x2="31347.2" y2="2138.26" gradientUnits="userSpaceOnUse">
<stop stop-color="#662D91"/>
<stop offset="1" stop-color="#15307A"/>
</linearGradient>
<linearGradient id="paint54_linear" x1="19947.8" y1="206.405" x2="19947.8" y2="520.757" gradientUnits="userSpaceOnUse">
<stop stop-color="#662D91"/>
<stop offset="1" stop-color="#15307A"/>
</linearGradient>
<linearGradient id="paint55_linear" x1="20214" y1="206.405" x2="20214" y2="520.757" gradientUnits="userSpaceOnUse">
<stop stop-color="#662D91"/>
<stop offset="1" stop-color="#15307A"/>
</linearGradient>
<linearGradient id="paint56_linear" x1="19414.7" y1="206.405" x2="19414.7" y2="520.757" gradientUnits="userSpaceOnUse">
<stop stop-color="#662D91"/>
<stop offset="1" stop-color="#15307A"/>
</linearGradient>
<linearGradient id="paint57_linear" x1="19681.2" y1="206.405" x2="19681.2" y2="520.757" gradientUnits="userSpaceOnUse">
<stop stop-color="#662D91"/>
<stop offset="1" stop-color="#15307A"/>
</linearGradient>
<linearGradient id="paint58_linear" x1="18301.1" y1="206.405" x2="18301.1" y2="520.757" gradientUnits="userSpaceOnUse">
<stop stop-color="#662D91"/>
<stop offset="1" stop-color="#15307A"/>
</linearGradient>
<linearGradient id="paint59_linear" x1="45949.2" y1="462.179" x2="45949.2" y2="2138.26" gradientUnits="userSpaceOnUse">
<stop stop-color="#662D91"/>
<stop offset="1" stop-color="#15307A"/>
</linearGradient>
<linearGradient id="paint60_linear" x1="18343.6" y1="206.405" x2="18343.6" y2="520.757" gradientUnits="userSpaceOnUse">
<stop stop-color="#662D91"/>
<stop offset="1" stop-color="#15307A"/>
</linearGradient>
<linearGradient id="paint61_linear" x1="18077.3" y1="206.405" x2="18077.3" y2="520.757" gradientUnits="userSpaceOnUse">
<stop stop-color="#662D91"/>
<stop offset="1" stop-color="#15307A"/>
</linearGradient>
<linearGradient id="paint62_linear" x1="18876.4" y1="206.405" x2="18876.4" y2="520.757" gradientUnits="userSpaceOnUse">
<stop stop-color="#662D91"/>
<stop offset="1" stop-color="#15307A"/>
</linearGradient>
<linearGradient id="paint63_linear" x1="18610.2" y1="206.405" x2="18610.2" y2="520.757" gradientUnits="userSpaceOnUse">
<stop stop-color="#662D91"/>
<stop offset="1" stop-color="#15307A"/>
</linearGradient>
<linearGradient id="paint64_linear" x1="39363.9" y1="462.179" x2="39363.9" y2="2138.26" gradientUnits="userSpaceOnUse">
<stop stop-color="#662D91"/>
<stop offset="1" stop-color="#15307A"/>
</linearGradient>
<linearGradient id="paint65_linear" x1="23565.8" y1="206.405" x2="23565.8" y2="520.757" gradientUnits="userSpaceOnUse">
<stop stop-color="#662D91"/>
<stop offset="1" stop-color="#15307A"/>
</linearGradient>
<linearGradient id="paint66_linear" x1="23299.2" y1="206.405" x2="23299.2" y2="520.757" gradientUnits="userSpaceOnUse">
<stop stop-color="#662D91"/>
<stop offset="1" stop-color="#15307A"/>
</linearGradient>
<linearGradient id="paint67_linear" x1="53381.9" y1="462.179" x2="53381.9" y2="2138.26" gradientUnits="userSpaceOnUse">
<stop stop-color="#662D91"/>
<stop offset="1" stop-color="#15307A"/>
</linearGradient>
<linearGradient id="paint68_linear" x1="21967.1" y1="206.405" x2="21967.1" y2="520.757" gradientUnits="userSpaceOnUse">
<stop stop-color="#662D91"/>
<stop offset="1" stop-color="#15307A"/>
</linearGradient>
<linearGradient id="paint69_linear" x1="21700.7" y1="206.405" x2="21700.7" y2="520.757" gradientUnits="userSpaceOnUse">
<stop stop-color="#662D91"/>
<stop offset="1" stop-color="#15307A"/>
</linearGradient>
<linearGradient id="paint70_linear" x1="22500.1" y1="206.405" x2="22500.1" y2="520.757" gradientUnits="userSpaceOnUse">
<stop stop-color="#662D91"/>
<stop offset="1" stop-color="#15307A"/>
</linearGradient>
<linearGradient id="paint71_linear" x1="22233.9" y1="206.405" x2="22233.9" y2="520.757" gradientUnits="userSpaceOnUse">
<stop stop-color="#662D91"/>
<stop offset="1" stop-color="#15307A"/>
</linearGradient>
<linearGradient id="paint72_linear" x1="23033" y1="206.405" x2="23033" y2="520.757" gradientUnits="userSpaceOnUse">
<stop stop-color="#662D91"/>
<stop offset="1" stop-color="#15307A"/>
</linearGradient>
<linearGradient id="paint73_linear" x1="22766.4" y1="206.405" x2="22766.4" y2="520.757" gradientUnits="userSpaceOnUse">
<stop stop-color="#662D91"/>
<stop offset="1" stop-color="#15307A"/>
</linearGradient>
<linearGradient id="paint74_linear" x1="47393.5" y1="462.179" x2="47393.5" y2="2138.26" gradientUnits="userSpaceOnUse">
<stop stop-color="#662D91"/>
<stop offset="1" stop-color="#15307A"/>
</linearGradient>
<linearGradient id="paint75_linear" x1="1591.39" y1="9.20997" x2="1544.73" y2="36.23" gradientUnits="userSpaceOnUse">
<stop stop-color="#662D91"/>
<stop offset="1" stop-color="#2E3192"/>
</linearGradient>
<linearGradient id="paint76_linear" x1="10.49" y1="14.36" x2="41.66" y2="29.26" gradientUnits="userSpaceOnUse">
<stop stop-color="#662D91"/>
<stop offset="0.75" stop-color="#3D3092"/>
<stop offset="1" stop-color="#2E3192"/>
</linearGradient>
</defs>
</svg>
