<svg width="1377" height="47" viewBox="0 0 1377 47" fill="none" xmlns="http://www.w3.org/2000/svg">
<g clip-path="url(#clip0)">
<path d="M365.486 7.01813V38.4999C365.492 38.9875 365.4 39.4713 365.216 39.9233C365.032 40.3754 364.76 40.7867 364.416 41.1336C364.072 41.4806 363.662 41.7562 363.21 41.9447C362.758 42.1331 362.274 42.2307 361.784 42.2317H159.293C156.959 42.2327 154.681 41.5154 152.773 40.1779C150.864 38.8404 149.418 36.9481 148.632 34.7605C148.375 34.0215 148.199 33.2568 148.108 32.48C148.037 31.9711 148.001 31.458 148 30.9443V27.1742C148.01 25.8573 148.272 24.5545 148.771 23.3349C151.139 17.3227 158.537 10.9495 166.513 6.3885C173.217 2.54926 180.329 -0.015358 185.196 -0.015358H358.451C359.377 -0.0133435 360.294 0.170181 361.148 0.524738C362.003 0.879295 362.779 1.39794 363.432 2.05106C364.086 2.70418 364.603 3.47899 364.956 4.33124C365.308 5.18349 365.489 6.0965 365.486 7.01813V7.01813Z" fill="url(#paint0_linear)"/>
<path d="M556.754 7.85731e-10H374.041C372.171 7.85744e-10 370.378 0.739408 369.056 2.05556C367.734 3.37172 366.991 5.15681 366.991 7.01813V38.4999C366.986 38.9882 367.078 39.4726 367.262 39.9251C367.446 40.3776 367.719 40.7893 368.064 41.1364C368.409 41.4834 368.82 41.7589 369.272 41.9469C369.725 42.1349 370.211 42.2317 370.701 42.2317H560.094C561.078 42.2317 562.022 41.8425 562.717 41.1499C563.413 40.4573 563.804 39.5178 563.804 38.5383V7.05653C563.809 6.13167 563.631 5.21493 563.279 4.35901C562.927 3.5031 562.408 2.72489 561.753 2.06912C561.098 1.41335 560.319 0.892965 559.461 0.537873C558.603 0.18278 557.683 -1.38382e-05 556.754 7.85731e-10V7.85731e-10Z" fill="url(#paint1_linear)"/>
<path d="M556.754 7.85731e-10H374.041C372.171 7.85744e-10 370.378 0.739408 369.056 2.05556C367.734 3.37172 366.991 5.15681 366.991 7.01813V38.4999C366.986 38.9882 367.078 39.4726 367.262 39.9251C367.446 40.3776 367.719 40.7893 368.064 41.1364C368.409 41.4834 368.82 41.7589 369.272 41.9469C369.725 42.1349 370.211 42.2317 370.701 42.2317H560.094C561.078 42.2317 562.022 41.8425 562.717 41.1499C563.413 40.4573 563.804 39.5178 563.804 38.5383V7.05653C563.809 6.13167 563.631 5.21493 563.279 4.35901C562.927 3.5031 562.408 2.72489 561.753 2.06912C561.098 1.41335 560.319 0.892965 559.461 0.537873C558.603 0.18278 557.683 -1.38382e-05 556.754 7.85731e-10V7.85731e-10Z" fill="url(#paint2_linear)"/>
<path d="M755.257 7.8573e-10H572.544C570.674 7.85732e-10 568.881 0.739408 567.559 2.05556C566.236 3.37172 565.494 5.15681 565.494 7.01813V38.4999C565.488 38.9882 565.581 39.4726 565.765 39.9251C565.949 40.3776 566.221 40.7893 566.567 41.1364C566.912 41.4834 567.322 41.7589 567.775 41.9469C568.228 42.1349 568.713 42.2317 569.204 42.2317H758.597C759.581 42.2317 760.524 41.8425 761.22 41.1499C761.916 40.4573 762.307 39.5178 762.307 38.5383V7.05653C762.312 6.13167 762.133 5.21493 761.781 4.35901C761.429 3.5031 760.911 2.72489 760.256 2.06912C759.6 1.41335 758.821 0.892965 757.964 0.537873C757.106 0.18278 756.186 -1.38382e-05 755.257 7.85731e-10V7.8573e-10Z" fill="url(#paint3_linear)"/>
<path d="M755.257 7.8573e-10H572.544C570.674 7.85732e-10 568.881 0.739408 567.559 2.05556C566.236 3.37172 565.494 5.15681 565.494 7.01813V38.4999C565.488 38.9882 565.581 39.4726 565.765 39.9251C565.949 40.3776 566.221 40.7893 566.567 41.1364C566.912 41.4834 567.322 41.7589 567.775 41.9469C568.228 42.1349 568.713 42.2317 569.204 42.2317H758.597C759.581 42.2317 760.524 41.8425 761.22 41.1499C761.916 40.4573 762.307 39.5178 762.307 38.5383V7.05653C762.312 6.13167 762.133 5.21493 761.781 4.35901C761.429 3.5031 760.911 2.72489 760.256 2.06912C759.6 1.41335 758.821 0.892965 757.964 0.537873C757.106 0.18278 756.186 -1.38382e-05 755.257 7.85731e-10V7.8573e-10Z" fill="url(#paint4_linear)"/>
<path d="M953.281 7.85731e-10H770.569C768.699 7.85733e-10 766.905 0.739408 765.583 2.05556C764.261 3.37172 763.518 5.15681 763.518 7.01813V38.4999C763.513 38.9882 763.605 39.4726 763.789 39.9251C763.974 40.3776 764.246 40.7893 764.591 41.1364C764.936 41.4834 765.347 41.7589 765.8 41.9469C766.252 42.1349 766.738 42.2317 767.228 42.2317H956.621C957.605 42.2317 958.549 41.8425 959.245 41.1499C959.941 40.4573 960.332 39.5178 960.332 38.5383V7.05653C960.337 6.13167 960.158 5.21493 959.806 4.35901C959.454 3.5031 958.935 2.72489 958.28 2.06912C957.625 1.41335 956.846 0.892965 955.988 0.537873C955.13 0.18278 954.21 -1.38382e-05 953.281 7.85731e-10V7.85731e-10Z" fill="url(#paint5_linear)"/>
<path d="M953.281 7.85731e-10H770.569C768.699 7.85733e-10 766.905 0.739408 765.583 2.05556C764.261 3.37172 763.518 5.15681 763.518 7.01813V38.4999C763.513 38.9882 763.605 39.4726 763.789 39.9251C763.974 40.3776 764.246 40.7893 764.591 41.1364C764.936 41.4834 765.347 41.7589 765.8 41.9469C766.252 42.1349 766.738 42.2317 767.228 42.2317H956.621C957.605 42.2317 958.549 41.8425 959.245 41.1499C959.941 40.4573 960.332 39.5178 960.332 38.5383V7.05653C960.337 6.13167 960.158 5.21493 959.806 4.35901C959.454 3.5031 958.935 2.72489 958.28 2.06912C957.625 1.41335 956.846 0.892965 955.988 0.537873C955.13 0.18278 954.21 -1.38382e-05 953.281 7.85731e-10V7.85731e-10Z" fill="url(#paint6_linear)"/>
<path d="M1151.49 0H968.778C967.852 0 966.936 0.181529 966.08 0.534224C965.225 0.886918 964.448 1.40387 963.793 2.05556C963.138 2.70726 962.619 3.48093 962.265 4.33241C961.91 5.18389 961.728 6.0965 961.728 7.01813V38.4999C961.728 39.4795 962.119 40.4189 962.815 41.1115C963.51 41.8042 964.454 42.1933 965.438 42.1933H1154.83C1155.81 42.1933 1156.76 41.8042 1157.45 41.1115C1158.15 40.4189 1158.54 39.4795 1158.54 38.4999V7.01813C1158.54 5.15681 1157.8 3.37172 1156.48 2.05556C1155.15 0.739408 1153.36 0 1151.49 0V0Z" fill="url(#paint7_linear)"/>
<path d="M1151.49 0H968.778C967.852 0 966.936 0.181529 966.08 0.534224C965.225 0.886918 964.448 1.40387 963.793 2.05556C963.138 2.70726 962.619 3.48093 962.265 4.33241C961.91 5.18389 961.728 6.0965 961.728 7.01813V38.4999C961.728 39.4795 962.119 40.4189 962.815 41.1115C963.51 41.8042 964.454 42.1933 965.438 42.1933H1154.83C1155.81 42.1933 1156.76 41.8042 1157.45 41.1115C1158.15 40.4189 1158.54 39.4795 1158.54 38.4999V7.01813C1158.54 5.15681 1157.8 3.37172 1156.48 2.05556C1155.15 0.739408 1153.36 0 1151.49 0V0Z" fill="url(#paint8_linear)"/>
<path d="M1159.47 7.01813V38.4999C1159.47 38.9882 1159.56 39.4726 1159.75 39.9251C1159.93 40.3776 1160.2 40.7893 1160.55 41.1364C1160.89 41.4834 1161.3 41.7589 1161.76 41.9469C1162.21 42.1349 1162.69 42.2317 1163.19 42.2317H1365.68C1368.01 42.2327 1370.29 41.5154 1372.2 40.1779C1374.1 38.8404 1375.55 36.9481 1376.34 34.7605V34.7605C1376.6 34.0375 1376.79 33.2884 1376.89 32.5261C1376.96 32.0171 1377 31.5041 1377 30.9904V27.1742C1376.99 25.8573 1376.73 24.5545 1376.23 23.3349C1373.86 17.3227 1366.46 10.9495 1358.49 6.3885C1351.78 2.54926 1344.67 -0.0153564 1339.8 -0.0153564H1166.55C1165.62 -0.0173779 1164.7 0.163113 1163.84 0.515768C1162.98 0.868424 1162.2 1.38631 1161.54 2.03973C1160.89 2.69315 1160.37 3.46926 1160.01 4.32356C1159.66 5.17786 1159.47 6.09355 1159.47 7.01813V7.01813Z" fill="url(#paint9_linear)"/>
<path d="M1159.47 7.01813V38.4999C1159.47 38.9882 1159.56 39.4726 1159.75 39.9251C1159.93 40.3776 1160.2 40.7893 1160.55 41.1364C1160.89 41.4834 1161.3 41.7589 1161.76 41.9469C1162.21 42.1349 1162.69 42.2317 1163.19 42.2317H1365.68C1368.01 42.2327 1370.29 41.5154 1372.2 40.1779C1374.1 38.8404 1375.55 36.9481 1376.34 34.7605V34.7605C1376.6 34.0375 1376.79 33.2884 1376.89 32.5261C1376.96 32.0171 1377 31.5041 1377 30.9904V27.1742C1376.99 25.8573 1376.73 24.5545 1376.23 23.3349C1373.86 17.3227 1366.46 10.9495 1358.49 6.3885C1351.78 2.54926 1344.67 -0.0153564 1339.8 -0.0153564H1166.55C1165.62 -0.0173779 1164.7 0.163113 1163.84 0.515768C1162.98 0.868424 1162.2 1.38631 1161.54 2.03973C1160.89 2.69315 1160.37 3.46926 1160.01 4.32356C1159.66 5.17786 1159.47 6.09355 1159.47 7.01813V7.01813Z" fill="url(#paint10_linear)"/>
<path d="M366.991 34.7221V38.4999C366.986 38.9882 367.078 39.4726 367.262 39.9251C367.446 40.3776 367.719 40.7893 368.064 41.1364C368.409 41.4834 368.82 41.7589 369.272 41.9469C369.725 42.1349 370.211 42.2317 370.701 42.2317H560.094C561.078 42.2317 562.022 41.8425 562.717 41.1499C563.413 40.4573 563.804 39.5178 563.804 38.5383V34.7221H366.991Z" fill="#010E33"/>
<path d="M365.487 34.7221V38.4999C365.492 38.9875 365.4 39.4713 365.216 39.9233C365.032 40.3754 364.76 40.7867 364.416 41.1336C364.072 41.4806 363.662 41.7562 363.21 41.9447C362.759 42.1331 362.274 42.2307 361.784 42.2317H159.293C156.959 42.2327 154.682 41.5154 152.773 40.1779C150.865 38.8404 149.418 36.9481 148.632 34.7605L365.487 34.7221Z" fill="#010E33"/>
<path d="M763.518 34.7221V38.4999C763.513 38.9882 763.605 39.4726 763.789 39.9251C763.974 40.3776 764.246 40.7893 764.591 41.1364C764.936 41.4834 765.347 41.7589 765.8 41.9469C766.252 42.1349 766.738 42.2317 767.228 42.2317H956.621C957.605 42.2317 958.549 41.8425 959.245 41.1499C959.941 40.4573 960.332 39.5178 960.332 38.5383V34.7221H763.518Z" fill="#010E33"/>
<path d="M961.728 34.7221V38.4999C961.728 39.4795 962.119 40.4189 962.815 41.1115C963.51 41.8042 964.454 42.1933 965.438 42.1933H1154.83C1155.81 42.1933 1156.76 41.8042 1157.45 41.1115C1158.15 40.4189 1158.54 39.4795 1158.54 38.4999V34.7221H961.728Z" fill="#010E33"/>
<path d="M565.494 34.7221V38.4999C565.488 38.9882 565.581 39.4726 565.765 39.9251C565.949 40.3776 566.221 40.7893 566.567 41.1364C566.912 41.4834 567.322 41.7589 567.775 41.9469C568.228 42.1349 568.713 42.2317 569.204 42.2317H758.597C759.581 42.2317 760.524 41.8425 761.22 41.1499C761.916 40.4573 762.307 39.5178 762.307 38.5383V34.7221H565.494Z" fill="#010E33"/>
<path d="M1159.47 34.7221V38.4999C1159.47 38.9882 1159.56 39.4726 1159.75 39.9251C1159.93 40.3776 1160.2 40.7893 1160.55 41.1364C1160.89 41.4834 1161.3 41.7589 1161.76 41.9469C1162.21 42.1349 1162.69 42.2317 1163.19 42.2317H1365.68C1368.01 42.2327 1370.29 41.5154 1372.2 40.1779C1374.1 38.8404 1375.55 36.9481 1376.34 34.7605L1159.47 34.7221Z" fill="#010E33"/>
<path d="M756.575 27.1742H565.494V31.9425H762.307V27.1742H756.575Z" fill="#0071BC"/>
<path d="M1152.81 27.1742H961.728V31.9425H1158.54V27.1742H1152.81Z" fill="#0071BC"/>
<path d="M365.486 27.1742V31.9425H185.621C173.238 31.914 160.871 32.8408 148.632 34.7144C148.378 33.9902 148.202 33.2412 148.108 32.48C156.477 30.4989 172.507 27.1742 185.651 27.1742H365.486Z" fill="#0071BC"/>
<path d="M558.073 27.1742H366.991V31.9425H563.804V27.1742H558.073Z" fill="#0071BC"/>
<path d="M954.6 27.1742H763.518V31.9425H960.332V27.1742H954.6Z" fill="#0071BC"/>
<path d="M1159.47 27.1742V31.9425H1339.35C1351.74 31.9121 1364.12 32.8388 1376.38 34.7144C1376.64 33.9914 1376.83 33.2423 1376.93 32.48C1368.56 30.4989 1352.53 27.1742 1339.39 27.1742H1159.47Z" fill="#0071BC"/>
<path d="M226.535 8.46169H219.577C218.712 8.46169 218.011 9.15956 218.011 10.0204V20.5169C218.011 21.3778 218.712 22.0756 219.577 22.0756H226.535C227.4 22.0756 228.101 21.3778 228.101 20.5169V10.0204C228.101 9.15956 227.4 8.46169 226.535 8.46169Z" fill="url(#paint11_linear)"/>
<path d="M241.13 8.46169H234.172C233.307 8.46169 232.606 9.15956 232.606 10.0204V20.5169C232.606 21.3778 233.307 22.0756 234.172 22.0756H241.13C241.995 22.0756 242.696 21.3778 242.696 20.5169V10.0204C242.696 9.15956 241.995 8.46169 241.13 8.46169Z" fill="url(#paint12_linear)"/>
<path d="M208.076 8.46169H192.031C190.028 8.46169 188.405 10.0774 188.405 12.0706V36.2885C188.405 38.2817 190.028 39.8974 192.031 39.8974H208.076C210.078 39.8974 211.701 38.2817 211.701 36.2885V12.0706C211.701 10.0774 210.078 8.46169 208.076 8.46169Z" fill="url(#paint13_linear)"/>
<path d="M314.112 8.46169H307.154C306.289 8.46169 305.588 9.15956 305.588 10.0204V20.5169C305.588 21.3778 306.289 22.0756 307.154 22.0756H314.112C314.976 22.0756 315.678 21.3778 315.678 20.5169V10.0204C315.678 9.15956 314.976 8.46169 314.112 8.46169Z" fill="url(#paint14_linear)"/>
<path d="M328.706 8.46169H321.748C320.884 8.46169 320.183 9.15956 320.183 10.0204V20.5169C320.183 21.3778 320.884 22.0756 321.748 22.0756H328.706C329.571 22.0756 330.272 21.3778 330.272 20.5169V10.0204C330.272 9.15956 329.571 8.46169 328.706 8.46169Z" fill="url(#paint15_linear)"/>
<path d="M284.922 8.46169H277.964C277.099 8.46169 276.398 9.15956 276.398 10.0204V20.5169C276.398 21.3778 277.099 22.0756 277.964 22.0756H284.922C285.787 22.0756 286.488 21.3778 286.488 20.5169V10.0204C286.488 9.15956 285.787 8.46169 284.922 8.46169Z" fill="url(#paint16_linear)"/>
<path d="M299.517 8.46169H292.559C291.694 8.46169 290.993 9.15956 290.993 10.0204V20.5169C290.993 21.3778 291.694 22.0756 292.559 22.0756H299.517C300.382 22.0756 301.083 21.3778 301.083 20.5169V10.0204C301.083 9.15956 300.382 8.46169 299.517 8.46169Z" fill="url(#paint17_linear)"/>
<path d="M255.725 8.46169H248.767C247.902 8.46169 247.201 9.15956 247.201 10.0204V20.5169C247.201 21.3778 247.902 22.0756 248.767 22.0756H255.725C256.59 22.0756 257.291 21.3778 257.291 20.5169V10.0204C257.291 9.15956 256.59 8.46169 255.725 8.46169Z" fill="url(#paint18_linear)"/>
<path d="M270.327 8.46169H263.369C262.505 8.46169 261.803 9.15956 261.803 10.0204V20.5169C261.803 21.3778 262.505 22.0756 263.369 22.0756H270.327C271.192 22.0756 271.893 21.3778 271.893 20.5169V10.0204C271.893 9.15956 271.192 8.46169 270.327 8.46169Z" fill="url(#paint19_linear)"/>
<path d="M356.129 8.46169H340.084C338.082 8.46169 336.459 10.0774 336.459 12.0706V36.2885C336.459 38.2817 338.082 39.8974 340.084 39.8974H356.129C358.132 39.8974 359.755 38.2817 359.755 36.2885V12.0706C359.755 10.0774 358.132 8.46169 356.129 8.46169Z" fill="url(#paint20_linear)"/>
<path d="M512.429 8.46169H505.471C504.607 8.46169 503.905 9.15956 503.905 10.0204V20.5169C503.905 21.3778 504.607 22.0756 505.471 22.0756H512.429C513.294 22.0756 513.995 21.3778 513.995 20.5169V10.0204C513.995 9.15956 513.294 8.46169 512.429 8.46169Z" fill="url(#paint21_linear)"/>
<path d="M527.024 8.46169H520.066C519.201 8.46169 518.5 9.15956 518.5 10.0204V20.5169C518.5 21.3778 519.201 22.0756 520.066 22.0756H527.024C527.889 22.0756 528.59 21.3778 528.59 20.5169V10.0204C528.59 9.15956 527.889 8.46169 527.024 8.46169Z" fill="url(#paint22_linear)"/>
<path d="M483.232 8.46169H476.274C475.409 8.46169 474.708 9.15956 474.708 10.0204V20.5169C474.708 21.3778 475.409 22.0756 476.274 22.0756H483.232C484.097 22.0756 484.798 21.3778 484.798 20.5169V10.0204C484.798 9.15956 484.097 8.46169 483.232 8.46169Z" fill="url(#paint23_linear)"/>
<path d="M497.835 8.46169H490.877C490.012 8.46169 489.311 9.15956 489.311 10.0204V20.5169C489.311 21.3778 490.012 22.0756 490.877 22.0756H497.835C498.699 22.0756 499.4 21.3778 499.4 20.5169V10.0204C499.4 9.15956 498.699 8.46169 497.835 8.46169Z" fill="url(#paint24_linear)"/>
<path d="M468.637 8.46169H462.158C461.293 8.46169 460.592 9.15956 460.592 10.0204V20.5169C460.592 21.3778 461.293 22.0756 462.158 22.0756H468.637C469.502 22.0756 470.203 21.3778 470.203 20.5169V10.0204C470.203 9.15956 469.502 8.46169 468.637 8.46169Z" fill="url(#paint25_linear)"/>
<path d="M554.439 8.46169H538.394C536.392 8.46169 534.769 10.0774 534.769 12.0706V36.2885C534.769 38.2817 536.392 39.8974 538.394 39.8974H554.439C556.442 39.8974 558.065 38.2817 558.065 36.2885V12.0706C558.065 10.0774 556.442 8.46169 554.439 8.46169Z" fill="url(#paint26_linear)"/>
<path d="M417.602 22.0756H424.56C425.425 22.0756 426.126 21.3778 426.126 20.5169V10.0204C426.126 9.15956 425.425 8.46169 424.56 8.46169L417.602 8.46169C416.737 8.46169 416.036 9.15956 416.036 10.0204V20.5169C416.036 21.3778 416.737 22.0756 417.602 22.0756Z" fill="url(#paint27_linear)"/>
<path d="M402.999 22.0756H409.957C410.822 22.0756 411.523 21.3778 411.523 20.5169V10.0204C411.523 9.15956 410.822 8.46169 409.957 8.46169L402.999 8.46169C402.135 8.46169 401.433 9.15956 401.433 10.0204V20.5169C401.433 21.3778 402.135 22.0756 402.999 22.0756Z" fill="url(#paint28_linear)"/>
<path d="M446.784 22.0756H453.742C454.606 22.0756 455.308 21.3778 455.308 20.5169V10.0204C455.308 9.15956 454.606 8.46169 453.742 8.46169L446.784 8.46169C445.919 8.46169 445.218 9.15956 445.218 10.0204V20.5169C445.218 21.3778 445.919 22.0756 446.784 22.0756Z" fill="url(#paint29_linear)"/>
<path d="M432.197 22.0756H439.155C440.019 22.0756 440.721 21.3778 440.721 20.5169V10.0204C440.721 9.15956 440.019 8.46169 439.155 8.46169L432.197 8.46169C431.332 8.46169 430.631 9.15956 430.631 10.0204V20.5169C430.631 21.3778 431.332 22.0756 432.197 22.0756Z" fill="url(#paint30_linear)"/>
<path d="M375.576 39.8974H391.621C393.624 39.8974 395.247 38.2816 395.247 36.2885V12.0706C395.247 10.0774 393.624 8.46169 391.621 8.46169L375.576 8.46169C373.574 8.46169 371.951 10.0774 371.951 12.0706V36.2885C371.951 38.2816 373.574 39.8974 375.576 39.8974Z" fill="url(#paint31_linear)"/>
<path d="M710.932 8.46169H703.974C703.109 8.46169 702.408 9.15956 702.408 10.0204V20.5169C702.408 21.3778 703.109 22.0756 703.974 22.0756H710.932C711.797 22.0756 712.498 21.3778 712.498 20.5169V10.0204C712.498 9.15956 711.797 8.46169 710.932 8.46169Z" fill="url(#paint32_linear)"/>
<path d="M725.527 8.46169H718.569C717.704 8.46169 717.003 9.15956 717.003 10.0204V20.5169C717.003 21.3778 717.704 22.0756 718.569 22.0756H725.527C726.392 22.0756 727.093 21.3778 727.093 20.5169V10.0204C727.093 9.15956 726.392 8.46169 725.527 8.46169Z" fill="url(#paint33_linear)"/>
<path d="M681.735 8.46169H674.777C673.912 8.46169 673.211 9.15956 673.211 10.0204V20.5169C673.211 21.3778 673.912 22.0756 674.777 22.0756H681.735C682.6 22.0756 683.301 21.3778 683.301 20.5169V10.0204C683.301 9.15956 682.6 8.46169 681.735 8.46169Z" fill="url(#paint34_linear)"/>
<path d="M696.33 8.46169H689.372C688.507 8.46169 687.806 9.15956 687.806 10.0204V20.5169C687.806 21.3778 688.507 22.0756 689.372 22.0756H696.33C697.195 22.0756 697.896 21.3778 697.896 20.5169V10.0204C697.896 9.15956 697.195 8.46169 696.33 8.46169Z" fill="url(#paint35_linear)"/>
<path d="M667.14 8.46169H660.66C659.796 8.46169 659.094 9.15956 659.094 10.0204V20.5169C659.094 21.3778 659.796 22.0756 660.66 22.0756H667.14C668.005 22.0756 668.706 21.3778 668.706 20.5169V10.0204C668.706 9.15956 668.005 8.46169 667.14 8.46169Z" fill="url(#paint36_linear)"/>
<path d="M752.942 8.46169H736.897C734.895 8.46169 733.272 10.0774 733.272 12.0706V36.2885C733.272 38.2817 734.895 39.8974 736.897 39.8974H752.942C754.945 39.8974 756.568 38.2817 756.568 36.2885V12.0706C756.568 10.0774 754.945 8.46169 752.942 8.46169Z" fill="url(#paint37_linear)"/>
<path d="M616.097 22.0756H623.055C623.92 22.0756 624.621 21.3778 624.621 20.5169V10.0204C624.621 9.15956 623.92 8.46169 623.055 8.46169L616.097 8.46169C615.232 8.46169 614.531 9.15956 614.531 10.0204V20.5169C614.531 21.3778 615.232 22.0756 616.097 22.0756Z" fill="url(#paint38_linear)"/>
<path d="M601.502 22.0756H608.46C609.325 22.0756 610.026 21.3778 610.026 20.5169V10.0204C610.026 9.15956 609.325 8.46169 608.46 8.46169L601.502 8.46169C600.637 8.46169 599.936 9.15956 599.936 10.0204V20.5169C599.936 21.3778 600.637 22.0756 601.502 22.0756Z" fill="url(#paint39_linear)"/>
<path d="M645.294 22.0756H652.252C653.117 22.0756 653.818 21.3778 653.818 20.5169V10.0204C653.818 9.15956 653.117 8.46169 652.252 8.46169L645.294 8.46169C644.429 8.46169 643.728 9.15956 643.728 10.0204V20.5169C643.728 21.3778 644.429 22.0756 645.294 22.0756Z" fill="url(#paint40_linear)"/>
<path d="M630.692 22.0756H637.65C638.515 22.0756 639.216 21.3778 639.216 20.5169V10.0204C639.216 9.15956 638.515 8.46169 637.65 8.46169L630.692 8.46169C629.827 8.46169 629.126 9.15956 629.126 10.0204V20.5169C629.126 21.3778 629.827 22.0756 630.692 22.0756Z" fill="url(#paint41_linear)"/>
<path d="M574.087 39.8974H590.132C592.134 39.8974 593.757 38.2816 593.757 36.2885V12.0706C593.757 10.0774 592.134 8.46169 590.132 8.46169L574.087 8.46169C572.084 8.46169 570.461 10.0774 570.461 12.0706V36.2885C570.461 38.2816 572.084 39.8974 574.087 39.8974Z" fill="url(#paint42_linear)"/>
<path d="M908.957 8.46169H901.999C901.134 8.46169 900.433 9.15956 900.433 10.0204V20.5169C900.433 21.3778 901.134 22.0756 901.999 22.0756H908.957C909.821 22.0756 910.523 21.3778 910.523 20.5169V10.0204C910.523 9.15956 909.821 8.46169 908.957 8.46169Z" fill="url(#paint43_linear)"/>
<path d="M923.551 8.46169H916.594C915.729 8.46169 915.028 9.15956 915.028 10.0204V20.5169C915.028 21.3778 915.729 22.0756 916.594 22.0756H923.551C924.416 22.0756 925.117 21.3778 925.117 20.5169V10.0204C925.117 9.15956 924.416 8.46169 923.551 8.46169Z" fill="url(#paint44_linear)"/>
<path d="M879.759 8.46169H872.801C871.937 8.46169 871.236 9.15956 871.236 10.0204V20.5169C871.236 21.3778 871.937 22.0756 872.801 22.0756H879.759C880.624 22.0756 881.325 21.3778 881.325 20.5169V10.0204C881.325 9.15956 880.624 8.46169 879.759 8.46169Z" fill="url(#paint45_linear)"/>
<path d="M894.354 8.46169H887.396C886.531 8.46169 885.83 9.15956 885.83 10.0204V20.5169C885.83 21.3778 886.531 22.0756 887.396 22.0756H894.354C895.219 22.0756 895.92 21.3778 895.92 20.5169V10.0204C895.92 9.15956 895.219 8.46169 894.354 8.46169Z" fill="url(#paint46_linear)"/>
<path d="M865.165 8.46169H858.685C857.82 8.46169 857.119 9.15956 857.119 10.0204V20.5169C857.119 21.3778 857.82 22.0756 858.685 22.0756H865.165C866.03 22.0756 866.731 21.3778 866.731 20.5169V10.0204C866.731 9.15956 866.03 8.46169 865.165 8.46169Z" fill="url(#paint47_linear)"/>
<path d="M950.967 8.46169H934.922C932.919 8.46169 931.296 10.0774 931.296 12.0706V36.2885C931.296 38.2817 932.919 39.8974 934.922 39.8974H950.967C952.969 39.8974 954.592 38.2817 954.592 36.2885V12.0706C954.592 10.0774 952.969 8.46169 950.967 8.46169Z" fill="url(#paint48_linear)"/>
<path d="M814.122 22.0756H821.08C821.944 22.0756 822.646 21.3778 822.646 20.5169V10.0204C822.646 9.15956 821.944 8.46169 821.08 8.46169L814.122 8.46169C813.257 8.46169 812.556 9.15956 812.556 10.0204V20.5169C812.556 21.3778 813.257 22.0756 814.122 22.0756Z" fill="url(#paint49_linear)"/>
<path d="M799.527 22.0756H806.485C807.35 22.0756 808.051 21.3778 808.051 20.5169V10.0204C808.051 9.15956 807.35 8.46169 806.485 8.46169L799.527 8.46169C798.662 8.46169 797.961 9.15956 797.961 10.0204V20.5169C797.961 21.3778 798.662 22.0756 799.527 22.0756Z" fill="url(#paint50_linear)"/>
<path d="M843.319 22.0756H850.277C851.142 22.0756 851.843 21.3778 851.843 20.5169V10.0204C851.843 9.15956 851.142 8.46169 850.277 8.46169L843.319 8.46169C842.454 8.46169 841.753 9.15956 841.753 10.0204V20.5169C841.753 21.3778 842.454 22.0756 843.319 22.0756Z" fill="url(#paint51_linear)"/>
<path d="M828.716 22.0756H835.674C836.539 22.0756 837.24 21.3778 837.24 20.5169V10.0204C837.24 9.15956 836.539 8.46169 835.674 8.46169L828.716 8.46169C827.852 8.46169 827.15 9.15956 827.15 10.0204V20.5169C827.15 21.3778 827.852 22.0756 828.716 22.0756Z" fill="url(#paint52_linear)"/>
<path d="M772.111 39.8974H788.156C790.159 39.8974 791.782 38.2816 791.782 36.2885V12.0706C791.782 10.0774 790.159 8.46169 788.156 8.46169L772.111 8.46169C770.109 8.46169 768.486 10.0774 768.486 12.0706V36.2885C768.486 38.2816 770.109 39.8974 772.111 39.8974Z" fill="url(#paint53_linear)"/>
<path d="M1107.17 8.46169H1100.21C1099.34 8.46169 1098.64 9.15956 1098.64 10.0204V20.5169C1098.64 21.3778 1099.34 22.0756 1100.21 22.0756H1107.17C1108.03 22.0756 1108.73 21.3778 1108.73 20.5169V10.0204C1108.73 9.15956 1108.03 8.46169 1107.17 8.46169Z" fill="url(#paint54_linear)"/>
<path d="M1121.76 8.46169H1114.8C1113.94 8.46169 1113.24 9.15956 1113.24 10.0204V20.5169C1113.24 21.3778 1113.94 22.0756 1114.8 22.0756H1121.76C1122.63 22.0756 1123.33 21.3778 1123.33 20.5169V10.0204C1123.33 9.15956 1122.63 8.46169 1121.76 8.46169Z" fill="url(#paint55_linear)"/>
<path d="M1077.97 8.46169H1071.01C1070.15 8.46169 1069.45 9.15956 1069.45 10.0204V20.5169C1069.45 21.3778 1070.15 22.0756 1071.01 22.0756H1077.97C1078.83 22.0756 1079.54 21.3778 1079.54 20.5169V10.0204C1079.54 9.15956 1078.83 8.46169 1077.97 8.46169Z" fill="url(#paint56_linear)"/>
<path d="M1092.56 8.46169H1085.61C1084.74 8.46169 1084.04 9.15956 1084.04 10.0204V20.5169C1084.04 21.3778 1084.74 22.0756 1085.61 22.0756H1092.56C1093.43 22.0756 1094.13 21.3778 1094.13 20.5169V10.0204C1094.13 9.15956 1093.43 8.46169 1092.56 8.46169Z" fill="url(#paint57_linear)"/>
<path d="M1063.37 8.46169H1056.89C1056.03 8.46169 1055.33 9.15956 1055.33 10.0204V20.5169C1055.33 21.3778 1056.03 22.0756 1056.89 22.0756H1063.37C1064.24 22.0756 1064.94 21.3778 1064.94 20.5169V10.0204C1064.94 9.15956 1064.24 8.46169 1063.37 8.46169Z" fill="url(#paint58_linear)"/>
<path d="M1149.18 8.46169H1133.13C1131.13 8.46169 1129.51 10.0774 1129.51 12.0706V36.2885C1129.51 38.2817 1131.13 39.8974 1133.13 39.8974H1149.18C1151.18 39.8974 1152.8 38.2817 1152.8 36.2885V12.0706C1152.8 10.0774 1151.18 8.46169 1149.18 8.46169Z" fill="url(#paint59_linear)"/>
<path d="M1012.33 22.0756H1019.29C1020.15 22.0756 1020.86 21.3778 1020.86 20.5169V10.0204C1020.86 9.15956 1020.15 8.46169 1019.29 8.46169L1012.33 8.46169C1011.47 8.46169 1010.77 9.15956 1010.77 10.0204V20.5169C1010.77 21.3778 1011.47 22.0756 1012.33 22.0756Z" fill="url(#paint60_linear)"/>
<path d="M997.736 22.0756H1004.69C1005.56 22.0756 1006.26 21.3778 1006.26 20.5169V10.0204C1006.26 9.15956 1005.56 8.46169 1004.69 8.46169L997.736 8.46169C996.872 8.46169 996.171 9.15956 996.171 10.0204V20.5169C996.171 21.3778 996.872 22.0756 997.736 22.0756Z" fill="url(#paint61_linear)"/>
<path d="M1041.53 22.0756H1048.49C1049.35 22.0756 1050.05 21.3778 1050.05 20.5169V10.0204C1050.05 9.15956 1049.35 8.46169 1048.49 8.46169L1041.53 8.46169C1040.66 8.46169 1039.96 9.15956 1039.96 10.0204V20.5169C1039.96 21.3778 1040.66 22.0756 1041.53 22.0756Z" fill="url(#paint62_linear)"/>
<path d="M1026.93 22.0756H1033.89C1034.76 22.0756 1035.46 21.3778 1035.46 20.5169V10.0204C1035.46 9.15956 1034.76 8.46169 1033.89 8.46169L1026.93 8.46169C1026.07 8.46169 1025.37 9.15956 1025.37 10.0204V20.5169C1025.37 21.3778 1026.07 22.0756 1026.93 22.0756Z" fill="url(#paint63_linear)"/>
<path d="M970.321 39.8974H986.366C988.368 39.8974 989.992 38.2816 989.992 36.2885V12.0706C989.992 10.0774 988.368 8.46169 986.366 8.46169L970.321 8.46169C968.319 8.46169 966.696 10.0774 966.696 12.0706V36.2885C966.696 38.2816 968.319 39.8974 970.321 39.8974Z" fill="url(#paint64_linear)"/>
<path d="M1298.43 22.0756H1305.39C1306.26 22.0756 1306.96 21.3778 1306.96 20.5169V10.0204C1306.96 9.15956 1306.26 8.46169 1305.39 8.46169L1298.43 8.46169C1297.57 8.46169 1296.87 9.15956 1296.87 10.0204V20.5169C1296.87 21.3778 1297.57 22.0756 1298.43 22.0756Z" fill="url(#paint65_linear)"/>
<path d="M1283.84 22.0756H1290.8C1291.66 22.0756 1292.36 21.3778 1292.36 20.5169V10.0204C1292.36 9.15956 1291.66 8.46169 1290.8 8.46169L1283.84 8.46169C1282.97 8.46169 1282.27 9.15956 1282.27 10.0204V20.5169C1282.27 21.3778 1282.97 22.0756 1283.84 22.0756Z" fill="url(#paint66_linear)"/>
<path d="M1316.89 39.8974H1332.93C1334.93 39.8974 1336.56 38.2816 1336.56 36.2885V12.0706C1336.56 10.0774 1334.93 8.46169 1332.93 8.46169L1316.89 8.46169C1314.88 8.46169 1313.26 10.0774 1313.26 12.0706V36.2885C1313.26 38.2816 1314.88 39.8974 1316.89 39.8974Z" fill="url(#paint67_linear)"/>
<path d="M1210.86 22.0756H1217.82C1218.68 22.0756 1219.38 21.3778 1219.38 20.5169V10.0204C1219.38 9.15956 1218.68 8.46169 1217.82 8.46169L1210.86 8.46169C1209.99 8.46169 1209.29 9.15956 1209.29 10.0204V20.5169C1209.29 21.3778 1209.99 22.0756 1210.86 22.0756Z" fill="url(#paint68_linear)"/>
<path d="M1196.26 22.0756H1203.22C1204.09 22.0756 1204.79 21.3778 1204.79 20.5169V10.0204C1204.79 9.15956 1204.09 8.46169 1203.22 8.46169L1196.26 8.46169C1195.4 8.46169 1194.7 9.15956 1194.7 10.0204V20.5169C1194.7 21.3778 1195.4 22.0756 1196.26 22.0756Z" fill="url(#paint69_linear)"/>
<path d="M1240.05 22.0756H1247C1247.87 22.0756 1248.57 21.3778 1248.57 20.5169V10.0204C1248.57 9.15956 1247.87 8.46169 1247 8.46169L1240.05 8.46169C1239.18 8.46169 1238.48 9.15956 1238.48 10.0204V20.5169C1238.48 21.3778 1239.18 22.0756 1240.05 22.0756Z" fill="url(#paint70_linear)"/>
<path d="M1225.44 22.0756H1232.4C1233.27 22.0756 1233.97 21.3778 1233.97 20.5169V10.0204C1233.97 9.15956 1233.27 8.46169 1232.4 8.46169L1225.44 8.46169C1224.58 8.46169 1223.88 9.15956 1223.88 10.0204V20.5169C1223.88 21.3778 1224.58 22.0756 1225.44 22.0756Z" fill="url(#paint71_linear)"/>
<path d="M1269.24 22.0756H1276.19C1277.06 22.0756 1277.76 21.3778 1277.76 20.5169V10.0204C1277.76 9.15956 1277.06 8.46169 1276.19 8.46169L1269.24 8.46169C1268.37 8.46169 1267.67 9.15956 1267.67 10.0204V20.5169C1267.67 21.3778 1268.37 22.0756 1269.24 22.0756Z" fill="url(#paint72_linear)"/>
<path d="M1254.64 22.0756H1261.6C1262.46 22.0756 1263.17 21.3778 1263.17 20.5169V10.0204C1263.17 9.15956 1262.46 8.46169 1261.6 8.46169L1254.64 8.46169C1253.78 8.46169 1253.08 9.15956 1253.08 10.0204V20.5169C1253.08 21.3778 1253.78 22.0756 1254.64 22.0756Z" fill="url(#paint73_linear)"/>
<path d="M1168.83 39.8974H1184.88C1186.88 39.8974 1188.5 38.2816 1188.5 36.2885V12.0706C1188.5 10.0774 1186.88 8.46169 1184.88 8.46169L1168.83 8.46169C1166.83 8.46169 1165.21 10.0774 1165.21 12.0706V36.2885C1165.21 38.2816 1166.83 39.8974 1168.83 39.8974Z" fill="url(#paint74_linear)"/>
<path d="M200.663 8.46169H200.053V39.8974H200.663V8.46169Z" fill="#010E33"/>
<path d="M348.716 8.46169H348.107V39.8974H348.716V8.46169Z" fill="#010E33"/>
<path d="M547.034 8.46169H546.425V39.8974H547.034V8.46169Z" fill="#010E33"/>
<path d="M382.997 39.8974H383.607V8.46169H382.997V39.8974Z" fill="#010E33"/>
<path d="M745.529 8.46169H744.92V39.8974H745.529V8.46169Z" fill="#010E33"/>
<path d="M581.492 39.8974H582.102V8.46169H581.492V39.8974Z" fill="#010E33"/>
<path d="M943.554 8.46169H942.944V39.8974H943.554V8.46169Z" fill="#010E33"/>
<path d="M779.517 39.8974H780.126V8.46169H779.517V39.8974Z" fill="#010E33"/>
<path d="M1141.76 8.46169H1141.15V39.8974H1141.76V8.46169Z" fill="#010E33"/>
<path d="M977.734 39.8974H978.344V8.46169H977.734V39.8974Z" fill="#010E33"/>
<path d="M1324.31 39.8974H1324.92V8.46169H1324.31V39.8974Z" fill="#010E33"/>
<path d="M1176.25 39.8974H1176.86V8.46169H1176.25V39.8974Z" fill="#010E33"/>
<path d="M1344.49 9.21418V20.5169C1344.49 21.267 1344.78 21.9865 1345.32 22.5177C1345.85 23.0488 1346.57 23.3482 1347.32 23.3503H1376.21C1373.84 17.338 1366.44 10.9649 1358.46 6.40385H1347.32C1346.57 6.40787 1345.85 6.705 1345.32 7.23095C1344.79 7.75691 1344.49 8.46938 1344.49 9.21418Z" fill="url(#paint75_linear)"/>
<path d="M180.506 9.21418V20.5169C180.506 21.267 180.207 21.9865 179.675 22.5177C179.143 23.0488 178.421 23.3482 177.667 23.3503H148.763C151.131 17.338 158.529 10.9649 166.505 6.40385H177.652C178.404 6.4018 179.127 6.69625 179.662 7.22286C180.196 7.74946 180.5 8.46539 180.506 9.21418V9.21418Z" fill="url(#paint76_linear)"/>
<path style="mix-blend-mode:screen" opacity="0.5" d="M147.969 31.1209L135.835 39.8897H0L147.969 26.6136V31.1209Z" fill="url(#paint77_linear)"/>
<path style="mix-blend-mode:screen" d="M147.969 46.9923C164.269 46.9923 177.482 38.8689 177.482 28.8481C177.482 18.8273 164.269 10.7038 147.969 10.7038C131.669 10.7038 118.455 18.8273 118.455 28.8481C118.455 38.8689 131.669 46.9923 147.969 46.9923Z" fill="url(#paint78_radial)"/>
</g>
<defs>
<linearGradient id="paint0_linear" x1="256.728" y1="42.1933" x2="256.728" y2="-1.90028e-06" gradientUnits="userSpaceOnUse">
<stop stop-color="white"/>
<stop offset="0.33" stop-color="#56FFFF"/>
<stop offset="0.5" stop-color="#00FFFF"/>
<stop offset="0.79" stop-color="#1B87BF"/>
<stop offset="1" stop-color="#2E3192"/>
</linearGradient>
<linearGradient id="paint1_linear" x1="119109" y1="2320.63" x2="119109" y2="0" gradientUnits="userSpaceOnUse">
<stop stop-color="white"/>
<stop offset="0.33" stop-color="#56FFFF"/>
<stop offset="0.5" stop-color="#00FFFF"/>
<stop offset="0.79" stop-color="#1B87BF"/>
<stop offset="1" stop-color="#2E3192"/>
</linearGradient>
<linearGradient id="paint2_linear" x1="465.383" y1="42.1933" x2="465.383" y2="0.0153505" gradientUnits="userSpaceOnUse">
<stop stop-color="white"/>
<stop offset="0.33" stop-color="#56FFFF"/>
<stop offset="0.5" stop-color="#00FFFF"/>
<stop offset="0.79" stop-color="#1B87BF"/>
<stop offset="1" stop-color="#2E3192"/>
</linearGradient>
<linearGradient id="paint3_linear" x1="169953" y1="2320.63" x2="169953" y2="0" gradientUnits="userSpaceOnUse">
<stop stop-color="white"/>
<stop offset="0.33" stop-color="#56FFFF"/>
<stop offset="0.5" stop-color="#00FFFF"/>
<stop offset="0.79" stop-color="#1B87BF"/>
<stop offset="1" stop-color="#2E3192"/>
</linearGradient>
<linearGradient id="paint4_linear" x1="663.886" y1="42.1933" x2="663.886" y2="0.0153505" gradientUnits="userSpaceOnUse">
<stop stop-color="white"/>
<stop offset="0.33" stop-color="#56FFFF"/>
<stop offset="0.5" stop-color="#00FFFF"/>
<stop offset="0.79" stop-color="#1B87BF"/>
<stop offset="1" stop-color="#2E3192"/>
</linearGradient>
<linearGradient id="paint5_linear" x1="220675" y1="2320.63" x2="220675" y2="0" gradientUnits="userSpaceOnUse">
<stop stop-color="white"/>
<stop offset="0.33" stop-color="#56FFFF"/>
<stop offset="0.5" stop-color="#00FFFF"/>
<stop offset="0.79" stop-color="#1B87BF"/>
<stop offset="1" stop-color="#2E3192"/>
</linearGradient>
<linearGradient id="paint6_linear" x1="861.911" y1="42.1933" x2="861.911" y2="0.0153505" gradientUnits="userSpaceOnUse">
<stop stop-color="white"/>
<stop offset="0.33" stop-color="#56FFFF"/>
<stop offset="0.5" stop-color="#00FFFF"/>
<stop offset="0.79" stop-color="#1B87BF"/>
<stop offset="1" stop-color="#2E3192"/>
</linearGradient>
<linearGradient id="paint7_linear" x1="271444" y1="2318.52" x2="271444" y2="0" gradientUnits="userSpaceOnUse">
<stop stop-color="white"/>
<stop offset="0.33" stop-color="#56FFFF"/>
<stop offset="0.5" stop-color="#00FFFF"/>
<stop offset="0.79" stop-color="#1B87BF"/>
<stop offset="1" stop-color="#2E3192"/>
</linearGradient>
<linearGradient id="paint8_linear" x1="1060.12" y1="42.1549" x2="1060.12" y2="0.0153365" gradientUnits="userSpaceOnUse">
<stop stop-color="white"/>
<stop offset="0.33" stop-color="#56FFFF"/>
<stop offset="0.5" stop-color="#00FFFF"/>
<stop offset="0.79" stop-color="#1B87BF"/>
<stop offset="1" stop-color="#2E3192"/>
</linearGradient>
<linearGradient id="paint9_linear" x1="358791" y1="2321.46" x2="358791" y2="-0.0153732" gradientUnits="userSpaceOnUse">
<stop stop-color="white"/>
<stop offset="0.33" stop-color="#56FFFF"/>
<stop offset="0.5" stop-color="#00FFFF"/>
<stop offset="0.79" stop-color="#1B87BF"/>
<stop offset="1" stop-color="#2E3192"/>
</linearGradient>
<linearGradient id="paint10_linear" x1="1268.22" y1="42.1933" x2="1268.22" y2="-1.71535e-05" gradientUnits="userSpaceOnUse">
<stop stop-color="white"/>
<stop offset="0.33" stop-color="#56FFFF"/>
<stop offset="0.5" stop-color="#00FFFF"/>
<stop offset="0.79" stop-color="#1B87BF"/>
<stop offset="1" stop-color="#2E3192"/>
</linearGradient>
<linearGradient id="paint11_linear" x1="223.056" y1="8.46169" x2="223.056" y2="22.0756" gradientUnits="userSpaceOnUse">
<stop stop-color="#662D91"/>
<stop offset="1" stop-color="#15307A"/>
</linearGradient>
<linearGradient id="paint12_linear" x1="3341.08" y1="158.487" x2="3341.08" y2="399.863" gradientUnits="userSpaceOnUse">
<stop stop-color="#662D91"/>
<stop offset="1" stop-color="#15307A"/>
</linearGradient>
<linearGradient id="paint13_linear" x1="6230.02" y1="354.883" x2="6230.02" y2="1641.86" gradientUnits="userSpaceOnUse">
<stop stop-color="#662D91"/>
<stop offset="1" stop-color="#15307A"/>
</linearGradient>
<linearGradient id="paint14_linear" x1="4368.67" y1="158.487" x2="4368.67" y2="399.863" gradientUnits="userSpaceOnUse">
<stop stop-color="#662D91"/>
<stop offset="1" stop-color="#15307A"/>
</linearGradient>
<linearGradient id="paint15_linear" x1="4574.15" y1="158.487" x2="4574.15" y2="399.863" gradientUnits="userSpaceOnUse">
<stop stop-color="#662D91"/>
<stop offset="1" stop-color="#15307A"/>
</linearGradient>
<linearGradient id="paint16_linear" x1="3957.68" y1="158.487" x2="3957.68" y2="399.863" gradientUnits="userSpaceOnUse">
<stop stop-color="#662D91"/>
<stop offset="1" stop-color="#15307A"/>
</linearGradient>
<linearGradient id="paint17_linear" x1="4163.16" y1="158.487" x2="4163.16" y2="399.863" gradientUnits="userSpaceOnUse">
<stop stop-color="#662D91"/>
<stop offset="1" stop-color="#15307A"/>
</linearGradient>
<linearGradient id="paint18_linear" x1="3546.58" y1="158.487" x2="3546.58" y2="399.863" gradientUnits="userSpaceOnUse">
<stop stop-color="#662D91"/>
<stop offset="1" stop-color="#15307A"/>
</linearGradient>
<linearGradient id="paint19_linear" x1="3752.17" y1="158.487" x2="3752.17" y2="399.863" gradientUnits="userSpaceOnUse">
<stop stop-color="#662D91"/>
<stop offset="1" stop-color="#15307A"/>
</linearGradient>
<linearGradient id="paint20_linear" x1="10849.3" y1="354.883" x2="10849.3" y2="1641.86" gradientUnits="userSpaceOnUse">
<stop stop-color="#662D91"/>
<stop offset="1" stop-color="#15307A"/>
</linearGradient>
<linearGradient id="paint21_linear" x1="7160.96" y1="158.487" x2="7160.96" y2="399.863" gradientUnits="userSpaceOnUse">
<stop stop-color="#662D91"/>
<stop offset="1" stop-color="#15307A"/>
</linearGradient>
<linearGradient id="paint22_linear" x1="7366.48" y1="158.487" x2="7366.48" y2="399.863" gradientUnits="userSpaceOnUse">
<stop stop-color="#662D91"/>
<stop offset="1" stop-color="#15307A"/>
</linearGradient>
<linearGradient id="paint23_linear" x1="6749.97" y1="158.487" x2="6749.97" y2="399.863" gradientUnits="userSpaceOnUse">
<stop stop-color="#662D91"/>
<stop offset="1" stop-color="#15307A"/>
</linearGradient>
<linearGradient id="paint24_linear" x1="6955.47" y1="158.487" x2="6955.47" y2="399.863" gradientUnits="userSpaceOnUse">
<stop stop-color="#662D91"/>
<stop offset="1" stop-color="#15307A"/>
</linearGradient>
<linearGradient id="paint25_linear" x1="6259.43" y1="158.487" x2="6259.43" y2="399.863" gradientUnits="userSpaceOnUse">
<stop stop-color="#662D91"/>
<stop offset="1" stop-color="#15307A"/>
</linearGradient>
<linearGradient id="paint26_linear" x1="17036.8" y1="354.883" x2="17036.8" y2="1641.86" gradientUnits="userSpaceOnUse">
<stop stop-color="#662D91"/>
<stop offset="1" stop-color="#15307A"/>
</linearGradient>
<linearGradient id="paint27_linear" x1="5923.67" y1="158.487" x2="5923.67" y2="399.863" gradientUnits="userSpaceOnUse">
<stop stop-color="#662D91"/>
<stop offset="1" stop-color="#15307A"/>
</linearGradient>
<linearGradient id="paint28_linear" x1="5718.14" y1="158.487" x2="5718.14" y2="399.863" gradientUnits="userSpaceOnUse">
<stop stop-color="#662D91"/>
<stop offset="1" stop-color="#15307A"/>
</linearGradient>
<linearGradient id="paint29_linear" x1="6334.77" y1="158.487" x2="6334.77" y2="399.863" gradientUnits="userSpaceOnUse">
<stop stop-color="#662D91"/>
<stop offset="1" stop-color="#15307A"/>
</linearGradient>
<linearGradient id="paint30_linear" x1="6129.16" y1="158.487" x2="6129.16" y2="399.863" gradientUnits="userSpaceOnUse">
<stop stop-color="#662D91"/>
<stop offset="1" stop-color="#15307A"/>
</linearGradient>
<linearGradient id="paint31_linear" x1="11956.9" y1="354.883" x2="11956.9" y2="1641.86" gradientUnits="userSpaceOnUse">
<stop stop-color="#662D91"/>
<stop offset="1" stop-color="#15307A"/>
</linearGradient>
<linearGradient id="paint32_linear" x1="9955.96" y1="158.487" x2="9955.96" y2="399.863" gradientUnits="userSpaceOnUse">
<stop stop-color="#662D91"/>
<stop offset="1" stop-color="#15307A"/>
</linearGradient>
<linearGradient id="paint33_linear" x1="10161.4" y1="158.487" x2="10161.4" y2="399.863" gradientUnits="userSpaceOnUse">
<stop stop-color="#662D91"/>
<stop offset="1" stop-color="#15307A"/>
</linearGradient>
<linearGradient id="paint34_linear" x1="9544.81" y1="158.487" x2="9544.81" y2="399.863" gradientUnits="userSpaceOnUse">
<stop stop-color="#662D91"/>
<stop offset="1" stop-color="#15307A"/>
</linearGradient>
<linearGradient id="paint35_linear" x1="9750.25" y1="158.487" x2="9750.25" y2="399.863" gradientUnits="userSpaceOnUse">
<stop stop-color="#662D91"/>
<stop offset="1" stop-color="#15307A"/>
</linearGradient>
<linearGradient id="paint36_linear" x1="8931.35" y1="158.487" x2="8931.35" y2="399.863" gradientUnits="userSpaceOnUse">
<stop stop-color="#662D91"/>
<stop offset="1" stop-color="#15307A"/>
</linearGradient>
<linearGradient id="paint37_linear" x1="23229.8" y1="354.883" x2="23229.8" y2="1641.86" gradientUnits="userSpaceOnUse">
<stop stop-color="#662D91"/>
<stop offset="1" stop-color="#15307A"/>
</linearGradient>
<linearGradient id="paint38_linear" x1="8718.54" y1="158.487" x2="8718.54" y2="399.863" gradientUnits="userSpaceOnUse">
<stop stop-color="#662D91"/>
<stop offset="1" stop-color="#15307A"/>
</linearGradient>
<linearGradient id="paint39_linear" x1="8513.1" y1="158.487" x2="8513.1" y2="399.863" gradientUnits="userSpaceOnUse">
<stop stop-color="#662D91"/>
<stop offset="1" stop-color="#15307A"/>
</linearGradient>
<linearGradient id="paint40_linear" x1="9129.58" y1="158.487" x2="9129.58" y2="399.863" gradientUnits="userSpaceOnUse">
<stop stop-color="#662D91"/>
<stop offset="1" stop-color="#15307A"/>
</linearGradient>
<linearGradient id="paint41_linear" x1="8924.09" y1="158.487" x2="8924.09" y2="399.863" gradientUnits="userSpaceOnUse">
<stop stop-color="#662D91"/>
<stop offset="1" stop-color="#15307A"/>
</linearGradient>
<linearGradient id="paint42_linear" x1="18150" y1="354.883" x2="18150" y2="1641.86" gradientUnits="userSpaceOnUse">
<stop stop-color="#662D91"/>
<stop offset="1" stop-color="#15307A"/>
</linearGradient>
<linearGradient id="paint43_linear" x1="12744" y1="158.487" x2="12744" y2="399.863" gradientUnits="userSpaceOnUse">
<stop stop-color="#662D91"/>
<stop offset="1" stop-color="#15307A"/>
</linearGradient>
<linearGradient id="paint44_linear" x1="12949.6" y1="158.487" x2="12949.6" y2="399.863" gradientUnits="userSpaceOnUse">
<stop stop-color="#662D91"/>
<stop offset="1" stop-color="#15307A"/>
</linearGradient>
<linearGradient id="paint45_linear" x1="12332.9" y1="158.487" x2="12332.9" y2="399.863" gradientUnits="userSpaceOnUse">
<stop stop-color="#662D91"/>
<stop offset="1" stop-color="#15307A"/>
</linearGradient>
<linearGradient id="paint46_linear" x1="12538.6" y1="158.487" x2="12538.6" y2="399.863" gradientUnits="userSpaceOnUse">
<stop stop-color="#662D91"/>
<stop offset="1" stop-color="#15307A"/>
</linearGradient>
<linearGradient id="paint47_linear" x1="11596.6" y1="158.487" x2="11596.6" y2="399.863" gradientUnits="userSpaceOnUse">
<stop stop-color="#662D91"/>
<stop offset="1" stop-color="#15307A"/>
</linearGradient>
<linearGradient id="paint48_linear" x1="29408.2" y1="354.883" x2="29408.2" y2="1641.86" gradientUnits="userSpaceOnUse">
<stop stop-color="#662D91"/>
<stop offset="1" stop-color="#15307A"/>
</linearGradient>
<linearGradient id="paint49_linear" x1="11506.7" y1="158.487" x2="11506.7" y2="399.863" gradientUnits="userSpaceOnUse">
<stop stop-color="#662D91"/>
<stop offset="1" stop-color="#15307A"/>
</linearGradient>
<linearGradient id="paint50_linear" x1="11301.3" y1="158.487" x2="11301.3" y2="399.863" gradientUnits="userSpaceOnUse">
<stop stop-color="#662D91"/>
<stop offset="1" stop-color="#15307A"/>
</linearGradient>
<linearGradient id="paint51_linear" x1="11917.8" y1="158.487" x2="11917.8" y2="399.863" gradientUnits="userSpaceOnUse">
<stop stop-color="#662D91"/>
<stop offset="1" stop-color="#15307A"/>
</linearGradient>
<linearGradient id="paint52_linear" x1="11712.2" y1="158.487" x2="11712.2" y2="399.863" gradientUnits="userSpaceOnUse">
<stop stop-color="#662D91"/>
<stop offset="1" stop-color="#15307A"/>
</linearGradient>
<linearGradient id="paint53_linear" x1="24328.4" y1="354.883" x2="24328.4" y2="1641.86" gradientUnits="userSpaceOnUse">
<stop stop-color="#662D91"/>
<stop offset="1" stop-color="#15307A"/>
</linearGradient>
<linearGradient id="paint54_linear" x1="15535.1" y1="158.487" x2="15535.1" y2="399.863" gradientUnits="userSpaceOnUse">
<stop stop-color="#662D91"/>
<stop offset="1" stop-color="#15307A"/>
</linearGradient>
<linearGradient id="paint55_linear" x1="15740.2" y1="158.487" x2="15740.2" y2="399.863" gradientUnits="userSpaceOnUse">
<stop stop-color="#662D91"/>
<stop offset="1" stop-color="#15307A"/>
</linearGradient>
<linearGradient id="paint56_linear" x1="15123.6" y1="158.487" x2="15123.6" y2="399.863" gradientUnits="userSpaceOnUse">
<stop stop-color="#662D91"/>
<stop offset="1" stop-color="#15307A"/>
</linearGradient>
<linearGradient id="paint57_linear" x1="15329.4" y1="158.487" x2="15329.4" y2="399.863" gradientUnits="userSpaceOnUse">
<stop stop-color="#662D91"/>
<stop offset="1" stop-color="#15307A"/>
</linearGradient>
<linearGradient id="paint58_linear" x1="14264.8" y1="158.487" x2="14264.8" y2="399.863" gradientUnits="userSpaceOnUse">
<stop stop-color="#662D91"/>
<stop offset="1" stop-color="#15307A"/>
</linearGradient>
<linearGradient id="paint59_linear" x1="35592.2" y1="354.883" x2="35592.2" y2="1641.86" gradientUnits="userSpaceOnUse">
<stop stop-color="#662D91"/>
<stop offset="1" stop-color="#15307A"/>
</linearGradient>
<linearGradient id="paint60_linear" x1="14297.5" y1="158.487" x2="14297.5" y2="399.863" gradientUnits="userSpaceOnUse">
<stop stop-color="#662D91"/>
<stop offset="1" stop-color="#15307A"/>
</linearGradient>
<linearGradient id="paint61_linear" x1="14092.1" y1="158.487" x2="14092.1" y2="399.863" gradientUnits="userSpaceOnUse">
<stop stop-color="#662D91"/>
<stop offset="1" stop-color="#15307A"/>
</linearGradient>
<linearGradient id="paint62_linear" x1="14708.6" y1="158.487" x2="14708.6" y2="399.863" gradientUnits="userSpaceOnUse">
<stop stop-color="#662D91"/>
<stop offset="1" stop-color="#15307A"/>
</linearGradient>
<linearGradient id="paint63_linear" x1="14503.1" y1="158.487" x2="14503.1" y2="399.863" gradientUnits="userSpaceOnUse">
<stop stop-color="#662D91"/>
<stop offset="1" stop-color="#15307A"/>
</linearGradient>
<linearGradient id="paint64_linear" x1="30512.4" y1="354.883" x2="30512.4" y2="1641.86" gradientUnits="userSpaceOnUse">
<stop stop-color="#662D91"/>
<stop offset="1" stop-color="#15307A"/>
</linearGradient>
<linearGradient id="paint65_linear" x1="18325.8" y1="158.487" x2="18325.8" y2="399.863" gradientUnits="userSpaceOnUse">
<stop stop-color="#662D91"/>
<stop offset="1" stop-color="#15307A"/>
</linearGradient>
<linearGradient id="paint66_linear" x1="18120.3" y1="158.487" x2="18120.3" y2="399.863" gradientUnits="userSpaceOnUse">
<stop stop-color="#662D91"/>
<stop offset="1" stop-color="#15307A"/>
</linearGradient>
<linearGradient id="paint67_linear" x1="41326" y1="354.883" x2="41326" y2="1641.86" gradientUnits="userSpaceOnUse">
<stop stop-color="#662D91"/>
<stop offset="1" stop-color="#15307A"/>
</linearGradient>
<linearGradient id="paint68_linear" x1="17092.5" y1="158.487" x2="17092.5" y2="399.863" gradientUnits="userSpaceOnUse">
<stop stop-color="#662D91"/>
<stop offset="1" stop-color="#15307A"/>
</linearGradient>
<linearGradient id="paint69_linear" x1="16887" y1="158.487" x2="16887" y2="399.863" gradientUnits="userSpaceOnUse">
<stop stop-color="#662D91"/>
<stop offset="1" stop-color="#15307A"/>
</linearGradient>
<linearGradient id="paint70_linear" x1="17503.8" y1="158.487" x2="17503.8" y2="399.863" gradientUnits="userSpaceOnUse">
<stop stop-color="#662D91"/>
<stop offset="1" stop-color="#15307A"/>
</linearGradient>
<linearGradient id="paint71_linear" x1="17298.3" y1="158.487" x2="17298.3" y2="399.863" gradientUnits="userSpaceOnUse">
<stop stop-color="#662D91"/>
<stop offset="1" stop-color="#15307A"/>
</linearGradient>
<linearGradient id="paint72_linear" x1="17914.8" y1="158.487" x2="17914.8" y2="399.863" gradientUnits="userSpaceOnUse">
<stop stop-color="#662D91"/>
<stop offset="1" stop-color="#15307A"/>
</linearGradient>
<linearGradient id="paint73_linear" x1="17709.1" y1="158.487" x2="17709.1" y2="399.863" gradientUnits="userSpaceOnUse">
<stop stop-color="#662D91"/>
<stop offset="1" stop-color="#15307A"/>
</linearGradient>
<linearGradient id="paint74_linear" x1="36706.3" y1="354.883" x2="36706.3" y2="1641.86" gradientUnits="userSpaceOnUse">
<stop stop-color="#662D91"/>
<stop offset="1" stop-color="#15307A"/>
</linearGradient>
<linearGradient id="paint75_linear" x1="1374.93" y1="7.07188" x2="1339.02" y2="27.9626" gradientUnits="userSpaceOnUse">
<stop stop-color="#662D91"/>
<stop offset="1" stop-color="#2E3192"/>
</linearGradient>
<linearGradient id="paint76_linear" x1="155.428" y1="11.0263" x2="179.431" y2="22.5533" gradientUnits="userSpaceOnUse">
<stop stop-color="#662D91"/>
<stop offset="0.75" stop-color="#3D3092"/>
<stop offset="1" stop-color="#2E3192"/>
</linearGradient>
<linearGradient id="paint77_linear" x1="21.3445" y1="60.3529" x2="184.58" y2="-12.0273" gradientUnits="userSpaceOnUse">
<stop/>
<stop offset="0.65" stop-color="#A900A9"/>
<stop offset="1" stop-color="#FF00FF"/>
</linearGradient>
<radialGradient id="paint78_radial" cx="0" cy="0" r="1" gradientUnits="userSpaceOnUse" gradientTransform="translate(147.969 28.8115) scale(29.5135 18.2143)">
<stop stop-color="#FF7BAC"/>
<stop offset="0.35" stop-color="#A95272"/>
<stop offset="1"/>
</radialGradient>
<clipPath id="clip0">
<rect width="1377" height="47" fill="white"/>
</clipPath>
</defs>
</svg>
