<svg width="1325" height="32" viewBox="0 0 1325 32" fill="none" xmlns="http://www.w3.org/2000/svg">
<g clip-path="url(#clip0)">
<path d="M313.486 7.01811V38.4999C313.492 38.9875 313.4 39.4713 313.216 39.9233C313.032 40.3754 312.76 40.7867 312.416 41.1336C312.072 41.4806 311.662 41.7562 311.21 41.9447C310.758 42.1331 310.274 42.2307 309.784 42.2317H107.293C104.959 42.2327 102.681 41.5154 100.773 40.1779C98.864 38.8404 97.418 36.9481 96.632 34.7605C96.375 34.0215 96.199 33.2568 96.108 32.48C96.037 31.9711 96.001 31.458 96 30.9443V27.1742C96.01 25.8573 96.272 24.5545 96.771 23.3349C99.139 17.3227 106.537 10.9495 114.513 6.38848C121.217 2.54924 128.329 -0.0153809 133.196 -0.0153809H306.451C307.377 -0.0133664 308.294 0.170158 309.148 0.524715C310.003 0.879272 310.779 1.39792 311.432 2.05104C312.086 2.70416 312.603 3.47897 312.956 4.33122C313.308 5.18347 313.489 6.09648 313.486 7.01811Z" fill="url(#paint0_linear)"/>
<path d="M504.754 7.85734e-10H322.041C320.171 7.85747e-10 318.378 0.739408 317.056 2.05556C315.734 3.37172 314.991 5.15681 314.991 7.01813V38.4999C314.986 38.9882 315.078 39.4726 315.262 39.9251C315.446 40.3776 315.719 40.7893 316.064 41.1364C316.409 41.4834 316.82 41.7589 317.272 41.9469C317.725 42.1349 318.211 42.2317 318.701 42.2317H508.094C509.078 42.2317 510.022 41.8425 510.717 41.1499C511.413 40.4573 511.804 39.5178 511.804 38.5383V7.05653C511.809 6.13167 511.631 5.21493 511.279 4.35901C510.927 3.5031 510.408 2.72489 509.753 2.06912C509.098 1.41335 508.319 0.892965 507.461 0.537873C506.603 0.18278 505.683 -1.38382e-05 504.754 7.85734e-10Z" fill="url(#paint1_linear)"/>
<path d="M504.754 7.85734e-10H322.041C320.171 7.85747e-10 318.378 0.739408 317.056 2.05556C315.734 3.37172 314.991 5.15681 314.991 7.01813V38.4999C314.986 38.9882 315.078 39.4726 315.262 39.9251C315.446 40.3776 315.719 40.7893 316.064 41.1364C316.409 41.4834 316.82 41.7589 317.272 41.9469C317.725 42.1349 318.211 42.2317 318.701 42.2317H508.094C509.078 42.2317 510.022 41.8425 510.717 41.1499C511.413 40.4573 511.804 39.5178 511.804 38.5383V7.05653C511.809 6.13167 511.631 5.21493 511.279 4.35901C510.927 3.5031 510.408 2.72489 509.753 2.06912C509.098 1.41335 508.319 0.892965 507.461 0.537873C506.603 0.18278 505.683 -1.38382e-05 504.754 7.85734e-10Z" fill="url(#paint2_linear)"/>
<path d="M703.257 7.85733e-10H520.544C518.674 7.85735e-10 516.881 0.739408 515.559 2.05556C514.236 3.37172 513.494 5.15681 513.494 7.01813V38.4999C513.488 38.9882 513.581 39.4726 513.765 39.9251C513.949 40.3776 514.221 40.7893 514.567 41.1364C514.912 41.4834 515.322 41.7589 515.775 41.9469C516.228 42.1349 516.713 42.2317 517.204 42.2317H706.597C707.581 42.2317 708.524 41.8425 709.22 41.1499C709.916 40.4573 710.307 39.5178 710.307 38.5383V7.05653C710.312 6.13167 710.133 5.21493 709.781 4.35901C709.429 3.5031 708.911 2.72489 708.256 2.06912C707.6 1.41335 706.821 0.892965 705.964 0.537873C705.106 0.18278 704.186 -1.38382e-05 703.257 7.85734e-10V7.85733e-10Z" fill="url(#paint3_linear)"/>
<path d="M703.257 7.85733e-10H520.544C518.674 7.85735e-10 516.881 0.739408 515.559 2.05556C514.236 3.37172 513.494 5.15681 513.494 7.01813V38.4999C513.488 38.9882 513.581 39.4726 513.765 39.9251C513.949 40.3776 514.221 40.7893 514.567 41.1364C514.912 41.4834 515.322 41.7589 515.775 41.9469C516.228 42.1349 516.713 42.2317 517.204 42.2317H706.597C707.581 42.2317 708.524 41.8425 709.22 41.1499C709.916 40.4573 710.307 39.5178 710.307 38.5383V7.05653C710.312 6.13167 710.133 5.21493 709.781 4.35901C709.429 3.5031 708.911 2.72489 708.256 2.06912C707.6 1.41335 706.821 0.892965 705.964 0.537873C705.106 0.18278 704.186 -1.38382e-05 703.257 7.85734e-10V7.85733e-10Z" fill="url(#paint4_linear)"/>
<path d="M901.281 7.85734e-10H718.569C716.699 7.85736e-10 714.905 0.739408 713.583 2.05556C712.261 3.37172 711.518 5.15681 711.518 7.01813V38.4999C711.513 38.9882 711.605 39.4726 711.789 39.9251C711.974 40.3776 712.246 40.7893 712.591 41.1364C712.936 41.4834 713.347 41.7589 713.8 41.9469C714.252 42.1349 714.738 42.2317 715.228 42.2317H904.621C905.605 42.2317 906.549 41.8425 907.245 41.1499C907.941 40.4573 908.332 39.5178 908.332 38.5383V7.05653C908.337 6.13167 908.158 5.21493 907.806 4.35901C907.454 3.5031 906.935 2.72489 906.28 2.06912C905.625 1.41335 904.846 0.892965 903.988 0.537873C903.13 0.18278 902.21 -1.38382e-05 901.281 7.85734e-10Z" fill="url(#paint5_linear)"/>
<path d="M901.281 7.85734e-10H718.569C716.699 7.85736e-10 714.905 0.739408 713.583 2.05556C712.261 3.37172 711.518 5.15681 711.518 7.01813V38.4999C711.513 38.9882 711.605 39.4726 711.789 39.9251C711.974 40.3776 712.246 40.7893 712.591 41.1364C712.936 41.4834 713.347 41.7589 713.8 41.9469C714.252 42.1349 714.738 42.2317 715.228 42.2317H904.621C905.605 42.2317 906.549 41.8425 907.245 41.1499C907.941 40.4573 908.332 39.5178 908.332 38.5383V7.05653C908.337 6.13167 908.158 5.21493 907.806 4.35901C907.454 3.5031 906.935 2.72489 906.28 2.06912C905.625 1.41335 904.846 0.892965 903.988 0.537873C903.13 0.18278 902.21 -1.38382e-05 901.281 7.85734e-10Z" fill="url(#paint6_linear)"/>
<path d="M1099.49 0H916.778C915.852 0 914.936 0.181529 914.08 0.534224C913.225 0.886918 912.448 1.40387 911.793 2.05556C911.138 2.70726 910.619 3.48093 910.265 4.33241C909.91 5.18389 909.728 6.0965 909.728 7.01813V38.4999C909.728 39.4795 910.119 40.4189 910.815 41.1115C911.51 41.8042 912.454 42.1933 913.438 42.1933H1102.83C1103.81 42.1933 1104.76 41.8042 1105.45 41.1115C1106.15 40.4189 1106.54 39.4795 1106.54 38.4999V7.01813C1106.54 5.15681 1105.8 3.37172 1104.48 2.05556C1103.15 0.739408 1101.36 0 1099.49 0Z" fill="url(#paint7_linear)"/>
<path d="M1099.49 0H916.778C915.852 0 914.936 0.181529 914.08 0.534224C913.225 0.886918 912.448 1.40387 911.793 2.05556C911.138 2.70726 910.619 3.48093 910.265 4.33241C909.91 5.18389 909.728 6.0965 909.728 7.01813V38.4999C909.728 39.4795 910.119 40.4189 910.815 41.1115C911.51 41.8042 912.454 42.1933 913.438 42.1933H1102.83C1103.81 42.1933 1104.76 41.8042 1105.45 41.1115C1106.15 40.4189 1106.54 39.4795 1106.54 38.4999V7.01813C1106.54 5.15681 1105.8 3.37172 1104.48 2.05556C1103.15 0.739408 1101.36 0 1099.49 0Z" fill="url(#paint8_linear)"/>
<path d="M1107.47 7.01812V38.4999C1107.47 38.9882 1107.56 39.4726 1107.75 39.9251C1107.93 40.3776 1108.2 40.7893 1108.55 41.1364C1108.89 41.4834 1109.3 41.7589 1109.76 41.9469C1110.21 42.1349 1110.69 42.2317 1111.19 42.2317H1313.68C1316.01 42.2327 1318.29 41.5154 1320.2 40.1779C1322.1 38.8404 1323.55 36.9481 1324.34 34.7605C1324.6 34.0375 1324.79 33.2884 1324.89 32.5261C1324.96 32.0171 1325 31.5041 1325 30.9904V27.1742C1324.99 25.8573 1324.73 24.5545 1324.23 23.3349C1321.86 17.3227 1314.46 10.9495 1306.49 6.38849C1299.78 2.54925 1292.67 -0.0153641 1287.8 -0.0153641H1114.55C1113.62 -0.0173856 1112.7 0.163105 1111.84 0.51576C1110.98 0.868416 1110.2 1.3863 1109.54 2.03972C1108.89 2.69314 1108.37 3.46925 1108.01 4.32355C1107.66 5.17785 1107.47 6.09354 1107.47 7.01812Z" fill="url(#paint9_linear)"/>
<path d="M1107.47 7.01812V38.4999C1107.47 38.9882 1107.56 39.4726 1107.75 39.9251C1107.93 40.3776 1108.2 40.7893 1108.55 41.1364C1108.89 41.4834 1109.3 41.7589 1109.76 41.9469C1110.21 42.1349 1110.69 42.2317 1111.19 42.2317H1313.68C1316.01 42.2327 1318.29 41.5154 1320.2 40.1779C1322.1 38.8404 1323.55 36.9481 1324.34 34.7605C1324.6 34.0375 1324.79 33.2884 1324.89 32.5261C1324.96 32.0171 1325 31.5041 1325 30.9904V27.1742C1324.99 25.8573 1324.73 24.5545 1324.23 23.3349C1321.86 17.3227 1314.46 10.9495 1306.49 6.38849C1299.78 2.54925 1292.67 -0.0153641 1287.8 -0.0153641H1114.55C1113.62 -0.0173856 1112.7 0.163105 1111.84 0.51576C1110.98 0.868416 1110.2 1.3863 1109.54 2.03972C1108.89 2.69314 1108.37 3.46925 1108.01 4.32355C1107.66 5.17785 1107.47 6.09354 1107.47 7.01812Z" fill="url(#paint10_linear)"/>
<path d="M704.575 27.1742H513.494V31.9425H710.307V27.1742H704.575Z" fill="#0071BC"/>
<path d="M1100.81 27.1742H909.728V31.9425H1106.54V27.1742H1100.81Z" fill="#0071BC"/>
<path d="M313.486 27.1742V31.9425H133.621C121.238 31.914 108.871 32.8408 96.632 34.7144C96.378 33.9902 96.202 33.2412 96.108 32.48C104.477 30.4989 120.507 27.1742 133.651 27.1742H313.486Z" fill="#0071BC"/>
<path d="M506.073 27.1742H314.991V31.9425H511.804V27.1742H506.073Z" fill="#0071BC"/>
<path d="M902.6 27.1742H711.518V31.9425H908.332V27.1742H902.6Z" fill="#0071BC"/>
<path d="M1107.47 27.1742V31.9425H1287.35C1299.74 31.9121 1312.12 32.8388 1324.38 34.7144C1324.64 33.9914 1324.83 33.2423 1324.93 32.48C1316.56 30.4989 1300.53 27.1742 1287.39 27.1742H1107.47Z" fill="#0071BC"/>
<path d="M174.535 8.46167H167.577C166.712 8.46167 166.011 9.15954 166.011 10.0204V20.5169C166.011 21.3778 166.712 22.0756 167.577 22.0756H174.535C175.4 22.0756 176.101 21.3778 176.101 20.5169V10.0204C176.101 9.15954 175.4 8.46167 174.535 8.46167Z" fill="url(#paint11_linear)"/>
<path d="M189.13 8.46167H182.172C181.307 8.46167 180.606 9.15954 180.606 10.0204V20.5169C180.606 21.3778 181.307 22.0756 182.172 22.0756H189.13C189.995 22.0756 190.696 21.3778 190.696 20.5169V10.0204C190.696 9.15954 189.995 8.46167 189.13 8.46167Z" fill="url(#paint12_linear)"/>
<path d="M156.076 8.46167H140.031C138.028 8.46167 136.405 10.0774 136.405 12.0706V36.2885C136.405 38.2817 138.028 39.8974 140.031 39.8974H156.076C158.078 39.8974 159.701 38.2817 159.701 36.2885V12.0706C159.701 10.0774 158.078 8.46167 156.076 8.46167Z" fill="url(#paint13_linear)"/>
<path d="M262.112 8.46167H255.154C254.289 8.46167 253.588 9.15954 253.588 10.0204V20.5169C253.588 21.3778 254.289 22.0756 255.154 22.0756H262.112C262.976 22.0756 263.678 21.3778 263.678 20.5169V10.0204C263.678 9.15954 262.976 8.46167 262.112 8.46167Z" fill="url(#paint14_linear)"/>
<path d="M276.706 8.46167H269.748C268.884 8.46167 268.183 9.15954 268.183 10.0204V20.5169C268.183 21.3778 268.884 22.0756 269.748 22.0756H276.706C277.571 22.0756 278.272 21.3778 278.272 20.5169V10.0204C278.272 9.15954 277.571 8.46167 276.706 8.46167Z" fill="url(#paint15_linear)"/>
<path d="M232.922 8.46167H225.964C225.099 8.46167 224.398 9.15954 224.398 10.0204V20.5169C224.398 21.3778 225.099 22.0756 225.964 22.0756H232.922C233.787 22.0756 234.488 21.3778 234.488 20.5169V10.0204C234.488 9.15954 233.787 8.46167 232.922 8.46167Z" fill="url(#paint16_linear)"/>
<path d="M247.517 8.46167H240.559C239.694 8.46167 238.993 9.15954 238.993 10.0204V20.5169C238.993 21.3778 239.694 22.0756 240.559 22.0756H247.517C248.382 22.0756 249.083 21.3778 249.083 20.5169V10.0204C249.083 9.15954 248.382 8.46167 247.517 8.46167Z" fill="url(#paint17_linear)"/>
<path d="M203.725 8.46167H196.767C195.902 8.46167 195.201 9.15954 195.201 10.0204V20.5169C195.201 21.3778 195.902 22.0756 196.767 22.0756H203.725C204.59 22.0756 205.291 21.3778 205.291 20.5169V10.0204C205.291 9.15954 204.59 8.46167 203.725 8.46167Z" fill="url(#paint18_linear)"/>
<path d="M218.327 8.46167H211.369C210.505 8.46167 209.803 9.15954 209.803 10.0204V20.5169C209.803 21.3778 210.505 22.0756 211.369 22.0756H218.327C219.192 22.0756 219.893 21.3778 219.893 20.5169V10.0204C219.893 9.15954 219.192 8.46167 218.327 8.46167Z" fill="url(#paint19_linear)"/>
<path d="M304.129 8.46167H288.084C286.082 8.46167 284.459 10.0774 284.459 12.0706V36.2885C284.459 38.2817 286.082 39.8974 288.084 39.8974H304.129C306.132 39.8974 307.755 38.2817 307.755 36.2885V12.0706C307.755 10.0774 306.132 8.46167 304.129 8.46167Z" fill="url(#paint20_linear)"/>
<path d="M460.429 8.46167H453.471C452.607 8.46167 451.905 9.15954 451.905 10.0204V20.5169C451.905 21.3778 452.607 22.0756 453.471 22.0756H460.429C461.294 22.0756 461.995 21.3778 461.995 20.5169V10.0204C461.995 9.15954 461.294 8.46167 460.429 8.46167Z" fill="url(#paint21_linear)"/>
<path d="M475.024 8.46167H468.066C467.201 8.46167 466.5 9.15954 466.5 10.0204V20.5169C466.5 21.3778 467.201 22.0756 468.066 22.0756H475.024C475.889 22.0756 476.59 21.3778 476.59 20.5169V10.0204C476.59 9.15954 475.889 8.46167 475.024 8.46167Z" fill="url(#paint22_linear)"/>
<path d="M431.232 8.46167H424.274C423.409 8.46167 422.708 9.15954 422.708 10.0204V20.5169C422.708 21.3778 423.409 22.0756 424.274 22.0756H431.232C432.097 22.0756 432.798 21.3778 432.798 20.5169V10.0204C432.798 9.15954 432.097 8.46167 431.232 8.46167Z" fill="url(#paint23_linear)"/>
<path d="M445.835 8.46167H438.877C438.012 8.46167 437.311 9.15954 437.311 10.0204V20.5169C437.311 21.3778 438.012 22.0756 438.877 22.0756H445.835C446.699 22.0756 447.4 21.3778 447.4 20.5169V10.0204C447.4 9.15954 446.699 8.46167 445.835 8.46167Z" fill="url(#paint24_linear)"/>
<path d="M416.637 8.46167H410.158C409.293 8.46167 408.592 9.15954 408.592 10.0204V20.5169C408.592 21.3778 409.293 22.0756 410.158 22.0756H416.637C417.502 22.0756 418.203 21.3778 418.203 20.5169V10.0204C418.203 9.15954 417.502 8.46167 416.637 8.46167Z" fill="url(#paint25_linear)"/>
<path d="M502.439 8.46167H486.394C484.392 8.46167 482.769 10.0774 482.769 12.0706V36.2885C482.769 38.2817 484.392 39.8974 486.394 39.8974H502.439C504.442 39.8974 506.065 38.2817 506.065 36.2885V12.0706C506.065 10.0774 504.442 8.46167 502.439 8.46167Z" fill="url(#paint26_linear)"/>
<path d="M365.602 22.0756H372.56C373.425 22.0756 374.126 21.3778 374.126 20.5169V10.0204C374.126 9.15954 373.425 8.46167 372.56 8.46167H365.602C364.737 8.46167 364.036 9.15954 364.036 10.0204V20.5169C364.036 21.3778 364.737 22.0756 365.602 22.0756Z" fill="url(#paint27_linear)"/>
<path d="M350.999 22.0756H357.957C358.822 22.0756 359.523 21.3778 359.523 20.5169V10.0204C359.523 9.15954 358.822 8.46167 357.957 8.46167H350.999C350.135 8.46167 349.433 9.15954 349.433 10.0204V20.5169C349.433 21.3778 350.135 22.0756 350.999 22.0756Z" fill="url(#paint28_linear)"/>
<path d="M394.784 22.0756H401.742C402.606 22.0756 403.308 21.3778 403.308 20.5169V10.0204C403.308 9.15954 402.606 8.46167 401.742 8.46167H394.784C393.919 8.46167 393.218 9.15954 393.218 10.0204V20.5169C393.218 21.3778 393.919 22.0756 394.784 22.0756Z" fill="url(#paint29_linear)"/>
<path d="M380.197 22.0756H387.155C388.019 22.0756 388.721 21.3778 388.721 20.5169V10.0204C388.721 9.15954 388.019 8.46167 387.155 8.46167H380.197C379.332 8.46167 378.631 9.15954 378.631 10.0204V20.5169C378.631 21.3778 379.332 22.0756 380.197 22.0756Z" fill="url(#paint30_linear)"/>
<path d="M323.576 39.8974H339.621C341.624 39.8974 343.247 38.2816 343.247 36.2885V12.0706C343.247 10.0774 341.624 8.46167 339.621 8.46167H323.576C321.574 8.46167 319.951 10.0774 319.951 12.0706V36.2885C319.951 38.2816 321.574 39.8974 323.576 39.8974Z" fill="url(#paint31_linear)"/>
<path d="M658.932 8.46167H651.974C651.109 8.46167 650.408 9.15954 650.408 10.0204V20.5169C650.408 21.3778 651.109 22.0756 651.974 22.0756H658.932C659.797 22.0756 660.498 21.3778 660.498 20.5169V10.0204C660.498 9.15954 659.797 8.46167 658.932 8.46167Z" fill="url(#paint32_linear)"/>
<path d="M673.527 8.46167H666.569C665.704 8.46167 665.003 9.15954 665.003 10.0204V20.5169C665.003 21.3778 665.704 22.0756 666.569 22.0756H673.527C674.392 22.0756 675.093 21.3778 675.093 20.5169V10.0204C675.093 9.15954 674.392 8.46167 673.527 8.46167Z" fill="url(#paint33_linear)"/>
<path d="M629.735 8.46167H622.777C621.912 8.46167 621.211 9.15954 621.211 10.0204V20.5169C621.211 21.3778 621.912 22.0756 622.777 22.0756H629.735C630.6 22.0756 631.301 21.3778 631.301 20.5169V10.0204C631.301 9.15954 630.6 8.46167 629.735 8.46167Z" fill="url(#paint34_linear)"/>
<path d="M644.33 8.46167H637.372C636.507 8.46167 635.806 9.15954 635.806 10.0204V20.5169C635.806 21.3778 636.507 22.0756 637.372 22.0756H644.33C645.195 22.0756 645.896 21.3778 645.896 20.5169V10.0204C645.896 9.15954 645.195 8.46167 644.33 8.46167Z" fill="url(#paint35_linear)"/>
<path d="M615.14 8.46167H608.66C607.796 8.46167 607.094 9.15954 607.094 10.0204V20.5169C607.094 21.3778 607.796 22.0756 608.66 22.0756H615.14C616.005 22.0756 616.706 21.3778 616.706 20.5169V10.0204C616.706 9.15954 616.005 8.46167 615.14 8.46167Z" fill="url(#paint36_linear)"/>
<path d="M700.942 8.46167H684.897C682.895 8.46167 681.272 10.0774 681.272 12.0706V36.2885C681.272 38.2817 682.895 39.8974 684.897 39.8974H700.942C702.945 39.8974 704.568 38.2817 704.568 36.2885V12.0706C704.568 10.0774 702.945 8.46167 700.942 8.46167Z" fill="url(#paint37_linear)"/>
<path d="M564.097 22.0756H571.055C571.92 22.0756 572.621 21.3778 572.621 20.5169V10.0204C572.621 9.15954 571.92 8.46167 571.055 8.46167H564.097C563.232 8.46167 562.531 9.15954 562.531 10.0204V20.5169C562.531 21.3778 563.232 22.0756 564.097 22.0756Z" fill="url(#paint38_linear)"/>
<path d="M549.502 22.0756H556.46C557.325 22.0756 558.026 21.3778 558.026 20.5169V10.0204C558.026 9.15954 557.325 8.46167 556.46 8.46167H549.502C548.637 8.46167 547.936 9.15954 547.936 10.0204V20.5169C547.936 21.3778 548.637 22.0756 549.502 22.0756Z" fill="url(#paint39_linear)"/>
<path d="M593.294 22.0756H600.252C601.117 22.0756 601.818 21.3778 601.818 20.5169V10.0204C601.818 9.15954 601.117 8.46167 600.252 8.46167H593.294C592.429 8.46167 591.728 9.15954 591.728 10.0204V20.5169C591.728 21.3778 592.429 22.0756 593.294 22.0756Z" fill="url(#paint40_linear)"/>
<path d="M578.692 22.0756H585.65C586.515 22.0756 587.216 21.3778 587.216 20.5169V10.0204C587.216 9.15954 586.515 8.46167 585.65 8.46167H578.692C577.827 8.46167 577.126 9.15954 577.126 10.0204V20.5169C577.126 21.3778 577.827 22.0756 578.692 22.0756Z" fill="url(#paint41_linear)"/>
<path d="M522.087 39.8974H538.132C540.134 39.8974 541.757 38.2816 541.757 36.2885V12.0706C541.757 10.0774 540.134 8.46167 538.132 8.46167H522.087C520.084 8.46167 518.461 10.0774 518.461 12.0706V36.2885C518.461 38.2816 520.084 39.8974 522.087 39.8974Z" fill="url(#paint42_linear)"/>
<path d="M856.957 8.46167H849.999C849.134 8.46167 848.433 9.15954 848.433 10.0204V20.5169C848.433 21.3778 849.134 22.0756 849.999 22.0756H856.957C857.821 22.0756 858.523 21.3778 858.523 20.5169V10.0204C858.523 9.15954 857.821 8.46167 856.957 8.46167Z" fill="url(#paint43_linear)"/>
<path d="M871.551 8.46167H864.594C863.729 8.46167 863.028 9.15954 863.028 10.0204V20.5169C863.028 21.3778 863.729 22.0756 864.594 22.0756H871.551C872.416 22.0756 873.117 21.3778 873.117 20.5169V10.0204C873.117 9.15954 872.416 8.46167 871.551 8.46167Z" fill="url(#paint44_linear)"/>
<path d="M827.759 8.46167H820.801C819.937 8.46167 819.236 9.15954 819.236 10.0204V20.5169C819.236 21.3778 819.937 22.0756 820.801 22.0756H827.759C828.624 22.0756 829.325 21.3778 829.325 20.5169V10.0204C829.325 9.15954 828.624 8.46167 827.759 8.46167Z" fill="url(#paint45_linear)"/>
<path d="M842.354 8.46167H835.396C834.531 8.46167 833.83 9.15954 833.83 10.0204V20.5169C833.83 21.3778 834.531 22.0756 835.396 22.0756H842.354C843.219 22.0756 843.92 21.3778 843.92 20.5169V10.0204C843.92 9.15954 843.219 8.46167 842.354 8.46167Z" fill="url(#paint46_linear)"/>
<path d="M813.165 8.46167H806.685C805.82 8.46167 805.119 9.15954 805.119 10.0204V20.5169C805.119 21.3778 805.82 22.0756 806.685 22.0756H813.165C814.03 22.0756 814.731 21.3778 814.731 20.5169V10.0204C814.731 9.15954 814.03 8.46167 813.165 8.46167Z" fill="url(#paint47_linear)"/>
<path d="M898.967 8.46167H882.922C880.919 8.46167 879.296 10.0774 879.296 12.0706V36.2885C879.296 38.2817 880.919 39.8974 882.922 39.8974H898.967C900.969 39.8974 902.592 38.2817 902.592 36.2885V12.0706C902.592 10.0774 900.969 8.46167 898.967 8.46167Z" fill="url(#paint48_linear)"/>
<path d="M762.122 22.0756H769.08C769.944 22.0756 770.646 21.3778 770.646 20.5169V10.0204C770.646 9.15954 769.944 8.46167 769.08 8.46167H762.122C761.257 8.46167 760.556 9.15954 760.556 10.0204V20.5169C760.556 21.3778 761.257 22.0756 762.122 22.0756Z" fill="url(#paint49_linear)"/>
<path d="M747.527 22.0756H754.485C755.35 22.0756 756.051 21.3778 756.051 20.5169V10.0204C756.051 9.15954 755.35 8.46167 754.485 8.46167H747.527C746.662 8.46167 745.961 9.15954 745.961 10.0204V20.5169C745.961 21.3778 746.662 22.0756 747.527 22.0756Z" fill="url(#paint50_linear)"/>
<path d="M791.319 22.0756H798.277C799.142 22.0756 799.843 21.3778 799.843 20.5169V10.0204C799.843 9.15954 799.142 8.46167 798.277 8.46167H791.319C790.454 8.46167 789.753 9.15954 789.753 10.0204V20.5169C789.753 21.3778 790.454 22.0756 791.319 22.0756Z" fill="url(#paint51_linear)"/>
<path d="M776.716 22.0756H783.674C784.539 22.0756 785.24 21.3778 785.24 20.5169V10.0204C785.24 9.15954 784.539 8.46167 783.674 8.46167H776.716C775.852 8.46167 775.15 9.15954 775.15 10.0204V20.5169C775.15 21.3778 775.852 22.0756 776.716 22.0756Z" fill="url(#paint52_linear)"/>
<path d="M720.111 39.8974H736.156C738.159 39.8974 739.782 38.2816 739.782 36.2885V12.0706C739.782 10.0774 738.159 8.46167 736.156 8.46167H720.111C718.109 8.46167 716.486 10.0774 716.486 12.0706V36.2885C716.486 38.2816 718.109 39.8974 720.111 39.8974Z" fill="url(#paint53_linear)"/>
<path d="M1055.17 8.46167H1048.21C1047.34 8.46167 1046.64 9.15954 1046.64 10.0204V20.5169C1046.64 21.3778 1047.34 22.0756 1048.21 22.0756H1055.17C1056.03 22.0756 1056.73 21.3778 1056.73 20.5169V10.0204C1056.73 9.15954 1056.03 8.46167 1055.17 8.46167Z" fill="url(#paint54_linear)"/>
<path d="M1069.76 8.46167H1062.8C1061.94 8.46167 1061.24 9.15954 1061.24 10.0204V20.5169C1061.24 21.3778 1061.94 22.0756 1062.8 22.0756H1069.76C1070.63 22.0756 1071.33 21.3778 1071.33 20.5169V10.0204C1071.33 9.15954 1070.63 8.46167 1069.76 8.46167Z" fill="url(#paint55_linear)"/>
<path d="M1025.97 8.46167H1019.01C1018.15 8.46167 1017.45 9.15954 1017.45 10.0204V20.5169C1017.45 21.3778 1018.15 22.0756 1019.01 22.0756H1025.97C1026.83 22.0756 1027.54 21.3778 1027.54 20.5169V10.0204C1027.54 9.15954 1026.83 8.46167 1025.97 8.46167Z" fill="url(#paint56_linear)"/>
<path d="M1040.56 8.46167H1033.61C1032.74 8.46167 1032.04 9.15954 1032.04 10.0204V20.5169C1032.04 21.3778 1032.74 22.0756 1033.61 22.0756H1040.56C1041.43 22.0756 1042.13 21.3778 1042.13 20.5169V10.0204C1042.13 9.15954 1041.43 8.46167 1040.56 8.46167Z" fill="url(#paint57_linear)"/>
<path d="M1011.37 8.46167H1004.89C1004.03 8.46167 1003.33 9.15954 1003.33 10.0204V20.5169C1003.33 21.3778 1004.03 22.0756 1004.89 22.0756H1011.37C1012.24 22.0756 1012.94 21.3778 1012.94 20.5169V10.0204C1012.94 9.15954 1012.24 8.46167 1011.37 8.46167Z" fill="url(#paint58_linear)"/>
<path d="M1097.18 8.46167H1081.13C1079.13 8.46167 1077.51 10.0774 1077.51 12.0706V36.2885C1077.51 38.2817 1079.13 39.8974 1081.13 39.8974H1097.18C1099.18 39.8974 1100.8 38.2817 1100.8 36.2885V12.0706C1100.8 10.0774 1099.18 8.46167 1097.18 8.46167Z" fill="url(#paint59_linear)"/>
<path d="M960.33 22.0756H967.29C968.15 22.0756 968.86 21.3778 968.86 20.5169V10.0204C968.86 9.15954 968.15 8.46167 967.29 8.46167H960.33C959.47 8.46167 958.77 9.15954 958.77 10.0204V20.5169C958.77 21.3778 959.47 22.0756 960.33 22.0756Z" fill="url(#paint60_linear)"/>
<path d="M945.736 22.0756H952.69C953.56 22.0756 954.26 21.3778 954.26 20.5169V10.0204C954.26 9.15954 953.56 8.46167 952.69 8.46167H945.736C944.872 8.46167 944.171 9.15954 944.171 10.0204V20.5169C944.171 21.3778 944.872 22.0756 945.736 22.0756Z" fill="url(#paint61_linear)"/>
<path d="M989.53 22.0756H996.49C997.35 22.0756 998.05 21.3778 998.05 20.5169V10.0204C998.05 9.15954 997.35 8.46167 996.49 8.46167H989.53C988.66 8.46167 987.96 9.15954 987.96 10.0204V20.5169C987.96 21.3778 988.66 22.0756 989.53 22.0756Z" fill="url(#paint62_linear)"/>
<path d="M974.93 22.0756H981.89C982.76 22.0756 983.46 21.3778 983.46 20.5169V10.0204C983.46 9.15954 982.76 8.46167 981.89 8.46167H974.93C974.07 8.46167 973.37 9.15954 973.37 10.0204V20.5169C973.37 21.3778 974.07 22.0756 974.93 22.0756Z" fill="url(#paint63_linear)"/>
<path d="M918.321 39.8974H934.366C936.368 39.8974 937.992 38.2816 937.992 36.2885V12.0706C937.992 10.0774 936.368 8.46167 934.366 8.46167H918.321C916.319 8.46167 914.696 10.0774 914.696 12.0706V36.2885C914.696 38.2816 916.319 39.8974 918.321 39.8974Z" fill="url(#paint64_linear)"/>
<path d="M1246.43 22.0756H1253.39C1254.26 22.0756 1254.96 21.3778 1254.96 20.5169V10.0204C1254.96 9.15954 1254.26 8.46167 1253.39 8.46167H1246.43C1245.57 8.46167 1244.87 9.15954 1244.87 10.0204V20.5169C1244.87 21.3778 1245.57 22.0756 1246.43 22.0756Z" fill="url(#paint65_linear)"/>
<path d="M1231.84 22.0756H1238.8C1239.66 22.0756 1240.36 21.3778 1240.36 20.5169V10.0204C1240.36 9.15954 1239.66 8.46167 1238.8 8.46167H1231.84C1230.97 8.46167 1230.27 9.15954 1230.27 10.0204V20.5169C1230.27 21.3778 1230.97 22.0756 1231.84 22.0756Z" fill="url(#paint66_linear)"/>
<path d="M1264.89 39.8974H1280.93C1282.93 39.8974 1284.56 38.2816 1284.56 36.2885V12.0706C1284.56 10.0774 1282.93 8.46167 1280.93 8.46167H1264.89C1262.88 8.46167 1261.26 10.0774 1261.26 12.0706V36.2885C1261.26 38.2816 1262.88 39.8974 1264.89 39.8974Z" fill="url(#paint67_linear)"/>
<path d="M1158.86 22.0756H1165.82C1166.68 22.0756 1167.38 21.3778 1167.38 20.5169V10.0204C1167.38 9.15954 1166.68 8.46167 1165.82 8.46167H1158.86C1157.99 8.46167 1157.29 9.15954 1157.29 10.0204V20.5169C1157.29 21.3778 1157.99 22.0756 1158.86 22.0756Z" fill="url(#paint68_linear)"/>
<path d="M1144.26 22.0756H1151.22C1152.09 22.0756 1152.79 21.3778 1152.79 20.5169V10.0204C1152.79 9.15954 1152.09 8.46167 1151.22 8.46167H1144.26C1143.4 8.46167 1142.7 9.15954 1142.7 10.0204V20.5169C1142.7 21.3778 1143.4 22.0756 1144.26 22.0756Z" fill="url(#paint69_linear)"/>
<path d="M1188.05 22.0756H1195C1195.87 22.0756 1196.57 21.3778 1196.57 20.5169V10.0204C1196.57 9.15954 1195.87 8.46167 1195 8.46167H1188.05C1187.18 8.46167 1186.48 9.15954 1186.48 10.0204V20.5169C1186.48 21.3778 1187.18 22.0756 1188.05 22.0756Z" fill="url(#paint70_linear)"/>
<path d="M1173.44 22.0756H1180.4C1181.27 22.0756 1181.97 21.3778 1181.97 20.5169V10.0204C1181.97 9.15954 1181.27 8.46167 1180.4 8.46167H1173.44C1172.58 8.46167 1171.88 9.15954 1171.88 10.0204V20.5169C1171.88 21.3778 1172.58 22.0756 1173.44 22.0756Z" fill="url(#paint71_linear)"/>
<path d="M1217.24 22.0756H1224.19C1225.06 22.0756 1225.76 21.3778 1225.76 20.5169V10.0204C1225.76 9.15954 1225.06 8.46167 1224.19 8.46167H1217.24C1216.37 8.46167 1215.67 9.15954 1215.67 10.0204V20.5169C1215.67 21.3778 1216.37 22.0756 1217.24 22.0756Z" fill="url(#paint72_linear)"/>
<path d="M1202.64 22.0756H1209.6C1210.46 22.0756 1211.17 21.3778 1211.17 20.5169V10.0204C1211.17 9.15954 1210.46 8.46167 1209.6 8.46167H1202.64C1201.78 8.46167 1201.08 9.15954 1201.08 10.0204V20.5169C1201.08 21.3778 1201.78 22.0756 1202.64 22.0756Z" fill="url(#paint73_linear)"/>
<path d="M1116.83 39.8974H1132.88C1134.88 39.8974 1136.5 38.2816 1136.5 36.2885V12.0706C1136.5 10.0774 1134.88 8.46167 1132.88 8.46167H1116.83C1114.83 8.46167 1113.21 10.0774 1113.21 12.0706V36.2885C1113.21 38.2816 1114.83 39.8974 1116.83 39.8974Z" fill="url(#paint74_linear)"/>
<path d="M148.663 8.46167H148.053V39.8974H148.663V8.46167Z" fill="#010E33"/>
<path d="M296.716 8.46167H296.107V39.8974H296.716V8.46167Z" fill="#010E33"/>
<path d="M495.034 8.46167H494.425V39.8974H495.034V8.46167Z" fill="#010E33"/>
<path d="M330.997 39.8974H331.607V8.46167H330.997V39.8974Z" fill="#010E33"/>
<path d="M693.529 8.46167H692.92V39.8974H693.529V8.46167Z" fill="#010E33"/>
<path d="M529.492 39.8974H530.102V8.46167H529.492V39.8974Z" fill="#010E33"/>
<path d="M891.554 8.46167H890.944V39.8974H891.554V8.46167Z" fill="#010E33"/>
<path d="M727.517 39.8974H728.126V8.46167H727.517V39.8974Z" fill="#010E33"/>
<path d="M1089.76 8.46167H1089.15V39.8974H1089.76V8.46167Z" fill="#010E33"/>
<path d="M925.734 39.8974H926.344V8.46167H925.734V39.8974Z" fill="#010E33"/>
<path d="M1272.31 39.8974H1272.92V8.46167H1272.31V39.8974Z" fill="#010E33"/>
<path d="M1124.25 39.8974H1124.86V8.46167H1124.25V39.8974Z" fill="#010E33"/>
<path d="M1292.49 9.21417V20.5169C1292.49 21.267 1292.78 21.9865 1293.32 22.5177C1293.85 23.0488 1294.57 23.3482 1295.32 23.3503H1324.21C1321.84 17.338 1314.44 10.9649 1306.46 6.40384H1295.32C1294.57 6.40786 1293.85 6.70499 1293.32 7.23094C1292.79 7.7569 1292.49 8.46937 1292.49 9.21417Z" fill="url(#paint75_linear)"/>
<path d="M128.506 9.21418V20.5169C128.506 21.267 128.207 21.9865 127.675 22.5177C127.143 23.0488 126.421 23.3482 125.667 23.3503H96.763C99.131 17.338 106.529 10.9649 114.505 6.40385H125.652C126.404 6.4018 127.127 6.69625 127.662 7.22286C128.196 7.74946 128.5 8.46539 128.506 9.21418Z" fill="url(#paint76_linear)"/>
<path style="mix-blend-mode:screen" opacity="0.5" d="M95.969 31.1209L83.835 39.8897H-52L95.969 26.6136V31.1209Z" fill="url(#paint77_linear)"/>
</g>
<defs>
<linearGradient id="paint0_linear" x1="204.728" y1="42.1933" x2="204.728" y2="-2.47783e-05" gradientUnits="userSpaceOnUse">
<stop stop-color="white"/>
<stop offset="0.33" stop-color="#56FFFF"/>
<stop offset="0.5" stop-color="#00FFFF"/>
<stop offset="0.79" stop-color="#1B87BF"/>
<stop offset="1" stop-color="#2E3192"/>
</linearGradient>
<linearGradient id="paint1_linear" x1="119057" y1="2320.63" x2="119057" y2="0" gradientUnits="userSpaceOnUse">
<stop stop-color="white"/>
<stop offset="0.33" stop-color="#56FFFF"/>
<stop offset="0.5" stop-color="#00FFFF"/>
<stop offset="0.79" stop-color="#1B87BF"/>
<stop offset="1" stop-color="#2E3192"/>
</linearGradient>
<linearGradient id="paint2_linear" x1="413.383" y1="42.1933" x2="413.383" y2="0.0153505" gradientUnits="userSpaceOnUse">
<stop stop-color="white"/>
<stop offset="0.33" stop-color="#56FFFF"/>
<stop offset="0.5" stop-color="#00FFFF"/>
<stop offset="0.79" stop-color="#1B87BF"/>
<stop offset="1" stop-color="#2E3192"/>
</linearGradient>
<linearGradient id="paint3_linear" x1="169901" y1="2320.63" x2="169901" y2="0" gradientUnits="userSpaceOnUse">
<stop stop-color="white"/>
<stop offset="0.33" stop-color="#56FFFF"/>
<stop offset="0.5" stop-color="#00FFFF"/>
<stop offset="0.79" stop-color="#1B87BF"/>
<stop offset="1" stop-color="#2E3192"/>
</linearGradient>
<linearGradient id="paint4_linear" x1="611.886" y1="42.1933" x2="611.886" y2="0.0153505" gradientUnits="userSpaceOnUse">
<stop stop-color="white"/>
<stop offset="0.33" stop-color="#56FFFF"/>
<stop offset="0.5" stop-color="#00FFFF"/>
<stop offset="0.79" stop-color="#1B87BF"/>
<stop offset="1" stop-color="#2E3192"/>
</linearGradient>
<linearGradient id="paint5_linear" x1="220623" y1="2320.63" x2="220623" y2="0" gradientUnits="userSpaceOnUse">
<stop stop-color="white"/>
<stop offset="0.33" stop-color="#56FFFF"/>
<stop offset="0.5" stop-color="#00FFFF"/>
<stop offset="0.79" stop-color="#1B87BF"/>
<stop offset="1" stop-color="#2E3192"/>
</linearGradient>
<linearGradient id="paint6_linear" x1="809.911" y1="42.1933" x2="809.911" y2="0.0153505" gradientUnits="userSpaceOnUse">
<stop stop-color="white"/>
<stop offset="0.33" stop-color="#56FFFF"/>
<stop offset="0.5" stop-color="#00FFFF"/>
<stop offset="0.79" stop-color="#1B87BF"/>
<stop offset="1" stop-color="#2E3192"/>
</linearGradient>
<linearGradient id="paint7_linear" x1="271392" y1="2318.52" x2="271392" y2="0" gradientUnits="userSpaceOnUse">
<stop stop-color="white"/>
<stop offset="0.33" stop-color="#56FFFF"/>
<stop offset="0.5" stop-color="#00FFFF"/>
<stop offset="0.79" stop-color="#1B87BF"/>
<stop offset="1" stop-color="#2E3192"/>
</linearGradient>
<linearGradient id="paint8_linear" x1="1008.12" y1="42.1549" x2="1008.12" y2="0.0153365" gradientUnits="userSpaceOnUse">
<stop stop-color="white"/>
<stop offset="0.33" stop-color="#56FFFF"/>
<stop offset="0.5" stop-color="#00FFFF"/>
<stop offset="0.79" stop-color="#1B87BF"/>
<stop offset="1" stop-color="#2E3192"/>
</linearGradient>
<linearGradient id="paint9_linear" x1="358739" y1="2321.46" x2="358739" y2="-0.0153809" gradientUnits="userSpaceOnUse">
<stop stop-color="white"/>
<stop offset="0.33" stop-color="#56FFFF"/>
<stop offset="0.5" stop-color="#00FFFF"/>
<stop offset="0.79" stop-color="#1B87BF"/>
<stop offset="1" stop-color="#2E3192"/>
</linearGradient>
<linearGradient id="paint10_linear" x1="1216.22" y1="42.1933" x2="1216.22" y2="-2.47727e-05" gradientUnits="userSpaceOnUse">
<stop stop-color="white"/>
<stop offset="0.33" stop-color="#56FFFF"/>
<stop offset="0.5" stop-color="#00FFFF"/>
<stop offset="0.79" stop-color="#1B87BF"/>
<stop offset="1" stop-color="#2E3192"/>
</linearGradient>
<linearGradient id="paint11_linear" x1="171.056" y1="8.46167" x2="171.056" y2="22.0756" gradientUnits="userSpaceOnUse">
<stop stop-color="#662D91"/>
<stop offset="1" stop-color="#15307A"/>
</linearGradient>
<linearGradient id="paint12_linear" x1="3289.08" y1="158.487" x2="3289.08" y2="399.863" gradientUnits="userSpaceOnUse">
<stop stop-color="#662D91"/>
<stop offset="1" stop-color="#15307A"/>
</linearGradient>
<linearGradient id="paint13_linear" x1="6178.02" y1="354.883" x2="6178.02" y2="1641.86" gradientUnits="userSpaceOnUse">
<stop stop-color="#662D91"/>
<stop offset="1" stop-color="#15307A"/>
</linearGradient>
<linearGradient id="paint14_linear" x1="4316.67" y1="158.487" x2="4316.67" y2="399.863" gradientUnits="userSpaceOnUse">
<stop stop-color="#662D91"/>
<stop offset="1" stop-color="#15307A"/>
</linearGradient>
<linearGradient id="paint15_linear" x1="4522.15" y1="158.487" x2="4522.15" y2="399.863" gradientUnits="userSpaceOnUse">
<stop stop-color="#662D91"/>
<stop offset="1" stop-color="#15307A"/>
</linearGradient>
<linearGradient id="paint16_linear" x1="3905.68" y1="158.487" x2="3905.68" y2="399.863" gradientUnits="userSpaceOnUse">
<stop stop-color="#662D91"/>
<stop offset="1" stop-color="#15307A"/>
</linearGradient>
<linearGradient id="paint17_linear" x1="4111.16" y1="158.487" x2="4111.16" y2="399.863" gradientUnits="userSpaceOnUse">
<stop stop-color="#662D91"/>
<stop offset="1" stop-color="#15307A"/>
</linearGradient>
<linearGradient id="paint18_linear" x1="3494.57" y1="158.487" x2="3494.57" y2="399.863" gradientUnits="userSpaceOnUse">
<stop stop-color="#662D91"/>
<stop offset="1" stop-color="#15307A"/>
</linearGradient>
<linearGradient id="paint19_linear" x1="3700.17" y1="158.487" x2="3700.17" y2="399.863" gradientUnits="userSpaceOnUse">
<stop stop-color="#662D91"/>
<stop offset="1" stop-color="#15307A"/>
</linearGradient>
<linearGradient id="paint20_linear" x1="10797.3" y1="354.883" x2="10797.3" y2="1641.86" gradientUnits="userSpaceOnUse">
<stop stop-color="#662D91"/>
<stop offset="1" stop-color="#15307A"/>
</linearGradient>
<linearGradient id="paint21_linear" x1="7108.96" y1="158.487" x2="7108.96" y2="399.863" gradientUnits="userSpaceOnUse">
<stop stop-color="#662D91"/>
<stop offset="1" stop-color="#15307A"/>
</linearGradient>
<linearGradient id="paint22_linear" x1="7314.5" y1="158.487" x2="7314.5" y2="399.863" gradientUnits="userSpaceOnUse">
<stop stop-color="#662D91"/>
<stop offset="1" stop-color="#15307A"/>
</linearGradient>
<linearGradient id="paint23_linear" x1="6697.97" y1="158.487" x2="6697.97" y2="399.863" gradientUnits="userSpaceOnUse">
<stop stop-color="#662D91"/>
<stop offset="1" stop-color="#15307A"/>
</linearGradient>
<linearGradient id="paint24_linear" x1="6903.46" y1="158.487" x2="6903.46" y2="399.863" gradientUnits="userSpaceOnUse">
<stop stop-color="#662D91"/>
<stop offset="1" stop-color="#15307A"/>
</linearGradient>
<linearGradient id="paint25_linear" x1="6207.43" y1="158.487" x2="6207.43" y2="399.863" gradientUnits="userSpaceOnUse">
<stop stop-color="#662D91"/>
<stop offset="1" stop-color="#15307A"/>
</linearGradient>
<linearGradient id="paint26_linear" x1="16984.8" y1="354.883" x2="16984.8" y2="1641.86" gradientUnits="userSpaceOnUse">
<stop stop-color="#662D91"/>
<stop offset="1" stop-color="#15307A"/>
</linearGradient>
<linearGradient id="paint27_linear" x1="5871.67" y1="158.487" x2="5871.67" y2="399.863" gradientUnits="userSpaceOnUse">
<stop stop-color="#662D91"/>
<stop offset="1" stop-color="#15307A"/>
</linearGradient>
<linearGradient id="paint28_linear" x1="5666.14" y1="158.487" x2="5666.14" y2="399.863" gradientUnits="userSpaceOnUse">
<stop stop-color="#662D91"/>
<stop offset="1" stop-color="#15307A"/>
</linearGradient>
<linearGradient id="paint29_linear" x1="6282.79" y1="158.487" x2="6282.79" y2="399.863" gradientUnits="userSpaceOnUse">
<stop stop-color="#662D91"/>
<stop offset="1" stop-color="#15307A"/>
</linearGradient>
<linearGradient id="paint30_linear" x1="6077.16" y1="158.487" x2="6077.16" y2="399.863" gradientUnits="userSpaceOnUse">
<stop stop-color="#662D91"/>
<stop offset="1" stop-color="#15307A"/>
</linearGradient>
<linearGradient id="paint31_linear" x1="11904.9" y1="354.883" x2="11904.9" y2="1641.86" gradientUnits="userSpaceOnUse">
<stop stop-color="#662D91"/>
<stop offset="1" stop-color="#15307A"/>
</linearGradient>
<linearGradient id="paint32_linear" x1="9903.93" y1="158.487" x2="9903.93" y2="399.863" gradientUnits="userSpaceOnUse">
<stop stop-color="#662D91"/>
<stop offset="1" stop-color="#15307A"/>
</linearGradient>
<linearGradient id="paint33_linear" x1="10109.4" y1="158.487" x2="10109.4" y2="399.863" gradientUnits="userSpaceOnUse">
<stop stop-color="#662D91"/>
<stop offset="1" stop-color="#15307A"/>
</linearGradient>
<linearGradient id="paint34_linear" x1="9492.83" y1="158.487" x2="9492.83" y2="399.863" gradientUnits="userSpaceOnUse">
<stop stop-color="#662D91"/>
<stop offset="1" stop-color="#15307A"/>
</linearGradient>
<linearGradient id="paint35_linear" x1="9698.22" y1="158.487" x2="9698.22" y2="399.863" gradientUnits="userSpaceOnUse">
<stop stop-color="#662D91"/>
<stop offset="1" stop-color="#15307A"/>
</linearGradient>
<linearGradient id="paint36_linear" x1="8879.35" y1="158.487" x2="8879.35" y2="399.863" gradientUnits="userSpaceOnUse">
<stop stop-color="#662D91"/>
<stop offset="1" stop-color="#15307A"/>
</linearGradient>
<linearGradient id="paint37_linear" x1="23177.8" y1="354.883" x2="23177.8" y2="1641.86" gradientUnits="userSpaceOnUse">
<stop stop-color="#662D91"/>
<stop offset="1" stop-color="#15307A"/>
</linearGradient>
<linearGradient id="paint38_linear" x1="8666.51" y1="158.487" x2="8666.51" y2="399.863" gradientUnits="userSpaceOnUse">
<stop stop-color="#662D91"/>
<stop offset="1" stop-color="#15307A"/>
</linearGradient>
<linearGradient id="paint39_linear" x1="8461.12" y1="158.487" x2="8461.12" y2="399.863" gradientUnits="userSpaceOnUse">
<stop stop-color="#662D91"/>
<stop offset="1" stop-color="#15307A"/>
</linearGradient>
<linearGradient id="paint40_linear" x1="9077.55" y1="158.487" x2="9077.55" y2="399.863" gradientUnits="userSpaceOnUse">
<stop stop-color="#662D91"/>
<stop offset="1" stop-color="#15307A"/>
</linearGradient>
<linearGradient id="paint41_linear" x1="8872.11" y1="158.487" x2="8872.11" y2="399.863" gradientUnits="userSpaceOnUse">
<stop stop-color="#662D91"/>
<stop offset="1" stop-color="#15307A"/>
</linearGradient>
<linearGradient id="paint42_linear" x1="18098" y1="354.883" x2="18098" y2="1641.86" gradientUnits="userSpaceOnUse">
<stop stop-color="#662D91"/>
<stop offset="1" stop-color="#15307A"/>
</linearGradient>
<linearGradient id="paint43_linear" x1="12692" y1="158.487" x2="12692" y2="399.863" gradientUnits="userSpaceOnUse">
<stop stop-color="#662D91"/>
<stop offset="1" stop-color="#15307A"/>
</linearGradient>
<linearGradient id="paint44_linear" x1="12897.6" y1="158.487" x2="12897.6" y2="399.863" gradientUnits="userSpaceOnUse">
<stop stop-color="#662D91"/>
<stop offset="1" stop-color="#15307A"/>
</linearGradient>
<linearGradient id="paint45_linear" x1="12280.9" y1="158.487" x2="12280.9" y2="399.863" gradientUnits="userSpaceOnUse">
<stop stop-color="#662D91"/>
<stop offset="1" stop-color="#15307A"/>
</linearGradient>
<linearGradient id="paint46_linear" x1="12486.6" y1="158.487" x2="12486.6" y2="399.863" gradientUnits="userSpaceOnUse">
<stop stop-color="#662D91"/>
<stop offset="1" stop-color="#15307A"/>
</linearGradient>
<linearGradient id="paint47_linear" x1="11544.6" y1="158.487" x2="11544.6" y2="399.863" gradientUnits="userSpaceOnUse">
<stop stop-color="#662D91"/>
<stop offset="1" stop-color="#15307A"/>
</linearGradient>
<linearGradient id="paint48_linear" x1="29356.2" y1="354.883" x2="29356.2" y2="1641.86" gradientUnits="userSpaceOnUse">
<stop stop-color="#662D91"/>
<stop offset="1" stop-color="#15307A"/>
</linearGradient>
<linearGradient id="paint49_linear" x1="11454.7" y1="158.487" x2="11454.7" y2="399.863" gradientUnits="userSpaceOnUse">
<stop stop-color="#662D91"/>
<stop offset="1" stop-color="#15307A"/>
</linearGradient>
<linearGradient id="paint50_linear" x1="11249.3" y1="158.487" x2="11249.3" y2="399.863" gradientUnits="userSpaceOnUse">
<stop stop-color="#662D91"/>
<stop offset="1" stop-color="#15307A"/>
</linearGradient>
<linearGradient id="paint51_linear" x1="11865.8" y1="158.487" x2="11865.8" y2="399.863" gradientUnits="userSpaceOnUse">
<stop stop-color="#662D91"/>
<stop offset="1" stop-color="#15307A"/>
</linearGradient>
<linearGradient id="paint52_linear" x1="11660.2" y1="158.487" x2="11660.2" y2="399.863" gradientUnits="userSpaceOnUse">
<stop stop-color="#662D91"/>
<stop offset="1" stop-color="#15307A"/>
</linearGradient>
<linearGradient id="paint53_linear" x1="24276.4" y1="354.883" x2="24276.4" y2="1641.86" gradientUnits="userSpaceOnUse">
<stop stop-color="#662D91"/>
<stop offset="1" stop-color="#15307A"/>
</linearGradient>
<linearGradient id="paint54_linear" x1="15483.1" y1="158.487" x2="15483.1" y2="399.863" gradientUnits="userSpaceOnUse">
<stop stop-color="#662D91"/>
<stop offset="1" stop-color="#15307A"/>
</linearGradient>
<linearGradient id="paint55_linear" x1="15688.2" y1="158.487" x2="15688.2" y2="399.863" gradientUnits="userSpaceOnUse">
<stop stop-color="#662D91"/>
<stop offset="1" stop-color="#15307A"/>
</linearGradient>
<linearGradient id="paint56_linear" x1="15071.7" y1="158.487" x2="15071.7" y2="399.863" gradientUnits="userSpaceOnUse">
<stop stop-color="#662D91"/>
<stop offset="1" stop-color="#15307A"/>
</linearGradient>
<linearGradient id="paint57_linear" x1="15277.4" y1="158.487" x2="15277.4" y2="399.863" gradientUnits="userSpaceOnUse">
<stop stop-color="#662D91"/>
<stop offset="1" stop-color="#15307A"/>
</linearGradient>
<linearGradient id="paint58_linear" x1="14212.8" y1="158.487" x2="14212.8" y2="399.863" gradientUnits="userSpaceOnUse">
<stop stop-color="#662D91"/>
<stop offset="1" stop-color="#15307A"/>
</linearGradient>
<linearGradient id="paint59_linear" x1="35540.3" y1="354.883" x2="35540.3" y2="1641.86" gradientUnits="userSpaceOnUse">
<stop stop-color="#662D91"/>
<stop offset="1" stop-color="#15307A"/>
</linearGradient>
<linearGradient id="paint60_linear" x1="14245.5" y1="158.487" x2="14245.5" y2="399.863" gradientUnits="userSpaceOnUse">
<stop stop-color="#662D91"/>
<stop offset="1" stop-color="#15307A"/>
</linearGradient>
<linearGradient id="paint61_linear" x1="14040.1" y1="158.487" x2="14040.1" y2="399.863" gradientUnits="userSpaceOnUse">
<stop stop-color="#662D91"/>
<stop offset="1" stop-color="#15307A"/>
</linearGradient>
<linearGradient id="paint62_linear" x1="14656.7" y1="158.487" x2="14656.7" y2="399.863" gradientUnits="userSpaceOnUse">
<stop stop-color="#662D91"/>
<stop offset="1" stop-color="#15307A"/>
</linearGradient>
<linearGradient id="paint63_linear" x1="14451.1" y1="158.487" x2="14451.1" y2="399.863" gradientUnits="userSpaceOnUse">
<stop stop-color="#662D91"/>
<stop offset="1" stop-color="#15307A"/>
</linearGradient>
<linearGradient id="paint64_linear" x1="30460.4" y1="354.883" x2="30460.4" y2="1641.86" gradientUnits="userSpaceOnUse">
<stop stop-color="#662D91"/>
<stop offset="1" stop-color="#15307A"/>
</linearGradient>
<linearGradient id="paint65_linear" x1="18273.7" y1="158.487" x2="18273.7" y2="399.863" gradientUnits="userSpaceOnUse">
<stop stop-color="#662D91"/>
<stop offset="1" stop-color="#15307A"/>
</linearGradient>
<linearGradient id="paint66_linear" x1="18068.2" y1="158.487" x2="18068.2" y2="399.863" gradientUnits="userSpaceOnUse">
<stop stop-color="#662D91"/>
<stop offset="1" stop-color="#15307A"/>
</linearGradient>
<linearGradient id="paint67_linear" x1="41274.1" y1="354.883" x2="41274.1" y2="1641.86" gradientUnits="userSpaceOnUse">
<stop stop-color="#662D91"/>
<stop offset="1" stop-color="#15307A"/>
</linearGradient>
<linearGradient id="paint68_linear" x1="17040.4" y1="158.487" x2="17040.4" y2="399.863" gradientUnits="userSpaceOnUse">
<stop stop-color="#662D91"/>
<stop offset="1" stop-color="#15307A"/>
</linearGradient>
<linearGradient id="paint69_linear" x1="16835.1" y1="158.487" x2="16835.1" y2="399.863" gradientUnits="userSpaceOnUse">
<stop stop-color="#662D91"/>
<stop offset="1" stop-color="#15307A"/>
</linearGradient>
<linearGradient id="paint70_linear" x1="17451.7" y1="158.487" x2="17451.7" y2="399.863" gradientUnits="userSpaceOnUse">
<stop stop-color="#662D91"/>
<stop offset="1" stop-color="#15307A"/>
</linearGradient>
<linearGradient id="paint71_linear" x1="17246.2" y1="158.487" x2="17246.2" y2="399.863" gradientUnits="userSpaceOnUse">
<stop stop-color="#662D91"/>
<stop offset="1" stop-color="#15307A"/>
</linearGradient>
<linearGradient id="paint72_linear" x1="17862.7" y1="158.487" x2="17862.7" y2="399.863" gradientUnits="userSpaceOnUse">
<stop stop-color="#662D91"/>
<stop offset="1" stop-color="#15307A"/>
</linearGradient>
<linearGradient id="paint73_linear" x1="17657.2" y1="158.487" x2="17657.2" y2="399.863" gradientUnits="userSpaceOnUse">
<stop stop-color="#662D91"/>
<stop offset="1" stop-color="#15307A"/>
</linearGradient>
<linearGradient id="paint74_linear" x1="36654.4" y1="354.883" x2="36654.4" y2="1641.86" gradientUnits="userSpaceOnUse">
<stop stop-color="#662D91"/>
<stop offset="1" stop-color="#15307A"/>
</linearGradient>
<linearGradient id="paint75_linear" x1="1322.93" y1="7.07187" x2="1287.02" y2="27.9626" gradientUnits="userSpaceOnUse">
<stop stop-color="#662D91"/>
<stop offset="1" stop-color="#2E3192"/>
</linearGradient>
<linearGradient id="paint76_linear" x1="103.428" y1="11.0263" x2="127.431" y2="22.5533" gradientUnits="userSpaceOnUse">
<stop stop-color="#662D91"/>
<stop offset="0.75" stop-color="#3D3092"/>
<stop offset="1" stop-color="#2E3192"/>
</linearGradient>
<linearGradient id="paint77_linear" x1="-30.6555" y1="60.3529" x2="132.58" y2="-12.0273" gradientUnits="userSpaceOnUse">
<stop/>
<stop offset="0.65" stop-color="#A900A9"/>
<stop offset="1" stop-color="#FF00FF"/>
</linearGradient>
<clipPath id="clip0">
<rect width="1377" height="47" fill="white" transform="translate(-52)"/>
</clipPath>
</defs>
</svg>
