<svg xmlns="http://www.w3.org/2000/svg" xmlns:xlink="http://www.w3.org/1999/xlink" viewBox="0 0 1800.5 520"><defs><style>.cls-1{isolation:isolate;}.cls-2{fill:#645f5c;}.cls-3{fill:#a18977;}.cls-4{fill:#bda08b;}.cls-5{opacity:0.17;fill:url(#linear-gradient);}.cls-27,.cls-28,.cls-29,.cls-30,.cls-43,.cls-44,.cls-5{mix-blend-mode:multiply;}.cls-6{fill:#c7a892;}.cls-7{fill:#decbb8;}.cls-8{fill:#8c7768;}.cls-9{fill:#ccad96;}.cls-10{fill:#71c4bc;}.cls-11{fill:#b5b6b8;}.cls-12{fill:#a3a4a6;}.cls-13{fill:#fcf9e6;}.cls-14{fill:#bebfc2;}.cls-15{fill:#595552;}.cls-16{fill:#8c8d8f;}.cls-17{fill:#7a685b;}.cls-18{fill:#ebe8d6;}.cls-19{fill:#8a847f;}.cls-20{fill:#81e0d7;}.cls-21{fill:#77cfc6;}.cls-22{fill:#73c7bf;}.cls-23{fill:#eabb71;}.cls-24{fill:#e0b36c;}.cls-25{fill:#8c8681;}.cls-26{fill:#d9b797;}.cls-27,.cls-29,.cls-30{opacity:0.47;}.cls-27{fill:url(#radial-gradient);}.cls-28,.cls-43,.cls-44{opacity:0.08;}.cls-28{fill:url(#linear-gradient-2);}.cls-29{fill:url(#radial-gradient-2);}.cls-30{fill:url(#radial-gradient-3);}.cls-31{fill:#ababa8;}.cls-32{fill:#999996;}.cls-33,.cls-34,.cls-35,.cls-36,.cls-37,.cls-38,.cls-39,.cls-40,.cls-41,.cls-42{opacity:0.11;mix-blend-mode:lighten;}.cls-33{fill:url(#linear-gradient-3);}.cls-34{fill:url(#linear-gradient-4);}.cls-35{fill:url(#linear-gradient-5);}.cls-36{fill:url(#linear-gradient-6);}.cls-37{fill:url(#linear-gradient-7);}.cls-38{fill:url(#linear-gradient-8);}.cls-39{fill:url(#linear-gradient-9);}.cls-40{fill:url(#linear-gradient-10);}.cls-41{fill:url(#linear-gradient-11);}.cls-42{fill:url(#linear-gradient-12);}.cls-43{fill:url(#linear-gradient-13);}.cls-44{fill:url(#linear-gradient-14);}</style><linearGradient id="linear-gradient" x1="709.03" y1="346.69" x2="745.65" y2="176.99" gradientUnits="userSpaceOnUse"><stop offset="0" stop-color="#fff"/><stop offset="1"/></linearGradient><radialGradient id="radial-gradient" cx="339.85" cy="361.56" r="23.84" gradientUnits="userSpaceOnUse"><stop offset="0"/><stop offset="1" stop-color="#fff"/></radialGradient><linearGradient id="linear-gradient-2" x1="339.78" y1="459.72" x2="339.78" y2="387.44" xlink:href="#linear-gradient"/><radialGradient id="radial-gradient-2" cx="1531.11" cy="361.56" r="23.84" xlink:href="#radial-gradient"/><radialGradient id="radial-gradient-3" cx="919.45" cy="361.56" r="23.84" xlink:href="#radial-gradient"/><linearGradient id="linear-gradient-3" x1="1626.41" y1="355.35" x2="1626.41" y2="724.18" xlink:href="#linear-gradient"/><linearGradient id="linear-gradient-4" x1="1687.47" y1="355.35" x2="1687.47" y2="724.18" xlink:href="#linear-gradient"/><linearGradient id="linear-gradient-5" x1="1075.37" y1="355.35" x2="1075.37" y2="724.18" xlink:href="#linear-gradient"/><linearGradient id="linear-gradient-6" x1="1152.94" y1="355.35" x2="1152.94" y2="724.18" xlink:href="#linear-gradient"/><linearGradient id="linear-gradient-7" x1="470.76" y1="355.35" x2="470.76" y2="724.18" xlink:href="#linear-gradient"/><linearGradient id="linear-gradient-8" x1="55.19" y1="355.35" x2="55.19" y2="724.18" xlink:href="#linear-gradient"/><linearGradient id="linear-gradient-9" x1="721.95" y1="355.35" x2="721.95" y2="724.18" xlink:href="#linear-gradient"/><linearGradient id="linear-gradient-10" x1="548.33" y1="355.35" x2="548.33" y2="724.18" xlink:href="#linear-gradient"/><linearGradient id="linear-gradient-11" x1="1463.04" y1="355.35" x2="1463.04" y2="724.18" xlink:href="#linear-gradient"/><linearGradient id="linear-gradient-12" x1="1490.21" y1="355.35" x2="1490.21" y2="724.18" xlink:href="#linear-gradient"/><linearGradient id="linear-gradient-13" x1="1531.99" y1="459.72" x2="1531.99" y2="387.44" xlink:href="#linear-gradient"/><linearGradient id="linear-gradient-14" x1="919.39" y1="459.72" x2="919.39" y2="387.44" xlink:href="#linear-gradient"/></defs><g class="cls-1"><g id="Layer_3" data-name="Layer 3"><rect class="cls-2" width="1800" height="520"/><rect class="cls-3" y="185.61" width="1800" height="172.38"/><rect class="cls-4" y="206.11" width="1800" height="151.88"/><rect class="cls-5" x="674.66" y="185.61" width="102.16" height="167.3"/><rect class="cls-6" x="674.66" y="291.24" width="1125.34" height="16.84"/></g><g id="Layer_6" data-name="Layer 6"><rect class="cls-7" x="1589.4" y="219.72" width="65.91" height="124.66"/><path class="cls-8" d="M1587.75,346H1657v-128h-69.21Zm3.3-124.66h62.61V342.73h-62.61Z"/><rect class="cls-9" x="959.24" y="219.72" width="65.91" height="124.66"/><path class="cls-8" d="M957.59,346h69.21v-128H957.59Zm3.3-124.66h62.61V342.73H960.89Z"/><rect class="cls-10" x="1499.04" y="219.57" width="65.91" height="124.66"/><path class="cls-8" d="M1497.39,345.88h69.21v-128h-69.21Zm3.3-124.66h62.61V342.59h-62.61Z"/><rect class="cls-11" x="1724.68" y="313.36" width="75.32" height="29.99"/><rect class="cls-12" x="1724.68" y="337.67" width="75.32" height="5.68"/><rect class="cls-3" x="1603.33" y="235.37" width="43.14" height="2.68"/><rect class="cls-3" x="1597.31" y="241.67" width="49.17" height="2.68"/><rect class="cls-3" x="1603.33" y="247.22" width="43.14" height="2.68"/><rect class="cls-3" x="1597.31" y="253.52" width="49.17" height="2.68"/><rect class="cls-3" x="1597.31" y="267.86" width="49.17" height="40.59"/><rect class="cls-8" x="1669.85" y="218.07" width="130.15" height="28.15"/><path class="cls-13" d="M1800.5,246.72H1669.35V217.57H1800.5Zm-130.15-1H1799.5V218.57H1670.35Z"/><rect class="cls-7" x="1681.04" y="224.65" width="14.47" height="13.4"/><rect class="cls-7" x="1711.38" y="224.65" width="88.62" height="2.81"/><rect class="cls-7" x="1705.15" y="230.53" width="94.85" height="2.81"/><rect class="cls-7" x="1705.15" y="236.64" width="94.85" height="2.81"/><rect class="cls-14" x="1722.25" y="324.21" width="2.43" height="28.7"/><rect class="cls-15" x="699.61" width="1.44" height="74.7"/><rect class="cls-15" x="776.51" width="1.44" height="74.7"/><rect class="cls-15" x="853.41" width="1.44" height="74.7"/><rect class="cls-15" x="930.31" width="1.44" height="74.7"/><rect class="cls-15" x="1007.21" width="1.44" height="74.7"/><rect class="cls-15" x="1084.1" width="1.44" height="74.7"/><rect class="cls-15" x="1161" width="1.44" height="74.7"/><rect class="cls-15" x="1237.9" width="1.44" height="74.7"/><rect class="cls-15" x="1314.8" width="1.44" height="74.7"/><rect class="cls-15" x="1391.7" width="1.44" height="74.7"/><rect class="cls-15" x="1468.59" width="1.44" height="74.7"/><rect class="cls-15" x="1545.49" width="1.44" height="74.7"/><rect class="cls-15" x="1622.39" width="1.44" height="74.7"/><rect class="cls-15" x="1699.29" width="1.44" height="74.7"/><rect class="cls-15" x="1776.19" width="1.44" height="74.7"/><rect class="cls-11" x="1697" y="324.21" width="8.34" height="28.7"/><rect class="cls-14" x="1697" y="324.21" width="8.34" height="2.05"/><path class="cls-16" d="M1697,334.89v5.28a2.64,2.64,0,1,0,0-5.28Z"/><rect class="cls-8" y="20.17" width="1800" height="5.54"/><path class="cls-17" d="M697.87,74.7h43.32V23.34H697.87Zm38.5-46.54V66.59L705,28.16ZM702.7,32.61l30.13,37.26H702.7Z"/><path class="cls-17" d="M736.35,74.7h43.32V23.34H736.35Zm38.5-4.83H744.72l30.13-37.26ZM741.18,28.16h31.33L741.18,66.59Z"/><path class="cls-17" d="M659.07,74.7h43.32V23.34H659.07Zm38.49-4.83H667.43l30.13-37.26ZM663.89,28.16h31.33L663.89,66.59Z"/><path class="cls-17" d="M774.84,74.7h43.32V23.34H774.84Zm38.49-46.54V66.59L782,28.16Zm-33.67,4.45L809.8,69.87H779.66Z"/><path class="cls-17" d="M813.32,74.7h43.32V23.34H813.32Zm38.5-4.83H821.68l30.14-37.26ZM818.14,28.16h31.34L818.14,66.59Z"/><path class="cls-17" d="M851.8,74.7h43.32V23.34H851.8Zm38.5-46.54V66.59L859,28.16Zm-33.67,4.45,30.13,37.26H856.63Z"/><path class="cls-17" d="M890.28,74.7H933.6V23.34H890.28Zm38.5-4.83H898.65l30.13-37.26ZM895.11,28.16h31.33L895.11,66.59Z"/><path class="cls-17" d="M928.77,74.7h43.32V23.34H928.77Zm38.49-46.54V66.59L935.93,28.16Zm-33.67,4.45,30.14,37.26H933.59Z"/><path class="cls-17" d="M967.25,74.7h43.32V23.34H967.25Zm38.5-4.83H975.61l30.14-37.26ZM972.07,28.16h31.34L972.07,66.59Z"/><path class="cls-17" d="M1005.73,74.7h43.32V23.34h-43.32Zm38.5-46.54V66.59L1012.9,28.16Zm-33.67,4.45,30.13,37.26h-30.13Z"/><path class="cls-17" d="M1044.22,74.7h43.31V23.34h-43.31Zm38.49-4.83h-30.13l30.13-37.26ZM1049,28.16h31.33L1049,66.59Z"/><path class="cls-17" d="M1082.7,74.7H1126V23.34H1082.7Zm38.49-46.54V66.59l-31.33-38.43Zm-33.67,4.45,30.14,37.26h-30.14Z"/><path class="cls-17" d="M1121.18,74.7h43.32V23.34h-43.32Zm38.5-4.83h-30.14l30.14-37.26ZM1126,28.16h31.34L1126,66.59Z"/><path class="cls-17" d="M1159.66,74.7H1203V23.34h-43.32Zm38.5-46.54V66.59l-31.33-38.43Zm-33.67,4.45,30.13,37.26h-30.13Z"/><path class="cls-17" d="M1198.15,74.7h43.31V23.34h-43.31Zm38.49-4.83h-30.13l30.13-37.26ZM1203,28.16h31.33L1203,66.59Z"/><path class="cls-17" d="M1236.63,74.7H1280V23.34h-43.32Zm38.49-46.54V66.59l-31.33-38.43Zm-33.67,4.45,30.14,37.26h-30.14Z"/><path class="cls-17" d="M1275.11,74.7h43.32V23.34h-43.32Zm38.5-4.83h-30.14l30.14-37.26Zm-33.68-41.71h31.34l-31.34,38.43Z"/><path class="cls-17" d="M1313.59,74.7h43.32V23.34h-43.32Zm38.5-46.54V66.59l-31.33-38.43Zm-33.67,4.45,30.13,37.26h-30.13Z"/><path class="cls-17" d="M1352.08,74.7h43.31V23.34h-43.31Zm38.49-4.83h-30.13l30.13-37.26ZM1356.9,28.16h31.33L1356.9,66.59Z"/><path class="cls-17" d="M1390.56,74.7h43.32V23.34h-43.32Zm38.49-46.54V66.59l-31.33-38.43Zm-33.67,4.45,30.14,37.26h-30.14Z"/><path class="cls-17" d="M1429,74.7h43.32V23.34H1429Zm38.5-4.83H1437.4l30.14-37.26Zm-33.68-41.71h31.34l-31.34,38.43Z"/><path class="cls-17" d="M1467.52,74.7h43.32V23.34h-43.32ZM1506,28.16V66.59l-31.33-38.43Zm-33.67,4.45,30.13,37.26h-30.13Z"/><path class="cls-17" d="M1506,74.7h43.32V23.34H1506Zm38.49-4.83h-30.13l30.13-37.26Zm-33.67-41.71h31.33l-31.33,38.43Z"/><path class="cls-17" d="M1544.49,74.7h43.32V23.34h-43.32ZM1583,28.16V66.59l-31.33-38.43Zm-33.67,4.45,30.14,37.26h-30.14Z"/><path class="cls-17" d="M1583,74.7h43.32V23.34H1583Zm38.5-4.83h-30.14l30.14-37.26Zm-33.68-41.71h31.34l-31.34,38.43Z"/><path class="cls-17" d="M1621.45,74.7h43.32V23.34h-43.32ZM1660,28.16V66.59l-31.33-38.43Zm-33.67,4.45,30.13,37.26h-30.13Z"/><path class="cls-17" d="M1659.94,74.7h43.32V23.34h-43.32Zm38.49-4.83H1668.3l30.13-37.26Zm-33.67-41.71h31.33l-31.33,38.43Z"/><path class="cls-17" d="M1698.42,74.7h43.32V23.34h-43.32Zm38.49-46.54V66.59l-31.33-38.43Zm-33.67,4.45,30.14,37.26h-30.14Z"/><path class="cls-17" d="M1736.9,74.7h43.32V23.34H1736.9Zm38.5-4.83h-30.14l30.14-37.26Zm-33.68-41.71h31.34l-31.34,38.43Z"/><polygon class="cls-17" points="1775.38 74.7 1800 74.7 1800 69.87 1780.21 69.87 1780.21 32.61 1800 57.09 1800 49.57 1782.55 28.16 1800 28.16 1800 23.34 1775.38 23.34 1775.38 74.7"/><rect class="cls-17" x="732.83" y="69.87" width="11.9" height="13.64"/><rect class="cls-17" x="809.8" y="69.87" width="11.9" height="13.64"/><rect class="cls-17" x="886.76" y="69.87" width="11.9" height="13.64"/><rect class="cls-17" x="963.73" y="69.87" width="11.9" height="13.64"/><rect class="cls-17" x="1040.69" y="69.87" width="11.9" height="13.64"/><rect class="cls-17" x="1117.66" y="69.87" width="11.9" height="13.64"/><rect class="cls-17" x="1194.62" y="69.87" width="11.9" height="13.64"/><rect class="cls-17" x="1271.59" y="69.87" width="11.9" height="13.64"/><rect class="cls-17" x="1348.55" y="69.87" width="11.9" height="13.64"/><rect class="cls-17" x="1425.52" y="69.87" width="11.9" height="13.64"/><rect class="cls-17" x="1502.48" y="69.87" width="11.9" height="13.64"/><rect class="cls-17" x="1579.45" y="69.87" width="11.9" height="13.64"/><rect class="cls-15" x="6.41" width="1.44" height="74.73"/><rect class="cls-15" x="83.31" width="1.44" height="74.73"/><rect class="cls-15" x="160.21" width="1.44" height="74.73"/><rect class="cls-15" x="237.1" width="1.44" height="74.73"/><rect class="cls-15" x="314" width="1.44" height="74.73"/><rect class="cls-15" x="390.9" width="1.44" height="74.73"/><rect class="cls-15" x="467.8" width="1.44" height="74.73"/><rect class="cls-15" x="544.7" width="1.44" height="74.73"/><rect class="cls-15" x="621.6" width="1.44" height="74.73"/><polygon class="cls-17" points="9.71 23.37 0 23.37 0 28.2 2.54 28.2 0 31.32 0 38.69 4.88 32.65 4.88 69.91 0 69.91 0 74.73 9.71 74.73 9.71 23.37"/><path class="cls-17" d="M4.87,74.73H48.19V23.37H4.87ZM43.37,28.2V66.62L12,28.2ZM9.69,32.65,39.83,69.91H9.69Z"/><path class="cls-17" d="M43.35,74.73H86.67V23.37H43.35Zm38.5-4.82H51.71L81.85,32.65ZM48.18,28.2H79.51L48.18,66.62Z"/><path class="cls-17" d="M81.84,74.73h43.31V23.37H81.84ZM120.33,28.2V66.62L89,28.2ZM86.66,32.65l30.13,37.26H86.66Z"/><path class="cls-17" d="M120.32,74.73h43.32V23.37H120.32Zm38.49-4.82H128.68l30.13-37.26ZM125.14,28.2h31.33L125.14,66.62Z"/><path class="cls-17" d="M158.8,74.73h43.32V23.37H158.8ZM197.3,28.2V66.62L166,28.2Zm-33.68,4.45,30.14,37.26H163.62Z"/><path class="cls-17" d="M197.28,74.73H240.6V23.37H197.28Zm38.5-4.82H205.64l30.14-37.26ZM202.11,28.2h31.33L202.11,66.62Z"/><path class="cls-17" d="M235.77,74.73h43.31V23.37H235.77ZM274.26,28.2V66.62L242.93,28.2Zm-33.67,4.45,30.13,37.26H240.59Z"/><path class="cls-17" d="M274.25,74.73h43.32V23.37H274.25Zm38.49-4.82H282.61l30.13-37.26ZM279.07,28.2H310.4L279.07,66.62Z"/><path class="cls-17" d="M312.73,74.73h43.32V23.37H312.73Zm38.5-46.53V66.62L319.89,28.2Zm-33.68,4.45,30.14,37.26H317.55Z"/><path class="cls-17" d="M351.21,74.73h43.32V23.37H351.21Zm38.5-4.82H359.57l30.14-37.26ZM356,28.2h31.33L356,66.62Z"/><path class="cls-17" d="M389.7,74.73H433V23.37H389.7ZM428.19,28.2V66.62L396.86,28.2Zm-33.67,4.45,30.13,37.26H394.52Z"/><path class="cls-17" d="M428.18,74.73H471.5V23.37H428.18Zm38.49-4.82H436.54l30.13-37.26ZM433,28.2h31.33L433,66.62Z"/><path class="cls-17" d="M466.66,74.73H510V23.37H466.66Zm38.5-46.53V66.62L473.82,28.2Zm-33.68,4.45,30.14,37.26H471.48Z"/><path class="cls-17" d="M505.14,74.73h43.32V23.37H505.14Zm38.5-4.82H513.5l30.14-37.26ZM510,28.2H541.3L510,66.62Z"/><path class="cls-17" d="M543.63,74.73H587V23.37H543.63ZM582.12,28.2V66.62L550.79,28.2Zm-33.67,4.45,30.13,37.26H548.45Z"/><path class="cls-17" d="M582.11,74.73h43.32V23.37H582.11Zm38.49-4.82H590.47L620.6,32.65ZM586.93,28.2h31.33L586.93,66.62Z"/><path class="cls-17" d="M620.59,74.73h43.32V23.37H620.59Zm38.5-46.53V66.62L627.75,28.2Zm-33.68,4.45,30.14,37.26H625.41Z"/><rect class="cls-17" x="39.83" y="69.91" width="11.9" height="13.64"/><rect class="cls-17" x="116.79" y="69.91" width="11.9" height="13.64"/><rect class="cls-17" x="193.76" y="69.91" width="11.9" height="13.64"/><rect class="cls-17" x="270.72" y="69.91" width="11.9" height="13.64"/><rect class="cls-17" x="347.69" y="69.91" width="11.9" height="13.64"/><rect class="cls-17" x="424.65" y="69.91" width="11.9" height="13.64"/><rect class="cls-17" x="501.62" y="69.91" width="11.9" height="13.64"/><rect class="cls-17" x="578.58" y="69.91" width="11.9" height="13.64"/><rect class="cls-17" x="655.55" y="69.91" width="11.9" height="13.64"/><rect class="cls-17" x="1656.41" y="69.87" width="11.9" height="13.64"/><rect class="cls-17" x="1733.38" y="69.87" width="11.9" height="13.64"/><rect class="cls-13" x="1412.99" y="83.52" width="345.57" height="4.81"/><rect class="cls-13" x="1027.62" y="83.52" width="345.57" height="4.81"/><rect class="cls-18" x="1412.99" y="87" width="345.57" height="4.81"/><rect class="cls-18" x="1027.62" y="87" width="345.57" height="4.81"/><rect class="cls-13" x="639.17" y="83.74" width="355.89" height="4.81"/><rect class="cls-18" x="639.17" y="87.22" width="355.89" height="4.81"/><rect class="cls-13" x="258.07" y="83.74" width="355.89" height="4.81"/><rect class="cls-18" x="258.07" y="87.22" width="355.89" height="4.81"/><rect class="cls-13" y="83.74" width="221.92" height="4.81"/><rect class="cls-18" y="87.22" width="221.92" height="4.81"/><rect class="cls-8" x="1319" y="206.11" width="29.55" height="146.8"/><rect class="cls-3" x="462.2" y="216.34" width="148.32" height="65.71"/><rect class="cls-3" x="189" y="212.8" width="85.32" height="38.28"/></g><g id="Layer_1" data-name="Layer 1"><rect class="cls-2" x="674.66" y="114.45" width="1125.34" height="33.21"/><rect class="cls-19" y="146.96" width="1800" height="25.58"/><rect class="cls-19" y="177.65" width="1800" height="7.97"/><rect class="cls-19" y="118.88" width="1800" height="13.11"/><rect class="cls-20" x="1576.33" y="137.81" width="208.38" height="35.1"/><rect class="cls-21" x="1615.32" y="137.81" width="169.31" height="17.55"/><rect class="cls-22" x="1576.33" y="137.81" width="39" height="35.1"/><path class="cls-13" d="M1575.52,173.73h210V137h-210Zm1.62-35.11h206.75v33.49H1577.14Z"/><rect class="cls-23" x="957.31" y="137.81" width="208.38" height="35.1"/><path class="cls-13" d="M956.5,173.73h210V137h-210Zm1.62-35.11h206.76v33.49H958.12Z"/><rect class="cls-20" x="362.21" y="141.42" width="140.65" height="28.15"/><path class="cls-13" d="M361.21,170.57H503.85V140.42H361.21Zm2-28.15H501.85v26.15H363.21Z"/><rect class="cls-13" x="373.39" y="148" width="14.47" height="13.4"/><rect class="cls-13" x="403.73" y="148" width="88.62" height="2.81"/><rect class="cls-13" x="397.5" y="153.88" width="94.85" height="2.81"/><rect class="cls-13" x="397.5" y="159.99" width="94.85" height="2.81"/><rect class="cls-24" x="1173.53" y="137" width="32.54" height="36.72"/><rect class="cls-13" x="1582.97" y="142.56" width="28.84" height="2.71"/><rect class="cls-13" x="1582.97" y="148.19" width="28.84" height="2.71"/><rect class="cls-13" x="1582.97" y="153.61" width="28.84" height="2.71"/><rect class="cls-13" x="1582.97" y="160.25" width="12.85" height="9.55"/><rect class="cls-13" x="1598.04" y="160.25" width="12.85" height="9.55"/><rect class="cls-13" x="963.73" y="142.46" width="97.47" height="2.76"/><rect class="cls-13" x="963.73" y="148.29" width="97.47" height="2.76"/><rect class="cls-13" x="963.73" y="154.12" width="43.48" height="2.76"/><rect class="cls-13" x="1097.74" y="154.65" width="43.48" height="2.76"/><rect class="cls-13" x="1097.74" y="159.48" width="43.48" height="2.76"/><rect class="cls-13" x="963.73" y="159.94" width="43.48" height="2.76"/><rect class="cls-13" x="963.73" y="165.77" width="43.48" height="2.76"/><rect class="cls-13" x="1097.74" y="142.46" width="62.3" height="9.53"/><rect class="cls-13" x="1176.94" y="141.46" width="25.72" height="2.78"/><rect class="cls-13" x="1180.66" y="147.66" width="21.99" height="2.78"/><rect class="cls-13" x="1176.94" y="153.86" width="25.72" height="2.78"/><rect class="cls-13" x="1180.66" y="160.06" width="21.99" height="2.78"/><rect class="cls-13" x="1176.94" y="166.26" width="21.3" height="2.78"/></g><g id="Layer_4" data-name="Layer 4"><rect class="cls-25" y="352.91" width="1800" height="167.09"/><rect class="cls-26" y="357.99" width="1800" height="4.51"/><rect class="cls-27" x="320.28" y="352.91" width="39" height="46.64"/><rect class="cls-28" x="328.02" y="389.03" width="23.53" height="130.97"/><rect class="cls-26" y="367.72" width="1800" height="13.29"/><rect class="cls-26" y="439.25" width="1800" height="4.51"/><rect class="cls-26" y="448.98" width="1800" height="13.29"/><rect class="cls-29" x="1511.55" y="352.91" width="39" height="46.64"/><rect class="cls-30" x="899.89" y="352.91" width="39" height="46.64"/><rect class="cls-31" x="1515.81" y="131.99" width="32.36" height="29.28"/><rect class="cls-31" x="1520.23" y="161.27" width="23.53" height="227.76"/><rect class="cls-32" x="1520.23" y="161.27" width="23.53" height="9.44"/><rect class="cls-32" x="1515.81" y="131.99" width="32.36" height="6.83"/><rect class="cls-31" x="903.21" y="131.05" width="32.36" height="29.38"/><rect class="cls-31" x="907.62" y="160.44" width="23.53" height="228.59"/><rect class="cls-32" x="907.62" y="160.44" width="23.53" height="9.48"/><rect class="cls-32" x="903.21" y="131.05" width="32.36" height="6.86"/><rect class="cls-31" x="323.6" y="131.52" width="32.36" height="29.38"/><rect class="cls-31" x="328.02" y="160.91" width="23.53" height="228.59"/><rect class="cls-32" x="328.02" y="160.91" width="23.53" height="9.48"/><rect class="cls-32" x="323.6" y="131.52" width="32.36" height="6.86"/><rect class="cls-33" x="1582.97" y="352.91" width="86.88" height="167.09"/><rect class="cls-34" x="1677.44" y="352.91" width="20.06" height="167.09"/><rect class="cls-35" x="1020.18" y="352.91" width="110.38" height="167.09"/><rect class="cls-36" x="1140.2" y="352.91" width="25.48" height="167.09"/><rect class="cls-37" x="415.57" y="352.91" width="110.38" height="167.09"/><rect class="cls-38" y="352.91" width="110.38" height="167.09"/><rect class="cls-39" x="666.76" y="352.91" width="110.38" height="167.09"/><rect class="cls-40" x="535.59" y="352.91" width="25.48" height="167.09"/><rect class="cls-41" x="1443.71" y="352.91" width="38.67" height="167.09"/><rect class="cls-42" x="1485.75" y="352.91" width="8.93" height="167.09"/><rect class="cls-43" x="1520.22" y="389.03" width="23.53" height="130.97"/><rect class="cls-44" x="907.62" y="389.03" width="23.53" height="130.97"/></g></g></svg>