<svg xmlns="http://www.w3.org/2000/svg" viewBox="0 0 1330.82 469.03"><defs><style>.cls-1{fill:#3daed1;}.cls-2{fill:#3393aa;}.cls-3{opacity:0.12;}.cls-4,.cls-5,.cls-6,.cls-7{fill:#fff;}.cls-5{opacity:0.11;}.cls-6{opacity:0.33;}.cls-7{opacity:0.42;}</style></defs><g id="Layer_2" data-name="Layer 2"><g id="Layer_2-2" data-name="Layer 2"><rect class="cls-1" width="1330.82" height="469.03"/><path class="cls-2" d="M1330.82,390.48c-41.43.93-82.67,7-124.07,9.64-211.56,13.6-423.12-61.5-633.5-35.33-60.6,7.55-120,23.41-180.63,30.43-79.26,9.17-159.39,3.1-239-2.17C102.76,389.68,49.14,387.36,0,398.11V469H1330.82Z"/><g class="cls-3"><path class="cls-4" d="M211.94,282c-4.29-1.11-8.57-2.29-12.85-3.59A117.31,117.31,0,0,0,211.94,282Z"/><path class="cls-4" d="M1330.82,207.61c-31.27,3.51-63.24,12.37-94.15,18a441,441,0,0,1-165.89-1.41C1009.84,212,945.53,187,888,210.54c38.81-50.34,110.13-61.88,173.58-58.17s127.6,18.63,189.86,5.82c-65-3.54-127.28-26.1-191-39.66s-133.61-17.26-190.54,14.34c92.59-69.74,220-70.92,334-49.89,42.24,7.79,84.33,18.23,126.93,22.57V63.37C1162.38,54.06,990.43,0,822,22.31,739.66,33.22,660.54,62.2,578.19,72.85c-154.58,20-310.05-25.44-465.92-25.4-28.34,0-73.43,0-112.27,9.33v170.3c25.25-8.2,52-12.87,78.27-15,65.43-5.21,131.66,2.39,196.66-6.72,56.67-8,110.82-28.38,166.87-39.94S559,152,609.38,179.21a543.25,543.25,0,0,0-211.62,49.53C338.12,256.23,274.3,295.62,211.94,282c147.49,37.9,302-37.5,455.56-44.08,171.29-7.35,340.68,71.65,510.22,46.18,47.23-7.09,93.45-22.25,141.2-23.13,4-.07,7.93-.05,11.9,0Z"/></g><path class="cls-5" d="M1330.82,305c-94.46,51.72-212.91,43.17-319.42,19.93-113.37-24.75-226.51-64-342.21-55-119.8,9.29-232.73,70-352.89,68.41-88.41-1.14-180.55-35.6-262.51-2.44,53.25-61.9,161.86-45.49,216.68-106C186.9,266.47,85.05,230.79,0,259.18V371.24a444.51,444.51,0,0,1,145.2-12.8c58.41,4.57,115.87,20.72,174.46,20,103-1.31,198.46-54.34,300.55-68,192.53-25.82,384.41,89.89,576.16,58.81,44.7-7.24,90.37-22.34,134.45-17.34Z"/><path class="cls-6" d="M673.68,108.62c-27.19,2.77-54.62.78-81.95.35-107.82-1.68-215.63,21.06-323,10.85-49-4.66-97.09-16.27-146.16-20.36-32.89-2.74-73.89-6.53-103,11.93A147.48,147.48,0,0,0,0,127.13v40.59C21.35,166,53.82,154,63.58,152.14c43.71-8.39,88.33-13.55,132.87-10.44,35.83,2.5,71.18,10.27,107.06,11.64,60.25,2.3,119.53-13.47,179.3-21.42A694.83,694.83,0,0,1,611,126.8c29.55,1.55,59.34,5,88.59.52,56.13-8.55,105.25-45.35,161.63-52C797.7,70.06,737.12,102.17,673.68,108.62Z"/><path class="cls-6" d="M625.85,220.87c-1-.29-2-.57-3-.88C623.83,220.3,624.84,220.59,625.85,220.87Z"/><path class="cls-6" d="M1279,230.64A573.94,573.94,0,0,1,981,241.52c-56-13-111.18-34.59-168.68-33.43-62.73,1.28-126.3,29.59-186.42,12.78a267.81,267.81,0,0,0,97.65,9.77c31-2.65,61.64-10.72,92.72-9.45,32.78,1.34,64.12,13,95.21,23.44,84.27,28.37,174.11,49.23,261.74,34.18,51.34-8.81,105.84-29.52,157.26-21.12V225.25C1313.86,219.45,1295.79,225.44,1279,230.64Z"/><circle class="cls-7" cx="291.48" cy="112.97" r="26.34" transform="translate(133.64 382.8) rotate(-80.86)"/><circle class="cls-7" cx="127.51" cy="245.95" r="26.34" transform="translate(-141.33 312.82) rotate(-76.56)"/><path class="cls-7" d="M361.4,77.36a17.15,17.15,0,1,1-17.15-17.15A17.15,17.15,0,0,1,361.4,77.36Z"/><path class="cls-7" d="M291.48,34.09A17.15,17.15,0,1,1,274.34,17,17.14,17.14,0,0,1,291.48,34.09Z"/><path class="cls-7" d="M1022.67,167.82a17.15,17.15,0,1,1-17.14-17.14A17.14,17.14,0,0,1,1022.67,167.82Z"/><path class="cls-7" d="M1081.78,133.54a17.15,17.15,0,1,1-17.15-17.15A17.15,17.15,0,0,1,1081.78,133.54Z"/><path class="cls-7" d="M1012.43,104.07a17.15,17.15,0,1,1-17.15-17.14A17.14,17.14,0,0,1,1012.43,104.07Z"/><path class="cls-7" d="M1224.06,234.51a17.15,17.15,0,1,1-17.14-17.14A17.14,17.14,0,0,1,1224.06,234.51Z"/><path class="cls-7" d="M1253.33,215.19a14.64,14.64,0,1,1-14.63-14.63A14.63,14.63,0,0,1,1253.33,215.19Z"/><path class="cls-2" d="M187.18,378.5c-.78-18.52,12.21-37.71,4.4-54.53-4.72-10.17-15.69-15.76-22.8-24.44a38.26,38.26,0,0,1-8-30.2c1.64-9.73,7.06-19.74,3.39-28.9-4-9.94-17.92-16.84-14.81-27.09,11.15-3.64,23.59,4,28.76,14.58s4.62,22.93,2.69,34.5c-.65,3.93-1.45,7.94-.75,11.87,1.74,9.8,11.71,15.43,18.78,22.43a46.08,46.08,0,0,1,12.34,41.9c-1.63,7.38-5.12,14.51-4.79,22.07s6.92,15.66,14.22,13.71c7.82-2.1,9-12.59,8.35-20.66q-1.86-23.61-5.82-47c-.58-3.45-1.2-7-.71-10.42,2.14-15,23-21.27,26.26-36.09,1.6-7.18-1.43-14.51-2-21.84s3.52-16.42,10.87-16.28c4.89.09,8.68,4.33,11,8.63a42.35,42.35,0,0,1-2.34,43.4c-6.8,9.82-18.12,17.32-20.11,29.1-2.85,16.77,15,33.89,7.62,49.21-2.37,4.92-7.22,9.08-6.94,14.52.42,8.27,13,10.62,19.24,5.14s7.46-14.51,8.39-22.73,2.37-17.28,8.77-22.53c12-9.83,30.14,1,45.3-2.31,11.09-2.4,18.91-11.94,28.07-18.64s23.71-9.91,30.68-.95c7.22,9.27-.91,23.65-11.87,27.9S352.22,335,340.47,335s-25.18,3.49-30.23,14.09c-2.11,4.41-2.48,9.6-5.2,13.66-5.77,8.62-18.78,8.19-27.05,14.47-8.57,6.51-10.22,18.55-15.56,27.91C240.26,444,188.74,415.33,187.18,378.5Z"/><path class="cls-2" d="M693.39,338.83c-.78-18.52,12.21-37.71,4.4-54.53-4.72-10.17-15.7-15.76-22.8-24.43a38.28,38.28,0,0,1-8-30.21c1.64-9.73,7.06-19.74,3.39-28.9-4-9.93-17.92-16.84-14.81-27.08,11.15-3.65,23.59,4,28.76,14.57s4.62,22.93,2.69,34.5c-.65,3.93-1.45,7.95-.76,11.87,1.75,9.8,11.72,15.43,18.79,22.43A46.11,46.11,0,0,1,717.35,299c-1.63,7.38-5.12,14.51-4.79,22.07s6.92,15.66,14.22,13.71c7.82-2.09,9-12.59,8.35-20.66-1.24-15.73-3.18-31.42-5.82-47-.58-3.45-1.2-7-.71-10.42,2.14-15,23-21.27,26.26-36.08,1.59-7.18-1.43-14.51-2-21.85s3.52-16.42,10.87-16.28c4.89.1,8.67,4.33,11,8.63a42.37,42.37,0,0,1-2.34,43.41c-6.8,9.81-18.12,17.32-20.12,29.09-2.84,16.77,15,33.89,7.63,49.22-2.37,4.91-7.22,9.07-6.94,14.52.42,8.26,13,10.61,19.23,5.14s7.47-14.51,8.39-22.74,2.38-17.28,8.78-22.52c12-9.84,30.14,1,45.3-2.31,11.08-2.41,18.91-11.95,28.07-18.65s23.71-9.9,30.68-.95c7.21,9.27-.92,23.66-11.87,27.9s-23.17,2.11-34.92,2.12-25.18,3.49-30.24,14.1c-2.1,4.41-2.47,9.59-5.19,13.65-5.77,8.63-18.78,8.2-27,14.47-8.58,6.52-10.22,18.55-15.56,27.91C746.47,404.34,695,375.67,693.39,338.83Z"/><path class="cls-2" d="M1031.27,329.45c11.46-22.68,36.7-38.86,39.49-64.12,1.94-17.52-7.83-35.69-2.18-52.38,7.9-23.33,41.14-30.42,48.69-53.86,3.43-10.66,1.5-24.34,10.43-31.09a8.68,8.68,0,0,1,5.06-2c5.8,0,8.46,7.24,8.66,13a63.44,63.44,0,0,1-22.62,50.28c-7.34,6.07-16.19,10.59-21.87,18.24-12.84,17.32-4.31,41.78-7.36,63.13A57,57,0,0,1,1079.32,296c-6.59,9.09-15.71,16-23,24.52s-13,19.72-10.58,30.67c1,4.64,3.87,9.22,8.35,10.8,6.45,2.28,13.25-2.38,17.86-7.43a69,69,0,0,0,17.41-37.94c1.19-9.88.31-20.31,4.49-29.33,8.15-17.56,31.51-22.39,43.18-37.84,12-15.94,9-39.33,19.84-56.09,10-15.39,29.11-21.55,46.74-26.64,2.42-.7,5-1.4,7.44-.77,5.65,1.45,7.17,9.59,3.89,14.41s-9.39,6.82-15.16,7.69-11.77,1-17.1,3.32c-12.06,5.35-16.53,20.09-18,33.2s-1.52,27.36-9.53,37.85c-11.05,14.46-33.68,16.91-43.18,32.44-11.35,18.56,1.81,46.61-13,62.55-6.31,6.81-16.07,9.17-23.42,14.83-1.27,1-2.54,2.18-2.78,3.76-.52,3.37,3.59,5.38,6.91,6.12,6.2,1.37,12.65,2.24,18.86,1,14.69-3,24.37-16.68,32.14-29.49s16.38-26.87,30.62-31.52c22-7.17,45.85,11.78,68.28,6,7.74-2,14.4-6.78,21.17-11s14.25-8.15,22.24-8,16.42,5.57,17.24,13.52c.71,6.95-4.31,13.16-9.76,17.53a62.29,62.29,0,0,1-38.77,13.59c-24.63-.05-50.06-14.56-72.69-4.82-20,8.6-28.21,32.28-43.88,47.39-16.74,16.15-53.86,25.39-75.15,12.32C1025.27,393.39,1019,353.81,1031.27,329.45Z"/><path class="cls-2" d="M473.86,377.3c-16.8-7.1-33.94-19.42-36.34-37.5-.25-1.92-.29-4,.81-5.62,2.18-3.17,7.42-2.2,10,.66s3.41,6.81,4.91,10.35c4.81,11.35,17.71,18.69,29.93,17a8.91,8.91,0,0,0,4.57-1.67c2.87-2.38,2.33-7.2,0-10.09s-6-4.38-9.34-6c-16.95-8.2-32-25.11-29.61-43.79.42-3.31,1.88-7.08,5.11-7.9,3.43-.87,6.71,2.23,7.91,5.56s1.1,7,2.17,10.38c4.94,15.61,29.4,15.24,37.91,29.24,2.63,4.31,4.49,10.48,9.53,10.89,5.61.47,8.32-7.65,5.62-12.59s-8.15-7.58-12.62-11A37.93,37.93,0,0,1,490.59,304c-.93-3.94-.67-9.07,3-10.77,3.05-1.42,6.62.49,9,2.81,7.06,6.76,9.93,17.18,17.5,23.35,5.62,4.58,13.84,7,16.31,13.77,1.62,4.46,1.45,11.19,6.15,11.8,2.57.33,4.91-2,5.42-4.53s-.37-5.14-1.49-7.48c-3.31-6.86-8.89-12.75-10.48-20.2s4.06-17.15,11.45-15.31c4.54,1.12,7.12,6,8.1,10.52s1,9.42,2.94,13.66c1.53,3.27,4.16,6,5.46,9.34,1.91,4.95.66,10.51-.61,15.67l-5.55,22.53c-.92,3.73-1.88,7.54-4,10.73a23.84,23.84,0,0,1-8.87,7.38C523.58,398.53,494.33,385.94,473.86,377.3Z"/><path class="cls-2" d="M66.35,351.47c4.63-7.28,8.29-16.1,5.91-24.39-1.28-4.46-4.21-8.38-5-12.95s2.09-10.39,6.71-10a8.75,8.75,0,0,1,3.88,1.59,28.42,28.42,0,0,1,12.75,23.77c-.16,12.72-8.72,23.53-16,33.93-1.37,1.95-2.78,4.36-1.92,6.58,1.3,3.38,6.59,2.92,9.09.31s3.39-6.36,5.4-9.37c5.52-8.29,17.91-9.21,24.29-16.87,3.69-4.43,5.39-11.08,10.77-13.15A8.32,8.32,0,0,1,132,343.46c-2.13,3.06-6,4.31-9.23,6.11-12.41,6.82-18.4,22.92-31.77,27.56,8.06,5.14,18.87,1.62,26.8-3.72s15-12.49,24.14-15.18a9.11,9.11,0,0,1,4.32-.42c5.56,1.14,5.48,9.9,1.25,13.7s-10.29,4.55-15.45,6.93c-7.16,3.3-12.39,9.6-18.47,14.6-13.11,10.77-38.83,20.26-53.91,7.81C42.45,386.61,57.54,365.29,66.35,351.47Z"/></g></g></svg>