<svg xmlns="http://www.w3.org/2000/svg" viewBox="0 0 231.75 63.81"><path fill="currentColor" d="M29 63.81c-6.54-11.32-4.7-27.1-8-39.92-9.8 8.53-13.68 21.88-21 31.68C-.08 44 12.74 25.55 21.41 18.1c5.85.4 5.6 30.43 8.62 37.1 6.55-14.32 15.19-28.89 27.27-39.15 7 .16 3.55 23.21 5.27 29 16.27-35.24 21.63-45 21 2.11C90.1 38 91.43 26 97.82 16.65 108.63 7.71 107 33 107.23 38.7c7.15-1.93 20.39-46.19 25.62-26.41 1 10.26-1.54 34.48 13.24 16.19 26.81-44.31 13.47-4.22 47.25-13l-.38.09c12-2.58 22.46-9.44 33.15-15.12 25.94-5.33-45 43.18-62.23 14.18l.14.08c-7.42 2-12.43 19.15-20 24.36-16.56 12.74-15.21-13.85-15.7-23.8-1 1.3-1.76 2.72-2.58 4.11l.06-.11c-.08.16-.18.31-.26.47l.16-.29c-3.57 5-16.44 37.35-22.87 23.12-.58-5.85.37-11.87-.94-17.68v.1a27.53 27.53 0 00-.76-3.23 3.81 3.81 0 00-.59.08C95 31 93.08 42.13 87.06 51.16c-8.74 11.91-8.15-3.11-7.79-9.76v.37c-.27-6.36.51-12.88-.68-19.16-16.45 31.71-19.87 49.67-21.59.11A125.63 125.63 0 0033.81 56.9C32.72 59.33 32 63.29 29 63.81z"/></svg>