<svg xmlns="http://www.w3.org/2000/svg" viewBox="0 0 209.29 64.8"><path fill="currentColor" d="M38.16 64.8c-2-1.25-1.27-4.23-.92-6.18 3.31-14.62 6.59-29.25 11.13-43.5a101.64 101.64 0 00-15.27 9.64l.29-.21C22.78 32.2 14.26 42.29 5.92 52.26a18.61 18.61 0 01-5.61 6.1C-4.17 47.73 41.16 8.24 53.17 7.62c3.42 1.73.24 6-.8 8.44-4.18 11.51-6.24 23.69-9.43 35.5 10.79-15.35 25.84-30 43.93-35.66 5.28 2.77-6 21.27-6.83 26.6 15.37-28.24 63.91-60.38 42-1.41C136.89 20.74 159.29 7 184.36 3.89 192.43 3.43 202-3.2 209.29 2c-9.79 11.27-36.72 8.51-50.79 16.84A87.35 87.35 0 00128.85 42c-4.3 4.08-6.65 10.81-12.16 13.27-6.86-.12-2-8.73-.56-12.19a.77.77 0 01-.07.16l.22-.48-.15.32c25.17-57.72-25.32-13.37-36.63 9.03-1.45 2.16-3.11 6-6.32 4.67-4.6-4.45 7.89-26.27 9.41-33a91.28 91.28 0 00-33.88 27.94C45.47 54.69 42 64.32 38.16 64.8z"/></svg>