<svg xmlns="http://www.w3.org/2000/svg" viewBox="0 0 271.28 76.95"><path fill="currentColor" d="M8 76.94c-3.1.19-10.87-3.33-6.91-6.67 2.65-.07 5.09.86 7.7 1.14 13.65-1.06 25.48-9.81 36.67-17a377.62 377.62 0 0041.68-35.59c16.11-19.32 0 27.58.09 33.3 11.63-13 53.33-70.25 32.23-15.21 27.11-34.32 28.09-33.52 25.09 9.91a102.67 102.67 0 0164.73-43.17c19-3.9 40.51-6.12 58.82 1C281.94 19 246.48 7 240.22 8.92c-23.07 0-47 5.31-66.52 17.87-30.11 21.21-38.06 59.66-33.14-5.07C131.66 31 125.07 43 114.9 50.84c-10.69 1.88 1.33-18.48 2-23.22-27.16 28.7-46.85 67-28.88-2.44C64.4 45.44 40 72.07 8 76.94z"/></svg>