<svg xmlns="http://www.w3.org/2000/svg" viewBox="0 0 219.19 61.85"><path fill="currentColor" d="M.06 59.53C-2.87 54 101.46-21.08 84.24 9.31 79 20 75.47 31.65 71.21 42.84 92.09 27.13 113.1 10.74 137 0c10.11.24-8.74 30-10.18 35.45 16.85-12.14 35-22.87 55.45-27.57 6.39-1.3 39.11-10.56 36.76 1.19l-1 .65c-8.39 5.53-19.78 2.39-29.19 5.78h.09c-16.93 3.62-33.38 10.02-47.78 19.99-39.18 29.36-20-1.06-10.34-23.26-14.14 7.41-27.24 16.59-40.21 25.85-11.6 7.28-34.69 32.72-23.91.18l-.09.3c3.27-8.83 6.67-17.56 10.07-26.38-22.17 10.13-42 24.75-61 39.87C12.55 53.71 1.46 67.14.06 59.53z"/></svg>